<?xml version="1.0" encoding="utf-8"?>
<!-- Generator: Adobe Illustrator 21.1.0, SVG Export Plug-In . SVG Version: 6.00 Build 0)  -->
<svg version="1.1" xmlns="http://www.w3.org/2000/svg" xmlns:xlink="http://www.w3.org/1999/xlink" x="0px" y="0px"
	 viewBox="0 0 162 162" style="enable-background:new 0 0 162 162;" xml:space="preserve">
<style type="text/css">
	.st0{fill:#102773;}
	.st1{fill:#FFFFFF;}
	.st2{fill:none;stroke:#FFFFFF;stroke-width:0.7515;stroke-miterlimit:10;}
	.st3{fill:none;stroke:#102773;stroke-width:5.3697;stroke-miterlimit:10;}
	.st4{fill:none;stroke:#102773;stroke-width:3.9255;stroke-miterlimit:10;}
</style>
<g id="Layer_1">
	<rect x="9.2" y="43.6" transform="matrix(0.3947 -0.9188 0.9188 0.3947 -18.5421 65.0778)" class="st0" width="61.9" height="6"/>
	<path class="st0" d="M30.1,30.3c-0.4,0.7-0.8,1.4-1.3,2.1c-1.1,2.1-2,4.2-3.1,6.3c0.1,0.3,0.2,0.6,0.1,0.8
		c-0.2,0.9-0.2,1.1-0.7,1.9c-0.2,0.4-0.5,0.6-0.9,0.6c-1.1,2.5-1.5,5.2-2.5,7.8c-0.1,0.3-0.3,0.5-0.4,0.6c-2,9.4-0.6,17.2,4,19.2
		L46.8,20C42.2,18,35.6,22.4,30.1,30.3z"/>
	<path class="st0" d="M34.6,42.3c-0.6-2.3-4.1-3.8-8.6-4c-0.1,0.1-0.1,0.3-0.2,0.4c0.1,0.3,0.2,0.6,0.1,0.8
		c-0.2,0.9-0.2,1.1-0.7,1.9c-0.2,0.4-0.5,0.6-0.9,0.6c-1,2.4-1.5,4.9-2.3,7.4c0.8,0,1.6-0.1,2.4-0.2C30.8,48.4,35.3,45.2,34.6,42.3z
		"/>
	<path class="st0" d="M32.3,34.1c-0.5-1.5-1.2-2.9-2-4.2c-0.5,0.8-0.9,1.6-1.4,2.4c-1.1,2.1-2,4.2-3.1,6.3c0.1,0.3,0.2,0.6,0.1,0.8
		c-0.2,0.9-0.2,1.1-0.7,1.9c-0.2,0.4-0.5,0.6-0.9,0.6c0,0.1-0.1,0.2-0.1,0.3c2,2.6,4.3,4.1,6.3,3.6C33.5,45.3,34.4,40,32.3,34.1z"/>
	<path class="st1" d="M25.8,39.8c-0.1,0.7-0.2,0.9-0.6,1.6c-0.2,0.4-0.5,0.6-0.9,0.6c-0.8,1.8-1.2,3.7-1.8,5.6
		c2.1,0.3,4.6,0.3,7.3-0.1l-2-8.1C27.2,39.5,26.5,39.6,25.8,39.8z"/>
	<path class="st1" d="M29.8,32.6c-0.1,0.2-0.3,0.5-0.4,0.7c-1,1.8-1.8,3.7-2.8,5.6c0,0.1,0,0.1,0,0.2l5.6-1.6
		C31.5,35.6,30.6,34,29.8,32.6z"/>
	<path class="st0" d="M34.2,37.4c-0.7,1.5-1.3,3-1.9,4.5c-0.3-0.2-0.5-0.3-0.8-0.5c0.6-1.4,1.1-2.8,1.7-4.1c0.1-0.4-0.3-0.6-0.6-0.5
		c0.1-0.3,0.2-0.6,0.4-0.9c0.1-0.2-0.1-0.4-0.3-0.5c-0.2-0.2-0.5-0.2-0.7,0c0.1-0.2,0.1-0.4,0.1-0.6c0.1-0.3-0.3-0.5-0.6-0.4l0-0.1
		c0.1-0.2-0.1-0.4-0.3-0.5c-0.2-0.1-0.4-0.1-0.5,0.1c-0.1,0.2-0.2,0.3-0.4,0.5h0c0,0,0,0,0,0c0,0,0-0.1,0.1-0.1
		c0.4-0.6,0.9-1.3,1.3-1.9c0,0,0-0.1,0-0.1c0.1,0,0.2,0,0.4,0.1c0.5,0.2,0.8-0.5,0.3-0.7c-0.6-0.2-1.1-0.1-1.5,0.1
		c0.5-0.7,1.1-1.3,1.7-2c0.4-0.4-0.3-0.9-0.7-0.5C31.2,30,30.4,31,29.7,32c-0.1-0.2-0.1-0.4-0.2-0.7c-0.2,0.3-0.4,0.7-0.6,1
		c-0.2,0.5-0.5,0.9-0.7,1.4c0,0,0,0,0,0c0,0.3-0.1,0.5-0.1,0.8c-0.6,1-1.1,2.1-1.6,3.2c-0.1,0-0.1-0.1-0.2-0.1
		c-0.2,0.4-0.4,0.7-0.5,1.1c0.1,0.3,0.2,0.6,0.1,0.8c-0.2,0.9-0.2,1.1-0.7,1.9c-0.1,0.2-0.2,0.3-0.3,0.4c0,0.1,0,0.1,0,0.2
		c-0.2,0.5-0.4,1.1-0.5,1.6c-0.3,0.6-0.6,1.2-1.1,1.7c-0.3,1-0.5,2-0.8,3c0.1,0.2,0.4,0.4,0.7,0.3c0,0.1,0.1,0.1,0.1,0.1
		c0,0.3,0.3,0.5,0.6,0.4c0,0,0,0,0,0c-0.1,0.5,0.7,0.6,0.8,0.1c0,0,0,0,0,0c0.2,0.1,0.5,0.1,0.6-0.1c0-0.1,0.1-0.1,0.1-0.2
		c0.2,0.1,0.4,0,0.5-0.2c0,0,0-0.1,0-0.1c0.1,0.3,0.6,0.5,0.8,0.1c0-0.1,0-0.1,0.1-0.2c0.1,0.5,0.3,0.9,0.4,1.4
		c-0.1,0.2-0.2,0.4-0.2,0.6c-0.1,0.4,0.3,0.6,0.6,0.5c0.1,0.3,0.2,0.7,0.4,1c0.1,0.3,0.5,0.3,0.7,0.1c0.5-0.5,0.8-1,0.9-1.7
		c0-0.1,0.1-0.1,0.1-0.2c-0.3,1.1-0.5,2.2-0.8,3.4c-0.1,0.5,0.7,0.6,0.8,0.1c0.4-2.1,1-4.2,1.6-6.3c0.2,0.1,0.4,0.1,0.4-0.1
		c0,0,0-0.1,0-0.1c0,0,0,0,0,0c0,0,0,0,0-0.1c0.1-0.4,0.2-0.9,0.2-1.3c0-0.1,0.1-0.3,0.1-0.4c0.1-0.1,0.1-0.3,0.2-0.4
		c0.3-0.5,0.5-1.1,0.7-1.6c0.1,2,0.2,3.9,0.5,5.9c0,0.4,0.6,0.4,0.7,0c0.1-1.8,0.7-4.6-0.5-6.3c0-0.1,0-0.3,0-0.4
		c0.2,0.3,0.8,0.2,0.7-0.2c-0.1-0.6-0.3-1.3-0.4-1.9c0.3-0.9,0.7-1.9,1-2.8C35.2,37.3,34.4,37,34.2,37.4z M28.9,40
		c-0.2-0.1-0.3-0.2-0.5-0.3c0,0,0-0.1,0-0.1c0-0.1,0.1-0.3,0.1-0.4c0.1-0.2,0-0.4-0.2-0.5c0.2,0,0.4,0,0.6,0c0.2,0,0.3-0.1,0.3-0.3
		c0,0,0,0,0,0C29.1,39,29,39.5,28.9,40z M29.9,40.4c0,0.1-0.1,0.2-0.1,0.2c-0.1,0-0.2-0.1-0.2-0.1c0.2-0.8,0.4-1.6,0.7-2.4
		c0.1,0.1,0.3,0.2,0.5,0.1c0.1,0.1,0.1,0.1,0.2,0.1c-0.2,0.6-0.4,1.3-0.6,1.9C30.2,40.1,30,40.1,29.9,40.4z M31.6,43.8
		c-0.1,0-0.2,0.1-0.2,0.2c0.1-0.2,0.1-0.4,0.2-0.6c0.1-0.3-0.3-0.6-0.6-0.5c0.1-0.2,0.2-0.4,0.2-0.7c0.3,0.2,0.5,0.3,0.8,0.5
		C31.9,43,31.7,43.4,31.6,43.8z"/>
	<g>
		<g>
			<path class="st0" d="M86.2,76.2H30.6c0,0,1.9,65.2,4.3,65.2h50.7c2.5,0,4.3-65.2,4.3-65.2H34.3"/>
		</g>
		<line class="st2" x1="36.4" y1="82.7" x2="38.7" y2="136.1"/>
		<line class="st2" x1="41.6" y1="82.7" x2="44" y2="136.1"/>
		<line class="st2" x1="84.1" y1="82.7" x2="81.7" y2="136.1"/>
		<line class="st2" x1="78.8" y1="82.7" x2="76.5" y2="136.1"/>
		<line class="st2" x1="60.8" y1="83.6" x2="60.8" y2="135.1"/>
		<line class="st2" x1="54.4" y1="84.1" x2="54.4" y2="135.6"/>
		<line class="st2" x1="67.2" y1="84.1" x2="67.2" y2="135.6"/>
		<line class="st2" x1="47.4" y1="83.6" x2="49.2" y2="135.1"/>
		<line class="st2" x1="73.6" y1="83.6" x2="71.3" y2="135.1"/>
	</g>
	<path class="st0" d="M62.4,72.3c-6.2-2.6-9.5-9.1-7.2-14.6c2.3-5.5,9.2-7.8,15.4-5.2"/>
	<path class="st0" d="M62.1,72.1c6.2,2.6,13.1,0.3,15.4-5.2s-1-11.9-7.2-14.5"/>
	<path class="st0" d="M69.7,50.6c0.7-1,3.6-1.9,5.2-2.2c1.7-0.3,4.5-0.4,4.4,0.7c-0.1,1-2.9,2.9-5.3,3.4
		C71,53.2,68.9,51.8,69.7,50.6z"/>
	<path class="st0" d="M69.9,52.2c-1.1-0.5-2.5-3.1-3.1-4.7c-0.6-1.6-1.2-4.3-0.2-4.4c1-0.1,3.4,2.4,4.4,4.6
		C72.2,50.4,71.3,52.7,69.9,52.2z"/>
	<path class="st0" d="M58.7,33.2c0.9,1,2.1,1.2,3.3,1.1c0.1,0.5,0.5,0.9,1.2,1.1c1,0.2,2,0.2,2.9,0c0.2,0.4,0.7,0.8,1.4,0.8
		c2.9,0,5.6-0.6,8.1-1.8c1.7,0.7,3.4,1.5,5.1,2.4c3.2,1.8,6,4.3,9.5,5.5c3,1,6,0.7,9.1,0.1c4-0.7,7.9-1.5,11.9-2.3
		c1.2-0.2,1.5-1.5,1-2.2c0.2-0.2,0.3-0.5,0.3-0.9c-0.1-2.5-0.2-4.9-0.4-7.4c-0.1-1.3-1.8-1.5-2.6-0.7c-3.2,3.1-8.1,3.4-12.4,2.3
		c-4.9-1.3-8.7-4.7-13.5-5.9c-4.1-1-8.5,0.1-12.4,1.2c-2.2,0.6-4.4,1.4-6.5,2.1c-2,0.7-4,1.3-5.6,2.6C58.5,31.7,58.1,32.6,58.7,33.2
		z"/>
	<path class="st0" d="M58.2,32.3c-0.1,1.8,1.4,2.4,3.4,2.4c0,0.1,0,0.1,0.1,0.2c1,1.2,2.4,1.3,3.9,1c0.1,0,0.1,0,0.2,0
		c0,0.1,0.1,0.1,0.2,0.2c1.2,0.9,2.6,0.7,4,0.5c1.7-0.2,3.5-0.6,5.2-1.1c0.2,0,0.2-0.1,0.3-0.2c2.4,1,4.9,1.8,7.1,3.2
		c2.2,1.3,4.2,3,6.7,4c5,2.1,10.9,0.1,16-0.9c0.1,0,0.2,0,0.3,0c2.2-0.7,4.8-0.7,7.1-0.9c0.4,0,0.5-0.4,0.4-0.6c0,0,0-0.1,0-0.1
		c-0.4-3.9-0.7-7.8-0.9-11.8c0-0.4-0.6-0.5-0.8-0.2c-0.1,0-0.1,0-0.2,0c-3.1,1.2-6.1,3.1-9.5,3.5c-3.8,0.4-7.4-1.3-10.6-3
		c-2.8-1.5-5.5-3.1-8.7-3.7c-2.9-0.6-5.8,0-8.6,0.7c-3.4,0.8-6.8,1.9-10.1,3.2C62,29.3,58.3,30.2,58.2,32.3z M62.7,34.6
		c3.2-0.4,7.2-1.9,8.3-2.3c0,0,0.1,0,0.1-0.1c0.2,0.5,0.6,0.9,1.1,1.3c-1.6,0.4-3.2,0.8-4.8,1.1C66,35,63.9,35.6,62.7,34.6z
		 M73.1,30.3c0.8,0.3,3.3,1.1,2.9,1.7c-0.4,0.5-1.4,0.2-2.3-0.1c-0.6-0.1-1.4-0.5-1.3-1.1c0-0.2,0.2-0.4,0.5-0.5
		C72.9,30.3,73,30.3,73.1,30.3C73.1,30.3,73.1,30.3,73.1,30.3z M70.9,35.6c-1.2,0.2-2.7,0.6-3.8,0.1c1.8-0.3,3.7-0.8,5.5-1.3
		c0.2-0.1,0.3-0.2,0.3-0.4c0.3,0.2,0.5,0.3,0.8,0.4c0.2,0.1,0.4,0.2,0.6,0.3C73.2,35.1,72,35.4,70.9,35.6z M61.3,30.6
		c0.1-0.1,0.2-0.1,0.3-0.2c0.6-0.3,1.3-0.6,1.9-0.8c1.2-0.5,2.4-0.9,3.6-1.4c5.6-2,11.9-4.1,17.7-1.9c4.6,1.8,8.5,5,13.6,5.8
		c4.7,0.7,8.5-1.7,12.7-3.3c0.2,3.7,0.4,7.3,0.8,11c-2.1,0.2-4.4,0.3-6.5,0.8c-0.1,0-0.1,0-0.2,0c-4,0.8-8.5,2.3-12.7,1.8
		c-4.4-0.5-7.5-3.8-11.2-5.7c-1.9-1-4-1.7-5.9-2.5c-0.7-0.3-2-0.8-2.5-1.3c0-0.1,0-0.3-0.1-0.4c0.6,0.3,1.3,0.5,1.9,0.5
		c0.7,0.1,1.8-0.2,2.1-0.8c0.7-1.3-1.9-2.3-3.2-2.8c0.3-0.1,0.7-0.1,1.2,0c0.8,0.1,1.6,0.4,2.4,0.7c3.5,1.3,6.4,3.4,10.2,4.1
		c0.6,0.1,0.8-0.8,0.1-0.9c-3.1-0.6-5.6-2-8.3-3.3c-1.8-0.9-4.3-2-6.5-1.5c-1.3,0.3-2.2,1.3-2.1,2.6c0,0.1,0,0.1,0,0.2
		c-0.1,0-0.1,0-0.2,0c-2.1,0.8-5.1,2.1-7.6,2.2c0,0.1-0.1,0.1-0.2,0.1c-0.9,0-2,0.4-2.9-0.1c-0.6-0.3-1-0.9-0.9-1.6
		C59.3,31.3,60.3,30.9,61.3,30.6z"/>
	<path class="st1" d="M71.4,31.3c0.1,0.2,0.2,0.4,0.3,0.6c0,0.1,0,0.2,0.1,0.2c1,0.6,3.5,1.5,4.5,0.5c1.2-1.2-1.5-2.4-2.4-2.7
		C72.8,29.6,71.1,29.9,71.4,31.3z M72.3,30.4c0.5-0.4,1.4-0.1,1.9,0.1c0.4,0.2,1,0.4,1.3,0.7c0.4,0.2,0.5,0.6,0.3,1.2
		c-0.8,0.1-1.6,0-2.4-0.1C72.6,32,71.1,31.3,72.3,30.4z"/>
	<path class="st1" d="M61,34.6c3.5-0.2,6.8-1,9.9-2.4c0,0,0,0,0,0c0.3,0.7,0.9,1.3,1.6,1.7c-2.4,0.7-5.1,1.6-7.6,1.6
		c-0.3,0-0.4,0.4-0.1,0.4c2.7,0.1,5.6-0.9,8.2-1.7c0,0,0,0,0,0c1.1,0.6,2.4,1,3.4,1.3c0.3,0.1,0.5-0.3,0.2-0.4
		c-1.8-0.5-5-1.5-5.3-3.5c-0.2-1.2,1.1-2.1,2.3-2.3c1.1-0.1,2.2,0.2,3.3,0.6c3.7,1.3,7,3.5,10.8,4.4c0.3,0.1,0.4-0.4,0.1-0.4
		c-2.9-0.7-5.5-2.1-8.2-3.3c-1.9-0.8-4.3-2-6.4-1.5c-1.4,0.3-2.5,1.5-2.2,2.7c-3.1,1.4-6.4,2.2-9.8,2.4C60.6,34.1,60.7,34.6,61,34.6
		z"/>
	
		<rect x="12.5" y="37.2" transform="matrix(0.4333 -0.9013 0.9013 0.4333 -20.9659 44.8078)" class="st0" width="25.2" height="3.7"/>
	<line class="st3" x1="148.3" y1="53.8" x2="93" y2="111"/>
	<line class="st3" x1="95.2" y1="52" x2="149" y2="110.3"/>
</g>
<g id="circle">
	<circle class="st4" cx="81" cy="81" r="79"/>
</g>
</svg>
