<?xml version="1.0" encoding="utf-8"?>
<!-- Generator: Adobe Illustrator 21.1.0, SVG Export Plug-In . SVG Version: 6.00 Build 0)  -->
<svg version="1.1" xmlns="http://www.w3.org/2000/svg" xmlns:xlink="http://www.w3.org/1999/xlink" x="0px" y="0px"
	 viewBox="0 0 162 162" style="enable-background:new 0 0 162 162;" xml:space="preserve">
<style type="text/css">
	.st0{fill:#102773;}
	.st1{fill:#FFFFFF;}
	.st2{fill:none;stroke:#102773;stroke-width:2.11;stroke-miterlimit:10;}
</style>
<g id="Layer_1">
	<path class="st0" d="M143.2,78.8C131.3,52,95.3,40.4,62,52.2l0,0c-0.4,0.1-0.7,0.3-1.1,0.5c-0.3,0.1-0.6,0.2-0.9,0.3l0,0
		c-32.5,13.5-49.2,45.6-37.2,72.5c11.9,26.8,47.7,38.6,80.8,27.1c0,0-0.1,0.1-0.1,0.1c-0.6,0.6-0.6,1.6,0,2.2c0.6,0.6,1.6,0.6,2.3,0
		c0.9-0.8,1.6-1.9,2-3h5.2c2.1,0,2.1-3.1,0-3.1h-2C140.1,134.2,154.4,104.2,143.2,78.8z"/>
	<path class="st0" d="M65,43.1c-3.8-5.2-19.3-9.5-28.3-10.9c-9.3-1.5-24.2-2-23.7,3.3c0.5,5.2,16,14.6,28.8,17.3
		C57.9,56.2,69.4,49.1,65,43.1z"/>
	<path class="st0" d="M63.5,51.1c6.2-2.5,13.7-15.9,16.9-23.8c3.3-8.2,6.6-21.8,1-22.3c-5.6-0.5-18.4,11.9-23.7,23.1
		C51.1,42.1,56.3,54,63.5,51.1z"/>
</g>
<g id="label">
	<path class="st1" d="M132.6,102l-37.3,18.2c-6.3,3.1-14.1,0.6-17.2-5.6l-7.7-14.9c-3.2-6.1-0.6-13.7,5.7-16.8l37.3-18.2
		c6.3-3.1,14.1-0.6,17.2,5.6l7.7,14.9C141.5,91.3,138.9,98.9,132.6,102z"/>
	<line class="st2" x1="75" y1="95.6" x2="123.1" y2="71.6"/>
	<line class="st2" x1="77.1" y1="99.7" x2="125.2" y2="75.8"/>
	<line class="st2" x1="79.3" y1="103.9" x2="127.4" y2="80"/>
	<line class="st2" x1="81.4" y1="108.1" x2="129.5" y2="84.1"/>
	<line class="st2" x1="114.6" y1="97.7" x2="131.7" y2="89.3"/>
	<line class="st2" x1="116.7" y1="101.8" x2="133.8" y2="93.5"/>
</g>
</svg>
