<?xml version="1.0" encoding="utf-8"?>
<!-- Generator: Adobe Illustrator 21.1.0, SVG Export Plug-In . SVG Version: 6.00 Build 0)  -->
<svg version="1.1" xmlns="http://www.w3.org/2000/svg" xmlns:xlink="http://www.w3.org/1999/xlink" x="0px" y="0px"
	 viewBox="0 0 162 162" style="enable-background:new 0 0 162 162;" xml:space="preserve">
<style type="text/css">
	.st0{fill:none;stroke:#102773;stroke-width:3;stroke-miterlimit:10;}
	.st1{fill:none;stroke:#102773;stroke-width:2;stroke-miterlimit:10;}
	.st2{fill:#102773;}
</style>
<g id="Layer_1">
	<g>
		<circle class="st0" cx="50" cy="126" r="22"/>
		<circle class="st0" cx="119.5" cy="125.5" r="22"/>
		<polyline class="st1" points="50.5,126.5 60.5,87.5 119.5,87.5 119.5,125.5 90.5,125.5 115,81 		"/>
		<line class="st0" x1="105" y1="81" x2="125" y2="81"/>
		<line class="st1" x1="60" y1="87" x2="134" y2="87"/>
		<line class="st1" x1="119.5" y1="87.5" x2="119.5" y2="81"/>
		<line class="st1" x1="50.5" y1="125.5" x2="64" y2="72"/>
		<line class="st1" x1="60" y1="72" x2="77" y2="72"/>
	</g>
</g>
<g id="dummies">
	<g>
		<path class="st2" d="M43,105.8L43,105.8c3.7,0.1,6.6-2.7,6.5-6.2l-0.7-32.1c-0.1-3.6-3.1-6.6-6.8-6.8h0c-3.7-0.1-6.6,2.7-6.5,6.2
			L36.2,99C36.3,102.6,39.3,105.7,43,105.8z"/>
		
			<rect x="44" y="100" transform="matrix(-1 -5.222546e-11 5.222546e-11 -1 93.4399 247.7786)" class="st2" width="5.4" height="47.8"/>
		<polygon class="st2" points="32,147.3 37.3,148 41.8,100.5 36.5,99.8 		"/>
		<ellipse class="st2" cx="41.4" cy="48.9" rx="9.8" ry="11.9"/>
		<polygon class="st2" points="57.8,96.6 61,94.5 48.2,65 45,67.1 		"/>
		<polygon class="st2" points="20,92.1 22.9,94.7 39.5,67.7 36.6,65.1 		"/>
	</g>
	<g>
		<path class="st2" d="M99.6,98.4L99.6,98.4c4.6,0.2,8.2-3.2,8.1-7.5l-0.9-38.4c-0.1-4.3-3.9-7.9-8.5-8.1h0
			c-4.6-0.2-8.2,3.2-8.1,7.5l0.9,38.4C91.2,94.6,95,98.3,99.6,98.4z"/>
		
			<rect x="100.9" y="91.5" transform="matrix(-1 -5.016444e-11 5.016444e-11 -1 208.474 240.2213)" class="st2" width="6.7" height="57.3"/>
		<polygon class="st2" points="85.9,148.1 92.5,149 98.1,92.1 91.5,91.2 		"/>
		<ellipse class="st2" cx="97.6" cy="30.3" rx="12.2" ry="14.3"/>
		<polygon class="st2" points="118,87.4 122,84.9 106.1,49.6 102.1,52.1 		"/>
		<polygon class="st2" points="71,82 74.6,85.1 95.2,52.8 91.7,49.7 		"/>
	</g>
	<circle class="st2" cx="23" cy="92" r="3.5"/>
	<circle class="st2" cx="59" cy="94" r="3.5"/>
	<circle class="st2" cx="71" cy="85" r="3.5"/>
	<circle class="st2" cx="120" cy="86" r="3.5"/>
	<ellipse class="st2" cx="34.5" cy="148.5" rx="4.5" ry="2.5"/>
	<ellipse class="st2" cx="47.5" cy="149.5" rx="4.5" ry="2.5"/>
	<ellipse class="st2" cx="86.5" cy="148.5" rx="6.5" ry="2.5"/>
	<ellipse class="st2" cx="102.5" cy="148.5" rx="6.5" ry="2.5"/>
</g>
</svg>
