<?xml version="1.0" encoding="utf-8"?>
<!-- Generator: Adobe Illustrator 21.1.0, SVG Export Plug-In . SVG Version: 6.00 Build 0)  -->
<svg version="1.1" xmlns="http://www.w3.org/2000/svg" xmlns:xlink="http://www.w3.org/1999/xlink" x="0px" y="0px"
	 viewBox="0 0 162 162" style="enable-background:new 0 0 162 162;" xml:space="preserve">
<style type="text/css">
	.st0{fill:#C6C6C6;}
	.st1{fill:#EAA25C;}
	.st2{fill:#EAB386;}
	.st3{fill:url(#SVGID_1_);stroke:#59595B;stroke-width:2.4572;stroke-miterlimit:10;}
	.st4{fill:url(#SVGID_2_);}
	.st5{fill:none;stroke:#59595B;stroke-width:2.3574;stroke-miterlimit:10;}
	.st6{fill:url(#SVGID_3_);stroke:#59595B;stroke-width:2.2206;stroke-miterlimit:10;}
	.st7{fill:none;stroke:#59595B;stroke-width:2.8824;stroke-miterlimit:10;}
	.st8{fill:none;stroke:#59595B;stroke-width:2.8636;stroke-miterlimit:10;}
	.st9{fill:none;stroke:#59595B;stroke-width:2.2206;stroke-miterlimit:10;}
	.st10{fill:url(#SVGID_4_);stroke:#59595B;stroke-width:1.9806;stroke-miterlimit:10;}
	.st11{fill:url(#SVGID_5_);stroke:#59595B;stroke-width:2.2206;stroke-miterlimit:10;}
	.st12{fill:url(#SVGID_6_);stroke:#59595B;stroke-width:2.2206;stroke-miterlimit:10;}
	.st13{fill:url(#SVGID_7_);stroke:#59595B;stroke-width:2.4539;stroke-miterlimit:10;}
	.st14{fill:url(#SVGID_8_);stroke:#59595B;stroke-width:2.4539;stroke-miterlimit:10;}
</style>
<g id="parche_color">
	<path class="st0" d="M95.3,111.9c0.9-1.5,0.2-3.9-2.1-3.9c-1,0-1.7,0.5-2,1.1H75.3c-1,0-1.6,0.5-2,1.1c-0.3-0.8-1.1-1.4-2.2-1.4
		c-0.1,0-0.1,0-0.2,0c-0.3-0.2-0.7-0.3-1.2-0.3c-1.4,0-2.2,1-2.4,2.1c-1.3,0.3-1.8,1.6-1.7,2.7c-0.1,1.3,0.7,2.8,2.4,2.8h4.8
		c0.4,0,0.8-0.1,1.1-0.2c0.4,0.6,1.1,1,2.1,1c6-0.6,11.9-0.7,17.9-0.5C96.4,116.4,96.9,113.2,95.3,111.9z"/>
	<path class="st1" d="M95.3,111.1c-0.1-1.1-0.9-2.2-2.4-2.2c-6.1-0.2-12.2,0.1-18.2,0.7c-0.3,0-0.6,0.1-0.9,0.3
		c-0.1-1.2-1.2-2.4-2.5-2.3c-0.5,0-1,0.2-1.4,0.5c0-0.1,0-0.2,0-0.3c0-0.6-0.1-1.3-0.8-1.5c-0.3-0.1-0.5,0.1-0.6,0.3
		c0-0.1,0-0.2,0-0.2c-0.1-0.5-0.7-0.6-0.9-0.2c0,0-0.1,0-0.1,0c-0.1,0-0.1,0.1-0.1,0.1c0,0,0-0.1-0.1-0.1c-0.4-0.5-1.2,0-0.9,0.5
		c0.1,0.1,0.1,0.2,0.2,0.3c0,0,0,0,0,0.1c0,0.2,0.1,0.4,0.2,0.4c0,0,0,0,0.1,0c0.1,0.3,0.2,0.5,0.3,0.8l0,0.4v1.3
		c-0.1,0.1-0.2,0.3-0.1,0.5c-0.2,0.2-0.3,0.4-0.3,0.7c-0.1,0.5,0,1.3,0,1.9c0,0.1-0.1,0.2-0.1,0.2c-0.1,0.1,0,0.3,0,0.4
		c-0.1,0.5-0.3,1-0.7,1.3c-0.4,0.3-0.3,0.9,0.3,0.9c1,0,2.1,0,3.1,0c0.1,0,0.2,0,0.3-0.1c0.4,0.4,1,0.7,1.7,0.7
		c1.2-0.1,2.2-0.8,2.4-1.9c0.2,0.1,0.4,0.1,0.6,0.1c0.2,1,1,1.9,2.3,1.9c6,0,12-0.1,18-0.4C97.6,115.9,97.8,111.6,95.3,111.1z"/>
	<path class="st2" d="M68.6,106.7c-0.1-0.1-0.3,0-0.4,0.1c0-0.1-0.1-0.1-0.1-0.2c-0.3-0.6-1.2-0.1-0.9,0.5c0.4,0.7,0.5,1.6,0.6,2.4
		c0,0.4,0.5,0.6,0.7,0.4c0.3,0.3,0.9,0.2,0.9-0.3C69.5,108.5,69.7,107.2,68.6,106.7z"/>
	<path class="st1" d="M70,110.5c-0.4-1-0.6-2-0.7-3.1c0-0.4-0.5-0.6-0.7-0.4c0-0.4-0.5-0.5-0.8-0.3c0-0.1,0-0.1,0-0.2
		c0-0.6-1-0.6-1,0c0,1.5,0.1,3,0.4,4.4c0.1,0.6,0.9,0.4,1-0.1c0.3,0.1,0.8-0.2,0.7-0.6c0-0.1,0-0.3-0.1-0.4c0.1,0.3,0.2,0.7,0.3,1
		C69.2,111.3,70.2,111.1,70,110.5z"/>
</g>
<g id="Layer_2">
	<linearGradient id="SVGID_1_" gradientUnits="userSpaceOnUse" x1="32.6174" y1="55.6685" x2="129.6581" y2="55.6685">
		<stop  offset="0" style="stop-color:#FFFFFF"/>
		<stop  offset="0.4344" style="stop-color:#C6C6C6"/>
	</linearGradient>
	<ellipse class="st3" cx="81.1" cy="55.7" rx="48.5" ry="51.7"/>
	<linearGradient id="SVGID_2_" gradientUnits="userSpaceOnUse" x1="65.3406" y1="105.8183" x2="97.0779" y2="105.8183">
		<stop  offset="0" style="stop-color:#FFFFFF"/>
		<stop  offset="3.435297e-03" style="stop-color:#EAA25C"/>
	</linearGradient>
	<rect x="65.3" y="102" class="st4" width="31.7" height="7.6"/>
	<path class="st5" d="M99.6,116.7c-2.2-0.2-3.8-3.3-3.6-7c0.3-3.7,2.3-6.6,4.5-6.5"/>
	<path class="st5" d="M61.9,103.2c2.2-0.1,4.2,2.8,4.5,6.5s-1.4,6.9-3.7,7"/>
	<linearGradient id="SVGID_3_" gradientUnits="userSpaceOnUse" x1="54.5075" y1="146.3184" x2="98.4308" y2="146.3184">
		<stop  offset="0" style="stop-color:#FFFFFF"/>
		<stop  offset="5.697262e-02" style="stop-color:#FEEAE3"/>
		<stop  offset="0.1487" style="stop-color:#FDCDBD"/>
		<stop  offset="0.2476" style="stop-color:#FCB59C"/>
		<stop  offset="0.3533" style="stop-color:#FBA181"/>
		<stop  offset="0.4683" style="stop-color:#FA916D"/>
		<stop  offset="0.5974" style="stop-color:#F9865E"/>
		<stop  offset="0.752" style="stop-color:#F98056"/>
		<stop  offset="1" style="stop-color:#F97E53"/>
	</linearGradient>
	<path class="st6" d="M97.2,152.1H64.7c-3.2,0-5.8-2.6-5.8-5.8v0c0-3.2,2.6-5.8,5.8-5.8h32.4c3.2,0,5.8,2.6,5.8,5.8v0
		C102.9,149.5,100.3,152.1,97.2,152.1z"/>
	<g>
		<g>
			<ellipse class="st7" cx="68" cy="63.8" rx="6.2" ry="10.4"/>
			<line class="st7" x1="74.2" y1="63.8" x2="74.2" y2="116.7"/>
		</g>
		<g>
			<ellipse class="st8" cx="94" cy="63.6" rx="6.2" ry="10.3"/>
			<line class="st8" x1="87.8" y1="63.6" x2="87.8" y2="115.9"/>
		</g>
		<line class="st9" x1="68" y1="73.7" x2="94" y2="73.7"/>
	</g>
	<linearGradient id="SVGID_4_" gradientUnits="userSpaceOnUse" x1="76.3538" y1="154.5685" x2="85.819" y2="154.5685">
		<stop  offset="0" style="stop-color:#FFFFFF"/>
		<stop  offset="5.697262e-02" style="stop-color:#FEEAE3"/>
		<stop  offset="0.1487" style="stop-color:#FDCDBD"/>
		<stop  offset="0.2476" style="stop-color:#FCB59C"/>
		<stop  offset="0.3533" style="stop-color:#FBA181"/>
		<stop  offset="0.4683" style="stop-color:#FA916D"/>
		<stop  offset="0.5974" style="stop-color:#F9865E"/>
		<stop  offset="0.752" style="stop-color:#F98056"/>
		<stop  offset="1" style="stop-color:#F97E53"/>
	</linearGradient>
	<path class="st10" d="M83.3,157.1h-4.5c-1.4,0-2.5-1.1-2.5-2.5l0,0c0-1.4,1.1-2.5,2.5-2.5h4.5c1.4,0,2.5,1.1,2.5,2.5l0,0
		C85.8,155.9,84.7,157.1,83.3,157.1z"/>
	<linearGradient id="SVGID_5_" gradientUnits="userSpaceOnUse" x1="54.5075" y1="134.3184" x2="98.4308" y2="134.3184">
		<stop  offset="0" style="stop-color:#FFFFFF"/>
		<stop  offset="5.697262e-02" style="stop-color:#FEEAE3"/>
		<stop  offset="0.1487" style="stop-color:#FDCDBD"/>
		<stop  offset="0.2476" style="stop-color:#FCB59C"/>
		<stop  offset="0.3533" style="stop-color:#FBA181"/>
		<stop  offset="0.4683" style="stop-color:#FA916D"/>
		<stop  offset="0.5974" style="stop-color:#F9865E"/>
		<stop  offset="0.752" style="stop-color:#F98056"/>
		<stop  offset="1" style="stop-color:#F97E53"/>
	</linearGradient>
	<path class="st11" d="M97.2,140.1H64.7c-3.2,0-5.8-2.6-5.8-5.8v0c0-3.2,2.6-5.8,5.8-5.8h32.4c3.2,0,5.8,2.6,5.8,5.8v0
		C102.9,137.5,100.3,140.1,97.2,140.1z"/>
	<linearGradient id="SVGID_6_" gradientUnits="userSpaceOnUse" x1="54.5075" y1="122.3184" x2="98.4308" y2="122.3184">
		<stop  offset="0" style="stop-color:#FFFFFF"/>
		<stop  offset="5.697262e-02" style="stop-color:#FEEAE3"/>
		<stop  offset="0.1487" style="stop-color:#FDCDBD"/>
		<stop  offset="0.2476" style="stop-color:#FCB59C"/>
		<stop  offset="0.3533" style="stop-color:#FBA181"/>
		<stop  offset="0.4683" style="stop-color:#FA916D"/>
		<stop  offset="0.5974" style="stop-color:#F9865E"/>
		<stop  offset="0.752" style="stop-color:#F98056"/>
		<stop  offset="1" style="stop-color:#F97E53"/>
	</linearGradient>
	<path class="st12" d="M97.2,128.1H64.7c-3.2,0-5.8-2.6-5.8-5.8v0c0-3.2,2.6-5.8,5.8-5.8h32.4c3.2,0,5.8,2.6,5.8,5.8v0
		C102.9,125.5,100.3,128.1,97.2,128.1z"/>
	<linearGradient id="SVGID_7_" gradientUnits="userSpaceOnUse" x1="-15.2269" y1="80.4963" x2="81.5533" y2="80.4963">
		<stop  offset="0" style="stop-color:#FFFFFF"/>
		<stop  offset="1" style="stop-color:#EAA25C"/>
	</linearGradient>
	<path class="st13" d="M129.4,54.7c0,28.5-21.7,51.7-48.4,51.7S32.6,83.2,32.6,54.7"/>
	<linearGradient id="SVGID_8_" gradientUnits="userSpaceOnUse" x1="23.5445" y1="29.8408" x2="120.3246" y2="29.8408">
		<stop  offset="0" style="stop-color:#FFFFFF"/>
		<stop  offset="0.4344" style="stop-color:#EDC55B"/>
	</linearGradient>
	<path class="st14" d="M32.6,55.7C32.6,27.1,54.3,4,81,4s48.4,23.1,48.4,51.7"/>
	<g>
		<g>
			<ellipse class="st7" cx="67.9" cy="61.7" rx="6.2" ry="10.4"/>
			<line class="st7" x1="74.1" y1="61.7" x2="74.1" y2="114.7"/>
		</g>
		<g>
			<ellipse class="st8" cx="93.9" cy="61.6" rx="6.2" ry="10.3"/>
			<line class="st8" x1="87.7" y1="61.6" x2="87.7" y2="113.8"/>
		</g>
		<line class="st9" x1="67.9" y1="71.7" x2="93.9" y2="71.7"/>
	</g>
</g>
</svg>
