<?xml version="1.0" encoding="utf-8"?>
<!-- Generator: Adobe Illustrator 21.1.0, SVG Export Plug-In . SVG Version: 6.00 Build 0)  -->
<svg version="1.1" xmlns="http://www.w3.org/2000/svg" xmlns:xlink="http://www.w3.org/1999/xlink" x="0px" y="0px"
	 viewBox="0 0 162 162" style="enable-background:new 0 0 162 162;" xml:space="preserve">
<style type="text/css">
	.st0{fill:#C6C6C6;}
	.st1{fill:url(#SVGID_1_);stroke:#59595B;stroke-width:2.4572;stroke-miterlimit:10;}
	.st2{fill:none;stroke:#59595B;stroke-width:2.3574;stroke-miterlimit:10;}
	.st3{fill:#C6C6C6;stroke:#59595B;stroke-width:2.2206;stroke-miterlimit:10;}
	.st4{fill:none;stroke:#59595B;stroke-width:2.8824;stroke-miterlimit:10;}
	.st5{fill:none;stroke:#59595B;stroke-width:2.8636;stroke-miterlimit:10;}
	.st6{fill:none;stroke:#59595B;stroke-width:2.2206;stroke-miterlimit:10;}
	.st7{fill:#C6C6C6;stroke:#59595B;stroke-width:1.9806;stroke-miterlimit:10;}
</style>
<g id="parche_color">
	<path class="st0" d="M95.3,111.9c0.9-1.5,0.2-3.9-2.1-3.9c-1,0-1.7,0.5-2,1.1H75.3c-1,0-1.6,0.5-2,1.1c-0.3-0.8-1.1-1.4-2.2-1.4
		c-0.1,0-0.1,0-0.2,0c-0.3-0.2-0.7-0.3-1.2-0.3c-1.4,0-2.2,1-2.4,2.1c-1.3,0.3-1.8,1.6-1.7,2.7c-0.1,1.3,0.7,2.8,2.4,2.8h4.8
		c0.4,0,0.8-0.1,1.1-0.2c0.4,0.6,1.1,1,2.1,1c6-0.6,11.9-0.7,17.9-0.5C96.4,116.4,96.9,113.2,95.3,111.9z"/>
</g>
<g id="Layer_2">
	<linearGradient id="SVGID_1_" gradientUnits="userSpaceOnUse" x1="32.6174" y1="55.6685" x2="129.6581" y2="55.6685">
		<stop  offset="0" style="stop-color:#FFFFFF"/>
		<stop  offset="0.4344" style="stop-color:#C6C6C6"/>
	</linearGradient>
	<ellipse class="st1" cx="81.1" cy="55.7" rx="48.5" ry="51.7"/>
	<rect x="65.3" y="102" class="st0" width="31.7" height="7.6"/>
	<path class="st2" d="M99.6,116.7c-2.2-0.2-3.8-3.3-3.6-7c0.3-3.7,2.3-6.6,4.5-6.5"/>
	<path class="st2" d="M61.9,103.2c2.2-0.1,4.2,2.8,4.5,6.5s-1.4,6.9-3.7,7"/>
	<path class="st3" d="M97.2,128.1H64.7c-3.2,0-5.8-2.6-5.8-5.8v0c0-3.2,2.6-5.8,5.8-5.8h32.4c3.2,0,5.8,2.6,5.8,5.8v0
		C102.9,125.5,100.3,128.1,97.2,128.1z"/>
	<path class="st3" d="M97.2,140.1H64.7c-3.2,0-5.8-2.6-5.8-5.8v0c0-3.2,2.6-5.8,5.8-5.8h32.4c3.2,0,5.8,2.6,5.8,5.8v0
		C102.9,137.5,100.3,140.1,97.2,140.1z"/>
	<path class="st3" d="M97.2,152.1H64.7c-3.2,0-5.8-2.6-5.8-5.8v0c0-3.2,2.6-5.8,5.8-5.8h32.4c3.2,0,5.8,2.6,5.8,5.8v0
		C102.9,149.5,100.3,152.1,97.2,152.1z"/>
	<g>
		<g>
			<ellipse class="st4" cx="68" cy="63.8" rx="6.2" ry="10.4"/>
			<line class="st4" x1="74.2" y1="63.8" x2="74.2" y2="116.7"/>
		</g>
		<g>
			<ellipse class="st5" cx="94" cy="63.6" rx="6.2" ry="10.3"/>
			<line class="st5" x1="87.8" y1="63.6" x2="87.8" y2="115.9"/>
		</g>
		<line class="st6" x1="68" y1="73.7" x2="94" y2="73.7"/>
	</g>
	<path class="st7" d="M83.3,157.1h-4.5c-1.4,0-2.5-1.1-2.5-2.5l0,0c0-1.4,1.1-2.5,2.5-2.5h4.5c1.4,0,2.5,1.1,2.5,2.5l0,0
		C85.8,155.9,84.7,157.1,83.3,157.1z"/>
</g>
</svg>
