<svg id="Layer_1" data-name="Layer 1" xmlns="http://www.w3.org/2000/svg" viewBox="0 0 162.45 162.45"><defs><style>.cls-1,.cls-2{fill:#f2f2f2;}.cls-1,.cls-4,.cls-5{stroke:#102773;stroke-miterlimit:10;}.cls-1{stroke-width:6.45px;}.cls-3{fill:#102773;}.cls-4,.cls-5{fill:none;}.cls-4{stroke-width:5px;}.cls-5{stroke-width:10px;}</style></defs><title>Car-free_zones</title><rect class="cls-1" x="3.22" y="3.22" width="156" height="156"/><rect class="cls-2" x="40.22" y="115.22" width="4" height="10"/><rect class="cls-2" x="56.22" y="115.22" width="4" height="10"/><rect class="cls-2" x="104.22" y="115.22" width="4" height="10"/><rect class="cls-2" x="120.22" y="115.22" width="4" height="10"/><rect class="cls-3" x="94.22" y="94.22" width="14" height="15.43" rx="7" ry="7"/><rect class="cls-3" x="47.22" y="76.22" width="68" height="23" rx="11.5" ry="11.5"/><circle class="cls-2" cx="62.22" cy="88.22" r="6"/><circle class="cls-2" cx="101.22" cy="88.22" r="6"/><polyline class="cls-4" points="109.22 85.53 95.35 52.23 67.6 52.23 53.73 85.53"/><ellipse class="cls-3" cx="110.22" cy="75.22" rx="4.5" ry="2.5"/><ellipse class="cls-3" cx="51.47" cy="74.97" rx="4.75" ry="2.75"/><rect class="cls-3" x="55.22" y="94.22" width="14" height="15.43" rx="7" ry="7"/><circle class="cls-5" cx="81.22" cy="81.22" r="61.5"/><line class="cls-5" x1="38.72" y1="125.72" x2="124.72" y2="37.72"/><line class="cls-5" x1="38.72" y1="36.72" x2="124.72" y2="125.72"/></svg>