<svg id="Layer_1" data-name="Layer 1" xmlns="http://www.w3.org/2000/svg" viewBox="0 0 162.45 162.45"><defs><style>.cls-1,.cls-2{fill:#f2f2f2;}.cls-1,.cls-4{stroke:#102773;stroke-miterlimit:10;}.cls-1{stroke-width:6.45px;}.cls-3{fill:#102773;}.cls-4{fill:none;stroke-width:5px;}.cls-5{font-size:40.79px;fill:#fff;font-family:Calibri, Calibri;}</style></defs><title>Car_scrappage_scheme</title><rect class="cls-1" x="3.22" y="3.22" width="156" height="156"/><rect class="cls-2" x="40.22" y="115.22" width="4" height="10"/><rect class="cls-2" x="56.22" y="115.22" width="4" height="10"/><rect class="cls-2" x="104.22" y="115.22" width="4" height="10"/><rect class="cls-2" x="120.22" y="115.22" width="4" height="10"/><rect class="cls-3" x="105.22" y="55.22" width="14" height="15.43" rx="7" ry="7"/><rect class="cls-3" x="58.22" y="37.22" width="68" height="23" rx="11.5" ry="11.5"/><circle class="cls-2" cx="73.22" cy="49.22" r="6"/><circle class="cls-2" cx="112.22" cy="49.22" r="6"/><polyline class="cls-4" points="120.22 46.53 106.35 13.22 78.6 13.22 64.72 46.53"/><ellipse class="cls-3" cx="121.22" cy="36.22" rx="4.5" ry="2.5"/><ellipse class="cls-3" cx="62.47" cy="35.97" rx="4.75" ry="2.75"/><rect class="cls-3" x="66.22" y="55.22" width="14" height="15.43" rx="7" ry="7"/><rect class="cls-3" x="35.77" y="20.22" width="21.26" height="43.18"/><rect class="cls-3" x="32.22" y="65.68" width="26.57" height="4.55"/><rect class="cls-2" x="38.22" y="25.41" width="15.91" height="14.17" transform="translate(13.9 78.9) rotate(-90)"/><rect class="cls-3" x="52.22" y="44.22" width="10" height="3"/><rect class="cls-3" x="111.22" y="136.22" width="14" height="15.43" rx="7" ry="7"/><rect class="cls-3" x="64.22" y="118.22" width="68" height="23" rx="11.5" ry="11.5"/><circle class="cls-2" cx="79.22" cy="130.22" r="6"/><circle class="cls-2" cx="118.22" cy="130.22" r="6"/><polyline class="cls-4" points="126.22 127.53 112.35 94.22 84.6 94.22 70.72 127.53"/><ellipse class="cls-3" cx="127.22" cy="117.22" rx="4.5" ry="2.5"/><ellipse class="cls-3" cx="68.47" cy="116.97" rx="4.75" ry="2.75"/><rect class="cls-3" x="72.22" y="136.22" width="14" height="15.43" rx="7" ry="7"/><rect class="cls-3" x="129.22" y="123.22" width="19" height="2"/><path class="cls-3" d="M148,128c-3.87,0-7-1.79-7-4s3.13-4,7-4" transform="translate(0.22 0.22)"/><rect class="cls-3" x="147.22" y="121.22" width="5" height="2"/><rect class="cls-3" x="147.22" y="125.22" width="5" height="2"/><ellipse class="cls-3" cx="38.22" cy="126.09" rx="21" ry="22.14"/><ellipse class="cls-3" cx="38.22" cy="101.34" rx="4.74" ry="9.12"/><path class="cls-3" d="M46.15,105.24c-2.5,3.27-6.23,4.71-8.34,3.22s-1.8-5.35.7-8.62,6.23-4.71,8.34-3.22S48.65,102,46.15,105.24Z" transform="translate(0.22 0.22)"/><path class="cls-3" d="M30.38,105.24c2.5,3.27,6.23,4.71,8.34,3.22s1.8-5.35-.7-8.62-6.23-4.71-8.34-3.22S27.88,102,30.38,105.24Z" transform="translate(0.22 0.22)"/><text class="cls-5" transform="matrix(1.04, 0, 0.01, 1, 27.89, 137.69)">£</text></svg>