<?xml version="1.0" encoding="utf-8"?>
<!-- Generator: Adobe Illustrator 21.1.0, SVG Export Plug-In . SVG Version: 6.00 Build 0)  -->
<svg version="1.1" id="Layer_1" xmlns="http://www.w3.org/2000/svg" xmlns:xlink="http://www.w3.org/1999/xlink" x="0px" y="0px"
	 viewBox="0 0 162 162" style="enable-background:new 0 0 162 162;" xml:space="preserve">
<style type="text/css">
	.st0{fill:#102773;}
	.st1{fill:#FFFFFF;}
	.st2{fill:none;stroke:#102773;stroke-width:5.1021;stroke-miterlimit:10;}
	.st3{fill:none;stroke:#FFFFFF;stroke-width:1.0874;stroke-miterlimit:10;}
</style>
<g>
	<ellipse class="st0" cx="21.1" cy="46.6" rx="7.1" ry="8.3"/>
	<polygon class="st0" points="8.8,97.9 32.7,97.9 24.9,56.8 17.3,56.8 	"/>
	<path class="st0" d="M17.9,128.8L17.9,128.8c-1.6,0-2.9-1.3-2.9-2.9V98.3c0-1.6,1.3-2.9,2.9-2.9h0c1.6,0,2.9,1.3,2.9,2.9v27.6
		C20.8,127.5,19.5,128.8,17.9,128.8z"/>
	<path class="st0" d="M24.7,128.8L24.7,128.8c-1.6,0-2.9-1.3-2.9-2.9V98.3c0-1.6,1.3-2.9,2.9-2.9h0c1.6,0,2.9,1.3,2.9,2.9v27.6
		C27.5,127.5,26.2,128.8,24.7,128.8z"/>
	<path class="st0" d="M6.7,87.7L6.7,87.7C5.2,87,4.5,85,5.1,83.2l8.5-24.6c0.6-1.7,2.3-2.6,3.8-1.9h0c1.5,0.7,2.2,2.7,1.6,4.4
		l-8.5,24.6C9.8,87.6,8.1,88.4,6.7,87.7z"/>
	<path class="st0" d="M35.3,87.7L35.3,87.7c1.5-0.7,2.2-2.7,1.6-4.4l-8.5-24.6c-0.6-1.7-2.3-2.6-3.8-1.9h0c-1.5,0.7-2.2,2.7-1.6,4.4
		l8.5,24.6C32.2,87.6,33.9,88.4,35.3,87.7z"/>
</g>
<g>
	<ellipse class="st0" cx="140.5" cy="46.6" rx="7.1" ry="8.3"/>
	<polygon class="st0" points="131.6,56.5 131.6,71.7 133.5,71.7 133.5,96.7 148.6,96.7 148.6,71.7 150.7,71.7 150.7,56.5 	"/>
	<path class="st0" d="M137,128.8L137,128.8c-1.9,0-3.5-1.6-3.5-3.5V95.4c0-1.9,1.6-3.5,3.5-3.5l0,0c1.9,0,3.5,1.6,3.5,3.5v29.9
		C140.5,127.2,138.9,128.8,137,128.8z"/>
	<path class="st0" d="M145.3,128.8L145.3,128.8c-1.9,0-3.5-1.6-3.5-3.5V93.6c0-1.9,1.6-3.5,3.5-3.5h0c1.9,0,3.5,1.6,3.5,3.5v31.7
		C148.8,127.2,147.3,128.8,145.3,128.8z"/>
	<path class="st0" d="M154.2,89.2l1.1-0.2c1.1-0.2,1.9-1.5,1.7-2.8l-4.2-27.3c-0.2-1.3-1.3-2.2-2.4-2l-1.1,0.2
		c-1.1,0.2-1.9,1.5-1.7,2.8l4.2,27.3C152,88.6,153.1,89.5,154.2,89.2z"/>
	<path class="st0" d="M127.6,89.1l1.1,0.2c1.1,0.2,2.2-0.7,2.4-2l3.7-27.4c0.2-1.3-0.6-2.6-1.7-2.8l-1.1-0.2c-1.1-0.2-2.2,0.7-2.4,2
		l-3.7,27.4C125.7,87.6,126.5,88.8,127.6,89.1z"/>
</g>
<path class="st0" d="M115.3,116.9H48c-6.6,0-12-5.4-12-12V88.1c0-6.6,5.4-12,12-12h67.2c6.6,0,12,5.4,12,12v16.8
	C127.3,111.5,121.9,116.9,115.3,116.9z"/>
<path class="st0" d="M49.7,128.9L49.7,128.9c-3.7,0-6.7-3-6.7-6.7v-8.4c0-3.7,3-6.7,6.7-6.7h0c3.7,0,6.7,3,6.7,6.7v8.4
	C56.4,125.9,53.4,128.9,49.7,128.9z"/>
<path class="st0" d="M113.6,128.7L113.6,128.7c-3.7,0-6.7-3-6.7-6.7v-8.4c0-3.7,3-6.7,6.7-6.7h0c3.7,0,6.7,3,6.7,6.7v8.4
	C120.3,125.7,117.2,128.7,113.6,128.7z"/>
<ellipse class="st1" cx="49.7" cy="101.9" rx="6.7" ry="7.9"/>
<ellipse class="st1" cx="113.6" cy="101.9" rx="6.7" ry="7.9"/>
<rect x="65.7" y="101.9" class="st1" width="31.5" height="7.5"/>
<polygon class="st2" points="44.7,78 55.9,42.9 61.1,39.5 100.6,39.5 106.4,42.7 118.4,78 "/>
<ellipse class="st0" cx="64.4" cy="77.6" rx="12.5" ry="12.5"/>
<ellipse class="st0" cx="64.4" cy="60.5" rx="7.1" ry="8.3"/>
<ellipse class="st3" cx="64" cy="77.9" rx="6.4" ry="7.5"/>
<rect x="48.2" y="75" class="st0" width="32.3" height="13.1"/>
</svg>
