<?xml version="1.0" encoding="utf-8"?>
<!-- Generator: Adobe Illustrator 21.1.0, SVG Export Plug-In . SVG Version: 6.00 Build 0)  -->
<svg version="1.1" xmlns="http://www.w3.org/2000/svg" xmlns:xlink="http://www.w3.org/1999/xlink" x="0px" y="0px"
	 viewBox="0 0 342 390" style="enable-background:new 0 0 342 390;" xml:space="preserve">
<style type="text/css">
	.st0{fill:#E5B19C;}
	.st1{fill:#C48369;}
	.st2{fill:#2E2E30;}
	.st3{fill:#1C1542;}
	.st4{fill:#2D255B;}
	.st5{fill:#342866;}
	.st6{fill:#FFFFFF;}
	.st7{fill:#965650;}
	.st8{fill:#DD997A;}
	.st9{fill:none;stroke:#2E2E30;stroke-width:0.9153;stroke-miterlimit:10;}
	.st10{opacity:0.35;fill:#FAFAFC;stroke:#2E2E30;stroke-width:0.9153;stroke-miterlimit:10;}
	.st11{fill:#0B0793;}
	.st12{fill:#1C0384;}
	.st13{fill:#0B023D;}
</style>
<g id="legs_colour">
	<path class="st0" d="M171.8,350.9c-0.7-0.9-1.4-1.9-2-2.8c0.1-0.3,0-0.7-0.2-1c-1.1-1.6-2-3.3-2.7-5.2c-0.2-0.4-0.5-0.7-0.8-0.9
		c-1-2.8-1.9-5.7-2.7-8.6c-0.6-4.9-1.6-9.7-3-14.4c-1.2-9.3-1.2-18.6,0-28c0.1-0.6-0.2-1-0.5-1.2c0.4-4.2,0.6-8.4,0.3-12.6
		c0.2-3.8,0.3-7.5,0.5-11.3c0-0.3,0-0.5-0.1-0.7c0.1-0.6,0.3-1.2,0.4-1.8c0.9-3.5,2.2-6.6,2.4-10.3c0-0.4-0.1-0.6-0.2-0.9
		c0.1-0.4,0.2-0.7,0.4-1.1c0.6-1.6-1.6-2.4-2.5-1.4c-0.6-0.4-1.4-0.5-1.9,0.2c-0.5-0.8-1.7-0.9-2.3-0.2c-0.2,0.2-0.4,0.5-0.6,0.8
		c-0.5-0.4-1.4-0.5-2-0.1c0,0,0,0,0-0.1c-0.2-0.5-0.8-0.7-1.3-0.7c-0.1,0-0.1,0-0.2,0c-0.5,0-1,0.3-1.3,0.7c0,0.1-0.1,0.1-0.1,0.2
		c-0.4-0.6-1.3-0.7-1.9-0.5c-0.6-0.6-2-0.7-2.5,0.3c-0.5-0.4-1.2-0.6-1.8-0.2c-1.4,1-1.3,3.3-1.5,4.8l-0.2,1.4
		c0,0.1-0.1,0.1-0.1,0.2c-1.3,3.5-2.3,7-3,10.6c-1.2,4.1-1.6,8.4-1.1,12.9c0,0.2,0.1,0.4,0.2,0.6c0,3.4,0.5,6.7,1.3,10
		c0.1,0.5,0.3,1,0.4,1.6c0.2,1,0.4,1.9,0.6,2.9c2.4,11.2,5.9,22.2,7.2,33.6c-0.1,0.1-0.1,0.2-0.2,0.4c-0.6,2.1-0.4,3.9,0.7,5.5
		c0,0.4,0,0.7,0.1,1.1c0,0.1,0,0.2,0,0.2c-0.8,2.4-0.1,5.6,1,8.5c-0.1,0.1-0.1,0.2-0.1,0.4c0.4,0.9,0.7,1.9,1.1,2.8
		c0.4,0.8,1.1,1.5,1.7,2.1c0.1,0.1,0.2,0.1,0.2,0.1c3.9,5.2,11.4,5.7,17.4,4.2C171.7,352.8,172.4,351.7,171.8,350.9z"/>
	<path class="st0" d="M209.9,249.2c0.1-0.3,0.2-0.6,0.3-0.8c0.7-1.8-2.2-2.6-2.9-0.8c0,0.1-0.1,0.2-0.1,0.3c-3.2-1.3-6.5-2-10-1.8
		c-2.7,0.1-6.6,0.6-8.9,2.3c-1-0.9-3-0.1-2.5,1.5c1.5,4.6,2.1,9.3,2.1,14.1c-0.8,1.7-1.3,3.5-1.8,5.4c-0.8,2.5-1.3,5.1-1.5,7.8
		c-0.4,0.2-0.6,0.6-0.6,1.2c0,1.8,0,3.6,0.1,5.4c0,0.3-0.1,0.6-0.1,0.9c0,0.3,0,0.5,0.1,0.7c0,0.2,0,0.3,0,0.5
		c-0.2,4-0.4,8.1-0.6,12.1c-0.2,0.2-0.3,0.6-0.3,1c0,2.2,0,4.4,0,6.6c0,0.4,0.1,0.7,0.3,0.9c0,0,0,0.1,0,0.1
		c-0.4,8-0.4,16.4-3.9,23.9c-0.2,0.5-0.2,1,0,1.4c0,0.2,0,0.3,0,0.5c0.3,3,2.8,6.4,4.2,8.9c2.7,4.8,7.2,13.4,13.2,14
		c0.3,0,0.6-0.1,0.8-0.2c2.4,0.2,7.3,0.2,6.8-3c-0.3-1.9-2.1-4-3-5.6c-1.4-2.5-3.1-4.9-3.5-7.8c-0.1-0.7-0.6-1.1-1.1-1.3
		c-0.4-1.4-0.9-2.8-1.2-4.3c0-2.1,0-4.2-0.1-6.3c0.1-1.3,0.2-2.6,0.4-3.8c0-0.2,0-0.4,0-0.5c0.5-1.6,1-3.1,1.6-4.8
		c0.2-0.6,0.1-1.1-0.3-1.4c1.9-5.7,3.9-11.4,5.4-17.3c2.8-11.1,3.8-22.8,5.5-34.1c0.1-0.5-0.1-0.9-0.4-1.3c0.9-4.3,1.6-8.7,2.3-13
		C210.4,250,210.2,249.6,209.9,249.2z"/>
</g>
<g id="legs">
	<path class="st1" d="M206.2,264.2c-1.5,1.4-2.7,3.1-3.5,5c-0.3,0.7,0.7,1.2,1,0.6c0.8-1.8,1.9-3.4,3.3-4.8
		C207.5,264.5,206.8,263.7,206.2,264.2z"/>
	<path class="st1" d="M202.2,346.1c-2.1-4.1-4.2-8.2-5.2-12.8c-1-4.9-0.1-9.6,0.9-14.4c1-4.5,2.2-9,3.6-13.3
		c0.1-0.1,0.2-0.2,0.3-0.3c5.2-18.5,7-38.2,9-57.3c0.1-0.7-1-0.7-1.1,0c-0.3,3.2-0.7,6.4-1,9.5c-0.1,0-0.2,0.1-0.3,0.2
		c-0.8,0.9-1.6,1.7-2.5,2.5c-0.1-0.1-0.3-0.1-0.5,0c-3,1.8-5.3-3.3-6.3-5.4c-0.9-1.9-1.8-3.8-3.2-5.4c-0.5-0.5-1.2,0.3-0.8,0.8
		c2.2,2.6,5.1,13,10,11.3c0.2,0.2,0.5,0.3,0.8,0.1c0.9-0.8,1.7-1.7,2.6-2.5c-1.6,15.1-3.5,30.4-7.6,45c-0.1,0.1-0.2,0.1-0.2,0.3
		c-2.4,7.1-4.6,14.7-5.3,22.2c-0.6,7,2.4,13.5,5.5,19.6c0.8,1.6,1.7,3.2,2.5,4.9c0.4,0.9,1.4,2.2,0.4,3.1c-0.4,0.3-2,0.2-2.4,0.2
		c-1.7,0.2-4.2,0.8-5.9,0.3c-1.9-0.6-3.4-2.8-4.6-4.2c-4.9-5.8-9-12.2-11.3-19.5c0,0,0,0,0.1-0.1c2.3-3.5,2.5-8.7,3.1-12.8
		c0.6-4.5,0.9-9,1-13.5c0-0.1,0.1-0.2,0.1-0.3c-0.1-9.8-0.2-20.2,1.3-29.9c0.6-4.1,2.4-7.9,2.9-12c0.5-4-0.9-8.1-1.9-11.9
		c-0.2-0.7-1.2-0.4-1.1,0.3c1.2,4.7,2.6,9.3,1.3,14.2c-1,3.8-2.2,7.5-2.7,11.4c-1.1,9-1.2,18.4-1.1,27.4c0,0.1,0,0.1,0,0.2
		c-0.1,4.3-0.3,8.6-0.8,12.9c-0.5,4.1-0.7,9.7-3,13.2c-0.3,0.1-0.5,0.3-0.4,0.7c2.3,7.7,6.6,14.4,11.8,20.4c2,2.4,3.7,4.7,7,4.7
		c2.2,0,4.5-0.4,6.7-0.7c0.8-0.1,1.5,0,1.9-0.7c0.4-0.8-0.1-1.6-0.5-2.3C204.4,350.2,203.3,348.1,202.2,346.1z"/>
	<path class="st1" d="M172,349.6c-3.6-5.1-6.1-10.9-7.7-17c0.1-0.1,0.1-0.2,0.1-0.3c-0.9-6.8-3.2-13.3-3.8-20.1
		c-0.6-7.1,0-14.3,0.2-21.3c0.2-7.2,0.3-14.3,0.5-21.5c0.1-3.7,0.3-7.4,1.2-11c0.8-3.3,1.8-6.4,1.4-9.8c-0.1-0.7-1.2-0.7-1.1,0
		c0.4,3.8-1,7.3-1.7,11c0,0.1,0,0.2-0.1,0.4c0,0,0,0,0,0c-0.6,0.1-1.1,0.4-1.6,0.7c-3.9,0.6-6.4-4.2-8.3-6.9c-0.4-0.6-1.4,0-1,0.6
		c2.2,3.1,4.8,7.8,9.1,7.5c0.1,0.1,0.3,0.1,0.5,0c0,0,0.1,0,0.1-0.1c0.1,0,0.1,0,0.2,0c0.2,0,0.3-0.1,0.4-0.3
		c0.2-0.1,0.4-0.2,0.6-0.2c-0.4,2.5-0.5,5.1-0.6,7.6c-0.2,7.3-0.4,14.7-0.5,22c-0.2,6.9-0.7,13.9-0.2,20.8
		c0.5,6.8,2.8,13.3,3.7,20.1c-0.1,0.1-0.2,0.3-0.1,0.5c1,4.1,2.4,8.1,4.3,11.8c1,2,2.2,3.9,3.4,5.8c0.7,1.1,2,1.8,0.1,3
		c-0.8,0.5-2.8,0.3-3.8,0.4c-4.8,0.3-9.9-0.3-13.3-4c-3.4-3.7-4.2-8.8-4.3-13.7c1.3,1,3.1,0.9,4.1-0.5c0.4-0.6-0.6-1.2-1-0.6
		c-2.1,3.1-3.5-2.3-3.5-3.3c0-0.6,0.1-1.1,0.1-1.7c0.1-2,0.1-4,0-6c-0.3-3.5-1-6.9-1.8-10.3c-1.8-7.3-3.8-14.5-5.6-21.7
		c-1.9-7.6-3.5-15.6-2-23.4c1.2-6.5,4.3-12.5,4.6-19.2c0-0.7-1.1-0.7-1.1,0c-0.4,8.6-5,16.2-5.2,24.9c-0.2,8.9,2.5,17.5,4.7,26
		c2.3,8.9,5.7,18.3,5.5,27.7c0,2.1-0.8,5.1,0.3,7.1c-0.1,0.1-0.1,0.2-0.1,0.4c0.1,5.1,0.8,10.5,4.1,14.6c3.4,4.1,8.5,5.3,13.6,5.1
		c1.6-0.1,3.2-0.3,4.8-0.5c0.6-0.1,1.7-0.1,2.2-0.5C174.2,352.2,172.6,350.5,172,349.6z"/>
</g>
<g id="shoes">
	<path class="st2" d="M175.9,360.5c0.1-0.1,0.1-0.1,0.2-0.2c0.1-0.3,0.3-0.5,0.4-0.7c0-0.1,0-0.2-0.1-0.2c0.5-2.2-1-5.3-2.1-7
		c0,0,0-0.1,0-0.1c-0.1-0.2-0.3-0.3-0.4-0.5l-0.1-0.1c0,0-0.1-0.1-0.1-0.2c-0.2-0.1-0.4-0.1-0.5,0.1l-0.1,0.1
		c-0.2,0.2-0.2,0.4-0.1,0.5c-0.5,0.4-1.1,0.7-1.8,0.9c-3,0.3-5.9,0.4-8.9,0.3c-1,0-2.1-0.1-3.1-0.2c-1.3-0.3-2.6-0.8-3.8-1.3
		c-3.8-3.6-6.2-8.3-7-13.5c-0.1-1.8-0.1-3.5-0.2-5.3c0-0.2,0-0.5,0.1-0.7c0-0.1,0-0.2-0.1-0.3c0-0.4,0-0.7,0-1.1
		c-0.1,0.1-0.3,0.2-0.4,0.2c-0.1,0-0.2,0-0.4,0c-0.1,0-0.2,0-0.2,0c0,0,0,0.1,0,0.1c-0.1,0-0.2,0.1-0.3,0.2
		c-3.2,3.9-1.8,8.6,0.1,12.7c0.2,0.5,0.5,0.9,0.7,1.3c0,0.1,0,0.3,0,0.4c0,0.1,0,0.1,0,0.2c0.2,2.2,0.2,4.3,0.2,6.5
		c0,0.3-0.1,0.6-0.1,1c0,0.3-0.1,0.5,0.1,0.8c0.1,0.2,0.3,0.3,0.5,0.3c0.2,0.2,0.4,0.4,1,0.4c1.2,0.1,1.6-0.2,1.6-1.3
		c0-0.9,0-1.9-0.1-2.8c0.1,0.1,0.1,0.2,0.2,0.3c1.5,2.3,0.6,5,2.1,7.2c0,0.2,0.2,0.5,0.5,0.5c0.1,0,0.1,0,0.2,0
		c3.9,1.6,8,2.7,12.2,3c0.4,0,0.9,0.1,1.4,0.1c2.3,0.3,4.8,0.5,6.8-0.5c0.1,0,0.2-0.1,0.3-0.1C175.3,361.3,175.7,360.9,175.9,360.5z
		"/>
	<path class="st2" d="M214.5,357.5c-3-1.8-5.9-3.3-8.4-5.6c-0.5-0.5-1.3,0.3-0.8,0.7c0,0,0.1,0.1,0.1,0.1l0,0
		c0.3,0.7,0.3,1.4,0.2,2.1c-1.2,0.3-2.5,0.5-3.5,0.6c-2,0.3-5,0.8-6.9-0.1c-2.7-1.3-5-5.2-6.8-7.3c-3.9-4.7-7.4-9.8-9.3-15.5
		c0-0.1,0.1-0.1,0.1-0.2c-0.2-0.6-0.3-1.3-0.4-1.9c-0.2-0.1-0.4,0-0.6,0.2c-1.1,1.9-2.1,4.3-2.4,6.6c-0.8,2.8-0.8,5.6,1.3,7.5
		c1,4.3,1.6,8.6,1.7,13c0,0.3,0.3,0.5,0.6,0.5c0.6,0,1.1,0,1.7-0.2c0,0,0.1,0,0.1,0c0.3,0.2,0.9,0,0.9-0.4c0-0.9,0-1.9-0.3-2.8
		c0-0.1,0-0.2,0-0.2c-0.4-2.5-0.4-4.9-0.2-7.4c1.9,1.2,3.5,2.7,5.1,4.1c2.6,2.4,4.1,4.8,5.7,7.7c2.1,3.9,8.5,3.4,12.5,3.8
		c3.3,0.3,6.7,0.3,10.1-0.1c1.1-0.1,2.8-0.2,3.1-1.5C218.3,359.6,215.7,358.2,214.5,357.5z"/>
</g>
<g id="falda_color">
	<path class="st3" d="M163,175.9c-0.4-0.5-1.2-0.7-1.8-0.4c0-0.1,0-0.3,0.1-0.4c0.3-1.7-1.6-2.4-2.6-1.4c-0.7-0.6-1.8-0.7-2.3,0.3
		c-0.1,0.1-0.1,0.2-0.2,0.4c-0.6-0.8-2-0.9-2.6,0.1c0-1-1.3-1.6-2.2-1.1c-0.3,0-0.6,0.1-0.9,0.3c-0.3-0.3-0.7-0.4-1.1-0.4
		c0,0,0,0,0,0c-0.5-0.4-1.2-0.6-1.8-0.2c-0.3,0.2-0.5,0.4-0.7,0.6c-0.6-0.2-1.2,0-1.6,0.7c-0.4,0.9-0.8,1.7-1.2,2.6
		c-0.3,0.1-0.6,0.3-0.8,0.7c-6.2,11-7.9,23.5-5.1,35.8c0.3,1.1,1.4,1.3,2.2,0.8c0.1,0.7,0.2,1.4,0.3,2c0.2,1.2,1.4,1.3,2.2,0.8
		c0.4,0.3,1.1,0.3,1.6,0.1c0.3,0.8,0.5,1.7,0.8,2.5c0.3,0.9,1.4,1.2,2.1,0.9c0.2,1.4,0.4,2.9,0.6,4.3c0.2,1.5,1.9,1.3,2.6,0.3
		c0.2,0.8,0.5,1.6,0.8,2.4c0.4,1.2,1.7,1.3,2.5,0.7c0.1,0.2,0.1,0.3,0.2,0.5c0.5,1.5,3.2,1.4,2.9-0.4c0-0.1,0-0.2-0.1-0.4
		c0,0,0,0,0,0c0,0,0,0,0-0.1c-0.1-0.3-0.1-0.6-0.2-1c0.1,0,0.2,0,0.3,0.1c0.2,0.6,0.5,1.2,0.7,1.8c0.5,1.3,2,1.3,2.6,0.5
		c0.8,1.4,3,0.2,2.7-1.3c-3.9-16.6-1.5-33.6,1.1-50.2C164.3,176.8,163.7,176.1,163,175.9z"/>
	<path class="st4" d="M166.3,173.5c-0.3-1.2-2.1-1.7-2.8-0.4c-0.1,0.2-0.3,0.5-0.4,0.7c-0.7-0.6-2.1-0.5-2.5,0.7
		c-0.1,0.3-0.2,0.6-0.3,1c-0.1-0.2-0.3-0.4-0.5-0.5c0.2-0.4,0.4-0.8,0.6-1.2c0.8-1.7-1.7-3.2-2.6-1.5c-4.3,8-7.8,16.2-10.4,24.8
		c-0.4,1.2,0.6,1.9,1.6,1.8c0.3,0.3,0.6,0.5,1,0.6c0,0.1,0,0.2-0.1,0.3c-0.4,1.9,2.2,2.6,2.9,0.8c0.8-1.9,1.5-3.7,2.3-5.6
		c-0.1,0.8-0.3,1.6-0.4,2.4c0,0.1,0,0.1,0,0.2c0,0,0,0,0,0c0,0.1,0,0.3-0.1,0.4c-0.1,1.1,1.1,1.7,2.1,1.4c0,0.1,0,0.1,0,0.2
		c-0.5,1.9,2.4,2.7,2.9,0.8c2.1-8.5,4.7-16.8,7.9-25C167.9,174.3,167.2,173.6,166.3,173.5z"/>
	<path class="st5" d="M212,241.4c0-0.2,0-0.4,0-0.6c0,0,0-0.1,0-0.1c0-0.3-0.1-0.6-0.1-0.9c0,0,0,0,0-0.1c0.3-0.3,0.4-0.7,0.2-1.3
		c0-0.1,0-0.1-0.1-0.2c0.3-0.2,0.4-0.6,0.4-1.1c-2.4-21.5-7.7-42.6-9.2-64.2c-0.1-1.8-2.9-1.9-3-0.2c-0.1,0-0.2-0.1-0.3-0.1
		c0,0,0,0,0,0c-0.1,0-0.2,0-0.3,0c-0.5,0-1,0.2-1.3,0.6c-0.1,0-0.2,0-0.3,0c-0.3-0.1-0.6-0.1-0.9,0c0,0,0,0,0,0
		c-8.2,1.7-17,1.8-25.4,2.2c0.6-2.1,1.4-4.2,2.2-6.2c0.7-1.6-2-2.7-2.7-1.2c-1.1,2.2-2,4.5-2.9,6.8c-0.1,0.1-0.1,0.1-0.2,0.2
		c-0.4-0.5-1-0.7-1.5-0.6c-0.3-0.5-0.9-0.7-1.4-0.7c-0.4-0.9-1.8-1.2-2.4-0.4c-0.1,0.1-0.2,0.2-0.2,0.3c-0.6-0.3-1.4-0.2-1.9,0.5
		c0,0.1-0.1,0.2-0.1,0.2c-1-0.1-2-0.2-3-0.3c0.2-0.4,0.5-0.7,0.7-1.1c0.9-1.4-1.3-3.2-2.4-1.8c-0.5,0.6-1,1.3-1.5,1.9
		c0-0.2-0.1-0.3-0.2-0.5c-0.5-1.1-2-0.9-2.6,0c-0.5-0.5-1.3-0.6-1.9-0.2c0,0-0.1,0-0.1-0.1c-0.1,0-0.1-0.1-0.2-0.1
		c-0.4-0.2-1.1-0.3-1.5,0c-0.5,0.4-1,0.8-1.5,1.4c-6.2,6.2-8.7,16.9-9.6,25.2c-1.3,13,1.1,26.9,2,39.9c0,0.3,0.1,0.5,0.2,0.7
		c-0.2,1.8-0.3,3.6-0.5,5.4c-0.7,0.3-1.1,1.1-0.8,1.9c0,0-0.1,0.1-0.1,0.1c-0.3,0.5-0.3,1.1,0,1.7c0.2,0.4,0.8,0.8,1.3,0.7
		c0,0,0,0,0,0c0.1,0,0.2,0,0.4-0.1c0.5,0.1,1.1-0.1,1.5-0.5c3.4,1.1,7.6,0.7,10.9,0.6c3.4-0.1,7.2,0.1,10.7-0.5c0.1,0,0.2,0,0.3,0
		c0.8-0.1,1.7-0.2,2.5-0.2c6,1.1,12.7,2.6,18.6,1.7c3.3-0.5,6.1-2.2,9.2-3.4c0.1,0.1,0.3,0.1,0.5,0.1c5.4,0,10.9-0.4,16.1,1.5
		c0.6,0.2,1.2,0,1.5-0.5c0.8,0.1,1.6-0.4,1.5-1.4C212.3,244.9,212.1,243.2,212,241.4z"/>
	<path class="st6" d="M199,178.7c-3.2,0-3.2,5,0,5C202.2,183.7,202.2,178.7,199,178.7z"/>
	<path class="st6" d="M201.1,188.2h-0.2c-1.3,0-2.6,1.1-2.5,2.5c0.1,1.4,1.1,2.5,2.5,2.5h0.2c1.3,0,2.6-1.1,2.5-2.5
		C203.5,189.3,202.5,188.2,201.1,188.2z"/>
	<path class="st6" d="M202.6,196.9c-1.4,0.1-2.5,1.1-2.5,2.5v0.2c0,1.3,1.1,2.6,2.5,2.5c1.4-0.1,2.5-1.1,2.5-2.5v-0.2
		C205.1,198.1,203.9,196.8,202.6,196.9z"/>
	<path class="st6" d="M205.7,205.5c-0.1-0.1-0.1-0.1-0.2-0.2c-0.9-0.9-2.6-1-3.5,0c-0.9,1-1,2.5,0,3.5c0.1,0.1,0.1,0.1,0.2,0.2
		c0.9,0.9,2.6,1,3.5,0C206.6,208.1,206.7,206.5,205.7,205.5z"/>
	<path class="st6" d="M205,213.3c-3.2,0-3.2,5,0,5C208.3,218.3,208.3,213.3,205,213.3z"/>
	<path class="st6" d="M207.9,222.9c-0.1-0.1-0.1-0.1-0.2-0.2c-0.9-0.9-2.6-1-3.5,0c-0.9,1-1,2.5,0,3.5c0.1,0.1,0.1,0.1,0.2,0.2
		c0.9,0.9,2.6,1,3.5,0C208.9,225.4,208.9,223.9,207.9,222.9z"/>
	<path class="st6" d="M207.3,230.3h-0.2c-1.3,0-2.6,1.1-2.5,2.5c0.1,1.4,1.1,2.5,2.5,2.5h0.2c1.3,0,2.6-1.1,2.5-2.5
		C209.7,231.4,208.7,230.3,207.3,230.3z"/>
	<path class="st6" d="M208.2,238.4c-1.4,0.1-2.5,1.1-2.5,2.5v0.2c0,1.3,1.1,2.6,2.5,2.5c1.4-0.1,2.5-1.1,2.5-2.5v-0.2
		C210.8,239.6,209.6,238.3,208.2,238.4z"/>
	<path class="st5" d="M198.2,180c-0.6,0-0.6,1,0,1C198.9,181,198.9,180,198.2,180z"/>
	<path class="st5" d="M198,182.1L198,182.1c0,0.7,1,0.7,1,0.1v-0.1C199,181.5,198,181.5,198,182.1z"/>
	<path class="st5" d="M200,179.9c-0.6,0-0.6,1,0,1C200.7,180.9,200.7,179.9,200,179.9z"/>
	<path class="st5" d="M200.2,181.6c-0.6,0-0.6,1,0,1C200.8,182.6,200.8,181.6,200.2,181.6z"/>
	<path class="st5" d="M200.3,189.6c-0.6,0-0.6,1,0,1C200.9,190.6,200.9,189.6,200.3,189.6z"/>
	<path class="st5" d="M201.6,189.9L201.6,189.9c0,0.7,1,0.7,1,0.1v-0.1C202.6,189.2,201.6,189.2,201.6,189.9z"/>
	<path class="st5" d="M202.4,191.2c-0.6,0-0.6,1,0,1C203,192.2,203,191.2,202.4,191.2z"/>
	<path class="st5" d="M200.7,191.4c-0.6,0-0.6,1,0,1C201.3,192.4,201.3,191.4,200.7,191.4z"/>
	<path class="st5" d="M201.9,198.4c-0.6,0-0.6,1,0,1C202.5,199.4,202.5,198.4,201.9,198.4z"/>
	<path class="st5" d="M203.7,198.3L203.7,198.3c-0.7,0-0.7,1-0.1,1h0.1C204.4,199.3,204.4,198.3,203.7,198.3z"/>
	<path class="st5" d="M202.3,200.4c-0.6,0-0.6,1,0,1C202.9,201.4,202.9,200.4,202.3,200.4z"/>
	<path class="st5" d="M203.5,200.6L203.5,200.6c0,0.7,1,0.7,1,0.1v-0.1C204.5,199.9,203.5,199.9,203.5,200.6z"/>
	<path class="st5" d="M203.3,206.2c-0.6,0-0.6,1,0,1C203.9,207.2,203.9,206.2,203.3,206.2z"/>
	<path class="st5" d="M203.6,208.1c-0.6,0-0.6,1,0,1C204.3,209.1,204.3,208.1,203.6,208.1z"/>
	<path class="st5" d="M205.2,205.8c-0.6,0-0.6,1,0,1C205.9,206.8,205.9,205.8,205.2,205.8z"/>
	<path class="st5" d="M205.2,207.9L205.2,207.9c-0.5,0.5,0.2,1.2,0.6,0.8c0,0,0,0,0.1-0.1C206.4,208.2,205.7,207.5,205.2,207.9z"/>
	<path class="st5" d="M204.2,214.9c-0.6,0-0.6,1,0,1C204.9,215.9,204.9,214.9,204.2,214.9z"/>
	<path class="st5" d="M205.8,214.8C205.8,214.8,205.8,214.8,205.8,214.8c-0.5,0.5,0.2,1.2,0.6,0.8l0.1-0.1
		C207,215,206.3,214.3,205.8,214.8z"/>
	<path class="st5" d="M206.3,216.6c-0.6,0-0.6,1,0,1C207,217.6,207,216.6,206.3,216.6z"/>
	<path class="st5" d="M204.1,217.2L204.1,217.2c0,0.7,1,0.7,1,0.1v-0.1C205.1,216.6,204.1,216.6,204.1,217.2z"/>
	<path class="st5" d="M205.4,223.4c-0.6,0-0.6,1,0,1C206,224.4,206,223.4,205.4,223.4z"/>
	<path class="st5" d="M205.3,225.2L205.3,225.2c-0.5,0.5,0.2,1.2,0.6,0.8c0,0,0,0,0.1-0.1C206.5,225.5,205.8,224.7,205.3,225.2z"/>
	<path class="st5" d="M207.2,223.2c-0.6,0-0.6,1,0,1C207.9,224.2,207.9,223.2,207.2,223.2z"/>
	<path class="st5" d="M207.5,225.1c-0.6,0-0.6,1,0,1C208.1,226.1,208.1,225.1,207.5,225.1z"/>
	<path class="st5" d="M206.5,231.6c-0.6,0-0.6,1,0,1C207.2,232.6,207.2,231.6,206.5,231.6z"/>
	<path class="st5" d="M206.3,234L206.3,234c0,0.7,1,0.7,1,0.1V234C207.3,233.3,206.3,233.3,206.3,234z"/>
	<path class="st5" d="M208.4,231.4c-0.6,0-0.6,1,0,1C209.1,232.4,209.1,231.4,208.4,231.4z"/>
	<path class="st5" d="M208.6,233.4c-0.6,0-0.6,1,0,1C209.3,234.4,209.3,233.4,208.6,233.4z"/>
	<path class="st5" d="M207.6,240c-0.6,0-0.6,1,0,1C208.2,241,208.2,240,207.6,240z"/>
	<path class="st5" d="M209.4,239.9c-0.6,0-0.6,1,0,1C210,240.9,210,239.9,209.4,239.9z"/>
	<path class="st5" d="M208,242.1L208,242.1c-0.7,0-0.7,1-0.1,1h0.1C208.7,243.1,208.7,242.1,208,242.1z"/>
	<path class="st5" d="M209.6,241.7c-0.6,0-0.6,1,0,1C210.3,242.7,210.3,241.7,209.6,241.7z"/>
</g>
<g id="falda">
	<path class="st2" d="M211.3,229.6c-0.8-6.5-1.8-13-2.8-19.5c-1.9-12.6-4.3-25.1-4.9-37.7c0.2-0.2,0.2-0.4-0.1-0.6
		c-0.1-0.4-0.9-0.4-1.1-0.1c-9.1,0.2-18.2,0.4-27.3,0.5c-9,0.2-18,0.6-26.9-0.1c-0.1-0.2-0.4-0.3-0.7-0.1c-0.1,0-0.1,0.1-0.2,0.1
		c-0.1,0-0.1,0-0.1,0.1c-0.9,0.5-1.5,1.1-1.8,1.8c0,0,0,0,0,0.1c-7.9,10.1-9.6,21.5-9.3,32.7c0.4,13.8,4.2,27.9,0.7,41.6
		c-0.1,0.4,0.8,0.6,1.1,0.3c6,1.2,12.1,1.1,18.3,0.8c3.2-0.1,6.3-0.3,9.5-0.2c3.7,0.1,7.1,0.6,10.7,1.2c2.5,0.4,5.1,0.6,7.6,0.1
		c2.4-0.5,4.3-1.4,6.4-2.3c7-2.8,14.4-1.6,21.4,0.4c0.4,0.1,0.8,0,0.9-0.3C213.8,242.3,212.1,235.8,211.3,229.6z M211.5,248
		c-5-1.4-10.5-2.5-15.9-1.8c-2.7,0.4-5,1.3-7.3,2.3c-3.4,1.4-6.5,2.2-10.6,1.6c-3.1-0.4-6-1-9.1-1.2c-3.1-0.2-6.3-0.1-9.5,0
		c-7.1,0.2-14.1,0.7-21-0.7c0,0-0.1,0-0.1,0c3.1-12.9-0.1-26.1-0.7-39c-0.6-12.2,0.9-24.8,10.1-35.7c0,0,0-0.1,0.1-0.1
		c0.1-0.1,0.2-0.2,0.3-0.2c9.1,0.7,18.3,0.3,27.4,0.1c9.1-0.2,18.2-0.4,27.3-0.5c0.6,12.6,3,25.1,4.9,37.6c1,6.4,1.9,12.7,2.7,19.1
		C210.9,235.4,212.6,241.8,211.5,248z"/>
</g>
<g id="tshirt_colour">
	<path class="st5" d="M207.1,97.2c0.2-0.4,0.3-1,0-1.5c-0.6-1-0.7-2.1-1.3-3.1c-0.7-1.1-1.8-1.7-3-2.3c-1.1-0.6-2.5-1.3-4-1.8
		c-0.3-0.2-0.5-0.4-0.8-0.6c-0.4-0.3-0.7-0.5-1.2-0.5c-0.4,0-0.8,0.1-1.1,0.4c-0.3,0-0.7,0-1,0c-2.2,0.3-2.2,3.5,0,3.3
		c0.5-0.1,1.1,0,1.7,0.1c-0.3,0.1-0.6,0.3-0.9,0.5l-2.3,1.6c-0.8-0.6-1.9-0.9-3.3-0.8c-0.5,0.1-1,0.1-1.5,0.1c0.1-0.3,0.1-0.7,0-1.1
		c0-0.2,0-0.3,0-0.5c1.7-0.5,1.2-3.4-0.7-3.1c-0.4,0.1-0.8,0.1-1.3,0.2c-1.3,0.2-2.5,0.3-3.8,0.4c0-0.8-0.5-1.6-1.6-1.5
		c-5.6,0.6-11.1-0.2-16.2-2.5c-0.1,0-0.2-0.1-0.3-0.1c-0.1-0.1-0.2-0.3-0.4-0.4c-1.4-0.9-3.5,0.6-4.7,1.2c-1.7,0.8-3.4,1.5-5.1,2.3
		c-4.9,0.6-10.2,1.1-14.4,2.8c-3.3,1.3-4.7,4.4-5.4,7.5c-0.4,0.8-0.7,1.7-0.9,2.6c-0.5,1-0.9,2-1.3,3.1c-0.6,1.6,1.4,2.4,2.6,1.7
		c0.1,0.1,0.2,0.1,0.3,0.2c0.1,0.3,0.4,0.6,0.8,0.8c2.4,1,4.9,2,7.4,3c1.7,0.9,3.5,1.9,5.1,3c1.7,13.3,3.6,26.5,5.6,39.7
		c0.4,2.6,2.3,3.6,4.4,3.5c-2.2,0.2-4.4,0.6-6.6,1c-0.2,0-0.3,0.1-0.5,0.2c-0.7-1.1-2.9-1.5-3.1,0.2c-0.3,1.7-0.8,3.5-0.5,5.2
		c-0.5,0.5-0.9,1.1-1.1,1.8c-0.1,0.2-0.2,0.4-0.4,0.6c-0.3,0.5-0.3,1.1,0,1.5c-0.1,0.2-0.2,0.3-0.3,0.5l0,0.1c0,0,0,0,0,0
		c-0.1,0.1-0.3,0.4-0.1,0.1c-0.2,0.2-0.3,0.4-0.4,0.6c-1,0.8-1.7,1.9-1.4,3.4c0.6,2.8,4.1,3,6.5,3.2c1.1,0.1,2.2,0.2,3.3,0.2
		c0.3,0.4,0.7,0.7,1.3,0.8c4.5,0.6,9,0.8,13.5,0.7c0.3,0.2,0.6,0.3,1.1,0.3c0.4,0,0.9-0.1,1.3-0.1c0.1,0.2,0.3,0.4,0.6,0.5
		c0.4,0.2,0.7,0.3,1.2,0.3c0.4,0,0.7-0.1,1-0.3l1.4,0.2c0.5,0.1,0.9-0.2,1.2-0.5c1.6,0,3.2,0,4.8,0c0.2,0.2,0.6,0.3,0.9,0.3
		c5.6,0.5,10.9-0.2,16-2c0,0,0.1,0,0.1,0c0.2-0.1,0.5-0.1,0.7-0.2c0.4,0.3,0.9,0.5,1.6,0.3c1.2-0.3,2.4-0.6,3.5-0.8
		c0.2-0.2,0.3-0.3,0.5-0.5c0.2-0.2,0.4-0.3,0.5-0.5c0,0,0,0,0,0c0,0,0-0.1,0-0.1c0-0.2,0.2-0.3,0.3-0.4c-0.1-0.2-0.2-0.4-0.3-0.7
		c-0.2-0.3-0.4-0.6-0.6-1c-0.3-0.1-0.6-0.1-0.9-0.1c-0.1-0.6-0.3-1.1-0.5-1.7c-0.1-0.3-0.4-0.5-0.8-0.7c0,0,0,0,0,0
		c-0.1-0.2-0.1-0.4-0.2-0.7c-0.1-0.2-0.2-0.4-0.3-0.6c0.1-0.2,0.2-0.5,0.2-0.8c-0.1-1.6-0.2-3.3-0.4-4.9c-0.1-1.4-0.1-2.6-1.1-3.7
		c-0.1-0.1-0.1-0.1-0.2-0.2c0.1-0.8,0.1-1.6,0.2-2.5c0.1-1.2-1-1.7-2-1.5c-0.4-0.6-1.1-0.7-1.8-0.5c-0.1-0.7-0.6-1.2-1.2-1.4
		c0-1-0.9-1.5-1.8-1.4c0,0,0-0.1,0-0.1c0-1.2-1.2-1.7-2.2-1.5c-1.7-13.5-2.1-27.2-1.4-40.8c0.1-0.1,0.2-0.1,0.3-0.2
		c1.8-1.3,3.5-2.5,5.3-3.8c0,0.1,0.1,0.1,0.1,0.2c-1.1,1.8,1.8,3.4,3,1.6c0.9-1.4,2.3-2.5,3.5-3.7c0.4-0.4,0.8-0.8,1.2-1.2
		c0.8-0.4,1.5-0.8,2.4-1C207.5,99.3,207.6,98,207.1,97.2z"/>
</g>
<g id="face_colour">
	<path class="st0" d="M190.9,59.9c0-0.5,0.1-1.1,0-1.7c0-0.1,0-0.1,0-0.2c0-0.1,0-0.3-0.1-0.3c0-0.3-0.1-0.5-0.4-0.7
		c-0.4-0.3-1.1-0.2-1.3,0.2c0-0.5,0.1-1,0.1-1.4c0-1.2-0.6-2.1-1.4-2.6c0-0.1,0-0.2,0-0.2c-1.1-6.6-6.5-11.6-13.6-13
		c-0.8-0.2-1.4-0.1-2,0.1c-2-0.1-4,0.3-5.6,1.3c-8.7,2.4-10.6,10.2-9.9,17.6c-0.1,0.2-0.1,0.4-0.1,0.6c-0.2,4.8,1,9.1,3.4,13.4
		c1.1,1.9,2.2,4.1,3.6,6.1c-0.1,0.3-0.1,0.7-0.1,1.1c0.4,0.5,0.8,1,1.2,1.6c-0.1,0.1-0.1,0.3,0,0.4c0,0.1,0.1,0.1,0.1,0.2
		c0,0,0,0,0,0.1l0,0.2c-0.2,0.1-0.3,0.3-0.2,0.4c0,0,0,0,0,0c-0.3,0.1-0.4,0.5-0.1,0.7c0.9,0.5,1.8,1,2.8,1.3c0.1,0,0.3,0,0.4-0.1
		c0.3,0.1,0.5,0.2,0.8,0.3c0,0.1,0.1,0.2,0.3,0.2c0.2,0.1,0.5,0.1,0.7,0.1c0.4,0.1,0.9,0.3,1.3,0.4c0.1,0,0.2,0,0.3-0.1
		c0.1,0,0.2,0,0.3,0c2.6,0.9,5.2,1.2,8,1c0.2,0,0.4-0.2,0.4-0.3c0.4-0.1,0.5-0.6,0.2-0.8c0.4-0.1,0.3-0.8-0.2-0.8
		c-1,0.1-2,0.1-3,0.2c1.2-0.4,2.3-1,3.2-1.9c1.4-1.4,2.3-3,3.6-4.4c0.2-0.4,0.4-0.9,0.6-1.3c0-0.2-0.1-0.3-0.1-0.5
		c-0.1-0.4-0.2-0.7-0.3-0.9c2.2-3.5,3.6-7.3,4.5-11.2c0.1,0.1,0.2,0.1,0.3,0.1c0.8,0,1.4-0.3,1.8-0.8c0.2,0,0.3-0.2,0.3-0.4
		c0,0,0,0,0,0C191.1,62.8,191,61,190.9,59.9z"/>
</g>
<g id="face_drawing">
	<path class="st1" d="M189.1,56.3c0-7-4.5-13.6-12-15.9c-7.8-2.4-16.4,0.8-19.9,7.7c-2,3.9-1.4,8.1-1.5,12.2
		c-0.1,4.4,1.9,8.8,3.7,12.8c0.9,2,2.1,4.1,3.7,6c0,0,0,0.1,0,0.1c0,0.1,0,0.3,0,0.4c0.1,0.1,0.2,0.2,0.3,0.3
		c0.3,1.1,0.4,2.1,0.1,3.2c-0.1,0.4,0.4,0.6,0.7,0.5c0.1,0,0.2-0.1,0.2-0.2c0.3-0.9,0.4-1.8,0.2-2.6c3.2,3.2,7.4,5.2,12.3,3.4
		c3.1-1.1,5.1-3.9,6.7-6.7c0,0.3,0,0.7,0,1c0.2-0.4,0.3-0.7,0.5-1.1c0.2-0.4,0.3-0.9,0.5-1.3c0-0.2,0-0.3,0-0.5c0,0,0,0,0-0.1
		c0.2-0.5,0.5-1,0.7-1.5c1.2-2.7,2.1-5.5,2.8-8.4c0,0,0.1,0.1,0.2,0.1c3.8,0.8,3.2-3.9,3.5-5.9C191.9,58.1,191.7,55.1,189.1,56.3z
		 M188.1,59c-0.5,5.4-1.8,11.3-4.4,16.4c0,0,0,0.1-0.1,0.1c-0.9,1.8-2,3.4-3.3,5c-3,3.6-7.6,4.3-11.9,2.2c-3.5-1.7-5.7-5-7.3-8.2
		c-1.6-3.3-3.1-6.9-4-10.5c-0.5-1.9-0.3-3.6-0.3-5.5c0.1-2.2-0.3-4.4,0.1-6.6c1.4-7.1,8.7-11.9,16.3-11.2
		c9.8,0.9,15.9,9.5,14.7,18.1C187.9,58.8,188,58.9,188.1,59z M190.5,60.6c-0.1,1.1,0.5,4.8-2.1,4.3c-0.1,0-0.2,0-0.2,0
		c0.5-2.3,0.8-4.7,1-7.1c0-0.1,0-0.2-0.1-0.2c0-0.1,0-0.2,0-0.3c0.1,0,0.2,0,0.3-0.1C191.4,56.1,190.5,60.2,190.5,60.6z"/>
	<path class="st1" d="M173.7,78c-1.1,0.1-2.1,0.2-3.2,0.1c-0.6,0-0.6,0.9,0,0.9c1.2,0.1,2.3,0,3.4-0.1C174.6,78.8,174.3,78,173.7,78
		z"/>
	<path class="st1" d="M174.3,69.5c-0.1,0-0.1-0.1-0.2-0.1c-1.1-0.3-1.8,0.8-2.9,0.5c-0.9-0.2-1.3-1.2-2.3-0.5
		c-0.1,0-0.1,0.1-0.1,0.2c-0.3,0.2-0.2,0.8,0.3,0.8c0.2,0,0.4-0.1,0.4-0.3c0,0,0.1,0,0.1,0c0,0,0.9,0.6,1,0.6c0.3,0.1,0.6,0.2,1,0.2
		c0.3,0,0.6,0,0.9-0.1c0.4-0.1,0.9-0.6,1.3-0.5c0,0,0,0,0.1,0c0.2,0.3,0.9,0.2,0.9-0.3V70C174.8,69.7,174.5,69.5,174.3,69.5z"/>
	<path class="st7" d="M177.3,73.6c-1.1,0-2.2-0.3-3.3-0.4c-0.7-0.1-1.3,0.1-1.8,0.5c-0.7-0.4-1.4-0.7-2.2-0.7c-1,0-2,0.2-3,0.3
		c-0.6,0.1-0.6,1,0,0.9c0.1,0,0.2,0,0.3,0c0.1,0,0.1,0.1,0.2,0.1c1,0.3,1.5,1.1,2.3,1.6c0.6,0.4,1.4,0.6,2.2,0.6
		c1.7,0.1,3-0.8,4.2-1.8c0.1-0.1,0.1-0.1,0.1-0.2c0.3,0,0.6,0,0.9,0C177.9,74.5,177.9,73.6,177.3,73.6z"/>
	<path class="st6" d="M175.4,74.3c0,0-1,0-2,0s-1,0-1,0l0,0h-2h-2l4,1L175.4,74.3z"/>
	<path class="st7" d="M174.2,74.7c-1.4,0.1-2.7,0.1-4.1,0.1c0,0,0,0-0.1,0c0,0-0.1,0-0.1,0c-0.6,0-0.6,0.9,0,0.9c0,0,0,0,0.1,0
		c0,0,0.1,0,0.1,0c1.4,0,2.7,0,4.1-0.1C174.9,75.6,174.9,74.7,174.2,74.7z"/>
	<path class="st1" d="M172.6,65.7c-0.9-0.2-1.9,0-2.7,0.5c-0.5,0.3,0,1.1,0.5,0.8c0.4-0.3,0.9-0.4,1.4-0.5c0.2,0,1,0,1.2,0.2
		c0,0.4,0.6,0.6,0.9,0.2C174.5,66.2,173.1,65.8,172.6,65.7z"/>
	<g>
		<ellipse class="st8" cx="163.9" cy="59.6" rx="4.5" ry="2.5"/>
		<ellipse class="st6" cx="164.4" cy="59.8" rx="3.6" ry="1.9"/>
		<ellipse cx="164.4" cy="60" rx="1.3" ry="1.2"/>
	</g>
	<g>
		<ellipse class="st8" cx="179.9" cy="59.6" rx="4.5" ry="2.5"/>
		<ellipse class="st6" cx="179.4" cy="59.8" rx="3.6" ry="1.9"/>
		<ellipse cx="179.4" cy="60" rx="1.3" ry="1.2"/>
	</g>
	<ellipse class="st6" cx="162.9" cy="59.4" rx="1" ry="0.9"/>
	<ellipse class="st6" cx="180.9" cy="59.4" rx="1" ry="0.9"/>
</g>
<g id="glasses">
	<ellipse class="st9" cx="164.4" cy="60.3" rx="5.5" ry="3.7"/>
	<ellipse class="st9" cx="180.4" cy="60.3" rx="5.5" ry="3.7"/>
	<ellipse class="st2" cx="172.4" cy="59.9" rx="3" ry="0.9"/>
	<polygon class="st2" points="155.4,58.6 159.3,59.3 159.5,58.4 155.6,57.7 	"/>
	<polygon class="st2" points="189.4,58.6 185.5,59.3 185.3,58.4 189.2,57.7 	"/>
	<ellipse class="st10" cx="164.4" cy="60.3" rx="5.5" ry="3.7"/>
	<ellipse class="st10" cx="180.4" cy="60.3" rx="5.5" ry="3.7"/>
</g>
<g id="hair_colour">
	<path class="st11" d="M193.7,46.2c-0.9-3.8-3.3-6.9-4.9-10.4c-0.2-1-0.7-2-1.5-2.7c-1.8-1.6-4.1-2.4-6.4-3.1
		c-1.1-0.6-2.4-1.1-3.8-1.3c3.5-2.3,7-4.7,7.2-9c0.3-4.2-3.5-5-7.2-5.1c-0.3-0.1-0.6-0.1-0.8,0c-0.2,0-0.3,0-0.5,0
		c-5.1-1.4-12.4,0.2-13.4,5.7c-0.4,2.2,0.4,4.9,2.4,6.3c0.8,0.6,1.8,0.9,2.9,1c0.2,0.3,0.6,0.5,1.1,0.5c1.7,0.1,3.3,0,4.9-0.4
		c-0.1,0.2-0.1,0.3-0.1,0.5c-4.5,0.1-9.4,1.6-12.5,3.8c-4.2,2.9-6.7,7.2-7.2,11.9c-0.7,3.4-0.3,7,0.6,10.5c0,0,0,0,0,0
		c0.1,0.3,0.1,0.6,0.2,0.8c0.4,1.5,3,1.2,2.9-0.4c-0.1-1.6,0.1-3.1,0.4-4.6c1.3-4.3,4.4-7.3,8.4-9.3c0.6-0.2,1.2-0.3,1.9-0.4
		c0.2,0.2,0.5,0.3,0.9,0.3c3.4-0.2,7-0.1,10.2,1c3.2,1.1,4.9,3.7,6.7,6.2c0.2,0.9,0.4,1.9,0.5,2.9c0.1,0.6,0.5,1,0.9,1.2
		c0,0.2,0.1,0.3,0.2,0.5c0,0.1,0.1,0.1,0.1,0.2c0,0.4,0.1,0.8,0.1,1.2c0,1.1,1.1,1.5,2,1.3c0.4,0.3,0.7,0.6,1.1,1
		c0.8,0.6,2.3,0.5,2.5-0.6C194.4,52.6,194.5,49.4,193.7,46.2z"/>
</g>
<g id="hair_drawing">
	<path class="st12" d="M192.7,59.2c0-0.1,0-0.1,0-0.2c2.1-2.6,2.6-5.8,2.4-9.1c-0.1-2-0.3-4.1-1-6c-0.7-1.9-2.1-3.4-3.2-5.1
		c-1-1.6-1.1-3.5-2.2-4.9c-1.1-1.5-3.1-2.2-4.8-3c-1.6-0.7-3.2-1.3-4.8-1.7c0,0,0,0,0,0c0.6-0.7,0.4-1.2-0.1-1.4
		c3.5-2.3,8.2-7.1,5.1-11.3c-0.5-0.6-1.1-1-1.8-1.2c-0.1-0.1-0.3-0.2-0.5-0.1c-0.3-0.1-0.7-0.1-1.1-0.2c0-0.3-0.2-0.6-0.6-0.4
		c-0.3,0.1-0.5,0.2-0.7,0.3c-0.3,0-0.7-0.1-1-0.1c-3.1-0.4-6.3-0.7-9.4,0c-3.8,0.9-7.1,3.7-7.2,7.3c-2.3-0.5-4.7-0.7-6.8,0.3
		c-0.6,0.3-0.1,1.1,0.5,0.8c1.5-0.8,3.4-0.8,5.2-0.4c-2.8-0.1-5.6,0.5-8.2,2.3c-0.5,0.3,0,1.1,0.5,0.8c2.9-2,6-2.4,9.1-2
		c0,0,0,0.1,0,0.1c-2.9,0-5.7,0.7-8.3,2c-0.6,0.3-0.1,1.1,0.5,0.8c1.4-0.7,2.8-1.3,4.4-1.6c-2.2,1.1-3.8,2.9-4.3,5.4
		c-0.1,0.6,0.9,0.8,1,0.2c0.6-3.4,3.7-5.3,7-5.9c1.5,3.3,5.4,4.8,9.2,4.4c0.1,0.1,0.2,0.1,0.4,0.2c0.1,0,0.1,0,0.2,0
		c-0.1,0-0.2,0.1-0.3,0.1c-0.1-0.1-0.2-0.1-0.3-0.1c-1.1-0.1-2.2-0.1-3.2,0.1c-0.2-0.2-0.6-0.2-0.8,0c0,0,0,0.1-0.1,0.1
		c-0.4,0.1-0.7,0.2-1,0.3c-0.2-0.2-0.7-0.2-0.9,0.2c0,0,0,0.1,0,0.1c-0.4,0.1-0.7,0.2-1.1,0.4c-0.2-0.1-0.4,0-0.6,0.2
		c0,0,0,0.1-0.1,0.1c-0.6,0.3-1.2,0.6-1.8,1c-0.2,0-0.4,0.1-0.5,0.3c0,0,0,0.1,0,0.1c-0.3,0.2-0.7,0.5-1,0.7c-0.1,0-0.2,0.1-0.3,0.2
		c0,0-0.1,0.1-0.1,0.1c-2.1,1.7-3.8,3.8-5,6c-3,5.6-2.8,12,0,17.5c0,0-0.1,0-0.1,0.1c-2.4,3.3-3.8,7.1-3.9,11.1
		c-0.1,3.6,0.2,8.2,2.1,11.3c0.2,0.4,1,0.2,0.9-0.2c-0.4-3.2-0.6-6.5-0.3-9.8c0.1-1.8,0.4-3.6,0.7-5.4c0-0.2,0.1-0.6,0.2-1
		c0.3,5.4,4.8,11.1,1.2,16.3c-0.1,0.1-0.1,0.2-0.1,0.3c-0.4,0.4,0.3,1,0.7,0.6c2.8-2.6,2.8-5.6,2-8.8c0.1-1.7-0.3-3.3-0.7-4.9
		c-0.7-3-1.3-5.9-0.3-8.9c0-0.1,0-0.2,0-0.3c0.3-1.9,0.6-3.9,1.1-5.7c0.7-1.3,1.7-2.4,2.8-3.6c1.3-1.4,1.2-3.6,2.9-4.5
		c0.1,0,0.1-0.1,0.1-0.1c0,0,0,0,0,0c2.2-1,4.4-0.5,6.7-0.4c1.6,0.1,3-0.3,4.6-0.5c3.3-0.1,4.3,2.9,6.3,4.9c2.2,2.3,4.3,4.1,5.4,7.1
		c0,0,0,0,0,0c0.1,2.7-0.3,5.4,0,8.1c0,0.1,0.1,0.2,0.1,0.3c0,0.3-0.1,0.6-0.1,0.9c0,0.6,1,0.6,1,0c0-0.2,0-0.3,0-0.5
		c0.1-0.1,0.1-0.2,0.1-0.4c0-0.1,0-0.2,0-0.3c0.2-1.4,0.5-2.8,0.8-4.1c0.2-0.1,0.4-0.1,0.6-0.1c0.4,0,0.8,0.1,1,0.3
		c0.1,3,0.1,6.1-0.1,9.1c-0.2,3.6-1,7.3-0.4,10.9c0,0.2,0,0.4,0,0.6c0,0.3,0.2,0.4,0.5,0.4c0,0.5-0.1,1-0.1,1.5
		c-0.1,0.1-0.1,0.1-0.1,0.3c0,0.3,0.1,0.5,0.1,0.8c0.1,0.6,0.9,0.6,1,0c0.4-4.9,0.8-9.8,1.1-14.7c0.1-2.1,0.6-4.4,0.4-6.5
		C193.3,60.1,193.1,59.6,192.7,59.2z M152.7,72.6c0-1.7,0-3.4,0.2-5.1C152.8,69.2,152.7,70.9,152.7,72.6z M154.8,51.2
		c0,0.2,0,0.4,0,0.6c-0.1-0.5-0.3-0.9-0.4-1.4c0.2-0.1,0.3-0.4,0.2-0.6c-0.1-0.3-0.3-0.5-0.6-0.6c0,0,0,0-0.1,0
		c-0.3-3.3,0.3-6.6,2-9.7c0.1-0.2,0.2-0.4,0.3-0.6c-1.2,3.8-1.3,7.8-0.9,11.8C155.1,50.7,154.8,50.8,154.8,51.2z M157.1,42.7
		c-0.2,1.3-0.3,2.5-0.4,3.8c-0.1-0.3-0.4-0.4-0.7-0.3c0-3.4,0.7-6.7,2.3-9.9C157.6,38.4,157.4,40.7,157.1,42.7z M158.7,48.4
		c-0.3-1.1-0.5-2.2-0.6-3.4c0-0.2-0.1-0.3-0.2-0.3c0-0.1,0-0.2,0-0.3c0.3-3.3,0.7-7.7,2.7-10.6c-1.6,4.2-2.3,8.6-2.2,13.2
		c0,0.3,0.4,0.5,0.6,0.4C158.9,47.7,158.8,48,158.7,48.4z M161.1,44.4c-0.1,0.1-0.2,0.3-0.3,0.4c-0.3-1.3-0.3-2.6-0.1-3.9
		c0.1-0.4-0.5-0.5-0.8-0.4c0.4-2.7,1.2-5.4,2.3-8c0.3-0.2,0.5-0.3,0.8-0.5c-1.7,3.6-1.9,8.3-2,12C161,44.2,161,44.3,161.1,44.4z
		 M164,42C164,42,164.1,42,164,42c-0.3,0.3-0.6,0.5-0.9,0.7c-0.1-1.1-0.1-2.3-0.1-3.4c0-0.4-0.4-0.5-0.7-0.4
		c0.3-2.7,0.9-5.4,2.2-7.6c0.2-0.1,0.4-0.2,0.6-0.3C164.1,34.6,163.7,38.2,164,42z M166.7,40.9c0,0,0,0.1,0.1,0.1
		c-0.1,0-0.2,0.1-0.3,0.1c-0.2-1-0.4-1.9-0.5-2.9c-0.1-0.5-0.8-0.4-0.9,0c0.1-2.6,0.6-5.1,1.4-7.6c0.2-0.1,0.3-0.1,0.5-0.2
		C165.4,33.5,165.9,37.9,166.7,40.9z M167.7,40.8c0,0,0-0.1,0-0.1c-0.8-3-1.3-7.6,0.4-10.5c0.3-0.1,0.7-0.1,1.1-0.1
		c-1.5,3.2-2,7.4-1.1,10.7C167.9,40.8,167.8,40.8,167.7,40.8z M169.1,40.6C169.1,40.6,169,40.6,169.1,40.6c-1-3.3-0.4-7.6,1.2-10.6
		c0,0,0,0,0,0c0,0,0.1,0,0.1,0C169.2,33.4,168.7,36.9,169.1,40.6z M179.1,26.4c0.1-0.8,0.2-1.5,0.4-2.3c0.2-0.8,0.5-2.1,1.1-2.7
		c0.1-0.1,0.1-0.2,0.2-0.3c0.7-0.2,0.9-0.1,0.7,0.4c0.1,0.3-0.2,0.8-0.3,1.2c-0.4,1-1,1.9-1.7,2.7c-0.3,0.2-0.1,0.6,0.1,0.7
		C179.5,26.1,179.3,26.2,179.1,26.4z M182.8,22.7c-0.5,0.7-1,1.4-1.7,2c1.2-1.8,2.7-4.9,0.5-5.1c-1.3-0.1-2,1.3-2.4,2.2
		c-0.2,0.5-0.4,1-0.6,1.5c0.2-0.8,0.5-1.7,0.9-2.5c0.4-0.7,1.1-1.8,2-2.2c1.8-0.8,1.4,1.9,1.1,2.9c-0.1,0.3,0.1,0.5,0.3,0.5
		C183,22.4,182.9,22.6,182.8,22.7z M181.7,15.9c0.2,0.1,0.3,0.1,0.5,0.2c1.2,0.6,1.7,1.7,1.7,2.9c-0.2-1.4-0.9-2.4-2.8-1.1
		c-3.1,2.2-3.7,6-3.7,9.4c0,0,0,0,0,0c-0.1,0-0.1,0-0.2,0c0,0,0,0,0,0C176.5,23.4,177.5,17.9,181.7,15.9z M177.2,15.7
		c0.2-0.1,0.2-0.2,0.2-0.4c0.2,0,0.5,0,0.8,0.1c-3.5,2.7-4.1,8.3-3.3,12.1c-0.1,0-0.1,0-0.2,0c0,0,0-0.1,0-0.1c0-0.1,0-0.3-0.1-0.4
		c0-0.1,0-0.1,0-0.2c-0.2-0.6-0.3-1.3-0.4-2c0.2-0.1,0.3-0.3,0.1-0.6c-0.1-0.2-0.2-0.4-0.3-0.5C173.8,20.6,174.3,17.2,177.2,15.7z
		 M173.6,15c0.4,0,0.8,0,1.2,0.1c-0.1,0.3-0.3,0.5-0.4,0.8c-0.2,0.3,0.1,0.6,0.3,0.7c-0.5,0.7-0.9,1.4-1.2,2.2
		C173.5,17.5,173.5,16.3,173.6,15C173.6,15,173.6,15,173.6,15z M172.6,15C172.6,15,172.6,15,172.6,15c-0.2,1.8-0.2,3.6,0.1,5.4
		c-0.3-0.8-0.6-1.6-0.8-2.4c-0.2-0.8-0.5-2.1-1.2-2.9C171.3,15.1,172,15,172.6,15z M169.4,15.4c0.1,0.1,0.2,0.2,0.3,0.2l0.1,0
		c0,0,0,0,0.1,0c0.9,0.7,1.2,2.6,1.5,3.9c-0.1-0.2-0.3-0.4-0.4-0.6c-0.8-1.1-2.2-2.8-3.8-2.7C167.8,15.8,168.6,15.6,169.4,15.4z
		 M164.6,26c1.4,0.1,3.1,0.4,3.4,1.8C166.7,27.5,165.5,26.9,164.6,26z M169,28c-0.2-2.4-3-2.9-5.2-2.9c-0.1-0.2-0.2-0.3-0.3-0.5
		c1.5,0.1,3.6,0.5,5.2,1.2c0.5,0.7,0.9,1.5,1.1,2.2C169.6,28,169.3,28,169,28z M168.1,23.7c0,0-0.1-0.1-0.1-0.1
		c-0.9-0.8-1.9-1.1-2.8-1c0,0-0.1,0-0.1,0c-0.5-0.1-1-0.3-1.5-0.4c0.6-1.3,2.2-1.8,3.6-0.9c0.8,0.5,1.4,1.3,2,2
		c0.3,0.5,0.6,1,0.9,1.5C169.4,24.4,168.7,24.1,168.1,23.7z M171.6,26.2c0,0-0.1-0.1-0.1-0.1c-0.6-2.1-1.8-4.2-3.7-5.5
		c-1.7-1.2-3.9-0.8-4.9,0.8c0.1-1.1,0.5-2,1.2-2.8c4.1-0.3,6.5,4.5,7.8,7.8C171.8,26.3,171.7,26.2,171.6,26.2z M164.9,17.6
		c0.5-0.4,1.1-0.8,1.7-1.2c-0.1,0.3,0.2,0.7,0.6,0.6c1.2-0.2,2.5,1.8,3,2.5c0.7,1.1,1.2,2.3,1.6,3.5c0.5,1.5,0.7,3.2,1.8,4.4
		c0,0,0,0,0,0c-0.1,0-0.2,0-0.3,0c0-0.1,0-0.1,0-0.2C172,24,169.6,17.9,164.9,17.6z M171,40.4c-0.3-3.6-0.3-7.2,1.6-10.5
		c0,0,0,0,0,0c0.1,0,0.3-0.1,0.4-0.1c-1.8,3.2-2.1,7-1.7,10.6C171.3,40.4,171.2,40.4,171,40.4z M172.4,40.4
		c-0.4-3.4-0.1-7.1,1.6-10.2c-1.2,3.3-1.6,6.7-1.3,10.2C172.6,40.4,172.5,40.4,172.4,40.4z M175.2,35.5c-0.1,1.7-0.7,3.4-0.3,5
		c-0.1,0-0.3,0-0.4,0c0.2-0.1,0.3-0.3,0.3-0.5c-0.2-0.8-0.2-1.5-0.1-2.3c0-0.5-0.8-0.6-0.9-0.2c0.1-2.7,0.6-5.3,1.6-7.8
		c0,0,0,0,0.1,0C175.4,31.6,175.4,33.5,175.2,35.5z M179.6,15.5c0.2,0,0.5,0.1,0.7,0.1c-3.9,2.4-4.8,7.7-4.2,11.8
		c-0.1,0-0.2,0-0.3,0C175,23.7,175.6,17.6,179.6,15.5z M177.8,41.1c-0.1,0-0.2-0.1-0.3-0.1c-0.1-0.8-0.3-1.7-0.4-2.5c0,0,0,0,0,0
		c0-0.5-0.8-0.7-1-0.1c-0.1,0.5-0.2,1-0.4,1.6c-0.2-1.7,0.4-3.6,0.5-5.3c0.1-1.7,0.1-3.3,0.1-5c0.2,0,0.5,0,0.7,0.1
		C177.6,33.5,178.1,37.2,177.8,41.1z M180.2,42c-0.1,0-0.2-0.1-0.2-0.1c0-0.8,0.1-1.7,0.1-2.5c0-0.6-0.9-0.6-1,0
		c-0.1,0.7-0.2,1.4-0.2,2c0,0,0,0,0,0c0,0,0-0.1,0-0.1c0.3-3.8-0.2-7.6-0.7-11.4c0.6,0.1,1.2,0.3,1.8,0.5c0,0,0,0,0,0
		c-0.3,1.5,0.5,3.4,0.7,4.9C180.7,37.5,180.5,39.8,180.2,42z M182.5,43.5c-0.3-0.2-0.5-0.4-0.8-0.6c0.3-0.9,0.6-1.9,0.9-2.9
		c0.2-0.6-0.8-0.8-1-0.2c-0.1,0.3-0.2,0.5-0.2,0.8c0.2-1.3,0.2-2.7,0.2-4c0-1.1-0.1-2.2-0.3-3.3c-0.1-0.6-0.5-1.6-0.5-2.3
		c0,0,0.1-0.1,0.1-0.2c0.5,0.2,1,0.4,1.4,0.6c-0.1,0.1-0.1,0.2-0.1,0.3C182.8,35.5,183.2,39.5,182.5,43.5z M184.5,45.3
		c0-0.1-0.1-0.1-0.2-0.1c0.4-1.4,0.5-2.9,0.7-4.3c0.1-0.6-0.9-0.8-1-0.2c-0.2,1.1-0.2,2.5-0.5,3.8c-0.1-0.1-0.1-0.2-0.2-0.2
		c0,0,0.1-0.1,0.1-0.2c0.9-4.1,0.4-8.2-0.2-12.4c0.2,0.1,0.3,0.1,0.5,0.2c0.4,0.2,0.9,0.4,1.3,0.6c-0.1,0.1-0.2,0.2-0.2,0.4
		C185,36.9,185.7,41.2,184.5,45.3z M186.5,45.4c-0.1-0.1-0.2-0.2-0.4-0.2c0.1-0.4,0.2-0.9,0.2-1.3c0.3-0.1,0.4-0.5,0.2-0.7
		c-0.1-0.1-0.1-0.1-0.2-0.2c-0.1-0.1-0.2-0.1-0.4-0.1c0.4-3.3-0.1-6.7-0.3-10.1c0.4,0.2,0.7,0.5,1.1,0.7c-0.1,0.1-0.1,0.2-0.1,0.4
		C187.3,37.7,187.2,41.6,186.5,45.4z M187.7,34.4c0.2,0.3,0.5,0.6,0.6,1c0.1,0.3,0.2,0.5,0.3,0.8c-0.1,0.1-0.1,0.2-0.1,0.3
		c0.6,3.1,0.7,6.2,0.4,9.2c-0.1,0-0.3,0-0.4,0.1c-0.1,0.1-0.2,0.3-0.3,0.4c0-0.4,0-0.8,0-1.2c0-0.3-0.4-0.5-0.6-0.4
		C188.2,41.3,188.2,37.9,187.7,34.4z M189.8,52.8c0,0-0.1,0-0.1,0c0.3-1.1,0.6-2.1,0.8-3.2C190.4,50.7,190.1,51.8,189.8,52.8z
		 M189.6,49.4c-0.4,1.5-0.8,2.9-1.2,4.4c0-0.2,0-0.4,0-0.6c0.1,0,0.2-0.1,0.2-0.3c1.4-4.5,1.8-9.1,1.3-13.7c0.3,0.5,0.7,1.1,1.1,1.6
		c-0.1,0.1-0.2,0.2-0.2,0.4c0.4,2.9,0.2,5.7-0.3,8.4C190.7,49,189.8,48.8,189.6,49.4z M191.4,52.9c-0.2,0.5-0.3,0.9-0.4,1.4
		c0.1-0.5,0.2-1.1,0.2-1.6c0-0.2-0.1-0.3-0.2-0.4c0.8-3.3,1.4-6.7,1.1-10.2c0.1,0.2,0.3,0.4,0.4,0.6c0.2,0.3,0.3,0.7,0.5,1
		c-0.1,0.1-0.1,0.1-0.1,0.3c-0.1,3-0.3,5.8-1,8.6C191.6,52.6,191.5,52.7,191.4,52.9z M191.9,55.3c1.2-2.9,1.6-5.7,1.8-8.7
		c0.1,0.7,0.2,1.4,0.3,2.1c0.1,1.4,0.2,2.8,0,4.2c-0.3-0.1-0.6,0.1-0.7,0.4c0,0.1,0,0.2-0.1,0.3c-0.1,0-0.1,0.1-0.2,0.1
		C192.6,54.3,192.2,54.8,191.9,55.3z"/>
	<path class="st13" d="M185.3,56.3c-1.6-0.6-3.3-1.4-5-1.2c-1.7,0.2-3.4,0.7-5.1,1.1c-0.6,0.1-0.4,1,0.3,0.9
		c1.4-0.3,2.8-0.7,4.3-0.9c1.9-0.3,3.6,0.4,5.3,1C185.6,57.4,185.9,56.5,185.3,56.3z"/>
	<path class="st13" d="M159.2,56.3c1.6-0.6,3.3-1.4,5-1.2c1.7,0.2,3.4,0.7,5.1,1.1c0.6,0.1,0.4,1-0.3,0.9c-1.4-0.3-2.8-0.7-4.3-0.9
		c-1.9-0.3-3.6,0.4-5.3,1C158.9,57.4,158.6,56.5,159.2,56.3z"/>
	<path class="st2" d="M180.1,28.8c0.3-0.2,0.2-0.8-0.3-0.8c-0.5,0-1.1,0-1.6,0L179,28c0.6-0.1,0.6-1,0-0.9l-9.5,0.8
		c-0.3,0-0.5,0.3-0.5,0.5c-0.2,0.3-0.1,0.7,0.4,0.8c3.5,0.2,7.1,0.4,10.6,0.6C180.7,29.8,180.7,28.9,180.1,28.8z"/>
</g>
<g id="arms_colour">
	<path class="st0" d="M205.2,122c0.3-0.3,0.4-0.8,0.1-1.3c-0.4-0.8-0.7-1.7-1-2.5c0.2,0,0.3-0.2,0.3-0.4c0.1-1.8,0.4-3.6,0.9-5.4
		c0.1-0.3-0.2-0.5-0.5-0.5c0.2-1.2,0.4-2.3,0.7-3.5c0.1-0.3-0.2-0.5-0.4-0.5c0.1-0.9,0.2-1.8,0.3-2.8c0-0.1,0-0.2-0.1-0.3
		c0.2-0.6,0.4-1.2,0.5-1.8c0.1-0.3-0.2-0.5-0.4-0.5c0-0.1,0.1-0.2,0.1-0.3c0.1-0.3-0.2-0.5-0.5-0.5c0.2-0.3,0.4-0.7,0.6-1
		c0.2-0.4-0.2-0.7-0.6-0.6c-0.1,0-0.1,0.1-0.2,0.1c-0.1,0-0.1,0-0.2,0.1c-0.1,0.1-0.2,0.1-0.3,0.2c-1.7,0.9-3.2,2-4.4,3.4
		c0,0,0,0.1-0.1,0.1c-0.3-1.3-0.6-2.5-1-3.8c-0.1-0.4-0.3-0.6-0.5-0.8c-0.1-0.5-0.1-0.9,0-1.3c0-0.3,0-0.6-0.1-0.8
		c0-0.8-0.1-1.7-0.3-2.5c0-0.1-0.1-0.2-0.2-0.2c-0.5-4.5-1.2-9-2.3-13.5c-0.1-0.3-0.3-0.3-0.5-0.3c-0.1-0.2-0.1-0.5-0.2-0.7
		c0-0.2-0.1-0.2-0.3-0.3c-0.6-1.4-1.3-2.7-2.1-3.9c-0.1-0.2-0.4-0.2-0.6-0.1c-0.3-0.9-0.7-1.8-1-2.8c-0.1-0.2-0.2-0.3-0.4-0.3
		c-0.3-1.3-0.6-2.5-0.8-3.8c0-0.2-0.2-0.3-0.4-0.3c-0.1-0.4-0.1-0.8-0.2-1.3c-0.2-0.7-0.4-1.7-1.2-2c-0.1,0-0.2,0-0.3,0
		c-0.3-0.2-0.7-0.1-0.7,0.3c0.1,1.7,0.2,3.4,0.5,5.1c0,0,0,0,0,0.1c0.2,2.2,0.6,4.4,1.2,6.5c-0.1,0-0.3,0.1-0.4,0.2
		c-2.3-0.4-4.7-0.6-6.8,0.3c-0.2-0.1-0.4-0.2-0.6,0c0,0-0.1,0.1-0.1,0.1c-0.3,0.2-0.6,0.5-0.9,0.7c0,0,0,0,0,0c0,0-0.1,0-0.1,0.1
		c0,0,0,0,0,0c-0.1,0-0.2,0.1-0.2,0.2c-1.2,1.7-3.4,4-3.1,6.2c0,0.3,0.3,0.5,0.6,0.4c0,0,0.1,0,0.1,0c0.7,0.3,1.8-0.5,2.4-0.7
		c0.3-0.1,0.3-0.4,0.1-0.6c0,0,0-0.1,0-0.1c0-0.1,0.1-0.3,0.1-0.4c0.1-0.2,0.2-0.3,0.2-0.4c-0.2,2,0.5,6.4,2.5,6.2
		c0.1,0.1,0.4,0.2,0.6,0.1c0.5-0.3,0.7-0.5,1-1c0.2-0.3-0.1-0.7-0.5-0.6c0.1-0.1,0.1-0.2,0.1-0.3c0.1,0,0.2,0.1,0.3,0
		c0.1,0,0.2,0,0.4,0c0.1-0.1,0.3-0.2,0.4-0.2c0,0,0,0,0,0c-0.2,0.1-0.4,0.3-0.3,0.6c0.1,0.2,0.2,0.3,0.3,0.4c-0.1,0.1-0.1,0.2,0,0.4
		c0.3,0.5,0.7,0.9,1.2,1.4c0,0,0,0,0,0c1.1,1.3,2.2,2.5,3.3,3.7c0.2,0.2,0.4,0.1,0.6,0c0,0,0,0.1,0,0.1c0.1,0.5,0.2,1,0.3,1.4
		c0.1,0.4,0.2,0.8,0.2,1.2c0,0.1,0,0.2,0,0.3c-0.1,4.3,0,8.8-0.4,13.1c-0.3,4.3-1.6,8.6-2.2,12.9c-0.7,4.9-1.8,11.6,0.8,16.4
		c-10.1,0.9-20.1,1.4-30.3,1.4c-0.1-0.1-0.1-0.1-0.2-0.2c-0.3-0.3-0.7-0.4-1.2-0.5c-1.6-3.8-2.1-8.1-2.9-12.1l-2.9-14
		c-0.1-0.7-0.6-1-1.1-1.1c0,0,0-0.1,0-0.1c-0.1,0-0.2,0-0.2-0.1c-0.7-0.3-1.3-0.8-1.8-1.3c-0.1,0-0.1,0-0.2,0c0-0.1,0-0.2,0-0.3
		c-0.1-0.1-0.2-0.2-0.4-0.4c-0.1-0.1-0.2-0.3-0.2-0.4c-0.6-0.4-1.2-0.8-1.7-1.2c-0.2,0-0.3,0-0.5,0.1c-0.3-0.9-1.4-1.1-2.2-0.7
		c-0.3-1.1-1.4-1.3-2.2-1c0-0.1,0-0.2-0.1-0.3c-0.2-1-1.1-1.3-1.9-1.1c0,0,0-0.1,0-0.1c0,0,0,0,0,0c-0.7-0.2-1.4-0.3-2.1-0.6
		c-0.2-0.1-0.3-0.2-0.4-0.3c-0.6,0.3-1,0.9-0.8,1.8c1.7,7.6,0.8,15.4,2.2,23c0,0.2,0.1,0.3,0.1,0.5c-0.1,0.3-0.2,0.6-0.1,1
		c0.7,4.6,1.8,9.1,3.1,13.6c0.9,2.9,1.7,6.1,4.1,8.2c0.4,1.4,1.3,2.2,2.3,2.6c0.2,0.8,1,1.5,2.1,1.3c5.1-1,10.3-1,15.4-1.3
		c0.1,0,0.2,0.1,0.3,0.1c2.3,0.3,4.6,0.2,6.7-0.7c0.1,0,0.2-0.1,0.3-0.1c5-0.6,9.9-2.2,14.6-4.1c1.3-0.4,2.7-0.8,4-1.3
		c0.1,0,0.2-0.1,0.4-0.2l1-0.4c0.6-0.2,1.2-0.3,1.8-0.4c0.1,0.3,0.3,0.6,0.6,0.8c0,0,0,0,0,0c0.1,0.2,0.2,0.4,0.3,0.6
		c0.1,0.2,0.3,0.2,0.4,0.2c0.3,0.4,0.6,0.7,1,1c0.3,0.2,0.6,0.4,0.9,0.6c0.3,1.3,1.9,2,3.2,2.5c0,0.2,0.1,0.4,0.3,0.5
		c0.1,0,0.1,0.1,0.2,0.1c0,0,0,0.1,0,0.1c0,0.3,0.3,0.4,0.5,0.4c0.3,0.2,0.9,0,0.7-0.4c0-0.1-0.1-0.1-0.1-0.2c0-0.1,0-0.1,0-0.2
		c0,0,0,0,0-0.1c0.1-0.1,0.2-0.2,0.2-0.3c0.1-0.2,0-0.3-0.1-0.4c-0.1-0.3-0.2-0.6-0.2-1c0,0,0-0.1,0-0.1c-0.1-0.5-0.1-0.9-0.1-1.4
		c0.5-0.7,0.8-1.4,1.1-2.2c0-0.1,0-0.3-0.1-0.4c0.1-0.2,0.3-0.5,0.4-0.7c0.1-0.1,0.1-0.2,0.1-0.3c0.1-0.1,0.2-0.2,0.2-0.3
		c0.2-0.2,0.1-0.4-0.1-0.5c0,0,0,0,0,0c0.1-0.2,0-0.4-0.1-0.5c0-0.1,0-0.3,0-0.4c0,0,0,0,0-0.1l0.5-3c0-0.2-0.1-0.3-0.2-0.4
		c0-0.1,0-0.2,0.1-0.3c0-0.2-0.1-0.3-0.2-0.4c0-0.1,0-0.2,0-0.4c0-0.1,0-0.1,0-0.2c1.5-1.6,2.5-3.6,3-5.7
		C208.2,130.9,207,126.6,205.2,122z M180.1,82.4c0-0.2-0.1-0.3-0.2-0.4c0.4-0.2,0.7-0.4,1.1-0.5c0,0,0,0,0,0
		C180.6,81.8,180.3,82.1,180.1,82.4z M181.2,86.6c-0.1-0.1-0.2-0.1-0.3-0.1c-0.1-0.4-0.1-0.7-0.2-1.1c0,0,0,0,0,0c0,0,0,0,0.1,0
		c-0.1,0.3,0.2,0.5,0.4,0.5c0,0,0,0,0,0c-0.1,0.2,0,0.4,0.1,0.5c0,0.1,0,0.1,0.1,0.2c0,0.1,0,0.2,0.1,0.3L181.2,86.6z M184.5,84.6
		c-0.2,0-0.4,0.3-0.3,0.5c0,0.1,0.1,0.2,0.1,0.4c-0.3-0.1-0.8,0.2-0.5,0.6c0,0.1,0.1,0.1,0.1,0.2c0,0,0,0-0.1,0
		c0-0.2-0.2-0.4-0.4-0.4c0,0,0-0.1,0-0.1c0,0,0.1-0.1,0.1-0.1c0.2-0.2,0.1-0.5-0.1-0.6c0,0,0.1-0.1,0.1-0.1c0.2-0.2,0.2-0.3,0.1-0.5
		c0,0,0.1-0.1,0.1-0.1c0.1,0.2,0.4,0.3,0.7,0.1c0.1-0.1,0.1-0.1,0.2-0.2c0,0.1,0.1,0.1,0.1,0.1C184.5,84.4,184.5,84.5,184.5,84.6z
		 M185.6,84.6c-0.1,0.1-0.1,0.1-0.1,0.2c0,0-0.1,0-0.1,0c0-0.1-0.1-0.1-0.1-0.2c0,0,0,0,0,0c0,0,0,0,0,0c0,0,0-0.1,0-0.1
		c0-0.1-0.1-0.1-0.1-0.1c0.1,0,0.1,0,0.2-0.1c0.1-0.1,0.1-0.1,0.2-0.2c0,0.1,0.1,0.2,0.3,0.3C185.7,84.4,185.6,84.5,185.6,84.6z
		 M186.9,87.5c0.1,0.3,0.2,0.6,0.3,0.9c0.2,0.7,0.3,1.3,0.4,2l-0.8-3C186.8,87.5,186.9,87.5,186.9,87.5z M187.5,90.9
		c0.1-0.1,0.2-0.2,0.2-0.4c0,0.3,0.3,0.4,0.6,0.4c-0.1,0.1-0.2,0.3-0.1,0.5c0.2,0.2,0.3,0.5,0.5,0.7
		C188.2,91.7,187.8,91.3,187.5,90.9z"/>
</g>
<g id="arms">
	<path class="st1" d="M188.6,139.7c-0.2,0-0.4,0.1-0.5,0.1c0.1-0.3-0.1-0.6-0.5-0.5c-0.8,0.3-1.5,0.4-2.3,0.3c-0.1,0-0.2,0-0.3,0.1
		c-4.1,0.3-8.1,0.6-12.2,0.7c-2.5,0.1-5,0.2-7.5,0.2c-2.3,0-5,0.5-7.2-0.1c-2.5-0.7-2.3-4.7-2.6-6.7c-0.4-2.2-0.7-4.4-1.2-6.6
		c-0.9-4.4-2-8.7-3.2-13c-0.1-0.4-0.7-0.2-0.6,0.2c1.4,4.8,2.6,9.7,3.5,14.6c0.5,2.5,0.9,5,1.3,7.6c0.2,1.5,0.2,3.2,1.7,4.1
		c1.6,0.9,4,0.6,5.8,0.5c2.7,0,5.4-0.1,8.2-0.2c4.7-0.2,9.4-0.4,14.1-0.8c0.1,0.1,0.2,0.1,0.3,0.1c0.9,0,1.7-0.1,2.5-0.3
		c0.3,0,0.6,0,0.8,0c0,0.1,0,0.1,0,0.2c0,0,0.1,0,0.1,0c0,0,0,0,0,0C188.7,140,188.7,139.9,188.6,139.7z"/>
	<path class="st1" d="M205.5,121.2C205.5,121.2,205.5,121.2,205.5,121.2c-1-3.2-0.4-6.6-0.1-9.8c0.3-3.2,0.5-6.5,0.8-9.7
		c0-0.1,0-0.1-0.1-0.2c0.1-0.5,0.1-1,0.2-1.5c0.1-0.5-0.8-0.5-0.9,0c-0.1,0.8-0.2,1.7-0.3,2.5c0,0.2,0.1,0.3,0.2,0.4
		c-0.3,3-0.5,6.1-0.8,9.1c-0.2,1.9-0.4,3.8-0.4,5.7c-2.7-7.9-5.1-16-5.7-24.2c0-0.1-0.1-0.2-0.1-0.2c-0.1-1-0.3-2-0.5-2.9
		c-0.4-2.3-1-4.6-1.6-6.9c-0.6-2.2-1.3-4.2-2.7-6.1c-1.5-2-2.4-4.1-3-6.4c-0.5-1.8-0.7-4-1.8-5.6c-0.5-0.7-1.6-1.3-2.3-0.4
		c-0.3,0.4-0.3,1.1-0.3,1.6c0,1.3,0.1,2.5,0.2,3.8c0.3,2.3,0.7,4.6,1.4,6.9c-0.3,0-0.6-0.1-1-0.1c-0.2,0-0.3,0-0.3,0.1
		c-2-0.2-4.6-0.6-6,0.5c-1.7,1.3-3.1,3.2-4.1,4.9c-0.5,0.9-1.6,2.5-0.4,3.3c0.1,0.2,0.2,0.2,0.4,0.2c1,0.5,2.1,0,2.7-0.7
		c0,0.2,0,0.4,0.1,0.6c0.2,1.1,1.2,1.9,1.7,2.8c0.2,0.5,0.3,0.9,0.9,1.2c1.3,0.6,2.1-0.3,2.4-1.2c0.6,1,1.4,2,2.3,2.9
		c1.4,1.3,2.6,2.4,3.1,4c0,0-0.1,0.1,0,0.2c0.8,8.1,0.2,16.1-1.6,24.1c-0.9,3.8-1.3,7.6-1.3,11.5c0,0.9,0,1.8,0.1,2.7
		c0.1,0.1,0.1,0.2,0.1,0.4c0,0.4,0,0.9,0.1,1.3c0,0,0,0,0,0c0,0.1,0.1,0.2,0.1,0.3c0.1,0.2,0.2,0.4,0.3,0.7c0.1,0.3,0.1,0.6,0.1,0.9
		c0.3,1,0.8,1.9,1.4,2.8c1.2,1.7,3.1,3,5.4,3.6c0,0-0.1,0-0.1,0c0.1,0,0.3,0.1,0.4,0.1c0.2,0,0.5,0.1,0.7,0.2c0.1,0,0.2-0.1,0.3-0.1
		c0.6,0.1,1.3,0.1,2,0.1c2.3-0.1,4.1-1.1,5.4-2.5c0.1,0.6,0.1,1.2,0,1.7c0,0,0,0.1-0.1,0.1c0,0.1,0,0.2-0.1,0.4
		c0,0.2-0.1,0.3-0.1,0.5c0,0,0,0.1,0,0.1c-0.1,0.4-0.3,0.7-0.3,1.1c0,0.2,0.2,0.4,0.2,0.6c0.3,2,0.2,1.4-0.3,2.3
		c-0.1,0.2-0.4,1.2-0.4,1.2c-0.1,0.3-0.5,0.7-0.6,1c-0.3,0.9,0.4,2.2-1,2.7c-0.4,0.1-0.2,0.7,0.2,0.6c0.4-0.2,0.7-0.4,0.9-0.6
		c0.1,0.2,0.2,0.4,0.1,0.6c0.1,0.3,0.1,0.6,0.1,0.9c0,0.1,0,0.2,0,0.3c0,0,0,0-0.1,0c0,0,0,0,0,0c0,0,0,0.1,0,0.1c0,0,0,0-0.1,0
		c0,0,0,0,0,0c0,0,0,0,0,0c-0.1,0-0.1,0-0.2-0.1c0,0,0,0,0,0c0,0,0,0,0,0c0,0,0,0,0,0c0,0,0,0,0,0c-0.2-0.1-0.4-0.2-0.5-0.4
		c-0.2,0.1-0.3,0-0.4-0.3c-0.1-0.1-0.3-0.4-0.4-0.5c-0.5-0.5-1.1-0.8-1.7-1.1c-0.9-0.5-1.4-1.1-2.1-1.8c-0.8-0.7-2.1-1.3-2.2-2.4
		c0,0,0,0,0.1,0c-0.3-0.1-0.6-0.1-0.9-0.2c0,0-0.1,0-0.1,0c-5.7,2.1-11.5,4-17.4,5.6c-3.3,0.9-6.8,1.5-10.2,1.5
		c-3.3,0-6.5-0.4-9.8-0.2c-1.4,0.1-2.7,0.2-4.1,0.5c-2.4,0.4-4.3,0.6-5.8-1.5c-1.7-2.5-2.9-5.5-4-8.3c-2.3-6-3.6-12.3-4.2-18.7
		c-0.6-6.8-0.7-13.6-1.9-20.3c0.1-0.1,0.2-0.2,0.2-0.3c0-0.5,0-1-0.2-1.4c-0.2-0.5-1-0.3-0.8,0.2c0,0.1,0,0.1,0,0.2
		c-0.1,0.1-0.1,0.2-0.1,0.3c1.4,7.1,1.5,14.3,2.1,21.4c0.6,6.6,1.9,13,4.3,19.1c1.1,2.8,2.3,5.7,3.9,8.2c1.4,2.1,3.2,2.4,5.6,2
		c7-1.2,14,0.3,21-1c7.4-1.3,14.6-4,21.6-6.5c0.2,1.2,1.5,1.8,2.4,2.6c0.6,0.6,1.1,1.2,1.8,1.6c1,0.6,1.8,1,2.4,1.9
		c0.4,0.6,1,1.3,1.8,0.8c1.1-0.6,0.5-2.3,0.1-3.2c0,0,0,0,0,0c0.1-0.2,0.1-0.4,0.1-0.6c0.1-0.7,0.1-1.1,0.5-1.7
		c0.3-0.5,0.3-1,0.5-1.5c0.2-0.5,0.6-1,0.6-1.6c0.1-0.6-0.2-1.2-0.2-1.7c0-0.3,0-0.5,0.1-0.8c0.1,0,0.1-0.1,0.2-0.2
		c0.4-1.1,0.5-2.2,0.2-3.3c0-0.1-0.1-0.2-0.2-0.2c0.3-0.4,0.6-0.7,0.8-1.1c0.2-0.3,0.4-0.6,0.6-0.9c0,0.1,0,0.1,0,0.2
		c0.1-0.2,0.2-0.5,0.3-0.7c0,0,0,0,0,0c0,0,0,0,0,0c0.1-0.2,0.1-0.3,0.2-0.5c0.1-0.2,0.2-0.3,0.3-0.4c1.2-2.3,2.2-4.8,2.2-7.2
		C208,127.6,206.7,124.4,205.5,121.2z M186.6,91.1c-0.9-0.8-1.5-1.8-2.1-2.8c0,0-0.1-0.1-0.1-0.1c0.1-0.1,0.2-0.1,0.3-0.2
		c0.8-0.8,0.2-1.7-0.8-2.2c0.1-0.1,0.2-0.2,0.2-0.3c0.1-0.1,0.1-0.2,0.1-0.3c0,0.1,0,0.2,0.1,0.2c0.1,0.1,0.2,0.2,0.4,0.2
		c0.2,0,0.3-0.1,0.4-0.2c0.1-0.1,0.3-0.1,0.4-0.2c0,0.1,0.1,0.1,0.1,0.2c0.3,0.3,0.7,0.5,1.1,0.6c0.1,0,0.2,0,0.2,0
		c-0.2,0.3-0.2,0.7-0.2,1.1c0,1.4,0.3,2.9,0.8,4.3c0.1,0.3,0.3,0.6,0.5,0.9C187.5,91.9,187,91.5,186.6,91.1z M201.1,143.1
		c-1.6,1.1-3.4,1.3-5.2,1.1c-0.1-0.1-0.2-0.1-0.4-0.1c0,0-0.1,0-0.1,0c-2.4-0.4-4.6-1.8-5.9-3.6c-2.3-3.1-2.2-6.8-2.1-10.3
		c0.1-3.6,0.6-7.2,1.4-10.7c1.7-7.5,2.2-15.1,1.5-22.7c0.1,0,0.2-0.1,0.1-0.2c-0.1-0.6-0.2-1.3-0.5-1.8c1,0.6,2.2,0.8,3.5,0.7
		c0.4-0.1,0.3-0.6-0.2-0.6c-1.2,0.2-2.4-0.2-3.3-0.9c-0.1-0.1-0.3-0.1-0.4,0c-0.2-0.3-0.5-0.7-0.8-1c1.1,0.7,2.7,1,4.2,1.1
		c0.5,0,0.4-0.5,0-0.6c-2-0.2-4.2-0.5-4.8-2.4c-0.2-0.6-0.3-1.3-0.4-2c-0.1-0.8-0.9-2.8,0.3-3.4c0.3-0.2,0.1-0.6-0.3-0.5
		c-0.3,0.1,0.4-1.2,0.4-1.3c0.1-0.3-0.4-0.5-0.6-0.3c-0.3,0.3-0.7,0.5-1.2,0.6c0.1-0.2,0.2-0.5,0.3-0.7c0.1-0.4-0.5-0.5-0.7-0.2
		c-0.5,1.5-2.4,0.5-3.1,0.1c-0.4-0.2-0.7,0.3-0.4,0.5c0.1,0.4,0.2,0.8,0.2,1.2c-0.1,0-0.1,0-0.2,0c-0.3,0-0.5,0.4-0.2,0.5
		c0.1,0,0.1,0,0.2,0.1c0,0.1,0.1,0.1,0.1,0.2c0,0,0,0,0,0c0.1,0,0.1,0,0.2,0c0,0-0.1,0-0.1,0c-0.1,0,0-0.1,0-0.1c0,0,0,0,0.1,0
		c0,0,0,0,0,0c0,0,0,0,0,0c0,0,0,0,0.1,0c0.1,0,0.1,0.1,0.2,0.1c0,0,0,0,0.1,0c0.1,0,0.1,0,0.2,0c0,0,0,0,0,0c0,0,0.1,0,0.1,0.1
		c0,0,0,0,0.1,0c0.4,0.1,0.7,0.2,0.8,0.5c0,0,0,0,0,0c0.1,0,0.1,0.1,0,0.1c0,0,0,0,0,0c0,0.1,0.1,0.2,0,0.3c0,0.1-0.1,0.3-0.2,0.3
		c0-0.1-0.1-0.1-0.2-0.2c-0.4-0.2-0.9-0.3-1.3-0.2c-0.1,0-0.1,0.1-0.2,0.1c-0.1,0-0.1-0.1-0.2-0.1c-0.2-0.1-0.4-0.2-0.6-0.3
		c-0.8-0.6-1.1-1.3-1.1-2.2c0-1.3,0.5-2.5,2.1-2.8c1.1-0.2,2.4,0,3.6-0.1c1.1,0,2.2-0.2,3.3-0.3c0.4-0.1,0.3-0.6-0.2-0.6
		c-1.9,0.3-3.7,0.3-5.6,0.3c-0.9,0-1.9,0.1-2.7,0.5c-0.8,0.5-1,1.2-1.2,2c-0.1,0.8-0.6,1.9-0.1,2.7c0.4,0.6,1.6,1.3,2.5,1.6
		c0.1,0,0.2,0.1,0.3,0.1c0,0,0.1,0,0.1,0c0.1,0,0.2,0.1,0.3,0.1c0,0.1,0,0.2,0,0.3c0.4,0.6-0.2,1.3-0.9,1.2c0-0.1,0-0.1,0-0.2
		c-0.1-0.3-0.4-0.6-0.6-0.8c-0.2-0.2-0.5-0.1-0.6,0.1c0-0.1-0.1-0.2-0.1-0.3c-0.3-0.3-0.6-0.8-0.8-1.1c-1-1.4-0.6-2.9-0.1-4.4
		c0.3-0.9,0.7-1.6,1.9-1.9c0.6-0.2,1.3-0.2,1.9-0.3c1.7-0.2,3.3-0.4,5-0.5c0.5,0,0.5-0.6,0-0.6c-1.5,0.1-3.1,0.2-4.6,0.4
		c-1.1,0.1-2.9,0.2-3.8,0.7c-0.6,0.4-0.8,1.2-1,1.7c-0.2,0.6-0.5,1.4-0.6,2.1c0,0,0.1,0,0.1,0.1c-0.2,0.2-0.4,0.3-0.6,0.5
		c-0.1,0.1-0.2,0.2-0.3,0.3c0,0-0.1,0-0.1,0c0,0,0.1-0.1,0.1-0.1c0,0-0.1,0.1-0.1,0.1c0,0,0,0,0,0c-0.2,0.1-0.3,0.2-0.5,0.2
		c0,0,0,0,0,0c0,0,0,0,0,0c-0.1,0-0.3,0-0.4,0c-0.1,0.1-0.3,0.1-0.4,0c0-0.7,0.5-1,0.8-1.6c0.2-0.4,0-0.9-0.4-1.2c0,0,0,0,0,0
		c0.1-0.2,0.2-0.3,0.3-0.5c0.5-0.8,1.2-1.6,1.8-2.4c1.2-1.3,1.9-2.2,4.1-2.2c1.1,0,2.2,0.1,3.3,0.1c0.1,0,0.1,0.1,0.2,0.1
		c0.6,0.1,1.2,0.1,1.7,0.2c0.3,0,0.5-0.4,0.4-0.6c-0.1-0.1-0.1-0.2-0.2-0.3c-0.1-0.1-0.2-0.2-0.3-0.2c-0.5-1.8-1-3.7-1.2-5.6
		c-0.1-0.9-0.2-1.8-0.3-2.7c0-0.7-0.4-2-0.1-2.7c0-0.2,0-0.4,0.1-0.5c0.2,0,0.3,0,0.5,0c0,0,0,0.1,0,0.1c0.2,0.5,0.4,1.1,0.5,1.6
		c0,0.3,0.4,0.4,0.6,0.2c0.1-0.1,0.2-0.1,0.3-0.2c0.2,0.8,0.5,1.5,0.7,2.3c0.4,1.6,0.8,3.2,1.5,4.7c0.6,1.4,1.5,2.6,2.5,3.9
		c1.1,1.6,1.6,3.3,2.1,5.1c0.5,1.8,0.9,3.5,1.3,5.3c0.2,1,0.4,1.9,0.5,2.9c0.1,0.3,0.3,3.3,0.5,3.4c-0.4-0.2-0.8,0.3-0.4,0.5
		c0.1,0,0.1,0.1,0.2,0.1c0.1,0,0.2,0,0.2,0c0.6,6.2,2.2,12.3,4.2,18.3c1.1,3.5,2.4,6.9,3.6,10.3c1.3,3.7,2.1,7.2,0.7,11
		C205.3,137.7,203.9,141.2,201.1,143.1z"/>
</g>
<g id="tshirt_drawing">
	<path class="st2" d="M207.9,99.4c0-2.7-0.8-5.3-2.6-7.4c-0.8-0.9-1.7-1.7-2.7-2.3c-1.4-0.8-3.4-1.1-4.6-2c-0.1-0.1-0.3-0.1-0.5-0.1
		c0,0.1,0,0.1,0,0.2c0,0,0-0.1,0-0.1c0,0,0.1,0,0.1,0v0.8c0.6,0.4,1.1,0.5,1.8,0.7c1.6,0.5,3,1.3,4.2,2.3c2.2,1.9,3.3,4.6,3.3,7.4
		c-2.6,0.9-5,2.2-6.9,4.1c-0.4,0.4,0.2,0.9,0.6,0.6c1.6-1.5,3.5-2.7,5.5-3.5c0,0.5-0.1,0.9-0.1,1.4c0,0,0,0,0,0c0,0.1,0,0.3-0.1,0.4
		c-0.1,0.4,0.5,0.8,0.8,0.3c0.4-0.8,0.8-1.5,1-2.4c0-0.1,0-0.2-0.1-0.3C207.9,99.5,207.9,99.5,207.9,99.4z"/>
	<path class="st2" d="M205.8,172.4c-1.6-2.3-2.8-4.8-3.3-7.5c-0.3-1.4-0.1-2.9-0.3-4.3c-0.3-1.4-1-2.3-0.8-3.8c0,0,0,0,0-0.1
		c-0.1,0-0.1,0-0.2,0c0,0,0,0,0,0c0,0-0.1,0.1-0.1,0c0,0-0.1-0.1-0.2-0.1c-0.1,0-0.2-0.1-0.3-0.1c-0.1,0.1-0.1,0.1-0.1,0.2
		c-0.1,1,0.1,1.8,0.4,2.6c0,0,0,0,0,0c-2.8,2-5.8,3.7-9.1,5.1c-0.5,0.2-0.1,0.9,0.4,0.7c3.2-1.4,6.1-3.1,8.9-5
		c0.1,0.3,0.2,0.7,0.3,1c0.2,1.3,0.1,2.7,0.3,4c-0.1-0.1-0.3-0.1-0.4,0c-4.4,2.6-9.1,4.8-14,6.5c-0.5,0.2-0.3,1,0.2,0.8
		c5-1.8,9.7-4,14.2-6.6c0.1,0,0.1-0.1,0.1-0.1c0.3,1.5,0.8,2.9,1.5,4.3c-1.2,0.1-2.3,0.6-3.4,0.9c-1.5,0.4-3.1,0.9-4.6,1.3
		c-0.5,0.2-0.3,0.9,0.2,0.8c1.3-0.4,2.7-0.8,4-1.2c1.2-0.4,2.7-1,4-1.1c0.1,0,0.1,0,0.2,0c0.3,0.6,0.7,1.2,1.1,1.8
		c-9,3.9-19.1,4-28.8,3.7c-10.1-0.4-20.3-0.8-30.1-3.6c0,0-0.1,0-0.1,0c-0.1-0.1-0.2-0.1-0.3-0.2c-0.6-1.1-1.1-2.5-0.4-3.7
		c0.3-0.5,0.8-0.8,1.1-1.3c0.1-0.2,0.2-0.4,0.3-0.5c1.3,1.4,2.6,3.1,4.2,4.2c1.5,1,3.3,0.6,5,0.8c0.5,0.1,0.5-0.7,0-0.8
		c-2.1-0.3-3.9,0.1-5.5-1.5c-1.2-1.2-2.3-2.4-3.4-3.5c0,0,0,0-0.1,0c0-0.1,0-0.2,0-0.4c-0.1-0.8,0.2-1.5,0.9-2.1
		c0.3-0.4,0.4-0.7,0.5-1c0,0.1,0.1,0.1,0.2,0.1c3.1,1,6.3,1.8,9.5,2.4c0.5,0.1,0.8-0.7,0.2-0.8c-3.2-0.6-6.4-1.4-9.5-2.4
		c-0.2-0.1-0.3,0-0.4,0.1c0-0.1,0-0.2,0-0.4c-0.1-1.2,0.2-1.7,0.6-2.8c0,0,0,0,0,0c0.1,0,0.1,0.1,0.2,0.1c3-0.1,5.8,0,8.5,1.4
		c1.9,1,4,1.3,6.1,2c0.5,0.2,0.8-0.6,0.2-0.8c-1.3-0.4-2.6-0.7-3.8-1c-1.3-0.3-2.3-1.1-3.5-1.5c-2.4-0.9-5-0.9-7.6-0.8c0,0,0,0,0,0
		c0-0.1,0-0.1,0-0.2c0,0,0,0,0,0c0,0,0,0-0.1-0.1c-0.1,0-0.3,0-0.4,0c-0.1,0-0.1-0.1,0-0.1c0.1,0,0.1,0,0.2,0c-0.2,0-0.3,0-0.5-0.1
		c0,0,0,0-0.1,0c0,0,0,0,0,0.1c-0.2,1.3-1,2.2-1,3.6c0.1,0.2,0.1,0.4,0.2,0.7c-0.2,0.5-0.4,1-0.6,1.5c-0.1,0.2-0.3,0.3-0.4,0.5
		c-0.2,0.5-0.2,1-0.4,1.6c-0.3,1.6-1.8,2.7-2,4.3c-0.1,0.7,0.1,1.3,0.3,2c-0.1,0.1-0.1,0.3-0.1,0.4c0.5,1.1,1.7,1.7,2.9,1.8
		c0,0,0.1,0,0.1,0c9.6,2.6,19.7,3,29.6,3.3c9.7,0.3,19.5,0,28.5-3.8c0,0,0,0,0,0c0,0,0,0,0,0c0,0,0.1,0,0.1,0c0.4,0,0.5-0.4,0.4-0.6
		C205.7,172.5,205.7,172.5,205.8,172.4z"/>
	<path class="st2" d="M174.7,136.8c-2.4-2.7-5.6-4.2-8.4-6.4c-2.9-2.4-5-5.6-6-9.1c-0.2-0.5-1-0.3-0.8,0.2c1,3.2,2.8,6.2,5.3,8.6
		c2.9,2.7,6.7,4.3,9.3,7.3C174.5,137.8,175.1,137.2,174.7,136.8z"/>
	<path class="st2" d="M168.8,138.3c-2.1-1.3-4.3-2.5-6.4-3.8c-2.3-1.3-4.6-2.7-5.3-5.3c-0.1-0.5-1-0.3-0.8,0.2
		c0.6,2.1,2.1,3.5,4,4.8c2.6,1.7,5.4,3.2,8.1,4.8C168.8,139.3,169.3,138.5,168.8,138.3z"/>
	<path class="st2" d="M179.3,86.7C179.3,86.7,179.3,86.7,179.3,86.7C179.3,86.7,179.3,86.7,179.3,86.7
		C179.4,86.7,179.4,86.7,179.3,86.7c0.1,0,0.1,0,0.1,0C179.4,86.7,179.4,86.7,179.3,86.7C179.4,86.6,179.4,86.6,179.3,86.7
		c-5.4,0.2-10.8-1-15.7-3.4c-0.2-0.1-0.4,0-0.5,0.1c-0.1-0.2-0.3-0.4-0.6-0.3c-3.5,1.8-7.1,3.5-10.9,4.5c-4,1-8.1,1.3-12,2.5
		c-3,0.9-3.9,3.5-5,6.1c-1.3,3-2.3,6.1-3,9.3c-0.3,0.3-0.5,0.7-0.6,1.3c-0.5,3.1,2.3,6.7,4.1,9c0.3,0.4,1,0.1,0.8-0.3
		c0-0.1,0.1-0.1,0.1-0.2c-0.2-1.6-0.4-3.2-0.7-4.8c-0.2-1.6-0.3-3.2-0.5-4.8c1.7,0.3,3.6,1.3,4.6,1.7c4.8,2,9.4,4.5,12.5,8.6
		c0.3,0.4,0.8,0.2,0.8-0.2c0.3,0,0.6-0.2,0.5-0.5c-0.4-2.2-0.8-4.3-1.4-6.5c0.3,0.1,0.7-0.1,0.6-0.5c-1-4-0.1-8.4-1.6-12.3
		c-1.1-2.8-3.2-4.9-5.9-6.3c-0.5-0.2-0.9,0.5-0.4,0.7c3.4,1.7,5.5,4.5,6.1,8.1c0.5,2.7,0.3,5.5,0.7,8.3c-1.6-5.4-3.8-10.7-6.7-15.7
		c-0.3-0.5-1-0.1-0.7,0.4c3.7,6.6,6.4,13.6,7.9,20.8c-2.2-6-7.4-10.9-11.8-15.6c-0.4-0.4-1,0.2-0.6,0.6c4.7,5,10.2,10.2,12.1,16.8
		c-4-4.5-10-7.1-15.7-9.1c-1.1-0.4-2.2-0.5-3.2-0.2c0.6-2.6,1.4-5.2,2.5-7.7c0.7-1.6,1.7-4.7,3.4-5.7c1.4-0.8,3.5-1.1,5-1.5
		c3.5-0.8,7.1-1,10.5-2.2c3.1-1,6.1-2.5,9-3.9c0,0,0,0,0,0c0,0.1,0.1,0.2,0.2,0.2c5,2.5,10.5,3.7,16.2,3.5c0.1,0,0.2,0,0.2-0.1
		C179.5,87.2,179.4,86.9,179.3,86.7z"/>
</g>
</svg>
