<?xml version="1.0" encoding="utf-8"?>
<!-- Generator: Adobe Illustrator 21.1.0, SVG Export Plug-In . SVG Version: 6.00 Build 0)  -->
<svg version="1.1" xmlns="http://www.w3.org/2000/svg" xmlns:xlink="http://www.w3.org/1999/xlink" x="0px" y="0px"
	 viewBox="0 0 342 390" style="enable-background:new 0 0 342 390;" xml:space="preserve">
<style type="text/css">
	.st0{fill:#292A2B;}
	.st1{fill:#CACBCC;}
	.st2{fill:#98999B;}
	.st3{fill:#213F82;}
	.st4{fill:#102773;}
	.st5{fill:#E09B6C;}
	.st6{fill:#D17C65;}
	.st7{fill:#0A0603;}
	.st8{fill:#CC7E48;}
	.st9{fill:#D36B4A;}
	.st10{fill:#FFFFFF;}
	.st11{fill:#497A70;}
	.st12{fill:#B03B39;}
	.st13{fill:#875F44;}
	.st14{fill:#E2894D;}
	.st15{fill:#036857;}
	.st16{fill:#1C3372;}
</style>
<g id="socks">
	<path class="st0" d="M130.2,341.9c-0.2-0.2-0.5-0.4-0.7-0.3c-0.3-0.5-1.3-0.4-1.3,0.3c0,0.3,0,0.6,0,1c-0.1,0-0.2,0.1-0.4,0.2
		c-0.2-0.3-0.7-0.5-1.1-0.2c0,0.1-0.1,0.1-0.1,0.2c-0.1-0.6-0.8-0.8-1.2-0.4c-0.2,0-0.4,0.1-0.5,0.2c-0.3-0.4-1-0.3-1.2,0.1
		c-0.2-0.3-0.6-0.5-0.9-0.3c-0.2-0.2-0.6-0.3-0.9-0.1c-0.2-0.2-0.5-0.3-0.8-0.3c0.2-0.7-0.8-1.1-1.2-0.5c-0.2-0.1-0.4-0.1-0.6,0
		c-0.1-0.2-0.3-0.4-0.6-0.5c0.1-0.1,0.1-0.3,0.2-0.4c0.5-0.8-0.7-1.4-1.2-0.7c-0.2,0.4-0.5,0.8-0.7,1.2c-0.7,0.8-1.3,1.6-1.8,2.6
		c-0.2,0.3-0.1,0.6,0.2,0.8c-0.2,0.5-0.4,1-0.5,1.5c-0.3,0.8,0.8,1.1,1.2,0.6c0.1,0.2,0.4,0.3,0.6,0.3c0,0,0,0.1,0,0.1
		c-0.1,0.1,0,0.3,0,0.4c-0.1,0.3,0,0.7,0.5,0.7c1.8,0.2,3.2,1.4,4.7,2.2c0.1,0.1,0.2,0.1,0.3,0.2c0.8,0.4,1.6,0.6,2.6,0.6
		c1.6-0.1,2.9-0.8,3.7-1.9c0,0,0,0,0,0c0,0.9,1.4,0.9,1.4,0c0-0.8-0.1-1.6-0.1-2.4c0.4,0.3,1.1,0.1,1.1-0.5c0.1-1.4,0.2-2.8,0.3-4.1
		C131.3,341.8,130.6,341.6,130.2,341.9z"/>
	<path class="st0" d="M194.4,345.4c0-0.1,0-0.2,0-0.4c0-0.8-0.2-2,0-2.9c0,0,0,0,0.1-0.1l0-0.1c0.2-0.3,0.1-0.7-0.2-0.9
		c0,0-0.1,0-0.1,0c-0.4-0.3-0.8,0-1,0.4c0,0,0,0,0,0c-0.2,0-0.4,0.1-0.5,0.3c-0.3-0.4-0.9-0.4-1.1,0c-0.2-0.1-0.4-0.1-0.6-0.1
		c-0.3-0.3-0.9-0.3-1.1,0.2c-0.3-0.7-1.5-0.3-1.3,0.5c0.2,0.7,0.4,1.3,0.6,2c0.1,0.4,0.6,0.6,0.9,0.4c0.1,0.4,0.2,0.7,0.3,1.1
		c0.2,0.4,0.5,0.5,0.9,0.4c0,0.1,0,0.2,0.1,0.3c0.1,0.5,0.6,0.6,1,0.4c0,0.1,0,0.2,0.1,0.2c0.1,0.4,0.5,0.5,0.8,0.5
		c0,0.2,0,0.4,0,0.6c0,0.4,0.3,0.6,0.6,0.6c0.4,0.5,1.3,0.4,1.2-0.3C194.7,347.5,194.6,346.5,194.4,345.4z"/>
	<path class="st0" d="M181.7,342.3c0-0.9-1.4-0.9-1.4,0c0,0.8,0,1.6,0.1,2.5c0,0.9,1.4,0.9,1.4,0
		C181.8,343.9,181.8,343.1,181.7,342.3z"/>
</g>
<g id="shoes_colour">
	<path class="st1" d="M134.3,362.4c0.1-0.2,0.1-0.4,0-0.6c-0.3-0.5-0.5-0.9-0.8-1.4c-0.3-0.7-0.6-1.4-1-1.9
		c-0.1-0.2-0.3-0.3-0.5-0.3c0,0-0.1,0-0.1,0c0,0-0.1,0-0.1,0c0,0-0.1,0-0.1,0c-0.4-0.5-0.9-0.8-1.4-0.9c0,0,0-0.1,0-0.1c0,0,0,0,0,0
		c0.3,0.5,1.1,0.3,1.2-0.4c0.3-2.1,0.3-4.2,0.1-6.3c0-0.3,0-0.6,0-0.9c0-0.2-0.1-0.3-0.2-0.5c0-0.1,0.1-0.1,0.1-0.2
		c0-0.4,0-0.8,0.1-1.2c0-0.8-1.2-1-1.4-0.2c0,0.1,0,0.2,0,0.3c-0.2,0-0.5,0.2-0.5,0.5c-0.1,0.8-0.2,1.6-0.2,2.3
		c-0.1-0.1-0.3-0.1-0.4,0c-2.4,1-4.7,1.9-7.2,1.2c-0.7-0.5-1.5-1.1-2.4-1.6c-0.6-0.3-1.2-0.4-1.8-0.5c-0.1,0-0.3-0.1-0.4-0.1
		c-1.4-0.3-2.7,0-3.8,0.7c0.5-0.5,1-1,1.5-1.6c0.2,0,0.5-0.2,0.5-0.4c0.4,0.1,0.9-0.1,0.9-0.6c-0.1-0.7-0.2-1.3-0.3-1.9
		c-0.1-0.3-0.4-0.5-0.6-0.5c0,0,0,0,0,0c-0.2-0.4-0.5-0.4-0.8-0.3c-0.2-0.2-0.6-0.2-0.8-0.1c0,0,0,0,0,0c-0.1-0.4-0.5-0.6-1-0.4
		c0,0-0.1,0-0.1,0.1c-0.2-0.2-0.6-0.3-1,0c-0.5,0.4-1,0.9-1.4,1.4c0,0,0,0,0,0c-0.1,0.1-0.2,0.2-0.4,0.4c-0.4,0.4-0.2,0.9,0.2,1.1
		c-1.5,1.5-2.7,3-3.7,4.8c-0.3,0.3-0.7,0.6-1,0.8c-0.2-0.1-0.4-0.2-0.7,0l-2.8,1.9c-0.2-0.1-0.4-0.2-0.7,0c-1.8,1-3.5,2.2-5.1,3.4
		c-0.6,0.4-0.2,1.3,0.3,1.3c-0.7,0.1-1.3,0.4-1.9,0.9c-0.2-0.2-0.4-0.4-0.8-0.3c-0.4,0.1-0.7,0.3-0.9,0.4c0,0-0.1,0-0.1,0.1
		c0,0,0,0,0,0c-0.9,0.7-1.5,1.7-1.7,2.9c0,0.2-0.1,0.3-0.1,0.5c0,0.2,0,0.3,0,0.5c-0.1,0.1-0.2,0.1-0.2,0.2
		c-0.1,0.1-0.1,0.1-0.2,0.2c-1.3,1.3-1.4,3.6,0,4.9c0.7,0.6,1.5,0.9,2.3,1c0.2,0.2,0.4,0.4,0.6,0.5c0.2,0.1,0.4,0.1,0.5,0.1
		c0.3,0.1,0.7,0.1,1.1,0.1c0.4,0,0.8,0,1.2-0.1c0,0,0.1,0,0.1,0c2.6,0.2,5.1,0.1,7.7-0.1c0.1,0.3,0.3,0.5,0.6,0.5c0.1,0,0.1,0,0.2,0
		c0,0,0,0,0,0c0,0,0.1,0,0.1,0c2.3-0.3,4.5-0.8,6.6-1.5c2-0.4,3.9-0.9,5.8-1.6c1.8,0.7,3.6,0.4,5.7,0.3c1.3-0.1,2.8-0.1,4.2-0.3
		c0.6,0.6,1.4,0.9,2.3,0.9h0.2c1.2,0,2.4-0.8,3-1.9c0.9-0.6,1.3-1.5,1.5-2.6c0.2-0.6,0.4-1.3,0.4-2.1
		C134.7,362.7,134.5,362.5,134.3,362.4z"/>
	<path class="st1" d="M195.1,361.5c-0.2-0.2-0.4-0.2-0.6-0.1c0-0.6,0-1.2,0-1.8c0-0.2,0-0.5,0-0.7c0-0.4,0-0.7,0-1.1
		c0.5-2,0.7-4.1,0.6-6.2c0-0.1,0-0.1,0-0.2c0.2-0.2,0.2-0.6-0.1-0.9c-0.1-0.1-0.1-0.1-0.2-0.2c-0.1-0.1-0.1-0.3-0.2-0.4
		c0-0.3-0.2-0.5-0.4-0.6c-0.4-0.4-0.8-0.7-1.3-0.9c-1-1-2-2-3-2.9c0,0-0.1-0.1-0.1-0.1c-0.1-0.1-0.2-0.2-0.2-0.2
		c-0.2-0.1-0.3-0.2-0.5-0.2c-0.3-1.1-0.7-2.1-1.1-3.2c-0.2-0.4-0.8-0.4-1.1-0.1c-0.2,0.3-0.3,0.5-0.3,0.7c0,0,0,0-0.1,0
		c-1.1,0.1-2.3,0.2-3.4,0.3c-0.4,0-0.7,0.4-0.7,0.8c-0.7,0.1-0.8,1-0.3,1.3c0,0.1,0,0.1,0,0.2c-0.3,0.4-0.5,0.8-0.4,1.4
		c0,0.4,0.3,0.6,0.6,0.6c0,0,0,0.1,0,0.1c-0.2,0.2-0.4,0.5-0.6,0.8c-0.7,1.6-1.4,3.3-2,5c-0.1,0-0.2,0-0.3,0.1
		c-0.4,0.2-0.5,0.4-0.7,0.8c0,0.1,0,0.2,0,0.3c-0.8,1.6-1.4,3.3-1.6,5c-0.4,1.6-0.7,3.5-0.4,4.6c-0.9,2.2,0.5,4.3,2.4,5.5
		c0.4,0.5,1,0.8,1.6,0.8c0.2,0,0.3,0.1,0.5,0.1c0.1,0,0.2,0,0.3,0c1.7,0.5,3.6,0.7,5.3,0.6c1.7-0.1,3.6-0.4,5.2-1.2
		c0.2,0.2,0.5,0.4,0.8,0.2c0.6-0.4,1-0.9,1.4-1.4C196.7,366.7,197.5,363.4,195.1,361.5z M187.4,346.4c0.3-0.1,0.6-0.1,0.8-0.2
		c0.2,0,0.3-0.1,0.4-0.2c0.1,0.2,0.2,0.3,0.4,0.4c0,0,0.1,0.1,0.1,0.1c-0.2,0.1-0.3,0.3-0.4,0.5c-0.5-0.1-1-0.1-1.5,0
		c-0.1-0.1-0.1-0.2-0.2-0.2C187.2,346.7,187.3,346.6,187.4,346.4z"/>
</g>
<g id="shoes">
	<path class="st2" d="M132.8,356.3c0.3-2.6,0.4-5.3,0.1-7.9c-0.1-0.9-0.1-2.6-1.2-3.1c-0.5-0.2-1.1-0.1-1.5,0.2
		c-1.7,1.1-1.2,3.8-3.3,5.1c-4,2.4-6.3-2-9.7-2.7c0,0,0-0.1,0-0.1c0-0.1,0-0.2,0-0.3c0-2.9-1.9-6.4-5.3-4.8
		c-1.3,0.6-1.9,2.2-2.5,3.6c0,0-0.1,0-0.1,0c-0.2-0.1-0.4,0-0.6,0.2c-4.4,4.8-9.5,8.9-15.1,12.3c-0.1,0-0.1,0.1-0.2,0.1
		c-0.4,0.2-0.9,0.3-1.3,0.6c-0.2,0.1-0.3,0.2-0.5,0.4c-0.1,0-0.1,0-0.2,0c-1.3,1.3-2.2,2.7-1.9,4c-0.6-0.1-1.1,0.6-0.6,1.1
		c-1.1,5,1.5,6.6,6.4,7.4c6.7,1,13.6,0.4,20-1.7c2.1-0.7,3.5-1.1,5.8-1c2,0.1,3.9,0.3,6,0.2c2.5-0.2,5.7-0.3,7.8-1.9
		C139.4,364.9,133.9,359.9,132.8,356.3z M110.7,347.2c0.2-0.4,0.6-2.1,0.9-2.4c1.2,0.1,2.5,0.2,3.7,0.2c0.4,0.9,0.6,1.8,0.4,2.7
		c0,0,0,0,0,0l0,0c0,0-0.1,0-0.1,0c-0.6,0.1-1.1,0.3-1.6,0.6c-0.6-0.3-1.2-0.6-1.9-0.7c-0.5-0.1-1-0.2-1.6-0.3
		C110.7,347.3,110.7,347.3,110.7,347.2z M109.8,348.8c0.8-0.1,1.8,0.2,2.4,0.4c0.2,0.1,0.4,0.1,0.6,0.2c-0.3,0.3-0.7,0.6-1,0.9
		c-0.5-0.3-1-0.5-1.5-0.6c-0.3-0.1-0.7-0.1-1.1-0.2C109.5,349.3,109.7,349,109.8,348.8z M108.4,350.8c0,0,0.1,0,0.1,0
		c0.6,0,1.2,0.1,1.8,0.3c0.2,0.1,0.4,0.2,0.6,0.2c-0.4,0.4-0.8,0.8-1.2,1.2c-0.6-0.4-1.3-0.6-2-0.9
		C107.9,351.4,108.1,351.1,108.4,350.8z M106.6,352.9c0.7,0.2,1.4,0.4,2.1,0.7c-0.4,0.4-0.7,0.7-1.1,1.1c-0.6-0.4-1.2-0.7-1.9-0.9
		C106,353.5,106.3,353.2,106.6,352.9z M104.5,354.9c0.7,0.1,1.4,0.3,2.1,0.7c-0.5,0.5-1.1,1.1-1.6,1.6c-1-0.2-1.9-0.3-2.9-0.4
		c0.1-0.1,0.1-0.1,0.2-0.2c0.2,0.1,0.4,0,0.6-0.2C103.4,356,104,355.5,104.5,354.9z M91.5,362.2c0.2-0.3,0.6-0.7,0.9-1.1
		c0.2-0.2,0.5-0.3,0.8-0.4c0.3,0.4,1.1,0.5,1.2-0.2c0-0.1,0-0.1,0.1-0.2c1.4-0.3,3-0.2,4-0.1c0.3,0,0.6-0.1,0.7-0.3
		c0.5,0.1,0.9,0.1,1,0.2c1.9,0.5,3.4,1.4,4.8,2.7c0.6,0.6,1.6-0.4,1-1c-2-1.9-4.5-3.1-7.3-3.4c-0.4,0-0.9-0.1-1.4-0.1
		c-0.1,0.2-0.3,0.3-0.5,0.2c0,0-0.1,0-0.1,0c1.5-1,3-2,4.4-3.1c0.2,0,0.4-0.2,0.5-0.4c0.1-0.1,0.2-0.1,0.3-0.2c0.3,0,0.5,0,0.8,0
		c-0.1,0.1-0.3,0.2-0.4,0.4c-0.2,0-0.4,0-0.6,0.1c-0.6,0.5-1.2,1-1.7,1.5c-0.5,0.4-0.1,1.1,0.5,1.2c1.3,0.1,2.5,0.3,3.8,0.5
		c0.1,0.4,0.7,0.7,1.1,0.3c0.6-0.6,1.3-1.4,2.1-2.4c0.1,0.2,0.3,0.3,0.4,0.5c0.5,0.7,1.7,0,1.2-0.7c-0.2-0.3-0.5-0.6-0.7-0.8
		c0.4-0.4,0.8-0.9,1.2-1.3c0.4,0.3,0.9,0.6,1.3,1c0.6,0.6,1.6-0.4,1-1c-0.4-0.4-0.8-0.7-1.3-1c0.4-0.4,0.9-0.8,1.3-1.2
		c0.4,0.3,0.7,0.7,0.9,1.3c0.4,0.8,1.5,0.1,1.2-0.7c-0.2-0.6-0.6-1-1-1.4c0.5-0.3,0.9-0.6,1.4-0.9c0.3,0.3,0.6,0.6,0.9,1
		c0.5,0.7,1.7,0.1,1.2-0.7c-0.2-0.3-0.4-0.6-0.7-0.8c0.9-0.2,1.8-0.2,2.6,0.2c2.3,1.2,3.7,3,6.6,2.7c2.2-0.3,4.2-1.7,5.1-3.7
		c0.1-0.2,0.5-1.7,0.5-1.7c0.9-0.1,1,2.6,1,2.9c0.1,1.9,0,3.8-0.2,5.7c-0.1,0.1-0.1,0.3-0.1,0.5c-0.7,1.5-4.4,0.7-5.6,0.8
		c-1.4,0.1-2.8,0.5-4.1,0.9c-3,1-5.7,2.7-8.5,4.2c-3.4,1.9-7,3.7-11,3.9c-1.8,0.1-3.6-0.2-5.3-0.4c-1.7-0.2-3.8-0.1-5.5-0.9
		c0.2-0.1,0.3-0.4,0.2-0.7C91.3,363.5,91.3,362.8,91.5,362.2z M134.4,365.3c-0.6,2.3-0.8,2.3-2.9,2.8c-2.9,0.8-6.1,0.8-9.1,0.6
		c-1.9-0.2-3.5-0.5-5.3,0.1c-4.6,1.4-8.9,2.7-13.7,2.9c-4.5,0.2-13.6,0.5-13.1-5.5c2.2,1.3,5.3,1.1,7.8,1.4c4.4,0.5,8.2-0.1,12.2-2
		c4.5-2.1,8.6-5.2,13.4-6.4c2.3-0.6,4.8,0.2,7-0.4c0.6-0.1,1-0.4,1.3-0.7c0.5,1,1.1,1.9,1.7,2.8C134.8,362.6,135,363.1,134.4,365.3z
		"/>
	<path class="st2" d="M189,359.2c-1.8,1.3-3.9,1.4-6,0.9c-1.3-0.3-2.6-1.2-3.9-0.8c-0.8,0.3-0.5,1.6,0.4,1.3
		c0.8-0.2,2.1,0.5,2.9,0.7c0.9,0.2,1.9,0.4,2.8,0.4c1.6,0,3.2-0.4,4.5-1.4C190.4,359.9,189.7,358.7,189,359.2z"/>
	<path class="st2" d="M196.1,359.6c0.1-3.4,0.4-7.8-0.9-10.8c-0.4-0.9-0.9-1.1-1.6-1.8c-0.8-0.8-1.9-2.7-3-3.2
		c-0.2-0.1-0.3-0.1-0.4-0.1c0.1-2.9-3.3-2.9-5.6-3.1c-2-0.1-4.5,1.3-3.3,3.6c-2.5,0.3-2,4.9-2.4,6.7c-1,3.9-3.9,6.9-3.2,11.1
		c-0.3,0.1-0.5,0.3-0.5,0.6c0,2.8,0.3,6,2.8,7.6c2.7,1.8,7.4,1.1,10.4,0.6c2.6-0.3,5.6-0.9,7.2-3.1
		C197.5,365.5,196.8,362.3,196.1,359.6z M186.2,342.3c1.1,0.2,2.7,0.1,2.6,1.6c-0.8,0.4-1.2,1.5-1.5,2.8c-1.6-0.5-3.5-0.3-5,0.3
		c0-0.7,0-1.3,0-2c0-0.1,0-0.2-0.1-0.3c0.3-0.2,0.6-0.5,0.4-1C181.4,341.6,185.6,342.2,186.2,342.3z M182.5,354.4
		c1.4-0.2,3-0.3,4.4,0c0,0,0,0.1,0,0.1c0,0.1-0.1,0.2-0.1,0.3v0.8c-1.4-0.3-2.8-0.4-4.2-0.2c0,0,0,0,0,0
		C182.6,355.2,182.6,354.8,182.5,354.4z M186.9,352.5c0,0.2,0,0.4,0,0.6c-1.4-0.3-3-0.2-4.5,0c0-0.1,0-0.1,0-0.2
		C183.9,352.4,185.5,352.1,186.9,352.5z M182.4,351.5c0-0.3,0-0.5,0-0.8c1.4-0.5,3.1-0.6,4.6-0.2c0,0.2,0,0.4,0,0.6
		C185.5,350.9,183.9,351.1,182.4,351.5z M182.3,349.3c0-0.3,0-0.6,0-0.8c1.4-0.7,3.3-0.9,4.8-0.4c0,0.3-0.1,0.7-0.1,1
		C185.5,348.7,183.8,348.8,182.3,349.3z M179.4,354c0,0,0.1,0,0.1,0c0,0.4,0.3,0.9,0.9,0.8c0.3-0.1,0.6-0.1,0.9-0.2
		c0,0.3,0,0.6,0.1,0.9c0,0.1,0,0.2,0.1,0.3c-0.9,0.2-1.7,0.5-2.6,0.9c-0.3,0.2-0.4,0.6-0.2,0.9c0,0.1,0.1,0.2,0.1,0.2
		c0.1,0.2,0.4,0.4,0.6,0.3c0.1,0,0.2,0,0.3,0c0.4,0,0.6-0.3,0.6-0.6c2.7-1.1,5.6-1,8.3,0.1c0.8,0.3,1.2-1,0.4-1.3
		c-0.2-0.1-0.4-0.1-0.6-0.2c0,0,0,0,0,0v-0.6c0.1-0.1,0.1-0.2,0.1-0.3c0-0.1,0-0.1,0-0.2c0.3,0.2,0.5,0.3,0.7,0.5
		c0.6,0.6,1.6-0.4,1-1c0,0,0,0,0,0c0.4-0.1,0.8-0.5,0.5-1c-0.6-1-1.4-1.6-2.2-2c0-0.1,0-0.2,0-0.4c0.2,0.2,0.4,0.3,0.6,0.6
		c0.5,0.7,1.7,0,1.2-0.7c-0.5-0.6-1.1-1.1-1.7-1.5c0-0.1,0-0.2,0-0.4c0-0.2,0-0.4,0-0.5c0.4,0.3,0.8,0.7,1.1,1.2
		c0.4,0.8,1.6,0.1,1.2-0.7c-0.5-0.9-1.2-1.5-2.1-2c0,0,0,0,0,0c0.6-0.6,1.2-1.1,1.8-1.7c-0.1,0,1.5,1.9,1.7,2.2
		c0.5,0.5,1,0.8,1.4,1.4c0.9,1.2,0.8,2.6,1,4.1c0.2,2,0.2,3.9,0.2,5.9c-0.1,0.1-0.1,0.3-0.1,0.5c0,0.1,0,0.3,0.1,0.4
		c0,0.2,0,0.4,0,0.5c0,0.1,0,0.2,0.1,0.3c-0.2,3.8-7.6,3.2-9.8,3.1c-2.9-0.1-5.3,0.9-8-1.1c-0.1-0.1-0.2-0.1-0.2-0.1
		c0.2-0.2,0.3-0.4,0.2-0.7C176.5,358.9,178.2,356.6,179.4,354z M194.1,367.6c-1.6,1.6-4.7,2-6.8,2.2c-1.8,0.2-3.6,0.3-5.4,0.1
		c-4-0.4-5.1-2.6-5.3-5.8c1.6,1.1,3.3,1.5,5.3,1.4c1.9-0.2,2.8-0.1,4.6,0c0.9,0.1,1.7,0.1,2.6,0c2.1-0.2,4.9-1.2,6.2-3
		C195.6,364.4,195.5,366.2,194.1,367.6z"/>
</g>
<g id="trousers_colour">
	<path class="st3" d="M162.7,250.8c-1.8-1.6-5-1.6-5.5,1.4c-0.1,0.8-0.3,1.5-0.4,2.3c-1.3-2.2-4.9-2.8-6-0.3c-1-0.6-2.4-0.8-3.4-0.3
		c-0.7-1-1.9-1.4-3-1.3c-1-1.2-2.8-1.5-4.2-0.9c-1-4-7.3-2.2-6.6,2.1c2.5,14.2-3.4,27.2-6.7,40.7c-1.8,7.3-3.1,14.8-4.1,22.3
		c-1.6,6.6-3.2,13.2-4.7,19.8c-2.2,1.7-1.5,6.2,2.1,6.2c0.1,0,0.1,0,0.2,0c0.1,0,0.2,0,0.3,0c0.8,0,1.4-0.2,1.9-0.6
		c2.2,0.3,4.4,0.6,6.5,0.8c0,0,0,0,0,0c3,1.6,6.1,1.3,9.3,1.8c0.6,0.6,1.5,1,2.4,1h0.2c1.8,0,3.5-1.6,3.4-3.4c0-0.3-0.1-0.5-0.1-0.8
		c0.2-0.3,0.4-0.7,0.5-1.1c6.7-28.6,13-57.3,21.7-85.4C167.3,252.3,164.9,250.6,162.7,250.8z"/>
	<path class="st3" d="M204.8,256.1c-0.1-3.3-4-4.1-5.9-2.5c-1.1-0.9-2.9-1.1-4-0.3c-0.1,0.1-0.2,0.1-0.3,0.2
		c-0.3,0.2-0.6,0.5-0.8,0.8c-0.4-3.2-4.2-4-6-2.4c-1.4-1.2-3.9-0.6-5,1.1c0-0.1,0-0.2,0-0.3c-0.8-4.4-7.5-2.5-6.6,1.8
		c2.5,13.3,2.1,26.9,1.9,40.3c-0.1,13.7-0.9,27.3-1.8,40.9c-1,1.5-1,3.7,1,4.9c2.8,1.6,5.8,1.4,8.9,1.2c3.7-0.2,7.4-0.6,11-1.5
		c1.8-0.5,2.5-1.9,2.4-3.4c0.5-0.5,0.9-1.3,0.9-2.2C202.4,308.8,205.8,282.1,204.8,256.1z"/>
</g>
<g id="trousers">
	<path class="st4" d="M166.6,251.6c-8.6,29.7-16,59.7-23.5,89.7c-0.1-0.1-0.2-0.1-0.3-0.1c-0.3,0-0.6-0.1-0.9-0.1
		c3-13.7,6.8-27.2,10.5-40.8c1.9-7.2,3.9-14.5,5.8-21.7c2-7.4,3.4-15.4,6.7-22.3c0.4-0.8-0.8-1.5-1.2-0.7c-3,6.3-4.4,13.3-6.2,20
		c-2.1,7.7-4.1,15.3-6.2,23c-3.8,14-7.8,28-10.9,42.3c-7.6-1-15.1-2.1-22.6-3.4c3.5-13.9,6.3-28,9-42.1c0.7-3.8,1.8-7.5,2.9-11.1
		c0.3,0.2,0.6,0,0.8-0.2v0c0.2-0.2,3.8,1.3,4.2,1.5c1.7,0.6,3.4,1.3,5.1,1.8c2.5,0.7,4.9,0.8,7.4,0.2c0.9-0.2,0.5-1.5-0.4-1.3
		c-4.2,1.1-7.9-0.6-11.8-2c-1.1-0.4-3.5-1.7-4.9-1.4c1-3.2,1.9-6.3,2.8-9.5c1.7-6.6,2.1-13.4,1.1-20.2c-0.1-0.9-1.5-0.5-1.3,0.4
		c2.1,15.4-4.9,29.4-7.7,44.2c-2.7,14.6-5.8,29.1-9.5,43.4c-0.1,0.3,0.1,0.8,0.5,0.8c8.8,1.5,17.7,2.9,26.5,4.4
		c0.4,0.1,0.8-0.1,0.8-0.5c7.8-31.4,15.5-62.8,24.5-93.9C168.2,251.2,166.9,250.8,166.6,251.6z M117.6,338.9
		c7.5,1.3,15.1,2.4,22.7,3.4c-0.1,0.7-0.3,1.3-0.4,2c0,0.1,0,0.2,0,0.2c-7.6-1.3-15.1-2.5-22.7-3.8
		C117.3,340.1,117.5,339.5,117.6,338.9z M142.3,344.9l-1.1-0.2c0,0,0,0,0-0.1c0.2-0.7,0.3-1.5,0.5-2.2c0.4,0.1,0.8,0.1,1.2,0.2
		c0,0,0,0,0,0C142.7,343.4,142.5,344.2,142.3,344.9z"/>
	<path class="st4" d="M163.9,251.3c-6,3.8-11.6,8.3-16.7,13.2c-0.6,0.6,0.3,1.6,1,1c5-4.9,10.5-9.2,16.4-13
		C165.3,252,164.6,250.8,163.9,251.3z"/>
	<path class="st4" d="M204.3,253.7c-0.7,14.3-1.4,28.5-2.1,42.8c-0.6,13.2-1,26.5-2.8,39.6c-0.1,0-0.2,0-0.3,0
		c-6.6,1.6-16.7,3.7-22.8-0.3c0,0-0.1,0-0.1,0c1.8-12.3,2.1-25.2,2.5-37.6c0.5-13.7,0.3-27.4-1.4-41c0,0,0,0,0,0
		c0-0.3-0.1-0.7-0.1-1c-0.1-0.9-1.5-0.9-1.4,0c1.7,13.5,2,27.1,1.6,40.8c-0.2,6.7-0.6,13.4-1.1,20.1c-0.5,7.2-0.7,14.5-1.9,21.6
		c0,0.1,0,0.2,0,0.3c0,0.2,0,0.3,0.1,0.5c2.2,3.2,5.8,3.6,9.5,3.5c5.2-0.1,10.4-0.4,15.4-2.2c0.2-0.1,0.4-0.3,0.4-0.5
		c0.3,0,0.5-0.1,0.6-0.5c2.1-13.8,2.5-27.9,3.2-41.8c0.7-14.7,1.4-29.4,2.1-44.1C205.7,252.8,204.3,252.8,204.3,253.7z M199,339.3
		c-3.6,1.3-7.4,1.8-11.2,2c-4,0.2-9.3,1.1-12-2.6c0.1-0.5,0.1-1,0.2-1.5c6.4,3.9,16.4,1.9,23.3,0.3C199.2,338,199.1,338.6,199,339.3
		L199,339.3C199,339.3,199,339.3,199,339.3z"/>
	<path class="st4" d="M193.9,293c-2.6-0.3-5.1-0.4-7.7-0.2c-0.9,0.1-0.9,1.5,0,1.4c2.5-0.2,4.9-0.2,7.4,0.2
		C194.4,294.4,194.8,293.1,193.9,293z"/>
	<path class="st4" d="M189.3,255.1c-0.2-0.9-1.5-0.5-1.3,0.4c0.7,3.4,1.1,6.9,1.4,10.3c0.1,0.9,1.5,0.9,1.4,0
		C190.4,262.2,189.9,258.6,189.3,255.1z"/>
</g>
<g id="face_collour">
	<path class="st5" d="M185.3,45.9c-1.5-5.5-1.5-12-6.2-16c-4.1-3.4-9.3-3.4-13.9-1.3c-0.5,0.2-0.8,0.5-1,0.8
		c-7.4,5.1-7.7,18.6-8.2,26.7c-0.4,5.1,0.6,12.2,5.1,15.5c3.9,2.8,9.8,2.8,14.4,1.9C189.2,70.7,188.2,56.5,185.3,45.9z"/>
	<path class="st6" d="M175.1,63.2c-1.4,0.3-2.8,0.4-4.2,0.4c0.1,0,0.2,0,0.3-0.1c0.2-0.2,0.5-0.3,0.8-0.4c0.7,0,1.3,0.1,2,0.2
		c0.6,0.1,0.9-0.8,0.3-0.9c-0.1,0-0.1,0-0.2,0c-0.3-0.6-0.8-0.5-1.4-0.4c-0.3,0-0.6,0.1-0.9,0.2c-0.5,0-1.1,0-1.6,0
		c-0.8,0.1-1.8,0-2.3,0.8c-0.1,0.2-0.1,0.4,0,0.5c0,0,0,0,0,0c0,0,0,0,0,0c-0.6-0.2-1,0.5-0.5,0.8c2.6,1.6,5.7,1.5,8.2-0.2
		C175.9,63.8,175.6,63.1,175.1,63.2z M170.4,63c0,0.3,0.2,0.5,0.4,0.6c-0.7,0-1.5-0.1-2.2-0.2C168.9,63.1,169.7,63,170.4,63z"/>
</g>
<g id="face_hair">
	<path class="st7" d="M167.9,42c-0.6-1.2-3.5-0.8-4.6-0.8c-2.2,0-4.1,0.6-5.8,1.8c-0.1,0-0.3,0.1-0.4,0.1c-0.5,0.1-0.5,0.7-0.1,0.9
		c0.2,0.2,0.5,0.3,0.8,0.1c0.1-0.1,0.2-0.1,0.2-0.2c1.3-0.3,2.4-0.7,3.8-0.7c1.4,0,2.7,0.2,4.1,0.2C166.8,43.3,168.5,43.2,167.9,42z
		"/>
	<path class="st7" d="M175.2,43.3c1.4,0,2.8-0.2,4.2-0.2c1.5,0,2.6,0.4,3.9,0.7c0.1,0.1,0.2,0.1,0.2,0.2c0.3,0.2,0.7,0.1,0.9-0.1
		c0.4-0.2,0.5-0.8-0.1-0.9c-0.2,0-0.3-0.1-0.5-0.1c-1.7-1.2-3.6-1.7-5.9-1.8c-1.1,0-4.1-0.4-4.7,0.8
		C172.5,43.2,174.3,43.3,175.2,43.3z"/>
</g>
<g id="fa_e_drawing">
	<path class="st8" d="M174.7,56.2c-0.3-0.5-0.9,0-0.7,0.5c0.3,0.5-0.1,1.1-0.4,1.1c0-0.1-0.1-0.3-0.2-0.4c-0.4-0.3-0.7-0.6-1.2-0.5
		c-0.7,0.2-0.8,0.8-1.8,0.4c-0.7-0.3-1.3-0.7-1.9,0c-0.1,0.1-0.1,0.3-0.1,0.4c-0.3-0.2-0.5-0.6-0.3-1.1c0.2-0.6-0.6-0.8-0.7-0.3
		c-0.3,0.8,0,1.8,0.7,2.2c0.6,0.4,1.4,0,1.8-0.7c0.5,0.2,1.1,0.6,1.4,0.6c0.5,0,0.8-0.5,1.2-0.6c0,0.1,0,0.2,0.1,0.3
		c0.5,0.6,1.3,0.7,1.8,0.2C174.9,57.9,175,56.9,174.7,56.2z"/>
	<path class="st8" d="M173.1,54.4c-1.1-0.9-2.7-1.1-3.9-0.2c-0.5,0.4,0,1.2,0.5,0.8c0.8-0.6,1.9-0.6,2.7,0
		C172.9,55.5,173.6,54.8,173.1,54.4z"/>
	<ellipse class="st8" cx="177.7" cy="47" rx="4.7" ry="3"/>
	<path class="st9" d="M177.2,63c-2-0.3-4.2-3.3-6.2-1.5c-1.9-1.1-4.2,1-6,1.9c-0.3,0.2-0.3,0.6,0,0.8c0.1,0.2,0.3,0.3,0.5,0.2
		c0.3-0.1,0.5-0.1,0.8-0.2c0,0.1,0,0.2,0.1,0.3c1.7,1.7,3.4,2,5.8,1.8c1.8-0.2,3.3-0.8,4.3-2.3c0,0,0,0,0,0c0.2,0,0.3,0,0.5,0
		C177.6,64,177.8,63.1,177.2,63z M170.7,62.4c0.2,0.2,0.5,0.2,0.7,0c0.7-0.8,2-0.3,3.1,0.3c-2.3-0.1-4.5-0.2-6.8,0.2
		C168.9,62.3,170.1,61.9,170.7,62.4z M171.7,65.3c-1.7,0.1-3-0.2-4.3-1.4c2.7-0.5,5.4-0.4,8.1-0.2C174.5,64.9,173.1,65.3,171.7,65.3
		z"/>
	<path class="st8" d="M174.9,71.5c-1.4,0.2-2.7,0.3-4.1,0.3c-0.5,0-1-0.1-1.5-0.2c-0.1,0-0.2,0-0.3,0.1c-0.1,0-0.2,0-0.3,0
		c-0.6-0.1-0.6,0.9,0,1c0.7,0.1,1.4,0.1,2.1,0.1c1.4,0.1,2.9,0.1,4.3-0.3C175.7,72.2,175.5,71.4,174.9,71.5z"/>
	<path class="st8" d="M174.4,66.6c-1.9-0.3-3.8-0.3-5.7,0.1c-0.6,0.1-0.3,1,0.3,0.9c1.7-0.3,3.5-0.3,5.2-0.1
		C174.8,67.6,175,66.7,174.4,66.6z"/>
</g>
<g id="eyes">
	<path class="st10" d="M174.1,47.7c0.1,1.1,1.6,1.9,3.3,1.6c1.7-0.2,3-1.3,2.9-2.4s-1.6-1.9-3.3-1.6C175.3,45.4,174,46.5,174.1,47.7
		z"/>
	<ellipse cx="176.4" cy="47.3" rx="1.3" ry="1.5"/>
	<circle class="st10" cx="177.5" cy="46.5" r="0.5"/>
	<ellipse class="st8" cx="163.7" cy="47" rx="4.7" ry="3"/>
	<path class="st10" d="M167.4,47.7c-0.1,1.1-1.6,1.9-3.3,1.6c-1.7-0.2-3-1.3-2.9-2.4c0.1-1.1,1.6-1.9,3.3-1.6
		C166.2,45.4,167.5,46.5,167.4,47.7z"/>
	<ellipse cx="165" cy="47.3" rx="1.3" ry="1.5"/>
	<circle class="st10" cx="163.9" cy="46.5" r="0.5"/>
</g>
<g id="sweater_colour">
	<path class="st11" d="M240,147.8c-0.1-0.6-0.3-1-0.5-1.5c0.3-1.5,0.3-3.1,0.3-4.6c0-2.9-1.2-6.1-2.2-8.7c-0.5-1.2-1.1-2.2-2-3
		c-0.2-0.4-0.3-0.8-0.6-1.2c-3.6-10.1-7.5-20.1-11.9-29.8c-3.1-6.9-7.8-13.1-15.1-14.7c-3.3-1.5-6.9-2.2-10.7-2
		c-1.5,0.1-2.6,0.9-3.2,1.9c-4.9-0.7-10-1-15-1.2c-6.4-0.3-12.7-0.6-19.1-0.8c-0.5-1.2-1.7-2.2-3.4-2.3c-8-0.5-17.4,2.5-22.5,8.8
		c-5.1,6.3-7.1,14.8-9.4,22.6c-0.4,0.4-0.7,1-0.8,1.7l-0.1,0.8c-2.5,4.2-5.4,9.5-5.6,14.2c-0.2,0.5-0.3,1-0.3,1.5v0.3
		c0,0.4,0.1,0.9,0.3,1.3c-0.5,0.3-0.9,0.6-1.3,1c-1,1-1.7,2.3-1.6,3.7c0.1,0.5,0.2,1,0.3,1.4c-2.5,3.1-3.4,7.4,0,10.5
		c0.8,0.7,1.9,1.3,3,1.8c2.6,2.8,7,4.4,10.5,5.6c0.2,0.1,0.5,0.1,0.7,0.2c1.8,1.4,4.5,2.1,6.9,2.7c0.7,0.3,1.5,0.5,2.2,0.7
		c-0.7,0.6-1.2,1.5-1.3,2.7l-1.1,15.6c0,0.2,0,0.3,0,0.5c-0.2,1.3-0.3,2.6-0.5,3.8c-0.2,0.3-0.4,0.7-0.5,1.2
		c-3.9,14.4-4.3,29.4-6.1,44.1c0,0,0,0.1,0,0.1c0,0.2-0.1,0.4-0.1,0.6c-0.3,0.7-0.5,1.4-0.7,2.1c-0.5,0.4-0.9,1.1-1.1,1.9
		c-0.7,2.7-1.1,5.3-1.2,8l-1.5,10.3c-0.1,0.9,0,1.8,0.4,2.5c-0.1,0.3-0.2,0.5-0.2,0.8c-0.1,0.5,0.7,0.6,0.9,0.2
		c1.3,1.4,3.5,1.8,5.1,0.5c0.2,0,0.3,0,0.5,0c0.9,0.5,1.8,0.8,2.7,1.1c0.1,0,0.1,0,0.2,0c4.4,0.8,8.8,1.3,13.3,1
		c0.3,0,0.5,0.1,0.6,0.3c0.3,0,0.5,0,0.8,0l23.7,0.3l23.7,0.3c7.4,0.1,15.7-0.8,23,0.7c0.5,0.1,1,0.1,1.5,0c0.3,0.1,0.7,0.1,1.1,0.1
		c0.7,0,1.3-0.2,1.8-0.4c0.4,0.1,0.9,0.2,1.3,0.2c0.1,0,0.1,0.1,0.2,0.1c0,0,0.1,0,0.1,0c0.3,0.2,0.9,0.1,0.8-0.4c0-0.1,0-0.2,0-0.3
		c0-0.1,0-0.2,0-0.3c0,0,0,0,0,0c0-0.5,0-1-0.1-1.5c0.3-0.8,0.3-1.8-0.3-2.8c-0.1-0.8-0.2-1.5-0.3-2.3c0.1-1,0.4-2.1,0.3-2.6
		c-0.1-1.2-0.5-2.2-0.9-3.4c-1.2-3.5-1.4-7-1.9-10.7c-0.7-5.4-1.7-10.8-2.9-16.2c0.1-0.6,0-1.2-0.3-1.7c0-0.2,0-0.3,0-0.5
		c0-3.3-0.3-6.5-0.7-9.7c0.6-1.4-0.1-3-0.4-4.4c0-0.1-0.1-0.1-0.1-0.2c0-0.2,0-0.4,0-0.6c0-0.4-0.1-0.7-0.1-1l0,0
		c-2.2-12.6-3.3-25.1-5.7-37.6c-0.1-0.3-0.1-0.5-0.2-0.7l5.9-1.6c0.6-0.1,1.1-0.3,1.7-0.4c1.4-0.2,2.7-0.5,4-0.9
		c0.4-0.1,0.8-0.2,1.2-0.3c0.1,0,0.2-0.1,0.2-0.1c2.3-0.5,4.6-1.2,6.6-2.4C236.6,155.2,240.6,152.5,240,147.8z M131.9,139
		c0.4-0.3,0.7-0.6,1-1.1c1.2-1.9,2.4-3.8,3.6-5.7c0.3-0.4,0.4-1,0.5-1.5c0.4-0.5,0.7-1,1-1.5c1.4-2.4,2.6-4.9,3.7-7.5
		c0.1,0.2,0.2,0.4,0.4,0.6c0,0.1,0.1,0.2,0.1,0.3c-0.3,1.1-0.1,2.3,0.5,3.2c0,0,0,0,0,0c0.3,4.5-0.1,8.5-1.4,12.9
		c-0.3,1.1-0.1,2.1,0.4,2.9c-1.1-0.2-2.1-0.1-3.1,0.3c-0.2-0.1-0.4-0.3-0.6-0.4C136,140.5,134,139.6,131.9,139z M152.5,156.2
		c-2.6,0.8-5.3,1.4-8,2.1c-0.2,0-0.3,0.1-0.5,0.2c-0.8-0.7-1.9-1-2.9-0.9c0-0.1-0.1-0.2-0.2-0.2c-0.5-0.3-0.9-0.5-1.4-0.9
		c-1.2-1.5-1.8-3.2-1.9-5.2c0-0.1,0-0.2-0.1-0.3c0.1-0.4,0.1-0.8,0.2-1.2c1-1.4,2-2.9,3.4-3.9c1.5-1.1,3.4-1.4,5.3-1.7
		c0.1,0,0.1,0,0.2,0c0.2,0.1,0.4,0.1,0.6,0.2c0.3,0.1,0.5-0.1,0.6-0.3c0,0.1,0.1,0.3,0.2,0.4c1.5,2.3,6.3,1.9,8.7,2
		c0.6,0,1.4,0.1,2.3,0.2C156.2,149.5,154.1,152.7,152.5,156.2z M199.5,162.7c-1.7-0.5-3.2-1.3-4.1-3.3c-0.2-0.3-0.5-0.5-0.9-0.6
		c-1.1-2.1-2.1-4.3-3.2-6.4c-0.5-1-0.9-1.9-1.5-2.7c0,0,0,0,0.1,0c0.1,0,0.2-0.1,0.3-0.1c0.4-0.3,0.8-0.6,1.1-0.9c0,0,0,0,0,0
		c2.1-0.2,4.1-0.6,6.2-1c0.2,0,0.3-0.1,0.4-0.2c0.1,0.1,0.2,0.1,0.3,0.2c0,0,0.1,0.1,0.1,0.1c0.3,0.5,0.6,0.9,0.9,1.4
		c0,0.6,0.2,1.1,0.4,1.6c0.9,1.9,1.5,3.9,1.8,6c0.1,0.6,0.2,1.1,0.5,1.5C201,159.7,200.2,161.2,199.5,162.7z M220.7,142.1
		c-3.6,0.5-7.3,1.1-10.9,1.7c-0.7-2.8-1.4-5.6-1.6-8.3c-0.3-3.8,1-7.5,2.3-11.1c0.7,0.9,1.5,1.7,2.3,2.5c0,0,0,0,0,0
		c0.6,1.5,1.1,2.9,1.3,3.2c1.8,3,2.8,5.9,4.4,8.9C219,140.3,219.7,141.4,220.7,142.1C220.7,142.1,220.7,142.1,220.7,142.1z"/>
</g>
<g id="bag_colour">
	<path class="st12" d="M160.4,166.3c-0.6,0.6-1.3,1.1-2,1.6c0-0.1-0.1-0.1-0.1-0.2c0,0,0,0,0,0c0.5-0.3,0.3-1-0.1-1.2
		c-0.1-0.4-0.5-0.7-1-0.5c-0.2,0.1-0.3,0.2-0.5,0.3c-0.1-0.1-0.2-0.2-0.3-0.3c0-0.1-0.1-0.2-0.1-0.3c0.3-0.3,0.6-0.5,0.8-0.8
		c0.7-0.6-0.3-1.6-1-1c-1,0.9-2,1.7-3,2.5c-0.1,0-0.3,0.1-0.4,0.2c-0.4,0.1-0.7,0.5-0.4,1c0.8,1.3,1.8,2.5,2.9,3.5
		c0.1,0.1,0.2,0.1,0.3,0.2c-0.2,0.1-0.3,0.3-0.4,0.4c-0.5,0.6,0.2,1.5,0.8,1.1c0.4-0.3,0.8-0.5,1.2-0.8c0.1,0,0.1,0,0.2-0.1
		c0.1,0,0.1-0.1,0.2-0.1c0.1,0,0.1,0,0.2-0.1c0.8-0.5,1.5-1.1,2.2-1.7c0.5-0.4,0.1-1-0.4-1.1c0.6-0.6,1.2-1.2,1.8-1.7
		C162,166.7,161.1,165.7,160.4,166.3z"/>
	<path class="st12" d="M177.5,155.2c0.1-0.1,0.1-0.3,0.1-0.5c-0.6-2.1-2-3.9-3.9-5c-0.2-0.1-0.4-0.1-0.6-0.1
		c-0.2-0.3-0.3-0.7-0.5-1.1c-0.2-0.4-0.8-0.4-1.1-0.1c-3,2.7-6,5.4-8.8,8.3c-0.3,0.3-0.2,0.6,0,0.9c-0.1,0.1-0.2,0.2-0.4,0.4
		c-0.1,0.1-0.1,0.2-0.2,0.3c0,0,0,0,0,0c-0.3,0.4,0.1,1,0.6,1c-0.2,0.5,0.2,1.1,0.8,0.9c-0.2,0.3,0,0.6,0.2,0.8
		c-0.5,0.5-1,1-1.5,1.5c-0.3,0.3-0.2,0.6-0.1,0.8c-0.3,0.3-0.7,0.6-1,0.9c-0.7,0.6,0.3,1.6,1,1c0.6-0.5,1.2-1,1.8-1.6
		c0.2,0.2,0.6,0.3,1,0c0.7-0.6,1.3-1.2,2-1.7c-0.1,0.3,0.1,0.7,0.5,0.8c-0.2,0.2-0.5,0.5-0.7,0.7c-0.6,0.7,0.3,1.5,1,1
		c2.9-2.4,5.8-4.9,8.7-7.3c0.1-0.1,0.1-0.1,0.1-0.2c0.4-0.2,0.7-0.5,1.1-0.7C177.8,156.1,177.8,155.5,177.5,155.2z"/>
	<path class="st12" d="M157.1,200.8C157.1,200.8,157.1,200.8,157.1,200.8c0-0.3,0-0.5-0.4-0.7c-0.3-0.1-0.5-0.3-0.8-0.4
		c-0.6-0.3-1.2,0.3-1,0.9c-0.4-0.2-0.9-0.2-1,0.4c-0.3,1.4-0.5,2.8-0.6,4.2c-0.2,0.5-0.4,1-0.5,1.5c-0.1,0.4,0.1,0.7,0.4,0.8
		c0.1,0.7,0.2,1.3,0.8,1.9c0.3,0.4,1,0.2,1.1-0.2c0,0.2,0,0.4,0,0.6c0,0.9,1.4,0.9,1.4,0c0.1-2.8,0.6-5.5,1.6-8.2
		C158.4,200.8,157.6,200.5,157.1,200.8z"/>
	<path class="st13" d="M215.5,210.5c1.3-5.7,0.8-11.7-3.9-15.1c0.1-1.1,0.1-2.2,0.1-3.3c0.4-0.7,0.6-1.6,0.3-2.6c0-0.1,0-0.1,0-0.2
		c-0.2-0.6-0.5-1.1-0.9-1.5c0-0.8-0.2-1.7-0.8-2.4c-0.8-1-0.9-2.4-2-3.4c-1.3-1.2-3.1-1.7-4.7-2.1c-0.4-0.1-0.8-0.2-1.2-0.2
		c0.1-1.5-0.5-3.1-2.3-3.8c-1.6-0.6-3.4-1.1-5.3-1.5c-0.1-0.1-0.2-0.1-0.3-0.2c-0.8-0.5-1.7-0.8-2.7-1c-0.9-0.1-1.7-0.1-2.5,0.3
		c-4.8-0.5-9.8-0.2-13.8,1.2c-0.4,0.1-0.7,0.4-1,0.6c-9,1.7-17.9,6.6-18.1,16c-0.2,1.3-0.4,2.5-0.7,3.8c0,0.1-0.1,0.1-0.1,0.2
		c-0.1,0.3-0.1,0.6-0.1,0.9c-0.3,1.9-0.7,3.8-1,5.7c-0.3,1.6-0.6,3.4-0.6,5.1c-0.4,1.1-0.7,2.3-0.2,3.5c0.7,1.7,2.1,2.5,3.6,3
		c1,0.5,2.1,0.9,3.3,1.2c0.7,0.3,1.3,0.7,1.9,1.3c1,1.1,2.2,1.3,3.2,0.9c0.6,1.1,1.7,2,3.1,1.9c0.1,0,0.2,0,0.3,0
		c4.7,2.1,11,2.6,14.9,2.7c9.2,0.4,19.4,0.4,27.6-4.2c0.2-0.1,0.5-0.2,0.7-0.3l0.9-0.7c0.1-0.1,0.3-0.2,0.4-0.3
		c0.2-0.1,0.4-0.3,0.6-0.4c0,0,0,0,0,0c0.2-0.2,0.5-0.3,0.7-0.5C216.8,213.8,216.5,211.9,215.5,210.5z"/>
	<path class="st12" d="M157.1,200.7c-0.1-0.1-0.3-0.2-0.4-0.2c0,0,0-0.1,0-0.1c0-0.3-0.1-0.6-0.5-0.7c-0.8-0.2-1.3,0.4-1.4,1.1
		c0,0.2-0.1,0.5-0.1,0.7c-0.1,0.1-0.2,0.2-0.3,0.4c-0.5,2-2.5,6.6,0.8,7.3c0.3,0.1,0.8-0.1,0.8-0.5c0.2-1.1,0.5-2.1,0.7-3.2
		c0.1-0.1,0.2-0.2,0.3-0.4c0.4-1.3,0.8-2.6,1.2-3.9C158.5,200.6,157.6,200.2,157.1,200.7z"/>
	<path class="st12" d="M209,187.4c-2.1-2.5-5-2.9-8-3.1c-5.2-0.4-10.4-0.5-15.5-0.4c-4.9,0-9.9,0.1-14.7,0.7
		c-2.9,0.4-5.6,1.1-7.6,3.3c-0.3-0.1-0.6-0.1-0.8,0.3c-0.8,1.8-1.2,3.7-1.2,5.7c0,0.9,1.4,0.9,1.4,0c0-1.5,0.3-3,0.8-4.5
		c0.2,0,0.3,0,0.5-0.2c2.4-2.9,6-3.2,9.5-3.5c4-0.3,8.1-0.4,12.2-0.4c3.8,0,7.7,0,11.5,0.2c3.7,0.2,8.5-0.2,11.1,2.9
		C208.6,189,209.6,188,209,187.4z"/>
	<path class="st12" d="M209.8,200c-9.8-1.5-19.7-1.8-29.6-0.8c-2.8,0.3-6.6,0.2-8.7,2.3c-2.1,2.1-1.9,5.4-1.6,8.1
		c0.1,0.9,1.5,0.9,1.4,0c-0.3-3.9-0.2-7.2,4.2-8.5c3.5-1,7.8-1,11.4-1.1c7.6-0.3,15.1,0.1,22.6,1.3
		C210.3,201.5,210.7,200.1,209.8,200z"/>
</g>
<g id="bag">
	<g>
		<path d="M212.4,195.3c0.3-2.8,0.4-6-0.5-8.7c-0.5-1.7-2-3-3.4-4.3c-0.1-0.2-0.2-0.4-0.5-0.4c0,0,0,0-0.1,0
			c-0.3-0.3-0.6-0.5-0.9-0.8c-0.1-0.1-0.1-0.1-0.2-0.1c-1.4-1.1-2.8-2.3-4.1-3.4c-1.2-1.2-2.4-2.3-3.6-3.6c-2.1-2.2-3.5-4.4-6.4-5.5
			c-0.7-0.3-1,0.6-0.7,1.1c-0.1,0-0.1-0.1-0.2-0.1c-0.7-0.1-1,0.6-0.8,1c-0.4,0.3-0.5,0.9,0,1.1c1.2,0.5,2.3,1.2,3.3,1.8
			c-2.2-0.7-4.4-1.2-7-0.9c-3.5,0.4-7,0.7-10.5,1.1c0.5-0.8,0.8-1.7,1-2.8c0-0.1,0-0.3,0-0.4c0.2-0.6,0.3-1.3,0.4-2
			c0.4-0.8,0.7-1.5,1-2.3c0.3-0.8-1-1.2-1.3-0.4c-0.2,0.5-0.4,1-0.7,1.5c-0.2,0.1-0.3,0.3-0.3,0.6c0,0.1,0,0.2,0,0.2
			c-1.2,2.3-2.8,4.5-4.5,6.4c-1.1,0.3-2,0.9-3,1.6c-2.1,1.3-4.5,2.1-6.5,3.4c-3.4,2.1-5.5,5-6.5,8.5c-1.2,4.2-1.4,8.6-2.2,12.8
			c-0.4,2.2-1.2,4.4-1.5,6.5c-0.1,0.5,0.1,1,0.4,1.3c-0.4,1.6,0.7,3.7,2.1,4.7c1.2,0.9,2.8,1.3,4.2,1.8c1.8,0.7,3.5,1.3,5.3,2
			c0.1,0.1,0.3,0,0.4,0c3.3,2.5,8,3.6,12.4,4c9,0.9,18.3,0.7,27.2-1.1c3.4-0.7,7.8-1.4,10.3-3.8c2.4-2.2,2.4-5.9,2.5-8.7
			C217.5,203.2,216.2,198.2,212.4,195.3z M176.2,174.6c3.4-0.4,6.8-0.7,10.1-1.1c1.9-0.2,3.6-0.4,5.5,0.1c1.6,0.4,3.1,1,4.7,1.5
			c0.2,0.1,0.4,0.2,0.6,0.3c0,0,0,0,0.1,0c1.5,1.1,3,2.4,4.3,3.8c-10-0.2-19.9-0.2-29.9,0.2c-0.1,0-0.1,0-0.1,0c0,0,0,0-0.1,0
			C173.1,177.8,174.9,176.4,176.2,174.6z M155.3,199.5c0,0,0-0.1,0-0.1c0.6,0.4,1.6,0.8,2.1,1.3c0.5,0.5,0.4,1.1,0.2,1.7
			c-0.8-0.4-1.5-0.8-2.2-1.3c-0.1-0.1-0.2-0.1-0.3-0.1C155.1,200.5,155.2,200,155.3,199.5z M154.1,205.1c0.3-1.1,0.5-2.2,0.7-3.3
			c0.7,0.5,1.5,0.9,2.3,1.3c0,0,0.1,0,0.1,0c-0.1,0.2-0.2,0.5-0.3,0.7c-0.6,1.9-1,3.8-1.3,5.8c-0.7-0.4-1.6-1-1.9-1.5
			C153.3,207.4,153.9,205.9,154.1,205.1z M158.7,214.1c-2.1-0.8-4.9-2.3-4.8-4.6c0.6,0.4,1.3,0.8,1.8,1.2c0.3,0.3,0.8,0.1,0.8-0.3
			c0.4-3.3,1.3-6.5,2.5-9.6c0.1-0.2,0-0.4-0.2-0.5c-1.1-0.5-2-1-3-1.7c-0.1-0.1-0.3-0.1-0.5-0.1c0.5-3,0.7-6,1.4-8.9
			c0.8-3.4,2.3-6.5,5.5-8.8c1.7-1.2,3.7-2.1,5.6-3c0.9-0.4,1.7-1.1,2.7-1.6c-1.1,1-2.2,2-3.4,2.9c-0.1,0.1-0.2,0.1-0.3,0.2
			c-0.2,0.2-0.5,0.4-0.7,0.6c-0.2,0.2-0.4,0.3-0.6,0.5c-0.1,0.1-0.2,0.2-0.2,0.3c-0.6,0.6-1,1.3-0.8,2.1c0.1,0.7,0.9,2.4,2,2
			c0,0,0,0,0.1,0c0.3,0.1,0.8,0,1-0.4c0.6-1.4,1.4-2.5,2.4-3.5c0.4,0,0.9-0.1,1.3-0.1c0,0,0.1,0,0.1,0c0.1,0.1,0.2,0.2,0.4,0.2h1.3
			c0.2,0,0.4-0.1,0.5-0.2c9.8-0.3,19.5-0.3,29.3-0.1c0.4,0.4,0.8,0.9,1.2,1.4c0.1,0.1,0.2,0.2,0.4,0.2l0,0c1.1,0.8,2,0.8,3.2,1
			c0.1,0,0.3,0,0.4,0c1.4,1.2,2.6,2.5,3.1,4.3c0.6,2.3,0.6,4.9,0.4,7.3c-0.9-0.6-2-1-3.2-1.3c0,0-0.1-0.1-0.1-0.1
			c-4.1-2.7-10.4-2.8-15.3-3.2c-5.8-0.4-11.9-0.6-17.6,0.5c-4.6,0.9-8.6,2.8-10.6,6.7c-2.3,4.5-2.8,9.8-3.5,14.7
			c0,0.2,0.1,0.4,0.4,0.4c0.4,1.4,1.1,2.5,2,3.5C161.8,215.3,160.2,214.7,158.7,214.1z M210.5,217.7c-3.2,1.1-6.6,1.8-10,2.3
			c-7.1,1.1-14.4,1.1-21.6,0.5c-6.7-0.5-15.1-2.2-16.7-8.8c0-0.1-0.1-0.2-0.1-0.2c0.6-4.2,1.2-8.7,2.8-12.7c2-4.8,6.6-6.9,12.2-7.7
			c5-0.7,10.2-0.5,15.2-0.2c4.8,0.3,11.1,0.4,15.1,3c0,0.1,0.1,0.2,0.3,0.3c7.6,1.8,9,9.3,8.5,15.2
			C215.9,213.1,215,216.1,210.5,217.7z"/>
		<path d="M213.9,206.5c0-4.8-2-6.8-6.5-7.8c-5.7-1.3-11.9-0.9-17.6-0.8c-3.1,0-6.2,0.1-9.3,0.3c-2.3,0.1-5.3-0.2-7.4,0.6
			c-3.8,1.5-3.7,7.6-3.6,11c0,0,0,0,0,0c-0.2,0.4-0.1,1.1,0.6,1.1h0.8c0.3,0,0.4-0.1,0.5-0.3c0.3,0,0.6-0.1,0.6-0.4
			c0.2-1.9,0.2-3.9,0.6-5.7c0.5-2.4,2.8-2.9,5.2-3.2c4.3-0.6,8.7-0.9,13.1-0.9c4.1,0,8.3,0.1,12.4,0.3c3.6,0.2,7.7,0.8,9.2,3.4
			c0.2,0.6,0.2,1.3,0.3,2.4c0,0.3,0.1,0.4,0.3,0.5c0.1,0.4,0.9,0.3,1-0.1c0,0,0,0,0,0C213.8,206.8,213.9,206.6,213.9,206.5z
			 M190.7,199.4c-2.8,0-5.7,0.1-8.5,0.4c-2.6,0.2-5.5,0.4-7.9,1.1c-3.6,1.2-3.3,5.6-3.4,8.5c0,0-0.1,0-0.2,0c0-2,0.1-4.1,0.6-6
			c0.8-3.1,3.5-3.6,6.4-3.8c4-0.2,8-0.3,12-0.4c3.7,0,7.4,0,11.1,0.1c2,0.1,4.1,0.2,6.1,0.7C201.7,199.2,195.9,199.4,190.7,199.4z"
			/>
		<path d="M211.4,192.4c-0.2-0.5-0.5-1-0.7-1.4c-1-3.7-2.7-6.3-7.4-6.9c-6.3-0.8-13-0.7-19.4-0.6c-5.9,0.1-12.5,0.1-18.2,2
			c-5.1,1.7-5.1,5.9-5.4,10.1c0,0.2,0.1,0.3,0.3,0.4c0.1,0.1,0.2,0.1,0.4,0.1c0.4,0,0.7,0,1.1,0c0.4,0,0.6-0.3,0.7-0.7
			c0.4-3.1,0.4-6.4,3.7-7.9c2-0.8,4.7-0.7,6.9-1c4.2-0.4,8.5-0.7,12.7-0.7c4.2,0,8.5,0.1,12.7,0.4c2.7,0.2,6.3,0.1,8.5,2
			c1.4,1.2,2.2,3.1,2.9,4.7C210.6,193.9,211.8,193.2,211.4,192.4z M163,188.5c-0.6,0.9-0.8,5.1-1.6,6c0.1-1.8,0.2-3.7,1-5.4
			c0.4-0.9,1.1-1.6,2-2.1C163.8,187.4,163.4,187.9,163,188.5z M202.8,185.3c-6.4-0.9-13-1-19.4-0.8c-4.1,0.1-8.8,0.1-13.1,0.8
			c4.7-0.8,9.7-0.9,14.5-1c4.9,0,9.9,0,14.8,0.3c2.5,0.1,5.8,0.1,7.7,1.8c0.5,0.4,0.9,0.9,1.2,1.5
			C207.2,186.5,205.4,185.7,202.8,185.3z"/>
	</g>
	<path d="M179.3,155c-2.1-2.6-4.3-5.2-6.4-7.8c-0.2-0.3-0.7-0.2-1,0c-3.2,2.9-6.5,5.9-9.7,8.8c-0.7,0.6,0.3,1.6,1,1
		c3.1-2.8,6.1-5.6,9.2-8.3c1.8,2.2,3.7,4.5,5.5,6.7c-1.5,1.3-3,2.5-4.5,3.8c-0.8,0.7-3.2,3.5-4.5,4c-0.1,0-0.2-0.1-0.3-0.1
		c-0.1,0-0.1,0-0.2,0c-0.4,0-0.6,0.4-0.7,0.7c0,0.1,0,0.1,0,0.2c0,0.4,0.4,0.7,0.7,0.7c1.3,0.1,2.6-1.7,3.5-2.5
		c2.5-2.1,5-4.2,7.4-6.3C179.6,155.8,179.5,155.3,179.3,155z"/>
	<path d="M161,168.7c-1.6,1.2-3.1,2.4-4.7,3.6c-1.3-1.6-2.7-3.2-4.1-4.7c0.7-0.6,1.5-1.2,2.2-1.8c0.7-0.6-0.3-1.5-1-1
		c-0.9,0.7-1.8,1.5-2.7,2.2c-0.3,0.2-0.2,0.7,0,1c1.7,1.9,3.4,3.8,5,5.7c0.2,0.2,0.6,0.3,0.8,0.1c1.7-1.3,3.4-2.6,5.1-4
		C162.4,169.3,161.7,168.1,161,168.7z"/>
</g>
<g id="hands_colour">
	<path class="st5" d="M198.9,155.4c0-0.5,0-1,0-1.5c0-0.4-0.3-0.7-0.7-0.7c-0.9-2.4-2.6-5.3-5-5c-0.5,0.1-1.7,1.1-1.9,1.3
		c-1.4,1.1-2.8,2.2-4.1,3.2c-2.1,1.6-4.2,3.2-6,5.1c-0.1,0-0.2,0.1-0.3,0.2c-1.5,1.6-3.1,3.2-4.5,5c-1.1,1.3-1.1,2.9-1.3,4.5
		c0,0.1,0,0.2,0,0.3c-0.4,0.8-0.8,1.7-1.1,2.6c-0.3,0.8,1,1.2,1.3,0.4c0.1-0.3,0.3-0.6,0.4-1c0.1-0.1,0.2-0.1,0.2-0.3
		c0.5-1.1,1.1-2.2,1.6-3.3c0-0.1,0.1-0.2,0.1-0.3c0.4-0.6,0.7-1.2,1.1-1.8c0.1,0.1,0.2,0.1,0.3,0.1c0,0,0,0.1,0,0.1
		c-0.7,1.4-1.2,2.8-1.4,4.4c-0.1,1.2-0.4,2.8,0.9,3.3c0.1,0,0.2,0,0.2,0c0.1,0.1,0.2,0.2,0.3,0.3c0.2,0.1,0.3,0.1,0.5,0.2
		c0.3,0.1,0.5,0,0.6-0.1c0,0.1,0.1,0.2,0.1,0.2c0,0.2,0.1,0.4,0.3,0.6c0.4,0.3,0.9,0.3,1.3,0.1c0.3,0.2,0.8,0.3,1-0.1
		c0-0.1,0.1-0.1,0.1-0.2c0.9,1.5,2.4,0.6,3.3-0.4c0.1,0.5,0.2,1,0.5,1.5c0.2,0.4,0.8,0.4,1.1,0.1c1.2-1,2-2.3,2.7-3.7
		c0.2,0,0.4-0.1,0.5-0.3c1.1-1.8,2-3.6,2.9-5.4c0.1-0.2,0.1-0.4,0-0.6c0.1-0.3,0.3-0.6,0.4-0.9c0.1-0.2,0-0.4,0-0.5l0.8-1.7
		c0.1-0.2,0.1-0.3,0-0.5l3.2-3.8c0.1-0.1,0.2-0.3,0.2-0.5C198.9,155.8,198.9,155.6,198.9,155.4z"/>
	<path class="st5" d="M172.7,163.9c0-0.2-0.1-0.3-0.1-0.5c-0.1-0.3-0.3-0.5-0.6-0.5c0,0,0-0.1-0.1-0.1c0-0.1-0.1-0.2-0.2-0.3
		c0,0-0.1-0.1-0.1-0.1c0-0.2,0-0.3-0.1-0.5c-1.4-2.4-2.9-4.7-4.4-7c0.2-0.2,0.3-0.6,0-0.9c-0.7-0.7-1.4-1.4-2.2-2.2
		c0-0.2-0.2-0.5-0.5-0.5c0,0-0.1,0-0.1,0c-1-1-2.2-1.9-3.3-2.7c0-0.1-0.1-0.3-0.2-0.4c-3.2-2.8-9-1.8-12.9-1.8
		c-0.2,0-0.3,0.1-0.5,0.2c-0.1-0.5-0.7-0.9-1.1-0.4c-0.1,0.1-0.2,0.2-0.2,0.3c-0.1-0.2-0.3-0.4-0.6-0.3c-0.7,0-1.3,0.2-1.9,0.6
		c-0.1-0.1-0.3-0.2-0.5-0.2c-1.3,0.2-1.9,1-2.4,2.1c-0.6,1.4-1.2,3-0.5,4.4c0.1,0.3,0.4,0.4,0.6,0.3c0.1,0.1,0.1,0.3,0.2,0.4
		c0.1,0.2,0.2,0.4,0.3,0.6c0.2,0.3,0.5,0.4,0.8,0.3c0.2,0.3,0.5,0.6,0.9,0.8c0.2,0.1,0.3,0.1,0.5,0c0,0.1,0.1,0.1,0.1,0.2
		c0.2,0.4,0.7,0.4,1,0.2c0.5,1.2,1.4,2.1,2.4,3c1.4,2.4,3.8,4.3,6.4,5.9c2.3,2,4.9,3.7,7.6,4.1c0.6,0.1,0.9-0.5,0.8-0.9
		c0.6,0.4,1.2,0.9,1.8,1.2c0.5,0.3,1.3-0.2,1-0.8c-0.5-1.3-1.3-2.3-2.1-3.4c1.2,1.2,2.8,2.8,4.3,3.2c0.2,0.1,0.4,0,0.6-0.2
		c0.1,0,0.2,0,0.3-0.1c0.4,0,0.7-0.3,0.7-0.7c0-0.2,0-0.3-0.1-0.5c0-0.1-0.1-0.1-0.1-0.2c-0.2-0.8-0.5-1.5-0.9-2.3
		c-0.1-0.3-0.4-0.4-0.6-0.3c-1.1-1.6-2.3-3-3.6-4.5c-0.6-0.9-1.3-1.8-2-2.6c0.2-0.6,0.4-1.2,0.5-1.8c2.1,1.7,4,3.7,5.6,5.9
		c0.7,1,2,5.1,3.8,4.5c0.4-0.1,0.6-0.3,0.7-0.6C172.5,164.7,172.8,164.4,172.7,163.9z M160.2,167.1c0-0.2-0.1-0.5-0.3-0.6
		c-0.2-0.1-0.4-0.2-0.7-0.3c-0.2-0.5-0.4-1.1-0.6-1.6c0.8,1,1.7,2,2.7,2.8C161,167.3,160.6,167.2,160.2,167.1z"/>
</g>
<g id="hands_drawing">
	<g>
		<path class="st14" d="M172.4,162.5c0-0.1,0-0.3-0.1-0.5l-0.9-1.6c-0.1-0.1-0.1-0.2-0.2-0.2c-1.4-2.7-3.2-5.8-4.9-8.1
			c-1.6-2.2-4-3.6-6-5c-1.9-1.3-3.2-1.5-4.9-1.4c-1.4,0.1-2.8,0.1-4.3,0.1c0-0.1,0-0.2-0.1-0.3c-0.8,0.1-1.6,0.1-2.3-0.1
			c0,0-0.1-0.1-0.1-0.1c-0.4-0.2-0.8-0.3-1.2-0.3c0,0-0.1,0-0.1-0.1c-0.5-0.3-0.4-0.9,0-1.1c-0.1-0.1-0.3-0.1-0.4-0.2
			c-0.6-0.4-0.7,0.7-0.1,1.1c0.2,0.1,0.3,0.2,0.5,0.3c-0.3,0-0.5,0-0.8,0c-0.3-0.1-0.5-0.2-0.8-0.2c-0.4-0.1-0.6,0.1-0.8,0.3
			c-3.3,0.1-5.8,3.5-5.9,6.8c-0.1,0.1-0.1,0.3,0,0.5c0,0,0,0,0,0c0,0,0,0.1,0,0.1c-0.1,0.2-0.1,0.4,0,0.6c0,0,0,0,0,0c0,0,0,0,0,0.1
			c0,0.2,0.2,0.4,0.4,0.4c0.4,0.5,0.8,1.1,1.3,1.5c0.9,0.9,2,1.6,3.2,2c0.2,0.1,0.4,0,0.5,0c0.1,0.2,0.2,0.3,0.3,0.5
			c0.1,0,0.2-0.1,0.2-0.1c3.4,3.7,7.3,6.5,11,9.5c1.9,1.5,6,5.2,6.5,2c0,0,0.1,0.1,0.1,0.1c1.4,0.8,2.7,0.2,2.5-1.4
			c1.3,0.9,3.2,2.1,4,0.8c0.7-1.2-0.4-3.2-1.3-4.6c-1.8-2.7-4.1-5-6.1-7.5c0.3,0,0.5-0.2,0.4-0.6c0,0,0,0,0-0.1
			c0.1-0.1,0.1-0.2,0.1-0.3c1,0.8,1.9,1.7,2.8,2.7c1.9,2.3,3.5,5.9,5.6,7.8c0.9,0.8,1.8,1,2.2,0.2
			C173.3,165,172.9,163.7,172.4,162.5z M171.8,163.3c-0.1,0.1-0.1,0.2-0.2,0.2c-0.2,0.1-0.4,0.2-0.5,0.4c-0.1,0.2-0.3,0.3-0.4,0.3
			c0.2,0.3,0.3,0.6,0.5,0.9c-0.3-0.2-0.7-0.6-1-1c-0.2-0.1-0.4-0.3-0.4-0.6c-0.4-0.6-0.8-1.2-1.1-1.6c-0.2-0.2-0.2-0.4-0.2-0.6
			c-0.3-0.5-0.6-1-0.8-1.2c-0.9-1.3-1.9-2.9-3-4c-1.7-1.7-3.6-2.8-5.3-4.7c-0.6-0.6-1.1,0.1-0.6,0.7c0.8,0.9,1.7,1.7,2.6,2.4
			c0,0,0,0-0.1,0c-0.2,0.3-0.2,0.6-0.1,1c-0.5-0.6-0.9-1.2-1.3-1.8c-0.5-0.7-1.2-0.3-0.8,0.4c2.2,3.4,5.1,6.1,7.5,9.4l0.7,1
			c0.7,0.7,1.4,1.8,1.2,2.7c-0.2,1-1.2,0.8-2,0.3c-0.2-0.1-0.3-0.2-0.3-0.4c-0.3-0.1-0.7-0.4-1-0.8c-0.7-0.5-1.4-1-2.1-1.6
			c-1.8-1.6-3.3-3.9-4.8-5.8c-0.5-0.7-1.1,0.1-0.6,0.7c2.1,2.7,3.9,5.2,6.4,7.1c0,0,0,0.1,0,0.1c0.9,2.7-2.1,0.5-2.7,0
			c-0.7-0.7-1.4-1.4-2.1-2.2c-1.1-1.1-2.1-2.2-3.3-3.2c-0.6-0.5-0.9,0.4-0.3,1c1.9,1.6,3.8,4.2,5.8,5.7c-0.6,0.3-3.2-0.8-3.7-1.1
			c-0.7-0.5-1.5-1.2-2.3-1.8c-1.3-1.1-2.7-2.1-4-3.2c-2.8-2.2-5.5-4.6-7.8-7.7c-0.5-0.7-1.1,0-0.6,0.7c0,0,0,0,0,0
			c0.1,0.1,0.2,0.1,0.3,0.2c0,0,0,0,0,0c0,0-0.1-0.1-0.1-0.1c-0.5-0.3-1-0.7-1.5-1.1c-0.6-0.6-1.1-1.3-1.4-2.1
			c-0.1-2.8,2.3-6,5.2-5.6c0.1,0.1,0.2,0.2,0.3,0.2c3.5,0.3,6.8,0.3,10.2,0.2c3.8-0.1,8.6,4.3,11.2,8.7c0.6,1,2.1,3,3.2,4.8
			c0,0.1,0,0.3,0.1,0.5l0.8,1.5c0.2,0.1,0.3,0.3,0.4,0.5c0,0,0.1,0,0.1,0c0.2,0.5,0.3,1,0.3,1.4
			C172.1,163.9,171.9,163.6,171.8,163.3z"/>
		<path class="st14" d="M165.9,163.1c-0.5-0.6-1.1,0.1-0.6,0.7c-0.1-0.2-0.4,0.3-0.5,0.4c-0.2,0.1-0.4,0.2-0.6,0.3
			c-0.5,0.2,0.1,1.4,0.7,1.2C165.6,165.5,167,164.4,165.9,163.1z"/>
		<path class="st14" d="M155.2,157.2c-1.2-0.9-2.1,0.3-1.2,1.7c0.4,0.7,1.2,0.3,0.8-0.4c-0.2-0.3-0.1-0.5,0.2-0.3
			C155.5,158.6,155.8,157.7,155.2,157.2z"/>
		<path class="st14" d="M155.8,151.9c-1.1-0.4-1.6,0.6-1.2,1.9c0.3,0.8,1.2,0.7,0.9-0.1c-0.2-0.5,0.1-0.7,0.5-0.6
			C156.6,153.3,156.4,152.1,155.8,151.9z"/>
		<path class="st14" d="M164.4,152.6c-0.1,0.3-0.2,0.6-0.3,0.9c-0.2,0.6,0.8,1.4,1,0.8c0.1-0.3,0.2-0.6,0.3-0.9
			C165.6,152.7,164.6,151.9,164.4,152.6z"/>
		<path class="st14" d="M168.7,159c-0.1,0.2-0.1,0.3-0.2,0.5c-0.2,0.6,0.7,1.4,1,0.8c0.1-0.2,0.1-0.3,0.2-0.5
			C169.8,159.2,168.9,158.4,168.7,159z"/>
	</g>
	<g>
		<path class="st14" d="M200.5,156c-0.9-3.7-2.3-7.4-6.2-8.8c-0.3-0.1-0.4,0-0.6,0.1c0,0-0.1,0-0.1,0c-1.4,0.4-2.6,1.3-3.8,2.4
			c-1.8,1.7-3.6,3-5.6,4.4c-1.7,1.2-3.3,2.7-4.8,4.4c-1.4,1.6-3.4,3.4-4.4,5.3c-0.9,1.6-1.1,4.1-1.5,6c-0.1,0.6-0.7,2.1-0.1,2.6
			c1.5,1.1,3.3-3.1,4.1-5.3c-1,3.5-1,6.5,2.2,5.5c0.1,0.6,0.5,1,1.1,1.2c0.8,0.2,1.5,0,2.1-0.4c0.1,0.1,0.1,0.1,0.2,0.1
			c0.1,0.2,0.3,0.4,0.3,0.4c0.2,0.2,0.3,0.3,0.6,0.3c0.4,0.1,0.9,0,1.4-0.3c0.3-0.2,0.5-0.4,0.7-0.6c-0.2,0.8-0.2,1.6,0.6,1.9
			c1.3,0.6,2.7-1.6,3.5-2.7c1.7-2.2,3.2-4.3,4.2-7.1c0.7-1.9,1.2-4,2.4-5.6c0.7-0.9,1.5-1.6,2.3-2.5c0.2,0,0.5-0.1,0.6-0.3
			c0-0.1,0.1-0.1,0.1-0.2C200.2,156.9,200.7,156.5,200.5,156z M198.4,156.8c-0.9,1-1.9,1.8-2.6,3c-0.8,1.2-1.2,2.5-1.7,3.9
			c-0.9,2.5-1.8,4.4-3.3,6.6c-0.5,0.6-0.9,1.2-1.4,1.9c-0.3,0.4-0.5,0.7-0.8,1.1c-0.7,1.1-1.2,0.9-1.4-0.5c0.1-0.3,0.1-0.5-0.1-0.6
			c0,0,0,0,0,0c0.8-0.9,1.6-1.8,2.5-2.6c0.5-0.4,0.1-1.3-0.3-0.9c-1.3,1.2-2.4,2.6-3.6,3.9c-0.3,0.4-0.8,0.8-1.3,0.6
			c-0.3-0.1-0.3-0.4-0.5-0.7c0.9-1.1,1.6-2.7,2.1-3.9c0.2-0.6-0.5-0.8-0.8-0.2c-0.5,1.2-0.9,2.5-1.7,3.4c-0.7,0.7-2.4,1.7-2.7,0.4
			c-0.2-0.8,0.6-2.2,0.9-3.1c0.4-1.1,0.8-2.1,1.2-3.2c0.2-0.6-0.5-0.8-0.8-0.2c-0.7,1.9-1.6,3.9-2.2,5.9c0,0-0.1,0-0.2,0
			c-2.6,0.9-2-2.4-0.9-5.8c0.2-0.1,0.2-0.4,0.2-0.6c0.9-2.5,2-4.8,2.3-5.4c0.3-0.6-0.4-1.1-0.7-0.5c-0.4,0.8-1.3,2.8-2.2,5
			c0,0-0.1,0.1-0.1,0.1c-0.2,0.3-0.4,0.5-0.7,0.7c-0.1,0-0.2,0-0.4,0c-0.4,0-0.5,0.7-0.3,1c0.4,0.3-1.5,4.3-2.1,4.6
			c-0.2,0.1-0.3,0-0.4-0.1c0.1-0.1,0.2-0.3,0.2-0.5c0-0.4,0.3-0.8,0.5-1.1c0.2-0.4,0.4-0.8,0.4-1.2c0-0.2-0.1-0.4-0.3-0.5
			c-0.1,0-0.3,0-0.4,0c0-0.2,0.1-0.3,0.1-0.4c0.5-2.1,1-3,2.3-4.5c1-1.1,1.9-2.3,2.9-3.4c2.3-2.5,4.8-3.9,7.3-5.9
			c2-1.6,3.7-3.9,6.1-4.6c0.1,0.1,0.2,0.2,0.3,0.2c3,1.1,4.2,4.2,5,7.1c-0.2,0.3-0.3,0.5-0.5,0.8
			C198.4,156.5,198.4,156.6,198.4,156.8z"/>
		<path class="st14" d="M188.9,166.5c-0.3-0.1-0.5-0.2-0.7-0.4c-0.4-0.4-1,0.4-0.6,0.7c0.3,0.3,0.6,0.5,1,0.6
			C189.1,167.6,189.4,166.6,188.9,166.5z"/>
		<path class="st14" d="M185.6,164.9c-0.3-0.3-0.6-0.5-1-0.8c-0.4-0.3-0.9,0.6-0.5,0.9c0.3,0.3,0.6,0.5,1,0.8
			C185.6,166.2,186,165.3,185.6,164.9z"/>
		<path class="st14" d="M182.4,161.7c-0.1-0.4-0.3-0.7-0.5-1c-0.3-0.5-0.9,0.3-0.6,0.7c0.1,0.2,0.3,0.5,0.3,0.8
			C181.9,162.9,182.6,162.3,182.4,161.7z"/>
	</g>
</g>
<g id="sweater_drawing">
	<path class="st15" d="M127.3,112.9c0.1-0.6-0.8-0.9-1-0.3c-1.1,6.1,3.1,11.3,3.3,17.3c0,0.6,1,0.6,1,0
		C130.4,124.1,126.2,118.8,127.3,112.9z"/>
	<path class="st15" d="M240.6,140.9c-0.2-1.2-0.8-2.3-1.1-3.6c-1-3.5-2.5-6.9-4.3-10.1c0-0.1-0.1-0.1-0.2-0.2
		c-2.6-5.1-3.6-10.8-5.9-16c-0.2-0.5-0.4-1-0.6-1.3c0-0.1,0-0.2,0-0.4c-1.7-3.6-3.4-7.2-5.2-10.8c-1.5-3.1-2.7-6.4-4.9-9
		c-4.3-5.3-11.6-6.5-17.9-8.4c-0.6-0.2-0.9,0.7-0.3,0.9c6.7,2.1,14.2,3.3,18.3,9.4c1.7,2.6,2.9,5.6,4.3,8.5c1.5,3.1,3,6.2,4.4,9.3
		c-0.1,0-0.2,0-0.3,0.1c-1.6,0.5-3.4,2-4.8,2.8l-4.8,2.8c-0.5,0.3,0,1.1,0.5,0.8c2.7-1.6,5.3-3.1,8-4.7c0.3-0.2,1.3-1,1.6-0.9
		c0.3,0,0.6,1.1,0.7,1.4c0.6,1.3,1.1,2.7,1.5,4c1.6,4.7,2.8,9.5,5.4,13.8c0,0.1,0.1,0.1,0.1,0.1c1.4,2.7,2.5,5.4,3.4,8.3
		c0.2,0.6,0.3,1.1,0.5,1.7c0.3,0.9,0.3,1.5,0.5,2.4c0.2,1.5,0.2,2.6,0.1,4c-0.1,0.1-0.1,0.2-0.1,0.3c0.1,3.6-2.4,8.9-6.7,8.6
		c-3.3-0.2-6.9-1.7-9.2-3.9c-0.5-0.4-1.2,0.2-0.7,0.7c1.5,1.4,3.3,2.4,5.3,3.1c1,0.4,2.3,0.8,3.5,1c-1,0.8-3.2,1.1-4.3,1.5
		c-1.4,0.4-2.8,0.8-4.1,1.1c-2.9,0.8-5.9,1.5-8.8,2.1c-2.8,0.6-5.6,1.1-8.5,1.6c-1.6,0.3-3.9,0.7-5.9,0.6c0.1-0.1,0.2-0.1,0.3-0.2
		c2.1-1.5,1.8-4.7,1.3-6.8c-0.4-2.1-2.1-6.7-4.5-8.6c5.1-0.6,10.3-1.6,15.4-1.5c5.9,0.1,11.2,2.8,16.2,5.6c0.6,0.3,1.1-0.5,0.5-0.8
		c-4.5-2.6-9.3-5-14.5-5.6c0.8-0.1,1.6-0.3,2.4-0.5c1.8-0.5,3.4-1.1,5.4-1c4.2,0.2,8.2,1.6,11,4.7c0.4,0.5,1.1-0.2,0.7-0.7
		c-2.5-2.7-5.9-4.3-9.7-4.8c-1.1-0.2-2.2-0.2-3.3-0.1c4.6-2.1,9.1-0.7,13.6,1.1c0.6,0.2,1.1-0.6,0.5-0.8c-3-1.2-5.9-2.2-8.9-2.3
		c0.9-0.4,1.7-0.8,2.6-1.2c0.9-0.4,3.8-2.2,4.8-1.5c0.5,0.4,1-0.5,0.5-0.8c-1.1-0.8-2.2-0.2-3.3,0.3c-2.1,1-4.3,1.9-6.4,2.9
		c-0.2,0.1-0.2,0.2-0.2,0.4c-1.2,0.1-2.4,0.5-3.7,1c0,0,0,0,0,0c-3.2-1.6-3-6.1-4.8-8.8c-0.3-0.5-0.6-0.9-1-1.4c0,0,0-0.1,0.1-0.1
		c1.7-5.2,3.8-10.2,6.1-15.2c0.3-0.6-0.6-1-0.9-0.5c-2.3,4.8-4.2,9.8-6,14.8c-0.2-0.3-0.5-0.6-0.7-1c0.2-0.1,0.3-0.2,0.3-0.4
		c0.4-3.8,1.2-7.6,2.3-11.3c0.2-0.6-0.8-0.8-1-0.3c-1,3.6-1.8,7.2-2.2,10.9c-0.7-1.4-1.1-2.8-1.4-4.4c-0.9-4.5-3.1-10.7-8-12.4
		c-0.6-0.2-0.9,0.7-0.3,0.9c3.6,1.2,5.1,4.9,6.3,8.1c0.5,1.2,0.7,2.4,1,3.6c-4.2-2.3-6-8.5-11.6-7.9c-0.6,0.1-0.6,1,0,1
		c4.7-0.5,6.8,4.4,10.2,7.1c0,0-0.1,0.1-0.1,0.1c-3.1,6.5-1.5,13.4,0.5,19.9c-4.6,0.2-9.2,1.2-13.6,1.6c-0.1,0-0.2,0.1-0.2,0.1
		c-0.7-0.1-1.4,0-2.1,0.4c-0.3,0-0.5-0.1-0.8-0.1c-0.4,0-0.6,0.3-0.7,0.6c-0.1,0.1-0.3,0.2-0.4,0.2c-0.8,0.4-0.1,1.6,0.7,1.2
		c0.4-0.2,0.9-0.4,1.3-0.5c2.9,0.5,4.8,2.7,5.8,5.5c0.3,1.1,0.6,2.2,0.6,3.3c-0.1,0-0.2,0.1-0.2,0.1c-1,0.9-2,1.8-2.9,2.8
		c0,0,0,0,0,0c0,0,0,0.1-0.1,0.1c0,0-0.1,0.1-0.1,0.1c-0.1,0.1-0.1,0.2-0.2,0.4c-0.3,0.4-0.5,0.9-0.8,1.3c1,1.1,2.6,1.7,4.2,1.8
		c3.7,0.2,7.8-0.9,11.4-1.6c0.3-0.1,0.6-0.1,0.9-0.2c1.2,6.6,1.3,13.3,2.5,19.9c1.2,6.8,3,13.5,3.8,20.3c0,0.1,0.1,0.2,0.1,0.3
		c0.2,4,0.3,8.1,0.9,12.1c0.6,4.6,1.7,9.1,2.4,13.6c0.7,4.7,1.4,9.4,2.2,14.1c0.4,2.4,0.7,4.9,1.1,7.3c0.4,2.7,1.2,5.5,0.8,8.2
		c-2.2-0.5-4.9-1.1-7.1-0.6c0,0,0,0,0,0c-31.2-2.1-62.8,1.2-93.8-3.9c0,0,0,0,0,0c0.2-7.8,2-15.4,3.6-23c0.8-3.8,1.6-7.6,2.1-11.4
		c0.5-3.5,0-7.1,0.7-10.5c0.1-0.1,0.2-0.2,0.2-0.4c0.3-8.4,2.7-16.8,4-25.1c1.2-7.8,2-15.6,2.6-23.5c2,0.3,4.1,0.2,6.2-0.3
		c0.4,0,0.8-0.1,1.2-0.3c-0.5-0.6-1-1.3-1.5-1.9c-2.1-0.5-3.9-1.9-4.7-3.7c0-0.3,0.1-0.7,0.1-1c0.2-0.9,0.4-1.7,0.5-2.6
		c0-0.1,0-0.1,0-0.2c0.6-1.2,1.5-2.2,2.6-2.9c2.1-1,4.5-1,6.8-0.7c0,0,0,0,0,0c0,0,0.1,0,0.1,0.1c0.8,0.4,1.5-0.8,0.7-1.2
		c-0.2-0.1-0.3-0.2-0.5-0.3c0-0.3-0.1-0.5-0.5-0.6c0,0,0,0-0.1-0.1c-2.5-0.9-5.2-2.3-7.9-2.5c1-4.2,1.7-8.5,1.5-12.9
		c-0.3-4.8-2.5-9.5-1.6-14.2c0.1-0.6-0.8-0.9-1-0.3c-0.5,2.9,0,5.6,0.6,8.3c0,0,0,0-0.1,0c-2.5-5.4-3.9-11.3-3.8-17.2
		c0-5.2,1.5-10.5-0.5-15.5c-0.2-0.6-1.2-0.3-1,0.3c2.2,5.7,0.1,11.9,0.5,17.8c0.1,1.8,0.3,3.6,0.7,5.3c-2.1-2.1-4.5-3.8-7.4-4.6
		c-0.6-0.2-0.9,0.7-0.3,0.9c3.2,0.9,5.6,2.9,7.8,5.3c0.1,0.1,0.1,0.1,0.2,0.1c0.7,2.8,1.6,5.5,2.9,8.2c0.1,0.1,0.2,0.2,0.3,0.2
		c-0.4,1.1-0.9,2.2-1.3,3.2c-0.3-1.2-0.8-2.4-1.1-3.4c-1-3-2.2-5.8-3.6-8.7c-0.3-0.6-1.1-0.1-0.9,0.5c1.3,2.7,2.5,5.5,3.5,8.4
		c0.4,1.2,0.8,2.4,1.1,3.6c0.3,1.4-0.3,2.4-0.8,3.5c-2.2-3.8-4.2-7.7-5.9-11.7c-0.3-0.6-1.1-0.1-0.9,0.5c1.8,4.1,3.9,8.1,6.1,12.1
		c0,0.1,0.1,0.1,0.1,0.2c-0.7,1.2-1.7,2.1-2.2,3.3c-0.4,1-0.7,1.8-1.4,2.7c-0.3,0.4-0.5,0.8-0.7,1.2c-3.7-2.3-8.1-4.5-12.5-5
		c-1.2-0.1-2.7,0-3.8,0.5c0.2-0.3,0.4-0.6,0.7-0.9c0.7-0.8,2.2-1.8,3.2-0.9c0.5,0.4,1.2-0.3,0.7-0.7c-0.8-0.7-1.7-0.7-2.6-0.5
		c0-5.5,3.1-10.6,5.4-15.6c2-4.4,3.7-8.8,5.1-13.4c1.5-5,3.9-10.1,7.4-14.1c3.5-4.1,8.8-6,14.1-6.5c0.6-0.1,0.6-1,0-1
		c-4.8,0.4-9.6,1.9-13.2,5.1c-3.7,3.3-6.5,8.5-8.2,13.1c-1,2.6-1.6,5.3-2.5,8c-1,3-2.4,5.9-3.7,8.8c-2.3,5-5.4,10.3-5.3,15.9
		c0,0.1,0,0.1,0,0.2c-0.1,0.1-0.3,0.2-0.4,0.3c-1.3,1-2.1,2.5-2.3,4.2c0,0.2,0,0.3,0.1,0.3c0,0.2,0,0.4,0.1,0.6c0,0,0,0.1,0.1,0.1
		c-0.2,0.2-0.4,0.5-0.6,0.7c-1.1,1.7-1.1,3.8-0.8,5.7c0,0.1,0,0.1,0.1,0.1c-0.1,2.4,2.3,4.7,4,6.2c1.7,1.6,3.8,2.4,5.9,3.4
		c2.8,1.2,5.4,2.8,8.2,4.1c2,0.9,4,1.6,6,2c-0.6,8.5-1.5,16.9-2.8,25.3c-1.2,7.6-3.3,15.1-3.7,22.8c0,0,0,0,0,0
		c-1.1,3.9-0.5,8.1-1,12.1c-0.5,3.8-1.4,7.6-2.2,11.4c-1.6,7.6-3.3,15.2-3.5,23c0,0.5,0.6,0.6,0.9,0.3c31.4,5.2,63.3,1.7,94.8,3.9
		c0.2,0,0.3-0.1,0.4-0.2c0.9,0,1.8,0.1,2.6,0.2c1.2,0.1,2.4,0.3,3.6,0.6c0.4,0.1,0.7-0.3,0.6-0.6c0,0,0,0,0,0
		c0.7-4-0.7-8.6-1.3-12.6c-0.8-5-1.5-10-2.3-15c-0.7-4.8-1.7-9.5-2.5-14.2c-0.9-5-1-10.1-1.2-15.2c0-0.2-0.1-0.3-0.2-0.4
		c-0.8-6.2-2.4-12.3-3.5-18.4c-1.3-6.9-1.5-13.8-2.7-20.7c3.6-0.7,7.2-1.5,10.7-2.5c2.2-0.6,4.3-1.2,6.4-1.8c1-0.3,1.8-0.5,2.5-1.4
		c0,0,0,0,0,0c0.6,0,1.3,0,1.8-0.1c3.7-0.9,5.8-5.7,5.8-9.1c0-0.1,0-0.1,0.1-0.2C240.7,144.3,240.9,142.6,240.6,140.9z M209.9,124.7
		C209.9,124.7,209.9,124.7,209.9,124.7c0.3,0.1,0.6,0.3,1,0.4c0.3,1.2,0.7,2.4,1.3,3.5c1.6,2.8,3.7,4.8,4.5,8c0.6,2.1,1.2,4,3.2,5.1
		c0,0.1,0.1,0.2,0.1,0.3c-2.6,0.4-5.2,1.2-7.9,1.6c-0.3,0-0.4,0.2-0.5,0.4c-0.4,0-0.8,0-1.1,0C208.6,137.8,206.9,131,209.9,124.7z
		 M134.9,136c0.4-0.8,0.5-1.7,1.1-2.4c0.5-0.6,1-0.8,1.3-1.5c0.5-1,1.1-2.1,1.5-3.2c0.3-0.6,0.3-1.3,0.3-2c0.2,0,0.4-0.1,0.5-0.3
		c0.5-1.2,1-2.5,1.5-3.7c0.2,1.1,0.4,2.2,0.6,3.3c0.6,4.9-0.2,9.9-1.3,14.6c-0.6,0-1.2,0.1-1.8,0.2c-1.8-0.9-3.8-1.3-5.7-2
		C133.2,137.8,134.3,137.1,134.9,136z M130.2,155.2c-2.2-1.1-4.3-2.3-6.6-3.3c-2-0.9-3.9-1.6-5.5-3c0,0,0,0,0,0
		c-0.1-0.1-0.2-0.1-0.2-0.2c0,0-0.1-0.1-0.1-0.1c0,0,0,0,0,0c-1.5-1.3-3-2.9-3.3-4.8c-0.4-2.5,1.7-4.6,3.6-6.1
		c0.5-0.4,0-1.2-0.5-0.8c-1.3,1-2.8,2.3-3.6,3.9c0-0.9,0.2-1.8,0.6-2.6c0.6-1.1,1.9-2.3,3.3-2.1c0.6,0.1,0.6-0.9,0-1
		c-0.7-0.1-1.4,0.1-2,0.4c0.3-0.5,0.6-1,1-1.4c0.4-0.1,0.8-0.1,1.2-0.2c0.9-0.1,1.8,0.1,2.7,0.2c1.2,0.2,2.5,0.6,3.6,1
		c2.4,0.9,4.6,2,6.8,3.3c-0.4,0.1-0.6,0.6-0.1,0.9c1.9,0.9,4.1,1.3,6.1,2.1c-1.2,0.3-2.3,0.8-3.3,1.3c-0.6,0.3-0.1,1.1,0.5,0.8
		c2.4-1.3,5.5-2.2,8.3-1.5c1.3,0.3,2.6,0.8,3.9,1.3c-3.7,0.3-7.4,2-8.5,5.8c-0.4,0.8-0.6,1.7-0.7,2.8c-0.1,2.9,1.5,5.2,3.8,6.2
		C137.3,158.2,133.8,157,130.2,155.2z"/>
	<path class="st15" d="M238.9,142.7c-1.5-1.9-4-2.5-6.3-2.8c-0.6-0.1-0.9,0.8-0.3,0.9c1,0.2,2.2,0.2,3.1,0.7c0.8,0.4,2,1,2.6,1.7
		C238.4,143.7,239.3,143.2,238.9,142.7z"/>
	<path class="st15" d="M215.7,95.9c-1.1,6.9-3.4,13.6-4,20.5c-0.1,0.6,0.9,0.6,1,0c0.6-6.9,2.9-13.5,4-20.3
		C216.7,95.6,215.8,95.3,215.7,95.9z"/>
</g>
<g id="head_colour">
	<path class="st16" d="M200.9,82.8c0-0.5,0-1-0.2-1.5c-0.1-0.4-0.5-0.4-0.8-0.2c-0.8-0.8-2-1.4-3.1-1.6c0,0,0,0,0,0
		c-0.1-0.1-0.2-0.1-0.3-0.1c-0.1-0.2-0.3-0.2-0.4-0.2c-0.1-0.1-0.2-0.1-0.3-0.1c0,0,0,0-0.1,0c-0.8-0.4-1.7-0.8-2.6-1.1
		c0.3-0.1,0.5-0.5,0.2-0.8c-0.4-0.4-0.7-0.8-0.9-1.3c-0.2-0.5-0.2-1-0.5-1.4c-0.4-0.7-1.2-1-2-1.2c0.1-0.3,0.1-0.7,0.1-1.1
		c0-0.8-0.3-1.3-0.8-1.6c-0.1-0.2-0.2-0.3-0.3-0.5c0.3-0.5,0.4-1.1,0.4-1.7c0,0,0,0,0,0c0.3-0.6,0.6-1.3,0.9-1.9c0,0,0-0.1,0-0.1
		c5-10.2,6.6-24.3-0.5-33c0.1-0.1,0.2-0.3,0.1-0.4c-1.8-5.8-6.5-8.2-11.8-10c-0.1-0.1-0.2-0.2-0.3-0.2c-7.1-1.8-14.7,0.5-19.5,6
		c-0.4,0.5,0.2,1.1,0.7,0.7c0.1-0.1,0.2-0.2,0.3-0.3c-1.2,1.3-2.3,2.7-3.2,4.2c-0.1,0.2-0.1,0.4,0,0.5c-0.7,1.2-1.3,2.5-1.8,3.9
		c-0.3,0.2-0.6,0.5-0.8,1c-3.8,11-4.9,26,1.2,36.4c0.1,0.2,0.2,0.3,0.4,0.5c0,0.1,0.1,0.3,0.2,0.4c0,0,0,0,0,0.1
		c0,0.9,0.1,1.7,0.4,2.4c-0.2,0-0.3,0.1-0.4,0.2c-0.1-0.7-0.2-1.3,0-1.7c0.1-0.2,0-0.4-0.1-0.6c0.1-0.2,0.1-0.6-0.3-0.7
		c-1.6-0.6-2,2.3-1.9,3.3c0,0.2,0.1,0.4,0.1,0.6c-2.4-1-2.2,1.6-1.7,3.3c0.6,1.8,1.8,5.2,3.8,6.3c-0.2,0.1-0.4,0.1-0.7,0.1
		c-0.1,0-0.1,0-0.2,0c0,0,0,0,0,0c-0.3,3.7,5.2,4.6,7.8,5.1c9.7,1.9,18,0.3,26.6-3.6c0.1,0,0.1,0,0.2,0c0,0.2,0.2,0.4,0.5,0.4h2.3
		c0.3,0,0.4-0.2,0.4-0.4c0.2,0,0.3,0,0.5,0c1-0.1,2.1-0.4,3.1-0.7c0.1,0,0.1,0,0.2,0c0,0,0.1,0,0.1,0c0,0.1,0,0.1,0,0.2
		c0-0.1,0-0.1,0-0.2c0.5-0.1,1-0.4,1.5-0.8c0.5-0.4,1-0.8,1.4-1.3c1-1.1,1.8-2.5,2-3.7C201,83.7,201,83.2,200.9,82.8z M166.6,24
		c-0.1,0.1-0.1,0.2-0.2,0.3c-0.7,0.3-1.4,0.7-2.1,1.1c-0.1-0.1-0.2-0.1-0.3-0.1c-0.1,0-0.2,0-0.3,0.1
		C164.6,24.8,165.6,24.4,166.6,24z M156.2,80.9C156.2,81,156.2,81,156.2,80.9c-0.1-0.5-0.2-1-0.2-1.6c0.1,0.2,0.2,0.4,0.4,0.6
		C156.3,80.3,156.2,80.6,156.2,80.9z M157.7,82.1c-0.1-0.1-0.2-0.2-0.4-0.2c0-0.3-0.1-0.5-0.1-0.7c0.2,0.3,0.5,0.5,0.7,0.8
		C157.9,82,157.8,82,157.7,82.1z M160.1,84.2C160.1,84.2,160.1,84.2,160.1,84.2c-0.1-0.2-0.2-0.3-0.3-0.3c-0.3-0.4-0.6-0.7-0.9-1.2
		c0.6,0.4,1.2,0.8,1.8,1.2C160.6,84,160.4,84.1,160.1,84.2z M186.3,62.6c-0.6,2-1.5,4-2.3,6c-0.1,0.2-0.1,0.4-0.1,0.5
		c-0.1,0.1-0.1,0.1-0.1,0.2c-0.2,0.3-0.3,0.6-0.3,0.8c-0.3,0.2-0.5,0.4-0.8,0.5c-2.3,1.3-5,2.1-7.5,2.7c-7.2,1.6-13.8-1.4-17.5-7.6
		c-0.1-0.1-0.2-0.3-0.3-0.4c-3.2-10.2,0.2-22.3,3.9-32c0.1-0.2,0.1-0.4,0.1-0.6c0.4-0.4,0.5-0.8,0.5-1.3c0.5-0.6,1-1.2,1.6-1.7
		c0.4-0.3,0.8-0.7,1.1-1c0.8-0.5,1.7-0.9,2.5-1.3c0.1,0,0.2,0,0.3-0.1c0.3,0.2,0.7,0.3,1.1,0.3c2.3-0.2,4.7-0.2,6.8,0.4
		c0.2,0.4,0.4,0.7,0.8,0.9c1.2,0.8,2.2,1.7,3.2,2.7c2.3,5.3,4.2,10.7,5.8,16.2c0.7,2.4,0.9,6.4,2.2,8.9
		C186.9,58.8,186.9,60.8,186.3,62.6z M184.9,28.6c-0.1-0.1-0.2-0.1-0.2-0.2c-1.2-2.1-3.2-3.2-5.6-3.9c-2.7-0.9-5.5-1.5-8.2-1.5
		c1.9-0.2,3.8-0.1,5.8,0.3c0,0,0.1,0,0.1,0.1c5.1,1.7,9.8,3.7,11.8,8.9c0,0-0.1,0-0.1,0C187.4,30.9,186.2,29.8,184.9,28.6z
		 M189.8,74.4c-0.3,0-0.5,0.3-0.4,0.6l0.1,0.5c0,0,0,0.1,0,0.1c-0.1,0-0.1,0-0.2,0.1c0,0-0.1,0.1-0.1,0.1c-0.2,0-0.4,0-0.5,0.2
		c0,0.1-0.1,0.2-0.1,0.3c0,0,0,0.1,0,0.1c0,0-0.1,0-0.1,0c0.5-0.7,0.9-1.5,1.2-2.3c0.1,0,0.2,0.1,0.3,0.1
		C189.9,74.2,189.8,74.3,189.8,74.4z"/>
</g>
<g id="head_drawing">
	<path class="st4" d="M190.1,55.9c-1.3,3.8-2.6,7.7-5,10.9c-0.1,0.1-0.2,0.2-0.3,0.4c4-7.8,5.2-17.1,4.9-25.7c0-0.6-1-0.6-1,0
		c0.2,4.8-0.1,9.7-1.1,14.5c-0.5-3.3-2-6.3-2.9-9.5c-1.1-4-1.9-8.1-3.6-11.9c0.7,0.5,1.3,1,2,1.6c1.2,1.1,1.9,2.6,2.6,4
		c0.3,0.6,1.1,0.1,0.9-0.5c-0.7-1.5-1.5-3-2.7-4.2c-1.1-1.1-2.4-2-3.7-2.9c-0.4-0.8-1-1.6-1.5-2.3c0-0.1,0-0.3-0.2-0.4
		c-0.1-0.1-0.2-0.1-0.2-0.2c0-0.1-0.1-0.1-0.1-0.2c0,0,0,0,0,0.1c-4.6-3.3-12.2-3.8-15.8,1.1c0-0.1-0.1-0.1-0.1-0.2
		c-0.1,0.1-0.1,0.2-0.2,0.3c-0.5,0.8-0.8,1.7-1.2,2.6c-1.3,1.3-2.8,2.6-3.5,4.3c-0.2,0.6,0.7,0.9,1,0.3c0.3-0.8,0.9-1.4,1.5-2.1
		c-0.4,1.2-0.9,2.5-1.2,3.8c-1.8,6-3.5,12-3.1,18.3c-0.1,0.1-0.2,0.2-0.1,0.4c0.5,4.1,2.2,9.2,5.2,12.2c3.1,3.1,7.6,4.3,11.8,4
		c3.1-0.2,6.1-1.1,8.8-2.6c0.2,0.3,0.6,0.4,0.9,0c0.3-0.4,0.6-0.8,0.8-1.2c0.6-0.5,1.1-0.9,1.6-1.5c3.4-3.6,5-8.4,6.6-13
		C191.2,55.6,190.3,55.4,190.1,55.9z M182.2,69.9c-2.3,1.9-5.1,3-8.2,3.5c-4.4,0.7-9.2-0.1-12.5-3.3c-2.6-2.5-4.3-6.8-4.9-10.5
		c0-0.1,0.1-0.1,0-0.2c-0.6-6,0.7-11.9,2.4-17.7c0.4-1.5,0.9-3,1.4-4.5c0.2,0,0.4,0,0.5-0.2c0.1,0,0.1,0,0.2,0
		c6.5-1.4,13.1-1.6,19.6-0.6c0.3,0.7,0.5,1.4,0.8,2.1c1.2,3.1,1.7,6.3,2.7,9.5c1.1,3.4,2.7,6.6,2.7,10.2c0,0.2,0.1,0.3,0.2,0.4
		C186,62.6,184.4,66.5,182.2,69.9z"/>
	<path class="st4" d="M201.3,80.9c-0.9-1-2.8-1.7-4.4-2.2c0,0,0,0,0-0.1c0,0-0.1,0-0.1,0c-0.1-0.1-0.1-0.1-0.2-0.2
		c-0.3-0.1-0.7-0.2-1-0.3c-0.1,0-0.2-0.1-0.4-0.1c0,0,0,0,0,0c-0.4-0.1-0.8-0.2-1.2-0.4c0-0.2,0-0.4-0.2-0.5
		c-1.1-0.8-1.1-2.4-1.9-3.4c-0.4-0.6-1-1.1-1.7-1.2c-0.1-0.8-0.3-1.6-0.7-2.3c0-0.1-0.1-0.1-0.1-0.2c2.9-6.3,5.1-13,5.3-20.1
		c0-2.2-0.1-4.3-0.5-6.4c0-0.1,0.1-0.1,0-0.2c-0.7-6-3.7-12.8-8.1-17c-4.3-4-11.4-5.8-17.1-4.9c-5.5,0.9-10.1,4.7-13.1,9.2
		c-3.4,5.2-4.6,11.3-5.2,17.4c-0.5,2.7-0.8,5.5-0.8,8.3c-0.1,6.1,0.8,13.3,4.3,18.5c0,0,0,0,0,0c-1.8,1.1-2.4,2.5-2.3,3.9
		c0,0,0,0,0,0c-2.6-0.7-1.5,3.5-1.1,4.7c0.6,1.9,1.5,4.9,3.4,6.2c-0.7,1.3,0.9,2.8,1.9,3.6c2.6,1.9,6.5,2.1,9.6,2.4
		c3.9,0.4,7.8,0.4,11.7-0.2c3.5-0.5,6.4-1.9,9.3-3.8c0.1,0,0.2,0,0.3,0c1.6,0.3,2.9,0.5,4.5,0.3c1.2-0.2,2.5-0.5,3.7-0.9
		c0.1,0.1,0.3,0.2,0.5,0.1c3.2-1.2,5.6-4,6.1-7.4C201.9,82.8,202,81.6,201.3,80.9z M190.3,73.4c1,0.3,1.4,1.7,1.7,2.5
		c0.2,0.5,0.4,0.9,0.7,1.3c-1.1-0.3-2.2-0.7-3.3-0.9C189.9,75.3,190.2,74.4,190.3,73.4z M168.3,22.5c5.4-1.2,12.6,0.5,16.8,4.2
		c1.8,1.6,3.4,3.7,4.7,6c-1.1-1.5-2.3-3-3.8-4.3c-0.5-0.6-1.1-1.2-1.8-1.7c-4.2-3.2-10.4-5-15.6-3.9c-3.7,0.8-7.5,3-10.2,5.9
		C160.8,25.7,164,23.4,168.3,22.5z M200.7,84.1c-0.5,2.4-2.1,4.5-4.3,5.6c0,0,0,0,0,0c-1.3,0.3-2.6,0.7-3.9,1
		c-0.9,0.2-1.7,0.2-2.5,0.2c0.1-0.2,0.1-0.5-0.2-0.6c-0.8-0.4-1.5-0.8-2.2-1.4c-0.5-0.4-1-0.9-1.6-1.1c-0.6-0.2-0.8,0.7-0.3,0.9
		c0.7,0.3,1.2,0.8,1.7,1.3c0.4,0.3,0.9,0.6,1.3,0.8c-1.3-0.2-2.6-0.4-4-0.4c-1.8,0-3.5,0.7-5,1.6c-0.5,0.3,0,1.2,0.5,0.8
		c1.6-1,3.2-1.5,4.9-1.5c-1.8,1.1-3.6,2-5.6,2.6c-2.7,0.7-5.6,0.8-8.4,0.9c-2.8,0-5.6-0.2-8.4-0.7c-1.3-0.2-2.5-0.4-3.8-0.8
		c-0.3-0.1-4.6-1.9-4-3.3c1.5,0.7,4.3,0.6,5.4,0.6c3.6,0.3,7.2,0.2,10.8-0.1c0.6-0.1,0.6-1,0-1c-3.6,0.3-7.2,0.4-10.8,0.1
		c-0.9-0.1-1.8-0.2-2.7-0.3c-0.6-0.1-1.1-0.1-1.7-0.2c-0.2,0-0.3,0-0.4-0.1c-0.1,0-0.1-0.1-0.2-0.1c0,0,0,0,0,0c0,0-0.1,0-0.1-0.1
		c0,0,0,0,0,0c-1.5-0.5-2.1-2.5-2.7-3.8c-0.1-0.2-2.3-6-0.9-5.7c0.2,0.1,0.3,0,0.5-0.1c0.8,2.6,3.7,5.2,5.7,6.8
		c0.5,0.4,1-0.5,0.5-0.8c-2.6-2-7.9-6.7-3.9-9.6c0.6,3.4,2.2,6,4.6,7.9c-0.2,0-0.3,0.1-0.5,0.2c0.7,0.1,1.1,0.6,1.4,1.1
		c0.3-0.2,0.4-0.3,0.1-0.4c0,0,0.1-0.1,0.1-0.1c0.8,0.5,1.6,1,2.6,1.4c5.3,2.3,10.9,3.3,16.7,3.1c0.6,0,0.6-1,0-1
		c-5,0.2-10-0.6-14.7-2.4c-2.2-0.8-4.6-1.9-6.3-3.6c-1.5-1.5-2.4-3.5-2.8-5.6c3.5,4.1,9,5.9,14.3,6.3c3.7,0.2,7.5-0.2,11.2-0.8
		c3.9-0.6,7.8-1.2,11.6,0.1c1.2,0.4,2.5,1,3.1,2.2c0.3,0.5,1.1,0.1,0.8-0.5c-0.7-1.3-2-2-3.4-2.5c0,0-0.1,0-0.1-0.1
		c-0.1,0-0.3-0.1-0.4-0.1c-0.5-0.2-1.1-0.4-1.6-0.6c-0.2-0.1-0.3,0-0.4,0.1c-5.3-0.9-10.9,0.9-16.1,1.2c-6.6,0.4-13.9-0.8-18.4-6.1
		c-4.4-5.3-5.3-13.6-5.1-20.2c0.1-1.6,0.2-3.3,0.4-4.9c0.1-0.1,0.2-0.2,0.2-0.4c0.1-0.9,0.2-1.9,0.3-2.9c0.5-2.8,1.3-5.7,2.2-8.4
		c-0.1,0.5-0.1,1-0.2,1.5c-0.4,3.4-0.6,6.7,0.1,10c0.1,0.6,1,0.3,0.9-0.3c-0.6-3-0.5-5.9-0.2-8.9c0.3-2.8,0.6-5.9,1.9-8.5
		c2.3-4.3,7.5-8,12.3-9c5.1-1,11.7,0.9,15.6,4.5c0,0.1,0.1,0.2,0.1,0.2c0.2,0.2,0.4,0.4,0.7,0.6c3,3.3,4.2,7.8,5.2,12.1
		c0.1,0.6,1.1,0.3,0.9-0.3c-0.6-2.5-1.2-5-2.3-7.4c3.4,5,4.9,11,4.7,17.3c-0.3,8.9-4,17.1-8.1,24.8c-0.8-0.1-1.5-0.2-2.3-0.3
		c-4.4-0.3-8.8,0.6-13.2,0.3c-8.8-0.6-17.8-6.9-16.6-16.6c0.1-0.6-0.9-0.6-1,0c-1,8.3,5.3,14.9,12.9,16.9c4.6,1.2,9.2,0.6,13.9,0.4
		c5.5-0.2,10.6,1.1,15.7,2.8c0,0.1,0.1,0.2,0.3,0.3c1.4,0.5,2.7,1,4,1.6C200.8,81.5,201.1,82.4,200.7,84.1z M189.3,73.2
		c0,1-0.4,1.9-1,2.8c0,0,0,0,0,0c-0.6-0.1-1.2-0.3-1.7-0.4c0.8-1.5,1.6-3,2.3-4.6c0.2,0.5,0.3,1.1,0.4,1.6
		C189.2,72.8,189.2,73.1,189.3,73.2z"/>
	<path class="st4" d="M192.5,79.1c-0.6-0.2-0.8,0.7-0.3,0.9c2.6,0.9,5.6,2,6.2,5.1c0.1,0.6,1,0.3,0.9-0.3
		C198.7,81.5,195.4,80.1,192.5,79.1z"/>
	<path class="st16" d="M182.7,33c-1-0.9-2.2-1.6-3.4-2.1c0.4,0.1,0.8,0.1,1.1,0.2c0.1,0,0.2,0,0.3-0.1c0,0,0,0,0.1,0
		c0.6,0.2,0.8-0.7,0.3-1c-0.2-0.1-0.5-0.2-0.7-0.3c-1.7-1.5-3.9-2.3-6.2-2.5c0-0.2-0.2-0.5-0.5-0.5c-0.8-0.1-1.7-0.1-2.5-0.1
		c0-0.3-0.3-0.6-0.6-0.5c-1.4,0.2-2.6,0.6-3.9,1.2c-0.8,0.3-1.6,0.6-2.3,1c-0.5,0.2-0.9,0.4-1.4,0.7c-0.3,0.2-0.3,0.5-0.2,0.7
		c-0.3,0.1-0.6,0.3-0.8,0.4c0,0,0,0-0.1,0.1c-0.8,0.4-1.6,0.8-2.4,1.2c-0.5,0.3-0.2,1.1,0.4,0.9c0.3-0.1,0.5-0.2,0.8-0.3
		c-1,0.6-2,1.3-2.9,2.2c-0.5,0.4,0.2,1.2,0.7,0.7c3.1-3,7.2-4.4,11.4-4.6c4.1-0.1,9,0.5,12.1,3.4C182.5,34.1,183.2,33.4,182.7,33z"
		/>
</g>
</svg>
