<svg xmlns="http://www.w3.org/2000/svg" viewBox="0 0 112.52 343.56"><defs><style>.cls-1{fill:#f9b073;}.cls-2{fill:#b25704;}.cls-3{fill:#351703;}.cls-4{fill:#d6c9bf;}.cls-5{fill:#160b03;}.cls-6{fill:#fff;}.cls-7{fill:#190b02;}.cls-8{fill:#0f0702;}.cls-9{fill:#2d1406;}.cls-10{fill:#edc25b;}.cls-11{fill:#d19d34;}.cls-12{fill:#1580b5;}.cls-13{fill:#102773;}</style></defs><title>Character_1_First_screen</title><g id="Shirt_drawing" data-name="Shirt drawing"><path class="cls-1" d="M192.26,56a3.29,3.29,0,0,0-.15-.83.27.27,0,0,0-.09-.13c0-.26-.25-.52-.51-.49a2,2,0,0,0-1.07.5.5.5,0,0,0-.36.25.93.93,0,0,0-.17.55,2,2,0,0,0-.08.34.66.66,0,0,0,.16.57,5.74,5.74,0,0,1,0,.86c-.06.71-.11,1.41-.12,2.11l-.07.82a.25.25,0,0,0-.35.18.61.61,0,0,0-.45-.51c0-.22-.09-.45-.14-.66a1.38,1.38,0,0,0-.11-.3l-.09-2.62a9.61,9.61,0,0,0-.21-3.07c-.16-.39-.38-.47-.61-.82l0-.08a10.16,10.16,0,0,0-.83-2.36c-.13-.84-.17-1.71-.27-2.58a.57.57,0,0,0-.47-.52c0-.05,0-.11,0-.16a.44.44,0,0,0,.23-.47,7.56,7.56,0,0,0-1.76-3.68c-.09-.12-.25-.36-.46-.62A.47.47,0,0,0,184,42l-.33-.26a1.86,1.86,0,0,0-.5-.37c-5.36-3.66-13.55-1.7-18.89.87a.54.54,0,0,0-.18.75c-2.07,1.87-1.7,4.8-.79,7.5a.58.58,0,0,0-.22.29,27.27,27.27,0,0,0-1.87,8.27.48.48,0,0,0,.38.52c-.05.66-.07,1.33-.06,2a.51.51,0,0,0-.21-.11,27.5,27.5,0,0,0-.83-3.14.29.29,0,0,0,.14-.31,7.23,7.23,0,0,0-.77-2.19.23.23,0,0,0-.25-.13l-.16-.12a.44.44,0,0,0-.06-.18,1.2,1.2,0,0,0-1.71-.43,1.39,1.39,0,0,0-.54.81,1.46,1.46,0,0,0,0,.54,1.69,1.69,0,0,0-.11.57.26.26,0,0,0,.14.23.55.55,0,0,0,0,.12,4.83,4.83,0,0,0,.49,1.09l.77,1.51.62,2a.26.26,0,0,0,.12.16c.09.49.19,1,.3,1.46a2.51,2.51,0,0,0,1.06,1.76.6.6,0,0,0,.49,0,.53.53,0,0,0,.18,0l0,.11a.26.26,0,1,0,.5-.15l-.12-.52c0-.09,0-.19,0-.28a30.2,30.2,0,0,0,1.08,5.3A20.65,20.65,0,0,0,165.15,75a1.51,1.51,0,0,0-.07.23.3.3,0,0,0-.25.35q.67,4.5,1.46,9a.22.22,0,0,0,.18.19c.06.24.12.48.19.71a4.89,4.89,0,0,0,3.53,3.76,1.24,1.24,0,0,0,.42,0,8.09,8.09,0,0,0,3.95.83,17.25,17.25,0,0,0,5.11-.36,13,13,0,0,0,3.25-1l.18-.09a7.31,7.31,0,0,0,5.18-3.88,1.12,1.12,0,0,0,.45-.79l.18-1.24s0,0,0,0a.3.3,0,0,0,0-.05,29.39,29.39,0,0,0,0-5h0a6.4,6.4,0,0,0,.14-.91,5.31,5.31,0,0,0,0-1.13,1.88,1.88,0,0,0,0-.22,20,20,0,0,0,0-2.39.52.52,0,0,0-.25-.45,20.82,20.82,0,0,0,.76-7.45.49.49,0,0,0,.61.34.87.87,0,0,0,.46-.3l.06-.06c1.17-.59,1.12-4,1.11-5.19.06-.46.13-.91.2-1.36A5,5,0,0,0,192.26,56ZM159,56.38h0a1.69,1.69,0,0,0-.85-.17.55.55,0,0,1,0-.13.25.25,0,0,1,.13-.19h.12a.17.17,0,0,1,.09.07.52.52,0,0,0,.59.24A.55.55,0,0,0,159,56.38ZM160.48,63l-.21-.79.14-.08.18.65A2.39,2.39,0,0,0,160.48,63Z" transform="translate(-120.87 -29.48)"/><path class="cls-2" d="M185.17,43.52a10.82,10.82,0,0,1,1.3,3.19,6.68,6.68,0,0,0-.08-.93,5.79,5.79,0,0,0-2-3.23A8.71,8.71,0,0,1,185.17,43.52Z" transform="translate(-120.87 -29.48)"/><path class="cls-2" d="M188.53,54.63a12.1,12.1,0,0,0-.17-1.68,5,5,0,0,0-.13-.52C188.37,53.17,188.45,53.89,188.53,54.63Z" transform="translate(-120.87 -29.48)"/><path class="cls-2" d="M161.76,65.77v.11a.67.67,0,0,1,.51,0c-.12-1.2-.22-2.4-.41-3.58-.07-.43-.15-.85-.22-1.28a.88.88,0,0,1-.17-.49c0-.16,0-.31,0-.47q-.55-2.74-1.34-5.42a.26.26,0,1,0-.5.15l.08.28a2,2,0,0,0-.71-.69,1.5,1.5,0,0,0-1.44.17c-1,.72-.95,2.24-.55,3.3.33.89.86,1.68,1.23,2.55.51,1.18.68,2.44,1.12,3.63S160.63,66,161.76,65.77ZM159.38,62a15.75,15.75,0,0,0-1-2.58c-.48-1-1.23-2-1.11-3.18.13-1.32.79-1.25,2.21-.71.05,0,.2.21.28.25a.27.27,0,0,0,.18,0c.1.37.21.75.31,1.12a3.27,3.27,0,0,0-2.4-1.12c-.34,0-.34.56,0,.56a2.66,2.66,0,0,1,1.16.29,7.72,7.72,0,0,0,0,2.86c.06.36.56.2.5-.15a6.92,6.92,0,0,1-.05-2,.26.26,0,0,0,.29-.27,3.11,3.11,0,0,1,.87,1.51.25.25,0,0,0,.13.18c.23,1,.42,2,.59,3a.72.72,0,0,0-.59-.09c-.53.16-.65.85-.53,1.35s.58.2.5-.15c0-.19-.06-.51.13-.64s.32,0,.31.14a.25.25,0,0,0,.33.26l0,.17c.11.74.18,1.49.25,2.25C160,65.69,159.71,63.19,159.38,62Z" transform="translate(-120.87 -29.48)"/><path class="cls-2" d="M189.41,81.85c0-1.62,0-3.24,0-4.86q0-1.23-.06-2.45,0-.68,0-1.36c0-.07,0-.37-.08-.68l.07-.26a3.34,3.34,0,0,1-.14-.87l-.14-.05c0,.08,0,.17-.05.25h0s0,0,0,.06a.81.81,0,0,1-.21.57s0,.09,0,.14c-.08.24-.17.48-.27.71a.89.89,0,0,1,.2.81l-.06.21c.06-.12.12-.24.18-.37,0,.73.05,1.47.07,2.2q.08,3.27,0,6.53a.29.29,0,0,0,0,.08c-.43,4.52-6.33,6.72-9.85,7.3-4.25.69-11.15.08-12.53-5.25a.24.24,0,0,0-.21-.19q-.8-4.35-1.28-8.75s0,0,.05,0c-.22-.35-.46-.7-.71-1a1.43,1.43,0,0,1,0,.23h0a.28.28,0,0,0,0,.05s0,.08,0,.12a.24.24,0,0,0,.06.18q.5,4.82,1.38,9.57a.22.22,0,0,0,.23.2c1.53,5.36,8.28,6.15,12.69,5.52,4-.56,10.68-3.08,10.68-8.43A.28.28,0,0,0,189.41,81.85Z" transform="translate(-120.87 -29.48)"/><path class="cls-2" d="M192.17,54.32a1.17,1.17,0,0,0-1.68.05.25.25,0,0,0-.26.27v0a.27.27,0,0,0,.07.19.71.71,0,0,1-.14.15.81.81,0,0,1-.73,1.07h-.14c0,.72.09,1.41.09,1.68,0,.63,0,1.28,0,1.92a5.11,5.11,0,0,1-.54-1.35l-.06.1c0,.16,0,.32.06.47a.93.93,0,0,1-.13.65,4.8,4.8,0,0,0,.42.74.26.26,0,0,0,.24.11c0,1.38,0,2.77,0,4.16h-.07a1,1,0,0,1-.07.55l.13.15c0,.11,0,.21,0,.32a.88.88,0,0,1,.43.05v-.1a1.53,1.53,0,0,0,1.88-.67,3.59,3.59,0,0,0,.51-1.83c.08-1.33.08-2.59.28-3.92S193.22,55.37,192.17,54.32Zm-2.31,6.42,0-1.29.14.39,0,0a3.05,3.05,0,0,1,0,1.81.27.27,0,0,0,0,.17,1,1,0,0,0-.22.09Zm2-1a15.85,15.85,0,0,0-.18,2.06c0,.42,0,.84,0,1.26-.06.8-.85,2.93-1.86,1.93l0-2.45a.21.21,0,0,0,.18,0,.47.47,0,0,1,.72.55.26.26,0,1,0,.5.15,1.07,1.07,0,0,0-.7-1.32l0,0a3.65,3.65,0,0,0-.23-2.67.23.23,0,0,0-.25-.13.48.48,0,0,0,.14-.15.28.28,0,0,0-.25-.41.27.27,0,0,0,0-.16q0-.22.06-.44a2.81,2.81,0,0,1,.24-.74,1.24,1.24,0,0,1,1.21-.76c.33,0,.33-.53,0-.56a1.67,1.67,0,0,0-1.57.92V56c.31,0,.33-.05.56-.38a.24.24,0,0,0-.09-.36c.45-.56,1.13-.9,1.62,0a3.59,3.59,0,0,1,.17,1.37A18.89,18.89,0,0,1,191.85,59.72Z" transform="translate(-120.87 -29.48)"/><path class="cls-2" d="M180,83.24a9.35,9.35,0,0,1-4.3,1.52,3.63,3.63,0,0,1-1.18-.14c-.59-.19-.85-.64-1.33-1-.18-.14-.16-.22-.37-.31a.25.25,0,0,0-.29.13l0,.11a.3.3,0,0,0,.09.38l.07,0a.24.24,0,0,0,.25,0,.54.54,0,0,0,0,.18l.13.08a.76.76,0,0,1,.44.56,6.32,6.32,0,0,0,2.46.52,10.36,10.36,0,0,0,4.34-1.57C180.53,83.55,180.27,83.06,180,83.24Z" transform="translate(-120.87 -29.48)"/><path class="cls-2" d="M173.48,59.92a4.82,4.82,0,0,1-.88,1.69,2.44,2.44,0,0,0-.81,2.43.26.26,0,1,0,.5-.15c-.4-1.27,1.3-2.31,1.64-3.44,0,0,0-.1,0-.15a.76.76,0,0,1-.17-.3A.73.73,0,0,1,173.48,59.92Z" transform="translate(-120.87 -29.48)"/><path class="cls-2" d="M178.49,63.24a1.21,1.21,0,0,0-1.26.94,2.49,2.49,0,0,1-3.06-.11c-.57-.43-1-.75-1.7-.32-.29.19,0,.67.26.49.54-.35,1.41.58,1.91.8a2.82,2.82,0,0,0,1.46.2,2.9,2.9,0,0,0,1.39-.56.2.2,0,0,0,.19-.15,3.48,3.48,0,0,0,.61-.71.69.69,0,0,1,.2,0C178.82,63.84,178.82,63.28,178.49,63.24Z" transform="translate(-120.87 -29.48)"/><path class="cls-2" d="M180.11,69.65c-1.31,1.56-2.77.76-4.37.52a4.43,4.43,0,0,0-1.59.13,3.56,3.56,0,0,1-3.08-.54c-.28-.2-.54.29-.26.49,1.91,1.33,3.62.18,5.65.7,1.47.38,2.93.41,4-.9C180.71,69.78,180.34,69.38,180.11,69.65Z" transform="translate(-120.87 -29.48)"/><path class="cls-1" d="M139.21,222.76a29.8,29.8,0,0,0-5.31-6.93,21,21,0,0,0-.67-3.83,1.27,1.27,0,0,0-.3-.54,9.35,9.35,0,0,0-.42-1l0-.16a1,1,0,0,0,.6.49c1,2,2,4,3.16,6a1.32,1.32,0,0,0,2.4-1c-.5-2.44-1-4.86-1.61-7.28a18,18,0,0,0-3.3-13.35,36.13,36.13,0,0,1-.77-4.62v0l2.76-16.62a1.22,1.22,0,0,0,.36-.64q.85-3.61,2-7.14a1.22,1.22,0,0,0-1.25-1.6c-.62-.79-2-.86-2.27.37,0,.17-.07.33-.1.5a1.26,1.26,0,0,0-.55.13,1.3,1.3,0,0,0-2.45-.42,1.57,1.57,0,0,0-.54,0,1,1,0,0,0-.57-.2,1.41,1.41,0,0,0-2.19-.67l-.13-.47a1.25,1.25,0,0,0-2.26-.39c-.82-.5-2.1-.16-2,1q1.49,14.51,2.31,29.08a1.33,1.33,0,0,0-.36.87,63.29,63.29,0,0,1-1.25,9.51c-.41,1.9-1.22,3.91-1.07,5.87.21,2.8,2.61,4.84,4.91,6.59.68.66,1.39,1.29,2.14,1.89,2.48,2,4.32,4.72,7,6.44C138.56,225.3,139.83,223.86,139.21,222.76Z" transform="translate(-120.87 -29.48)"/><path class="cls-1" d="M228.18,166.56a1.24,1.24,0,0,0-2.07.2l-.23.46a1.58,1.58,0,0,0-.27-.15c-.1-1.19-1.8-2.1-2.41-.72l-.12.31a1.32,1.32,0,0,0-1.69.09,1.44,1.44,0,0,0-1.12.24l0-.17a1.31,1.31,0,0,0-2.53.7c.1.38.18.76.27,1.14a1.36,1.36,0,0,0-.62,1.39,101.62,101.62,0,0,1,1.32,14.88,1.15,1.15,0,0,0-.4,1,23.83,23.83,0,0,1-.63,6.27,7.29,7.29,0,0,1-.32,2.84,16.44,16.44,0,0,1-2,3.59,1,1,0,0,1-.56.41,15.56,15.56,0,0,0-.86,1.83c-.76,2-.77,4.23-1.16,6.31a40,40,0,0,1-2.36,7.73,1.1,1.1,0,0,0,1,1.55,1.57,1.57,0,0,0,.68.8.87.87,0,0,1,.4-.31.89.89,0,0,1,.82-.47,1,1,0,0,1,.47.12q1.8-4.24,3.48-8.53l.22-.13a2.69,2.69,0,0,1,.49-.18,2.66,2.66,0,0,0,2,.58,4.87,4.87,0,0,1,1.05,1.71,4.34,4.34,0,0,0-.5,1.89,20.72,20.72,0,0,1-4,3.65c-1.89,1.42-2.88,3.89-4.05,5.88a1.3,1.3,0,0,0-.18.6l-.33.26c-1.33,1,.54,2.88,1.86,1.86a44.86,44.86,0,0,0,9.16-9.23,1.4,1.4,0,0,0,.25-.21,12.09,12.09,0,0,0,3.55-8.47,16.38,16.38,0,0,0-.28-7q.63-6.08,1.26-12.17a1,1,0,0,0-.59-1.12c.41-2.48.88-4.94,1.46-7.37a1.24,1.24,0,0,0-.43-1.3c.55-2.14,1.15-4.27,1.82-6.38a1.17,1.17,0,0,0-.09-1l.55-2.12A1.33,1.33,0,0,0,228.18,166.56Z" transform="translate(-120.87 -29.48)"/><path class="cls-2" d="M137,219.07c-.9-1-1.84-2-2.71-3a.3.3,0,0,0,.13-.25,8.33,8.33,0,0,0-.12-1.45,7.09,7.09,0,0,0,2.27,3.33c1.29.85,2-.34,2.19-1.51.37-2.35-.7-4.6-1.12-6.86-.48-2.6.11-5.23-.24-7.84-.38-2.77-2.37-4.48-3.33-7-1.2-3.13-.15-7,.35-10.14,1-6.59,2.39-13.13,3.74-19.66.09-.41-.55-.59-.63-.17-1.09,5.29-2.18,10.58-3.11,15.9-.46,2.62-.88,5.25-1.24,7.89-.29,2.13-.53,4.38.27,6.44s2.56,3.63,3.12,5.83c.62,2.42.07,5,.25,7.43s1.44,4.82,1.35,7.3c0,.24,0,1.15-.16,1.3a1.39,1.39,0,0,1-1.66-.08,5.07,5.07,0,0,1-.92-1.38c-.58-1.07-1-2.22-1.45-3.34a14.21,14.21,0,0,0-1.15-2.47,10.24,10.24,0,0,0-1.73-2.5c-.29-.31-.75.16-.46.46a9.69,9.69,0,0,1,.83,1h0c-1-.06-1,1.09-.95,1.82a8.3,8.3,0,0,0,.2,1,1.43,1.43,0,0,1-.89-.09c-.38-.17-.72.39-.33.57a2.14,2.14,0,0,0,1.4.14,11.72,11.72,0,0,0,1.58,3l-1.11.8c-.34.25,0,.82.33.57l1.16-.84c.66.87,1.4,1.69,2.14,2.49l-.19.17a.29.29,0,0,0-.28.23,1.08,1.08,0,0,1,0,.13,2.5,2.5,0,0,0-.27.41c-.16.32.24.68.52.4l.05-.07h0a1.66,1.66,0,0,0,.28-.44,1.83,1.83,0,0,1,.31-.31l.05-.06c.44.47.87.93,1.29,1.39a10.63,10.63,0,0,1,1.36,1.71,5.06,5.06,0,0,1,.46.9,1.06,1.06,0,0,1-.16,1.47,1.39,1.39,0,0,1-2-.5,14.3,14.3,0,0,1-1.09-1l-1.58-1.39q-2.91-2.61-5.64-5.4c-1.83-1.87-4.61-4.07-4.57-6.9,0-2.67,1.25-5.49,1.86-8.07,1.36-5.85.74-11.51.24-17.43L124,164.38c0-.42-.69-.42-.66,0l1.5,17.74c.51,6,1.3,11.93-.06,17.92-.58,2.56-1.55,5.12-1.88,7.73-.28,2.19.6,3.77,2,5.37a83.38,83.38,0,0,0,12,11.36c1.11.82,2.17.33,2.37-1.07C139.5,221.73,138,220.21,137,219.07Zm-4.59-5.52a18.06,18.06,0,0,1-1-2,.33.33,0,0,0-.17-.43c-.24-.66-.36-1.25-.15-1.51s.77.13,1.1.32l.86,2.16a.32.32,0,0,0,0,.34,7.57,7.57,0,0,1,.71,3A16.62,16.62,0,0,1,132.39,213.55Z" transform="translate(-120.87 -29.48)"/><path class="cls-2" d="M137.47,214.39a1.12,1.12,0,0,0-.93-.15.88.88,0,0,1-.39.18l-.1.06a.34.34,0,0,0-.5.37,2.38,2.38,0,0,0,1.07,1.71.94.94,0,0,0,1.26-.65A1.38,1.38,0,0,0,137.47,214.39Zm-.21,1.33c-.12.34-.4.27-.61,0a2,2,0,0,1-.35-.68.31.31,0,0,0,.15-.08.51.51,0,0,1,.66-.06A.76.76,0,0,1,137.26,215.72Z" transform="translate(-120.87 -29.48)"/><path class="cls-2" d="M230.19,166.57c-1.08,5.53-2.43,11.08-3.08,16.68-.33,2.82-.09,5.67-.52,8.47a31,31,0,0,0-.3,7.67,39.15,39.15,0,0,1,.32,8.29c-.37,3-2.18,5-4,7.3a51.71,51.71,0,0,1-4.84,5.35,26.7,26.7,0,0,1-3,2.45,8.23,8.23,0,0,1-1.56,1c-.63.24-.23.36-1.1,0q-1,0-.47-.65a3,3,0,0,1,.64-1.07c1.58-1.9,3.88-3,5.46-5A17.26,17.26,0,0,0,221,210.5a.33.33,0,0,0,0-.15.3.3,0,0,0,.09-.31,2.92,2.92,0,0,0-2.34-2.19,4.24,4.24,0,0,1,.4-.17c.4-.13.23-.77-.17-.63a4.61,4.61,0,0,0-1.5.83l-.19,0a.31.31,0,0,0-.22.34,6.66,6.66,0,0,0-1.32,2.1c-.5,1.21-.71,2.51-1.16,3.73a6.31,6.31,0,0,1-.63,1.34,1.24,1.24,0,0,0,0-.9,1.46,1.46,0,0,0-.39-.56.27.27,0,0,0-.15-.15l-.1,0h0l-.3-.09h0a1.37,1.37,0,0,0-1,.28l-.13,0v0h0a1.4,1.4,0,0,0-.18,1.75,1.3,1.3,0,0,0,1.68.39,1.34,1.34,0,0,0,.32-.23c-.79,1-1.76.77-2.91-.63a4.53,4.53,0,0,1,.34-1.74c.74-2.52,1.95-4.89,2.32-7.51.18-1.27.12-2.58.38-3.83a9.5,9.5,0,0,1,2-3.78,11.26,11.26,0,0,0,2.44-5.89c.35-2.88.5-5.8.56-8.69a105.65,105.65,0,0,0-1.1-17.42c-.06-.42-.69-.24-.63.17a104.43,104.43,0,0,1,1,20.09c-.16,3.22,0,7.14-1.76,10-1.34,2.14-2.94,3.67-3.26,6.29a34.88,34.88,0,0,1-.58,4.58c-.37,1.46-.95,2.85-1.45,4.26s-1.73,4.07-.08,5.22,3.17-.31,3.87-1.63c1.13-2.12,1.14-5.21,3-6.84a2.29,2.29,0,0,1,2.71,1.68.31.31,0,0,0-.08.14,17.65,17.65,0,0,1-.6,1.85.27.27,0,0,0-.28.09,17.85,17.85,0,0,1-2.87,2.68,9.59,9.59,0,0,0-1.87,1.49,20.61,20.61,0,0,0-1.57,2.47,3.88,3.88,0,0,0-.92,2.17,5.41,5.41,0,0,0-1.25,1.77c-.58,1.41.13,2.44,1.66,1.93,2.18-.73,4.33-2.79,6-4.36a63.39,63.39,0,0,0,5.62-6.45c1.54-2,2.72-3.68,3-6.21.38-3.09-.16-6.19-.39-9.27s.46-5.94.61-9a81.29,81.29,0,0,1,1.11-11.33c.73-3.82,1.49-7.64,2.23-11.45C230.9,166.33,230.27,166.16,230.19,166.57Zm-17.74,49a.7.7,0,0,1-.24-1,.33.33,0,0,0,.17-.07.68.68,0,0,1,.41-.14.65.65,0,0,1,.59.63A.7.7,0,0,1,212.45,215.59Zm1.8,2.81a8.09,8.09,0,0,1,2.22-2.56,22.11,22.11,0,0,0,2.68-2.27,16.07,16.07,0,0,1-3.27,4.53c-.82.8-1.88,1.48-2.83,2.25A12.78,12.78,0,0,1,214.25,218.41Z" transform="translate(-120.87 -29.48)"/><path class="cls-3" d="M190.82,40.52c0-.17-.09-.34-.15-.5a1.29,1.29,0,0,0,0-.33c-1-3.5-2.57-5.53-5.87-6.71-1.91-.68-3.73-.71-5.54-1.7a10.69,10.69,0,0,0-4.51-1.55,1.21,1.21,0,0,0-.41,0,1.34,1.34,0,0,0-.82.21,1.09,1.09,0,0,0-1,.41c-.4.47-.82.92-1.25,1.36a1.06,1.06,0,0,0-.62.19l-.46.33c-1.12.14-2.34,0-3.39.12a8.75,8.75,0,0,0-4.29,1.47,9.23,9.23,0,0,0-1.12.92h0a8.15,8.15,0,0,0-3.38,7.14,1.52,1.52,0,0,0,.18.64,1.7,1.7,0,0,0-.06.74c0,.11,0,.23,0,.34-.13,1.12-.33,2.25-.43,3.36a9.7,9.7,0,0,0-.29,1.17,2.62,2.62,0,0,0,.23,1.68,1.56,1.56,0,0,0,.11.33s0,0,0,0a2.64,2.64,0,0,0,.67,1.3c.16.54.33,1.08.51,1.61a1.34,1.34,0,0,0,.81.87l.28.81a.58.58,0,0,0,.14.22,13.26,13.26,0,0,1,.68,3.38c.08.7,1.1.73,1,0a18,18,0,0,1,0-2.9.48.48,0,0,0,.11-.16c1.29-3,1.11-6.07.52-9.16,1.67-5.62,8.27-7.13,14-7a28,28,0,0,1,3.5.58,19,19,0,0,1,2.64,1.12c.78.4,1.44,1.3,2.23,1.71a11.92,11.92,0,0,1,1.64,5,8.37,8.37,0,0,0,1.7,4.6l.05.05a.6.6,0,0,0,0,.06c.18.69.34,1.39.48,2.09a.47.47,0,0,0,0,.11c0,.1,0,.21-.07.31a13.91,13.91,0,0,0-.1,3.15.52.52,0,1,0,1,0,11.46,11.46,0,0,1,.15-3.27c.08-.33.19-.66.3-1a.57.57,0,0,0,.07-.15l.07-.29a7.81,7.81,0,0,0,.33-1.28s0,0,0,0a1.21,1.21,0,0,0,.46-.77,25.42,25.42,0,0,0,.47-4.5A12.45,12.45,0,0,0,190.82,40.52Z" transform="translate(-120.87 -29.48)"/><path class="cls-4" d="M162.47,52.05a12,12,0,0,0-3.18.44c-.32.09-.19.63.14.54a11.47,11.47,0,0,1,3-.42C162.81,52.61,162.81,52,162.47,52.05Z" transform="translate(-120.87 -29.48)"/><path class="cls-4" d="M162.28,53a10.28,10.28,0,0,0-2.58.34c-.33.09-.19.63.14.54a9.71,9.71,0,0,1,2.44-.32C162.62,53.58,162.62,53,162.28,53Z" transform="translate(-120.87 -29.48)"/><path class="cls-4" d="M161.9,54.2a6.67,6.67,0,0,0-1.76.22c-.33.09-.19.63.14.54a6.12,6.12,0,0,1,1.62-.2C162.23,54.76,162.23,54.2,161.9,54.2Z" transform="translate(-120.87 -29.48)"/><path class="cls-4" d="M161.59,55.32a4.35,4.35,0,0,0-1.15.08c-.33.07-.19.61.14.54a3.82,3.82,0,0,1,1-.06C161.92,55.91,161.92,55.34,161.59,55.32Z" transform="translate(-120.87 -29.48)"/><path class="cls-4" d="M161.39,56.39l-.55,0a.24.24,0,0,0-.16-.06.29.29,0,0,0-.26.16.3.3,0,0,0,0,.34c.22.22.65.1.93.09S161.73,56.37,161.39,56.39Z" transform="translate(-120.87 -29.48)"/><path class="cls-4" d="M161.43,57.52a1.12,1.12,0,0,0-.46,0c-.32.1-.19.64.14.54a.75.75,0,0,1,.32,0C161.77,58.12,161.76,57.56,161.43,57.52Z" transform="translate(-120.87 -29.48)"/><path class="cls-4" d="M162.78,50.93q-2.09.18-4.15.54c-.33.06-.19.6.14.54q2-.35,4-.52C163.11,51.46,163.11,50.9,162.78,50.93Z" transform="translate(-120.87 -29.48)"/><path class="cls-4" d="M190.88,49.86q-1.77,0-3.54.09c-.33,0-.34.58,0,.56q1.77-.07,3.54-.09C191.22,50.42,191.22,49.86,190.88,49.86Z" transform="translate(-120.87 -29.48)"/><path class="cls-4" d="M190.77,50.86l-3,.1c-.33,0-.34.57,0,.56l3-.1C191.1,51.41,191.1,50.85,190.77,50.86Z" transform="translate(-120.87 -29.48)"/><path class="cls-4" d="M190.58,51.84q-1.18,0-2.35.11c-.33,0-.34.59,0,.56q1.17-.1,2.35-.11C190.91,52.4,190.91,51.84,190.58,51.84Z" transform="translate(-120.87 -29.48)"/><path class="cls-4" d="M190.19,52.92,189,53c-.22,0-.53,0-.65.22s.31.61.45.28c0,.1.24.05.26.05h.36l.73,0C190.52,53.48,190.52,52.91,190.19,52.92Z" transform="translate(-120.87 -29.48)"/><path class="cls-4" d="M189.81,54.16l-1.12.07c-.33,0-.34.58,0,.56l1.12-.07C190.14,54.7,190.14,54.13,189.81,54.16Z" transform="translate(-120.87 -29.48)"/><path class="cls-4" d="M189.54,55.36h-.73c-.34,0-.34.56,0,.56h.73C189.87,55.92,189.87,55.36,189.54,55.36Z" transform="translate(-120.87 -29.48)"/><path class="cls-4" d="M189.23,56.48l-.42-.05c-.33,0-.33.52,0,.56l.42.05C189.56,57.09,189.56,56.52,189.23,56.48Z" transform="translate(-120.87 -29.48)"/><path class="cls-4" d="M189.11,57.56h-.27c-.34,0-.34.56,0,.56h.27C189.45,58.12,189.45,57.56,189.11,57.56Z" transform="translate(-120.87 -29.48)"/><path class="cls-5" d="M191.62,41.79c-.8-4.8-3.82-9-8.53-9.69a9,9,0,0,0-1.89-.05,2.55,2.55,0,0,1-1.8-.7,9.29,9.29,0,0,0-3.36-1.64,7.53,7.53,0,0,0-2.92-.15c-.33.06-.4,0-.59.2s-.31.66-.49.87a3.27,3.27,0,0,1-1.35.89c-1.43.53-3,.18-4.48.35a9.2,9.2,0,0,0-3.26,1,10.05,10.05,0,0,0-4.55,5.16,11.13,11.13,0,0,0-.8,3.92c0,.78.12,1.53.14,2.31a10,10,0,0,1-.49,2.88c-.76,3,1.27,5,2.17,7.61a.27.27,0,0,0,.14.17,47.54,47.54,0,0,1,1.65,6.39.26.26,0,0,0,.51-.07,25.28,25.28,0,0,1,1.14-8.45,7.08,7.08,0,0,0,.39-3c-.15-1.31-.71-2.58-.45-3.92.53-2.7,3.48-4.35,5.69-5.12a20.92,20.92,0,0,1,6.41-1.06,14.55,14.55,0,0,1,6.56,1.22,9.45,9.45,0,0,1,2.91,2.1,7.15,7.15,0,0,1,1.67,4.54c.25,2.28,1.62,4.05,2,6.27s-.08,4.59,1,6.7c.15.29.54.09.48-.22-.37-1.81.24-3.58.68-5.31s.86-3.44,1.17-5.19A23.84,23.84,0,0,0,191.62,41.79Zm-1.14,10c-.46,2.06-1.37,4.36-1.53,6.58-.23-1.52-.07-3.11-.36-4.64a12.06,12.06,0,0,0-.93-2.68,12.9,12.9,0,0,1-1.12-3.93,7.19,7.19,0,0,0-2.09-4.76,10.71,10.71,0,0,0-4.25-2.49,19.5,19.5,0,0,0-10.63,0c-2.84.74-6.91,2.68-7.31,6.28a9.62,9.62,0,0,0,.35,2.9,9,9,0,0,1-.52,4.55,23.31,23.31,0,0,0-.85,5.23,47.3,47.3,0,0,0-1.76-5.79.28.28,0,0,0-.33-.18c-.82-1.56-1.77-3.11-1.49-4.91a20.25,20.25,0,0,0,.64-3.43,20.51,20.51,0,0,1,0-4.22,9.84,9.84,0,0,1,4.38-6.61,8.72,8.72,0,0,1,3.74-1.28,36.46,36.46,0,0,0,3.73-.17,4.16,4.16,0,0,0,2-1c.26-.24.43-.68.68-.9a3.12,3.12,0,0,1,2.29-.26,7.86,7.86,0,0,1,3.33,1.22c.95.63,1.39,1.33,2.52,1.28,5.5-.24,9.28,3.83,10.15,9.52A26.26,26.26,0,0,1,190.48,51.77Z" transform="translate(-120.87 -29.48)"/><path class="cls-3" d="M172.26,53.6a7.17,7.17,0,0,0-5.93-.23.24.24,0,0,0-.31,0l-.06.06a.25.25,0,0,0-.11,0,1.5,1.5,0,0,0-.67,1,3.38,3.38,0,0,0-.26.4c-.15.28.2.54.39.35l0,0a6.72,6.72,0,0,1,4.52-1.5c.8.1,1.57.25,2.19.36C172.32,54.16,172.54,53.75,172.26,53.6Z" transform="translate(-120.87 -29.48)"/><path class="cls-3" d="M185.77,53.37a3.64,3.64,0,0,0-2.43-.67,14.33,14.33,0,0,0-3.94.33.22.22,0,0,0-.18.18l-.4.05c-.33.05-.19.6.14.54a25.57,25.57,0,0,1,6.62,0C185.81,53.88,185.93,53.53,185.77,53.37Z" transform="translate(-120.87 -29.48)"/><path class="cls-3" d="M178.58,71.18q-2.69-.11-5.37,0l-.07,0-.75-.18a.28.28,0,0,0-.2.51l.4.21a5.14,5.14,0,0,0,2.71,1.09,6.82,6.82,0,0,0,3.41-1.11A.29.29,0,0,0,178.58,71.18Z" transform="translate(-120.87 -29.48)"/><path class="cls-3" d="M189.1,62.07c-.06-.32-.54-.31-.51,0,0,.12,0,.24,0,.36a5.26,5.26,0,0,0-.46.65.24.24,0,0,0-.18.08l-.38.41a1.27,1.27,0,0,0-.69.66l-.14.28a9.23,9.23,0,0,0-2.14,4l-.09.13a6.44,6.44,0,0,0-3.93-2.57l-.23,0a2.82,2.82,0,0,0-1.71-.36.23.23,0,0,0-.31-.18,6.17,6.17,0,0,1-2.63.38,11.35,11.35,0,0,0-1.92-.31h-.06c0-.19-.08-.41-.3-.34-1,.36-2,.67-3.06.93a.22.22,0,0,0-.24-.21h-.08a8.46,8.46,0,0,0-2.85.82l-.5.05-.07,0-.05-.07a1.34,1.34,0,0,0-.6-1.45l-1.64-1.05a.25.25,0,0,0,0-.33,10.46,10.46,0,0,0-1.26-1,.22.22,0,0,0-.3,0h0c-.19-.23-.38-.48-.56-.72s-.49,0-.44.27a5.25,5.25,0,0,0,.15.53.24.24,0,0,0-.17.26,9.58,9.58,0,0,0,.21,1.63.31.31,0,0,0,0,.11,1.41,1.41,0,0,0-.11,1c.65,2.6,1.07,5.46,2.64,7.63.11.15.23.29.35.44l.16.3a13,13,0,0,0,18.08,5c2.47-1.48,5.31-4.41,5.71-7.57,0-.27.06-.57.09-.9a7.63,7.63,0,0,0,.22-2.5.31.31,0,0,0,0-.13c.06-1,.08-2,.21-3a1.65,1.65,0,0,0-.08-.75c0-.25,0-.49,0-.74s0-.58,0-.86c0,0,0-.09,0-.14h0V62.7l0,0a.27.27,0,0,0,.24-.27v-.06A.25.25,0,0,0,189.1,62.07Zm-5,7.37a.23.23,0,0,0-.14.18,10.26,10.26,0,0,1-.28,1.18l-.19.41a.26.26,0,0,0-.08.08l-1,1.61c-.42.36-.85.7-1.3,1a31.3,31.3,0,0,0-3.64,1c-.38,0-.76,0-1.15.05a.25.25,0,0,0-.19.12,10.14,10.14,0,0,1-6.21-2.47,1.51,1.51,0,0,0-.16-.75,27.47,27.47,0,0,0-2.19-3.7L168,68q.78-.18,1.57-.31h0a11.06,11.06,0,0,0,1.21-.15c.37,0,.73.06,1.09.08a.24.24,0,0,0,.14.05c1.17,0,2.34,0,3.51,0a.21.21,0,0,0,.17.15,20.87,20.87,0,0,0,3.82.17,12.59,12.59,0,0,1,4.14.9.2.2,0,0,0,.14,0l.32.3Z" transform="translate(-120.87 -29.48)"/><path class="cls-5" d="M173.05,53.93c-1.66-1.43-3.77-1.45-5.8-1.21-1.81.22-2.64,1.14-3,3a.27.27,0,0,0,.42.3.2.2,0,0,0,.17,0c2.29-1.91,5.1-2,7.83-1.35a.26.26,0,0,0,.29-.13l.17-.26A.3.3,0,0,0,173.05,53.93Zm-1.44-.05a8.66,8.66,0,0,0-6.74,1.4,2.43,2.43,0,0,1,1.38-1.78,7,7,0,0,1,2.27-.31,8.15,8.15,0,0,1,2.35.18,3.08,3.08,0,0,1,1.22.51C172.51,54.25,171.9,53.92,171.62,53.87Z" transform="translate(-120.87 -29.48)"/><path class="cls-5" d="M186.56,53.9c-.92-1.56-2.71-1.49-4.24-1.46-1.11,0-3.32-.23-4,1a.62.62,0,0,0-.17.59c0,.19.15.31.33.27a22.79,22.79,0,0,1,7.81,0C186.53,54.35,186.66,54.07,186.56,53.9Zm-7.72-.19c.53-.89,2.87-.7,3.71-.71,1.07,0,2.34-.09,3.17.69A22.78,22.78,0,0,0,178.84,53.72Z" transform="translate(-120.87 -29.48)"/><path class="cls-5" d="M184,69a.27.27,0,0,0-.09-.09c-2.43-1.51-4.9-1-7.57-1.19a30,30,0,0,0-8.58.12.21.21,0,0,0-.17.15l0,0c-.17-.14-.45.07-.39.32a.31.31,0,0,0,.19.41c1.83,3.67,4.22,6.39,8.38,6.38A12.64,12.64,0,0,0,181.37,74c1.74-.92,2.33-2.75,2.79-4.65A.27.27,0,0,0,184,69Zm-3.59,4.79a14,14,0,0,1-5.11.78c-3.75-.14-5.85-2.78-7.49-6.06l.26-.14h0a27.47,27.47,0,0,1,7.83-.11c2.65.25,5.29-.36,7.7,1.13C183.11,71.42,182.4,73.09,180.41,73.81Z" transform="translate(-120.87 -29.48)"/><path class="cls-5" d="M179.18,70.72c-1.39.4-2.48-.09-3.83-.1s-2.42.63-3.66-.15a.24.24,0,0,0-.12,0,.27.27,0,0,0-.35.39c1.54,2.86,6.67,3.39,8.26.31A.28.28,0,0,0,179.18,70.72Zm-6.93.59a5.85,5.85,0,0,0,2.36,0c1.4-.21,2.67.29,4,.12C177.17,73.19,173.88,72.94,172.25,71.31Z" transform="translate(-120.87 -29.48)"/><path class="cls-5" d="M189.44,59.08a.26.26,0,1,0-.52,0l0,.73a.23.23,0,0,0-.13.24c.14,2-1.83,3.79-3,5.06A5.33,5.33,0,0,0,184.38,68c-.55-.43-.81-1.14-1.38-1.52a5.73,5.73,0,0,0-1.76-.58,24.84,24.84,0,0,0-2.73-.72,5.42,5.42,0,0,0-1.84.28,3.67,3.67,0,0,1-1.52,0c-.48-.11-1-.59-1.44-.66a3.5,3.5,0,0,0-1.36.32,46.1,46.1,0,0,1-5.41,1.21.21.21,0,0,0-.12.07,12.48,12.48,0,0,0-2.25-2.5,11.84,11.84,0,0,1-2.82-2.54V61.2a.29.29,0,0,0-.13-.22.83.83,0,0,1,0-.53c.12-.34-.38-.48-.5-.15a1.36,1.36,0,0,0,.15,1.11q.33,3.05.71,6.1A14.68,14.68,0,0,0,163.31,73a20.55,20.55,0,0,0,7.92,7.68c3.43,1.91,7,1.09,10.5-.25a12.87,12.87,0,0,0,7-7,17.9,17.9,0,0,0,.94-6.21C189.66,64.5,189.54,61.79,189.44,59.08Zm-1.18,14c-1.76,4.84-6.43,7.13-10.86,8-4.78,1-9-2.41-12-6.12a11.61,11.61,0,0,1-2.73-6.07c-.31-2.21-.56-4.42-.8-6.64a11.62,11.62,0,0,0,1.2,1.1c.61.5,1.26,1,1.85,1.48a14.23,14.23,0,0,1,1.79,2.25c.18.24.46,0,.42-.26a46.32,46.32,0,0,0,4.67-1,3.57,3.57,0,0,1,2.37-.15,6.07,6.07,0,0,0,1.52.39,6.51,6.51,0,0,0,1.71-.23,6.79,6.79,0,0,1,3,.4,5.19,5.19,0,0,1,2.74,1.16,6.44,6.44,0,0,0,1,1.12.21.21,0,0,0,.19,0,.26.26,0,0,0,.51-.07c0-2.74,3.12-4.23,4.15-6.6.05,1.62.1,3.24.09,4.85A18.67,18.67,0,0,1,188.27,73.05Z" transform="translate(-120.87 -29.48)"/><path class="cls-6" d="M184.57,56.58c0,.61-1.15,1-2.51,1s-2.44-.61-2.41-1.22,1.15-1,2.51-1S184.59,56,184.57,56.58Z" transform="translate(-120.87 -29.48)"/><path class="cls-6" d="M171.53,56.58c0,.61-1.15,1-2.51,1s-2.44-.61-2.41-1.22,1.15-1,2.51-1S171.55,56,171.53,56.58Z" transform="translate(-120.87 -29.48)"/><ellipse class="cls-7" cx="48.45" cy="26.98" rx="1.02" ry="1.1"/><path class="cls-7" d="M182.73,55.91a1.15,1.15,0,0,1-.37,1.5A1,1,0,0,1,181,57a1.15,1.15,0,0,1,.37-1.5A1,1,0,0,1,182.73,55.91Z" transform="translate(-120.87 -29.48)"/><ellipse class="cls-6" cx="47.8" cy="26.78" rx="0.36" ry="0.39"/><ellipse class="cls-6" cx="60.31" cy="26.78" rx="0.36" ry="0.39"/><path class="cls-8" d="M159.4,368.62c-4.49.6-9.06-.63-13.41.47-1.52.19-3.42.19-4.81.81a.51.51,0,0,0-.23.56c.38,2.42,7.57,1.9,9.21,1.81,2.9-.16,8.11.2,9.68-2.89C160,369.08,159.81,368.57,159.4,368.62Z" transform="translate(-120.87 -29.48)"/><path class="cls-8" d="M162.63,363.77a2.28,2.28,0,0,0-.07-.44.51.51,0,0,0-.68-.69c-.65.35-.81,1.18-1,1.83a8.84,8.84,0,0,0-.52,3,.5.5,0,0,0,.93.25,7.44,7.44,0,0,0,.55-1,.5.5,0,0,0,.21-.17A3.07,3.07,0,0,0,162.63,363.77Z" transform="translate(-120.87 -29.48)"/><path class="cls-8" d="M194.05,362.65c-.09-.63-1.06-.36-1,.27l.49,3.32c.09.63,1.06.36,1-.27Z" transform="translate(-120.87 -29.48)"/><path class="cls-8" d="M212.31,367h-.15a.47.47,0,0,0-.16-.07,34.92,34.92,0,0,0-13-.11.48.48,0,0,0-.18.07l-1.71,0c-.91-.09-1.81-.19-2.71-.31-.46-.06-.58.44-.38.75a.49.49,0,0,0,.11.48,5.16,5.16,0,0,0,1.28,1,.42.42,0,0,0,.34.35h.09a.47.47,0,0,0,.47.43c.45,0,.9,0,1.34,0a25.46,25.46,0,0,0,4.68.38c3.5.07,7.21-.22,10.27-2.07C213,367.67,212.82,366.93,212.31,367Z" transform="translate(-120.87 -29.48)"/><path class="cls-9" d="M162.18,360.42a8,8,0,0,0-.35-4.12.5.5,0,0,0-.17-.24.57.57,0,0,0-.17-.66,16.22,16.22,0,0,0-13.88-2.61.51.51,0,0,0-.21.84c-.13,1.6-.33,3.19-.62,4.78a.53.53,0,0,0,0,.2,6.16,6.16,0,0,0-.48,1.65c-.07.64.93.63,1,0h0a.47.47,0,0,0,.2-.13l.13-.13a47.65,47.65,0,0,0,5-.05h.05a.55.55,0,0,0,0,.11c-4.55.08-9,.51-10.63,5.72a1.43,1.43,0,0,0,0,.69c-1.35.82-.55,3.25,1.16,2.73q1-.3,1.94-.56h.11a22.17,22.17,0,0,1,6.59.09,15.28,15.28,0,0,0,4.78.42c2-.29,4.38-1.64,4.18-3.91a1.89,1.89,0,0,0-.18-.64,14.07,14.07,0,0,0,1.21-2.58v0a2,2,0,0,0,.53-1A.45.45,0,0,0,162.18,360.42Z" transform="translate(-120.87 -29.48)"/><path class="cls-9" d="M211,360.25a1.52,1.52,0,0,0-.62-1.73c-1.84-1.34-2-2.75-2.71-4.73a2.27,2.27,0,0,0-1.31-1.7c-2.28-1.15-5.67-.56-8.06-.14-1.87.33-4.84.41-5.4,2.62s.58,5,1.7,7.07a8.78,8.78,0,0,0-.53.87,3.11,3.11,0,0,1,.43,2.14,1.3,1.3,0,0,0-.16.67,1.53,1.53,0,0,0,1.5,1.5h.08a1.49,1.49,0,0,0,.79-.24,15,15,0,0,0,4.49-.33,23.42,23.42,0,0,1,5.47-.55c1.52.12,2.92.67,4.43.89a1.52,1.52,0,0,0,1.9-1.45A6.54,6.54,0,0,0,211,360.25Z" transform="translate(-120.87 -29.48)"/><path class="cls-8" d="M162.89,362a.46.46,0,0,0,.15-.36c0-2.29.06-4.65-1.21-6.65-.34-.54-1.21,0-.86.5,1.15,1.81,1.07,3.94,1.08,6a.36.36,0,0,0-.12,0,5.79,5.79,0,0,0-1.84,3.3,14,14,0,0,1-.47,2.65,1.66,1.66,0,0,1-.18.22h0a.39.39,0,0,0-.36.36c-1.19.84-3.43.71-4.52.54a29,29,0,0,0-6-.76c-.87,0-5.24,1.1-6.56,1a.46.46,0,0,0,.05-.37c-.89-3.44,2.53-7,5.62-7.7a16,16,0,0,1,9.12,1c.6.24.86-.73.27-1-3-1.2-7.18-2-10.5-.88a22.9,22.9,0,0,0,.94-6.68c-.05-.64-1.05-.64-1,0,.19,2.26-.52,4.55-1,6.75a.48.48,0,0,0,0,.32l-.49.24c-2.56,1.42-4.65,5.07-4,8a.51.51,0,0,0-.35.33c-3.55,4.39,7,4.08,8.57,4.05,2.76,0,12.09.14,11.44-4.51a3.12,3.12,0,0,0,2.67-2.34A6.32,6.32,0,0,0,162.89,362Zm-4.14,8.46a5.32,5.32,0,0,1-1.38.56,15,15,0,0,1-1.62.38,33.48,33.48,0,0,1-5.18.56c-1.35.05-2.7.06-4.05,0-.65,0-6.67-.09-5.23-2.22,1.27.62,3.52-.45,4.68-.64a17.92,17.92,0,0,1,6.38,0,16.23,16.23,0,0,0,4.06.58,7.24,7.24,0,0,0,2.89-.66Zm3.66-5.31a2.77,2.77,0,0,1-1.75,2.24c.23-1.22.17-3.83,1.14-4.24C162.55,362.87,162.5,364.74,162.42,365.18Z" transform="translate(-120.87 -29.48)"/><path class="cls-8" d="M155.95,357.58a5.63,5.63,0,0,0-4.45-1.21c-.85.08-2.95.32-2.92,1.49a.5.5,0,0,0,1,0c0-.34,2.54-.54,2.77-.53a4.28,4.28,0,0,1,2.9,1C155.7,358.74,156.41,358,155.95,357.58Z" transform="translate(-120.87 -29.48)"/><path class="cls-8" d="M156.84,355c-2.15-1.06-5.81-2.11-7.92-.46-.51.4.21,1.1.71.71,1.66-1.3,5.08-.19,6.71.61C156.91,356.16,157.42,355.3,156.84,355Z" transform="translate(-120.87 -29.48)"/><path class="cls-8" d="M213.41,366.33a1.74,1.74,0,0,0-.18-.57,7.49,7.49,0,0,0-1-4.83.4.4,0,0,0-.16-.26h0c-1.51-2.3-4.13-4.54-4.41-7.37-.06-.63-1.06-.64-1,0,.21,2.17,1.52,3.69,2.77,5.41l.37.52a13.53,13.53,0,0,0-12.63.13c-.57.3-.06,1.17.5.86a12.53,12.53,0,0,1,13.38.93,8.15,8.15,0,0,1,1.14,5,27.62,27.62,0,0,0-8.14-.77c-2.61.15-6.4,1.65-9,.69a.4.4,0,0,0,.18-.39,20.45,20.45,0,0,0-.71-4.73c-.94-2.74-1.77-4.74-.69-7.68.22-.6-.74-.87-1-.27a9.16,9.16,0,0,0-.49,5.07,13.57,13.57,0,0,0,.92,2.53c0,.09.06.18.09.27a.49.49,0,0,0-.1.11c-1.25,2-.89,5.71.48,7.65,1.54,2.17,4.49,2,6.86,2,3.42,0,7.61.08,10.9-1A2.69,2.69,0,0,0,213.41,366.33Zm-19.79-.93a6.55,6.55,0,0,1,.14-3.12,28.63,28.63,0,0,1,.44,3.37l-.22-.14A.51.51,0,0,0,193.63,365.4Zm7.89,4.25c-1.65,0-4.67.37-6-.71a5.07,5.07,0,0,1-1.5-2.26c1.75,1,3.61.7,5.64.31a28.63,28.63,0,0,1,12.82.26C211.7,369.76,203.31,369.62,201.51,369.65Z" transform="translate(-120.87 -29.48)"/><path class="cls-8" d="M205.5,356.17c-1.87-.8-5.13-1.75-6.91-.32-.5.4.21,1.11.71.71.7-.56,2.14-.38,3-.28A10.09,10.09,0,0,1,205,357C205.58,357.28,206.09,356.42,205.5,356.17Z" transform="translate(-120.87 -29.48)"/><path class="cls-8" d="M205.23,354.33a11.12,11.12,0,0,0-6.82-.71c-.63.13-.36,1.09.27,1a10,10,0,0,1,6.05.61C205.31,355.44,205.82,354.58,205.23,354.33Z" transform="translate(-120.87 -29.48)"/><path class="cls-10" d="M212.69,314c-.15-3.5.26-7.62-1.11-10.9,0-.05-.06-.1-.08-.15-.23-4.07-.38-8.16-.71-12.22a16.46,16.46,0,0,0-1.12-4.57c0-.06,0-.12,0-.18.29-4.21-1.62-8.59-2.24-12.83l0-14.91a4.28,4.28,0,0,0-.36-1.8c.32-4.75.84-9.49,1.4-14.24A3.06,3.06,0,0,0,208,240c1.06-9.6,1.23-19.3,2.13-28.87.39-1.39.74-2.79,1-4.2a1.55,1.55,0,0,1-.25-1.19c.06-.38.15-.75.23-1.13.11-.88.08-1.78.13-2.67l0-.11a3.72,3.72,0,0,0-.55-3c-.37-3.19-4.59-4.38-7-2.25l-.38.34a3.76,3.76,0,0,0-1.12,1.68,64,64,0,0,1-9.41,2.81c-4.23.75-8.62.83-12.89,1.16-4.7.36-9.3.78-13.95-.19-4.86-1-9.4-3.08-13.85-5.18a4.16,4.16,0,0,0-4.38.42c-2.88-2.1-8-.1-6.49,4,.85,2.11.36,4.2.54,6.41a52.4,52.4,0,0,1,.15,8,3.77,3.77,0,0,0,.27,1.74,3.85,3.85,0,0,0-.19,1.49q.11,1.6.27,3.2a62.93,62.93,0,0,0,.37,6.66,4.16,4.16,0,0,0-.47,1.59c-.47,5.26,1.14,10.3,1.57,15.51.45,5.49.74,11,1.11,16.5a217.41,217.41,0,0,1-.14,31.51,3.87,3.87,0,0,0,.16,1.52c0,.11,0,.21-.06.32a94.75,94.75,0,0,0-.77,13.12,3.81,3.81,0,0,0,.66,2.17,125,125,0,0,0,1.8,36.11,4.1,4.1,0,0,0,.27.87c0,.66,0,1.31,0,2l-.05,0-.08.08a1.5,1.5,0,1,0,2.12,2.12l.08-.08a1.13,1.13,0,0,0,.13-.19,1.44,1.44,0,0,0,.78.23h.08a1.54,1.54,0,0,0,1.08-.48h.07a4.61,4.61,0,0,0,.72-.07h.21a4.29,4.29,0,0,0,1.08.49,4.47,4.47,0,0,0,2.56-.13,4.1,4.1,0,0,0,.85,0,4.36,4.36,0,0,0,1.33.5,1.37,1.37,0,0,0,.39.59,1.6,1.6,0,0,0,1.55.33,1.51,1.51,0,0,0,1.48,1.39h.08a1.56,1.56,0,0,0,1.23-.64,1.39,1.39,0,0,1,0-.3v-.08a1.44,1.44,0,0,1,.24-.79,1.6,1.6,0,0,0-.36-.71l.45-3.64c.06-.12.12-.24.17-.37a3.74,3.74,0,0,0,.45-1.83c1.94-9.29,1.34-19.11,1.51-28.54.18-10.21.82-20.54.27-30.75a4.16,4.16,0,0,0,.39-1.77c.12-9.74,1.35-19.36,2.67-29a3.32,3.32,0,0,0-.42-2.27c.65-2.76,1.3-5.53,1.83-8.31a129.16,129.16,0,0,0,5.53-19.34,4.07,4.07,0,0,0,0-1.64c.29-1,.6-1.93.9-2.89l.63-1.57c.59,2.39,1.15,4.78,1.68,7.18a4,4,0,0,0,.48,1.16c3.51,19.9,7.08,39.79,10.27,59.73.36,8.59,1.69,17.2,1.81,25.8l.23,17.05c.07,5.08-.29,10.37.89,15.36,0,.23-.07.47-.11.7-.8,4,4,6.17,6.56,4.35h0a4.29,4.29,0,0,0,3.16-.4l.11-.08h0a4.65,4.65,0,0,0,.57-.23,3.82,3.82,0,0,0,1.81.39,1.44,1.44,0,0,0,.3.47,1.5,1.5,0,0,0,1.78.23l.42.54c.27.35,1,.3,1-.25v0a.45.45,0,0,0,.08-.19l.22-1.2a.44.44,0,0,0,.46-.48,11.29,11.29,0,0,1,0-1.72,4.36,4.36,0,0,0,.2-.83,2.39,2.39,0,0,0,.16-.24c2-4.22,2.1-10.26,2.46-14.86a89.47,89.47,0,0,0,.18-9.78C211.87,320.22,212.83,317.2,212.69,314Z" transform="translate(-120.87 -29.48)"/><path class="cls-11" d="M211.27,293.49c-.62-4.47-1.58-8.89-2.28-13.34a102.18,102.18,0,0,1-1.13-15.66c0-10.22.87-20.44,1.5-30.64L211.52,199c0-.64-1-.64-1,0-1.25,20.18-3,40.41-3.59,60.62A137.61,137.61,0,0,0,209.36,288a150.75,150.75,0,0,1,2.23,30.24.51.51,0,0,0-.19.16l-7.83,11.5c-.37.54.52,1,.89.5L211.52,320c-.21,6.1-.73,12.19-1.52,18.24a.47.47,0,0,0-.62-.41c-5.34,1.6-9.53,4.84-13.69,8.35-.5.42.23,1.13.73.71,4-3.4,8.07-6.54,13.24-8.09a.48.48,0,0,0,.31-.25q-.91,6.92-2.21,13.79a15,15,0,0,0-10.05-.5c-1.86.56-4.45.55-5.13-1.6a18.48,18.48,0,0,1-.57-4c-.21-2.52-.23-5-.23-7.57,0-10.37-.19-20.72-.87-31.07-1.36-20.65-4.59-41-8.62-61.29l-3.94-19.85a.49.49,0,0,0,.45,0,13.17,13.17,0,0,1,10-1,.5.5,0,0,0,.27-1,14.28,14.28,0,0,0-10.75,1.1.48.48,0,0,0-.09.07l-1-5h0l.06,0a1.64,1.64,0,0,1,.14-.78.51.51,0,0,0-.42-.16l-.27-1.36q8.35,1.27,16.78,1.75c.66,0,.66-1,0-1q-8.27-.46-16.44-1.7c.12-.31,0-.71-.44-.66l-.21,0-.25-1.28a.44.44,0,0,0,.26,0l22-2.77c.65-.08.65-1.08,0-1l-22,2.77a.53.53,0,0,0-.4.27l-.7-3.53c-.13-.63-1.11-.36-1,.27s.3,1.51.46,2.27q-8.26-1-16.57-1.58c-.66,0-.66,1,0,1q8.4.61,16.77,1.6l.41,2a94,94,0,0,1-16.29.14c-.66-.05-.65.95,0,1a94,94,0,0,0,16.49-.16l.42,2.08a117.5,117.5,0,0,0-15.95,4.34c-.62.22-.35,1.18.27,1A117.51,117.51,0,0,1,175.81,221a.46.46,0,0,0-.07.18c-1.62,8.79-4.3,17.34-6.46,26a149,149,0,0,0-4,25.25c-1.28,17.56-.15,35.17-.71,52.75a163.51,163.51,0,0,1-3.28,29.21c-4-2.52-9.74-3.72-14.2-2a.54.54,0,0,0-.16.1c-.45-4.76-.39-9.64-1.36-14.32-.1-.47-.18-.95-.26-1.42l0,0c2.43,2.22,6.73,2.09,8.51,5,.34.55,1.23,0,.89-.5-1.92-3.1-6.12-2.84-8.67-5.16a.53.53,0,0,0-.83.17,67.16,67.16,0,0,1-.52-12.66,27.37,27.37,0,0,0,6.11,12.66c.43.49,1.16-.22.73-.71-6.15-7-7-16.27-6.82-25.09.19-9,.68-18,1-27,.17-4.46.4-8.92.24-13.38s-.84-9.07-1.4-13.59c-1.13-9-1.76-18.13-2.11-27.22-.4-10.41-.45-20.82-.49-31.23a.51.51,0,0,0-1,0c.08,19,.16,38.09,2.42,57,.56,4.69,1.32,9.37,1.54,14.09s0,9.24-.19,13.85c-.37,9.47-.94,19-1.07,28.44a61.73,61.73,0,0,0,.47,9,.48.48,0,0,0-.37.46c-.23,5.31-.46,10.67.47,15.93s1.14,10.82,1.7,16.28a.54.54,0,0,0,1,.26.41.41,0,0,0,.44.07c4.25-1.6,9.83-.36,13.65,2.1a1.5,1.5,0,0,1,.91.41,1.42,1.42,0,0,1,.29-.85c7.45-34.2-.56-69.63,7.13-103.81,2.17-9.63,5.26-19,7.14-28.73,3.62,17.75,7.37,35.5,10,53.4q2.42,16.57,3.46,33.29c.67,10.67.65,21.31.79,32a53.55,53.55,0,0,0,.56,8.16c.22,1.34.61,3,1.84,3.79,1.55,1,3.22.3,4.83-.18a14,14,0,0,1,9.91.66.52.52,0,0,0,.75-.3C212.39,333.55,214,313.38,211.27,293.49Z" transform="translate(-120.87 -29.48)"/><path class="cls-11" d="M201.3,340.45a12.91,12.91,0,0,0-9.55-4.84.5.5,0,0,0-.25.93l3.88,1.86a13.2,13.2,0,0,1,3.24,1.64,1.29,1.29,0,0,1,.29.22,1.35,1.35,0,0,1,.91.44l.16.09a.38.38,0,0,0,.08-.24c.18.2.37.39.54.61C201,341.66,201.7,340.95,201.3,340.45Z" transform="translate(-120.87 -29.48)"/><path class="cls-11" d="M162.66,301.37c-.8-2.46-3.3-3.68-5.5-4.85-2.72-1.44-5.53-2.28-8.59-1.43a.5.5,0,0,0,.27,1c2.8-.78,5.32,0,7.8,1.33,1.89,1,4.33,2.1,5,4.25C161.87,302.25,162.86,302,162.66,301.37Z" transform="translate(-120.87 -29.48)"/><path class="cls-11" d="M156.7,332.38c-4.19-2.37-8.48-5.51-8.95-10.69-.06-.64-1.06-.64-1,0,.51,5.57,4.9,9,9.44,11.56A.5.5,0,0,0,156.7,332.38Z" transform="translate(-120.87 -29.48)"/><path class="cls-11" d="M161.37,349.53a20.45,20.45,0,0,0-5.52-1.2c-2-.14-4.77.79-6.63.2-.61-.2-.88.77-.27,1,1.69.54,3.45-.17,5.19-.21a19.21,19.21,0,0,1,7,1.21C161.71,350.71,162,349.74,161.37,349.53Z" transform="translate(-120.87 -29.48)"/><path class="cls-11" d="M205.93,283.54A31.64,31.64,0,0,0,191.87,277c-.65-.12-.92.84-.27,1a30.58,30.58,0,0,1,13.61,6.27C205.71,284.65,206.44,284,205.93,283.54Z" transform="translate(-120.87 -29.48)"/><path class="cls-11" d="M204.22,280.44l-4-3.56c-.48-.43-1.19.28-.71.71l4,3.56C204,281.58,204.7,280.87,204.22,280.44Z" transform="translate(-120.87 -29.48)"/><path class="cls-12" d="M232.64,162.55s0,0,0-.06c0-.22,0-.43,0-.66,0-1.3-.14-2.89-1.32-3.66a.68.68,0,0,0-.17-.08l0,0a25.35,25.35,0,0,0,.46-2.52.51.51,0,0,0,0-.26,12.76,12.76,0,0,0,.63-3.17c.08-1.69.14-4.85-1-6.21a.57.57,0,0,0-.63-.16.64.64,0,0,0-.45-.13,15.28,15.28,0,0,0,0-3.93.7.7,0,0,0-.1-.79l-.06-.41a.5.5,0,0,0-.37-.44c0-.15,0-.29-.05-.44a2.29,2.29,0,0,0-1.3-1.91c0-.9,0-1.8,0-2.7a.52.52,0,0,0,.29-.54l-.34-2.58a.69.69,0,0,0-.18-.37q-.61-3.42-1.17-6.85a.6.6,0,0,0,0-.11,48.94,48.94,0,0,0-1.66-10.79.74.74,0,0,0,0-.09,38.4,38.4,0,0,0-1.53-8.85l-.2-2.11a.67.67,0,0,0-.1-.3l0-.34a.61.61,0,0,0-.05-.18,10.67,10.67,0,0,0-1.72-5.76.67.67,0,0,0-1-.13l0,0a5.54,5.54,0,0,0-2.95-1.9h-.14l-12-6.43c-.87-.46-1.77-.87-2.68-1.24a3.18,3.18,0,0,0-3.1-1.75,49,49,0,0,1-6.31-3.68.66.66,0,0,0-1,.57,14.1,14.1,0,0,1,.12,2.26,3.17,3.17,0,0,0-.42-.12,20.92,20.92,0,0,0-.65-7.82.59.59,0,0,0-.49-.44c0-.1,0-.2,0-.31-.09-.83-1.41-.84-1.31,0a34.37,34.37,0,0,1-.23,9.38,3.28,3.28,0,0,0-.38.5q-.54.88-1.11,1.74a3,3,0,0,0-1.06.43c-3.61,2.3-4,6.19-6.58,9.22a3,3,0,0,0-.75,1.7l0,.05c-2.94-4.88-6.15-9.82-10.64-12.85a2.92,2.92,0,0,0-2.93,0A46.11,46.11,0,0,1,165,76a.58.58,0,0,0-.48-.61c0-.18.05-.37.09-.55a.67.67,0,0,0,0-.07.9.9,0,0,1-.74-.74.63.63,0,0,0-.46.3,22.08,22.08,0,0,0-2.69,5.93q-5.22,2.06-10.28,4.51a.58.58,0,0,0-.1.08h0a13.5,13.5,0,0,1-1.3.59.35.35,0,0,0-.11.07l-1,.49a.31.31,0,0,0-.11.08c-1.13.45-2.26.9-3.38,1.37a53.4,53.4,0,0,0-6.79,3.06,2.81,2.81,0,0,0-2.3.86l-1,.93A2.87,2.87,0,0,0,132,94.34a3.33,3.33,0,0,0-.22.32,25.61,25.61,0,0,0-2.86,8.48l0,.1h0c0,.26-.08.52-.12.78a2.41,2.41,0,0,0,.15,1.26c-1.35,5.17-3.23,10.19-4.41,15.4-1,4.58-2.05,10.29.25,14.63a.61.61,0,0,0,.26.26q.23.77.52,1.52a.65.65,0,0,0-.3.5,6.84,6.84,0,0,0,.17,2.17c-.78,0-1.29.94-1.29,1.7a3.71,3.71,0,0,0,.56,1.77.61.61,0,0,0-.54.29,4.71,4.71,0,0,0-.52,3.86.63.63,0,0,0-.48.31,2.2,2.2,0,0,0-.22,1.58,8.42,8.42,0,0,0,.32,1,3.69,3.69,0,0,0,.17.9,10.38,10.38,0,0,0,.29,4,.56.56,0,0,0-.58.32l-.13.26a.66.66,0,0,0-.2.21,8,8,0,0,0-1.41,4.76c-.36,1.07.54,2.2,1.24,2.93,1,1,2.06.9,3.37,1.11a.68.68,0,0,0,.31,0,21.67,21.67,0,0,0,3,.63,12.56,12.56,0,0,0,2.31.28l.95.1c1.77.2,4.46.76,6-.51a3.44,3.44,0,0,0,1.08-1.87,7.19,7.19,0,0,0,.87-4.37.64.64,0,0,0-.11-.28,23,23,0,0,0,.89-3c.36-.36.76-.72,1.11-1.11a2.88,2.88,0,0,0,1.45-2.32,1.79,1.79,0,0,0-.69-1.58c0-.08,0-.15,0-.23a7.9,7.9,0,0,0,.19-4.66.59.59,0,0,0-.55-.46,10.14,10.14,0,0,0-.33-1c.89-1.73,1.81-3.44,2.77-5.13l1.12,5.22a17.57,17.57,0,0,0-1.36,9.5c.09,1.1.18,2.17.24,3.23a.67.67,0,0,0-.14.35c-.09,1.14-.2,2.29-.31,3.43-.41,2.66-.81,5.32-1.16,8q-.27,1.47-.53,2.93v0s0,0,0,0q-1,5.52-1.91,11.05a70,70,0,0,0-1.42,10.34c-2.4,4.1.72,8.05,3.65,10.95,3.31,3.27,6.68,5.88,10.91,7a.29.29,0,0,0,.16.27,5.73,5.73,0,0,0,1.94.67.34.34,0,0,0,.34-.15c1.26.32,2.53.6,3.8.88a15.25,15.25,0,0,0,5.5.47,30.62,30.62,0,0,0,5.61.14,2.92,2.92,0,0,0,.18.47l-.17.3a.65.65,0,0,0,1,.79h.15l.1,0h0a16.2,16.2,0,0,0,1.76-.41l5.49-1.07a.7.7,0,0,0,.61.41H181a1.13,1.13,0,0,0,.3,0,.63.63,0,0,0,.61-.53,45.92,45.92,0,0,0,11.59-1.2.32.32,0,0,0,.4.25,11.36,11.36,0,0,0,1.17-.35,19,19,0,0,0,1.79-.68l.05,0h0a14.6,14.6,0,0,0,8.34-4.67.61.61,0,0,0,.48-.2,16.92,16.92,0,0,0,1.29-1.49.53.53,0,0,0,.51-.2,11.53,11.53,0,0,0,1-1.36,9.88,9.88,0,0,0,1.91-3.1.26.26,0,0,0-.06-.3,11.93,11.93,0,0,0,.72-1.66c1.44-4.21.48-9.11-.74-13.25a.6.6,0,0,0-.13-.23c-.05-.41-.11-.81-.19-1.2a20.17,20.17,0,0,0-.24-2.09,59.68,59.68,0,0,1-1.16-13.16.59.59,0,0,0-.36-.57.66.66,0,0,0,0-.27l-.22-5.88c0-.1,0-.19,0-.29q.06-2.38,0-4.76,0-5.35.16-10.7a.58.58,0,0,0-.16-.43,58.68,58.68,0,0,0-.19-6.49c.1-.45.22-.89.33-1.34a4.92,4.92,0,0,0,1.88,2.32.63.63,0,0,0,.21.06l.41.47c-.92,1.89-.58,3.85.14,5.86a10.45,10.45,0,0,0,.6,5.1.63.63,0,0,0-.36.28c-.85,1.39-.25,3,.49,4.29a9.74,9.74,0,0,0,1.23,1.75,3.44,3.44,0,0,0,.07,1.32,12.28,12.28,0,0,0,1.26,4.1,6.41,6.41,0,0,0,3.51,3,.57.57,0,0,0,.6.4c2.18-.07,4.36-.12,6.53-.1.42,0,.85,0,1.28.06a3.07,3.07,0,0,0,.81.64h.22a16.54,16.54,0,0,1,3.09-.18,2.56,2.56,0,0,0,.62-.63C232.47,166,232.85,164.4,232.64,162.55Z" transform="translate(-120.87 -29.48)"/><path class="cls-13" d="M142.55,127.9c-4.22-8.37-8.48-17-9.4-26.43,0-.42-.7-.42-.66,0,.94,9.59,5.22,18.27,9.49,26.76C142.18,128.6,142.74,128.27,142.55,127.9Z" transform="translate(-120.87 -29.48)"/><path class="cls-13" d="M231.66,157.71c.69-4.15,2.37-8.82-.47-12.54a.35.35,0,0,0-.37-.12c.43-2.64-.68-5.68-1.67-8.06a.34.34,0,0,0-.25-.2c.22-3.5-.61-7-1.17-10.52l-2.56-16-1.28-8c-.33-2-.52-4.25-2-5.85S218.33,94,216.51,93l-7.16-3.83-16.61-8.87-.09,0a12.35,12.35,0,0,0-2.81-6.85.88.88,0,0,1-.3-.36.86.86,0,0,1-.26-.24h0c-.42.55-.11,1.68-.08,2.28.07,1.58.17,3.16.12,4.74a16.26,16.26,0,0,1-.57,3.88.3.3,0,0,0-.18.21c-.86,3-4,4-6.72,4.81A22.25,22.25,0,0,1,174.38,90a1.71,1.71,0,0,1-.49-.22.28.28,0,0,0-.21,0,13.59,13.59,0,0,0-3.09-3.44c-.9-.68-3-2.15-4.3-1.75a49.8,49.8,0,0,1-1.22-9.12,1,1,0,0,1-.48-.85.31.31,0,0,0-.12.08c-.16-.28-.33-.55-.48-.83a.28.28,0,0,0-.24-.16,1.05,1.05,0,0,1-.15-.28c-1.34,1.93-3,4.32-3.5,6.79a.29.29,0,0,0-.15,0l-16.74,7c-4,1.7-8.6,3.32-11.42,6.88a13.17,13.17,0,0,0-2.41,5.81c-.54,2.74-1,5.49-1.65,8.2-1.32,5.52-3.67,10.8-4.49,16.43a18.94,18.94,0,0,0,1.76,12h0a7.79,7.79,0,0,0-.31,2.69,1,1,0,0,0-.35.26.35.35,0,0,0-.4.21,4,4,0,0,0,0,3.19l0,.08a.32.32,0,0,0-.51.17,10.48,10.48,0,0,0-.27,4.12.39.39,0,0,0,0,.34.35.35,0,0,0-.53.24,5.71,5.71,0,0,0,.41,3.7,6.1,6.1,0,0,0,.48.69.35.35,0,0,0-.32.4l.38,2.23h0c-2.23.69-3.27,6-2.14,7.82s3.38,2.33,5.31,2.67a81.25,81.25,0,0,0,8.85,1.06c2.23.15,3.76-.36,4.68-2.51a16.69,16.69,0,0,0,1-3.74,2.44,2.44,0,0,0-.15-2,1.37,1.37,0,0,0-.16-.17c.08-2,2-2.67,3-4.16a2.55,2.55,0,0,0,.37-2.6,1.63,1.63,0,0,0-.58-.67c.86-2.24.23-4.44-.74-6.52l2.37-3.6c.07.2.14.39.2.59a10.38,10.38,0,0,1-.16,5.52c-.65,3.05-.45,6.17-.59,9.27-.32,6.88-1.76,13.73-2.84,20.52l-3.17,20q0,.19-.06.39l0,.14a.32.32,0,0,0,0,.05c-.21,2.65,1.77,4.7,3.58,6.54,2.46,2.5,4.8,5.35,8,6.95,6.29,3.16,14.09,4,21.06,3.73,0,.29.06.57.1.86a.27.27,0,0,0,.4.21h0c2.3.37,4.55-.42,6.82-.71,2.45-.31,4.92-.41,7.38-.57a42.67,42.67,0,0,0,12.64-2.41c6.94-2.67,12.86-8.34,13.7-16a.26.26,0,0,0-.21-.3c-.06-5.57-1.61-10.94-2.36-16.44-.86-6.29-.71-12.74-.85-19.07s-.26-12.44-.29-18.67c0-.59,0-1.19,0-1.79a8.82,8.82,0,0,0,1.69,1.93,2.65,2.65,0,0,0-.15.55,5.17,5.17,0,0,0,.21,4.76c-.41.7,0,1.93.12,2.68a12.85,12.85,0,0,0,.55,2.74.36.36,0,0,0-.18.08l-.08.06a.26.26,0,0,0-.09.3c-.78,2.1.09,3.95,1.47,5.46a.34.34,0,0,0,0,.12,4,4,0,0,0,0,.91s0,0,0,0c.84,3.94,2.33,8.43,7.05,8.65,2.77.13,5.51-.26,8.3,0,2,.16,3.82.51,4.94-1.48C233.69,163.81,234,159.34,231.66,157.71ZM189.73,82.53a22.75,22.75,0,0,0,.25-4.26,23.72,23.72,0,0,0-.08-3.71A12.3,12.3,0,0,1,189,89.69a4.54,4.54,0,0,0-.2-2.62.33.33,0,0,0-.4-.23l-.27.1A11.93,11.93,0,0,0,189.73,82.53Zm-28.79-2.9a22.4,22.4,0,0,1,2.68-5.11c.23.41.46.82.71,1.22a.34.34,0,0,0,.1.1,50.67,50.67,0,0,0,1.26,9.06,2.52,2.52,0,0,0-.54,2c.1.84.54,1.6.62,2.45A3.13,3.13,0,0,1,165,91.8c-.45-2.49-2.18-4.42-3.41-6.62A6.51,6.51,0,0,1,160.94,79.63Zm-20.8,82.22a9.05,9.05,0,0,1-.91,2.55c-1.29,2.15-4.37,1.39-6.46,1.17s-4.13-.47-6.17-.84c-1.85-.34-4-.88-4.87-2.74-.57-1.22.14-5.82,1.85-6.43a2.43,2.43,0,0,0,.9.32c1,.27,2.06.5,3.1.72q2.85.6,5.73,1,1.58.21,3.16.36a12.7,12.7,0,0,1,3.23.29C141.15,158.83,140.41,160.69,140.13,161.84Zm31.3,33.22-.28,10.37a72,72,0,0,0,0,8.05,48.09,48.09,0,0,1-18.67-2.79c-3.19-1.2-5.43-3.21-7.78-5.6-2.14-2.18-5.82-4.88-5.45-8.26v-.07a4.51,4.51,0,0,1,.12-.63.32.32,0,0,0,0-.16c1.7-10.69,3.48-21.38,5.08-32.09.37-2.46.69-4.94.83-7.43.15-2.66,0-5.34.31-8s1.25-4.72.53-7.32c-.3-1.09-.75-2.13-1.08-3.21a13.84,13.84,0,0,1-.47-4.74c.23-5.43-.82-10.4-4.12-14.84-.25-.34-.82,0-.57.33a20.65,20.65,0,0,1,3.77,8.5c.48,2.56.08,5.14.2,7.69a52.44,52.44,0,0,1-10-18.62.33.33,0,0,0-.63.17,53.26,53.26,0,0,0,10.18,19,.28.28,0,0,0,.44,0,13.09,13.09,0,0,0,.17,1.35,19.68,19.68,0,0,0,.94,3.06.31.31,0,0,0-.24.15l-2.25,3.42-.36-.71c-.19-.38-.76,0-.57.33s.35.68.52,1a.3.3,0,0,0,.19.4c.88,1.89,1.48,3.9.69,5.93a3.33,3.33,0,0,0-.77-.07c-2,0-4.11.31-6.15.47-.42,0-.42.69,0,.66l4.17-.32a11.48,11.48,0,0,1,2-.15c2,.22,1.68,1.83.74,2.9-1.17,1.34-2.61,2.06-2.82,3.84a5.86,5.86,0,0,0-1.18-.2c-1.69-.18-3.38-.26-5.07-.48q-2.8-.36-5.57-.91-1.25-.25-2.49-.54l-.46-.11a2.48,2.48,0,0,0-1.28-.58l-.33-1.95a.31.31,0,0,0,.17,0,21.37,21.37,0,0,0,1.8,1.61c.32.27.79-.2.46-.46a15.86,15.86,0,0,1-2.32-2.23l0,0,0,0h0a4.8,4.8,0,0,1-.69-3.85,5.08,5.08,0,0,0,2.12,3c.35.24.68-.33.33-.57a4.39,4.39,0,0,1-1.84-2.66.28.28,0,0,0,.18-.37.44.44,0,0,0-.31-.3,9.38,9.38,0,0,1,.16-3,.36.36,0,0,0,.45-.3h0a11.29,11.29,0,0,0,4.1,3.45c.37.2.7-.36.33-.57-2.26-1.24-5.11-3.25-4.36-6.12a.31.31,0,0,0,.38-.31.35.35,0,0,1,0-.19,5.24,5.24,0,0,0,2.27,2.9,33.46,33.46,0,0,0,8.26,3.84c.4.14.57-.49.17-.63a43.21,43.21,0,0,1-6.25-2.62,13.4,13.4,0,0,1-2.85-1.93c-1.3-1.26-1.28-2.63-.94-4.16.24.38.5.74.78,1.1s.72-.14.46-.46c-6.66-8.37-1-19.35,1.27-28.21.64-2.46,1.15-4.95,1.61-7.45s.77-5,2.16-7.06c2.55-3.85,7.25-5.57,11.33-7.28L160,80.89a6.34,6.34,0,0,0,.19,2.63c.94,3.17,3.93,5.44,4.27,8.81l-.08.06a5.81,5.81,0,0,0,.19.64l.1,0,.1-.08a.38.38,0,0,0,.15,0l.07-.05a.87.87,0,0,1,.14-.15.26.26,0,0,0,0-.09,3.78,3.78,0,0,0,1.33-3.33c-.1-.84-.88-2.2-.7-3.18a1,1,0,0,1,.66-.82h0l.11,0h0c1.21-.3,3.26,1.23,4,1.83,1.92,1.58,3.19,3.92,4.37,6.08,1.47,2.69,2.57,5.53,2.25,8.65a.3.3,0,0,0,0,.1,54.72,54.72,0,0,0-4.61,9.37A34.56,34.56,0,0,0,171,121.51c-.23,8,.07,16,.13,23.92l.19,24.28.2,25.18A.31.31,0,0,0,171.44,195.06Zm39.86-42.52a4.17,4.17,0,0,0,.22.37c1.45,2.13,4.56,3.18,6.74,4.35.37.2.7-.37.33-.57a33.79,33.79,0,0,1-5.58-3.18,5.13,5.13,0,0,1-1.74-3.38c-.12-.7-.21-1.4-.28-2.1l-.05-.55a1,1,0,0,0,0-.11,11.82,11.82,0,0,0,5.62,3.57c.4.13.58-.51.17-.63-3.39-1-7.62-3.92-6.12-8a.3.3,0,0,0,.13-.25,1.91,1.91,0,0,1,.07-.43,8.88,8.88,0,0,0,5.06,1.71.33.33,0,0,0,0-.66,8.18,8.18,0,0,1-7.19-4.58.3.3,0,0,0-.1-.12,32.2,32.2,0,0,1,.53-6.81,32.85,32.85,0,0,1,3.15-8c2.9-5.68,5.17-11.27,5.93-17.66,0-.42-.61-.42-.66,0-.74,6.26-3,11.76-5.84,17.33a37.17,37.17,0,0,0-3,7.05,32.5,32.5,0,0,0-.8,8.56c0,6.22.1,12.45.23,18.67s.08,12.61.6,18.87c.57,6.84,2.86,13.47,2.65,20.38a.29.29,0,0,0,.06.19c-1.32,7.42-7.67,12.64-14.62,14.88a47.54,47.54,0,0,1-11.83,1.89c-2.05.12-4.11.23-6.15.47-2.27.27-4.66,1.13-6.94.77,0-.26-.06-.52-.08-.78a.37.37,0,0,0,0-.12,72.49,72.49,0,0,1,0-8.91l.2-7.24a.29.29,0,0,0,.14-.26l-.36-45.94-.18-23a89.39,89.39,0,0,1,.29-11.1,30.9,30.9,0,0,1,3.41-10.67c1.9-3.69,4.07-7.25,6.13-10.85,1.26-2.21,2.52-5,4.53-6.81l0,0a19.43,19.43,0,0,0,.92-.55c.12-.13.25-.26.36-.39a6.19,6.19,0,0,1,.93-.42,3.9,3.9,0,0,1-.49,3.3c-.21.34.24.62.52.4A12.63,12.63,0,0,0,192.7,81l16.89,9c2.86,1.53,5.73,3,8.59,4.59a10.29,10.29,0,0,1,3.52,2.59,9.79,9.79,0,0,1,1.44,4.56q1.55,9.6,3.08,19.2l1.54,9.6c.52,3.27.87,6.33-.13,9.55-.12.4.51.58.63.17a14.57,14.57,0,0,0,.53-2.48c.86,2.12,1.73,4.71,1.39,7a.33.33,0,0,0-.12.58,4.94,4.94,0,0,1-1.45,2.47c-.31.29.15.75.46.46a5.43,5.43,0,0,0,1.48-2.32.36.36,0,0,0,.34-.09c2.27,3.45.81,7.67.15,11.45a3.47,3.47,0,0,0-.81-.24,10.09,10.09,0,0,0-3.08.31q-2.37.39-4.76.71c-2.64.35-5.3.62-8,.84C212.43,157.5,210.21,155.25,211.3,152.54Zm1.48,5.91c.23.21.47.42.71.62l-.59,0A3.42,3.42,0,0,1,212.78,158.45Zm19.34,6.69c-1,2.56-3.62,1.74-5.82,1.62-2-.1-4,0-6,.1-4.68.19-6.37-3.22-7.32-7.1l1.22-.1a.26.26,0,0,0,.35,0c3.51-.29,7-.68,10.49-1.2,2.1-.31,5.21-1.54,6.77.44C233.12,160.46,232.84,163.35,232.12,165.14Z" transform="translate(-120.87 -29.48)"/><circle class="cls-13" cx="53.57" cy="71.26" r="1.21"/><circle class="cls-13" cx="54.88" cy="85.7" r="1.21"/><circle class="cls-13" cx="54.88" cy="100.8" r="1.21"/><circle class="cls-13" cx="54.88" cy="115.25" r="1.21"/><circle class="cls-13" cx="54.88" cy="130.35" r="1.21"/><circle class="cls-13" cx="54.88" cy="145.45" r="1.21"/><circle class="cls-13" cx="54.23" cy="160.55" r="1.21"/><path class="cls-2" d="M177.69,59.77a4.82,4.82,0,0,0,.88,1.69,2.44,2.44,0,0,1,.81,2.43.26.26,0,1,1-.5-.15c.4-1.27-1.3-2.31-1.64-3.44,0,0,0-.1,0-.15a.76.76,0,0,0,.17-.3A.73.73,0,0,0,177.69,59.77Z" transform="translate(-120.87 -29.48)"/></g></svg>