<svg xmlns="http://www.w3.org/2000/svg" viewBox="0 0 130.23 330.52"><defs><style>.cls-1{fill:#23448c;}.cls-2{fill:#edc25b;}.cls-3{fill:#494949;}.cls-4{fill:#333;}.cls-5{fill:#030816;}.cls-6{fill:#f7c6ad;}.cls-23,.cls-7{fill:#edae8e;}.cls-8{fill:#f4d956;}.cls-9{fill:#80949b;}.cls-10{fill:#d9bc00;}.cls-11{fill:#f79479;}.cls-12,.cls-18,.cls-19{fill:none;}.cls-12,.cls-23{stroke:#f9b893;}.cls-12,.cls-18,.cls-19,.cls-23{stroke-miterlimit:10;}.cls-12{stroke-width:0.75px;}.cls-13{fill:#f9b893;}.cls-14{fill:#eaa18f;}.cls-15{fill:#e2a937;}.cls-16{fill:#e5a007;}.cls-17{fill:#fff;}.cls-18,.cls-19{stroke:#000;}.cls-18{stroke-width:0.82px;}.cls-19{stroke-width:0.61px;}.cls-20{fill:#1d3277;}.cls-21{fill:#8e8b8a;}.cls-22{fill:#667b8e;}.cls-23{stroke-width:0.5px;}.cls-24{fill:#f4a70f;}.cls-25{fill:#bf7c04;}</style></defs><title>Character 3a</title><g id="sneakers_colour" data-name="sneakers colour"><path class="cls-1" d="M150.09,340.46a1.53,1.53,0,0,0-1.44,1.19,1.55,1.55,0,0,0-.72-.25c-2.27-.2-4.54-.45-6.79-.76-1.24-.17-3.14-.9-4.37-.27s-1,1.85-1.49,2.81c-.66,1.37-1.69,2.2-1.91,3.8a1.89,1.89,0,0,0,0,.63,1.26,1.26,0,0,0-.94,1.37c0,.14,0,.27.06.4h0l0,.08a5.22,5.22,0,0,0,.45,1.41,6.24,6.24,0,0,0,1.22,1.93.47.47,0,0,0,0,.12,6,6,0,0,0,2.93,2.33.4.4,0,0,0,.49-.13,5.17,5.17,0,0,0,.52.13.51.51,0,0,0,.55-.27,7.7,7.7,0,0,0,2.36-.22,1.55,1.55,0,0,0,1.11,1.54,1.49,1.49,0,0,0,1.54-.51,2.25,2.25,0,0,0,.54-.16,9.17,9.17,0,0,0,1.32-.7,1.89,1.89,0,0,0,.2-.12.43.43,0,0,0,.4-.05l2.42-1.6a.52.52,0,0,0-.16-.93,6.34,6.34,0,0,0,1.07-4.81l1.58-3.86a1.05,1.05,0,0,0,.06-.45,1.44,1.44,0,0,0,.41-1V342A1.52,1.52,0,0,0,150.09,340.46Zm-6.93,10.35a6.13,6.13,0,0,0-3.32.29l-.22,0c-1.11-.05-2.93-.16-3.75-1.13a6.4,6.4,0,0,1-.44-1.24,2,2,0,0,0,.44-.26,12.87,12.87,0,0,1,1.84-1.2,1.31,1.31,0,0,0,.57.15,51.62,51.62,0,0,0,7.79-.57,5.35,5.35,0,0,1,.27.58,1.15,1.15,0,0,0,.26,1.28,3.1,3.1,0,0,1-.55,1.77,1.68,1.68,0,0,0-.65,0Z" transform="translate(-87.35 -29.32)"/><path class="cls-1" d="M214.36,342.72c.56-2-2.61-5.23-3.42-6.43a1.51,1.51,0,0,0-.63-.54,1.41,1.41,0,0,0-1.15-.63c-2.82,0-7.42.38-10.21,2.19a9.28,9.28,0,0,0-1.48.81,1.58,1.58,0,0,0-.69,1.69c.3,1.56,1.79,3.38,2.56,4.73a1.53,1.53,0,0,0,.17.22,1.46,1.46,0,0,0-.21,1.16,7.86,7.86,0,0,0,3,4.59,1.87,1.87,0,0,0,.77.28,1.55,1.55,0,0,0,.81.75,5.46,5.46,0,0,0,6-1.13c.42.12.87.36,1.2.44l.44.11a1.43,1.43,0,0,0,.35.63,1.52,1.52,0,0,0,2.12,0,6.45,6.45,0,0,0,1-1.34,3.05,3.05,0,0,0,.74-.85C216.83,347.42,215.57,344.63,214.36,342.72Zm-5.74-4.5.22.36-.2,0c-.44,0-.91-.08-1.38-.11Zm2.09,9.38a3.6,3.6,0,0,0-2.36-.11h0c-1.42-.23-3.19.26-4.57.34a5.54,5.54,0,0,1-1.57-2.7,1.43,1.43,0,0,0-.29-.62,1.74,1.74,0,0,0,.18-.31c.57-1.38,6.34,0,9.63,0,.64,1,1.63,2.77,1.42,3.58a1.14,1.14,0,0,0-.41.4C212.15,348.27,211.17,347.75,210.71,347.61Z" transform="translate(-87.35 -29.32)"/><path class="cls-2" d="M145.87,346.78a11.22,11.22,0,0,0-3.91.77,8.84,8.84,0,0,1-4,.35,2.76,2.76,0,0,0-1-.15,1.67,1.67,0,0,0-.63.27c-.35,0-.65.25-.73.83-.16,1.16.82,1.6,1.91,1.65l.38.19a.52.52,0,0,0,.52,0,.4.4,0,0,0,.53.19,30.62,30.62,0,0,1,2.93-.92,5,5,0,0,1,.72-.06,25.27,25.27,0,0,1,2.49.47,2.65,2.65,0,0,0,2.35-.66C148.57,348.36,147.32,346.92,145.87,346.78Z" transform="translate(-87.35 -29.32)"/><path class="cls-2" d="M137.27,355.83a.42.42,0,0,0-.36-.41,5.59,5.59,0,0,1-3.8-2.74.5.5,0,0,0-.86,0c-1.26,2.68,3,3.9,4.8,4.09C137.6,356.81,137.67,356.07,137.27,355.83Z" transform="translate(-87.35 -29.32)"/><path class="cls-2" d="M150.48,351.61c-.3-.39-.81,0-.85.35-.23,2-2.33,2.88-4,3.52a.52.52,0,0,0-.32.58l-.05,0c-.59.26-.08,1.12.5.86a23.65,23.65,0,0,0,3.65-1.74c.3-.17.61-.33.9-.52a.47.47,0,0,0,.22-.45A1.92,1.92,0,0,0,150.48,351.61Z" transform="translate(-87.35 -29.32)"/><path class="cls-2" d="M152.45,341.21a18.56,18.56,0,0,1-1.48,4.37c-.26.58.6,1.09.86.5a19.61,19.61,0,0,0,1.59-4.61C153.53,340.85,152.56,340.58,152.45,341.21Z" transform="translate(-87.35 -29.32)"/><path class="cls-2" d="M139.43,341.11a.47.47,0,0,0-.43-.47.49.49,0,0,0-.83-.27c-.26.27-.48.56-.72.85a5.36,5.36,0,0,1,.23-.49.47.47,0,0,0,.17-.08l.06,0a.51.51,0,0,0,.18-.68l-.06-.09a.52.52,0,0,0-.68-.18c-.3.14-.39.41-.54.7-.31.58-.6,1.16-.93,1.73a33.51,33.51,0,0,1-2.18,3.27c-.31.41.28.93.68.68a8.12,8.12,0,0,1,2.27-1,4.2,4.2,0,0,0,1.6-.55,2.46,2.46,0,0,0,.8-1.22.44.44,0,0,0,.44-.48Z" transform="translate(-87.35 -29.32)"/><path class="cls-2" d="M150.42,345.2l.55-2.86a.51.51,0,0,0-.48-.63,16,16,0,0,1-3.19-.13.56.56,0,0,0-.38.07.53.53,0,0,0-.35-.27.52.52,0,0,0-.69.3c0,.07,0,.16-.07.23a.52.52,0,0,0-.11.19,4.3,4.3,0,0,0,0,2.63.51.51,0,0,0,.48.37l.23,0a3.91,3.91,0,0,0,2.32.56,6.21,6.21,0,0,1,1,.61c.42.31.81-.19.69-.6A.44.44,0,0,0,150.42,345.2Z" transform="translate(-87.35 -29.32)"/><path class="cls-2" d="M199.11,344l-2.64-3.93a.52.52,0,0,0-.94.29c-.25-.22-.49-.45-.74-.66-.44-.36-1,.15-.83.56a.41.41,0,0,0-.15.51,5.74,5.74,0,0,0,4.24,3.68.51.51,0,0,0,.17,0l0,.06C198.6,345.06,199.47,344.56,199.11,344Z" transform="translate(-87.35 -29.32)"/><path class="cls-2" d="M206,352.73a.44.44,0,0,0-.24-.4c-1-.51-2.77-.76-4.14-1.34a12.43,12.43,0,0,1-2-3.85c-.2-.61-1.16-.35-1,.27.06.17.13.34.19.51l-.06,0a2.06,2.06,0,0,0-.13,2.89,2.39,2.39,0,0,0,1.38,1.84,8.94,8.94,0,0,0,5.66.63A.46.46,0,0,0,206,352.73Z" transform="translate(-87.35 -29.32)"/><path class="cls-2" d="M216.65,350.28c.22-.5-.56-.93-.9-.42a7.32,7.32,0,0,1-2.49,2.32.5.5,0,0,0,.5.86,8.38,8.38,0,0,0,.88-.58c.13.31.51.51.77.18a9.7,9.7,0,0,1,1.11-1.19.43.43,0,0,0,.3-.33A.92.92,0,0,0,216.65,350.28Z" transform="translate(-87.35 -29.32)"/><path class="cls-2" d="M215.08,343.27l-5.66-8.13a.53.53,0,0,0-.83,0l-.29-.41c-.36-.51-1.19,0-.88.47a.45.45,0,0,0,0,.69c1.13,1,1.55,2.57,2.41,3.79a18.3,18.3,0,0,1,2.59,3.88.41.41,0,0,0-.11.21c-.52-.1-1-.15-1.45-.19-2-.21-4.1.44-6.1.41a4.56,4.56,0,0,0-1.29-.16.48.48,0,0,0,.09-.45.43.43,0,0,0,.35.06.47.47,0,0,0,.36,0l0,.07c.29.57,1.15.07.86-.5a31.92,31.92,0,0,0-4.27-6.38l-.25-.41a.48.48,0,0,0-.72-.12l-.16-.21c-.29-.36-.72-.1-.8.26l-.32-.42c-.41-.5-1.11.21-.71.71.24.3.47.61.7.92a.54.54,0,0,0-.69.31.53.53,0,0,0-.52.39c-.39-.34-1.09.11-.76.6l.16.24a.54.54,0,0,0-.36.87,21.69,21.69,0,0,1,3.08,5,.5.5,0,0,0,.48.83l1.38-.4a.56.56,0,0,0,.61.15s0,.07,0,.12c.5,3.14,6.13,1.43,8,1.57h.18a.39.39,0,0,0,.19.19,2.66,2.66,0,0,0,1.67.34h.06a.39.39,0,0,0,.4.19,1.41,1.41,0,0,0,1.14-.69.46.46,0,0,0,.07-.27c.74-.3,1.13-.86.59-1.91a1.78,1.78,0,0,0-.64-.68l1.13-.22A.5.5,0,0,0,215.08,343.27Zm-3.89,1.3c-.37,0-.77,0-1.15,0l-2.15,0a10.71,10.71,0,0,1,1.27-.11c.44,0,2.93-.07,3.22.35A2.46,2.46,0,0,0,211.19,344.58Z" transform="translate(-87.35 -29.32)"/></g><g id="sneakers_drawing" data-name="sneakers drawing"><path class="cls-3" d="M151,347.77a15.69,15.69,0,0,0,2.47-3.44,4.48,4.48,0,0,0,.19-1.65c0-.55-.29-1.39-.25-2h0a.51.51,0,0,0-.18-.68l-.05,0a.5.5,0,0,0-.73.3,2.56,2.56,0,0,0,0,.44c0-.53-.87-.72-1-.13-.32,2.07-1.15,4-1.58,6A4.25,4.25,0,0,0,147,344.9c-.23,0-.94.11-1.12,0a.72.72,0,0,1-.38-.69,13.22,13.22,0,0,1,1.38.48c.59.25.85-.72.27-1a13.55,13.55,0,0,0-1.43-.5v0l.2-.65a4.25,4.25,0,0,1,.76.5c.49.41,1.2-.29.71-.71a5.76,5.76,0,0,0-1.17-.74l.17-.54c.29.12.57.25.85.41.57.31,1.07-.55.5-.86a10.55,10.55,0,0,0-1.06-.5l.13-.44c.19-.62-.77-.88-1-.27l-.12.38a9.64,9.64,0,0,0-4.1-.3l0-.19c.13-.63-.83-.9-1-.27,0,.22-.1.45-.16.67a10.62,10.62,0,0,0-1.67.56c-.59.26-.08,1.12.5.86a9.21,9.21,0,0,1,.87-.32c0,.11-.08.23-.11.34a8.76,8.76,0,0,0-1.8.63c-.58.29-.07,1.15.5.86a6.57,6.57,0,0,1,.9-.36c-.09.24-.2.48-.3.72a13.73,13.73,0,0,0-1.59.42c-.61.2-.35,1.17.27,1l.59-.17a4.27,4.27,0,0,1-2.58,1.06,5.65,5.65,0,0,0-2.42,1c1-2.43,2.83-4.43,3.75-6.91.22-.6-.74-.87-1-.27-1.13,3.07-3.66,5.65-4.34,8.82l-.06.08a.42.42,0,0,0,0,.44,7.3,7.3,0,0,0-.05,1.71.47.47,0,0,0-.15.23,11.8,11.8,0,0,0-.4,4.28.37.37,0,0,0,0,.05h0c0,.16.05.33.08.49v0l0,0c.2.19.42.38.63.56,4.71,5.38,12.44,5.11,17.48.58a6.66,6.66,0,0,0,1.86-2,.44.44,0,0,0,0-.42.45.45,0,0,0,0-.07,8.62,8.62,0,0,0-.87-3.55.42.42,0,0,0-.3-.25c.1-.69.13-1.39.2-2.13A.51.51,0,0,0,151,347.77Zm1.4-6.89c0,1.09.56,2.2,0,3.31a10.63,10.63,0,0,1-1.53,2.13C151.34,344.5,152.1,342.77,152.39,340.89Zm-4.4,8.53a2.33,2.33,0,0,1-2.45.78c-.28.29-.76-.14-2-.25a6.41,6.41,0,0,0-1.63,0c-2.34.3-5.11,2-6.21-1.46,0,0,0,0,0,0-.05-.75,4.43-.37,5.23-.47a19.06,19.06,0,0,0,2.41-.58q.8-.24,1.62-.42a3.78,3.78,0,0,1,.63-.19,1.72,1.72,0,0,1,2,.13A2.07,2.07,0,0,1,148,349.42Zm-6.61-8.92a8.64,8.64,0,0,1,4,.23l-.15.5a9.38,9.38,0,0,0-4-.31ZM141,342a8.9,8.9,0,0,1,4,.21l-.25.81a12.82,12.82,0,0,0-4-.2C140.83,342.52,140.92,342.25,141,342Zm-8.17,13.11-.38-.45a11.13,11.13,0,0,1,.07-2.45,7.26,7.26,0,0,0,4.43,3.66C135.46,356.61,134.07,356.1,132.83,355.09Zm10.36-.22c-.81-.67-1.5-1.53-2.65-1.56a2,2,0,0,0-1.55.54,9.81,9.81,0,0,0-1.06,1.29c-3.44-1-5.32-3.51-4.81-6.82a4.92,4.92,0,0,1,3.91-2.13,2.82,2.82,0,0,0,2-.44,5.27,5.27,0,0,0,1.31-1.9,11.92,11.92,0,0,1,4.15.13,1.89,1.89,0,0,0,.19,1.55c.37.46.84.38,1.37.38a4.72,4.72,0,0,1,1.38.18,8.44,8.44,0,0,0-3.92.23,11.64,11.64,0,0,1-5.07.56,7.52,7.52,0,0,0-2-.26c-1.09.13-1.75.7-1.67,1.82h0a.48.48,0,0,0,0,.23c1.07,3.5,3.82,3.07,6.69,2.37,2.26-.55,7.21,1.6,7.64-2.45a2.18,2.18,0,0,0-.69-2.07,3.51,3.51,0,0,1,1.16,1.42.47.47,0,0,0,.1.13c0,.06,0,.12,0,.18-.25,3.6-2.12,6.57-5.9,7C143.53,355.12,143.36,355,143.19,354.87Zm7.39-1a.47.47,0,0,0,0,.06,12.85,12.85,0,0,1-1.28,1.43,4.38,4.38,0,0,1-4.18.58,7.41,7.41,0,0,0,4.74-3.95,5.6,5.6,0,0,0,.23-.56A7.44,7.44,0,0,1,150.57,353.9Z" transform="translate(-87.35 -29.32)"/><path class="cls-3" d="M217.33,348.6a.47.47,0,0,0-.38-.33,7.5,7.5,0,0,0-.44-3.62,23.59,23.59,0,0,0-2.84-4.81c-1.36-2-2.59-4.15-3.86-6.23-.33-.55-1.2,0-.86.5,1.54,2.54,3.08,5.06,4.75,7.52,1.9,2.81,4.2,7.75-.13,9.69a.41.41,0,0,0-.24.27c-1.16-.8-2.24-2.07-3.91-1.35a6,6,0,0,0-1.75,1.31h0c-4,.75-6.91-1.66-7.77-5.32L200,346a.48.48,0,0,0-.32-.72,16.57,16.57,0,0,0-2.79-5.63c-.35-.54-1.21,0-.86.5.58.9,1.24,1.78,1.75,2.72a7.81,7.81,0,0,1,.68,1.82,13.76,13.76,0,0,1-2.73-1.52,5.27,5.27,0,0,1-1.42-1.49c-.08-.12-1.06-2.06-.86-2.28.43-.48-.28-1.19-.71-.71-.9,1,.54,3.42,1.26,4.26a11.81,11.81,0,0,0,4.73,2.92l0,.2c-1,1.52-2,2.87-1.44,4.7a.49.49,0,0,0,0,.33,4.29,4.29,0,0,0,.46.73c1.12,1.86,3.4,3,5.35,3.65a13.09,13.09,0,0,0,14.06-3.41,1.23,1.23,0,0,1,.15-.53A5.07,5.07,0,0,0,217.33,348.6Zm-18.81-.24a5.7,5.7,0,0,1,.57-1,7.46,7.46,0,0,0,1.36,2.65,7.29,7.29,0,0,0,5.89,2.64,3.71,3.71,0,0,1-1,.45,7.34,7.34,0,0,1-6.42-1.5A3.22,3.22,0,0,1,198.51,348.36Zm17.91,3a.49.49,0,0,0,0,.18,2.22,2.22,0,0,1-2.12.58,4.71,4.71,0,0,0,2.25-2.36A4.07,4.07,0,0,1,216.42,351.32Z" transform="translate(-87.35 -29.32)"/><path class="cls-3" d="M212.48,343.22a.49.49,0,0,0-.13-.38c-.4-.45-.78-.87-1.14-1.3a3.64,3.64,0,0,1,.7.41c.5.39,1.21-.31.71-.71a5.7,5.7,0,0,0-2.51-1.1c-.17-.24-.34-.47-.5-.73l-.05-.09a4.71,4.71,0,0,1,1.06.39c.57.3,1.07-.56.5-.86a6.44,6.44,0,0,0-2.26-.66l-.4-.65a2.2,2.2,0,0,1,.5.26c.52.38,1-.49.5-.86a3.48,3.48,0,0,0-1.66-.59c-.18-.33-.37-.66-.54-1-.29-.58-1.15-.07-.86.5.08.16.17.31.25.47a14.08,14.08,0,0,0-2.84.55l-.84.23,0-.05c-.24-.59-1.21-.33-1,.27l0,.1c-.86.34-1.62.84-1.45,1.62s1.1.36,1-.27c0-.06.37-.22.88-.39l.39,1a8.7,8.7,0,0,0-1.36.81c-.51.38,0,1.25.5.86a8,8,0,0,1,1.24-.74l.23.56a3.69,3.69,0,0,0-.94.69c-.45.46.26,1.17.71.71a3.1,3.1,0,0,1,.67-.51c.05.08.09.17.15.25s.73.72.75.6a.49.49,0,0,0,.07.37c-1.62-.12-3.07.12-3.76,1.73a.43.43,0,0,0-.3.58,4.53,4.53,0,0,0,2.21,3c1.57.68,3.21-.23,4.79-.33,2.19-.15,6.22,2.27,7-1.23C215.32,344.23,214.09,343.38,212.48,343.22Zm-8.8-4.29-.33-.86c.72-.22,1.41-.41,1.58-.44a11.38,11.38,0,0,1,2.28-.29l.47.81A11.66,11.66,0,0,0,203.68,338.94Zm.65,1.51c-.09-.19-.18-.37-.26-.57a10.62,10.62,0,0,1,4.2-.72l.53.85q-.58,0-1.17,0A13.4,13.4,0,0,0,204.33,340.45Zm.49.84a10.17,10.17,0,0,1,4.66-.26,26.5,26.5,0,0,0,1.85,2.19,10.82,10.82,0,0,0-1.32.18,15.62,15.62,0,0,1-4.37-.37.48.48,0,0,0,.08-.19C205.87,342.11,205.27,341.77,204.83,341.29Zm8.91,5.61c-.68.82-1.82.63-2.93.29-.34,0-.69-.13-1.36-.23a8.14,8.14,0,0,0-1.67-.08c-2.21.12-4.71,1.16-5.89-1.54.91-2.87,4.86-.66,6.71-.7a7.6,7.6,0,0,0,1.3-.19q.58-.12,1.15-.28l.34.1a2.6,2.6,0,0,1,2,.35A1.62,1.62,0,0,1,213.74,346.9Z" transform="translate(-87.35 -29.32)"/></g><g id="trousers_colour" data-name="trousers colour"><path class="cls-4" d="M209.56,330.15a1.62,1.62,0,0,0-1.18-.73,11.47,11.47,0,0,0-.65-1.13,14.45,14.45,0,0,0-1.2-4.94c-.74-2.18-1.39-4.39-2-6.61a3.53,3.53,0,0,0-.73-2.27l-.07-.09-.13-.15c1.65-12.53,3.91-25.55,1.91-38,0-.45,0-.89,0-1.34.16-11.8-1.86-23.11-2.77-34.8a4.15,4.15,0,0,0-.54-1.78q0-1.52-.07-3a4.1,4.1,0,0,0-.39-1.69,89.84,89.84,0,0,0-.31-15.39c-.92-7.72-2.77-15.28-3-23.07a3.92,3.92,0,0,0-.69-2.17,4.07,4.07,0,0,0-5-3.12c-16.47,3.39-33.38,5.64-50,1.78a4,4,0,0,0-4.91,3.43,3.83,3.83,0,0,0-.37,1.87l.8,19.44a1.11,1.11,0,0,0-.21.47,19.39,19.39,0,0,0-.08,5,1.37,1.37,0,0,0-.17.78c.3,4.33.73,8.63,1.25,12.94l.24,5.76a44,44,0,0,0,.63,13.74,4.41,4.41,0,0,0-.17.43A89,89,0,0,0,136,275.9a1.32,1.32,0,0,0-.54,1.16c0,.53,0,1.06.07,1.6a1.65,1.65,0,0,0-.3.73,23.37,23.37,0,0,0,.55,8.91q.12,3.38.4,6.82c.53,6.46-1,12.08-1.5,18.41a16.79,16.79,0,0,0,.06,3.17,1.4,1.4,0,0,0-.26.2,1.53,1.53,0,0,0,0,2.12,7.26,7.26,0,0,0,1,.91,12.15,12.15,0,0,0,1.38,2.63,6.07,6.07,0,0,0-.59,3.24,2,2,0,0,0,.15.56c-.17.62-.33,1.24-.5,1.85l-1.45,5a3.68,3.68,0,0,0-1.86,3.75c.41,2.74,2.9,2.9,5.15,3,2.07.12,4.14.25,6.21.43,1.24.11,2.68.44,4,.46a1.49,1.49,0,0,0,1.21.64,6.7,6.7,0,0,0,1.3-.17l.28,0a2.14,2.14,0,0,0,.53-.21h0a1.57,1.57,0,0,0,1.1-1.45,1.37,1.37,0,0,0,0-.27,17.72,17.72,0,0,0,0-2.54,1.42,1.42,0,0,0-.34-.93,1.49,1.49,0,0,0,.39-.6l.42-1.2v0l0-.06a1.39,1.39,0,0,0,.26-.67c.19-.52.36-1,.5-1.57a1.62,1.62,0,0,0,.05-.51c.84-4.07.1-8.58-1-12.79A106.79,106.79,0,0,0,162.68,291a4.08,4.08,0,0,0,0-1.94,252.83,252.83,0,0,1-1.07-28.68,27.73,27.73,0,0,1,1.11-5.26,1.28,1.28,0,0,0-.37-1.44,4.41,4.41,0,0,0,.09-.52,207.12,207.12,0,0,1,4.42-25.63c1.1-2.32,1.72-5,2.65-7.51,2.8,6.39,4.31,13.11,5.83,20.06q1.52,6.91,2.86,13.86a4,4,0,0,0,0,3.15,4.26,4.26,0,0,0,.46,1.48c.29,5.93.23,11.74,0,17.71-.22,6.31,2.12,12.07,3.27,18.19,1.22,6.46,1.83,13,3.22,19.45.7,3.23,1.68,6.38,2.56,9.56.39,1.41,1.87,5.4,2.16,7.92a6.56,6.56,0,0,0-1.15,1.61,2.21,2.21,0,0,0-.11,2.14,1.75,1.75,0,0,0,.33.41,4.05,4.05,0,0,0,2.87,4.51,3.75,3.75,0,0,0,3.15-.44,1.21,1.21,0,0,0,1.19-.2,18.07,18.07,0,0,1,6.2-3.05c1.73-.45,3.73-.49,5.27-1.5a4,4,0,0,0,.37-.28,1.55,1.55,0,0,0,.92.34,1.53,1.53,0,0,0,1.5-1.5A5.25,5.25,0,0,0,209.56,330.15Z" transform="translate(-87.35 -29.32)"/></g><g id="trousers_drawing" data-name="trousers drawing"><path class="cls-5" d="M209.67,330.09c-1.36-2.68-1.5-5.85-2.85-8.57a30.51,30.51,0,0,1-3.24-9.71.44.44,0,0,0-.31-.41c.26-1.15.49-2.3.65-3.47.5-3.72.36-7.42,1.06-11.13a.61.61,0,0,0-.27-.66,48.36,48.36,0,0,0,1.25-6,.74.74,0,0,0,0-.24.7.7,0,0,0,0-.23v-.53a.59.59,0,0,0,.14-.42,7.73,7.73,0,0,0-.16-1.38c.28-9.93-.64-19.83-1.4-29.71-.74-9.67-2-19.49-2.12-29.2a.63.63,0,0,0,.12-.36c.2-6-1.17-12.49-1.83-18.46-.31-2.8-.61-5.61-.93-8.41-.37-3.19-1.3-6.17-1.42-9.41a.62.62,0,0,0-.17-.43c-.05-.36-.09-.73-.16-1.09-.12-.67-.89-.49-1,.09a.56.56,0,0,0-.05.49,4.6,4.6,0,0,1,.22,1.49.59.59,0,0,0,.14.41c0,.09,0,.18,0,.27a.62.62,0,0,0,.06.2c.22,2.05.69,4,1.05,6,.59,3.38.8,6.92,1.18,10.34.64,5.79,1.93,12,1.83,17.89a.6.6,0,0,0-.13.4c.11,9.88,1.38,19.88,2.14,29.71.78,10.14,1.73,20.29,1.38,30.48a.67.67,0,0,0,0,.25v1.31a.65.65,0,0,0,0,.1s0,0,0,.05c-.65,4.24-1.62,9.52-4.72,12.18-2.93,2.51-6.82,2.84-10.12,4.32-.6.27-.34,1.42.27,1.15,3.63-1.63,8-1.94,11-5.05a11.52,11.52,0,0,0,2.18-3.32c-.28,2.51-.34,5-.58,7.58-.35,3.85-1.59,7.63-2.52,11.32-.18.74.78,1.05,1,.32.41-1.66.88-3.32,1.31-5a40.16,40.16,0,0,0,3.54,9.61c.94,2,1,4.34,1.84,6.44.32.82,1.07,1.7,1.31,2.52.64,2.24-1,2.29-2.47,2.42a21.22,21.22,0,0,0-9.18,3.43c-1.85,1.21-3.27,2.83-5.55,2.17a4.65,4.65,0,0,1-3.24-3.5,10.68,10.68,0,0,1,.19-3.43,35.65,35.65,0,0,0,1.47,4.16c.28.69,1.14.09.86-.6a22,22,0,0,1-1.88-7.67,24,24,0,0,0-.57-5.19c-1-4-2.24-7.9-3.24-11.9s-2.07-8.26-3-12.43c-.87-4-1-8.27-2.1-12.16a.53.53,0,0,0-.31-.37,29.71,29.71,0,0,1-1.37-7.1c-.11-2.53.25-5.06.28-7.59.06-4.92.15-10.12-.23-15-.75-9.75-3.49-19.67-6.12-28.91a.67.67,0,0,0,0-.22q-1.4-4.46-2.74-8.95a.56.56,0,0,0-.28-.36,14.25,14.25,0,0,0,.27-3.06.54.54,0,0,0,.64-.55c.13-2.09.4-3.34,2.29-4.21a11,11,0,0,1,1.53-.45l5-1.43c3.33-1,6.61-2,10.06-1.66.64.06.64-1.14,0-1.19-4.72-.43-9.39,1.43-13.93,2.74-3.14.91-5.2,1.45-5.77,5a5.92,5.92,0,0,0-.48-1.3,15.42,15.42,0,0,1-1.24-2.42c2.08-.27,4.19-.8,5-3.4,1.34-4.33-.85-9.27,0-13.77.13-.75-.83-1.07-1-.32a26.06,26.06,0,0,0,.07,7.59,18.45,18.45,0,0,1,.19,5c-.48,2.78-2.24,3.48-4.32,3.74a.47.47,0,0,0-.19.07c-.29-1.59-.35-3.3-.5-4.91l-.88-9.16c-.07-.75-1.07-.76-1,0,.46,4.78.49,10,1.47,14.68a7.76,7.76,0,0,0,.7,1.87c-5.32.13-10.66-2.51-15.84-.06-.59.28-.33,1.43.27,1.15,5-2.34,10.12.11,15.23.11a.42.42,0,0,0,.26.09.41.41,0,0,0,.26-.1h0a.43.43,0,0,0,.31-.15,7.9,7.9,0,0,1,.74,1.94.4.4,0,0,0-.13,0,100.71,100.71,0,0,0-15.6,6.84c-.59.32-.08,1.35.5,1a99.12,99.12,0,0,1,15.36-6.72h0a17.79,17.79,0,0,1-1.47,7,.52.52,0,0,0-.27.38c-5,21.62-8,44.11-5.55,66.51a.69.69,0,0,0,0,.13c-.72,9.61-5.39,18.5-8.75,27.13l-.2.51a.46.46,0,0,0-.3.54l0,.18c-.71,1.86-1.41,3.73-2.2,5.54-.66,1.53-1.63,2.93-2.21,4.5-1.18,3.16.06,7,1.52,9.74a.55.55,0,0,0,.09.11c0,.28.17.55.48.55.47,0,.6-.65.37-1a.64.64,0,0,0-.08-.27c-1.16-2.16-2.36-5.38-1.7-8,.52-2.05,2-4.08,2.81-6,.4-1,.78-2,1.17-3,.3,2.54.61,5.09.79,7.64.23,3.33-1,6.23-2,9.27a.53.53,0,0,0,.11.57.68.68,0,0,0,0,.17c.77,3.2-1.55,3-3.41,2.8s-3.86-.67-5.78-1a32.7,32.7,0,0,0-3.78-.5c-2-.12-4.23.46-5.85-1.16a5.14,5.14,0,0,1,.7-4.45c-.17.73-.34,1.45-.51,2.18s.79,1.06,1,.32q1.49-6.33,2.95-12.68l.21.24a5.62,5.62,0,0,1,1.33,4.78c-.25,1-1.5,2.05-2.09,2.69s.23,1.36.71.84c1.56-1.68,3.37-3.67,2.5-6.37a9.26,9.26,0,0,0-2.4-3.5.54.54,0,0,0-.46-.48c-1.34-1.42-2.52-2.88-2.09-5.34,1.43-8.11,2.44-15.92,1.54-24.2a.65.65,0,0,0,0-.32c-1.6-6.57-.8-13.25.17-19.87.74-5,1.55-10,2.77-14.94l.14,2.34c.27,4.46.45,8.58-1.41,12.63-.31.67.55,1.28.86.6,3.1-6.76,1.43-15.2,1-22.52L138.38,224a.57.57,0,0,0,.14-.43q-.64-14.63.13-29.25c0-.77-1-.76-1,0q-.76,14.21-.16,28.43a.54.54,0,0,0-.16.45l1.5,24.39.38,6.17a.63.63,0,0,0-.08.16,144.08,144.08,0,0,0-3.78,19.76c-.84,6.06-1.31,12.16.11,18.14a.71.71,0,0,0,0,.09c1,8.19-.08,16-1.5,24-.34,1.9-.37,3.36.79,4.83a18.87,18.87,0,0,0,1.63,1.73q-1.05,4.58-2.13,9.15a.36.36,0,0,0-.28.11,6.42,6.42,0,0,0-1.84,6.56.56.56,0,0,0,.15.45c1.55,1.67,3.3,1.55,5.29,1.56a57.92,57.92,0,0,1,9.05,1.28c3.22.53,7.61,1.54,6.26-4a.65.65,0,0,0-.09-.2c.91-2.77,2.22-5.66,2.11-8.69-.13-3.46-.69-7-1.07-10.4.95-2.45,1.88-4.9,2.83-7.34,2.81-7.23,6-13.94,6.42-22a.52.52,0,0,0-.2-.48c-2.2-21.76.7-43.56,5.51-64.57a.57.57,0,0,0,.13-.2,27.66,27.66,0,0,0,1.12-3.28q1.14,3.81,2.33,7.6a.66.66,0,0,0,0,.15c1.43,5,2.72,10.08,3.82,15.21s2.36,10.54,2.49,15.91c.12,5,.3,10.14.06,15.12a37.79,37.79,0,0,0,1.47,13.76.56.56,0,0,0,.26.34c.88,3.64,1.06,7.56,1.87,11.24,1,4.53,2.12,9,3.25,13.5,1,4,2.55,8.08,3.28,12.21.29,1.65.18,3.34.31,5a.48.48,0,0,0-.21.38c-.56,4.79-1.25,8.93,3.45,10.3,2,.58,3.32,0,5-1.31a23.71,23.71,0,0,1,7.87-3.83c1.85-.52,4.48.43,5.72-1.89C211.47,332.44,210.37,331.46,209.67,330.09Z" transform="translate(-87.35 -29.32)"/></g><g id="Arms_colour" data-name="Arms colour"><path class="cls-6" d="M135.5,131.87a2,2,0,0,0-1.81-1.25v-.1c.37-2.87-3.8-4.11-4.18-1.21-.09.67-.16,1.33-.24,2a2.32,2.32,0,0,0-3.24,1C129.18,132.06,132.33,132,135.5,131.87Z" transform="translate(-87.35 -29.32)"/><path class="cls-6" d="M214.9,150.62c.16-4.6-1.17-8.73-2.73-12.87a87.57,87.57,0,0,1-.5-11,2.56,2.56,0,0,0-4.23-1.19,2.25,2.25,0,0,0-3.59.23,2.35,2.35,0,0,0-3,1,2.36,2.36,0,0,0-2.69,2.8c.31,1.57.65,3.12,1,4.66a2,2,0,0,0-.36,2c.71,2.16,1.3,4.34,1.81,6.52a2.11,2.11,0,0,0-.13,1.07c.9,7.53.43,15.17.87,22.73.41,7.08,1,14.14.24,21.18a11.59,11.59,0,0,0-2.79,4.05c-.9,2.34-.42,4.88-1,7.25-.12.31-.23.63-.34.95-.54,1.31-2,3.41-1.39,4.84a.87.87,0,0,0,.21.77v.09c-.1.93,1,1.1,1.5.53a.69.69,0,0,0,1.07-.35c.83-2,1.33-4.19,2.14-6.23,1.78-1.11,3.31,0,3.17,2.17a5.73,5.73,0,0,1-.09.66c-1.2,1.19-2.45,2.34-3.72,3.47a11,11,0,0,0-2.91,4.85c-.32.38-.63.77-.93,1.18a.93.93,0,0,0,.31,1.24c1.71.88,2.92-1,4-2.2l.21-.24a.83.83,0,0,0,.46-.21c2.5-2.31,5-4.75,6.6-7.84a.83.83,0,0,0,.91-.62c.12-.37.22-.74.32-1.1a.91.91,0,0,0,.43-.48c1-2.45.5-5.13,0-7.7,0-.07,0-.14,0-.21s0-.32,0-.49a.86.86,0,0,0-.07-.3v-.07c1.29-3,1.67-6.7,2.27-9.91a2.17,2.17,0,0,0,.39-1.93c-.31-1.27.35-2.85.57-4.12.26-1.5.45-3,.57-4.55a1.92,1.92,0,0,0-.56-1.63A180.42,180.42,0,0,0,214.9,150.62Z" transform="translate(-87.35 -29.32)"/></g><g id="hands"><path class="cls-7" d="M210,190c0-.46,0-.91,0-1.36l-.57-.1c0,.75,0,1.5.09,2.27a37,37,0,0,1,.28,7.54c-.32,2.72-1.91,4.58-3.51,6.64a46.46,46.46,0,0,1-4.24,4.86,23.58,23.58,0,0,1-2.63,2.23,7.18,7.18,0,0,1-1.37.9c-.55.22-.2.32-1,0q-.84,0-.41-.59a2.77,2.77,0,0,1,.56-1c1.38-1.73,3.4-2.77,4.79-4.55a15.94,15.94,0,0,0,2.85-6,.31.31,0,0,0,0-.13.28.28,0,0,0,.08-.28,2.6,2.6,0,0,0-2.05-2,3.63,3.63,0,0,1,.35-.15c.35-.12.2-.7-.15-.58a4,4,0,0,0-1.32.76l-.16,0a.28.28,0,0,0-.2.31,6.09,6.09,0,0,0-1.15,1.91c-.44,1.1-.62,2.28-1,3.39a5.83,5.83,0,0,1-.55,1.22,1.17,1.17,0,0,0,0-.82,1.33,1.33,0,0,0-.34-.51.24.24,0,0,0-.13-.14l-.09,0h0l-.26-.08h0a1.17,1.17,0,0,0-.89.25l-.12,0v0h0a1.31,1.31,0,0,0-.15,1.59,1.11,1.11,0,0,0,1.47.35,1.18,1.18,0,0,0,.28-.21c-.69.89-1.54.7-2.55-.57a4.26,4.26,0,0,1,.3-1.58c.65-2.29,1.71-4.44,2-6.83.16-1.15.1-2.34.34-3.48a8.75,8.75,0,0,1,1.76-3.43,11.42,11.42,0,0,0,1.52-2.74,4.89,4.89,0,0,1-.44-.3,7.79,7.79,0,0,1-.66,1.41c-1.17,1.95-2.57,3.33-2.85,5.72a32.87,32.87,0,0,1-.51,4.17c-.33,1.32-.83,2.59-1.27,3.87s-1.52,3.7-.07,4.75,2.78-.28,3.39-1.48c1-1.93,1-4.74,2.59-6.22a2,2,0,0,1,2.37,1.52.28.28,0,0,0-.07.13,16.49,16.49,0,0,1-.52,1.68.23.23,0,0,0-.24.09,15.89,15.89,0,0,1-2.51,2.44,8.46,8.46,0,0,0-1.64,1.36,18.86,18.86,0,0,0-1.38,2.24,3.6,3.6,0,0,0-.8,2,4.93,4.93,0,0,0-1.1,1.61c-.51,1.28.12,2.22,1.45,1.76,1.91-.66,3.79-2.54,5.21-4a57.07,57.07,0,0,0,4.92-5.86,11.07,11.07,0,0,0,2.65-5.65C210.72,195.6,210.24,192.78,210,190ZM199,208.08a7.29,7.29,0,0,1,1.95-2.33,19.57,19.57,0,0,0,2.35-2.07,14.61,14.61,0,0,1-2.87,4.12c-.72.72-1.65,1.35-2.48,2A11.71,11.71,0,0,1,199,208.08Z" transform="translate(-87.35 -29.32)"/></g><g id="Arms_drawing" data-name="Arms drawing"><path class="cls-7" d="M200.75,159.81c.46,9.82,1.61,20,.11,29.76.19-.25.39-.48.59-.72s.31-.38.46-.57c1.15-9.1.2-18.47-.25-27.57-.24-5,.09-10.05-.46-15-.26-2.32-.91-4.58-1.31-6.88a63.42,63.42,0,0,1-.9-9.12.44.44,0,1,0-.87,0,99.62,99.62,0,0,0,2,14.46C201,149.26,200.51,154.68,200.75,159.81Z" transform="translate(-87.35 -29.32)"/><path class="cls-7" d="M214.47,144.44c-.53-2.83-1.45-5.52-1.82-8.39a79.75,79.75,0,0,1-.44-9.51.44.44,0,1,0-.87,0A61.3,61.3,0,0,0,213,142c1.46,5.57,1.13,11.18.69,16.88s-1.11,11.36-1.8,17a83.61,83.61,0,0,1-2,11.68,42.59,42.59,0,0,0-.49,4.33,56.79,56.79,0,0,0,3-13.15c.78-6,1.49-12,2-18.07C214.86,155.32,215.45,149.72,214.47,144.44Z" transform="translate(-87.35 -29.32)"/></g><g id="ruler"><path d="M202.94,235.3l.12-.05a.72.72,0,0,0,.12-1.08,2.16,2.16,0,0,0-1.14-.59.57.57,0,0,0-.66.25h-.1l-3.39.8a.56.56,0,0,0-.19.08.6.6,0,1,0,.14,1.19.53.53,0,0,0,.59.25,32.42,32.42,0,0,1,3.77-.66.49.49,0,0,0,.27-.11l.12,0A.57.57,0,0,0,202.94,235.3Z" transform="translate(-87.35 -29.32)"/><path class="cls-8" d="M202.07,211.3a.5.5,0,0,0-.15-.28,8.56,8.56,0,0,1-1.36-1.49,17.62,17.62,0,0,1,.06-2.41.86.86,0,0,0,.59-.62l.11-.39a1,1,0,0,0,.23-.26,2.4,2.4,0,0,1,.51-.58,4.65,4.65,0,0,1,1-.06,1,1,0,0,0,.22.17.49.49,0,0,0,.28.21.6.6,0,0,0,.35.4c.12-.78.26-1.55.38-2.32v-.43a.45.45,0,0,1-.08-.27c0-.44,0-.89.07-1.33l-.06-.24a.46.46,0,0,1-.44-.47,9.68,9.68,0,0,0-.1-1.11c0-.05-.05-.11-.08-.17a.43.43,0,0,1-.07-.33,2.08,2.08,0,0,0-1.71.39,4.39,4.39,0,0,0-1.67,2.61c-.49,1.53-.9,3.56-2.35,4.48q-.12,2.71-.23,5.41l-.72,17.56a.65.65,0,0,0-.1.29,21.36,21.36,0,0,0-.1,2.5,6.78,6.78,0,0,0,.05,1.19l-.08.33c-.18.76.92,1.15,1.11.4a.91.91,0,0,0,.37,0l.75-.13a.94.94,0,0,0,.77-.14l.63-.11a5.31,5.31,0,0,1,1.94-.23h.11c.13,1.18,1.88,1.26,1.85,0q-.14-6.1,0-12.19.07-2.92.22-5.84c.07-1.34.27-3-.85-4A2.92,2.92,0,0,0,202.07,211.3Z" transform="translate(-87.35 -29.32)"/><path class="cls-8" d="M202.66,202.57v-.12h.19v.14Z" transform="translate(-87.35 -29.32)"/><path class="cls-9" d="M203.22,210.43l-.15,0a.09.09,0,0,0,.06-.09.1.1,0,0,0,.07-.1l-.07-1.13a.12.12,0,0,0,0-.08v-.4l.07-.84a.1.1,0,0,0,.05-.1,12.83,12.83,0,0,1,0-1.49.12.12,0,0,0-.1-.13v0c0-.15-.18-.23-.22-.08s-.05.23-.08.34v0l0-.1a.13.13,0,0,0-.14-.16.79.79,0,0,0-.27.1l0,0V206c0-.16-.24-.17-.23,0l0,.39a2.2,2.2,0,0,0-.29,1,10.81,10.81,0,0,0,.18,3.11.11.11,0,0,0,.1.09.35.35,0,0,0,.07.12c.19.2.69,0,.89,0S203.33,210.46,203.22,210.43Z" transform="translate(-87.35 -29.32)"/><path class="cls-9" d="M202.17,208.26c0-.09,0-.2,0-.32,0,.35,0,.71,0,1.06v0C202.19,208.77,202.17,208.52,202.17,208.26Z" transform="translate(-87.35 -29.32)"/><path class="cls-9" d="M202.46,210.19h0c0-.09,0-.17,0-.24h0l0,0a.12.12,0,0,0,0,.11l.07.07A.4.4,0,0,1,202.46,210.19Z" transform="translate(-87.35 -29.32)"/><path d="M199.43,236.27l2.5-.6a5.83,5.83,0,0,0,1.59-.39.35.35,0,0,0,.2-.39,1.12,1.12,0,0,0-.49-.78l0-.05a1.53,1.53,0,0,0-.72-.45c0-.08,0-.17-.14-.15l-.33.09a4,4,0,0,0-.83.11c-1.33.29-2.66.62-4,.93-.66.15-.49,1.16.09,1.23a2.64,2.64,0,0,0,.49.62.46.46,0,0,0,.35.13h.15A6.15,6.15,0,0,0,199.43,236.27Zm2.35-1.5a.48.48,0,0,0,.3.1h.11a.64.64,0,0,0,.26.37l0,0-1.76.42-.63.15a.73.73,0,0,0,0-.59l0,0A9.37,9.37,0,0,1,201.78,234.77Z" transform="translate(-87.35 -29.32)"/><path d="M203.7,210.84l-.11,0q0-2.13.08-4.25l.07.17a.1.1,0,0,0,.17,0,1.06,1.06,0,0,1,0,.2c0,.12.17.19.22.07a1.38,1.38,0,0,0,.06-.17.11.11,0,0,0,0-.11h0s0,0,0,0a.53.53,0,0,1-.3-.55c0-.19.06-.37.09-.56a1,1,0,0,0-.52-.36,1.44,1.44,0,0,0-.76,0,2.79,2.79,0,0,0-2,1.86,4.23,4.23,0,0,0,.48,3.5l.15.17a1.18,1.18,0,0,0,.73.48,1.69,1.69,0,0,0,1,.06.68.68,0,0,1,.42.3,5.43,5.43,0,0,0,.45.64l.13.25a.12.12,0,0,0,.21,0h.07a.32.32,0,0,0,.21-.28C204.35,211.8,204.09,211.07,203.7,210.84Zm-2.57-2.64v0a3.64,3.64,0,0,1,.12-1,2,2,0,0,1,.18-.43l.14-.18A3.25,3.25,0,0,0,201.12,208.2Zm.74,2.16-.17,0c0-.12-.07-.25-.1-.37a5.44,5.44,0,0,1-.18-2.11,3.93,3.93,0,0,1,.11-.42,2.41,2.41,0,0,1,.46-.79c-.09.55-.12,1.59-.13,1.72A18.81,18.81,0,0,0,201.86,210.36Zm1.43-3.87c0,.14,0,.28,0,.42a12.55,12.55,0,0,0-.05,3.65.12.12,0,0,0-.09.09l-.09-.05a.75.75,0,0,0-.56,0,1.35,1.35,0,0,1-.38.11.12.12,0,0,0,0,0,.12.12,0,0,0,0-.21h0a18.86,18.86,0,0,1,0-2.44q.05-.73.16-1.46c0-.09,0-.16,0-.23a1.08,1.08,0,0,1,1.05-.23A.69.69,0,0,0,203.28,206.48Z" transform="translate(-87.35 -29.32)"/><path d="M203,208.67c.15,0,.09-.27-.06-.24l-.36.06c-.13,0-.11.25,0,.25h.11l.06,0Z" transform="translate(-87.35 -29.32)"/><path class="cls-10" d="M197.56,207q-.35,9-.75,18l-.43,9.58a.12.12,0,1,0,.23,0c.41-9.25.83-18.51,1.19-27.76Z" transform="translate(-87.35 -29.32)"/><path class="cls-10" d="M203.41,202.64l.09-2.6,0-.73a1.19,1.19,0,0,0-.23,0l0,1.37-.09,2.73c0,.49-.08,1,0,1.49a.68.68,0,0,0,.17.5c.1.12.27,0,.17-.17s-.08-1-.07-1.31Z" transform="translate(-87.35 -29.32)"/><path class="cls-10" d="M202.56,233.43l.93-21.94a.12.12,0,1,0-.23,0l-.93,21.94A.12.12,0,1,0,202.56,233.43Z" transform="translate(-87.35 -29.32)"/><path class="cls-10" d="M204,234.81q0-11.15.57-22.27a.12.12,0,1,0-.23,0q-.6,11.11-.57,22.27C203.79,235,204,235,204,234.81Z" transform="translate(-87.35 -29.32)"/><path class="cls-8" d="M204.54,201.07l-.17-.51a.48.48,0,0,0-.43-.34.53.53,0,0,0-.1-.69.45.45,0,0,0-.38-.18.5.5,0,0,0-.19,0l0-.05a1.18,1.18,0,0,0-1.43-.23,1.92,1.92,0,0,0-.9,1.38.5.5,0,0,0,.91.39.54.54,0,0,0,.38-.21l.06-.08a.44.44,0,0,0,.14-.17l.06,0a.51.51,0,0,0,.75-.08.47.47,0,0,0,.24.07.43.43,0,0,0,0,.4l.17.51C203.77,201.94,204.74,201.68,204.54,201.07Z" transform="translate(-87.35 -29.32)"/><path class="cls-8" d="M202.87,211.28a.5.5,0,0,0,0,1A.5.5,0,0,0,202.87,211.28Z" transform="translate(-87.35 -29.32)"/><path class="cls-8" d="M204.22,212.28a.49.49,0,0,0-.42-.75.5.5,0,0,0-.25.93.49.49,0,0,0,.42.75A.5.5,0,0,0,204.22,212.28Z" transform="translate(-87.35 -29.32)"/></g><g id="face_colour" data-name="face colour"><path class="cls-6" d="M152.37,64.83a.48.48,0,0,0,0-.28c-.08-.33-.17-.66-.25-1-.25-1.2-.57-2.38-.91-3.57a.46.46,0,0,0-.5-.34l0-.1a.41.41,0,0,0-.39-.35.47.47,0,0,0-.08-.07l-.33-.19a.51.51,0,0,0-.5,0c-.77.46-.27,1.87-.11,2.57a11.89,11.89,0,0,0,1.9,4.17.51.51,0,0,0,.23.18l.13.36c.19.48,1,.48,1-.13C152.49,65.66,152.43,65.25,152.37,64.83Z" transform="translate(-87.35 -29.32)"/><path class="cls-6" d="M178.56,79.54a3.5,3.5,0,0,0-1.66-1.37c0-.13-.07-.25-.12-.38a3.15,3.15,0,0,0-.3-.59c0-.5,0-1,0-1.5a3.25,3.25,0,0,0-.72-2.16A39,39,0,0,0,177.61,64a.41.41,0,0,0,.45-.24l.11-.25a.5.5,0,0,0,.05-.08c0-.08.06-.17.09-.26a17.61,17.61,0,0,0,1.2-4,.5.5,0,0,0-.18-.48c.23-.47-.42-1-.79-.59l-.49.6a.51.51,0,0,0,0,.61c-.06.18-.1.37-.14.55.24-5.06.28-10.37-2.11-14.93A3,3,0,0,0,173,43.21a3.64,3.64,0,0,0-1.54-.1c-5.75.84-12.1,1.08-17.62,2.91a3.57,3.57,0,0,0-2.1,4.92c-.06,8.3.39,19.08,5.36,26.25a.41.41,0,0,0-.26.43,32,32,0,0,1-.24,5.69,7.27,7.27,0,0,0-.51.65l-.05-.05a.51.51,0,0,0-.11-.23c0-.06,0-.12.06-.18a29.26,29.26,0,0,0-.12-.59c.13-.18.25-.36.39-.54.37-.48-.38-.94-.79-.61l0,0a.48.48,0,0,0-.33.15L154,83.05l-.39.36a.39.39,0,0,0-.22-.29.61.61,0,0,0-1.12.34c.53,2.91,2.63,4.77,5.27,5.89,1.94,1.36,4.89,1.65,7.64,1.39a22.12,22.12,0,0,0,2.74-.15,16.62,16.62,0,0,0,8-3.16,7.64,7.64,0,0,0,3-5l0-.1a2.71,2.71,0,0,0,.13-1.35c0-.33,0-.67,0-1A.47.47,0,0,0,178.56,79.54Z" transform="translate(-87.35 -29.32)"/><path class="cls-11" d="M167.5,72.37a11.07,11.07,0,0,1-3.29.22c-.64-.05-.64.95,0,1a12,12,0,0,0,3.56-.25C168.4,73.2,168.13,72.23,167.5,72.37Z" transform="translate(-87.35 -29.32)"/></g><g id="Face_drawing" data-name="Face drawing"><path class="cls-7" d="M177.71,65.64a9.27,9.27,0,0,0,2-4.8c.09-1,.67-3.57-.25-4.32a.53.53,0,0,0-.61-.08,2.34,2.34,0,0,0-.73.57c0-.31,0-.62,0-.94a.5.5,0,0,0-1,0,74.46,74.46,0,0,1-1.23,13.83c-.79,4.65-3.51,8.72-8,10.5s-8.71-1.45-11.24-5.07a.41.41,0,0,0-.19-.27c-.18-.26-.35-.53-.51-.79-1.08-1.81-1.39-4.05-1.9-6.07l-1.65-6.6a.44.44,0,0,0,0-.35l-.91-2.83a.51.51,0,0,0-1,0c-1.13-.64-2.33-.61-2.43,1.25-.16,3.06,1.77,5.66,4,7.5a.5.5,0,0,0,.48.09,23.66,23.66,0,0,0,3.09,8.34h0A24.33,24.33,0,0,1,156,80.2h0a6.58,6.58,0,0,1-1.49,1.38,11.22,11.22,0,0,1-1.71,1.14c-.57.3-.06,1.17.5.86a12.42,12.42,0,0,0,1.92-1.3c.25-.2.5-.4.74-.6-.06,1.18-.16,2.35-.27,3.53-.06.64.94.64,1,0a42.93,42.93,0,0,0,.17-8c2.55,3,6.07,5.58,10.19,4.56a14,14,0,0,0,8.63-7.39c.43,2.35,1.22,4.62,1.55,7,.09.63,1.05.36,1-.27s-.17-1-.28-1.53l.43.51c.41.5,1.12-.22.71-.71l-1.29-1.55a.42.42,0,0,0-.3-.16,29.19,29.19,0,0,1-1-5.33,45.74,45.74,0,0,0,1.05-6.51A.51.51,0,0,0,177.71,65.64ZM150.9,60l.09.06.41,1.27-1.48-1.75a.49.49,0,0,0-.82.24C149.2,58.49,150.29,59.37,150.9,60Zm-1.13,2.87a6.76,6.76,0,0,1-.67-2.76l.21.8a.47.47,0,0,0,.69.29l1.09,1.29c-.37-.17-.9.32-.63.73l.15.22a2.45,2.45,0,0,1,.43,1.07c.08.6,1,.63,1,.08.1.49.21,1,.31,1.46A10,10,0,0,1,149.78,62.89Zm28,.88c.06-.54.11-1.08.15-1.63A.54.54,0,0,0,178,62a10.48,10.48,0,0,1,.77-1.47c-.05.4-.1.72-.12.85A6.69,6.69,0,0,1,177.75,63.76Z" transform="translate(-87.35 -29.32)"/><path class="cls-7" d="M169.27,85.33a6.3,6.3,0,0,1-3.51.48c-.63-.09-.9.87-.27,1a7.52,7.52,0,0,0,4.28-.58C170.36,85.93,169.85,85.07,169.27,85.33Z" transform="translate(-87.35 -29.32)"/><path class="cls-12" d="M162.5,66.5" transform="translate(-87.35 -29.32)"/><path class="cls-7" d="M169.41,66.38c-.29-.58-1.15-.07-.86.5a1,1,0,0,1-.38,1.4c0-.38-.34-.76-.71-.47a2.8,2.8,0,0,1-3.25.17c-.48-.3-.92.32-.67.7a1.12,1.12,0,0,1-.33-.18,2.18,2.18,0,0,1-.6-1.39c-.11-.63-1.08-.36-1,.27a2.89,2.89,0,0,0,1.06,2,2.2,2.2,0,0,0,2,.25.5.5,0,0,0,.3-.28,3.79,3.79,0,0,0,2-.16.5.5,0,0,0,.41.29A2.1,2.1,0,0,0,169.41,66.38Z" transform="translate(-87.35 -29.32)"/><path class="cls-13" d="M162.81,60.07a4.58,4.58,0,0,0-6.56-.13l0,0h0l-.1.08c-.43.42.13,1.2.61.88l.14-.09a.52.52,0,0,0,.12-.12,3.62,3.62,0,0,1,5.13.15C162.58,61.32,163.29,60.54,162.81,60.07Z" transform="translate(-87.35 -29.32)"/><path class="cls-14" d="M171.1,72a.51.51,0,0,1-.35-.23.44.44,0,0,0-.76.12.52.52,0,0,0-.14,0c-.84.36-1.75-.21-2.61-.25a2.69,2.69,0,0,0-1.67.48l-.06.06a.48.48,0,0,0-.12-.1,2.24,2.24,0,0,0-1.8-.12,6.2,6.2,0,0,1-2.09.43.52.52,0,0,0-.88,0,.77.77,0,0,1-.33.28c-.57.3-.07,1.16.5.86a1.66,1.66,0,0,0,.24-.17.53.53,0,0,0,.18.06,4.46,4.46,0,0,0,1.11,0,.4.4,0,0,0,.25.44,6.13,6.13,0,0,0,6.75-.58.42.42,0,0,0,.15-.25,2.86,2.86,0,0,0,.87-.23h0a1.41,1.41,0,0,0,.45.19C171.46,73.05,171.73,72.09,171.1,72Zm-7.14.94a1.21,1.21,0,0,1,.93,0,.48.48,0,0,0,.58-.08.43.43,0,0,0,.62.12,2,2,0,0,1,1.54-.26A4.65,4.65,0,0,1,164,72.89Z" transform="translate(-87.35 -29.32)"/><path class="cls-13" d="M173.81,59.07a4.58,4.58,0,0,0-6.56-.13l0,0h0l-.1.08c-.43.42.13,1.2.61.88l.14-.09a.52.52,0,0,0,.12-.12,3.62,3.62,0,0,1,5.13.15C173.58,60.32,174.29,59.54,173.81,59.07Z" transform="translate(-87.35 -29.32)"/></g><g id="hair_colour" data-name="hair colour"><path class="cls-15" d="M174.21,39.27a.43.43,0,0,0,0-.69,10.49,10.49,0,0,0-2.76-1.8.51.51,0,0,0-.2-.57,8.41,8.41,0,0,0-3.34-1.35c-3.69-1.24-7.6-1.59-11,.56a.44.44,0,0,0-.47-.12,22.66,22.66,0,0,0-2.93,1.11,8.24,8.24,0,0,0-2.31,1.21.48.48,0,0,0-.59.19,15.72,15.72,0,0,0-1.11,1.86,6.21,6.21,0,0,0-1.4,3.78.49.49,0,0,0,0,.12c-.85,4.38.35,8.92,2.35,13.3.08.4.17.8.29,1.19a.46.46,0,0,0,.3.32c0,.07,0,.15,0,.22.09.63,1.06.36,1-.27-.34-2.37.57-4.78.35-7.2-.08-.81-.13-1.59-.14-2.35.16-.75.35-1.49.56-2.23.51-.16,1-.29,1.52-.39a.53.53,0,0,0,.55.29,35.21,35.21,0,0,0,7.23-1.82.4.4,0,0,0,.27,0l.27-.1a1,1,0,0,0,.35.18.5.5,0,0,0,.57.72l.58-.18a.58.58,0,0,0,.55.27,9.31,9.31,0,0,0,3.39-1.13.51.51,0,0,0,.08.08l-.2.17c-.29.27-.09.91.35.85,1.45-.18,3-1.3,4.17-2a.55.55,0,0,0,.12-.11A.4.4,0,0,0,173,43a6.08,6.08,0,0,0,.69.88.46.46,0,0,0,.24.13,7,7,0,0,0,1,1.59l1.46,5.87a.45.45,0,0,0,.58.34q.25,1.22.41,2.46a.53.53,0,0,0,.14.29v0c0,.64,1,.64,1,0C178.81,49.08,178.33,43.21,174.21,39.27ZM171.53,41l-.64.36,0,0,.72-.65a.49.49,0,0,0-.4-.84l.38-.34.19.63A4.45,4.45,0,0,0,172,41,.45.45,0,0,0,171.53,41Z" transform="translate(-87.35 -29.32)"/></g><g id="hair_drawing" data-name="hair drawing"><path class="cls-16" d="M177.67,42.49c-1.18-2.89-3.43-4.85-5.85-6.71s-5-2.17-7.82-2.92a.46.46,0,0,0-.31-.25,2,2,0,0,1-.89-.52.5.5,0,0,0-.71.71,3,3,0,0,0,.43.33c-1.72.12-3.55,0-5.14.72-.57.25-.91.67-1.44.93a23.15,23.15,0,0,1-2.37.63c-2.32,1-4.84,2.3-5.79,4.78-.64,1.67-.57,3.68-.76,5.42a16.61,16.61,0,0,0,.09,4.5c.72,4.28,3.32,8.06,4.65,12.19.17,1.52.41,3,.7,4.52a.51.51,0,0,0,.77.27.53.53,0,0,0,.46-.61c-.41-2.29-.73-4.59-1-6.9,0-.07,0-.14,0-.2a37.56,37.56,0,0,1,.62-6c.2-2-1.46-5.3,1-6.31a14.75,14.75,0,0,0,1.67-.25,13.69,13.69,0,0,0,2.28,0c1.36-.19,3.76-1.19,4.89,0a.49.49,0,0,0,.49.13,10.51,10.51,0,0,1,3.92-1.16c.33,0,.62.22,1,.17,1.55-.25,2.74-1.32,4.12-2,2.22,2.27,2.14,5,3.44,7.88,1.59,3.47.7,7,.65,10.61-.05.44-.11.88-.15,1.32a.38.38,0,0,0,.15.35l0,.24c-.06.64.94.64,1,0l.46-5.28C179,53.54,179.92,48,177.67,42.49ZM178,54.57l0,.15a9.46,9.46,0,0,0-.68-2.61c-1.49-3.45-1.49-6.87-4.6-9.41a.52.52,0,0,0-.13-.07.45.45,0,0,0,0-.43,6.26,6.26,0,0,1-.82-3.75c.06-.64-.94-.64-1,0a7.2,7.2,0,0,0,1,4.25.46.46,0,0,0,.2.19.39.39,0,0,0,0,.4l-.36.23a.51.51,0,0,0-.19-.12c-2.41-.85-3.65-4.8-3.57-7.15,0-.64-1-.64-1,0-.09,2.68,1.22,6.59,3.8,7.9a6.09,6.09,0,0,1-1,.54,2.13,2.13,0,0,1-1.53.2.46.46,0,0,0,0-.66,18.49,18.49,0,0,1-5.09-9.05c-.15-.63-1.11-.36-1,.27a19.47,19.47,0,0,0,5.19,9.33l-.21,0a4.06,4.06,0,0,0-.8.27.46.46,0,0,0-.3-.24c-2-.54-3.1-2.08-4.17-3.7a19.42,19.42,0,0,1-2.45-4.65c-.2-.61-1.16-.35-1,.27a21.83,21.83,0,0,0,3.15,5.77,10.4,10.4,0,0,0,1.8,2,16.2,16.2,0,0,1-7.34-7.93c-.26-.59-1.12-.08-.86.5A17,17,0,0,0,160.44,44c-3.26-1.26-6.82-3.19-7.34-6.44-.1-.63-1.07-.36-1,.27.55,3.43,4,5.51,7.42,6.89-3.26.08-9.11,0-9.6-3.67-.09-.63-1.05-.36-1,.27.46,3.36,4.68,4.2,8.21,4.37-.43.09-.86.19-1.29.29a5,5,0,0,0-2.35.2,5.17,5.17,0,0,1-4.12-2.54.5.5,0,0,0-.86.5,6,6,0,0,0,3.55,2.8c.13,0,.25.05.37.08-1.34,1.83.05,5-.3,7a25.05,25.05,0,0,0-.35,3.08.43.43,0,0,0-.3.17.6.6,0,0,0-.37-.05l-.11,0a.38.38,0,0,0-.18.08c-.52-1.19-1.06-2.38-1.61-3.59a18.54,18.54,0,0,1-.67-12.11,7.24,7.24,0,0,1,6.11-5.29,4.19,4.19,0,0,0,1.77-.65,8.64,8.64,0,0,1,3.66-1.37c1.08-.1,2.15-.1,3.23-.24a.52.52,0,0,0,.36-.21c3,.84,5.64,1.27,8.24,3.35s4.52,4.28,5.35,7.53A25.79,25.79,0,0,1,178,54.57Z" transform="translate(-87.35 -29.32)"/><path class="cls-16" d="M174.54,56.13a.45.45,0,0,0-.42-.26,32,32,0,0,0-5.54.36c-.94.16-1.75.69-1.44,1.74a.46.46,0,0,0,.19.26c0,.29.25.55.59.41.6-.24,6.45-2.52,6.5-1.11,0,.64,1,.64,1,0A1.43,1.43,0,0,0,174.54,56.13Z" transform="translate(-87.35 -29.32)"/><path class="cls-16" d="M163.31,58.13s0,0,0-.06a.45.45,0,0,0-.11-.25,1.54,1.54,0,0,0-1.43-.76c-.73,0-1.47,0-2.2,0a15.75,15.75,0,0,0-2.29-.07c-1.19.06-2.58.06-3.24,1.18a.5.5,0,0,0,.63.7.42.42,0,0,0,.24-.09c1.35-1,2.76-.41,4.23-.11,1.14.23,2.3.07,3.42.34a.91.91,0,0,0,.77-.85Z" transform="translate(-87.35 -29.32)"/></g><g id="eyes"><ellipse class="cls-17" cx="72.15" cy="31.68" rx="2.5" ry="1"/><ellipse cx="72.15" cy="31.68" rx="1.25" ry="1"/><ellipse class="cls-17" cx="71.53" cy="31.18" rx="0.63" ry="0.5"/><ellipse class="cls-17" cx="170.5" cy="60" rx="2.5" ry="1" transform="translate(-87.74 -28.2) rotate(-0.38)"/><ellipse cx="170.5" cy="60" rx="1.25" ry="1" transform="translate(-87.74 -28.2) rotate(-0.38)"/><ellipse class="cls-17" cx="171.12" cy="59.5" rx="0.63" ry="0.5" transform="translate(-87.73 -28.2) rotate(-0.38)"/></g><g id="Glasses"><ellipse class="cls-18" cx="159.09" cy="61.83" rx="4.5" ry="3" transform="translate(-90.8 -19.57) rotate(-3.47)"/><ellipse class="cls-18" cx="171.06" cy="61.1" rx="4.5" ry="3" transform="matrix(0.99, -0.13, 0.13, 0.99, -93.67, -7.32)"/><path class="cls-19" d="M163.14,62.58a2.05,2.05,0,1,1,4-.24" transform="translate(-87.35 -29.32)"/><rect x="163.03" y="59.97" width="4" height="1.5" transform="translate(-90.72 -19.21) rotate(-3.47)"/><polygon points="62.65 28.68 62.65 29.68 67.37 31.95 67.65 30.68 62.65 28.68"/><polygon points="87.74 30.69 91.47 26.53 91.54 27.53 88.25 31.59 87.74 30.69"/></g><g id="tshirt_colours" data-name="tshirt colours"><path class="cls-1" d="M214.07,122.79,213,121.17a2.19,2.19,0,0,0-.63-2.32,5.87,5.87,0,0,1-.54-.5l-.06-.1c-.14-.51-.28-1-.38-1.45l-1.94-8.72a2.1,2.1,0,0,0,.35-2,17.7,17.7,0,0,1-1.14-4.23,5.25,5.25,0,0,0-1.11-2.58L207,96.45a2.32,2.32,0,0,0-.47-1.06l0-.41a2.51,2.51,0,0,0-.93-1.78,2.53,2.53,0,0,0-1.12-1.83q-2.05-1.44-4.19-2.74a2.47,2.47,0,0,0-.61-.82,16,16,0,0,0-8-4,2.78,2.78,0,0,0-.68,0,18.66,18.66,0,0,0-3-1.3,8,8,0,0,1-1.55-1.39,2,2,0,0,0-2.3-.71,2.7,2.7,0,0,0-1-.62c-1.57-1.29-4.67.06-4,2.61.49,2-2.15,4.32-4.32,5.75l-6.87,2.54a2.13,2.13,0,0,0-1.63-.5c-3.82.29-11-.2-13-4.3a2.11,2.11,0,0,0,0-.48,2.54,2.54,0,0,0-2.5-2.5h-.13A2.6,2.6,0,0,0,148.61,84c-7.08,3.64-18,7.64-21,15.62-3.33,9-4.13,19.64-4.76,29.14a2.75,2.75,0,0,0,0,.35,2.6,2.6,0,0,0,1.53,4.55c3.91.17,7.81.28,11.67.11l1.25.17a3.73,3.73,0,0,0,.76,0c.49.05,1,.13,1.46.23-.36,2.08.2,4.71.29,6.67.14,3.39.26,6.78.59,10.15a62.52,62.52,0,0,0,.93,6.34,2.19,2.19,0,0,0-.69,1.31c-1.32,7.55-3.18,15.35-2.05,23a4.57,4.57,0,0,0-.24.43,3,3,0,0,0-.75.77,7.46,7.46,0,0,0-1.28,4.81,2.64,2.64,0,0,0,.28,1l-.3,2.12a2.59,2.59,0,0,0,1.75,3.08,2.37,2.37,0,0,0,1,0,1.93,1.93,0,0,0,1.21.65c1.45.2,2.89.36,4.34.5l.39.16a2,2,0,0,0,1.51,0,136.76,136.76,0,0,0,22.53-.24,2.45,2.45,0,0,0,1.61.43,2.94,2.94,0,0,0,1.52-.54,93.65,93.65,0,0,0,22-2.19,4.75,4.75,0,0,0,2.65-.26,2.72,2.72,0,0,0,1.85-2.5,2.43,2.43,0,0,0,.31-1.22q0-12.85-1-25.65a2.57,2.57,0,0,0-.6-1.5,79,79,0,0,1-.38-11.15,2.3,2.3,0,0,0-.46-1.54c0-.43,0-.86.06-1.29a2.26,2.26,0,0,0-.3-1.33,2.73,2.73,0,0,0,0-.39,9.51,9.51,0,0,0-.15-1.89c.11-4.81.38-9.61.83-14.41,4.43-1.33,8.9-2.5,13.44-3.47C212.54,127.31,215.69,125.12,214.07,122.79Z" transform="translate(-87.35 -29.32)"/><path class="cls-2" d="M193.28,124.34c0-.48.07-1,.08-1.44a91.85,91.85,0,0,0,.64-10,.47.47,0,0,0-.55-.47v0c-.51-.61-2.24-.43-2.83-.47l-5.79-.43a26.07,26.07,0,0,0-4.94-.32c-.28-.34-.94-.26-.87.27,0,.14,0,.27,0,.41a9.28,9.28,0,0,0-.34,2.18,2.92,2.92,0,0,0-.07.35,54.54,54.54,0,0,0-.43,7.71l-.07,0c-.86.95-.55,2.6-.13,3.7a3.19,3.19,0,0,0,1.45,1.71,22.2,22.2,0,0,0,5.51,3.65,7.35,7.35,0,0,0,.82.33.43.43,0,0,0,.09.07l.12,0h0a2.51,2.51,0,0,0,1.34.2.4.4,0,0,0,.55.05l.85-.58a5.87,5.87,0,0,0,1.71-1.18,6.25,6.25,0,0,0,2.49-3.19,8.65,8.65,0,0,0,.64-2.07A.51.51,0,0,0,193.28,124.34Z" transform="translate(-87.35 -29.32)"/></g><g id="tshirt_drawing" data-name="tshirt drawing"><path class="cls-20" d="M139,125.12l-10-18.35c-.31-.56-1.17-.06-.86.5l10,18.35C138.48,126.19,139.35,125.68,139,125.12Z" transform="translate(-87.35 -29.32)"/><path class="cls-20" d="M133.73,123.44A27.61,27.61,0,0,1,128,110.9c-.12-.63-1.08-.36-1,.27a28.63,28.63,0,0,0,6,13C133.43,124.65,134.13,123.94,133.73,123.44Z" transform="translate(-87.35 -29.32)"/><path class="cls-20" d="M133.16,129.38c-1.16-2-2.27-4.06-3.29-6.16q-.71-1.47-1.37-3c-.5-1.13-1.92-3.29-1.45-4.62.22-.61-.75-.87-1-.27-.64,1.79,1,4.22,1.74,5.81a96.72,96.72,0,0,0,4.47,8.69A.5.5,0,0,0,133.16,129.38Z" transform="translate(-87.35 -29.32)"/><path class="cls-20" d="M215.08,125.24a132.86,132.86,0,0,1-4.82-17.06C209.12,102.77,208.57,97,206,92c-1-1.9-2.8-2.21-4.43-3.48a32.21,32.21,0,0,0-6.14-3.77c-5.2-2.46-10.62-4.5-15.93-6.7l-.21-.17a.46.46,0,0,0-.22-.08c-.08-.15-.15-.29-.23-.44a.5.5,0,0,0-.86.5c3.88,6.55-5.23,11-10.34,11.9a18.07,18.07,0,0,1-8.08-.42,12,12,0,0,1-3.55-1.7,7.85,7.85,0,0,1-1.91-1.9,2.55,2.55,0,0,1-.6-1.08,3,3,0,0,1-.3-1.87c.12-.12.23-.24.38-.37l.09,0h0l.1,0a.53.53,0,0,0,.23-.84l-.13-.15a.49.49,0,0,0-.49-.13,2.35,2.35,0,0,0-.47.24,2.75,2.75,0,0,0-1.31.67h0l-1,.35a.53.53,0,0,0-.59-.12,76.39,76.39,0,0,0-14.28,8.28c-1.88,1.34-4.29,2.19-6,3.7a9.82,9.82,0,0,0-2.55,4.82A129.85,129.85,0,0,0,122,133.28a.46.46,0,0,0,.5.48.5.5,0,0,0,.13,0q8.66.47,17.29,1.37a53.07,53.07,0,0,0-.42,8,.47.47,0,0,0,.22.39,32.65,32.65,0,0,0,.47,6.18.41.41,0,0,0,.5.35,25.75,25.75,0,0,0,.42,7.42c-3.44,7.22-3.71,15.18-3.65,23a.44.44,0,0,0,.19.37l-.13,1.19a18.42,18.42,0,0,0-1.48,3.85,35.77,35.77,0,0,0-.49,7.28.47.47,0,0,0,.08.26,1.4,1.4,0,0,0,0,.29.49.49,0,0,0,.9.1,9,9,0,0,0,3.16.9.41.41,0,0,0,.37-.13h0a41.42,41.42,0,0,0,4.13,1,47.76,47.76,0,0,0,7.3.69c5.73.14,11.48,0,17.21-.34s11.36-.79,17-1.46q3.94-.47,7.87-1c1.72-.26,4.26-.14,5.48-1.61.29.05.6-.09.56-.46a103,103,0,0,1-.77-15.13c.11-2.37.48-4.74.35-7.12a49,49,0,0,0-.82-5.61c-.39-2.28-.73-4.51-1.14-6.73.31.24.87.13.8-.35-1.18-8.77-.95-17.57-.58-26.38q7.11-1.93,14.32-3.46v.53a.51.51,0,0,0,.75.43,4.12,4.12,0,0,0,1.74-1.66.48.48,0,0,0,.06-.16C214.74,126,215.24,125.7,215.08,125.24ZM152.27,84a8.45,8.45,0,0,0,2,3.5c2.86,2.77,7.12,3.67,11,3.51,5.59-.23,16-4.43,14.55-11.25,1.8,2.71-1.39,6.86-3.37,8.63A15.68,15.68,0,0,1,169,92a17.69,17.69,0,0,1-9-.75,20.94,20.94,0,0,1-4.41-2.11,15.9,15.9,0,0,1-2.2-1.59l-.56-.52A2.2,2.2,0,0,1,152.27,84Zm-12.09,48.61c0,.52-.09,1-.14,1.55q-8.49-.88-17-1.35a132,132,0,0,1,4.62-31.51,23.9,23.9,0,0,1,1.29-3.92.49.49,0,0,0,0,.09c2.1,4.19,3.4,8.69,5.09,13a75,75,0,0,0,5.47,11.17A45.35,45.35,0,0,1,140.18,132.62Zm1.31,26.55a44.81,44.81,0,0,0,2.33,6.86,11.4,11.4,0,0,0-1.58,3.7,15.87,15.87,0,0,1-1.68,5.14,22.15,22.15,0,0,0-1.35,2.84.5.5,0,0,0-.41.46,7.77,7.77,0,0,1-.32,1.63C138.44,172.79,138.72,165.68,141.48,159.17Zm72.27-33.93q-8.16,1.68-16.21,3.85c.15-3.6.31-7.21.41-10.81a.53.53,0,0,0,.16-.15c2.81-3.88,5.44-7.81,5.83-12.71.05-.64-.95-.64-1,0-.34,4.27-2.54,7.79-5,11.18,0-.58,0-1.15,0-1.73a.49.49,0,0,0,.42-.33,97.24,97.24,0,0,0,5.12-22.12c.07-.64-.93-.63-1,0a96,96,0,0,1-4.52,20.2c0-1.53,0-3.05-.06-4.58,0-.64-1-.64-1,0,.5,15.59-1.86,31.22-.09,46.77-.33-1.63-.71-3.26-1.18-4.9a70.19,70.19,0,0,1-2.11-15.65c0-.64-1-.64-1,0a74.38,74.38,0,0,0,1.69,14.27A128.85,128.85,0,0,1,197.18,162c.34,2.38.94,4.74,1.06,7.15s-.24,4.75-.35,7.12a100.21,100.21,0,0,0,.73,14.72.44.44,0,0,0-.19.14c-.93,1.15-3.27,1.11-4.59,1.31q-2.59.39-5.18.73-4.36.56-8.73,1-9.23.88-18.51,1.12c-5.92.15-12,.41-17.85-.78a41.75,41.75,0,0,1-4.11-1.06,10.44,10.44,0,0,0-2.74-.9l-.15,0c0-2.75,0-5.63,1-8.2.24-.59.49-1.15.75-1.71a.5.5,0,0,0,.15-.31v0l.06-.13a.52.52,0,0,0,.23-.52h0a13.14,13.14,0,0,0,.78-2.22.44.44,0,0,0,.21-.29c.5-2,1.7-3.63,2.5-5.51a33.62,33.62,0,0,0,1.07-4.47c.46-1.64,1.65-2.89,2.25-4.46a12.51,12.51,0,0,0,.41-5.41c0-.64-1-.64-1,0a11.66,11.66,0,0,1-.63,5.55,43.21,43.21,0,0,1-1.8-5.24.52.52,0,0,0,.12-.19A120,120,0,0,0,149,132.3c.07-.64-.93-.63-1,0a118.79,118.79,0,0,1-5.78,25.6,23.55,23.55,0,0,1,0-10.68.5.5,0,0,0-1-.27q-.15.61-.27,1.23a31.5,31.5,0,0,1-.22-5.68.42.42,0,0,0-.28-.44c0-3.32.49-6.59.73-9.9a43.76,43.76,0,0,0-.6-9.92.45.45,0,0,0,.05-.56l-.19-.34c-1.18-7.41-2.43-14.81-3.64-22.21-.1-.63-1.07-.36-1,.27q1.6,9.74,3.2,19.47a75.13,75.13,0,0,1-4.67-10.27A110,110,0,0,0,129.83,97a.42.42,0,0,0-.54-.22,6.63,6.63,0,0,1,2.33-2.42c1.93-1.18,3.85-2.22,5.7-3.55a69.83,69.83,0,0,1,11.27-6.61.42.42,0,0,0,.34,0l1.87-.66c0,.09-.07.16-.09.25-.41,1.8.77,3.36,2,4.49a20.51,20.51,0,0,0,14.16,5,16.54,16.54,0,0,0,11.5-5.42c1.88-2.14,3.68-5.56,2.47-8.15,4.58,1.87,9.21,3.68,13.69,5.76a31.34,31.34,0,0,1,6.58,4,18.8,18.8,0,0,0,2.08,1.41c1.77,1.09,2.2,2,2.92,4,1.78,4.8,2.33,10,3.43,15A133,133,0,0,0,214,125.25.53.53,0,0,0,213.76,125.24Z" transform="translate(-87.35 -29.32)"/><path class="cls-20" d="M206.64,106.41a203,203,0,0,1-8.27,20c-.28.58.59,1.09.86.5a205.41,205.41,0,0,0,8.37-20.23C207.82,106.07,206.86,105.81,206.64,106.41Z" transform="translate(-87.35 -29.32)"/><path class="cls-20" d="M197.51,92.63c-1,1.5-.79,3.43-.86,5.16l-.35,8.36c0,.64,1,.64,1,0l.27-6.39c.08-1.95-.29-5,.8-6.62C198.73,92.6,197.86,92.1,197.51,92.63Z" transform="translate(-87.35 -29.32)"/><path class="cls-20" d="M194.62,120.55c.12-3,.17-6,.17-9a.5.5,0,0,0-.91-.27c-5,.13-10-.7-15-1.2a.4.4,0,0,0-.39.17.49.49,0,0,0-.44.47l-.44,8.64c-.11,2.14-.77,4.92-.25,7,.42,1.65,2.22,2.38,3.54,3.24l3.52,2.29c.61.4,1.61,1.32,2.4,1.35,1.4,0,3-1.61,4.09-2.34s2.78-1.41,3.25-2.85C194.89,125.92,194.53,122.85,194.62,120.55Zm-.84-8.23c0,.7,0,1.4,0,2.09-2.42.06-4.84,0-7.27-.09s-5.18,0-7.31-1.39a.47.47,0,0,0-.23-.07l.09-1.72C183.94,111.63,188.82,112.43,193.78,112.32Zm-.48,14.36a4.52,4.52,0,0,1-2.12,2.9c-.72.54-1.52,1-2.27,1.49-1.25.82-1.48,1.32-3.19.5a43.5,43.5,0,0,1-4.7-3.06c-1.1-.71-2.37-1.3-2.71-2.76a10,10,0,0,1,.11-2.51l.47-9.33a12.7,12.7,0,0,0,5.63,1.28c3.07.23,6.14.29,9.22.22,0,2.66-.11,5.31-.24,8A20.67,20.67,0,0,1,193.29,126.68Z" transform="translate(-87.35 -29.32)"/></g><g id="martillocolor"><path class="cls-6" d="M139.24,135.5a.56.56,0,0,0-.47-.35l-7.94-.63q-.74-4.8-1.6-9.59a1.71,1.71,0,0,0-.66-1.12c-.09-2.23-.09-4.48,0-6.73a1.69,1.69,0,0,0-1-1.73q-.09-3-.14-6.09l.5-.28a.42.42,0,0,0,.22-.55.54.54,0,0,0,.1-.32.44.44,0,0,0,.06-.26l0-.24a.48.48,0,0,0,0-.06,2.12,2.12,0,0,0-.1-.86.48.48,0,0,0-.2-.25,9.16,9.16,0,0,0-2-8.61,2.15,2.15,0,0,0-.32-.28c-.17-.29-.34-.59-.52-.88a.51.51,0,0,0-.55-.2c-.18-.4-.37-.81-.56-1.21a.44.44,0,0,0-.5-.23l-.17-.3a.47.47,0,0,0-.24-.2.93.93,0,0,0,0-.86,2.21,2.21,0,0,0-.69-.75l-.47-.4a2.76,2.76,0,0,0-2.45-1.29.47.47,0,0,0-.42.27l0,0a.43.43,0,0,0-.26.13l-.18.2a2,2,0,0,0-1.16,1.81c-.15.24-.3.47-.44.72a.45.45,0,0,0,0,.48,8.94,8.94,0,0,0-2.46,1.29,12.08,12.08,0,0,0-4.36,2.55,3.29,3.29,0,0,0-.81,2.81c.18,1.1.29,2.2.47,3.32.36,2.24,2.58,4.2,3.74,6.11a8,8,0,0,0,4.44,3.8c.56.71,1.36,1.23,1.86,2a2,2,0,0,0,.73,1.51,1.68,1.68,0,0,0-1.18,1.36,13,13,0,0,0-.27,2.67c-1,1.83-1.1,4.78-1.54,6.75-.09.39-.18.77-.27,1.16a2,2,0,0,0-.75,1,18.78,18.78,0,0,0-1.06,5.29c-1.42,8-2,18.14,7.19,21.52a7,7,0,0,0,8-2.61,8.4,8.4,0,0,0,1-1.77,2,2,0,0,0,1-.8l.19-.29a2.15,2.15,0,0,0,.14-.27c2-3.34,4-6.46,4.65-10.3a12.24,12.24,0,0,0,.83-3.47,2,2,0,0,0,.35-1.93l.07-.24A.51.51,0,0,0,139.24,135.5Z" transform="translate(-87.35 -29.32)"/><path d="M131.54,115a22.91,22.91,0,0,0-2.17-3,21.15,21.15,0,0,0-1.38-2,.53.53,0,0,0-.75-.53l-.12.07a.49.49,0,0,0-.26.14,7.37,7.37,0,0,0-3.56,4.72,6.51,6.51,0,0,0-.21.64l0,0,0,.06a.54.54,0,0,0,.08.6.38.38,0,0,0,.11.2.5.5,0,0,0,0,.11,4.28,4.28,0,0,0,.22.39l0,.06.13.18.14.2h0l.07.1a.36.36,0,0,0,.22.13,8.85,8.85,0,0,0,.67,1.27,2.75,2.75,0,0,0,.4.58c.32.41.55.6,1.08.52a.42.42,0,0,0,.23-.11,9.61,9.61,0,0,0,3-1.47,9.22,9.22,0,0,0,1.39-.88A1.29,1.29,0,0,0,131.54,115Z" transform="translate(-87.35 -29.32)"/><path d="M117,91.68a5.21,5.21,0,0,0-.95-1.63.48.48,0,0,0-.39-.22l-.13-.29a.46.46,0,0,0-.62-.2,1,1,0,0,0-.37-.06,3.74,3.74,0,0,0-1.36.54c-.67.33-1.32.68-2,1.06l0,0a.5.5,0,0,0-.3.73,30.74,30.74,0,0,1,2.29,4.17c.18.4.69.26.87,0a.51.51,0,0,0,.36,0c.25-.15.47-.33.71-.49a.45.45,0,0,0,.3-.06,6.36,6.36,0,0,0,.82-.54c.3.1.68,0,.64-.44a2.93,2.93,0,0,1,.36-1.82A.48.48,0,0,0,117,91.68Zm-4.44-.34a.5.5,0,0,1,0-1A.5.5,0,0,1,112.56,91.34Z" transform="translate(-87.35 -29.32)"/><path class="cls-21" d="M114.45,88.1a4.87,4.87,0,0,0-.43-.87l-.24-.45c-.4-1.09-.83-2.16-1.32-3.21a.4.4,0,0,0-.53-.23c-1.13-2.17-2.31-4.31-3.59-6.4a.5.5,0,0,0,0-.25l-1.49-3a.41.41,0,0,0-.51-.23c-.59-1.06-1.19-2.11-1.82-3.14a.46.46,0,0,0-.27-.21l-.22-.46a.45.45,0,0,0-.77-.08,1.61,1.61,0,0,0-.6.15,11.54,11.54,0,0,1-1,.63.51.51,0,0,0-.35.62c0,.07.06.12.08.19a.47.47,0,0,0,0,.07l0,0a2.77,2.77,0,0,0,.25.43l0,.08h0l.07.11a.44.44,0,0,0,.16.12,18.46,18.46,0,0,0,1.28,2.63q1.29,2.67,2.67,5.3,2.76,5.25,5.87,10.3a.46.46,0,0,0,.57.2l.09,0a.46.46,0,0,0,.24-.55.52.52,0,0,0,.16,0l1.76-.81C115,88.78,114.81,88.23,114.45,88.1Z" transform="translate(-87.35 -29.32)"/><path d="M113.42,90.36a.51.51,0,0,0-.73-.34l-.57.3a1.06,1.06,0,0,0-.17,1.12.41.41,0,0,0,.56.31.49.49,0,0,0,.66,0l.58-.52A.52.52,0,0,0,113.42,90.36Z" transform="translate(-87.35 -29.32)"/><path d="M103.77,68.65c-.49-.85-1.45-.75-2.27-.49a2,2,0,0,0-1.61,1.71.39.39,0,0,0,.25.44.51.51,0,0,0,.85.31,4.87,4.87,0,0,1,2.49-1.23A.5.5,0,0,0,103.77,68.65Z" transform="translate(-87.35 -29.32)"/><path class="cls-21" d="M106.91,60.65a3.77,3.77,0,0,1-.89-1.51.48.48,0,0,0-.15-.22,7.48,7.48,0,0,1,.44-1.47c.23-.6-.74-.86-1-.27l-.1.28a.5.5,0,0,0-.3.13c-.37.33-.75.64-1.15.93a.36.36,0,0,0-.12.05,4.73,4.73,0,0,1-2,.15c-.63-.09-.9.88-.27,1a6.26,6.26,0,0,0,1.76,0c0,.08.05.16.08.24a6,6,0,0,0-.06,2.07h0a3.23,3.23,0,0,0-.23.93,35.64,35.64,0,0,1-.41,4.36c-.13.63.83.9,1,.27a17.63,17.63,0,0,0,.47-3.25c0-.29,0-.61,0-.92a.55.55,0,0,0,.11-.11,6.76,6.76,0,0,1,2.68-1.85.4.4,0,0,0,.25-.37A.46.46,0,0,0,106.91,60.65Z" transform="translate(-87.35 -29.32)"/><path class="cls-21" d="M111,55.26a.61.61,0,0,0-1.08.33c.28,1,.41,2.56,1.42,3.11.18.51,1,.49,1-.11A7,7,0,0,0,111,55.26Z" transform="translate(-87.35 -29.32)"/><path class="cls-21" d="M94.64,66.44h0a.45.45,0,0,0-.34.06,10.19,10.19,0,0,0-4.41,5.59.42.42,0,0,0,.14.49c-.62,1.33-1.46,3.26-1.12,4.49a.5.5,0,0,0,.73.3l.06,0a.56.56,0,0,0,.14-.13.44.44,0,0,0,.69-.28,19,19,0,0,1,4.82-9.78C95.79,66.67,95.08,66,94.64,66.44Z" transform="translate(-87.35 -29.32)"/><path class="cls-22" d="M112.28,58.46l-.22-.13a.44.44,0,0,0-.15-.31,3.29,3.29,0,0,1-1-2.86c.07-.64-.92-.63-1,0a.44.44,0,0,0-.62-.13l-2.79,1.76a.47.47,0,0,0-.15.16.51.51,0,0,0-.4.13c-.44.38-.88.75-1.35,1.08a8.48,8.48,0,0,1-3.33.75,4.62,4.62,0,0,0-2.64,0c-4.56,1.66-8.34,6.79-9.17,11.42a.5.5,0,0,0,.08.39,43.09,43.09,0,0,0-1.78,6,.5.5,0,0,0,1,.27,33,33,0,0,1,2.06-6.6,13.62,13.62,0,0,1,3-3.65.46.46,0,0,0,.37.05,1.78,1.78,0,0,1,1.91.34c.34.33.59.74.94,1.07a2.18,2.18,0,0,0,1.68.65,1.69,1.69,0,0,0,1,0,.55.55,0,0,0,.86,0,3.46,3.46,0,0,1,1.24-1,.51.51,0,0,0,.89-.31c0-.3,0-.6,0-.89a2.37,2.37,0,0,0,0-1.18c0-.65.09-1.3.18-1.94a4.67,4.67,0,0,1,.68-1.14c1-.7,2-1.37,3.11-2a5,5,0,0,0,.75,1,.46.46,0,0,0,.35.13.39.39,0,0,0,.59.08c.19-.14.39-.27.59-.4a.5.5,0,0,0,.25-.05l0,0a.38.38,0,0,0,.34-.06l.47-.34a.43.43,0,0,0,.5,0l1.29-.82a.42.42,0,0,0,.35-.17l.12-.15a.52.52,0,0,0,.11-.43A.48.48,0,0,0,112.28,58.46Z" transform="translate(-87.35 -29.32)"/></g><g id="martillo"><path d="M116.24,90.27c-.24-.4-.5-1.21-1.06-1.38a195.28,195.28,0,0,0-11.1-19.56c.49-.5-.38-1.25-.87-1.43.87-.68.75-2.16.87-3.09s.11-1.61.94-2.13a15.6,15.6,0,0,1,2.21-1.13c.17.71,1.63.09,2-.07a10.21,10.21,0,0,0,3.37-2.22c.13-.13-.11-.29-.24-.16a9.77,9.77,0,0,1-2.25,1.67c-.26.14-2.59,1.25-2.62.63h0a.14.14,0,0,0,0-.16,3.82,3.82,0,0,1-1.23-4.2Q108,56,109.83,54.89h0a5,5,0,0,0,.79,3c.24.36,1.24,1.77,1.88,1.06.2-.23.09-.52,0-.77a11.93,11.93,0,0,0-.62-1.65c-.28-.58-1-1.87-1.78-2a.16.16,0,0,0-.22,0q-1.76,1.06-3.54,2.1c0-.12-.17-.18-.27-.08-1.44,1.51-3.51,2.66-5.69,2h-.08a.16.16,0,0,0-.25-.13c-1.21.72-2.56,1.21-3.78,1.92a14,14,0,0,0-2.63,2,15.52,15.52,0,0,0-3.52,5.11c-.89,2.08-1.08,4.25-1.64,6.39a10,10,0,0,1-.68,1.91c-.15.31-.53.74-.51,1.1s.48.56.92.54a.11.11,0,0,0,.12.15l2.21,0a.15.15,0,0,0,.17-.16c0-3.86,2.09-7.41,4.77-10.3l0,0a5.11,5.11,0,0,1,.84.95,3.06,3.06,0,0,0,3.18,1.2.12.12,0,0,0,.12.13h.35a.13.13,0,0,0,.21,0l0,0h.32c.19,0,.23-.27,0-.27h-.05a3.53,3.53,0,0,1,1.64-.9,1.68,1.68,0,0,1,1.14.19c.33.2.48.35.31.7s-.22.26-.6.34a3.94,3.94,0,0,0-1.35.59,2.55,2.55,0,0,0-.34.31.54.54,0,0,0-.58.3.59.59,0,0,1-.46-.15,5.4,5.4,0,0,1-.25-.62.16.16,0,0,0,.15,0l0,0a.13.13,0,0,0,0-.14.24.24,0,0,0-.23-.16.15.15,0,0,0-.14.06c-.31.43.17,1.68.79,1.63a.41.41,0,0,0,.14,0l.19.32a.46.46,0,0,0,.33.23Q106,81.1,111.49,90.23c.09.15.37,0,.27-.12q-5.43-9.1-10.05-18.6a.47.47,0,0,0,.23-.68l-.23-.38a.47.47,0,0,0-.06-.07,2.58,2.58,0,0,1,.46-.36,3.66,3.66,0,0,1,1.26-.46,3.92,3.92,0,0,0,.47-.07,195.27,195.27,0,0,1,11,19.39,4.38,4.38,0,0,0-1.06.41,17.8,17.8,0,0,0-1.69.85c-.46.26-1.53.65-1.45,1.27a4.85,4.85,0,0,0,.71,1.36l.78,1.39c.51.89,1,1.77,1.59,2.65a1.21,1.21,0,0,1,.26-.15c-.35-.56-.7-1.12-1-1.69q-.68-1.15-1.32-2.31a4.24,4.24,0,0,1-.63-1.17c0-.53.82-.87,1.23-1.1s.86-.47,1.31-.67l.62-.27c.4-.17.44-.22.88-.09l.05,0a.14.14,0,0,0,.16.06c.23.11.28.24.44.5l.42.71.71,1.18.94,1.56a.46.46,0,0,1,.19-.26Zm-6.1-35.4a.1.1,0,0,0,0,0v0a7.2,7.2,0,0,1,1.4,1.69,8.71,8.71,0,0,1,.41,1,3,3,0,0,1,.32,1q.18.28-.25.25-.29.21-.44,0a2.15,2.15,0,0,1-.44-.47,4.84,4.84,0,0,1-.62-1A4.73,4.73,0,0,1,110.14,54.87Zm-14.84,12c-2.7,2.92-4.8,6.47-4.83,10.35H88.89a.14.14,0,0,0,0-.23c.61-2.93,1.34-6,3.35-8.45a5.64,5.64,0,0,1,2-1.75,1.26,1.26,0,0,1,1.11,0Zm7.62.91a.13.13,0,0,0,0,.05l-.27,0c.67-1.12.41-2.38.33-3.59a4.12,4.12,0,0,1,.48-2.32c.39-.75,0-1.72-.2-2.48a.15.15,0,0,0-.17-.11,4,4,0,0,1-1.87-.17c-.27-.09-.48-.29-.77-.23a.15.15,0,0,0-.13.12.2.2,0,0,0,.11.23.16.16,0,0,0,.18,0l0,0,0,0a8.35,8.35,0,0,0,1.17.4c.35.05.92-.07,1.16.15s.19.87.22,1.08a1.58,1.58,0,0,1-.14,1.13,3.26,3.26,0,0,0-.33.83c-.39,1.66.6,3.52-.46,5.05v0A4.3,4.3,0,0,0,100.18,69h-.34c0-.09,0-.2-.15-.16A2.74,2.74,0,0,1,96.8,68c-.41-.49-.72-1.12-1.34-1.41-1.32-.61-2.62.82-3.36,1.67-2.17,2.52-2.94,5.76-3.57,8.84a1,1,0,0,1-.53,0c-.51-.19-.14-.73,0-1a8.67,8.67,0,0,0,.54-1.27A19.77,19.77,0,0,0,89.21,72,19.58,19.58,0,0,1,91,66.45a14.92,14.92,0,0,1,3.74-4.65c1.66-1.36,3.68-2.06,5.53-3.14a.11.11,0,0,0,.09.15,5.79,5.79,0,0,0,5.56-1.63h0a4.07,4.07,0,0,0,1.23,4.14,18.36,18.36,0,0,0-1.95,1,2.39,2.39,0,0,0-1.13,1,7.67,7.67,0,0,0-.31,2C103.62,66.1,103.69,67.27,102.92,67.77Z" transform="translate(-87.35 -29.32)"/><path class="cls-23" d="M139.34,135.41a40.91,40.91,0,0,1-7,18,5.39,5.39,0,0,0,.33-.84,9,9,0,0,0,.13-3.76c-.44-3.21-1.11-6.4-1.61-9.6-.58-3.71-1.12-7.43-1.65-11.15-.44-3.1-.81-6.2-1-9.32l-.26.06c.27,5.52,1.21,11,2,16.48.47,3.15,1,6.3,1.5,9.44.46,2.67,1.52,5.89.32,8.49a7.63,7.63,0,0,1-2.52,2.84,17.72,17.72,0,0,1-3.37,2,2.85,2.85,0,0,1-2.31.14,8.16,8.16,0,0,1-1.67-1.24c-1-.79-2.21-1.32-3.14-2.21l-.12-.12a.11.11,0,0,0,0-.19l-.36-.23-.16-.22-.1,0c-3.48-2.63-3.73-8.19-3.46-12.17.35-5.25,1.9-10.35,3.23-15.41l2.06-7.82a.12.12,0,0,0,.25,0,6,6,0,0,1,.36-1.39l.84.53a.13.13,0,0,0,.17-.18c.72.17,1.45,0,2.16.15.16,0,.24-.2.08-.24a15.58,15.58,0,0,0-1.74-.08,4,4,0,0,1-2-.84.11.11,0,0,0-.1,0,41.46,41.46,0,0,1-3.82-2.88,16.93,16.93,0,0,1-2.24-2.24,14.8,14.8,0,0,1-1.61-2.82c-.4-.8-1.09-1.15-1.7-1.76-.89-.89-.55-2.12-.62-3.24a21.9,21.9,0,0,0-.85-2.74,2.57,2.57,0,0,1,1.11-2.51,17.39,17.39,0,0,1,2.89-1.7l3.55-1.9c.14-.08,0-.3-.11-.23l-3.44,1.84a26.19,26.19,0,0,0-2.64,1.48,3.85,3.85,0,0,0-1.53,1.76,3.26,3.26,0,0,0,.31,2.41,5,5,0,0,1,.47,2,14.75,14.75,0,0,0,0,1.54,2.84,2.84,0,0,0,1.32,2,3.47,3.47,0,0,1,1.1,1.36,14,14,0,0,0,.8,1.62,12.48,12.48,0,0,0,2,2.39,35.4,35.4,0,0,0,5.37,4.16l-.08.23c0-.09-.19-.12-.23,0-1.45,5.5-3,11-4.31,16.51-1.15,4.88-2.06,10.2-.81,15.17a9,9,0,0,0,3.29,5.36,10.88,10.88,0,0,0,2.79,2.16c1,.63,1.83,1.71,3,2s2.55-.45,3.61-1.08a16.92,16.92,0,0,0,3-2.1,8,8,0,0,0,.72-.76.13.13,0,0,0,.21,0,41.14,41.14,0,0,0,7.87-19.26C139.61,135.27,139.36,135.25,139.34,135.41Z" transform="translate(-87.35 -29.32)"/><path class="cls-23" d="M128,105.82a8,8,0,0,0-.9-6.38A57.93,57.93,0,0,0,122.64,93a4.71,4.71,0,0,0-2.12-1.9,2.44,2.44,0,0,0-2.2.42,3.41,3.41,0,0,0-1.19,1.64.12.12,0,0,0,0,.11,2.06,2.06,0,0,0,1,2.58,5.09,5.09,0,0,0,3.32.23,1.69,1.69,0,0,0,.81-.5h0a.13.13,0,0,0,.19,0,.22.22,0,0,0,.13.08A3.27,3.27,0,0,1,123,96a3.42,3.42,0,0,1,.45.69,3.47,3.47,0,0,1,.36,1.57,16.34,16.34,0,0,0-10.31,2.94c-.13.09,0,.28.16.19a16.06,16.06,0,0,1,9.95-2.89.12.12,0,0,0,.1,0,2.7,2.7,0,0,1,2.92,2.13c.16,1-.56,1.36-1.4,1.46s-1.47.12-2.2.24a14,14,0,0,0-3.7,1.32l-4.18,2a.13.13,0,0,0,.11.23c1.73-.83,3.46-1.69,5.21-2.48a10.78,10.78,0,0,1,2.85-.86,18.74,18.74,0,0,0,2.55-.32c1.2-.36,1.24-1.57.66-2.54A3,3,0,0,0,124,98.3a3.76,3.76,0,0,0-.52-1.95c-.19-.32-.6-1-1-1.08a1.87,1.87,0,0,0,.22-1.18c0-.16-.27-.11-.25,0,.25,1.76-1.68,1.88-2.92,1.8a2.31,2.31,0,0,1-2.27-1.56h.08a3.8,3.8,0,0,1,1.7-.29c.4,0,.78.21,1.17.25s.72-.38.63-.82c-.3-1.49-2.33-1-3.38-.51a2.91,2.91,0,0,1,2-1.73c1.23-.21,2.11.77,2.79,1.66a71.82,71.82,0,0,1,4.31,6,9.81,9.81,0,0,1,1.53,4.61c-.21-.86-.83-1.65-1.75-1.46a.13.13,0,0,0,0,.25c.9-.18,1.35.72,1.48,1.47a1.17,1.17,0,0,1-.46,1.33l-.26.11-.3-.06a.12.12,0,0,0-.12.18l-.13,0a17,17,0,0,0-3.47,1.22,16.25,16.25,0,0,0-3,1.9,6.69,6.69,0,0,1-.74.57,3,3,0,0,1-1.06.32l-.92.16-1.09.25a.11.11,0,0,0,0-.1l0,0a.13.13,0,0,0-.15,0,.19.19,0,0,0-.13.18.12.12,0,0,0,.05.11c.17.1.3.05.5,0l1.5-.27A3.75,3.75,0,0,0,120,109a16.68,16.68,0,0,1,4.83-2.79c.78-.28,1.6-.42,2.39-.69,1.2.39,1.4,2.05,1.15,3.29-.48-.81-3.26,1.34-3.6,1.68a7.78,7.78,0,0,0-2.26,4.91.13.13,0,0,0,.25,0,7.53,7.53,0,0,1,3.14-5.55c.21-.15,2.22-1.36,2.3-.82a.11.11,0,0,0,.1.1,3.23,3.23,0,0,1-.16.45c-.07.15.17.23.24.09A4.1,4.1,0,0,0,128,105.82Zm-8.91-13a1.68,1.68,0,0,1,1.06.21q.72.45-.14,1l-.39-.11a3.82,3.82,0,0,0-1.1-.08.45.45,0,0,1-.37.18.46.46,0,0,1-.27-.09,4.52,4.52,0,0,0-.71.22h0a2.15,2.15,0,0,1,.1-.82A4.89,4.89,0,0,1,119.14,92.78Zm8.7,12.84a1.7,1.7,0,0,0-.33-.23,1.32,1.32,0,0,0,.5-.42A6,6,0,0,1,127.85,105.62Z" transform="translate(-87.35 -29.32)"/><path class="cls-23" d="M119.18,109.5,118,110.63c-.12.11,0,.3.16.19l1.18-1.13C119.46,109.58,119.29,109.39,119.18,109.5Z" transform="translate(-87.35 -29.32)"/><path d="M130.69,113.33l-1.39-1.9-.69-1c-.23-.32-.71-.78-.67-1.21,0-.19-.28-.19-.3,0,0,.57.49,1.05.8,1.48l1.56,2.14c.46.63,1,1.24,1.38,1.91a1.47,1.47,0,0,1,.22,1.52,1.26,1.26,0,0,1-.18.25.53.53,0,0,0-.77-.11,10.5,10.5,0,0,1-4.94,2.26.41.41,0,0,0-.35.49l-.21-.36-.64-1.08q-.65-1.08-1.33-2.13c-.1-.16-.36,0-.26.15q1.28,2,2.46,4.06a.15.15,0,0,0,.17.07c.3-.11.6-.23.89-.35l.71-.17a.49.49,0,0,0,.65-.21,11.68,11.68,0,0,0,3.55-2,.44.44,0,0,0,.14-.2,1.7,1.7,0,0,0,.53-.8C132.29,115.13,131.23,114.08,130.69,113.33Z" transform="translate(-87.35 -29.32)"/></g><g id="casco"><path class="cls-24" d="M181.28,49.93a1.32,1.32,0,0,0,.06-.55,1.67,1.67,0,0,0-.27-.74c.43-1.78.54-3.78-.79-4.83,0,0,0-.08,0-.12-1-7.13-7.89-13.17-15-13.2a1.1,1.1,0,0,0-.36.06l-.2,0a1.37,1.37,0,0,0-1.33-.77q-2,.08-4,.29a1.39,1.39,0,0,0-1.18.85,16.79,16.79,0,0,0-12.52,14.93,1.66,1.66,0,0,0,0,.47,3.15,3.15,0,0,0-.76.91c-.83,1.53-.28,3.49.48,5a1.48,1.48,0,0,0-.77,1.4v.11a1.51,1.51,0,0,0,1.57,1.4,1.59,1.59,0,0,0,.55-.17l1.88-.37a1.57,1.57,0,0,0,.46.1,100,100,0,0,0,16.72-.42l.19,0a56.06,56.06,0,0,0,8.41-.74A46.79,46.79,0,0,0,181,52.49C182.3,52.18,182.15,50.61,181.28,49.93Z" transform="translate(-87.35 -29.32)"/><path class="cls-25" d="M182.13,50.3a.24.24,0,0,0-.1-.42l-.36,0-.08-.06a.22.22,0,0,0,.1-.21c-.09-1.31-.17-2.62-.27-3.94,0-.57,0-1-.47-1.37a1.54,1.54,0,0,0-.31-.19.25.25,0,0,0,.07-.25c-1.93-7.18-7.5-14.21-15.5-13.39l-.07,0c-.06-.2-.12-.39-.18-.59a.23.23,0,0,0-.11-.13.26.26,0,0,0-.22-.4l-4.08.07c-.73,0-1.47,0-1.91.65a3.08,3.08,0,0,0-.34.79h0a14.28,14.28,0,0,0-8.56,4.54c-2.68,2.94-3.54,6.7-4.23,10.55a.26.26,0,0,0,0,.1,1.57,1.57,0,0,0-.84.75,4.25,4.25,0,0,0,0,2.44,17.52,17.52,0,0,0,.84,3l-.1,0a.22.22,0,0,0-.15.16c-.77.42-1.71,1.21-1,2.15a1.69,1.69,0,0,0,1.32.51c1.11.12,2.25.13,3.36.18a140.18,140.18,0,0,0,14.41-.15,140.14,140.14,0,0,0,14.32-1.62c1.29-.21,3.67-.17,4.59-1.31A1.37,1.37,0,0,0,182.13,50.3Zm-1.9-6.4c-.45-.14-1-.23-1.32-.31a16.25,16.25,0,0,0-3.06-.39c-.32,0-.28.49,0,.5,1.39.06,3.49.13,4.59,1.09.64.57.49,1.49.55,2.34l.17,2.43a.25.25,0,0,0-.17.2q-4.95-.55-9.89-.63a.23.23,0,0,0,0,0,30.84,30.84,0,0,0-.79-5.19,2.53,2.53,0,0,0-.85-1.31c-.75-.55-1.82-.37-2.38-1.23a5.28,5.28,0,0,1-.44-2.59c-.06-1.11-.17-2.21-.34-3.31a33.78,33.78,0,0,0-1-4.54C173,30.15,178.34,37,180.23,43.9ZM158.53,32.62a6.44,6.44,0,0,1,.33-1.79c.55-1.14,1.22-.94,2.17-1l3.47-.06a.24.24,0,0,0,0,.19,33.55,33.55,0,0,1,1.45,6.18c.21,1.54,0,3.32.48,4.81s1.43,1.25,2.51,1.84,1.12,2,1.28,3.15l.44,3.13a95.45,95.45,0,0,0-15.21,1,.23.23,0,0,0,.12-.22c-.07-1.2-.14-2.4-.2-3.6a4.74,4.74,0,0,1,0-1.82c.42-1.11,1-.93,1.7-1.31,1.25-.66,1.37-2,1.35-3.33A50.06,50.06,0,0,1,158.53,32.62ZM145.36,50A6.27,6.27,0,0,1,145,47.2c.31-.86,1.64-1.06,2.37-1.3l2.78-.93a.25.25,0,0,0-.16-.47l-3.71,1.24-.29.1c.64-3.56,1.43-7.07,3.84-9.85a13.77,13.77,0,0,1,8.32-4.62,19.92,19.92,0,0,0-.22,2.06,34.91,34.91,0,0,0-.06,4,16.72,16.72,0,0,1,0,3.94c-.22,1-.82,1.28-1.68,1.68a2.4,2.4,0,0,0-.84.54,3,3,0,0,0-.53,2.18c0,1.41.15,2.82.23,4.23a.22.22,0,0,0,.19.22q-4,.61-8.05,1.59a.22.22,0,0,0-.25-.07L146,52A17.13,17.13,0,0,1,145.36,50Zm36.21,2a2,2,0,0,1-.89.38c-.84.22-1.74.32-2.59.47q-2.37.4-4.75.72-4.76.64-9.56,1t-9.36.3q-2.4,0-4.81-.09l-2.4-.11-1.2-.07-.72-.05q-.78-1.53.46-1.81a.22.22,0,0,0,.08-.07,95.36,95.36,0,0,1,35.62-2.32A1.11,1.11,0,0,1,181.57,52Z" transform="translate(-87.35 -29.32)"/></g></svg>