<?xml version="1.0" encoding="utf-8"?>
<!-- Generator: Adobe Illustrator 21.1.0, SVG Export Plug-In . SVG Version: 6.00 Build 0)  -->
<svg version="1.1" xmlns="http://www.w3.org/2000/svg" xmlns:xlink="http://www.w3.org/1999/xlink" x="0px" y="0px"
	 viewBox="0 0 342 390" style="enable-background:new 0 0 342 390;" xml:space="preserve">
<style type="text/css">
	.st0{fill:#727272;}
	.st1{fill:#AAAAAA;}
	.st2{fill:#494949;}
	.st3{fill:#154289;}
	.st4{fill:#102773;}
	.st5{fill:#A5641C;}
	.st6{fill:#7F4913;}
	.st7{fill:#F2F2F2;}
	.st8{fill:#AA6831;}
	.st9{fill:#FFEDD7;}
	.st10{fill:none;stroke:#7F4913;stroke-miterlimit:10;}
	.st11{fill:#160704;}
	.st12{fill:#79BBCE;}
	.st13{fill:#F9773A;}
	.st14{fill:#629CCC;}
	.st15{fill:#FFFFFD;}
	.st16{fill:#AF472B;}
	.st17{fill:#3D210A;}
	.st18{fill:#FFFDFA;}
	.st19{fill:#965A2D;}
</style>
<g id="shoes_colour">
	<path class="st0" d="M218.2,323.2c0.1-0.5,0-1-0.3-1.6c0-0.1-0.1-0.1-0.1-0.1c0-0.1,0-0.2,0-0.3c0-0.1-0.1-0.2-0.1-0.3
		c-0.1-0.4-0.3-0.7-0.5-1c0-0.1,0-0.1,0-0.2c-1.2-3.6-3.7-6.6-5.9-9.7c-0.3-0.4-0.8-0.2-0.9,0.1c-0.3-0.1-0.6,0.1-0.6,0.5
		c-1.3,0.4-2.7,0.7-4,1.1c-1.1,0.2-2.1,0.5-3.2,0.8c-0.4,0.1-0.4,0.5-0.3,0.7c-0.1,0.1-0.2,0.3-0.2,0.4c-0.3,0.2-0.7,0.3-1,0.5
		c-0.8,0.3-1.6,0.5-2.2,1.1c-0.1,0.1-0.2,0.4-0.1,0.6c0.1,0.1,0.2,0.2,0.4,0.3c0,0.1,0,0.2,0.1,0.2c0.4,0.6,0.8,1.2,1.3,1.8
		c0,0,0,0,0,0c0.4,1.2,0.8,2.3,1.3,3.5c0,0,0,0,0,0c0,0.1-0.1,0.2,0,0.3c0.4,1.9,1,3.8,2.9,4.7c0.4,0.2,0.8,0.3,1.2,0.5
		c0.6,0.3,1.1,0.4,1.8,0.4c0.5,0.1,0.9,0.1,1.4,0.1c0.2,0.1,0.3,0.1,0.5-0.1c0,0,0,0,0,0c0.3-0.1,0.6-0.3,0.8-0.6
		c0.9-0.5,1.8-0.8,2.8-0.9c0,0.2,0.2,0.4,0.5,0.5c0.1,0.1,0.2,0.3,0.4,0.3c0.1,0,0.2,0,0.3,0c0,0.2,0.2,0.4,0.4,0.5
		c0.1,0.1,0.2,0.3,0.4,0.2c0.5,0,1-0.2,1.4-0.6c0.1-0.1,0.2-0.2,0.2-0.3C217.8,326,218.7,324.7,218.2,323.2z M213.4,318.1
		c-0.2,0-0.3,0-0.5,0c0-0.3-0.2-0.5-0.5-0.5c-0.1,0-0.2,0-0.3,0c0.1-0.1,0.1-0.3,0-0.4c-0.1-0.2-0.3-0.3-0.6-0.4
		c0.3-0.1,0.5-0.1,0.8-0.2c0.4,0.5,0.8,1.1,1.2,1.6C213.5,318.1,213.4,318.1,213.4,318.1z M216.1,323.7c-0.3,0.3-0.6,0.5-1,0.7
		c-0.2,0.1-0.4,0.2-0.6,0.2c0,0-0.1,0-0.2,0c0,0-0.1-0.1-0.1-0.1c-1-0.3-2.1-0.7-3.1-0.7c0,0,0,0-0.1,0c-2.3-0.3-4.4,0.7-6.7-0.2
		c-0.1,0-0.2,0-0.2,0c-0.4-0.5-0.7-1.2-0.7-2c0-0.2-0.1-0.3-0.2-0.4c0.2-0.4,0.5-0.8,0.8-1.2c0.5-0.3,0.9-0.6,1.4-0.9
		c0.3,0,0.6,0.1,0.9,0.1c0.3,0.1,0.5,0,0.5-0.2c0.1,0,0.1,0,0.2,0c0.1,0,0.3,0,0.4,0c2.4,0.7,4.7,0.9,7.2,0.6c0.2,0,0.4,0,0.5-0.1
		c0.8,0.6,1.5,0.9,1.7,2.2C216.8,322.4,216.6,323.1,216.1,323.7z"/>
	<path class="st0" d="M154,316.6c0.1-0.2-0.1-0.6-0.3-0.6c-3.1-0.4-6.1-0.8-9.2-1.1c-1.3-0.1-4.6-1.2-5.3,0.2
		c-0.1,0.2-0.1,0.3,0,0.5c-0.2,0.2-0.2,0.4-0.1,0.6c-0.1,0.1-0.2,0.1-0.3,0.2c-0.6,0.5-1,1.7-1.4,2.3c-0.6,1-1.3,2-1.9,3
		c-0.2,0.3,0.2,0.9,0.6,0.7c2.3-0.9,4.2-1.3,5.5-3c0.1,0.2,0.2,0.3,0.4,0.3c0,0,0,0,0,0.1c-0.1,0-0.2,0-0.3,0
		c-0.4,0-0.6,0.4-0.4,0.7c-0.1,0-0.2,0-0.2,0c-0.2,0-0.4,0.3-0.3,0.5c-0.1,0.1-0.1,0.3-0.1,0.5c-0.1,0-0.2,0-0.3,0
		c-0.3,0-0.4,0.2-0.5,0.4c-1.2-0.1-2.4-0.1-3.7,0.7c-0.2,0.1-0.3,0.3-0.2,0.5c-0.1,0-0.3,0.1-0.4,0.2c-1.5,2.6-0.7,4.4,1,5.7
		c0.5,0.9,1.4,1.4,2.4,1.7c0.8,0.5,1.7,0.8,2.9,0.9c1.2,0.1,2.5,0.1,3.8-0.2c0.1,0.1,0.3,0.2,0.5,0.1c1.2-0.4,2.5-1,3.3-2
		c0.7-0.6,1.4-1.2,1.9-2.1c0.1-0.2,0.1-0.4-0.1-0.6c0.1-0.2,0.2-0.4,0.3-0.5c0.1-0.1,0.1-0.3,0-0.4c0.2-0.8,0.2-1.7,0.2-2.6
		c0.1-0.1,0.1-0.2,0.1-0.4c0-0.1-0.1-0.2-0.1-0.3c-0.2-0.5-1-0.4-1,0.1c0,0.6,0.1,1.2,0,1.8c-0.1,0.6-0.7,1.2-1.4,1.7
		c-1.2,0.4-2.4,0.6-3.6,0.6c-0.8,0-1.5-0.1-2.3,0c-1.7,0.1-3.5,0.5-4.8-0.2c-0.4-0.4-0.9-0.8-1.1-1.4c-0.1-0.2-0.2-0.3-0.3-0.3
		c0,0,0,0,0-0.1c0-0.1-0.1-0.2-0.2-0.3c0.1-0.4,0.2-0.8,0.3-1.2c0-0.1,0-0.2,0-0.2c2.1-0.9,4.2,0.1,6.4-0.1c2.3-0.2,4.4-1.4,6.8-1.3
		c0.1,0,0.1,0,0.2,0c0.4,0,0.7,0.1,0.9,0c0,0,0,0,0,0c0,0,0,0,0,0c0,0,0,0,0,0c0,0,0,0,0,0c0,0,0,0.1,0,0.1c-0.1,0.6,0.9,0.7,1,0.1
		c0,0,0-0.1,0-0.1l0,0c0-0.3,0.1-0.6,0.1-0.9c0.3-0.4,0.3-1.1,0.5-1.8c0-0.1,0-0.2,0-0.3c0,0,0,0,0.1,0c0.5,0,0.6-0.7,0.2-0.9
		c0.1-0.1,0.2-0.1,0.2-0.2C153.7,317.5,153.8,317.1,154,316.6z M141.7,330.6c0.6-0.1,1.1-0.2,1.7-0.2c0.1,0.1,0.3,0.2,0.5,0.1
		c0.1,0,0.3-0.1,0.4-0.1c0,0,0.1,0,0.1,0c0.1,0,0.1,0,0.2,0c0.1,0,0.1,0.1,0.2,0.1c0,0,0,0,0,0.1c-0.8,0.1-1.6,0.2-2.4,0.1
		C142.1,330.7,141.8,330.7,141.7,330.6C141.6,330.7,141.6,330.6,141.7,330.6z M147.4,319.6c-0.4,0.1-0.4,0.5-0.3,0.8
		c-0.1,0.1-0.1,0.1-0.2,0.2c0,0,0,0-0.1,0c0,0,0,0,0,0l0-1c0-0.2-0.1-0.4-0.3-0.4c0.2,0,0.4,0,0.6,0
		C147.3,319.3,147.3,319.4,147.4,319.6C147.4,319.5,147.5,319.5,147.4,319.6C147.5,319.6,147.4,319.6,147.4,319.6z"/>
	<path class="st1" d="M150.3,324.3c0.1-1-0.6-1.5-1.3-1.6c0,0-0.1,0-0.1,0c0,0,0,0,0,0c0,0-0.1,0-0.1,0c0,0,0,0,0,0
		c-0.2,0-0.5,0-0.7,0.1c-0.1,0-0.1,0-0.2,0.1c-3.3,0.6-6.5,1-9.8,0.8c-0.5,0-0.6,0.4-0.4,0.8c-0.1,0.1-0.1,0.3,0,0.4
		c0.4,0.7,0.9,1.1,1.6,1.4c0,0,0,0,0,0c0.1,0,0.1,0,0.2,0.1c0.1,0,0.2,0.1,0.2,0.1c0,0,0,0,0.1,0c0.2,0.1,0.5,0.1,0.7,0.1
		c2.2,0.2,4.5-0.4,6.8-0.2c0.2,0,0.3-0.1,0.4-0.2c0.1,0,0.2,0,0.3,0c0,0,0,0,0.1,0c1.1,0.2,2.5-0.2,2.5-1.6
		C150.5,324.6,150.4,324.4,150.3,324.3z"/>
	<path class="st1" d="M154.9,317.7c0-0.6-1-0.6-1,0c0,1.2-0.2,2.5-0.8,3.6c-0.1,0.2-0.3,0.5-0.5,0.7c-0.4,0.5,0.3,1.2,0.7,0.7
		c0.2-0.3,0.4-0.5,0.6-0.8c0.2-0.4,0.4-0.7,0.6-1.2c0.1-0.1,0.1-0.3,0-0.4C154.8,319.5,154.9,318.6,154.9,317.7z"/>
	<path class="st1" d="M152.5,328.8C152.5,328.8,152.5,328.8,152.5,328.8c0.1-0.1,0.2-0.2,0.2-0.4c0-0.1,0-0.2,0-0.3
		c0-0.6-0.8-0.6-1-0.1c-0.4,0.9-1.2,1.5-1.9,2.2c-0.8,0.7-1.6,1.3-2.6,1.5c-0.6,0.2-0.4,1,0.1,1c0.1,0.2,0.2,0.3,0.4,0.2
		c1.8-0.2,4.9-1.2,4.9-3.6C152.8,329.1,152.7,328.9,152.5,328.8z"/>
	<path class="st1" d="M138.7,331.4c-0.1,0-0.3,0-0.4,0c0,0,0,0,0,0c-1.3-0.6-2.3-1.6-3.1-2.8c-0.1-0.2-0.4-0.3-0.6-0.2
		c-0.3-0.2-0.7-0.1-0.8,0.4c-0.1,1.2,0.3,2.3,1.2,3c1.1,0.8,2.3,0.5,3.6,0.7C139.4,332.5,139.4,331.5,138.7,331.4z"/>
	<path class="st1" d="M215.7,320.9c-0.4-1-2.2-0.9-3.2-0.8c-1.3,0.2-2.3,0.3-3.7,0c-0.7-0.2-1.4-0.4-2.1-0.5c-1-0.1-1.8,0.2-2.6,0.8
		c-0.2,0.2-0.2,0.4-0.1,0.6c0,0.1,0,0.1,0,0.2c0,0,0,0.1,0.1,0.1c0,0,0,0,0,0c0,0,0,0.1,0,0.1c0.3,0.8,0.9,1.2,1.5,1.5
		c1.2,0.9,3.2,0.6,5,0.1c0.1,0,0.2,0,0.3,0c0.2,0,0.4,0.1,0.7,0.1c0.4,0.1,0.8,0.2,1.1,0.2C214.8,324.3,217,322.3,215.7,320.9z"/>
	<path class="st1" d="M218,326.2c-0.4,0.6-0.9,1.1-1.5,1.4c-0.2,0.1-0.3,0.5-0.2,0.7c0.5,0.8,1.6-0.2,2.1-0.5
		c0.2-0.2,0.3-0.5,0.2-0.7c0.1-0.1,0.2-0.3,0.3-0.4C219.2,326.1,218.3,325.6,218,326.2z"/>
	<path class="st1" d="M208,328.3c-3.1,0.3-5.7-1.7-6.2-4.8c-0.1-0.4-0.5-0.4-0.7-0.3c-0.2,0-0.4,0.1-0.5,0.3c0,0,0,0.1,0,0.1
		c-0.2,0-0.3,0.1-0.4,0.2c-0.6,1.2-0.3,2.5,0.5,3.5c0.4,0.5,0.9,1,1.4,1.4c0.7,0.4,1.5,0.5,2.3,0.7c0.1,0,0.3,0,0.4-0.1
		c0.7,0.2,1.5,0.2,2.3,0c0.1,0,0.2-0.1,0.2-0.1c0.3,0,0.5,0,0.8,0C208.7,329.2,208.7,328.2,208,328.3z"/>
	<path class="st1" d="M200.9,320c-0.2-0.4-0.5-0.7-0.7-1c-1-1.5-2-3-2.9-4.5c-0.2-0.4-0.7-0.3-0.8,0c-0.3-0.1-0.8,0.1-0.7,0.5
		c-0.2,0-0.4,0.2-0.4,0.5c0.1,1.1,0.6,2,1.3,2.8c0.4,0.4,0.8,0.8,1.3,1.1c0.6,0.4,1.5,0.9,1.9,1.5c0.3,0.5,0.9,0.2,0.9-0.3
		C200.9,320.5,201,320.3,200.9,320z"/>
</g>
<g id="shoes_drawing">
	<path class="st2" d="M153,323.8c0.8-1,2-2.2,2.5-3.4c0.2-0.5,0.2-1.1,0.2-1.7c0-0.6-0.3-1.4-0.3-2c0,0,0,0,0,0
		c0.1-0.2,0.1-0.5-0.2-0.7c0,0,0,0-0.1,0c-0.3-0.2-0.7,0-0.7,0.3c0,0.1,0,0.3,0,0.4c0-0.5-0.9-0.7-1-0.1c-0.3,2.1-1.1,4-1.6,6
		c-0.7-0.9-1.7-1.5-2.9-1.7c-0.2,0-0.9,0.1-1.1,0c-0.3-0.2-0.4-0.4-0.4-0.7c0.5,0.1,0.9,0.3,1.4,0.5c0.6,0.2,0.9-0.7,0.3-1
		c-0.5-0.2-1-0.4-1.4-0.5c0,0,0,0,0,0c0.1-0.2,0.1-0.4,0.2-0.6c0.3,0.1,0.5,0.3,0.8,0.5c0.5,0.4,1.2-0.3,0.7-0.7
		c-0.4-0.3-0.8-0.5-1.2-0.7c0.1-0.2,0.1-0.4,0.2-0.5c0.3,0.1,0.6,0.3,0.8,0.4c0.6,0.3,1.1-0.6,0.5-0.9c-0.3-0.2-0.7-0.4-1.1-0.5
		c0-0.1,0.1-0.3,0.1-0.4c0.2-0.6-0.8-0.9-1-0.3c0,0.1-0.1,0.3-0.1,0.4c-1.3-0.4-2.7-0.5-4.1-0.3c0-0.1,0-0.1,0-0.2
		c0.1-0.6-0.8-0.9-1-0.3c0,0.2-0.1,0.4-0.2,0.7c-0.6,0.1-1.1,0.3-1.7,0.6c-0.6,0.3-0.1,1.1,0.5,0.9c0.3-0.1,0.6-0.2,0.9-0.3
		c0,0.1-0.1,0.2-0.1,0.3c-0.6,0.2-1.3,0.4-1.8,0.6c-0.6,0.3-0.1,1.1,0.5,0.9c0.3-0.1,0.6-0.3,0.9-0.4c-0.1,0.2-0.2,0.5-0.3,0.7
		c-0.5,0.1-1.1,0.2-1.6,0.4c-0.6,0.2-0.3,1.2,0.3,1c0.2-0.1,0.4-0.1,0.6-0.2c-0.6,0.7-1.5,0.9-2.6,1.1c-0.9,0.2-1.7,0.5-2.4,1
		c1-2.4,2.8-4.4,3.7-6.9c0.2-0.6-0.7-0.9-1-0.3c-1.1,3.1-3.7,5.6-4.3,8.8c0,0,0,0.1-0.1,0.1c-0.1,0.2-0.1,0.3,0,0.4
		c-0.1,0.5-0.1,1.1-0.1,1.7c-0.1,0.1-0.1,0.1-0.1,0.2c-0.4,1.4-0.5,2.8-0.4,4.3c0,0,0,0,0,0.1c0,0,0,0,0,0c0,0.2,0.1,0.3,0.1,0.5
		c0,0,0,0,0,0c0,0,0,0,0,0c0.2,0.2,0.4,0.4,0.6,0.6c4.7,5.4,12.4,5.1,17.5,0.6c0.7-0.5,1.4-1.2,1.9-2c0.1-0.2,0.1-0.3,0-0.4
		c0,0,0,0,0-0.1c0-1.2-0.3-2.4-0.9-3.6c-0.1-0.1-0.2-0.2-0.3-0.2c0.1-0.7,0.1-1.4,0.2-2.1C152.8,324,152.9,323.9,153,323.8z
		 M154.4,316.9c0,1.1,0.6,2.2,0,3.3c-0.4,0.7-1,1.4-1.5,2.1C153.3,320.5,154.1,318.8,154.4,316.9z M150,325.4
		c-0.5,0.8-1.5,0.9-2.5,0.8c-0.3,0.3-0.8-0.1-2-0.3c-0.6-0.1-1-0.1-1.6,0c-2.3,0.3-5.1,2-6.2-1.5c0,0,0,0,0,0
		c-0.1-0.8,4.4-0.4,5.2-0.5c0.8-0.1,1.6-0.4,2.4-0.6c0.5-0.2,1.1-0.3,1.6-0.4c0.2-0.1,0.4-0.2,0.6-0.2c0.6-0.4,1.4-0.3,2,0.1
		C150.3,323.5,150.5,324.7,150,325.4z M143.4,316.5c1.3-0.2,2.7-0.2,4,0.2c-0.1,0.2-0.1,0.3-0.2,0.5c-1.2-0.4-2.6-0.5-4-0.3
		C143.3,316.8,143.4,316.6,143.4,316.5z M143,318c1.3-0.2,2.7-0.2,4,0.2c-0.1,0.3-0.2,0.5-0.2,0.8c-1.3-0.3-2.7-0.3-4-0.2
		C142.8,318.5,142.9,318.2,143,318z M134.8,331.1c-0.1-0.2-0.3-0.3-0.4-0.5c-0.1-0.8,0-1.6,0.1-2.4c0.8,1.8,2.5,3,4.4,3.7
		C137.5,332.6,136.1,332.1,134.8,331.1z M145.2,330.9c-0.8-0.7-1.5-1.5-2.7-1.6c-0.6,0-1.1,0.1-1.5,0.5c-0.5,0.5-0.7,0.9-1.1,1.3
		c-3.4-1-5.3-3.5-4.8-6.8c0.9-1.3,2.3-2.1,3.9-2.1c0.8,0,1.4,0.1,2-0.4c0.5-0.4,1-1.1,1.3-1.9c1.4-0.2,2.8-0.2,4.2,0.1
		c-0.1,0.5-0.1,1.1,0.2,1.5c0.4,0.5,0.8,0.4,1.4,0.4c0.5,0,1,0.1,1.4,0.2c-1.2-0.3-2.8-0.1-3.9,0.2c-1.7,0.5-3.3,0.9-5.1,0.6
		c-0.7-0.1-1.4-0.3-2-0.3c-1.1,0.1-1.7,0.7-1.7,1.8c0,0,0,0,0,0c0,0.1,0,0.1,0,0.2c1.1,3.5,3.8,3.1,6.7,2.4c2.3-0.5,7.2,1.6,7.6-2.4
		c0.1-1-0.2-1.7-0.7-2.1c0.5,0.3,0.9,0.8,1.2,1.4c0,0.1,0.1,0.1,0.1,0.1c0,0.1,0,0.1,0,0.2c-0.2,3.6-2.1,6.6-5.9,7
		C145.5,331.1,145.4,331,145.2,330.9z M152.6,329.9C152.6,329.9,152.6,329.9,152.6,329.9c-0.4,0.6-0.8,1-1.3,1.5
		c-1.2,0.9-2.7,1.1-4.2,0.6c2-0.6,3.8-1.9,4.7-3.9c0.1-0.2,0.2-0.4,0.2-0.6C152.4,328.2,152.6,329.1,152.6,329.9z"/>
	<path class="st2" d="M219.3,324.6c-0.1-0.2-0.2-0.3-0.4-0.3c0.2-1.2,0-2.4-0.4-3.6c-0.7-1.8-1.8-3.3-2.8-4.8
		c-1.4-2-2.6-4.1-3.9-6.2c-0.3-0.5-1.2,0-0.9,0.5c1.5,2.5,3.1,5.1,4.7,7.5c1.9,2.8,4.2,7.7-0.1,9.7c-0.1,0.1-0.2,0.2-0.2,0.3
		c-1.2-0.8-2.2-2.1-3.9-1.4c-0.7,0.3-1.2,0.8-1.8,1.3c0,0,0,0,0,0c-4,0.8-6.9-1.7-7.8-5.3c0-0.1,0.1-0.1,0.1-0.2
		c0.2-0.3,0-0.6-0.3-0.7c-0.5-2.2-1.6-3.7-2.8-5.6c-0.3-0.5-1.2,0-0.9,0.5c0.6,0.9,1.2,1.8,1.7,2.7c0.3,0.6,0.5,1.2,0.7,1.8
		c-1-0.4-1.9-0.9-2.7-1.5c-0.6-0.4-1.1-0.9-1.4-1.5c-0.1-0.1-1.1-2.1-0.9-2.3c0.4-0.5-0.3-1.2-0.7-0.7c-0.9,1,0.5,3.4,1.3,4.3
		c1.2,1.4,3,2.3,4.7,2.9c0,0.1,0,0.1,0,0.2c-1,1.5-2,2.9-1.4,4.7c0,0.1,0,0.2,0,0.3c0.1,0.3,0.3,0.5,0.5,0.7c1.1,1.9,3.4,3,5.3,3.7
		c5,1.7,10.5,0.5,14.1-3.4c0.1-0.2,0.2-0.3,0.1-0.5c0,0,0,0,0-0.1C219.7,326.6,219.6,325.6,219.3,324.6z M200.5,324.4
		c0.1-0.3,0.4-0.7,0.6-1c0.3,1,0.7,1.8,1.4,2.6c1.5,1.8,3.6,2.7,5.9,2.6c-0.3,0.2-0.6,0.3-1,0.5c-1.9,0.5-4.9,0-6.4-1.5
		C200.3,326.7,200,325.6,200.5,324.4z M218.4,327.3c0,0.1,0,0.1,0,0.2c-0.8,0.7-1.5,0.8-2.1,0.6c1.1-0.5,1.8-1.4,2.3-2.4
		C218.6,326.2,218.6,326.8,218.4,327.3z"/>
	<path class="st2" d="M214.5,319.2c0-0.1,0-0.3-0.1-0.4c-0.4-0.4-0.8-0.9-1.1-1.3c0.3,0.1,0.5,0.3,0.7,0.4c0.5,0.4,1.2-0.3,0.7-0.7
		c-0.8-0.6-1.6-0.9-2.5-1.1c-0.2-0.2-0.3-0.5-0.5-0.7c0,0,0-0.1-0.1-0.1c0.4,0.1,0.7,0.2,1.1,0.4c0.6,0.3,1.1-0.6,0.5-0.9
		c-0.7-0.4-1.4-0.6-2.3-0.7c-0.1-0.2-0.3-0.4-0.4-0.7c0.2,0.1,0.3,0.2,0.5,0.3c0.5,0.4,1-0.5,0.5-0.9c-0.5-0.3-1-0.5-1.7-0.6
		c-0.2-0.3-0.4-0.7-0.5-1c-0.3-0.6-1.2-0.1-0.9,0.5c0.1,0.2,0.2,0.3,0.3,0.5c-1,0.1-2,0.3-2.8,0.6c-0.2,0.1-0.5,0.1-0.8,0.2
		c0,0,0,0,0-0.1c-0.2-0.6-1.2-0.3-1,0.3c0,0,0,0.1,0,0.1c-0.9,0.3-1.6,0.8-1.5,1.6c0.1,0.6,1.1,0.4,1-0.3c0-0.1,0.4-0.2,0.9-0.4
		c0.1,0.3,0.3,0.6,0.4,1c-0.5,0.2-1,0.5-1.4,0.8c-0.5,0.4,0,1.3,0.5,0.9c0.4-0.3,0.8-0.5,1.2-0.7c0.1,0.2,0.1,0.4,0.2,0.6
		c-0.3,0.2-0.7,0.4-0.9,0.7c-0.4,0.5,0.3,1.2,0.7,0.7c0.2-0.2,0.4-0.4,0.7-0.5c0.1,0.1,0.1,0.2,0.2,0.3c0.1,0.1,0.7,0.7,0.7,0.6
		c0,0.1,0,0.3,0.1,0.4c-1.6-0.1-3.1,0.1-3.8,1.7c-0.2,0.1-0.4,0.3-0.3,0.6c0.4,1.2,1,2.4,2.2,3c1.6,0.7,3.2-0.2,4.8-0.3
		c2.2-0.1,6.2,2.3,7-1.2C217.3,320.2,216.1,319.4,214.5,319.2z M205.7,314.9c-0.1-0.3-0.2-0.6-0.3-0.9c0.7-0.2,1.4-0.4,1.6-0.4
		c0.7-0.1,1.5-0.3,2.3-0.3c0.2,0.3,0.3,0.5,0.5,0.8C208.3,314.2,206.9,314.5,205.7,314.9z M206.3,316.4c-0.1-0.2-0.2-0.4-0.3-0.6
		c1.3-0.5,2.8-0.8,4.2-0.7c0.2,0.3,0.4,0.6,0.5,0.8c-0.4,0-0.8,0-1.2,0C208.6,316.1,207.4,316.1,206.3,316.4z M206.8,317.3
		c1.4-0.5,3.1-0.5,4.7-0.3c0.6,0.8,1.2,1.5,1.9,2.2c-0.4,0-0.9,0.1-1.3,0.2c-1.2,0.2-2.8-0.2-4.4-0.4c0-0.1,0.1-0.1,0.1-0.2
		C207.9,318.1,207.3,317.8,206.8,317.3z M215.7,322.9c-0.7,0.8-1.8,0.6-2.9,0.3c-0.3,0-0.7-0.1-1.4-0.2c-0.6-0.1-1.1-0.1-1.7-0.1
		c-2.2,0.1-4.7,1.2-5.9-1.5c0.9-2.9,4.9-0.7,6.7-0.7c0.4,0,0.9-0.1,1.3-0.2c0.4-0.1,0.8-0.2,1.2-0.3c0.1,0,0.2,0.1,0.3,0.1
		c0.7-0.1,1.4-0.1,2,0.4C216.1,321.1,216.3,322.2,215.7,322.9z"/>
	<path class="st1" d="M148.7,322.5c-0.7,0-1.4,0.2-2,0.6c-0.7,0.5-0.5,1.5,0.1,1.8c-0.4,0.6-0.1,1.6,0.8,1.6c1.1,0,1.2-1.3,0.5-1.8
		c0.2-0.1,0.4-0.1,0.6-0.1C150,324.5,150,322.5,148.7,322.5z"/>
	<path class="st0" d="M148.8,328c-1.3,0-1.3,2,0,2C150.1,330,150.1,328,148.8,328z"/>
	<path class="st0" d="M214.4,324.5c-1.3,0-1.3,2,0,2C215.7,326.5,215.7,324.5,214.4,324.5z"/>
	<path class="st0" d="M207.6,325.8c-1.3,0-1.3,2,0,2C208.9,327.8,208.9,325.8,207.6,325.8z"/>
	<path class="st1" d="M205.7,321.2c-0.1-0.4-0.4-0.7-0.9-0.7c-1.1,0-1.3,1.5-0.4,1.9c0.1,0.4,0.4,0.7,0.9,0.7
		C206.4,323.1,206.5,321.6,205.7,321.2z"/>
	<path class="st1" d="M214.8,321.5c-1.3,0-1.3,2,0,2C216.1,323.5,216.1,321.5,214.8,321.5z"/>
</g>
<g id="trousers_colour">
	<path class="st3" d="M214.3,308.7c0.2-1.2-0.4-2.6-1.8-3c-0.3-3.1-1.6-5.9-3-8.6c-0.2-0.4-0.5-0.7-0.8-0.9
		c-0.2-0.7-0.4-1.5-0.6-2.2c-0.2-0.8-0.7-1.4-1.3-1.6c0.6-3.2,1.2-6.4,1.6-9.6c0.1-0.7-0.1-1.3-0.3-1.8c0.2-0.6,0.4-1.1,0.6-1.7
		c0.2-0.6,0.2-1.2,0-1.7c1.5-4.4,1.6-9.1,1.3-14.1c-0.6-9.6-1.6-19.2-2.8-28.7c0-0.4-0.2-0.7-0.3-1c0.6-13.3-1.8-26.4-3.9-39.5
		c-0.1-0.7-0.5-1.2-0.9-1.5c-0.2-1-0.4-2-0.6-3c-0.6-2.7-4.4-2.1-4.8,0.2c-2.6,0.5-5.3,0.8-8,1c-1.7,0.1-3.4,0.2-5.1,0.3
		c-4.1,0.2-8.2,0.2-12.3,0.2c-4.2,0-8.3-0.1-12.5-0.1c-4.4,0-8.9,0.7-13.2-0.3c-1.7-0.4-2.8,0.8-3.1,2.1c-0.1,0.1-0.2,0.3-0.2,0.6
		c-0.4,6.2-0.3,12.5,0,18.7c-0.1,0.1-0.1,0.3-0.1,0.5c-0.1,1.4,0,2.8,0.1,4.2c0.1,0.9,0.2,1.7,0.2,2.6c0,0.1-0.1,0.2-0.1,0.3
		c0,0.2,0,0.4,0,0.7c0,0.2-0.1,0.4-0.1,0.7c-0.1,0.3,0,0.6,0.1,0.8c0,3.8,0.5,7.5,0.9,11.3c0.3,2.8,0.4,5.6,0.8,8.4
		c0,0.4,0,0.8,0,1.2c-2.4,6.2-3.9,12.6-4.5,19.2c-0.4,4.9-0.7,10.4,1,15.2c0.1,0.8,0.2,1.7,0.2,2.5c-0.1,1.6-0.1,3.3-0.2,4.9
		c0,0.5-0.1,1-0.1,1.5c-0.6,3.3-1.7,6.7-1.4,10c-0.5,0.3-0.8,1-0.2,1.5c0.4,0.4,1.8,1.4,2.2,2c0,0,0,0,0,0c0.1,0.1,0.1,0.2,0.1,0.3
		c0.2,1-0.8,3-1.1,4c-0.4,1.6-0.9,3.1-1.3,4.7c-0.6-0.2-1.4,0.1-1.4,0.9c0,0,0,0.1,0,0.1c-0.3,0.4-0.5,0.9-0.5,1.5
		c0,0.4,0.1,0.8,0.3,1.1c0,0,0,0,0,0c0,0.3,0.2,0.7,0.5,0.9c0.6,0.3,1.3,0.5,1.9,0.7c0.4,0.2,0.8,0.3,1.3,0.3c0,0,0,0,0,0
		c1.2,0.2,2.5,0.2,3.8,0.2c2.6,0,5,0.5,7.6,0.9c0.2,0,0.5,0.1,0.7,0.1c0,0,0.1,0,0.1,0c0.2,0,0.4,0,0.5,0c0.3,0.2,0.7,0.2,1.1,0.2
		c1.9,0,2.7-1.7,2.3-3.1c0.1-0.1,0.2-0.2,0.3-0.3c1.5-3.1,1.6-6.3,1.3-9.5c0-0.6-0.1-1.3-0.2-1.9c-0.1-0.8-0.2-1.6-0.3-2.4
		c0-0.2-0.1-0.4-0.3-0.6c0.9-2.2,1.8-4.5,2.7-6.7c0.1-0.3,0.2-0.6,0.2-0.8c2.2-4.1,4.4-8.3,5.8-12.7c1.6-5,0.4-10.3-0.1-15.4
		c-0.1-0.6-0.3-1.1-0.6-1.5c0.1-1.8,0.1-3.5,0.1-5.3c0.4-0.4,0.7-1,0.7-1.7c0.3-9.5,1.5-18.9,3.5-28.2c0-0.1,0.1-0.1,0.1-0.2
		c0.4-1.4,0.7-2.8,1.2-4.2c0.4-1.2,1.1-2.2,0.9-3.5c0-0.1-0.1-0.2-0.1-0.3c0.4-0.9,0.9-1.8,1.3-2.7c0,0,0-0.1,0.1-0.1
		c0.3-0.6,0.5-1.2,0.6-1.8c0.1,0.1,0.1,0.2,0.2,0.3c0,0.2,0.1,0.3,0.1,0.5c4.4,12.3,8.8,24.7,9.4,37.7c-0.1,0.3-0.1,0.5-0.1,0.9
		c0.3,4.6-1.1,9.1-0.3,13.7c0.4,2.2,1.1,4.3,1.9,6.3c-0.1,3.9,1,7.7,2.3,11.5c1.9,7,4.7,13.7,6.5,20.7c-1.1,3-2.9,10,1.7,10.9
		c0.6,0.1,1.2,0.1,1.7,0c0,0,0,0,0,0c2.3-0.1,4.1-1.8,6.3-2.5c2.5-0.9,5.4-2,8.1-2.4c0,0,0.1,0,0.1,0c0.3,0,0.6,0,0.8-0.1
		c0.3,0,0.5-0.1,0.8-0.1C214.5,310.4,214.8,309.2,214.3,308.7z"/>
</g>
<g id="trousers_drawing">
	<path class="st4" d="M149.5,311.1c-1.1-0.8-2.2-1.9-3.6-2.2c-1.7-0.3-3.8,0.5-5.4,1c-0.6,0.2-0.4,1.2,0.3,1c1.3-0.4,3.1-1.1,4.5-1
		c1.4,0.1,2.6,1.3,3.7,2.1C149.5,312.4,150,311.5,149.5,311.1z"/>
	<path class="st4" d="M195.4,209.6c-6.1,0.7-12-1.4-18.1-0.7c-0.6,0.1-0.6,1.1,0,1c6.1-0.8,12,1.4,18.1,0.7
		C196,210.5,196.1,209.5,195.4,209.6z"/>
	<path class="st4" d="M213.9,306.4c-1.4-2.2-1.5-4.9-2.8-7.2c-1.6-2.6-2.7-5.1-3.2-8.1c0-0.2-0.2-0.3-0.3-0.3c0.3-1,0.5-1.9,0.6-2.9
		c0.5-3.1,0.4-6.2,1.1-9.3c0.1-0.3-0.1-0.5-0.3-0.6c0.6-1.7,1-3.4,1.2-5c0-0.1,0-0.1,0-0.2c0-0.1,0-0.1,0-0.2v-0.4
		c0.1-0.1,0.1-0.2,0.1-0.3c0-0.4-0.1-0.8-0.2-1.2c0.3-8.3-0.6-16.6-1.4-24.9c-0.7-8.1-2-16.3-2.1-24.5c0.1-0.1,0.1-0.2,0.1-0.3
		c0.2-5-1.2-10.5-1.8-15.5c-0.3-2.3-0.6-4.7-0.9-7c-0.4-2.7-1.3-5.2-1.4-7.9c0-0.2-0.1-0.3-0.2-0.4c-0.1-0.3-0.1-0.6-0.2-0.9
		c-0.1-0.6-0.9-0.4-1,0.1c-0.1,0.1-0.1,0.2-0.1,0.4c0.2,0.4,0.2,0.8,0.2,1.2c0,0.2,0.1,0.3,0.1,0.3c0,0.1,0,0.2,0,0.2
		c0,0.1,0,0.1,0.1,0.2c0.2,1.7,0.7,3.3,1.1,5.1c0.6,2.8,0.8,5.8,1.2,8.7c0.6,4.8,1.9,10.1,1.8,15c-0.1,0.1-0.1,0.2-0.1,0.3
		c0.1,8.3,1.4,16.6,2.1,24.9c0.8,8.5,1.7,17,1.4,25.5c0,0.1,0,0.1,0,0.2v1.1c0,0,0,0.1,0,0.1c0,0,0,0,0,0c-0.7,3.6-1.6,8-4.7,10.2
		c-2.9,2.1-6.8,2.4-10.1,3.6c-0.6,0.2-0.3,1.2,0.3,1c3.6-1.4,8-1.6,11-4.2c0.9-0.8,1.6-1.7,2.2-2.8c-0.3,2.1-0.3,4.2-0.6,6.3
		c-0.4,3.2-1.6,6.4-2.5,9.5c-0.2,0.6,0.8,0.9,1,0.3c0.4-1.4,0.9-2.8,1.3-4.2c0.7,3,2,5.3,3.5,8.1c0.9,1.7,1,3.6,1.8,5.4
		c0.3,0.7,1.1,1.4,1.3,2.1c0.6,1.9-1,1.9-2.5,2c-3.1,0.2-6.5,1.4-9.2,2.9c-1.8,1-3.3,2.4-5.5,1.8c-1.5-0.4-2.8-1.4-3.2-2.9
		c-0.2-0.7,0-1.8,0.2-2.9c0.4,1.2,0.9,2.3,1.5,3.5c0.3,0.6,1.1,0.1,0.9-0.5c-1-2.1-1.8-4-1.9-6.4c-0.1-1.6-0.1-2.8-0.6-4.3
		c-1-3.3-2.2-6.6-3.2-10c-1-3.5-2.1-6.9-3-10.4c-0.9-3.3-1-6.9-2.1-10.2c-0.1-0.2-0.2-0.3-0.3-0.3c-0.7-1.9-1.3-3.9-1.4-5.9
		c-0.1-2.1,0.3-4.2,0.3-6.4c0.1-4.1,0.2-8.5-0.2-12.6c-0.8-8.2-3.5-16.5-6.1-24.2c0-0.1,0-0.1,0-0.2c-0.9-2.5-1.8-5-2.7-7.5
		c-0.1-0.2-0.2-0.2-0.3-0.3c0.2-0.9,0.3-1.7,0.3-2.6c0.3,0.1,0.6-0.1,0.6-0.5c0.1-1.7,0.4-2.8,2.3-3.5c0.5-0.2,1-0.3,1.5-0.4
		c1.7-0.4,3.3-0.8,5-1.2c3.3-0.8,6.6-1.7,10.1-1.4c0.6,0,0.6-1,0-1c-4.7-0.4-9.4,1.2-13.9,2.3c-3.1,0.8-5.2,1.2-5.8,4.2
		c-0.1-0.4-0.3-0.8-0.5-1.1c-0.5-0.9-0.9-1.2-1.2-2c2.1-0.2,4.2-0.7,5-2.8c1.3-3.6-0.8-7.8,0-11.5c0.1-0.6-0.8-0.9-1-0.3
		c-0.5,2.1-0.2,4.2,0.1,6.4c0.2,1.3,0.5,2.8,0.2,4.2c-0.5,2.3-2.2,2.9-4.3,3.1c-0.1,0-0.1,0-0.2,0.1c-0.3-1.3-0.4-2.8-0.5-4.1
		l-0.9-7.7c-0.1-0.6-1.1-0.6-1,0c0.5,4,0.5,8.4,1.5,12.3c0.1,0.6,0.4,1.1,0.7,1.6c-5.3,0.1-10.7-2.1-15.8-0.1
		c-0.6,0.2-0.3,1.2,0.3,1c5-2,10.1,0.1,15.2,0.1c0.1,0,0.2,0.1,0.3,0.1c0.1,0,0.2,0,0.3-0.1c0,0,0,0,0,0c0.1,0,0.2-0.1,0.3-0.1
		c0.3,0.5,0.6,1,0.7,1.6c0,0-0.1,0-0.1,0c-5.3,1.5-10.5,3.4-15.6,5.7c-0.6,0.3-0.1,1.1,0.5,0.9c5-2.3,10.1-4.1,15.4-5.6c0,0,0,0,0,0
		c0.1,1.9-0.7,4.1-1.5,5.8c-0.1,0-0.2,0.1-0.3,0.3c-5,18.1-8,36.9-5.6,55.7c0,0,0,0.1,0,0.1c-0.7,8-5.4,15.5-8.7,22.7
		c-0.1,0.1-0.1,0.3-0.2,0.4c-0.2,0-0.3,0.2-0.3,0.5c0,0.1,0,0.1,0,0.2c-0.7,1.6-1.4,3.1-2.2,4.6c-0.7,1.3-1.6,2.5-2.2,3.8
		c-1.2,2.6,0.1,5.9,1.5,8.2c0,0,0.1,0.1,0.1,0.1c0,0.2,0.2,0.5,0.5,0.5c0.5,0,0.6-0.5,0.4-0.8c0-0.1,0-0.1-0.1-0.2
		c-1.2-1.8-2.4-4.5-1.7-6.7c0.5-1.7,2-3.4,2.8-5c0.4-0.8,0.8-1.7,1.2-2.5c0.3,2.1,0.6,4.3,0.8,6.4c0.2,2.8-1,5.2-2,7.8
		c-0.1,0.2,0,0.4,0.1,0.5c0,0,0,0.1,0,0.1c0.8,2.7-1.5,2.5-3.4,2.3c-1.9-0.2-3.9-0.6-5.8-0.8c-1.3-0.2-2.5-0.4-3.8-0.4
		c-2-0.1-4.2,0.4-5.9-1c-0.5-1.3-0.2-2.7,0.7-3.7c-0.2,0.6-0.3,1.2-0.5,1.8c-0.2,0.6,0.8,0.9,1,0.3c1-3.5,2-7.1,2.9-10.6
		c0.1,0.1,0.1,0.1,0.2,0.2c1,1,1.8,2.5,1.3,4c-0.3,0.8-1.5,1.7-2.1,2.3c-0.5,0.4,0.2,1.1,0.7,0.7c1.6-1.4,3.4-3.1,2.5-5.3
		c-0.5-1.2-1.4-2.1-2.4-2.9c0-0.2-0.2-0.4-0.5-0.4c-1.3-1.2-2.5-2.4-2.1-4.5c1.4-6.8,2.4-13.3,1.5-20.3c0-0.1,0-0.2,0-0.3
		c-1.6-5.5-0.8-11.1,0.2-16.6c0.7-4.2,1.5-8.4,2.8-12.5c0,0.7,0.1,1.3,0.1,2c0.3,3.7,0.4,7.2-1.4,10.6c-0.3,0.6,0.6,1.1,0.9,0.5
		c3.1-5.7,1.4-12.7,1-18.9c-0.5-7.2-1.1-14.5-1.6-21.7c0.1-0.1,0.1-0.2,0.1-0.4c-0.4-8.2-0.4-16.3,0.1-24.5c0-0.6-1-0.6-1,0
		c-0.5,7.9-0.6,15.9-0.2,23.8c-0.1,0.1-0.2,0.2-0.2,0.4c0.5,6.8,1,13.6,1.5,20.4c0.1,1.7,0.3,3.4,0.4,5.2c0,0-0.1,0.1-0.1,0.1
		c-1.8,5.4-2.9,11-3.8,16.5c-0.8,5.1-1.3,10.2,0.1,15.2c0,0,0,0,0,0.1c1,6.9-0.1,13.4-1.5,20.1c-0.3,1.6-0.4,2.8,0.8,4
		c0.5,0.5,1.1,1,1.6,1.5c-0.7,2.6-1.4,5.1-2.1,7.7c-0.1,0-0.2,0-0.3,0.1c-1.7,1.3-2.6,3.4-1.8,5.5c0,0.1,0,0.3,0.2,0.4
		c1.6,1.4,3.3,1.3,5.3,1.3c3.1,0,6,0.7,9.1,1.1c3.2,0.4,7.6,1.3,6.3-3.4c0-0.1-0.1-0.1-0.1-0.2c0.9-2.3,2.2-4.7,2.1-7.3
		c-0.1-2.9-0.7-5.8-1.1-8.7c0.9-2,1.9-4.1,2.8-6.1c2.8-6.1,6-11.7,6.4-18.4c0-0.2-0.1-0.3-0.2-0.4c-2.2-18.2,0.7-36.5,5.5-54.1
		c0.1,0,0.1-0.1,0.1-0.2c0.4-0.8,0.8-1.7,1.1-2.8c0.8,2.1,1.5,4.2,2.3,6.4c0,0,0,0.1,0,0.1c1.4,4.2,2.7,8.4,3.8,12.7
		c1.1,4.3,2.4,8.8,2.5,13.3c0.1,4.2,0.3,8.5,0.1,12.7c-0.2,4.2,0,7.5,1.5,11.5c0.1,0.1,0.1,0.2,0.3,0.3c0.9,3,1.1,6.3,1.9,9.4
		c1,3.8,2.1,7.6,3.3,11.3c1,3.4,2.6,6.8,3.3,10.2c0.3,1.4,0.2,2.8,0.3,4.2c-0.1,0.1-0.2,0.2-0.2,0.3c-0.6,4-1.2,7.5,3.4,8.6
		c2,0.5,3.3,0,5-1.1c2.4-1.5,5.1-2.6,7.9-3.2c1.9-0.4,4.5,0.4,5.7-1.6C215.7,308.4,214.6,307.6,213.9,306.4z"/>
	<path class="st4" d="M205.3,291.1c-1.5,0.7-3,1.6-4.3,2.7c-0.5,0.4,0.2,1.1,0.7,0.7c1.3-1,2.7-1.8,4.1-2.5
		C206.4,291.6,205.9,290.8,205.3,291.1z"/>
	<path class="st4" d="M211.2,304.1c-2.5-0.6-5.6-1.3-8.2-0.8c-2.3,0.4-4.1,2.8-5.7,4.4c-0.5,0.5,0.3,1.2,0.7,0.7
		c1.6-1.6,3.3-3.7,5.6-4.1c1.8-0.3,3.8,0.1,5.7,0.5c-0.6,0.2-1.2,0.3-1.9,0.4c-0.6,0.1-0.4,1.1,0.3,1c1.3-0.2,2.4-0.5,3.6-1.1
		C211.7,304.8,211.6,304.2,211.2,304.1z"/>
</g>
<g id="hands_colour">
	<path class="st5" d="M144.4,214.9c-0.3-0.2-0.6-0.3-0.9-0.5c-0.2-0.2-0.5-0.3-0.7-0.4c-0.2-0.1-0.3-0.1-0.5-0.2
		c-1.5-0.8-3-1.6-4.1-2.7c-0.7-1.6-1.3-3.1-1.9-4.8c0,0,0-0.1,0-0.1c0,0,0,0,0,0c0,0,0-0.1,0-0.1c0.6-1.2,1-2.4,1.3-3.8
		c0.9,1.7,1.8,3.4,2.6,5.1c0.3,0.9,0.6,1.8,0.9,2.7c0.1,0.3,0.3,0.4,0.5,0.3l0.2,0.3c0.1,0.2,0.2,0.2,0.4,0.2
		c0.1,0.1,0.1,0.3,0.2,0.4c0.2,0.5,1,0.1,0.9-0.4c0-0.1,0-0.1,0-0.2c0.1-0.1,0.2-0.2,0.2-0.3c0.2-0.1,0.4-0.3,0.3-0.6
		c-0.1-0.2-0.1-0.4-0.2-0.6c0.1-0.1,0.1-0.2,0.1-0.4c-0.4-1-0.8-2.1-1.2-3.1c-0.3-1.3-0.7-2.6-1.1-3.8c0-0.1,0-0.1,0-0.2
		c-0.2-1.8-0.8-3.6-1.6-5.2c-0.2-0.4-0.7-0.3-0.9,0c-0.3-0.4-0.6-0.7-1-1c-0.1-0.1-0.1-0.1-0.2-0.1c-0.1-0.1-0.1-0.3-0.2-0.4
		c-0.2-0.4-0.7-0.3-0.9,0.1c-0.1-0.1-0.1-0.3-0.2-0.4c-0.1-0.1-0.1-0.2-0.2-0.2c-0.3-0.5-0.6-1.1-0.9-1.6c0-0.5,0-0.9-0.1-1.4
		c0-0.1,0.1-0.1,0.1-0.2c0.2-3,0.3-5.9,0.3-8.9c0-0.4-0.2-0.6-0.4-0.8c0.1-1.2,0.2-2.4,0.3-3.7c0.2-0.7,0.3-1.4,0.5-2.1c0,0,0,0,0,0
		c0.5-1.7,0.9-3.5,1.4-5.2c0.1-0.4-0.3-0.6-0.6-0.6c-0.1-0.2-0.3-0.2-0.5-0.2c-0.2-0.2-0.5-0.3-0.7,0l-0.6,0.8
		c-0.1-0.2-0.3-0.3-0.5-0.3c-0.1-0.2-0.2-0.2-0.4-0.3c0-0.2,0.1-0.3,0.1-0.5c0.1-0.5-0.7-0.9-0.9-0.4c-0.1,0.2-0.2,0.4-0.3,0.6
		c-0.1-0.1-0.2-0.1-0.3-0.1c0-0.1,0-0.1,0-0.2c0-0.5-0.7-0.7-0.9-0.3c-0.1,0.2-0.1,0.3-0.2,0.5c-0.1-0.1-0.2-0.1-0.3-0.1
		c-0.2-0.3-0.7-0.3-0.9,0c0,0,0,0,0,0c-0.2-0.1-0.4-0.3-0.6-0.3c-0.5,0-0.9-0.1-1.4-0.1c-0.2-0.1-0.4-0.1-0.6,0
		c-0.7,0.1-1.3,0.2-1.9,0.5c-0.6,0.3-0.6,0.8-0.4,1.2c0.2,5.4,0.8,10.7,1.4,16c0.3,2.9,0.9,5.6,1.4,8.4c0.8,4,0.2,7.7,0.6,11.6
		c0,0,0,0.1,0,0.1c-0.3,0.4-0.3,0.8,0.1,1.2c1.2,0.9,2.4,1.9,3.5,2.8c0,0,0,0,0,0c0.1,0.1,0.2,0.2,0.3,0.2c0.4,0.3,0.9,0.7,1.3,1
		c0,0,0,0,0,0c0.7,0.5,1.3,0.9,2,1.3c0.2,0.3,0.5,0.5,0.7,0.7c0.1,0.1,0.3,0.1,0.4,0.1c0,0.1,0.1,0.1,0.1,0.2
		c0.2,0.2,0.4,0.2,0.5,0.1c0.1,0.1,0.2,0.1,0.3,0.2c0.1,0.1,0.2,0.1,0.3,0.1c0.1,0.1,0.3,0.2,0.4,0.3c0.2,0.1,0.3,0.1,0.5,0
		c1.3,0.5,2.7,1,4.1,1.2C144.7,217,145.5,215.5,144.4,214.9z"/>
	<path class="st5" d="M219.8,160.9c-0.6,0-1.3,0-1.9,0c-0.3,0-0.6,0-1,0c-0.1,0-0.6,0.1-0.7,0c-0.5-0.4-1.1-0.1-1.3,0.4
		c-2-0.1-3.9,0-5.9,0.3c-0.5-0.9-2.1-0.4-1.8,0.8c1.1,4.8,1.8,9.6,2.1,14.5c0.1,1.3,0.2,2.6,0.3,3.9c-0.1,1.6-0.2,3.3-0.2,4.9
		c-0.3,1.3-0.7,2.6-1.6,3.7c-0.7,0.9-1.4,1.7-2,2.5c-0.2,0-0.3,0-0.4,0.3c-0.1,0.3-0.3,0.7-0.4,1c-0.4,0.7-0.8,1.5-1.1,2.4
		c-0.8,2.6-1.8,5.5-2.5,8.3c-0.2,0.4-0.3,0.8-0.3,1.2c0,0.2-0.1,0.4-0.1,0.6c-0.2,1,0.9,1.6,1.7,1c0.6-0.5,1.2-1.1,1.7-1.7
		c0.1,0,0.3-0.1,0.3-0.3c0-0.1,0.1-0.2,0.1-0.2c1.5-2,2.5-4.3,3.3-6.6c0.1,0.2,0.3,0.3,0.5,0.5c0.2,0.3,0.3,0.6,0.5,0.9
		c0.1,0.5,0.4,0.8,0.8,1.1c-0.5,0.9-0.3,2.2,0.2,3.5c-0.6,1.1-0.7,2.5-1.4,3.6c-0.9,1.4-2.1,2.8-3.5,3.8c-0.3,0.2-0.3,0.5-0.1,0.7
		c0,0,0,0,0,0c-0.5,0.4,0,1.2,0.5,0.9c0,0,0,0,0,0c0.1,0.1,0.2,0.1,0.3,0c3.3-1.3,5.6-3.7,7.2-6.7c-0.3,0.7-0.6,1.3-1,1.9
		c-0.2,0.3-0.5,0.7-0.7,1c-0.1,0.2-0.3,0.3-0.4,0.5c-1.4,1.6-3.1,3-5,3.8c-0.2-0.2-0.5-0.3-0.7-0.1c-0.3,0.2-0.5,0.4-0.8,0.7
		c-0.4,0.3,0,1,0.5,0.8c1.6-0.4,2.9-1.2,4.2-2.1c0.1,0.3,0.4,0.4,0.7,0.3c1.5-1,2.7-2.3,3.6-3.7c0,0.3,0.3,0.6,0.6,0.5
		c0.2,0.1,0.5,0.1,0.7-0.2c1-1.8,1.7-3.8,2.2-5.8c0-0.2,0-0.4-0.2-0.5c0.1-0.1,0.2-0.2,0.2-0.4c0-0.3,0-0.6,0-0.8
		c0.2,0,0.5-0.2,0.5-0.5c-0.1-1.9-0.2-3.8-0.1-5.7c0-0.1,0-0.1,0-0.2c0,0,0-0.1,0-0.1c0-0.3-0.3-0.5-0.5-0.5c0-2.1,0-4.2,0-6.3
		c0,0,0.1-0.1,0.1-0.1c0.3-1.3,0.6-2.5,0.9-3.8c0.1-0.3-0.2-0.6-0.4-0.6c1.5-6.7,2.7-13.5,3-20.4c0,0,0,0,0-0.1
		c0.2-0.2,0.2-0.5,0.1-0.7C221.1,162.3,220.9,160.9,219.8,160.9z"/>
</g>
<g id="hands_drawing">
	<path class="st6" d="M141.8,212.8C141.8,212.8,141.8,212.8,141.8,212.8c0.1-0.3,0.2-0.4,0.2-0.6c0.6,0.4,1.4,0.5,2.3,0.2
		c1.2-0.5,0.8-1.4,0.5-2.4c-0.9-3-1.8-5.9-2.7-8.9c-0.5-1.7-0.8-3.8-2.2-5c-1.2-1-2.4-1-3.2-2.4c-0.7-1.4-0.6-3-0.6-4.6
		c-0.1-6.3,0.2-12.5,2.2-18.5c0.2-0.6-0.8-0.9-1-0.3c-1.5,4.5-2.1,9.1-2.2,13.8c-0.1,2.4-0.1,4.8,0,7.1c0.1,1.4,0.2,2.9,1.2,3.9
		c0.5,0.5,1.2,0.7,1.8,1.1c1.4,0.8,2,1.9,2.4,3.3c0.7,2.4,1.5,4.8,2.2,7.1c0.3,0.8,0.7,1.8,0.9,2.7c0,0-0.1,0-0.1,0
		c-0.5-0.1-0.9,0.1-1,0.6c-0.1,0.2,0,0.3,0,0.4c0,0.1,0,0.1,0,0.2c0,0.2,0.1,0.3,0.1,0.5c0,0,0,0.1,0,0.1c-0.5-0.2-0.8-0.5-1.1-0.9
		c-0.5-0.6-0.7-1.3-1-2c-0.5-1.6-0.9-3-1.9-4.3c0-0.1,0.1-0.1,0.1-0.2v-0.2c0,0,0,0,0,0c0-0.1,0-0.1,0-0.2c0,0,0-0.1-0.1-0.1
		c0,0,0,0,0-0.1c-0.1-0.1-0.1-0.1-0.2-0.2c-0.1-0.1-0.2-0.1-0.3-0.1c0-0.2,0-0.3,0-0.5c0-0.6-1-0.6-1,0c0.2,2.6-2,3.9-0.8,6.2
		c0.2,0.4,0.4,0.7,0.6,1.1c-0.1,0-0.1,0.1-0.2,0.1c-0.4,0.4,0.2,1.1,0.6,0.8c0.5,0.9,1,1.7,1.8,2.2c0,0.1,0,0.2,0,0.3
		c0,0.5,0.7,0.6,0.9,0.2c1.1,0.4,2.5,0.8,3.3,1.6c0.7,0.3,0.9,0.9,0.4,1.8c-0.5-0.1-1-0.2-1.5-0.3c-0.8-0.2-1.6-0.7-2.4-0.9
		c-1.8-0.6-3.2-1.1-4.5-2.6c-1.1-1.2-1.9-2.7-2.9-3.9c-0.4-0.5-1.1,0.2-0.7,0.7c0.3,0.4,0.6,0.8,0.9,1.2c-0.4-0.3-0.7-0.6-1.1-0.9
		c-2.1-1.7-2.2-3.6-2-6c0.2-3.5,0-6.7-0.8-10.1c-1.8-7.8-2.4-15.8-2.8-23.8c0-0.6-1-0.6-1,0c0.4,8.4,1.1,16.7,3,24.9
		c0.5,2.2,0.7,4.4,0.7,6.7c-0.1,1.9-0.5,4-0.2,5.8c0.6,2.9,4.6,5,6.7,6.8c0.1,0.1,0.2,0.1,0.2,0.1c0.1,0.1,0.3,0.3,0.4,0.4
		c1.2,1,2.4,1.2,3.8,1.7c1.1,0.4,5.3,2.6,5.8,0.3C145.9,214.7,143.5,213.6,141.8,212.8z M138.6,209.7c-0.2-0.1-0.4,0-0.5,0.2
		c-0.7-1.1-1.3-2.2-1.2-3c0.1-0.5,0.9-1.5,1.1-2.2c0,0,0-0.1,0-0.1c0.7,1.1,1.3,3.7,2.4,5.7C139.8,210,139.2,209.9,138.6,209.7z"/>
	<path class="st6" d="M220.1,161.4c-0.3,3.9-0.3,7.9-1,11.8c-0.5,2.8-1.3,5.6-1.7,8.4c-0.1,0.1-0.2,0.2-0.2,0.4c0,0.3,0,0.5,0,0.8
		c0,0.2-0.1,0.5-0.1,0.7c0,0.1,0,0.2,0,0.2c-0.1,1.9-0.5,3.7-0.8,5.6c-0.3,2.2,0,4.5,0.3,6.7c0.4,3.7,0.6,10.1-2.5,13.1
		c0.9-1.6,1.4-3.4,2-5.1c-0.1,0-0.3,0-0.5-0.1c-0.1-0.1-0.3-0.1-0.4-0.1c0,0-0.1,0-0.1-0.1c-0.9,2.4-1.5,4.9-3.4,6.7
		c-0.9,0.8-1.9,1.5-2.9,2.2c-0.5,0.3-1.1,0.7-1.6,1c-0.3,0.2-2.7,0.9-2.4,0.6c0.1-0.1,0.1-0.3,0.1-0.4c0.5-0.1,1.1-0.2,1.6-0.5
		c3.1-1.3,5.5-3.8,6.9-6.9c0.4-0.9,0.8-1.9,1.3-2.9c-0.3,0-0.6-0.1-0.9-0.3c-0.4,0.7-0.7,1.4-0.9,2c-1,2.6-2.7,4.8-5.1,6.3
		c-0.5,0.3-1.1,0.7-1.6,0.8c-1.1,0.2-1.1-0.3-0.6-1.2c0.5-0.9,1.7-1.6,2.5-2.3c1.8-1.4,1.7-2.7,2.5-4.6c0.1,0.1,0.2,0.2,0.3,0.2
		c0.6,0.3,1.1-0.6,0.5-0.9c-1-0.5-1.1-1.6-1-2.6c0,0,0-0.1,0-0.1c0.3,0,0.7,0,1-0.1c0.6-0.1,0.4-1.1-0.3-1c-0.3,0-0.5,0.1-0.7,0
		c0,0,0,0,0,0c-0.4-0.1-0.7-0.4-0.9-0.7c-0.1,0-0.1-0.1-0.2-0.2c-0.3-0.3-0.6-0.7-0.7-1.2c0,0,0-0.1,0-0.1c0,0,0,0-0.1,0
		c0.3-0.8,0.6-1.5,0.7-2.4c0.1-0.6-0.9-0.6-1,0c-0.2,1.5-1,2.3-1.6,3.6c-0.6,1.4-0.6,2.8-1.4,4.2c-0.1,0.2-0.2,0.3-0.3,0.4
		c-0.2,0.3-0.4,0.6-0.6,0.9c-0.3,0.4-0.7,0.9-1.2,1.2c0.1-0.1,0.1-0.1,0.1-0.2c0.5-0.2,0.4-1-0.2-1h0c-0.1-0.1-0.2-0.2-0.4-0.2
		c0,0,0,0-0.1,0c-0.1-0.1-0.2-0.1-0.3-0.1c-0.1-0.1-0.2-0.1-0.3-0.1c0,0,0,0,0,0c-0.4,0-0.5,0.3-0.4,0.6c-0.1,0.1-0.1,0.3-0.1,0.4
		c0,0.1,0,0.1,0,0.2c0,0,0,0.1,0,0.1c0,0.1,0,0.2,0,0.3c-0.4-0.6,0.2-2.2,0.5-2.9c0.2-0.7,0.5-1.4,0.7-1.9c0.8-2.2,1.3-4.3,1.9-6.5
		c0.7-2.4,3.4-4.1,5-6c0.2-0.3,0.1-0.7-0.2-0.8c0.3-4,0.7-8,0.3-12c-0.4-4.5-1.7-8.9-2.2-13.4c-0.1-0.6-1.1-0.6-1,0
		c0.5,4.5,1.8,8.9,2.2,13.4c0.4,4.2-0.1,8.4-0.4,12.6c0,0,0,0,0,0.1c-1.3,1.3-2.8,2.4-3.9,3.8c-0.8,1-0.9,2.3-1.2,3.5
		c-0.5,2.4-1.5,4.6-2.3,6.9c-0.3,1.1-1.1,2.8-0.5,3.9c1.1,2,3.8-0.5,4.7-1.6c1-1.2,1.4-2.5,1.8-3.9c0.2-0.6,0.4-1.2,0.7-1.7
		c0.3,0.6,0.7,1.2,1.2,1.6c0.1,0.1,0.2,0.1,0.3,0.1c0,0,0,0,0,0.1c-0.2,0.9-0.1,1.9,0.4,2.7c-0.9,1.9-1.1,3.5-2.8,4.9
		c-1.1,0.9-2.7,2.1-3.2,3.5c-0.3,0.9-0.2,1.4,0.2,1.6c-0.4,0.6-0.4,1.3,0.3,1.7c1.3,0.8,3.5-0.9,4.5-1.5c1.4-0.9,3-1.9,4.2-3.1
		c0.1,0.1,0.4,0.2,0.6,0.1c3.7-1.9,4.5-7.5,4.5-11.3c0-2.8-0.7-5.7-0.6-8.5c0.1-2.9,0.9-5.4,0.9-8.3c0.4-3.5,1.5-6.9,2-10.4
		c0.5-3.6,0.6-7.4,0.9-11C221.2,160.7,220.2,160.7,220.1,161.4z"/>
</g>
<g id="facde_colour">
	<path class="st7" d="M170.1,72c-0.7-0.5-2-0.2-2.8-0.1c-1.4,0.1-2.8,0.1-4.1,0.2c-0.6,0-0.6,1,0,1c0,0,0,0,0,0
		c2.3,1,4.7,0.9,6.9-0.2C170.5,72.7,170.4,72.2,170.1,72z"/>
	<path class="st8" d="M178.5,84.1c-0.1,0-0.2,0-0.3,0.1c-0.1,0-0.2,0-0.4,0c-0.1-0.8-0.2-1.6-0.3-2.3c0-0.2-0.1-0.3-0.2-0.4
		c-0.1-1-0.1-2-0.1-3.1c0-0.6-0.8-0.6-1-0.1c-0.7,1.8-2,3.1-3.5,4c-1.2,0.5-2.3,1-3.5,1.3c-1.6,0.3-3.3,0.3-4.9,0.1
		c0-0.4-0.1-0.8-0.1-1.2c0.9,0.2,1.8,0.3,2.7,0.2c8.3-0.8,11.1-9.3,10.4-16.5c0.1-0.1,0.1-0.2,0.1-0.3c0-0.1,0-0.2,0-0.3
		c-0.1-0.4-0.2-0.8-0.4-1.3c0-0.1,0-0.1,0-0.2c-0.7-3.9-2.3-7.8-4.8-10.8c-1.2-1.5-2.4-2.4-3.7-2.9c-0.1-0.2-0.2-0.3-0.4-0.3
		c-0.1,0-0.1,0-0.2,0c0,0,0,0,0,0c0.3-0.3,0.1-0.9-0.4-0.9c-2.9-0.1-5.7,0.4-8.4,1.6c-0.5,0.2-0.2,1,0.3,0.9c-0.1,0-0.1,0-0.2,0
		c-0.3,0.1-0.4,0.3-0.3,0.5c-4,2.9-6.5,8-6.1,12.9c-0.4,0.7-0.6,1.5-0.4,2.4c0.5,2.9,2.1,6.6,4.5,9.6c-0.2,0.4-0.3,0.8-0.3,1.3
		c0,1.2,0.2,2.4,0.4,3.5c0.2,1.3,0.2,2.6,0.4,3.9c0,0.1,0,0.2,0,0.2c-0.1,0.1-0.2,0.3-0.1,0.5c0,0,0,0.1,0.1,0.1l0,0c0,0,0,0,0,0
		c0.1,0.3,0.3,0.6,0.5,0.8c0.3,0.5,0.6,0.9,1,1.2c0,0.2,0.1,0.4,0.1,0.6c0.1,0.6,0.8,0.4,0.9-0.1c0.3,0.1,0.6,0.1,0.9,0.1
		c0,0,0,0,0,0c0.8,0.2,1.5,0.3,2.1,0.4c1.9,0.3,3.9,0.2,5.8-0.2c0.6-0.1,1.3-0.2,2.1-0.4c0.1,0.1,0.3,0.2,0.4,0.1
		c2.5-0.6,7.8-1.6,7.7-4.9C179.1,84.2,178.8,84,178.5,84.1z"/>
	<path class="st9" d="M169.7,71.6c-2.4,0.4-4.7,0-7.1,0.1c-1.3,0.1-1.3,2.1,0,2c0.3,0,0.6,0,0.9,0c0.1,0,0.2,0,0.2,0
		c0.2,0,0.4,0,0.6,0c2,0.2,4.1,0.8,5.9-0.2c0,0,0.1-0.1,0.1-0.1C171.5,73.2,171,71.4,169.7,71.6z"/>
</g>
<g id="face_drawing">
	<path class="st6" d="M178.8,83.9c-0.1-0.1-0.2-0.2-0.3-0.2c-0.4-2.6-0.6-5.3-0.7-8c0,0,0,0,0,0c0.3-2,0.2-4.1,0.2-5.8
		c0-0.6-1-0.6-1,0c0,3,0.1,6.2-1.3,8.9c-1.3,2.4-4.6,3.9-7.2,4.3c-4.4,0.8-8.4-1.5-11.1-4.9c-0.1-0.6-0.3-1.2-0.4-1.8
		c0-0.2-0.2-0.3-0.4-0.4c-0.1-0.3-0.1-0.6-0.2-0.9c-0.1-0.5-0.7-0.4-0.9,0c-0.3-0.6-0.6-1.2-0.7-1.9c-0.2-0.6-1.2-0.4-1,0.3
		c0.5,1.5,1.2,3,2.1,4.3c0.1,0.4,0.3,0.9,0.4,1.3c0,0,0,0,0,0c0.7,2.1,0.9,4.2,0.8,6.3c0,0,0,0,0,0c0,0,0,0,0,0c0,0.2,0,0.4,0,0.6
		c0,0.1,0,0.2,0,0.2c0,0.8,0.1,1.7,0.3,2.5c0.1,0.6,1.1,0.4,1-0.3c-0.2-1-0.3-2-0.3-3c0.1-1.5-0.1-3.1-0.4-4.6
		c0-0.1,0.1-0.2,0.1-0.3c0-0.2-0.1-0.3-0.1-0.5c0,0,0-0.1,0-0.1c2.6,2.7,6.2,4.4,10.1,4c2.9-0.3,6.6-1.8,8.3-4.2
		c0.3-0.4,0.5-0.8,0.7-1.2c0.1,1.8,0.3,3.6,0.6,5.5c0,0.3,0.2,0.4,0.4,0.4c0.3,0.6,0.3,1.2,0.1,1.9c-0.2,0.6,0.7,0.9,1,0.3
		C179.4,85.8,179.3,84.7,178.8,83.9z"/>
	<g>
		<g>
			<path class="st10" d="M133.8,67.8"/>
		</g>
	</g>
	<g>
		<g>
			<path class="st10" d="M133.8,67.8"/>
		</g>
	</g>
	<path class="st6" d="M169.4,66.8c-0.3-0.1-0.7-0.1-1,0c0,0-0.1,0-0.1,0c0,0,0,0,0,0c0.1-0.6-0.9-0.6-1,0c-0.1,0.5-0.8,0.6-1.2,0.7
		c-0.4,0-0.8-0.1-1.1-0.4c0,0-0.1,0-0.1-0.1c0,0,0-0.1,0-0.1c-0.1-0.2-0.2-0.3-0.4-0.3h0c-0.3,0-0.5,0.2-0.5,0.5
		c-0.4,0-0.8,0-1.1,0.1c-0.6,0.2-0.3,1.2,0.3,1c0.3-0.1,0.5-0.1,0.8-0.1c0.2,0,0.4-0.1,0.5-0.2c1,1,3.1,0.8,3.7-0.4
		c0.1,0.2,0.3,0.3,0.6,0.3c0.2,0,0.3,0,0.5,0C169.8,67.9,170,66.9,169.4,66.8z"/>
	<path class="st6" d="M172.7,71.3c-3.8-1.5-7.7-1.1-11.5,0.1c-0.2,0-0.2,0.1-0.3,0.2c-0.4,0.1-0.6,0.5-0.3,0.8l0.1,0c0,0,0,0,0.1,0
		c0.1,0.1,0.3,0.2,0.5,0.1c-0.1,0.2,0,0.4,0.2,0.6c0.1,0,0.1,0.1,0.2,0.1c2.2,3.7,8.8,3.1,10.2-0.7c0-0.1,0-0.2,0-0.3
		c0.2,0,0.3,0,0.5,0c0.3,0,0.5-0.1,0.5-0.3C173.1,71.8,173.1,71.5,172.7,71.3z M169.9,72.2c0,0.2-0.1,0.3-0.1,0.5
		c-1.3,1-3.7,1-5.3,0.7c-0.8-0.3-1.5-0.6-2.1-0.9C164.9,72.2,167.4,72.1,169.9,72.2z"/>
	<path class="st6" d="M170.7,86.2c-1.2,0.9-2.6,1.1-4,0.6c-0.6-0.2-0.9,0.7-0.3,1c1.6,0.6,3.4,0.3,4.7-0.7
		C171.7,86.6,171.2,85.8,170.7,86.2z"/>
</g>
<g id="beard">
	<path class="st11" d="M177.9,65.9c0-0.2-0.1-0.3-0.2-0.4c-0.2-0.4-1-0.4-0.9,0.2c0.3,3.4,0.3,7.4-2.6,9.7c-0.2-2.7-0.1-5.3-3-6.4
		c-1-0.4-2.6-0.8-3.7-0.6c-0.3,0.1-0.5,0.2-0.7,0.3c-0.5,0.2-0.4,0.3-1,0.1c0,0-0.1,0-0.1,0c-0.2-0.2-0.5-0.3-0.9-0.2
		c-1.2,0.1-2.7,0.8-3.9,1.3c-2,0.9-2.3,3.4-2.6,5.4c-1.6-1.1-2.7-2.7-3.2-4.6c-0.1-0.3-0.1-0.6-0.2-0.9c0,0,0-0.1,0-0.1
		c-0.1-0.5-0.1-1-0.2-1.5c0-0.3-0.2-0.4-0.4-0.5c-0.3-0.2-0.8-0.1-0.9,0.4c0,0.1,0,0.3,0,0.4c-0.1,0.1-0.1,0.2-0.1,0.3
		c0.1,1.3,0.3,2.5,0.6,3.6c-0.1,0.1-0.2,0.3-0.1,0.5c1.6,5.2,6.1,11.1,11.9,11.5c5.4,0.4,11.3-2.8,12-8.3
		C178.3,72.8,178.2,69,177.9,65.9z M171.8,76.5c-0.6,0.4-1.5,0.7-2.3,0.8c0.5-0.3,1-0.6,1.5-1c0.3-0.2,0.2-0.6-0.1-0.7
		c-0.1-0.2-0.3-0.5-0.6-0.4c-0.7,0.1-1.3,0.3-1.9,0.5c-0.1,0-0.1,0.1-0.2,0.1c-1.5,0.4-3.2,0.2-4.7-0.1c-0.4-0.1-0.6,0.3-0.6,0.5
		c-0.1,0.2-0.1,0.5,0.2,0.7c0,0,0,0,0,0c0,0,0,0.1,0.1,0.1c0.4,0.4,0.9,0.5,1.5,0.6c-1.1,0.8-2.7-0.3-3.2-1.3
		c-0.4-0.8-0.9-1.3-1.6-1.8c0.1-1,0.3-2,1-2.7c1.4-0.7,2.9-1.2,4.3-1.7c0.1,0,0.3,0,0.4-0.1c0.1,0,0.1,0,0.1-0.1
		c0.2,0.1,0.4,0.2,0.7,0.1c0.2,0,0.3-0.1,0.4-0.2c0,0,0,0,0,0c1.4,0.3,3.8,0.5,4.8,1.5c0.7,0.7,0.9,2,1,3.2
		C172.7,75.4,172.4,76,171.8,76.5z"/>
	<path class="st11" d="M172.9,56.1c-0.1,0-0.1,0-0.2,0c0.3-0.3,0.2-0.9-0.3-0.9c0,0-0.1,0-0.1,0c-0.1-0.1-0.2-0.2-0.4-0.1
		c-1.1,0.1-2.1,0.2-3.2,0.4c-0.1,0-0.2,0.1-0.2,0.1c0,0-0.1,0-0.1,0c-0.7,0.4-2,2.1-0.6,2.6c0.6,0.2,1.4-0.3,2-0.6
		c1-0.4,2-0.6,3.1-0.6C173.6,57.1,173.6,56.1,172.9,56.1z"/>
	<path class="st11" d="M162.4,56.6c-0.2-0.1-0.3-0.1-0.5,0c-0.7-0.5-1.7-0.6-2.5-0.7c-1.1-0.1-2.1,0.3-2.9,1
		c-0.3,0.3-0.1,0.7,0.2,0.8c0,0,0,0-0.1,0c-0.3,0.1-0.3,0.5-0.1,0.7c0,0.3,0.3,0.7,0.7,0.5c1.4-0.8,3.1-0.7,4.6-0.5
		c0.2,0,0.3,0,0.5-0.2c0.1,0,0.3-0.1,0.4-0.2C163,57.5,162.9,57,162.4,56.6z"/>
</g>
<g id="sweater_colour">
	<path class="st12" d="M219.7,151.6c0-0.1,0.1-0.3,0.1-0.4c0.1,0,0.3-0.1,0.4-0.3c0.6-0.8,1.3-1.6,1.3-2.7c0-1-0.6-1.9-1.3-2.6
		c-0.1-0.1-0.2-0.1-0.2-0.2c-0.3-3.8-1.3-7.4-2.5-11.1c0.4-0.2,0.6-0.6,0.5-1.1c-0.2-0.9-0.5-1.9-0.8-2.8c-0.1-0.3-0.2-0.5-0.4-0.6
		c0.2-0.2,0.3-0.5,0.2-0.8c-0.3-1.3-0.6-2.5-1.1-3.7c-0.5-1.2-1-2.4-1-3.7c0,0,0-0.1,0-0.1c0-0.1,0-0.2,0-0.3
		c-0.3-2.9-1-5.8-1.9-8.7c0.2-0.2,0.3-0.4,0.2-0.7c-0.3-3.1-0.8-6-1.9-8.9c-0.9-2.2-1.5-5.2-3.9-6.1c-0.1,0-0.2,0-0.3-0.1
		c-0.6-0.7-1.3-1.3-2.1-1.7c0,0,0,0-0.1,0c-1.7-1.4-3.7-2.4-5.5-3.4c-3.9-2.2-8-3.6-12.3-4.9c-0.2,0-0.3-0.1-0.4,0
		c-0.3-0.1-0.6-0.2-0.9-0.3c-0.6-0.2-1.1-0.6-1.7-0.7c-0.2,0-0.4,0-0.6,0.1c-0.3-0.8-0.8-1.6-1.8-2.2c-1.1-0.7-2.1,1-1,1.7
		c0.2,0.1,0.4,0.3,0.5,0.4c-0.1,0.1-0.1,0.2-0.2,0.4c-1,6.1-8.3,8.8-14.1,10.3c-1.7-0.1-3.3-0.4-4.9-0.9c-1.4-0.5-3.1-1.3-4.5-2.4
		c-0.4-0.7-0.9-1.2-1.6-1.6c-0.2-0.3-0.3-0.5-0.5-0.8c0.1-0.5-0.1-1.1-0.4-1.5c0-0.4,0-0.7,0.1-1.1c0.3-1.3-1.7-1.8-1.9-0.5
		c0,0.2,0,0.3-0.1,0.5c-0.5-0.1-1,0-1.5,0.2c-0.6,0.3-1.2,0.6-1.9,0.9c-0.4,0.2-0.7,0.4-0.9,0.7c-0.5,0.2-1,0.5-1.5,0.7
		c-1.6,0.8-3.1,1.6-4.6,2.4c-3.1,1.7-6.1,3.5-9,5.3c-1,0.6-1.3,1.5-1.1,2.4c-3,4.2-4.9,10.1-3.7,15.2c-0.2,1.7-0.3,3.4-0.5,5.2
		c-0.5,0.7-0.7,1.5-0.5,2.2c-0.4,1.1-0.6,2.1-0.7,3.2c-0.2,0.2-0.3,0.5-0.4,0.8c-0.6,2-0.9,3.8-0.9,5.8c-0.3,1.6-0.6,3.1-0.8,4.8
		c-0.3,3.4-0.9,6.7-1.2,10c-0.2,2.4-0.9,7.3,0.2,10.4c-0.4,0.6-0.5,1.3-0.3,2c0,0.1,0.1,0.3,0.2,0.4c-0.1,0.2-0.2,0.4-0.3,0.7
		c-0.2,0.6-0.3,1.3-0.3,1.9c-0.1,1.5,0,2.9-0.3,4.4c-0.4,1.8,1.2,3.6,3.1,3.1c2.1-0.6,3.9-1,6-0.6c1.4,0.3,3,0.4,4.4,0
		c2.7-0.8,2.8-3.9,2.8-6.6c0.1-0.4,0.2-0.8,0.3-1.2c-0.1-0.1-0.2-0.2-0.2-0.4c0-1.6-1.2-4.2,0.4-5.4c0.1,0,0.1-0.1,0.2-0.1
		c-0.2-0.1-0.4-0.3-0.3-0.6c0.1-0.7,0.1-1.4,0.3-2.1c0-0.2,0.1-0.3,0.3-0.3c0.1-2.2,0.3-4.4,0.5-6.6c0,0,0-0.1,0-0.1
		c0.5-2.2,1.2-4.4,1.9-6.6c0.1,1.7,0.2,3.4,0.2,5.1c-0.1,4.8-0.6,9.8-0.4,14.6c-0.7,0.4-1.3,1-1.4,2.1c-0.4,4.9-2.3,9.5-1.4,14.4
		c0.5,2.9,1,5.4,0.9,8.3c-0.1,1.9-0.5,3.9-0.1,5.7c0.2,0.8,0.9,1.5,1.7,1.7c2.4,0.6,5.1,1.1,7.6,0.5c0.4,0.1,0.8,0.1,1.2,0.1
		c2.7,0.1,5.3,0.1,8,0.1c10.3-0.1,20.6-0.7,30.8-2c0.3,0.2,0.6,0.3,1,0.1c0.3-0.1,0.6-0.3,0.9-0.4c0.4,0.3,1.1,0.3,1.5-0.2
		c0.5-0.8,5.5-0.5,6.8-0.8c1-0.2,1.7-0.3,2.1-1.3c0.5-1.3-1.2-4.5-1.5-5.7c-0.1-0.5-0.3-1-0.4-1.5c0.1-0.6-0.2-1.2-0.4-1.8
		c-0.1-0.5-0.2-1-0.3-1.6c-0.1-1,0-2-0.2-3c0.2-0.2,0.4-0.4,0.4-0.7c0.1-0.4,0.1-0.9,0.2-1.3c0,0,0,0,0,0c0-0.3,0.1-0.6,0.2-0.9
		c0-0.2,0-0.3,0-0.4c0.2-0.2,0.3-0.4,0.3-0.6c0-1.2,0-2.3-0.1-3.5c0-0.1,0-0.2-0.1-0.2c0.1-0.9,0-1.9,0-2.9
		c-0.1-2.6-0.3-5.2-0.7-7.8c0,0,0-0.1,0-0.1c0.9-5-0.3-10.5-0.2-15.6c0.1-2.7-0.1-5.3-0.4-8c-0.1-1.1-0.1-2.1-0.1-3.2
		c0-0.2,0-0.4,0-0.5c0.4,1.6,1,3.2,1.5,4.8c0,0,0,0,0,0c-0.6,2-0.5,4,0.4,5.9c0.4,0.8,0.8,1.5,1.6,1.9c0.1,0.1,0.2,0.1,0.3,0.2
		c0,0,0,0,0,0.1c-0.1,0.2-0.2,0.4-0.2,0.6c-0.2,0.7-0.3,1.4-0.1,2.1c0.2,0.9,1.1,1.1,1.9,1.1c0,1.5,0.5,2.9,1.3,4
		c0,0,0.1,0.1,0.1,0.1c0,0.1,0,0.3,0,0.4c-0.2,1.6,0.2,2.9,0.8,3.9c-0.6,1.9,0,4.3-0.3,6.3c-0.1,0.5,0.5,1,1,1
		c2.2-0.1,4.2-0.8,6.4-0.8c1.7,0,4.1,0.7,5.7,0c2.6-1.1,1.6-6.2,1.1-8.3C220.6,151.9,220.2,151.6,219.7,151.6z"/>
	<path class="st13" d="M199.2,116.8c0.1-0.2,0.1-0.4,0-0.7c0.2-0.2,0.3-0.6,0-0.8c-0.1-0.2-0.2-0.3-0.5-0.3
		c-18.8-0.4-37.8-1.3-56.6,0c-0.1,0-0.2-0.1-0.3,0c-0.7,0.2-1.4,0.2-2,0.1c-0.6-0.1-0.6,0.7-0.2,0.9c0,0,0,0.1,0,0.1
		c0,0.1,0.1,0.2,0.1,0.4c0,0.1,0,0.1,0.1,0.2c0.1,0.3,0.3,0.6,0.5,0.9c0,0.2,0.1,0.5,0.4,0.5c0,0,0.1,0.1,0.1,0.1
		c0.3,0.3,0.6,0.1,0.8-0.1c11.4-0.3,22.9-0.6,34.3-0.5c5.8,0,11.5,0.2,17.3,0.4c0.6,0,3.1,0.2,4.7-0.2c0.3,0,0.7,0.1,1,0.1
		C199.5,117.8,199.6,117.1,199.2,116.8z"/>
	<path class="st13" d="M180,85.9c0.2-0.6,0.1-1.2-0.4-1.9c0,0,0,0,0,0c0.2-0.1,0.2-0.3,0.2-0.5c0-0.2,0-0.5-0.3-0.5
		c-0.2,0-0.4-0.1-0.6-0.1c-0.4-0.1-0.7,0.3-0.6,0.6c-0.1,0.2,0,0.4,0.1,0.5c3.2,3.8-8.9,5.3-10.4,5.5c-2.6,0.3-11,0.6-10.8-3.8
		c0.1-0.3,0-0.7-0.4-0.7c-0.2,0-0.3,0.1-0.4,0.2c-0.2,0.1-0.4,0.2-0.4,0.5c-0.1,0.1-0.2,0.1-0.2,0.3c0,0,0,0.1,0,0.1c0,0,0,0,0,0
		c0,0,0,0,0,0.1c0,0.1,0,0.1,0,0.2c-0.1,0.1-0.1,0.1-0.1,0.2c-0.4,1.1-0.1,2.8,0.2,4c0.3,1.3,1.5,2.2,2.5,2.9c0.2,0.1,0.4,0.1,0.5,0
		c1.9,1.5,4.5,2.4,7.1,2.3c3.4-0.1,6.5-1.5,9.4-3.2c2.4-1.5,4.7-3.3,4.7-6.3C180.2,86.1,180.1,86,180,85.9z"/>
</g>
<g id="sweater_drawing">
	<path class="st14" d="M222,157.9c0-2.4-0.4-4.8-1-7.1c0.1-0.1,0.2-0.1,0.2-0.2c0.4-1.1,1-2.3,0.7-3.5c-0.1-0.5-0.6-0.7-0.7-1.3
		c-0.2-0.8-0.1-1.2-0.1-1.9c-0.1-2.4-1.2-4.1-1.7-6.3c-0.5-2.3-1-4.8-1.4-7.1c-0.1-0.6-0.1-1.6-0.3-2.2c-0.2-0.8-0.7-1.4-1-2.1
		c-0.5-1.6-0.7-3-1.4-4.5c0.1-0.2,0.1-0.3,0.2-0.5c0.5-2.2-0.7-4.4-1.2-6.6c-1.2-5.1-1-10.7-3.9-15.3c-2.5-4-6.6-6.6-10.7-8.6
		c-5-2.4-10.4-4.2-15.7-5.8c0,0-0.1,0-0.1,0c-0.6-1.1-1.8-1.3-3.2-1.9c-0.4-0.2-0.8,0.2-0.8,0.5c-0.2,0.1-0.3,0.4-0.2,0.7
		c2.8,5.9-8,10.7-12.3,11.2c-5.2,0.6-12.9-2.5-11.2-9c0,0,0,0,0,0c0-0.4,0-0.7,0.1-1.1c-0.1,0-0.2,0-0.3,0c-0.1,0.1-0.2,0.1-0.3,0.2
		c-0.1,0-0.2,0.1-0.3,0.2c-3.3,1.7-6.5,3.4-9.8,5.2c-2.5,1.4-5.8,2.6-8,4.6c0,0,0,0,0,0c-3.2,1.7-5.6,4.8-7.3,8
		c-2,3.7-2.2,7.8-2.2,11.9c0,1.1,0,2.2,0,3.2c-0.2,0.1-0.4,0.2-0.4,0.5c-0.5,4.4-1.1,8.7-1.9,13c-0.2,0.9-0.6,2.1-0.4,3
		c0,0.1,0,0.1,0.1,0.2c-0.1,0.1-0.2,0.2-0.2,0.4c0.2,1.8-1,3.2-1,4.9c-0.1,0.2-0.1,0.4,0,0.5c0,1.3-0.3,2.6-0.3,3.8
		c0,1.8-0.7,3.8-0.9,5.6c-0.1,1,0.2,1.2,0.1,2.1c0,0,0,0.1,0,0.1c0,0.4,0.1,0.8,0.2,1.2c0.1,0.6,0.3,1.3,0.4,1.9c0,0.2,0,0.3,0,0.5
		c0.1-0.1,0.1,0.1-0.1,1.4c0,0.2-0.3,0.5-0.3,0.7c0,0.7,0.3,1,0.8,1.3c-0.7,0.2-0.8,0.8-0.9,1.9c-0.3,2.9-0.1,5.7,0.3,8.6
		c0,0.2,0.2,0.3,0.4,0.4c0.1,0.1,0.2,0.2,0.4,0.2c3-0.4,6-0.5,9.1-0.3c1.6,0.1,4.4,1.1,5.5-0.4c1.1-1.3,0.9-4.3,0.9-5.8
		c0-1,0.4-3-0.3-4c0,0,0-0.1,0-0.1v-0.8c0.1-0.1,0.1-0.2,0.1-0.3c0-0.5-0.2-1.4,0-1.8c0.1-0.2,0.5-0.3,0.6-0.5
		c0.3-0.5,0.5-0.8,0.6-1.4c0-0.6-0.4-0.9-0.4-1.5c0-0.3,0.1-0.5,0.2-0.8c0.3-0.1,0.5-0.5,0.3-0.8c0-0.1,0.1-0.2,0.1-0.2
		c0.2-0.7,0.1-1.4,0.2-2.1c0.2-1.1,0.9-1.9,1.1-2.9c0.2-1.1,0-2.2,0.3-3.4c0-0.1,0.1-0.2,0.1-0.4c-0.2,3.3-0.4,6.5-0.6,9.8
		c-0.2,0-0.5,0.2-0.5,0.5c-0.5,4.9-0.8,9.9-1.9,14.7c-1,4.3-0.4,7.8,1,11.8c-0.1,0.1-0.1,0.2-0.1,0.3c-0.2,3.2-0.8,6.5-0.7,9.8
		c0.1,2.1,0.3,2.4,2,2.8c0.1,0.1,0.2,0.2,0.4,0.2c7.9,0.9,15.8,1.2,23.7,1.1c0.1,0,0.2,0,0.3,0c9.8-0.2,19.6-1.3,29.3-3.2
		c0.1,0,0.2,0,0.3-0.1c0.4-0.1,0.7-0.1,1.1-0.2c0,0.1,0.1,0.1,0.1,0.1c0.2-0.1,0.4-0.1,0.7-0.2c0,0,0.1-0.1,0.1-0.1
		c1.7-0.3,3.4-0.7,5-1.1c0,0,0.1,0,0.1,0c0.1,0,0.2,0,0.3-0.1c0.3,0,0.5-0.3,0.4-0.6c0-0.1,0-0.2-0.1-0.3c-1.5-3.6-1.9-7.6-2.7-11.4
		c0.1-3.5,0.8-7,0.6-10.6c-0.2-3.7-0.5-7.4-1-11c-0.4-3.5-0.2-6.8-0.1-10.3c0-1.8,0-3.5,0-5.3c0.1,0.4,0.2,0.7,0.5,1
		c0.3,0.5,1.2,0.9,1.5,1.4c0.4,0.8-0.3,1.2-0.2,2c0.2,1.1,0.7,1.5,1.3,2.3c0.9,1.1,0.8,2,1.2,3.3c0.3,1.1,0.9,1.3,1.9,1.7
		c0,0,0,0,0,0c-0.1,0.1-0.2,0.2-0.2,0.4c-0.2,3.2-0.1,6.4,0.1,9.6c0,0.3,0.3,0.6,0.6,0.5c2.8-0.6,5.6-0.9,8.4-0.8
		c1.6,0,3.2,0.5,4.8,0.5c0.4,0,0.7,0.1,1.1-0.1C222.2,160.9,222,158.9,222,157.9z M182.5,84.9c0.3,0.2,0.4,0.5,0.5,0.9
		c-0.5-0.2-1-0.4-1.5-0.5c-0.2,0-0.4,0.1-0.5,0.2c-0.1-0.4-0.2-0.9-0.3-1.4C181.3,84.3,182.2,84.6,182.5,84.9z M183.1,87
		c0,0.2,0,0.3-0.1,0.5c-0.6-0.3-1.3-0.5-2-0.7c0,0,0,0,0,0c0-0.2,0-0.4,0-0.6c0.1,0,0.1,0.1,0.2,0.1C181.9,86.3,182.5,86.6,183.1,87
		z M180.8,87.7C180.8,87.7,180.8,87.7,180.8,87.7c0.7,0.2,1.4,0.4,2,0.7c-0.1,0.2-0.2,0.5-0.3,0.7c-0.6-0.3-1.1-0.5-1.7-0.8
		c-0.1,0-0.2,0-0.3,0C180.6,88.1,180.7,87.9,180.8,87.7z M180.2,89.1c0,0,0.1,0.1,0.2,0.1c0.6,0.3,1.2,0.5,1.8,0.8
		c-0.2,0.3-0.4,0.6-0.6,0.9c-0.5-0.4-1.1-0.8-1.7-1.1c0,0-0.1,0-0.1,0C179.9,89.6,180,89.3,180.2,89.1z M179.1,90.5
		c0,0.1,0.1,0.1,0.2,0.2c0.5,0.3,1,0.6,1.5,1c-0.2,0.2-0.4,0.4-0.6,0.6c0,0-0.1-0.1-0.1-0.1c-0.5-0.3-0.9-0.6-1.2-1
		c-0.1-0.1-0.2-0.2-0.3-0.2C178.8,90.9,178.9,90.7,179.1,90.5z M178,91.6c0,0,0,0.1,0.1,0.1c0.4,0.5,0.8,0.9,1.4,1.3
		c-0.3,0.2-0.5,0.4-0.8,0.6c-0.4-0.4-0.8-0.8-1.2-1.2c-0.1-0.1-0.2-0.1-0.3-0.2C177.5,92.1,177.7,91.8,178,91.6z M176.7,92.6
		c-0.1,0.2,0,0.3,0.1,0.5c0.3,0.4,0.7,0.7,1,1.1c-0.3,0.2-0.5,0.4-0.8,0.5c-0.4-0.4-0.7-0.9-1.1-1.3c-0.1-0.1-0.1-0.1-0.2-0.1
		C176.1,93.1,176.4,92.9,176.7,92.6z M175.2,93.6c-0.1,0.2,0,0.3,0.1,0.5l1,1.2c-0.4,0.2-0.8,0.5-1.2,0.7c-0.4-0.5-0.7-1.1-0.9-1.6
		c0,0,0,0,0-0.1C174.4,94.1,174.8,93.8,175.2,93.6z M173.1,94.7c0,0,0,0.1,0,0.1c0.2,0.5,0.5,1.1,0.9,1.5c-0.4,0.2-0.9,0.4-1.3,0.5
		c0,0,0-0.1,0-0.1c-0.3-0.5-0.4-0.9-0.6-1.5c0-0.1,0-0.1-0.1-0.2C172.4,95,172.8,94.8,173.1,94.7z M171.2,95.5c0,0,0,0.1,0,0.1
		c0.1,0.6,0.4,1.1,0.6,1.7c-0.5,0.2-0.9,0.3-1.4,0.4c0,0-0.1,0-0.1,0c-0.2-0.5-0.3-1.1-0.4-1.6c0-0.1,0-0.1-0.1-0.2
		C170.3,95.8,170.7,95.6,171.2,95.5z M168.9,96.1c0,0.1,0,0.1,0,0.2c0.1,0.5,0.2,1,0.4,1.6c-0.4,0.1-0.8,0.1-1.3,0.2
		c0,0,0-0.1,0-0.1c-0.2-0.5-0.3-0.9-0.2-1.4c0-0.1,0-0.1,0-0.2C168.1,96.3,168.5,96.2,168.9,96.1z M166.8,96.4c0,0,0,0.1,0,0.1
		c0,0.5,0.1,1.1,0.3,1.6c-0.5,0-1,0-1.5,0c-0.1-0.6-0.2-1.2-0.2-1.7C165.8,96.4,166.3,96.4,166.8,96.4z M163,96
		c0.5,0.1,0.9,0.2,1.4,0.2c0,0.1,0,0.2,0,0.2c0.1,0.5,0.1,1,0.2,1.5c-0.6-0.1-1.1-0.1-1.7-0.2C162.9,97.3,162.9,96.7,163,96
		C163,96.1,163,96.1,163,96z M161.2,95.5c0.3,0.1,0.6,0.2,0.9,0.3c0,0,0,0,0,0.1c-0.1,0.6-0.1,1.2-0.2,1.8c-0.3-0.1-0.7-0.2-1-0.3
		C160.9,96.7,161,96.1,161.2,95.5z M158.9,96.5c0.2-0.6,0.4-1.1,0.6-1.7c0.2,0.1,0.5,0.2,0.7,0.3c0,0,0,0.1-0.1,0.1
		c-0.1,0.6-0.2,1.1-0.3,1.7c-0.3-0.1-0.6-0.2-0.8-0.4C159,96.5,159,96.5,158.9,96.5C158.9,96.5,158.9,96.5,158.9,96.5z M158,93.8
		c0.2,0.2,0.5,0.3,0.7,0.5c0,0,0,0,0,0.1c-0.2,0.5-0.4,1-0.6,1.6c-0.3-0.2-0.6-0.5-0.9-0.8c0,0,0,0,0.1-0.1
		C157.5,94.7,157.7,94.2,158,93.8z M156.5,92.4c0.2,0.3,0.5,0.5,0.7,0.8c-0.3,0.4-0.5,0.8-0.8,1.2c-0.2-0.3-0.4-0.6-0.6-0.9
		c0.2-0.3,0.4-0.5,0.6-0.8C156.5,92.6,156.5,92.5,156.5,92.4z M155.5,90.7c0.2,0.4,0.4,0.8,0.6,1.2c-0.1,0-0.3,0-0.4,0.1
		c-0.2,0.2-0.3,0.4-0.4,0.6c-0.2-0.4-0.4-0.8-0.5-1.2c0,0,0.1,0,0.1-0.1C155,91.2,155.3,90.9,155.5,90.7z M155,89.8l-0.6,0.6
		c-0.1-0.4-0.2-0.9-0.3-1.3c0,0,0.1,0,0.1-0.1c0.3-0.2,0.5-0.4,0.8-0.6c0,0.4,0.1,0.9,0.2,1.3C155.1,89.7,155,89.7,155,89.8z
		 M155,86.9c0,0.1,0,0.1,0,0.2c0,0-0.1,0-0.1,0.1c-0.3,0.3-0.7,0.5-1,0.8c0-0.1,0-0.3-0.1-0.4C154.2,87.4,154.6,87.1,155,86.9z
		 M124.3,169.8c-0.3-1.9-0.4-3.8-0.4-5.8c0-0.6-0.2-1.8,0.1-2.4c0.1-0.2,0.2-0.3,0.3-0.5c0.1,2.8,0.3,5.7,0.5,8.5c0,0,0,0,0,0
		C124.8,169.7,124.6,169.8,124.3,169.8z M125.9,169.6c-0.2-3-0.4-5.9-0.5-8.9c0.3,0,0.5,0,0.8,0c0.2,2.9,0.4,5.9,0.6,8.8
		C126.6,169.6,126.3,169.6,125.9,169.6z M128.3,169.5c-0.2,0-0.3,0-0.5,0c-0.2-2.9-0.4-5.8-0.6-8.6c0.3,0,0.6,0,0.9,0.1
		c-0.2,0.6,0,1.5,0,2.1c0,2.1,0.1,4.1,0.2,6.2C128.3,169.3,128.3,169.4,128.3,169.5C128.3,169.5,128.3,169.5,128.3,169.5z
		 M129.4,169.4c-0.1-1.4-0.1-2.7-0.2-4.1c0-0.3-0.1-4.2-0.3-4.2c0.1,0,0.2-0.1,0.3-0.2c0.3,0,0.5,0,0.8,0c0,2.8,0,5.6,0.2,8.4
		C129.9,169.4,129.6,169.4,129.4,169.4z M131.1,169.4c-0.1-2.8-0.2-5.6-0.2-8.4c0.3,0,0.5,0,0.8,0c0,2.8,0,5.6,0.2,8.4
		C131.7,169.4,131.4,169.4,131.1,169.4z M133,169.5C133,169.5,133,169.5,133,169.5c-0.2-2.8-0.3-5.6-0.2-8.4c0.3,0,0.6-0.1,0.9-0.1
		c0.1,2.9,0.1,5.7,0.1,8.6C133.5,169.5,133.2,169.5,133,169.5z M135.3,169.6c-0.2,0-0.4,0-0.6,0c0-2.9,0-5.8-0.1-8.7
		c0,0,0-0.1,0-0.1c0.3,0,0.6-0.1,1-0.1C135.2,163.7,135.4,166.7,135.3,169.6z M137,169.4c-0.2,0.1-0.5,0.2-0.7,0.2
		c0.1-2.9-0.1-6,0.3-8.9c0.1,0,0.2,0,0.3,0c0.2,0,0.4,0,0.5,0.1C137.3,163.7,137.2,166.6,137,169.4z M138.7,164.7
		c0,0.8,0,3.2-0.4,3.7c-0.1,0.1-0.2,0.2-0.3,0.3c0.1-2.4,0.2-4.9,0.3-7.3C138.9,162.2,138.8,163.5,138.7,164.7z M141.8,181.7
		c-0.1,3.3-0.2,6.6-0.3,9.9c-0.4-0.1-0.5-0.5-0.6-1.7c0-1,0.1-2,0.1-3c0.1-1.8,0.3-3.6,0.4-5.4C141.6,181.6,141.7,181.6,141.8,181.7
		C141.8,181.6,141.8,181.7,141.8,181.7z M143.3,192c-0.1,0-0.1,0-0.2,0c-0.1-0.1-0.1-0.2-0.3-0.2c-0.2,0-0.3,0-0.4-0.1
		c0.1-3.3,0.2-6.6,0.3-9.9c0.2,0.1,0.5,0.1,0.7,0.2c0,0,0,0,0,0.1C143.3,185.5,143.2,188.7,143.3,192z M144.3,192.1
		c-0.1-3.3-0.1-6.5,0.2-9.8c0.2,0.1,0.4,0.1,0.6,0.1c-0.1,3.2-0.1,6.5,0,9.7C144.9,192.2,144.6,192.2,144.3,192.1z M146.2,192.3
		C146.2,192.3,146.2,192.3,146.2,192.3c-0.1-3.2-0.1-6.4,0-9.6c0.3,0.1,0.5,0.1,0.8,0.1c0.1,3.2,0.1,6.3,0.2,9.5
		C146.8,192.4,146.5,192.3,146.2,192.3z M149,192.5c-0.3,0-0.6,0-0.9-0.1c-0.1-3.1-0.1-6.3-0.2-9.4c0.4,0.1,0.8,0.1,1.2,0.2
		C148.9,186.3,148.9,189.4,149,192.5z M150,192.6c-0.2-3.1-0.1-6.2,0.1-9.3c0.3,0,0.7,0.1,1,0.1c0,0,0,0,0,0c-0.1,3.1,0,6.2,0.3,9.3
		C150.9,192.7,150.5,192.6,150,192.6z M152.4,192.7c-0.3-3.1-0.4-6.1-0.3-9.2c0.2,0,0.4,0,0.7,0c0,3.1,0.2,6.2,0.4,9.2
		C153,192.8,152.7,192.8,152.4,192.7z M154.2,192.8c-0.3-3.1-0.4-6.1-0.4-9.2c0.3,0,0.7,0,1,0c0,3.1,0.2,6.1,0.6,9.2
		C155,192.8,154.6,192.8,154.2,192.8z M156.4,192.9c-0.3-3.1-0.5-6.1-0.6-9.2c0.3,0,0.6,0,0.9,0c0.1,3.1,0.3,6.1,0.6,9.2
		C157,192.9,156.7,192.9,156.4,192.9z M159.3,192.9c-0.4,0-0.7,0-1.1,0c-0.3-3.1-0.5-6.1-0.6-9.2c0.4,0,0.8,0,1.2,0
		c0.2,3,0.4,6.1,0.6,9.1C159.4,192.8,159.3,192.9,159.3,192.9z M160.4,192.9c-0.2-3.1-0.4-6.2-0.6-9.3c0.4,0,0.7,0,1.1,0
		c-0.1,3.1,0.1,6.2,0.5,9.3C161.1,192.9,160.7,192.9,160.4,192.9z M162.4,192.9c-0.5-3.1-0.6-6.2-0.5-9.3c0.3,0,0.7,0,1,0
		c0,3.1,0.2,6.2,0.6,9.3C163.1,192.9,162.8,192.9,162.4,192.9z M164.5,192.9c-0.4-3.1-0.6-6.2-0.6-9.4c0.3,0,0.6,0,0.9-0.1
		c0.1,3.1,0.3,6.3,0.7,9.4C165.2,192.9,164.8,192.9,164.5,192.9z M166.5,192.8c-0.4-3.1-0.6-6.3-0.7-9.4c0.5,0,0.9-0.1,1.4-0.1
		c-0.3,3.2-0.1,6.3,0.3,9.5C167.2,192.8,166.8,192.8,166.5,192.8z M168.6,192.8c-0.5-3.2-0.6-6.3-0.3-9.5c0.3,0,0.6,0,0.9-0.1
		c0.1,3.2,0.5,6.3,1.1,9.5C169.7,192.7,169.1,192.8,168.6,192.8z M171.2,192.7c-0.7-3.1-1-6.3-1.1-9.5c0.1,0,0.3,0,0.4,0
		c0.3,0,0.6,0,1-0.1c0.3,3.2,0.7,6.3,1.1,9.5C172.2,192.6,171.7,192.6,171.2,192.7z M173.6,192.5c-0.4-3.2-0.8-6.3-1.1-9.5
		c0.5,0,0.9-0.1,1.4-0.1c0.1,3.2,0.2,6.4,0.4,9.6C174.1,192.5,173.8,192.5,173.6,192.5z M175.3,192.4c-0.2-3.2-0.3-6.4-0.4-9.6
		c0.3,0,0.6,0,0.8-0.1c0.2,3.2,0.4,6.4,0.6,9.6C176,192.3,175.6,192.4,175.3,192.4z M177.3,192.2c-0.2-3.2-0.4-6.4-0.6-9.6
		c0.2,0,0.3,0,0.5,0c0.2,3.2,0.5,6.4,1.1,9.5C178,192.2,177.7,192.2,177.3,192.2z M179.4,192c-0.6-3.1-1-6.3-1.1-9.5
		c0.4,0,0.7-0.1,1.1-0.1c0.3,3.2,0.7,6.3,1.1,9.5C180.1,192,179.7,192,179.4,192z M181.4,191.8c-0.4-3.2-0.8-6.3-1.1-9.5
		c0.3,0,0.7-0.1,1-0.1c-0.3,1.2,0.2,3,0.3,4.1c0.2,1.8,0.3,3.6,0.5,5.3C181.9,191.8,181.6,191.8,181.4,191.8z M183.1,191.6
		c-0.1-1.5-0.3-3-0.4-4.5c-0.1-0.7-0.1-1.5-0.2-2.2c-0.1-0.6-0.3-1.7-0.2-2.4c0,0,0,0,0,0c0,0,0,0,0,0c0-0.1,0.1-0.2,0.1-0.3
		c0.3,0,0.6-0.1,0.9-0.1c-0.2,0.8,0.3,1.9,0.4,2.4c0.4,2.3,0.7,4.6,1.1,6.9C184.2,191.5,183.6,191.6,183.1,191.6z M185.7,191.3
		c-0.2-1.5-0.5-3-0.7-4.5c-0.1-0.3-0.8-4.5-0.8-4.5c0.2-0.1,0.2-0.2,0.2-0.4c0.3,0,0.5-0.1,0.8-0.1c0.3,3.1,0.8,6.2,1.4,9.3
		C186.3,191.2,186,191.3,185.7,191.3z M187.6,191c-0.6-3.1-1-6.2-1.4-9.3c0.3,0,0.6-0.1,0.9-0.1c0.3,3.1,0.8,6.2,1.3,9.3
		C188.1,191,187.8,191,187.6,191z M189.3,190.8c-0.6-3.1-1-6.2-1.3-9.3c0.3,0,0.6-0.1,1-0.1c0.3,3.1,0.7,6.2,1.2,9.3
		C189.9,190.7,189.6,190.7,189.3,190.8z M191.2,190.5c-0.5-3.1-0.9-6.1-1.2-9.2c0.2,0,0.4-0.1,0.6-0.1c0.4,3.1,0.8,6.1,1.3,9.2
		C191.6,190.4,191.4,190.5,191.2,190.5z M192.8,190.2c-0.4-3.1-0.8-6.1-1.3-9.2c0.3,0,0.6-0.1,0.9-0.1c0.3,3.1,0.7,6.1,1.1,9.2
		C193.4,190.1,193.1,190.2,192.8,190.2z M194.6,189.9c-0.4-3.1-0.8-6.1-1.1-9.2c0,0,0,0,0,0c0.2,0,0.5-0.1,0.7-0.1
		c0.2,3.1,0.5,6.2,0.9,9.2C195,189.8,194.8,189.9,194.6,189.9z M196.1,189.6c-0.4-3-0.7-6.1-0.9-9.1c0,0,0-0.1,0-0.1
		c0.2,0,0.4-0.1,0.6-0.1c0.1,3.1,0.4,6.2,0.9,9.2C196.5,189.5,196.3,189.6,196.1,189.6z M197.7,189.3c-0.5-3-0.8-6.1-0.8-9.2
		c0.1,0,0.2,0,0.3-0.1c0.3,3.1,0.7,6.1,1.2,9.1C198.1,189.2,197.9,189.3,197.7,189.3z M199.3,189c-0.5-3-1-6.1-1.2-9.1
		c0.2,0,0.3-0.1,0.5-0.1c0,0,0,0.1,0,0.1c0.5,3,1,6,1.7,8.9C200,188.8,199.7,188.9,199.3,189z M202.4,188.3
		c-0.4,0.1-0.7,0.2-1.1,0.2c-0.7-3-1.2-6-1.7-9c0,0,0,0,0,0c0.2,0,0.4-0.1,0.5-0.1c0,0,0,0.1,0,0.1
		C200.7,182.6,201.3,185.5,202.4,188.3z M207.2,160.9c-0.2-2.9-0.2-5.8-0.1-8.7c0.1,0,0.3,0,0.4-0.1c-0.1,2.9-0.1,5.8,0.1,8.7
		C207.5,160.9,207.3,160.9,207.2,160.9z M208.6,160.7c-0.2-2.9-0.2-5.8-0.1-8.7c0.2,0,0.4-0.1,0.6-0.1c0.2,2.9,0.4,5.8,0.6,8.7
		C209.3,160.6,209,160.7,208.6,160.7z M210.7,160.4c-0.2-2.9-0.4-5.8-0.6-8.7c0.3,0,0.6-0.1,0.9-0.1c0.3,2.9,0.6,5.8,0.8,8.7
		C211.4,160.4,211.1,160.4,210.7,160.4z M212.8,160.3c-0.2-2.9-0.5-5.8-0.8-8.7c0.3,0,0.6-0.1,0.9-0.1c0.4,2.9,0.7,5.8,1.1,8.8
		C213.6,160.3,213.2,160.3,212.8,160.3z M215,160.2c-0.4-2.9-0.7-5.9-1.1-8.8c0.4,0,0.7,0,1.1,0c0,0,0,0.1,0,0.1
		c0.3,2.9,0.6,5.9,1,8.8C215.7,160.2,215.4,160.2,215,160.2z M217.5,160.3c-0.1,0-0.3,0-0.4,0c-0.4-2.9-0.8-5.9-1-8.9
		c0-0.1,0-0.1,0-0.2c0.5,0,0.9,0,1.4,0c0.1,3,0.3,6.1,0.5,9.1C217.7,160.4,217.6,160.4,217.5,160.3z M219.4,160.6
		c-0.2,0-0.4,0-0.6,0c-0.2-3.1-0.4-6.2-0.5-9.3c0.3,0,0.6,0,0.9,0c0.1,1.5,0.2,3,0.3,4.6c0.1,0.8,0.1,1.5,0.2,2.3
		c0,0.4,0.1,0.8,0.1,1.2c-0.1,0.4,0,0.8,0.3,1C220,160.5,219.7,160.5,219.4,160.6z M220.2,150.3c-4.3-0.2-8.6,0.1-12.8,0.8
		c0-0.2,0-0.4-0.3-0.4c-0.5-0.2-0.9-0.5-1.1-0.8c1-0.2,2.1-0.3,3.1-0.5c0.6-0.1,0.4-1.1-0.3-1c-1.1,0.2-2.2,0.3-3.3,0.5
		c-0.2-0.7-0.3-1.6-0.8-2.4c-0.1-0.1-0.2-0.2-0.2-0.3c1.7-0.1,3.4-0.2,5-0.3c0.6,0,0.6-1,0-1c-1.8,0.1-3.7,0.2-5.5,0.3
		c-0.2,0-0.3,0.1-0.4,0.2c-0.3-0.3-0.5-0.7-0.5-2.3c0-0.1,0-0.3,0-0.4c0.1,0,0.1,0,0.2,0c2-0.1,4.1,0.4,5.8-1
		c0.5-0.4-0.2-1.1-0.7-0.7c-1.4,1.2-3.4,0.6-5.1,0.7c-0.1,0-0.2,0.1-0.3,0.1c-0.2-0.4-0.8-0.6-1.1-1c-0.9-1.1-0.5-2.2-0.6-3.3
		c-0.1-0.7,0-1.7-0.1-2.5c1.1,0.5,2.2,0.8,3.4,0.9c0.6,0.1,0.9-0.9,0.3-1c-1.3-0.2-2.6-0.5-3.8-1.1c-0.1,0-0.2-0.1-0.3,0
		c0-0.1-0.1-0.2-0.1-0.2c-0.5-1.2-0.6-2.9,0.2-4.1c0.4-0.5,1-0.9,1.4-1.4c0.4-0.5-0.3-1.2-0.7-0.7c-0.7,0.9-1.5,1.6-2.1,2.3
		c-1.2-4.5-0.2-10,0.3-14.5c0.6-5.3,1.5-10.6,2.7-15.8c0.1-0.6-0.8-0.9-1-0.3c-1.2,5.3-2.1,10.7-2.7,16.1
		c-0.5,4.8-1.6,10.6-0.1,15.3c0,0.1,0.1,0.2,0.2,0.2c-0.2,0.7-0.2,1.4,0.2,2.3c-0.1,0.1-0.2,0.2-0.2,0.4c0.2,3.8,0.4,7.6,0.3,11.4
		c-0.1,3.5-0.3,6.8,0.1,10.3c0.5,3.7,0.8,7.3,1,11c0.1,2.5-0.2,5-0.4,7.4c-0.2-0.7-0.5-1.4-0.8-2.1c-1-2.4-3.2-4.2-4.7-6.2
		c-1.9-2.5-4-5.2-4.9-8.2c-0.2-0.6-1.1-0.4-1,0.3c1.4,4.9,5.3,8.7,8.4,12.6c1.5,1.9,2.2,4.6,2.7,7.2c0,0.2,0,0.3,0,0.5
		c0,0.2,0.1,0.3,0.2,0.4c0,0.1,0,0.2,0,0.2c-9.7,2.2-19.5,2.9-29.4,3.6c-9.5,0.7-19.3,1.5-28.5-1.5c-1-2.5-2-5.1-2.1-7.8
		c0-2.4,0.8-4.7,1.2-7c0.3-1.8,0.6-3.7,0.7-5.6c0.4,1.9,1.2,3.6,2.1,5.4c1.6,3.3,2.8,6.7,3.4,10.3c0.1,0.6,1.1,0.4,1-0.3
		c-0.5-2.8-1.3-5.5-2.4-8.1c-1.3-2.9-3.2-5.7-3.3-8.9c0-0.1,0-0.1,0-0.2c0.5-8.2,1-16.4,1.4-24.6c0.2-3.2,1.1-7.2,0-10.2
		c-0.5-1.4-1.6-2.5-2.4-3.8c-1.2-2-2-4.1-2.5-6.4c0-0.1-0.1-0.2-0.2-0.2c-0.8-3.4-2.1-6.7-3.8-9.8c-0.3-0.6-1.2-0.1-0.9,0.5
		c1.7,3.1,2.9,6.4,3.8,9.9c0,0.1,0.1,0.2,0.2,0.2c0.8,3.2,2.3,5.6,4.1,8.4c2.1,3.4,0.9,8.5,0.7,12.4c-0.1,1.4-0.2,2.7-0.2,4.1
		c-0.1,0.1-0.1,0.1-0.2,0.2c-0.4,1.5-0.9,3-1.2,4.5c-0.8-0.5-1.6-0.7-2.5-0.7c-0.6,0-0.6,1,0,1c0.8,0,1.5,0.2,2.1,0.6
		c0.1,0,0.1,0.1,0.2,0.1c-0.1,0.4-0.2,0.8-0.2,1.2c-0.1,0.9-0.3,1.7-0.5,2.5c0,0.1-0.1,0.1-0.1,0.2c-2.2,0.5-4.3,0.4-6.4-0.4
		c-0.6-0.2-0.9,0.8-0.3,1c2.1,0.7,4.2,0.9,6.4,0.5c-0.1,0.8-0.2,1.5-0.4,2.2c-1.7-0.3-3.4-0.7-5.1-1c-0.6-0.1-0.9,0.8-0.3,1
		c1.7,0.3,3.4,0.7,5,1c-0.1,0.2-0.2,0.4-0.3,0.6c-0.1,0.2-0.1,0.5,0.1,0.6c-0.1-0.1-0.2,0.1-0.2,0.5c-1.4-0.2-2.8-0.4-4.2-0.5
		c-0.6-0.1-0.6,0.9,0,1c1.4,0.2,2.7,0.3,4.1,0.5c0,0.5-0.1,1-0.1,1.4c-1.5-0.2-2.9-0.2-4.4-0.1c-0.6,0-0.6,1,0,1
		c1.4-0.1,2.9-0.1,4.3,0.1c0,0.5,0,0.9,0,1c0,0.1-0.1,0.2-0.1,0.3v0.5c-1.5-0.4-3.8,0.3-5,0.4c-2.8,0.2-5.5-0.3-8.2-0.3
		c0.1-0.2,0-0.4-0.2-0.5c-0.8-0.4,0-1.7,0.1-2.4c0.1,0,0.1,0,0.2,0c1.7-0.2,3.4-0.4,5-0.6c0.6-0.1,0.6-1.1,0-1
		c-1.7,0.2-3.4,0.4-5,0.6c-0.3,0-0.4,0.2-0.5,0.5c-0.1-0.1-0.2-0.1-0.3-0.2c-0.2-0.4-0.1-0.8-0.2-1.1c0-0.1,0-0.5,0-0.8
		c-0.1-0.2-0.3-0.3-0.4-0.5c-0.1-0.4,0-0.6,0.3-0.9c0-0.5-0.1-1.4-0.1-1.7c0-0.3,0.1-0.6,0.2-0.9c0,0.2,0.1,0.3,0.4,0.4
		c2.6,0.5,5.2,0.8,7.8,0.8c0.6,0,0.6-1,0-1c-2.5,0-5-0.2-7.5-0.7c-0.2,0-0.4,0-0.5,0.2c0.1-0.4,0.2-0.7,0.3-1.1
		c0.1-1.5,0.2-2.6,0.1-3.9c0-1.3,0.3-1,0.4-1.9c0-0.3,0-0.7,0-1c2.6,1.4,5.4,2.2,8.4,2.4c0.6,0,0.6-1,0-1c-3-0.2-5.8-1.1-8.4-2.6
		c0,0,0,0,0-0.1c0.1-1.4,0.9-2.5,1.1-3.9c0.1,0.2,0.2,0.3,0.3,0.5c0.6,1.1,1.1,2.3,1.5,3.5c0.2,0.6,1.2,0.3,1-0.3
		c-0.4-1.3-1-2.5-1.6-3.8c-0.7-1.2-0.9-2-0.9-3.4c0.1-1.1,0.4-2.2,0.6-3.3c0.5-2.6,0.8-5.2,1.1-7.9c0.2,2,0.7,4,1.5,6.1
		c0.8,2.1,1.6,4.2,2.4,6.3c0.6,1.5,1.1,2.9,2.2,4c0.5,0.4,1.2-0.3,0.7-0.7c-1.5-1.4-2-3.5-2.7-5.3c-0.6-1.6-1.3-3.3-1.9-4.9
		c-1.4-3.7-1.5-7.3-1.5-11.2c0-3.9,0-8,1.7-11.6c1.4-3,3.6-6,6.5-7.9c0.2,0,0.3,0,0.5-0.1c1.2-1.3,3-2,4.5-2.8
		c1.6-0.9,3.2-1.7,4.7-2.6c2-1.1,3.9-2.1,5.9-3.1c0.5,3.7,1.9,7.2,5.3,9.2c4,2.3,8.9,2.4,13.3,1.2c3.9-1.2,8.3-3.5,10.8-6.8
		c1.2-1.5,2-3.6,1.8-5.5c4.7,1.5,9.4,3.1,13.9,5c4.4,2,8.9,4.6,11.5,8.7c2.6,4.1,2.7,9.1,3.5,13.8c0.5,2.7,2.3,5.8,1,8.5
		c-0.9,2-2,3.2-2.3,5.5c-0.1,0.6,0.9,0.9,1,0.3c0.2-1.6,0.8-3,1.7-4.4c0.1-0.2,0.3-0.4,0.4-0.6c0.6,1.5,0.8,3,1.3,4.6
		c0.3,0.9,0.3,1.7,0.5,2.5c-0.9,0.6-1.8,1.3-2.8,1.9c-0.1,0.1-0.1,0.1-0.2,0.2c-1.3,0.8-2.7,1.4-4.2,2c-0.6,0.2-0.3,1.2,0.3,1
		c2.3-0.9,4.4-2,6.5-3.4c0.1-0.1,0.2-0.2,0.2-0.3c0.1-0.1,0.3-0.2,0.4-0.3c0.4,2,1.1,4.1,1.5,6.2c-1.5,1.3-3.5,1.8-5.4,2
		c-0.6,0.1-0.4,1.1,0.3,1c1.9-0.3,3.8-0.7,5.3-1.9c0,0.5,0.1,0.8,0.3,1.1c-2.2,1.3-4.5,2.1-7,2.3c-0.6,0-0.6,1,0,1
		c2.7-0.2,5.2-1,7.5-2.4c0.3,0.8,0.4,1.5,0.5,2.3c-2,0.5-3.9,1.1-5.8,1.7c-0.6,0.2-0.3,1.2,0.3,1c1.9-0.7,3.8-1.2,5.7-1.7
		c0.1,0.6,0.1,1.4,0.2,2c0,0.1,0,0.3,0,0.4c-2.2,0.2-4.3,0.6-6.5,1.2c-0.6,0.2-0.4,1.1,0.3,1c2.2-0.6,4.5-1,6.7-1.2
		c0.1,0.1,0.2,0.2,0.3,0.3C221.2,148.3,220.5,149.3,220.2,150.3C220.2,150.3,220.2,150.3,220.2,150.3z M221,159.1
		c-0.1-0.9-0.3-1.7-0.3-2.4c-0.1-1.4-0.2-2.7-0.3-4.1c0.4,1.6,0.6,3.2,0.6,4.9C221,158,221,158.5,221,159.1z"/>
	<path class="st14" d="M130.5,153.3c-2-0.1-3.9-0.2-5.9-0.3c-0.6,0-0.6,1,0,1c2,0.1,3.9,0.2,5.9,0.3
		C131.2,154.3,131.2,153.3,130.5,153.3z"/>
	<path class="st14" d="M130.5,146.2c-1.5-0.5-3-1.1-4.6-1.6c-0.6-0.2-0.9,0.7-0.3,1c1.5,0.5,3,1.1,4.6,1.6
		C130.8,147.4,131.1,146.4,130.5,146.2z"/>
</g>
<g id="hat_colours">
	<path class="st15" d="M165.7,49.3c-0.3-0.3-0.1-0.8,0.3-0.8c0,0-0.1,0-0.1,0c0,0,0,0,0,0c-0.4,0-0.8,0-1.2,0c0-0.3-0.1-0.6-0.5-0.6
		c-0.1,0-0.3,0-0.4,0c0.1-0.3-0.1-0.6-0.5-0.6c-0.1,0-0.1,0-0.2,0c-0.1,0-0.2,0-0.3,0c-0.1,0-0.3,0.1-0.4,0.1
		c-0.1,0-0.1-0.1-0.2-0.1c-0.3,0-0.4,0.2-0.5,0.4c0,0-0.1,0-0.1,0.1c-0.3,0.1-0.3,0.4-0.2,0.6c-0.2,0.1-0.2,0.3-0.2,0.5
		c-0.1,0-0.2,0.1-0.3,0.2c-0.2,0.1-0.4,0.2-0.7,0.2c-0.6,0.3-0.1,1.1,0.5,0.9c1.1-0.5,2.2-0.7,3.3-0.8c0.2,0,0.5,0,0.7,0
		c0.1,0,0.1,0,0.2,0c0.2,0,0.5,0,0.7,0C165.7,49.4,165.7,49.4,165.7,49.3z"/>
	<path class="st13" d="M181,50.7c0-0.2,0-0.4,0-0.6c-0.3-1.4-0.8-2.8-1.5-4.1c0,0-0.1-0.1-0.1-0.1c0-0.1,0-0.2,0-0.3
		c-0.1-0.9-0.4-1.7-1.1-2.4c0,0-0.1-0.1-0.1-0.1c0-0.4-0.2-0.8-0.6-1.1c-2.4-2.4-4.9-4.8-7.6-6.9c-0.9-0.7-1.8-1-2.7-1.1
		c0,0.2-0.2,0.4-0.5,0.4c-0.2,0-0.4-0.1-0.5-0.3c-0.6,0.1-1.2,0.3-1.8,0.6c-0.5-0.1-1-0.1-1.4,0.2c-0.1,0-0.1,0-0.2,0
		c-13,3.8-17.8,18.2-13.9,30.5c0.1,0.2,0.2,0.4,0.3,0.5c0.6,1.9,1.3,3.8,2.2,5.6c0.1,0.2,0.2,0.3,0.4,0.4c0.4,0.5,1.1,0.5,1.5,0.1
		c0.2-0.2,0.4-0.4,0.3-0.8c-0.3-3.4,0.1-5.8,1.4-9.1c0.8-2.2,1.4-4.6,2.1-6.9c0.1-0.2,0-0.3,0-0.5l1.5-3.1c0.1-0.1,0.2-0.2,0.3-0.3
		c1-1.4,1.8-2.9,2.6-4.3c1.4,0.7,2.7,1.5,3.9,2.3c0,0,0,0,0,0c-0.5-0.5,0.3-1.2,0.7-0.7c0.3,0.3,0.5,0.7,0.6,1.1
		c2,0.6,3.7,2.4,4.7,4.2c0.1,0.1,0.1,0.2,0,0.3c2.3,2.4,4.1,5.3,5.3,8.7c0.2,0.4,0.5,0.8,0.9,1c0.5,1.1,0.7,2.3,0.8,3.5
		c0,0.6,0.8,0.7,1,0.1c0.7-1.9,1.4-3.8,1.4-5.8c0-0.1,0-0.2-0.1-0.2c0-0.1,0-0.1,0-0.2c0.6-0.3,1.1-0.8,1.2-1.7
		C182.3,56.2,182.2,53.4,181,50.7z"/>
	<path class="st15" d="M166,48.6c-0.7,0-1.4-0.1-2.1,0c-0.6,0-0.6,1,0,1c0.7,0,1.4,0,2.1,0C166.7,49.6,166.7,48.6,166,48.6z"/>
	<path class="st13" d="M179.7,84.1C179.7,84.1,179.6,84.1,179.7,84.1c0-0.6-0.3-1.2-1-1.2c-0.8,0-1.1,0.7-0.9,1.2
		c0,0.1-0.1,0.3,0,0.5c0.2,1.6-0.7,2.9-1.8,4c-1.1,1-2.2,1.3-3.5,1.9c-1.2,0.5-0.7,2.4,0.5,1.9c0.9-0.4,1.8-0.5,2.6-1
		c0.9-0.5,1.7-1.3,2.4-2C179.3,87.9,180,86.1,179.7,84.1z"/>
</g>
<g id="hat_drawing">
	<path class="st16" d="M181.5,49.8c-1.7-6.1-5.6-11.4-11.1-14.6c0-0.1-0.1-0.1-0.2-0.2c-0.7-0.4-2.1-1.4-3-1.2
		c-0.1,0-0.3,0.1-0.4,0.2c-0.1,0-0.1,0-0.2,0c-8.5,0.3-15.3,5.5-18,13.6c-1.5,4.3-1.6,9-0.9,13.4c0.7,4.4,2.1,9.5,5.5,12.6
		c0.3,0.2,0.6,0.1,0.8-0.1c0.3-0.1,0.5-0.3,0.4-0.6c-1.3-3.3,0-6.4,1.2-9.5c1.1-3,1.6-6,3.1-8.9c1.2-2.2,2.4-4.5,3.5-6.8
		c0.1,0.1,0.2,0.2,0.3,0.2c4.6,1,8.2,5.2,10.6,8.9c2.2,3.5,5.1,8.3,4.9,12.5c0,0.4,0.6,0.7,0.9,0.4C183.2,65,183.1,55.8,181.5,49.8z
		 M178.3,44.8c0,0.1,0.1,0.1,0.1,0.1c0.8,1.4,1.4,2.8,1.9,4.4c0.1,0.4,0.2,0.7,0.3,1.1c-3.1-5.7-9.2-9.5-15.9-8.4
		c0.2-0.6,0.4-1.1,0.6-1.7C170.2,40.2,174.9,40.9,178.3,44.8z M156.4,56.7c-0.5,1.3-0.7,2.7-1,4.1c-0.4,1.5-1.1,2.9-1.6,4.4
		c-0.8,2.2-1.3,4.5-0.8,6.8c-2.4-2.8-3.5-6.7-4.1-10.3c-0.8-4.3-0.8-8.8,0.5-13c2.3-7.7,8.4-12.8,16.2-13.6c-0.7,0.5-1.3,1-2,1.5
		c-0.5,0.4,0,1.3,0.5,0.9c0.9-0.7,1.9-1.4,2.8-2.1c0.6-0.5,0.7-0.5,1.4-0.2c0.4,0.2,0.7,0.4,1.1,0.5c0,0.1,0.1,0.1,0.2,0.1
		c2.7,1.5,5,3.6,6.9,6c-3.1-2.1-6.9-2.6-10.8-2.6c0.1-0.3,0.2-0.5,0.3-0.8c0.2-0.6-0.8-0.9-1-0.3C163,44.7,158.9,50.4,156.4,56.7z
		 M178.9,68.1c-0.4-4.3-3.2-9-5.4-12.3c-2.5-3.7-6.2-7.7-10.7-8.7c-0.1,0-0.2,0-0.2,0c0.1-0.2,0.1-0.3,0.2-0.5
		c10.5,1.2,14.8,11.8,16.3,20.9c0,0.1,0,0.2,0.1,0.2C179,67.8,178.9,67.9,178.9,68.1z M181.4,58.9c0,0,0,0.1,0,0.1
		c-0.8-4.1-3-7.8-5.8-11.1c0-0.1,0-0.3-0.1-0.4c-1.1-1.1-2.4-2-3.9-2.5c-0.6-0.2-0.9,0.7-0.3,1c1.3,0.5,2.4,1.2,3.3,2.2
		c0,0-0.1,0-0.1,0.1c3.8,4.3,6.7,9.5,6,15.5c0,0.1,0,0.2,0,0.2c-0.2,0.8-0.5,1.6-0.8,2.4c-1.7-9.3-6.4-19.3-16.7-20.7
		c0.1-0.3,0.2-0.5,0.4-0.8c0,0,0,0,0.1,0c1.5-0.2,2.9-0.2,4.3,0.2c0.6,0.1,0.9-0.8,0.3-1c-1.4-0.3-2.8-0.4-4.2-0.2
		c0.1-0.3,0.3-0.6,0.4-0.9c0.1,0,0.2,0,0.3,0c8.1-1.6,15.1,4.5,16.8,12.2c0,0.1,0,0.1,0.1,0.2C181.5,56.5,181.5,57.7,181.4,58.9z"/>
	<path class="st16" d="M163.1,40.4c0.2-0.5-0.6-0.9-0.9-0.4l-9.7,14.1c-0.4,0.5,0.5,1,0.9,0.5l7.7-11.2c-3.6,6.4-6.7,13.1-9,20.1
		c-0.2,0.6,0.8,0.9,1,0.3c2.7-8,6.3-15.5,10.6-22.7C163.8,40.8,163.4,40.5,163.1,40.4z"/>
	<path class="st16" d="M160.4,40.5c-2.5,2.7-5.1,5.5-7.5,8.3c-0.4,0.5,0.3,1.2,0.7,0.7c2.5-2.8,5-5.5,7.5-8.3
		C161.5,40.8,160.8,40.1,160.4,40.5z"/>
</g>
<g id="eyes">
	<g>
		
			<ellipse transform="matrix(0.9991 -4.256664e-02 4.256664e-02 0.9991 -2.5039 6.8666)" class="st9" cx="160" cy="62.2" rx="2.5" ry="1.3"/>
		<circle class="st17" cx="160" cy="62" r="1"/>
		<circle class="st18" cx="159.5" cy="61.5" r="0.5"/>
	</g>
</g>
<g id="eye_shadows">
	<path class="st19" d="M162.7,60.9c-2-1.1-4.4-0.7-6,0.9c-0.5,0.5,0.3,1.1,0.8,0.7c1.3-1.3,3.2-1.5,4.8-0.6
		C162.8,62.1,163.3,61.2,162.7,60.9z"/>
	<g>
		<ellipse transform="matrix(0.9916 -0.1294 0.1294 0.9916 -6.4867 22.6463)" class="st9" cx="171" cy="61.2" rx="2.5" ry="1.3"/>
		<ellipse transform="matrix(0.9852 -0.1715 0.1715 0.9852 -7.9305 30.2237)" class="st17" cx="170.9" cy="61" rx="1" ry="1"/>
		
			<ellipse transform="matrix(0.9852 -0.1715 0.1715 0.9852 -7.8253 30.2849)" class="st18" cx="171.3" cy="60.4" rx="0.5" ry="0.5"/>
	</g>
	<path class="st19" d="M173.7,59.9c-2-1.1-4.4-0.7-6,0.9c-0.5,0.5,0.3,1.1,0.8,0.7c1.3-1.3,3.2-1.5,4.8-0.6
		C173.8,61.1,174.3,60.2,173.7,59.9z"/>
</g>
</svg>
