<?xml version="1.0" encoding="utf-8"?>
<!-- Generator: Adobe Illustrator 21.1.0, SVG Export Plug-In . SVG Version: 6.00 Build 0)  -->
<svg version="1.1" id="Layer_1" xmlns="http://www.w3.org/2000/svg" xmlns:xlink="http://www.w3.org/1999/xlink" x="0px" y="0px"
	 viewBox="0 0 162 162" style="enable-background:new 0 0 162 162;" xml:space="preserve">
<style type="text/css">
	.st0{fill:#102773;}
	.st1{fill:#102773;stroke:#FCFCFC;stroke-width:0.7635;stroke-miterlimit:10;}
	.st2{fill:#102773;stroke:#FAFCFC;stroke-width:0.7407;stroke-miterlimit:10;}
	.st3{fill:#102773;stroke:#F7F9F9;stroke-width:0.7635;stroke-miterlimit:10;}
	.st4{fill:#102773;stroke:#F7F9F9;stroke-width:1.9133;stroke-miterlimit:10;}
	.st5{fill:#F7F9F9;}
	.st6{fill:none;stroke:#102773;stroke-width:0.9567;stroke-miterlimit:10;}
	.st7{fill:#102773;stroke:#F7F9F9;stroke-width:0.9567;stroke-miterlimit:10;}
	.st8{fill:#FAFCFC;}
	.st9{fill:none;stroke:#F5F7F7;stroke-width:0.3587;stroke-miterlimit:10;}
	.st10{fill:none;stroke:#102773;stroke-width:4.7833;stroke-miterlimit:10;}
	.st11{fill:#FFFFFF;}
	.st12{fill:none;stroke:#102773;stroke-width:12.2515;stroke-miterlimit:10;}
</style>
<g>
	
		<rect x="54.9" y="104.1" transform="matrix(0.9999 1.086892e-02 -1.086892e-02 0.9999 1.1833 -0.7317)" class="st0" width="26" height="8.9"/>
	<polygon class="st0" points="55,112.8 43.7,112.5 49.5,108.2 55.2,103.9 60.8,108.5 66.3,113.1 	"/>
	
		<ellipse transform="matrix(1.086892e-02 -0.9999 0.9999 1.086892e-02 -60.2129 168.778)" class="st1" cx="55.2" cy="114.8" rx="4" ry="3.6"/>
	
		<ellipse transform="matrix(1.086892e-02 -0.9999 0.9999 1.086892e-02 -49.6173 179.7249)" class="st1" cx="66" cy="114.9" rx="4" ry="3.6"/>
	
		<ellipse transform="matrix(1.086892e-02 -0.9999 0.9999 1.086892e-02 -39.7281 189.9419)" class="st1" cx="76.1" cy="115.1" rx="4" ry="3.6"/>
	
		<rect x="69.9" y="88.4" transform="matrix(0.9999 1.086892e-02 -1.086892e-02 0.9999 1.0487 -0.8163)" class="st2" width="11.6" height="15.3"/>
	
		<rect x="54.6" y="96.3" transform="matrix(0.9999 1.086892e-02 -1.086892e-02 0.9999 1.09 -0.6587)" class="st3" width="13" height="7.3"/>
	
		<rect x="58.3" y="90.7" transform="matrix(0.9999 1.086892e-02 -1.086892e-02 0.9999 1.0198 -0.6559)" class="st3" width="5.1" height="5.7"/>
	
		<rect x="56.2" y="86.6" transform="matrix(0.9999 1.086892e-02 -1.086892e-02 0.9999 0.9671 -0.6528)" class="st3" width="8.7" height="4"/>
	
		<rect x="67.1" y="80.3" transform="matrix(0.9999 1.086892e-02 -1.086892e-02 0.9999 0.9302 -0.8143)" class="st3" width="16.6" height="9.7"/>
</g>
<circle class="st4" cx="109.4" cy="93.6" r="18.7"/>
<path class="st5" d="M117.4,77c-0.1-0.2-0.2-0.2-0.4-0.2c0.1-0.5-0.7-0.7-0.9-0.2c-0.1,0.2-0.1,0.3-0.2,0.5
	c-6.3,3.1-13.2,4.4-20.3,3.9c-0.6,0-0.6,0.9,0,1c6.9,0.5,13.6-0.8,19.8-3.6c-4.1,9.8-13.5,16.9-24.1,18.1c-0.6,0.1-0.6,1,0,1
	c10.9-1.2,20.4-8.3,24.8-18.2c0.1,5.4-0.7,10.7-2.4,15.8c-1.8,5.3-4.9,13-10.4,15.3c-0.6,0.2-0.3,1.2,0.3,0.9
	c5.3-2.2,8.2-8.6,10.2-13.7c2.4-6.1,3.5-12.7,3.2-19.2c4.7,8.8,6,18.9,3.7,28.6c-0.1,0.6,0.8,0.9,0.9,0.3
	C124.1,96.9,122.5,86.1,117.4,77z"/>
<path class="st0" d="M105.3,64c0.1-0.9,0.1-1.8,0-2.6c0-0.2-0.2-0.4-0.4-0.5c0,0,0.1-0.1,0.1-0.1c0.1,0,0.1-0.1,0.2-0.1
	c0.1,0,0.1-0.1,0.2-0.2c0.3-0.2,0.2-0.6-0.1-0.7c0.1-0.1,0.1-0.1,0.2-0.1c0.5-0.4,0-1.2-0.5-0.8c-1.7,1.3-3.5,2.1-5.6,2.5
	c-2.7-0.7-6.1-1.1-9.7-1.1c-9.2,0-16.7,2.8-16.7,6.2c0,3.4,7.5,6.2,16.7,6.2s16.7-2.8,16.7-6.2C106.5,65.5,106,64.7,105.3,64z"/>
<line class="st6" x1="74" y1="56.3" x2="74" y2="68.7"/>
<line class="st6" x1="105.5" y1="55.8" x2="105.5" y2="68.2"/>
<ellipse class="st7" cx="89.8" cy="55.8" rx="16.7" ry="6.2"/>
<path class="st5" d="M77.4,61.5c-0.8-0.5-1.6-0.8-2.4-1.2c-0.6-0.2-0.8,0.7-0.3,0.9c0.8,0.3,1.5,0.6,2.2,1.1
	C77.4,62.6,77.9,61.8,77.4,61.5z"/>
<path class="st0" d="M79.8,61.4c-1.8-0.2-3.5-1-5-2.1c-0.5-0.4-1,0.5-0.5,0.8c0.1,0.1,0.1,0.1,0.2,0.1c-0.4,0.1-0.6,0.6-0.2,0.9
	c0.1,0,0.2,0.1,0.3,0.1c-0.2,0.1-0.4,0.3-0.4,0.5c0,0,0,0.1,0,0.1c0,0.2-0.1,0.5-0.1,0.7c0,0.2,0,0.3,0.1,0.4c0,0.1,0,0.2,0.1,0.3
	c0,0,0,0,0,0.1c0.1,0.2,0.2,0.3,0.4,0.3c0.1,0.1,0.2,0.1,0.3,0.1c0.1,0.1,0.3,0.2,0.4,0.1c0.1,0,0.3-0.1,0.3-0.2
	c0.1-0.1,0.2-0.2,0.4-0.3c0.2-0.2,0.2-0.4,0-0.6c0,0,0,0,0,0c0.2,0,0.3-0.1,0.4-0.2l0,0c0.1,0.1,0.2,0.1,0.3,0
	c0.1,0.1,0.3,0.1,0.4,0.2c0.4,0.2,0.8-0.5,0.5-0.8c0,0-0.1-0.1-0.1-0.1c0.7,0.2,1.5,0.4,2.3,0.5C80.4,62.5,80.4,61.5,79.8,61.4z"/>
<path class="st8" d="M106.2,61.8c-0.9-0.7-1.7-1.5-2.4-2.5c-0.2-0.3-0.8-0.3-0.9,0.1c-0.6,3.8-1.7,7.5-3.4,11
	c-2.3-2.9-4.6-5.7-6.9-8.7c-0.2-0.3-0.7-0.4-0.8,0c-1.6,3.2-3.1,6.3-4.7,9.5c-2.2-3.3-4.3-6.6-6.3-10.1c-0.1-0.3-0.5-0.3-0.8-0.1
	c-2,2.4-4.1,4.7-6.1,7.1c-0.4,0.5,0.3,1.1,0.7,0.7l5.7-6.6c2,3.5,4.2,6.9,6.4,10.2c0.2,0.3,0.7,0.3,0.8,0c1.6-3.2,3.1-6.4,4.7-9.6
	c2.3,3,4.6,5.9,6.9,8.8c0.2,0.2,0.6,0.2,0.8-0.1c1.7-3.5,2.9-7.1,3.6-10.8c0.5,0.6,1.1,1.2,1.8,1.8C106,62.9,106.7,62.2,106.2,61.8z
	"/>
<circle class="st0" cx="83.1" cy="48.2" r="1.9"/>
<line class="st6" x1="81.6" y1="47.7" x2="70.1" y2="43.9"/>
<ellipse transform="matrix(0.8123 -0.5833 0.5833 0.8123 -10.523 63.6201)" class="st0" cx="93.6" cy="48.2" rx="1.9" ry="1.9"/>
<line class="st6" x1="95" y1="47.7" x2="106.6" y2="44.1"/>
<rect x="41.3" y="66.1" class="st0" width="16.3" height="17.4"/>
<polygon class="st0" points="41,65.8 49.5,61.4 63,61.4 57.3,65.8 "/>
<polygon class="st0" points="57.3,65.8 57.3,83.2 63,77.4 63,61.4 "/>
<line class="st9" x1="41.7" y1="69.4" x2="58" y2="69.4"/>
<line class="st9" x1="41.3" y1="72.7" x2="57.6" y2="73.4"/>
<line class="st9" x1="41.3" y1="77.8" x2="57.6" y2="77.8"/>
<line class="st9" x1="47" y1="62.5" x2="61.9" y2="62.5"/>
<line class="st9" x1="44.2" y1="64" x2="59.1" y2="64"/>
<line class="st9" x1="44.9" y1="66.1" x2="45.6" y2="82.8"/>
<line class="st9" x1="52" y1="66.1" x2="52" y2="82.8"/>
<line class="st9" x1="56.9" y1="65.4" x2="56.9" y2="82.8"/>
<line class="st9" x1="59.1" y1="64" x2="59.8" y2="79.9"/>
<line class="st9" x1="61.2" y1="63.2" x2="61.9" y2="77.8"/>
<line class="st9" x1="62.6" y1="64" x2="56.9" y2="70.5"/>
<line class="st9" x1="62.6" y1="67.6" x2="57.6" y2="73.4"/>
<line class="st9" x1="62.6" y1="72.7" x2="56.2" y2="77.8"/>
<line class="st9" x1="44.9" y1="66.1" x2="53.4" y2="61.1"/>
<line class="st9" x1="52" y1="66.1" x2="57.6" y2="62.5"/>
<circle class="st10" cx="82.6" cy="83.1" r="67.9"/>
<rect x="78.8" y="7.5" class="st11" width="15.3" height="14.8"/>
<polygon class="st12" points="69.5,16.8 68.7,17.4 67.9,17.9 67.8,17.1 67.6,16.2 68.6,16.5 "/>
<rect x="127.5" y="115.1" transform="matrix(0.7071 -0.7071 0.7071 0.7071 -50.3343 132.6488)" class="st11" width="14.8" height="23.9"/>
<rect x="11.8" y="97.4" transform="matrix(0.5 0.866 -0.866 0.5 102.5844 36.7836)" class="st11" width="15.3" height="19.6"/>
<polygon class="st12" points="141.8,114.3 142.5,113.7 143.3,113.1 142.5,112.8 141.7,112.4 141.7,113.4 "/>
<polygon class="st12" points="27.4,120.3 26.5,120.7 25.6,121.1 25.7,120.2 25.7,119.3 26.6,119.8 "/>
</svg>
