<?xml version="1.0" encoding="utf-8"?>
<!-- Generator: Adobe Illustrator 21.1.0, SVG Export Plug-In . SVG Version: 6.00 Build 0)  -->
<svg version="1.1" id="Layer_1" xmlns="http://www.w3.org/2000/svg" xmlns:xlink="http://www.w3.org/1999/xlink" x="0px" y="0px"
	 viewBox="0 0 162 162" style="enable-background:new 0 0 162 162;" xml:space="preserve">
<style type="text/css">
	.st0{fill:#102773;}
	.st1{fill:#FFFFFF;}
	.st2{fill:none;stroke:#FFFFFF;stroke-width:5.0322;stroke-miterlimit:10;}
</style>
<rect x="10" y="52.9" class="st0" width="142" height="12.8"/>
<g>
	<path class="st0" d="M138.2,69.8H15.7c0,0,4.1,84.2,9.5,84.2h111.6c5.4,0,9.5-84.2,9.5-84.2H23.8"/>
</g>
<path class="st0" d="M81.8,25.7C51.5,25.7,27,36.1,27,48.9h109.6C136.6,36.1,112,25.7,81.8,25.7z"/>
<path class="st0" d="M82.2,19.4c6.7,10.3,8.1,21.4,3.1,24.9s-14.4-2.1-21-12.3S56.3,10.5,61.2,7S75.6,9.1,82.2,19.4z"/>
<path class="st0" d="M98.7,34.3c-9.2,7.9-19.8,10.4-23.6,5.6s0.6-15.1,9.8-22.9s19.8-10.4,23.6-5.6S107.9,26.4,98.7,34.3z"/>
<path class="st1" d="M71.8,40.1c-6.7-10.3-9.1-20.7-5.3-23.4s12.2,3.6,18.8,13.9"/>
<path class="st1" d="M83.8,25.5c8.9-8.3,18.2-12.6,20.7-9.6S102,28,93.1,36.3"/>
<path class="st0" d="M108,30.3c-2.4-0.9-4.9-1.6-7.4-2.1c3.3-2.3,6.4-6.4,5.3-10.6c-0.1-0.3-0.2-0.6-0.3-0.9c-0.1-0.5-0.3-1-0.5-1.5
	c-0.2-0.4-0.5-0.5-0.8-0.4c-2-1.8-5.3-1.7-7.7-0.6c-0.6,0.3-1.3,0.6-1.9,1c-0.9,0.4-1.8,1-2.6,1.6c-0.2-0.5-0.8-0.9-1.3-0.4
	c-1.3,1.3-2.4,2.7-3.3,4.3c-0.2-0.1-0.3,0-0.5,0.1c-0.7,0.4-1.3,1-1.7,1.5c-0.2-0.5-0.7-0.6-1-0.4c0,0,0-0.1-0.1-0.1
	c-0.4-0.9-1.7-0.1-1.3,0.8c0.1,0.2,0.1,0.3,0.2,0.5c-0.1,0.2-0.2,0.5,0,0.8c0.3,0.5,0.6,1,0.9,1.5c0,0.2,0,0.5-0.1,0.7
	c-0.2-0.2-0.4-0.4-0.8-0.3c-0.3,0.1-0.6,0.2-0.9,0.3c0-0.2,0-0.3,0-0.5c0,0,0,0,0,0c0.5,0.1,1-0.6,0.6-1.1c-0.1-0.1-0.2-0.2-0.3-0.3
	c0,0,0,0,0-0.1c0,0,0,0,0,0c0.7-0.9,0.4-2.1-0.6-2.7c-0.2-0.1-0.5-0.1-0.6,0c-1.5,1-2.1,2.7-1.7,4.3c0,0.4,0.1,0.7,0.2,1.1
	c-0.5,0.1-1,0.2-1.5,0.3c-1.1,0.1-2.3,0.2-3.4,0.3c-1.6,0-3.1-0.3-4.7-0.9c-2.1-0.8-4-2.3-5.3-4.3c-0.5-0.8-3.4-7.1-0.5-7.2
	c1,0,1-1.6,0-1.6c-4.8,0.1-2.3,7.2-0.5,10c-0.6-0.3-1.4,0.5-1,1.1c0.7,1,1.5,1.9,2.3,2.8c-0.7-0.1-1.2,0.9-0.5,1.5
	c-0.1,0.1-0.1,0.2-0.1,0.3c-0.5,0.2-0.7,0.9-0.3,1.3c0,0-0.1,0-0.1,0c-1,0.2-0.6,1.8,0.4,1.5c0,0,0.1,0,0.1,0
	c-0.1,0.4,0.1,0.9,0.7,1c0.1,0,0.2,0,0.4,0c0.1,0.4,0.3,0.7,0.7,0.8c0.1,0,0.1,0,0.2,0c-0.5,0.4-0.4,1.4,0.4,1.4c0.1,0,0.2,0,0.3,0
	c-0.7,0.6-1.5,1.2-2.2,1.8c-0.4,0-0.8,0-1.3,0c-0.8,0-0.9,1-0.5,1.4c-0.5,0.5-1.1,0.9-1.6,1.4c-0.5,0.4-0.1,1.1,0.3,1.3
	c1.2,0.5,2.5,0.5,3.9,0.3c0.2,0,0.3,0,0.5,0.1c-2.3,0.3-4.6,0.7-6.9,1.2c-1,0.2-0.6,1.7,0.4,1.5c4.3-0.8,8.6-1.5,12.9-2
	c0,0.4,0.2,0.7,0.6,0.7c0.1,0,0.1,0,0.2,0c0,0,0,0,0,0c0,0,0.1,0,0.1,0c0.9-0.1,1.8-0.3,2.7-0.6c0.3-0.1,0.5-0.1,0.8-0.1
	c0.3,0,0.6,0,0.9,0c1.2,0.1,2.4,0.1,3.6,0.1c-3.6,1.6-7.1,3.3-10.5,5.2C70.6,48,71,49,71.7,48.8c3.4-1.1,9.2-2.3,11.3-5.5
	c0.3-0.1,0.5-0.2,0.8-0.3c-0.3,0.6,0.3,1.6,1,1.1c1.1-0.7,2.1-1.4,3.2-2.1c2-0.1,4.1-0.2,6-0.3c1,0,1-1.6,0-1.6
	c-3.3-0.1-6.7-0.1-10,0c0.1-0.6,0.2-1.1,0.2-1.7c3-0.1,6-0.1,9-0.2c0.8,0,0.9-1,0.5-1.4c0.7,0,1.3,0,2,0c0.5,0,0.8-0.5,0.7-0.9
	c0.2-0.4,0-1-0.5-1.1c0.4-0.1,0.9-0.1,1.3-0.2c0.7-0.1,0.7-0.9,0.3-1.3l0.2,0c0.5,0,0.8-0.4,0.7-0.8c0.1-0.4-0.1-0.8-0.5-0.9
	c-0.4-0.1-0.8-0.2-1.2-0.3l0,0c0,0,0.1,0,0.1,0c0.1,0,0.1,0,0.2,0c1.5,0.2,3.1,0.5,4.6,0.8c0.1,0,0.2,0,0.2,0
	c0.1,0.2,0.2,0.4,0.2,0.7c0.1,1,1.6,1,1.5,0c-0.1-1.1-0.6-1.9-1.3-2.5c1.7,0.4,3.4,0.9,5.1,1.5C108.5,32.2,108.9,30.6,108,30.3z
	 M82.8,40.1c-0.9,0-1.7,0.1-2.6,0.1c-0.1-0.1-0.3-0.3-0.5-0.3c0.4-0.1,0.9-0.1,1.3-0.2c0.7-0.1,0.9-0.9,0.6-1.4c0.5,0,1,0,1.4-0.1
	C83,38.9,82.9,39.5,82.8,40.1z M85.1,31.7c0.1,0,0.1,0,0.2-0.1c0.3,0,0.5,0,0.8,0c0.4,0,0.7-0.4,0.7-0.7c0.2,0.3,0.3,0.7,0.5,1
	c0.2,0.4,0.5,0.5,0.8,0.4c0,0,0,0.1,0,0.1c-1,0.1-2.1,0.2-3.1,0.4C85,32.4,85.1,32,85.1,31.7z M89.8,35.2c-1.3,0.1-2.7,0.2-4,0.3
	c0.1-0.3-0.1-0.7-0.6-0.7c-0.2,0-0.3,0-0.5,0c0-0.2,0-0.4,0.1-0.5c1.7-0.2,3.3-0.4,5-0.6c-0.2,0.3-0.1,0.8,0.1,1
	C89.8,34.9,89.8,35,89.8,35.2z M96.1,26.9c-0.5,0.2-1,0.3-1.5,0.4c-2.4-0.3-4.8-0.4-7.2-0.4c0.1-0.7,0.2-1.3,0.3-2
	c1.3-3,3.9-5.1,6.5-7.1c0.3-0.2,0.5-0.4,0.8-0.6c3.3-1.8,8.2-3.3,7.4,3.1c-0.2,1.7-1.4,3.4-2.7,4.9C98.5,25.9,97.3,26.5,96.1,26.9z"
	/>
<g>
	<ellipse class="st1" cx="72.8" cy="117.8" rx="18.7" ry="25.2"/>
	<ellipse class="st1" cx="91.5" cy="117.8" rx="18.7" ry="25.2"/>
	<ellipse class="st1" cx="82.1" cy="89.1" rx="2.3" ry="6.9"/>
	<ellipse class="st0" cx="77.4" cy="116.6" rx="2.3" ry="5.7"/>
	<ellipse class="st0" cx="85.6" cy="116.6" rx="2.3" ry="5.7"/>
	<ellipse class="st0" cx="57" cy="106.9" rx="12.3" ry="14.3"/>
	<ellipse class="st0" cx="57" cy="127.5" rx="12.3" ry="14.3"/>
	<ellipse class="st0" cx="107.3" cy="106.9" rx="12.3" ry="14.3"/>
	<ellipse class="st0" cx="107.3" cy="127.5" rx="12.3" ry="14.3"/>
</g>
<g>
	<path class="st2" d="M79.4,149.4c-21.1,0-38.3-16.7-38.3-37.2S58.3,75,79.4,75s38.3,16.7,38.3,37.2"/>
	<polygon class="st1" points="117.6,112.8 133,112.8 125.3,125.3 117.6,137.8 110,125.3 102.3,112.8 	"/>
</g>
</svg>
