<?xml version="1.0" encoding="utf-8"?>
<!-- Generator: Adobe Illustrator 21.1.0, SVG Export Plug-In . SVG Version: 6.00 Build 0)  -->
<svg version="1.1" xmlns="http://www.w3.org/2000/svg" xmlns:xlink="http://www.w3.org/1999/xlink" x="0px" y="0px"
	 viewBox="0 0 162 162" style="enable-background:new 0 0 162 162;" xml:space="preserve">
<style type="text/css">
	.st0{fill:#102773;stroke:#102773;stroke-width:0.9813;stroke-miterlimit:10;}
	.st1{fill:#102773;}
	.st2{fill:#FCFCFC;}
	.st3{fill:#FFFFFF;stroke:#C6C6C6;stroke-width:6.7811;stroke-miterlimit:10;}
	.st4{fill:none;stroke:#102773;stroke-width:4.11;stroke-miterlimit:10;}
	.st5{fill:none;stroke:#000000;stroke-width:0.4844;stroke-miterlimit:10;}
	.st6{fill:none;stroke:#102773;stroke-width:4.0525;stroke-miterlimit:10;}
	.st7{fill:#C1C1C1;}
	.st8{fill:#4365AA;}
	.st9{fill:none;stroke:#4365AA;stroke-width:0.9972;stroke-miterlimit:10;}
	.st10{fill:none;stroke:#4365AA;stroke-width:1.0005;stroke-miterlimit:10;}
	.st11{fill:none;stroke:#4365AA;stroke-width:0.9927;stroke-miterlimit:10;}
	.st12{fill:#114AA5;}
	.st13{fill:none;stroke:#4365AA;stroke-width:1.2701;stroke-miterlimit:10;}
	.st14{fill:none;stroke:#D8D8D8;stroke-width:1.0479;stroke-miterlimit:10;}
	.st15{fill:none;stroke:#114AA5;stroke-width:1.4228;stroke-miterlimit:10;}
	.st16{fill:none;stroke:#114AA5;stroke-width:0.3099;stroke-miterlimit:10;}
</style>
<g id="Layer_1">
	<ellipse class="st0" cx="81" cy="81" rx="78.5" ry="79.5"/>
	<ellipse class="st1" cx="81" cy="81.1" rx="73.5" ry="74.4"/>
	<ellipse class="st2" cx="81" cy="81" rx="72" ry="73"/>
</g>
<g id="color">
</g>
<g id="icon">
	<rect x="29.5" y="39" class="st3" width="72.3" height="77"/>
	<rect x="103.6" y="41" class="st4" width="32.4" height="36.5"/>
	<rect x="103.6" y="78.5" class="st4" width="32.4" height="36.5"/>
	<rect x="29" y="39.5" class="st5" width="72.3" height="77"/>
	<rect x="30.4" y="40" class="st4" width="32.4" height="36.5"/>
	<rect x="30.4" y="79.5" class="st6" width="32.4" height="35.5"/>
	<ellipse class="st7" cx="62.9" cy="78.5" rx="2.8" ry="3"/>
	<rect x="65.6" y="115" class="st8" width="35.2" height="2"/>
	<rect x="65.6" y="39" class="st8" width="35.2" height="2"/>
	
		<rect x="61.9" y="77.1" transform="matrix(-1.836970e-16 1 -1 -1.836970e-16 177.8701 -21.8701)" class="st8" width="76" height="1.9"/>
	<rect x="32.5" y="81.5" class="st9" width="28.5" height="31.4"/>
	<rect x="32.7" y="42.5" class="st10" width="27.8" height="32.4"/>
	<rect x="105.9" y="43.6" class="st10" width="27.8" height="32.4"/>
	<rect x="105.9" y="81" class="st11" width="27.8" height="31.9"/>
	<g>
		<path class="st12" d="M76.9,134.7c-1.5-0.3-2.8-1-3.8-2.2c-0.3-0.3-0.6-0.8-0.9-1.3c-0.2-0.5-0.4-0.9-0.6-1.4
			c-0.3-1.2-0.3-2.5,0.7-3.3c0.6-0.5,0-1.6-0.6-1.1c-0.2,0.2-0.4,0.4-0.6,0.6c-0.2-0.1-0.4-0.1-0.6,0.1c-1.3,1.3-1.7,3.1-1.4,4.9
			c0.1,1.3,0.5,2.6,1.3,3.5c0,0.1,0,0.2,0.1,0.4c1.2,2.4,3.9,3.1,5.9,1.6c0.2-0.1,0.2-0.3,0.3-0.5C77.3,135.9,77.6,134.8,76.9,134.7
			z"/>
		<g>
			<path class="st13" d="M77.7,129c1.8,3.8,1.2,8.1-1.4,9.6c-2.6,1.5-6.2-0.4-8-4.2c-1.8-3.8-1.2-8.1,1.4-9.6S75.9,125.2,77.7,129z"
				/>
			<path class="st8" d="M84.6,139.4c-0.5-0.5-0.5-1.1-0.2-1.5c1.6-5.5,0.2-11.3-4.1-15c-0.2-0.1-0.4-0.2-0.5-0.1
				c-0.1-0.2-0.2-0.3-0.5-0.3c-2.3-0.1-4.5,0.1-6.7,0.3l-0.8-0.1c-0.2,0-0.4,0.1-0.4,0.2c-0.4,0.1-0.9,0.1-1.3,0.2
				c-0.7,0.1-0.5,1.1,0.1,1.2c0.1,0.2,0.3,0.3,0.5,0.3c1.1,0,2.2,0,3.3-0.1c0,0.1,0,0.2,0,0.3c-0.3,0-0.6,0.1-0.8,0.2
				c-1.4,0.7-2,2.4-1.9,4c0.2,2,1.4,3.9,2.9,5c1,0.7,3.1,1.8,4.2,1c0.2-0.1,0.3-0.3,0.3-0.6c0-0.1,0-0.2,0-0.2
				c0-0.3-0.2-0.5-0.4-0.6c-0.1,0-0.1,0-0.2-0.1c-0.3-0.1-0.6,0.1-0.7,0.4c-0.2,0-0.4,0-0.5-0.1c-0.3-0.1-0.6-0.2-0.9-0.3
				c-0.9-0.4-1.8-1.1-2.4-1.9c-0.7-0.9-1-1.9-1-3c0-1.1,0.1-1.4,1-2c0.8-0.6,1.6-0.5,2.1,0.6c0.3,0.8,1.3,0.1,1-0.7
				c-0.1-0.1-0.1-0.3-0.2-0.4c0,0,0,0,0,0c0,0,0,0,0,0c0.5,1,1.2,1.9,2.1,2.5c0,0.1,0,0.3,0,0.4c-0.1,0.1-0.2,0.3-0.1,0.5
				c0.1,0.3,0.1,0.6,0.2,0.9c0,0.1-0.1,0.2,0,0.3c0,0.5,0.1,1,0.2,1.4c0.2,1,0.3,1.9,0.5,2.9c0,0,0,0.1,0,0.1
				c-0.1,0.3-0.1,0.5-0.2,0.8c-0.3,0.7-0.7,1.4-1.2,2.1c0,0.1-0.1,0.1-0.1,0.2c-0.4,0-0.9,0-1.3,0c-0.3,0-0.5,0.2-0.5,0.5
				c-0.5,0-1,0.1-1.4,0.1c-0.1-0.1-0.3-0.1-0.4-0.2c-0.7-0.4-1.3,0.7-0.6,1.1c0.2,0.1,0.3,0.2,0.5,0.3c0,0,0.1,0.1,0.1,0.1
				c3.3,2,6.6,4.2,10.1,5.8c2.5-1,5.2-1.4,7.9-1.9C89.4,142.9,86.8,141.3,84.6,139.4z"/>
			<path class="st14" d="M77.2,129.2c1.5,3.2,1,6.8-1.2,8.1s-5.2-0.3-6.8-3.5c-1.5-3.2-1-6.8,1.2-8.1S75.7,126,77.2,129.2z"/>
			<path class="st15" d="M78.5,128.6c2.1,4.4,1.4,9.3-1.6,11s-7.1-0.4-9.2-4.8c-2.1-4.4-1.4-9.3,1.6-11S76.4,124.2,78.5,128.6z"/>
			<line class="st16" x1="71.2" y1="122.6" x2="79.5" y2="122.6"/>
			<path class="st16" d="M84.8,139.5l-1.1-0.7l-8.3,2.1l8.3,4.8l3.3-0.7c1-0.2,2-0.4,2.9-0.6l1.9-0.4
				C89.4,142.9,86.9,141.3,84.8,139.5z"/>
			<path class="st12" d="M79.8,122.1c-0.7-0.3-1,1-0.3,1.2c5.3,1.8,5.6,10.3,4,15c-0.3,0.8,0.9,1.1,1.1,0.3
				C86.5,133.2,85.7,124.1,79.8,122.1z"/>
		</g>
	</g>
</g>
</svg>
