<?xml version="1.0" encoding="utf-8"?>
<!-- Generator: Adobe Illustrator 21.1.0, SVG Export Plug-In . SVG Version: 6.00 Build 0)  -->
<svg version="1.1" id="Layer_1" xmlns="http://www.w3.org/2000/svg" xmlns:xlink="http://www.w3.org/1999/xlink" x="0px" y="0px"
	 viewBox="0 0 162 162" style="enable-background:new 0 0 162 162;" xml:space="preserve">
<style type="text/css">
	.st0{fill:#102773;}
	.st1{fill:none;stroke:#102773;stroke-width:1.7582;stroke-miterlimit:10;}
	.st2{fill:none;stroke:#102773;stroke-width:2;stroke-miterlimit:10;}
	.st3{fill:none;stroke:#102773;stroke-miterlimit:10;}
	.st4{fill:#102773;stroke:#102773;stroke-width:2;stroke-miterlimit:10;}
</style>
<g>
	<polygon class="st0" points="125,82.9 125,81.2 125,79.5 125,77.9 124.2,76.1 122.3,74.4 119.8,73 116.8,71.8 114.6,70.8 
		113.4,68.3 117.9,70.2 120.1,70.9 122.7,72.2 123.9,73 122.8,70.7 125,71.8 126.4,72.7 128.2,71.7 129.6,69.9 130.3,71.1 
		129.6,73.3 131.2,71.9 133.1,71 135.1,70.6 136.8,69.7 138.5,68.3 140.5,64.3 139.2,68.5 138.1,70.3 136.4,71.6 134.1,73 
		131.8,74.1 130.8,75.2 129.8,76.9 129.4,78.9 129.4,80.9 129.5,82.3 129.6,83.9 	"/>
	<polygon class="st0" points="112.6,68.2 110.2,66.2 108.7,63.9 107.6,60.2 111.2,62.8 113.9,64.2 115.7,65.2 115.7,66.5 
		114.4,67.7 	"/>
	<polygon class="st0" points="115.4,68.2 116.7,66.3 117.7,65.4 119.1,67.5 119.9,69.5 118.1,69.5 	"/>
	<polygon class="st0" points="122,70.8 120.5,69.5 119.9,67.5 119.9,65.1 120.9,62.5 122.6,60.2 124.1,58.4 126.2,60.2 127.8,63.4 
		128.5,66.1 128.5,68 127.8,69.5 126.6,70.8 125,71.1 123.6,70.7 	"/>
	<polygon class="st0" points="129.5,67.9 130.8,66.1 132.6,67 133.2,68.8 132.7,70.1 131.4,70.8 130.4,70.1 129.5,69.1 	"/>
	<polygon class="st0" points="133.8,68.2 133.8,69.5 134.3,70 136,69.1 137.3,68.4 138.1,67.5 138.7,66.1 139.6,64.2 135.6,67.1 
		134,67.5 	"/>
	<polygon class="st0" points="116.6,65.4 115.4,64.2 114.6,63.2 114.6,60.8 114.6,57.4 114.9,54.4 115.7,52.8 117.4,52.4 
		118.5,53.6 119.9,57.4 120.7,60.5 120.7,62 119.9,63.7 119.2,65.4 117.6,64.8 	"/>
	<polygon class="st0" points="113.8,63.2 111,62 108.9,60.2 107.6,58.9 107,55.9 107,52.4 107,49.3 107.6,46.9 108.3,46.9 
		109.7,48.1 110.8,51.2 111.6,54.4 113.4,56.8 113.8,58 113.8,60.4 	"/>
	<polygon class="st0" points="129.5,66.5 128.5,64.8 127.8,63.4 128.6,60.7 130.4,57.5 132.1,54.5 134.4,56.8 135.6,59.8 
		136.2,62.2 136.4,64.2 135.6,66.1 134,67.5 133.2,67.1 132.4,66.1 130.8,66.1 	"/>
	<polygon class="st0" points="137,64.8 137,62.4 138.1,59.6 139.6,57.1 141,55.1 141.5,54.5 142.3,52.4 143,54.1 143,56.5 143,58.9 
		142.4,61 141.4,63.2 140.5,64.3 	"/>
	<polygon class="st0" points="113.4,54.5 111.9,52.8 111,50.5 109.7,48.1 109.4,46.6 109.4,44.2 109.4,41.8 110.4,39.8 111.4,38.7 
		112.4,39.4 113.1,41.2 114.2,42.7 115.4,44.5 116.2,46.6 115.4,48.7 114.9,51.7 114.6,53 114,55.6 	"/>
	<polygon class="st0" points="115.4,51.8 116.2,48.4 117,46.6 118.1,45 119,43.9 120.7,44.4 122.2,45.7 123.2,46.6 123.6,47.5 
		123.9,49.1 122.6,51.5 121.4,54.5 121,55.6 119.9,55.1 119.1,53.8 118.7,52.8 117.4,52.4 117.1,51.9 116.2,52.1 	"/>
	<polygon class="st0" points="121.7,60.2 120.7,58.6 121.7,55.6 122.9,52.4 123.9,50.2 125,48.9 125.8,48.9 127.4,50.3 128.5,51.7 
		129.5,53.1 129.9,54.5 130.5,56.2 128.9,58.9 127.4,61 126.2,60.2 125.6,59.2 124.7,58.4 124.1,58.4 122.9,58.9 	"/>
	<polygon class="st0" points="131.1,54.5 129.5,51.8 127.8,49.8 128.5,47.8 129.8,45 131.4,43.9 132.8,45.3 133.8,46.9 134.6,48.9 
		133.8,51.6 133.2,54.2 132.1,53.8 	"/>
	<polygon class="st0" points="134.1,55.6 135.4,57.4 136.4,59.2 136.7,61 137.7,58.6 139.3,56.3 140.7,54.5 140.5,52 139.6,50.1 
		139.2,48.2 138.2,47.2 136.4,46.9 135.2,48.9 134.1,52.1 134.1,54.5 	"/>
	<polygon class="st0" points="141.4,52.7 139.2,48.2 140.5,46.4 141.4,44.1 141.9,46.9 142.3,48.9 142.7,50.5 142.3,52.4 	"/>
	<polygon class="st0" points="115,42.8 113.8,40.9 112.4,39.4 113,37.6 114.3,35.2 115.7,33.8 117.6,32.8 117.6,36.9 117.3,38.7 
		116.4,41.8 116.2,43.9 	"/>
	<polygon class="st0" points="117,45.3 117,42.7 117,41.1 117.3,38.7 118.9,37 120.7,35.2 121.6,37.6 122.4,39.5 122.7,40.2 
		122.2,42.1 121.7,44.1 120.7,43.9 119,43.9 118,44.1 	"/>
	<polygon class="st0" points="125,48.9 124.2,46.9 123.2,45.9 122.7,45.3 122.7,43.6 123.1,41.2 124.2,39.1 125.6,37.2 127.8,38.4 
		128.9,40.2 130,41.5 130.5,42.7 131.4,43.9 129.8,45 128.5,46.1 127.8,47.5 127,48.4 	"/>
	<polygon class="st0" points="133.8,46.1 132.3,44.1 131.4,43 130.5,41.7 129.7,39.7 130.3,37.2 131.2,36.3 133.2,36.7 134.6,37.8 
		135.5,40.6 135.7,43 135.7,45.1 134.8,47.2 	"/>
	<polygon class="st0" points="135.7,46.2 137.4,46.2 138.5,46.4 139.2,46.4 140.5,45.1 140.5,43.3 140,41.1 138.8,38.4 137.7,36.9 
		136.4,36 135.4,36 134.6,34.8 135.3,38 136.1,39.9 136.4,41.7 136.1,44.1 	"/>
	<polygon class="st0" points="118.1,34.4 119.6,32.8 120.9,32.1 122.3,33.7 123.1,35.2 123.3,38.1 122.7,38.4 121.7,36.3 
		120.7,35.2 119,36 117.6,36.9 	"/>
	<polygon class="st0" points="122.3,32.8 123.1,31 124.7,31 125.6,32.1 126.3,32.8 125.6,35.2 125.8,36.3 124.7,37.7 123.9,37.2 
		123.1,35.2 122.3,33.7 	"/>
	<polygon class="st0" points="126.3,36.6 127.4,37.2 128.5,36.6 128.8,34.8 128.8,33.3 128.5,32.4 127.8,31.9 126.7,32.1 
		126.3,34.2 125.8,36.3 	"/>
	<polygon class="st0" points="128.5,37.9 129.2,39.3 130.2,36.3 131.2,35.8 132.1,35.8 133.2,36.7 134.1,36.6 134.1,35.2 
		132.7,33.5 131.4,32.4 130.5,31.5 129.5,31 	"/>
	<polygon class="st0" points="119.9,31.3 121.3,29.7 122.3,29 123.6,29 125.6,30.2 126.9,30.2 128.5,31.3 127.3,31 125.8,31.3 
		123.9,30.6 122.3,31.3 122.3,32.8 120.9,32.1 119.6,32.1 	"/>
</g>
<rect x="62" y="20" class="st1" width="88" height="71"/>
<circle class="st0" cx="32" cy="81" r="21"/>
<path class="st0" d="M6,162c0-33.7,11.4-61,25.5-61S57,128.3,57,162"/>
<line class="st2" x1="67" y1="33" x2="98" y2="33"/>
<line class="st3" x1="67" y1="39.5" x2="100" y2="39.5"/>
<line class="st3" x1="67" y1="42.5" x2="100" y2="42.5"/>
<line class="st3" x1="67" y1="45.5" x2="100" y2="45.5"/>
<line class="st3" x1="67" y1="48.5" x2="100" y2="48.5"/>
<line class="st3" x1="67" y1="51.5" x2="100" y2="51.5"/>
<line class="st3" x1="67" y1="54.5" x2="100" y2="54.5"/>
<line class="st3" x1="67" y1="57.5" x2="100" y2="57.5"/>
<line class="st3" x1="67" y1="60.5" x2="100" y2="60.5"/>
<line class="st3" x1="67" y1="63.5" x2="100" y2="63.5"/>
<line class="st3" x1="67" y1="66.5" x2="100" y2="66.5"/>
<line class="st3" x1="67" y1="69.5" x2="100" y2="69.5"/>
<circle class="st0" cx="93" cy="130" r="19"/>
<circle class="st0" cx="137" cy="130" r="19"/>
<path class="st0" d="M74,162c0-7.7,8.5-14,19-14s19,6.3,19,14"/>
<path class="st0" d="M119,162c0-7.7,8.5-14,19-14s19,6.3,19,14"/>
<line class="st4" x1="80.1" y1="90.1" x2="94.1" y2="58.4"/>
<rect x="36" y="118" class="st4" width="27" height="9"/>
<rect x="65" y="94" transform="matrix(0.866 0.5 -0.5 0.866 64.4273 -19.4458)" class="st4" width="7" height="33"/>
<ellipse transform="matrix(0.5 -0.866 0.866 0.5 -37.9423 114.282)" class="st4" cx="80" cy="90" rx="6" ry="5"/>
</svg>
