<svg id="Layer_1" data-name="Layer 1" xmlns="http://www.w3.org/2000/svg" viewBox="0 0 162.45 162.45"><defs><style>.cls-1,.cls-2{fill:#f2f2f2;}.cls-1,.cls-3,.cls-4{stroke:#102773;stroke-miterlimit:10;}.cls-1{stroke-width:6.45px;}.cls-3,.cls-4{fill:none;}.cls-3{stroke-width:5.68px;}.cls-4{stroke-width:2px;}</style></defs><title>Electric_rail_network</title><rect class="cls-1" x="3.22" y="3.22" width="156" height="156"/><rect class="cls-2" x="40.22" y="115.22" width="4" height="10"/><rect class="cls-2" x="56.22" y="115.22" width="4" height="10"/><rect class="cls-2" x="104.22" y="115.22" width="4" height="10"/><rect class="cls-2" x="120.22" y="115.22" width="4" height="10"/><path class="cls-3" d="M17.32,102.64A78.27,78.27,0,0,1,16,88.28C16,48.91,45.1,17,81,17s65,31.91,65,71.28a78.39,78.39,0,0,1-1.11,13.18" transform="translate(0.22 0.22)"/><rect class="cls-3" x="41.76" y="44.54" width="76.14" height="75.93" rx="12" ry="12"/><line class="cls-3" x1="41.76" y1="82.5" x2="117.9" y2="82.5"/><line class="cls-3" x1="79.83" y1="44.54" x2="79.83" y2="82.5"/><ellipse class="cls-3" cx="58.47" cy="104.72" rx="10.68" ry="10.65"/><ellipse class="cls-3" cx="101.12" cy="104.65" rx="10.68" ry="10.65"/><line class="cls-3" x1="53.37" y1="120" x2="42.22" y2="142.22"/><line class="cls-3" x1="107.22" y1="120" x2="118.37" y2="141.83"/><line class="cls-4" x1="80.72" y1="42.23" x2="80.72" y2="17.21"/></svg>