<svg id="Layer_1" data-name="Layer 1" xmlns="http://www.w3.org/2000/svg" viewBox="0 0 162.45 162.45"><defs><style>.cls-1,.cls-2{fill:#f2f2f2;}.cls-1,.cls-4,.cls-5,.cls-6{stroke:#102773;stroke-miterlimit:10;}.cls-1{stroke-width:6.45px;}.cls-3{fill:#102773;}.cls-4,.cls-5,.cls-6{fill:none;}.cls-4{stroke-width:4px;}.cls-6{stroke-width:2px;}</style></defs><title>Electric_bus_network</title><rect class="cls-1" x="3.22" y="3.22" width="156" height="156"/><rect class="cls-2" x="40.22" y="115.22" width="4" height="10"/><rect class="cls-2" x="56.22" y="115.22" width="4" height="10"/><rect class="cls-2" x="104.22" y="115.22" width="4" height="10"/><rect class="cls-2" x="120.22" y="115.22" width="4" height="10"/><rect class="cls-3" x="49.22" y="130.22" width="13" height="18" rx="6.5" ry="6.5"/><rect class="cls-3" x="104.22" y="130.22" width="13" height="18" rx="6.5" ry="6.5"/><rect class="cls-3" x="34" y="52.81" width="9.68" height="17.66" rx="3.73" ry="3.73" transform="translate(77.9 123.51) rotate(-180)"/><polygon class="cls-3" points="45.23 50.3 38.19 50.3 38.19 60.65 41.7 60.65 41.7 51.52 45.23 51.52 45.23 50.3"/><path class="cls-4" d="M47.66,49.69h71.14V125.2s-.68,7.92-5.42,7.31" transform="translate(0.22 0.22)"/><path class="cls-4" d="M118.12,49.69H47V125.2s.68,7.92,5.42,7.31h61" transform="translate(0.22 0.22)"/><path class="cls-4" d="M118,121.62l-71.14-.15L47,87.36,47.05,46s.69-7.91,5.44-7.3" transform="translate(0.22 0.22)"/><path class="cls-4" d="M47.57,121.47l71.14.15.07-34.1.09-41.41s-.66-7.92-5.4-7.32l-61-.13" transform="translate(0.22 0.22)"/><path class="cls-3" d="M117.08,106a11,11,0,0,0,1.14-4.13q2.24-27.55,2.19-55.19c0-5.21-4.14-8.54-9-9A247.23,247.23,0,0,0,72.16,37c-5.76.37-13.13.1-18.52,2.27-7.24,2.92-6.43,10.75-6.4,17.19a8.59,8.59,0,0,0,.46,2.66,8.94,8.94,0,0,0-.23,2.41q.54,15,.4,30c-.09,10-1,20.18-.51,30.17.23,5,2.5,10.08,7.77,11.53,4.36,1.2,9.73-.17,14.12-.66,2.17-.24,4.33-.49,6.46-.8.2,0,.39,0,.59,0q8.08.26,16.17.32c4.51,0,9.73.59,14.35-.13a6.86,6.86,0,0,0,.69.27,8.14,8.14,0,0,0,6.93,0,6.75,6.75,0,0,0,2.9-1.86A9.06,9.06,0,0,0,120,124a9.67,9.67,0,0,0-1.86-5.45C118.28,114.37,117.55,109.83,117.08,106Z" transform="translate(0.22 0.22)"/><rect class="cls-2" x="49.22" y="48.22" width="68" height="39"/><circle class="cls-2" cx="56.72" cy="110.72" r="8.5"/><circle class="cls-2" cx="108.72" cy="110.72" r="8.5"/><ellipse class="cls-2" cx="56.71" cy="126.96" rx="4.4" ry="4.39" transform="translate(-64.91 60.19) rotate(-37.13)"/><ellipse class="cls-2" cx="108.71" cy="126.96" rx="4.4" ry="4.39" transform="translate(-54.37 91.58) rotate(-37.13)"/><rect class="cls-3" x="122.54" y="53.04" width="9.68" height="17.66" rx="3.73" ry="3.73"/><polygon class="cls-3" points="121.22 50.3 128.26 50.3 128.26 60.65 124.75 60.65 124.75 51.52 121.22 51.52 121.22 50.3"/><line class="cls-5" x1="101.4" y1="88.4" x2="85.82" y2="71.96"/><line class="cls-5" x1="85.82" y1="61" x2="85.82" y2="84.14"/><line class="cls-5" x1="64.82" y1="88.4" x2="80.4" y2="71.96"/><line class="cls-5" x1="80.4" y1="61" x2="80.4" y2="84.14"/><rect class="cls-5" x="63.46" y="87.79" width="3.39" height="1.22" rx="0.61" ry="0.61"/><rect class="cls-5" x="99.37" y="87.79" width="3.39" height="1.22" rx="0.61" ry="0.61"/><line class="cls-6" x1="120.22" y1="108.22" x2="146.22" y2="108.22"/><line class="cls-6" x1="145.22" y1="108.22" x2="145.22" y2="24.22"/><line class="cls-6" x1="146.22" y1="23.22" x2="42.22" y2="23.22"/><rect class="cls-3" x="33.22" y="14.22" width="22" height="18" rx="9" ry="9"/><rect class="cls-3" x="24.22" y="17.22" width="14" height="3"/><rect class="cls-3" x="24.22" y="25.22" width="14" height="3"/><rect class="cls-3" x="33.22" y="14.22" width="7" height="18"/></svg>