<?xml version="1.0" encoding="utf-8"?>
<!-- Generator: Adobe Illustrator 21.1.0, SVG Export Plug-In . SVG Version: 6.00 Build 0)  -->
<svg version="1.1" xmlns="http://www.w3.org/2000/svg" xmlns:xlink="http://www.w3.org/1999/xlink" x="0px" y="0px"
	 viewBox="0 0 162 162" style="enable-background:new 0 0 162 162;" xml:space="preserve">
<style type="text/css">
	.st0{fill:#102773;stroke:#102773;stroke-width:0.9813;stroke-miterlimit:10;}
	.st1{fill:#102773;}
	.st2{fill:#FCFCFC;}
	.st3{fill:#4365AA;stroke:#4365AA;stroke-width:0.9713;stroke-miterlimit:10;}
	.st4{fill:#4365AA;}
	.st5{fill:#FFFFFF;}
	.st6{fill:#F9F9F9;stroke:#102773;stroke-width:0.9713;stroke-miterlimit:10;}
	.st7{fill:#FCFCFC;stroke:#102773;stroke-width:0.9713;stroke-miterlimit:10;}
	.st8{fill:none;stroke:#F9F9F9;stroke-width:0.9713;stroke-miterlimit:10;}
	.st9{fill:none;stroke:#102773;stroke-width:0.9713;stroke-miterlimit:10;}
	.st10{fill:#102773;stroke:#102773;stroke-width:2.4206;stroke-miterlimit:10;}
	.st11{fill:#FFFFFF;stroke:#102773;stroke-width:0.9713;stroke-miterlimit:10;}
	.st12{fill:none;stroke:#102773;stroke-width:1.9425;stroke-miterlimit:10;}
	.st13{fill:none;stroke:#102773;stroke-miterlimit:10;}
</style>
<g id="Layer_1">
	<ellipse class="st0" cx="81" cy="81" rx="78.5" ry="79.5"/>
	<ellipse class="st1" cx="81" cy="81.1" rx="73.5" ry="74.4"/>
	<ellipse class="st2" cx="81" cy="81" rx="72" ry="73"/>
</g>
<g id="color">
</g>
<g id="icon">
	<path class="st3" d="M44.3,53.3c-0.2-2.2-3.2-2.5-3.8-0.8c-0.2,0.3-0.3,0.6-0.3,1.1l-0.1,59.2c0,2.5,3.9,2.5,3.9,0
		c0-17.5,0.1-35.1,0.1-52.6c0,0,0-0.1,0-0.1C44.4,57.8,44.4,55.6,44.3,53.3z"/>
	<path class="st4" d="M123.2,52.5c-0.1-2.5-4-2.5-3.9,0c0,0.9,0.1,1.7,0.1,2.6c-0.5,0.3-0.9,0.8-1,1.6c-0.2,5.9-0.1,11.7,0.2,17.5
		c0,0.1,0,0.2,0,0.4c0.1,2.4,0.2,4.8,0.2,7.2c-0.1,0.2-0.1,0.5-0.2,0.8c-0.1,4.8,0,9.5,0.4,14.2c0,0.4,0.1,0.7,0.3,1
		c-0.2,4.1-0.4,8.2-0.6,12.3c-0.3,0.4-0.5,0.9-0.4,1.6c0.1,0.6,0.2,1.2,0.3,1.8c0.4,2.3,3.7,1.5,3.8-0.5
		C123.8,92.8,124,72.6,123.2,52.5z"/>
	<path class="st5" d="M118,112.8c-2.9-3.8-5.8-7.7-8.6-11.6c-0.1-0.3-0.2-0.6-0.4-0.8c-1.7-2.2-3.4-4.5-5-6.8c0-0.9-0.4-1.7-1.3-2.3
		h4.7V91h0.2V42.2l-0.2,0.2V42H56.1v47.7L54.7,91h1.4v0.2h4.1c0,0-0.1,0.1-0.1,0.1c-0.7,0.2-1,0.9-1.1,1.5c-2.4,2.1-4.1,5.1-5.9,7.7
		c-2.9,4-5.7,8.1-8.6,12.1c-1.4,2,1.7,3.8,3.2,2.2c0.7,0.6,1.9,0.8,2.7,0c0.4,1.3,2,2.1,3,0.8c0.2-0.3,0.4-0.5,0.6-0.8
		c0.6,1.1,2,1.7,2.9,0.5c0.2-0.2,0.4-0.5,0.6-0.7c0.5,1.2,2,1.9,3,0.6c0.2-0.2,0.3-0.4,0.5-0.6c0.2,1.4,2.5,2.3,3.7,0.7
		c0.3-0.4,0.6-0.8,0.9-1.2c0.1,0,0.2,0,0.2,0c0.3,0.2,0.7,0.4,1.1,0.3c14.3-0.1,28.6-0.3,42.9-0.4c0.5,0,1-0.2,1.3-0.4
		c0,0.1,0.1,0.1,0.1,0.2c0.8,1.1,2.2,1,3,0.4c0.1,0.2,0.2,0.3,0.4,0.5C116.1,116.7,119.5,114.8,118,112.8z"/>
	<polyline class="st6" points="118.6,114 118.6,52 103.2,43.2 103.2,91.5 118.6,114 	"/>
	<polyline class="st7" points="44,113.7 44,51.8 59.5,43 59.5,91.3 44,113.7 	"/>
	<polyline class="st8" points="39.7,113.3 39.7,50.3 55.2,43 	"/>
	<polyline class="st9" points="123.3,113.3 123.3,50.3 107.8,43 	"/>
	<polygon class="st10" points="33.4,51.1 128.1,51.1 80.8,13 	"/>
	<rect x="33.9" y="51.6" class="st11" width="5.8" height="61.5"/>
	<rect x="123.8" y="51.6" class="st7" width="5.8" height="61.5"/>
	<rect x="33.4" y="113.5" class="st12" width="95.7" height="2"/>
	<line class="st9" x1="33.9" y1="56.4" x2="39.7" y2="56.4"/>
	<line class="st9" x1="33.9" y1="62.3" x2="39.7" y2="62.3"/>
	<line class="st9" x1="33.9" y1="67.2" x2="39.7" y2="67.2"/>
	<line class="st9" x1="33.9" y1="73" x2="39.7" y2="73"/>
	<line class="st9" x1="33.9" y1="77.9" x2="39.7" y2="77.9"/>
	<line class="st9" x1="33.9" y1="82.8" x2="39.7" y2="82.8"/>
	<line class="st9" x1="33.9" y1="86.7" x2="39.7" y2="86.7"/>
	<line class="st9" x1="33.9" y1="91.6" x2="39.7" y2="91.6"/>
	<line class="st9" x1="33.9" y1="95.5" x2="39.7" y2="95.5"/>
	<line class="st9" x1="33.9" y1="99.4" x2="39.7" y2="99.4"/>
	<line class="st9" x1="33.9" y1="103.3" x2="39.7" y2="103.3"/>
	<line class="st9" x1="33.9" y1="108.2" x2="39.7" y2="108.2"/>
	<line class="st9" x1="36.8" y1="51.6" x2="36.8" y2="56.4"/>
	<line class="st9" x1="36.8" y1="62.3" x2="36.8" y2="67.2"/>
	<line class="st9" x1="36.8" y1="73" x2="36.8" y2="77.9"/>
	<line class="st9" x1="36.8" y1="82.8" x2="36.8" y2="86.7"/>
	<line class="st9" x1="36.8" y1="91.6" x2="36.8" y2="95.5"/>
	<line class="st9" x1="36.8" y1="99.4" x2="36.8" y2="103.3"/>
	<line class="st9" x1="36.8" y1="108.2" x2="36.8" y2="114"/>
	<line class="st9" x1="123.8" y1="56.4" x2="129.6" y2="56.4"/>
	<line class="st9" x1="123.8" y1="61.3" x2="129.6" y2="61.3"/>
	<line class="st9" x1="123.8" y1="66.2" x2="129.6" y2="66.2"/>
	<line class="st9" x1="123.8" y1="71.1" x2="129.6" y2="71.1"/>
	<line class="st9" x1="123.8" y1="76" x2="129.6" y2="76"/>
	<line class="st9" x1="123.8" y1="80.8" x2="129.6" y2="80.8"/>
	<line class="st9" x1="123.8" y1="84.8" x2="129.6" y2="84.8"/>
	<line class="st9" x1="123.8" y1="88.7" x2="129.6" y2="88.7"/>
	<line class="st9" x1="123.8" y1="92.6" x2="129.6" y2="92.6"/>
	<line class="st9" x1="123.8" y1="97.4" x2="129.6" y2="97.4"/>
	<line class="st9" x1="123.8" y1="102.3" x2="129.6" y2="102.3"/>
	<line class="st9" x1="123.8" y1="108.2" x2="129.6" y2="108.2"/>
	<line class="st9" x1="126.7" y1="51.6" x2="126.7" y2="56.4"/>
	<line class="st9" x1="126.7" y1="61.3" x2="126.7" y2="66.2"/>
	<line class="st9" x1="126.7" y1="71.1" x2="126.7" y2="76"/>
	<line class="st9" x1="126.7" y1="80.8" x2="126.7" y2="84.8"/>
	<line class="st9" x1="126.7" y1="88.7" x2="126.7" y2="92.6"/>
	<line class="st9" x1="126.7" y1="97.4" x2="126.7" y2="102.3"/>
	<line class="st9" x1="126.7" y1="108.2" x2="126.7" y2="113.1"/>
	<polygon class="st1" points="35,121.4 32.4,121.3 33.7,119.2 35.1,117 36.3,119.2 37.5,121.4 	"/>
	<line class="st9" x1="34.9" y1="120.4" x2="34.9" y2="136"/>
	<line class="st9" x1="41.6" y1="120.4" x2="41.6" y2="136"/>
	<line class="st9" x1="48.4" y1="120.4" x2="48.4" y2="136"/>
	<polygon class="st1" points="41.7,121.4 39.2,121.3 40.5,119.2 41.8,117 43.1,119.2 44.3,121.4 	"/>
	<polygon class="st1" points="48.5,121.4 45.9,121.3 47.3,119.2 48.6,117 49.8,119.2 51.1,121.4 	"/>
	<path class="st4" d="M120.3,99c0-0.4,0-0.8,0-1.2c0-0.3-0.2-0.4-0.4-0.5c-0.3-0.4-1-0.1-0.9,0.4c0.1,0.3,0.1,0.6,0.2,0.8
		c0,1.1,0,2.2,0,3.3c0,0.4,0.4,0.6,0.7,0.4c0.3,0.2,0.8,0.1,0.8-0.4C120.6,100.9,120.4,99.9,120.3,99z"/>
	<path class="st4" d="M120,52.6c0.1-0.3-0.1-0.6-0.5-0.6c-0.4,0-0.5,0.3-0.5,0.6c0,0.1,0,0.1,0,0.2v2.4c0,0.6,1,0.6,1,0v-2.4
		C120,52.7,120,52.7,120,52.6z"/>
	<path class="st4" d="M122.8,104c0-0.6-1-0.6-1,0c0.2,2.7,0.3,5.4,0.4,8.2c0,0.6,1,0.6,1,0C123.1,109.4,122.9,106.7,122.8,104z"/>
	<line class="st13" x1="60" y1="91" x2="103" y2="91"/>
</g>
</svg>
