<?xml version="1.0" encoding="utf-8"?>
<!-- Generator: Adobe Illustrator 21.1.0, SVG Export Plug-In . SVG Version: 6.00 Build 0)  -->
<svg version="1.1" xmlns="http://www.w3.org/2000/svg" xmlns:xlink="http://www.w3.org/1999/xlink" x="0px" y="0px"
	 viewBox="0 0 162 162" style="enable-background:new 0 0 162 162;" xml:space="preserve">
<style type="text/css">
	.st0{fill:#102773;}
	.st1{fill:#FFFFFF;}
</style>
<g id="colour">
</g>
<g id="colour_1_">
</g>
<g id="Layer_1">
	<path class="st0" d="M80.5,112c-14.9,0-27-10.5-27-23.5S65.6,65,80.5,65"/>
	<path class="st0" d="M82,112c14.9,0,27-10.5,27-23.5S96.9,65,82,65"/>
	<path class="st0" d="M78.7,60.2c0.6-2.7,5.7-6.8,8.8-8.8c3.2-2,8.8-4.6,9.5-2.3c0.7,2.2-3.6,8.4-8,11.5
		C83.5,64.3,78,63.3,78.7,60.2z"/>
	<path class="st0" d="M80.6,63.1c-2.7,0-7.8-4.3-10.3-7c-2.6-2.8-6.1-7.8-4.1-8.8c2-1.1,8.9,1.9,12.8,5.7
		C83.7,57.6,83.7,63.2,80.6,63.1z"/>
	<ellipse class="st1" cx="76" cy="89.5" rx="2" ry="6.5"/>
	<ellipse class="st1" cx="87" cy="89.5" rx="2" ry="6.5"/>
</g>
<g id="rsayas">
	<path class="st0" d="M125,106.7c-2.6-1.2-4.9-0.7-7.2,0.4c-0.6-0.9-1.7-1.5-3.1-1.2c-2,0.5-3.8,1.3-5.5,2.3c-0.9-0.7-2-1-3.3-0.4
		c-5.4,2.3-9.9,5.9-13.5,10.4c-3.9,0-7.8-0.2-11.6-0.7c-7.5-0.9-14.9-3.7-22.5-3.2c-6.5,0.4-11.9,3.6-17.1,7.2
		c-6.7,4.8-13.4,9.6-20.1,14.4c-2,1.5-1.4,4.2,0.1,5.3c-0.1,0.6-0.1,1.3,0.3,2c2.4,4.9,4.9,9.7,7.3,14.6c1.3,2.5,4.7,1.5,5.5-0.7
		c3.2-8.8,12.2-13.5,21-14.8c10.2-1.5,20.4,2.3,30.5,0.7c8.5-1.4,15.7-7.3,22-12.7c3.5-3.1,6.9-6.3,10.3-9.6c3-3,6.2-5.9,8.1-9.8
		C126.7,109.4,126.6,107.4,125,106.7z"/>
	<path class="st0" d="M126.7,107.9c-1.5-3.8-4.8-3.7-8.5-2c-0.1-0.1-0.2-0.2-0.3-0.3c-2.9-1.6-5.6-0.6-8.2,1.1
		c-0.1,0.1-0.2,0.2-0.4,0.3c-0.1-0.1-0.3-0.2-0.5-0.3c-3-0.7-5.4,0.7-7.9,2.2c-3,1.9-5.9,4.1-8.6,6.5c-0.2,0.2-0.3,0.5-0.3,0.7
		c-5.4-0.1-10.8,0.3-16.1-0.5c-5.3-0.8-10.6-2.6-16.1-2.6c-11.3-0.1-20.5,8.7-29.1,15c-0.2,0-0.3,0.1-0.5,0.2
		c-3.6,3.2-8.3,5.3-12.4,7.8c-0.7,0.4-0.6,1.2-0.1,1.6c0,0.1,0,0.2,0.1,0.3c4.3,7.5,8.4,15.2,12.2,23c0.4,0.9,1.5,0.5,1.8-0.2
		c0.1,0,0.2-0.1,0.3-0.2c4.8-4.9,8.6-11.2,14.6-14.8c6.8-4.1,14.9-3.5,22.4-2.7c6.4,0.7,13,1.6,19.4,0.2c5.9-1.3,10.8-4.7,15.5-8.5
		c5.7-4.5,11-9.5,15.9-14.9C122.4,117.3,128.4,112.2,126.7,107.9z M116.2,107.1c-5.7,3.4-11.7,9.7-13.3,11.4
		c-0.1,0.1-0.1,0.2-0.1,0.2c-0.9-0.8-2-1.3-3.2-1.7c2.6-2.2,5.2-4.2,8-6.2C109.8,109.1,113.1,106.1,116.2,107.1z M100.8,124.3
		c-1.7,0.1-7.2,0.5-6.9-1.2c0.3-1.3,2.4-1.6,4.4-1.7c1.2-0.4,3.1-0.3,3.5,1.2c0.1,0.5,0,1.1-0.5,1.4
		C101.2,124.2,101,124.2,100.8,124.3C100.8,124.3,100.8,124.3,100.8,124.3z M100.2,111.9c2-1.3,4.5-3.3,7-3.4
		c-3.1,2.2-6.1,4.6-9.1,7.1c-0.4,0.3-0.4,0.7-0.3,1c-0.6-0.1-1.2-0.2-1.9-0.3c-0.5,0-1-0.1-1.4-0.1
		C96.3,114.7,98.2,113.3,100.2,111.9z M122.4,114c-0.2,0.2-0.3,0.4-0.5,0.6c-0.9,1.1-1.9,2.2-2.9,3.3c-1.8,1.9-3.6,3.8-5.4,5.7
		c-8.7,8.6-18.5,18.1-31.4,18.4c-10.1,0.3-20.4-3.1-30.4-0.5c-9.4,2.5-14.3,10.6-20.7,17.2c-3.6-7.3-7.3-14.4-11.4-21.4
		c3.8-2.2,7.9-4.2,11.3-7c0.1,0,0.2-0.1,0.3-0.1c6.7-4.9,13.9-11.7,21.9-14.2c8.6-2.7,17.4,1.4,26,2.2c4.4,0.4,8.9,0.1,13.3,0.2
		c1.5,0,4.5-0.1,5.8,0.5c0.2,0.2,0.3,0.5,0.4,0.7c-1.4,0-2.8,0-4,0.5c-1.4,0.5-3.1,1.9-3.2,3.5c-0.2,3.2,5.6,3.1,8.4,2.9
		c-0.5,0.5-1.3,0.8-2.3,1c-1.7,0.4-3.3,0.6-5,0.6c-7.7,0.2-14.9-1.5-22.6,0.2c-1.3,0.3-0.7,2.2,0.5,1.9c6.3-1.4,12.2-0.6,18.5-0.2
		c4.1,0.2,9.9,0.4,13.4-2.3c2.2-1.7,2.9-4.3,1.6-6.9c-0.1-0.1-0.2-0.3-0.3-0.4c0.1,0,0.3-0.1,0.4-0.3c3.2-3.4,7.6-8.4,12.1-10.8
		c0-0.1,0.1-0.3,0.2-0.3c1.7-0.8,3.5-2.4,5.5-2.2c1.3,0.1,2.8,1,3.1,2.4C125.6,110.9,124,112.6,122.4,114z"/>
	<path class="st1" d="M103,120.9c-0.3-0.4-0.7-0.8-1.1-1c0-0.2-0.1-0.3-0.4-0.3c-2.4-0.4-7.8-0.2-8.8,2.8c-1.1,3.4,5,3.6,6.9,3.4
		C101.9,125.6,104.8,123.4,103,120.9z M102.2,123.5c-0.6,1.3-2.4,1.4-3.6,1.4c-0.9,0-2.2,0.1-3-0.3c-1-0.1-1.5-0.8-1.5-2.1
		c1.5-0.8,3-1.4,4.6-1.7C100.2,120.4,103.6,120.7,102.2,123.5z"/>
	<path class="st1" d="M119.5,105.7c-6.3,3.3-11.8,7.7-16.3,13.1c0,0,0,0,0,0c-1.2-1.2-2.7-1.9-4.5-2.2c3.9-3.4,8-7.5,12.8-9.4
		c0.6-0.2,0.3-1.2-0.3-1c-5.2,2.1-9.5,6.5-13.7,10.1c0,0,0,0,0,0.1c-2.6-0.4-5.4-0.1-7.5,0.1c-0.6,0.1-0.6,1.1,0,1
		c3.7-0.5,10.7-1,13.1,2.7c1.5,2.3-0.1,5.2-2.2,6.5c-1.9,1.2-4.3,1.5-6.6,1.6c-8.1,0.5-16.1-1.3-24.1,0.1c-0.6,0.1-0.4,1.1,0.3,1
		c6.1-1.1,12.2-0.3,18.3,0c4.2,0.2,9.8,0.6,13.4-2.2c2.3-1.8,3.3-5,1.7-7.4c4.5-5.4,9.9-9.8,16.2-13
		C120.6,106.3,120.1,105.4,119.5,105.7z"/>
	<path class="st0" d="M35.3,52.2c2.6,1.3,4.9,0.8,7.2-0.3c0.6,0.9,1.7,1.6,3.1,1.3c2-0.4,3.8-1.2,5.5-2.2c0.8,0.7,2,1,3.2,0.5
		c5.4-2.2,10-5.7,13.8-10c3.9,0.1,7.8,0.4,11.6,1c7.4,1.1,14.8,4,22.4,3.8c6.5-0.2,12-3.2,17.2-6.8c6.9-4.6,13.6-9.3,20.4-13.9
		c2.1-1.4,1.5-4.2,0-5.3c0.1-0.6,0.1-1.3-0.2-2c-2.3-4.9-4.6-9.8-6.9-14.7c-1.2-2.5-4.6-1.6-5.5,0.6c-3.5,8.7-12.5,13.2-21.4,14.3
		c-10.2,1.2-20.4-2.8-30.4-1.4c-8.5,1.1-15.9,6.9-22.3,12.2c-3.6,3-7.1,6.2-10.5,9.4c-3.1,2.9-6.4,5.7-8.3,9.6
		C33.7,49.4,33.8,51.4,35.3,52.2z"/>
	<path class="st0" d="M33.6,50.9c1.4,3.8,4.7,3.9,8.4,2.2c0.1,0.1,0.2,0.2,0.3,0.3c2.9,1.7,5.6,0.8,8.3-0.9c0.1-0.1,0.2-0.2,0.4-0.2
		c0.1,0.1,0.3,0.2,0.5,0.3c3,0.8,5.4-0.5,8-2c3.1-1.8,6-4,8.8-6.2c0.3-0.2,0.3-0.5,0.3-0.7c5.4,0.3,10.8-0.1,16.1,0.9
		c5.3,1,10.5,2.8,16,3c11.3,0.4,20.7-8.2,29.5-14.3c0.2,0,0.3-0.1,0.5-0.2c3.6-3.1,8.4-5.1,12.6-7.4c0.7-0.4,0.6-1.2,0.2-1.6
		c0-0.1,0-0.2-0.1-0.3c-4.1-7.6-8-15.4-11.6-23.3c-0.4-0.9-1.5-0.6-1.8,0.2c-0.1,0-0.2,0.1-0.3,0.2c-4.9,4.8-8.9,11-15,14.4
		c-6.9,3.9-15,3.1-22.5,2.1c-6.4-0.8-13-2-19.4-0.7c-6,1.1-10.9,4.4-15.7,8.1c-5.8,4.4-11.2,9.2-16.2,14.5
		C38.2,41.7,32.1,46.5,33.6,50.9z M44.2,52c5.8-3.3,11.9-9.4,13.6-11.1c0.1-0.1,0.1-0.1,0.1-0.2c0.9,0.8,2,1.4,3.2,1.8
		c-2.7,2.1-5.4,4.1-8.1,6C50.6,50.1,47.3,53.1,44.2,52z M60,35.2c1.7-0.1,7.2-0.3,6.9,1.3c-0.3,1.3-2.5,1.6-4.5,1.6
		c-1.2,0.4-3.1,0.2-3.4-1.3c-0.1-0.5,0-1.1,0.5-1.4C59.6,35.3,59.8,35.3,60,35.2C60,35.2,60,35.2,60,35.2z M60.3,47.6
		c-2,1.3-4.6,3.2-7.1,3.2c3.2-2.1,6.3-4.5,9.3-6.8c0.4-0.3,0.4-0.7,0.3-1c0.6,0.1,1.2,0.2,1.9,0.3c0.5,0.1,1,0.1,1.4,0.1
		C64.2,44.9,62.3,46.3,60.3,47.6z M38.1,44.9c0.2-0.2,0.3-0.4,0.5-0.6c1-1.1,2-2.1,3-3.2c1.8-1.9,3.7-3.7,5.6-5.5
		C56,27.2,66,18,78.9,18c10.1,0,20.3,3.6,30.4,1.3c9.5-2.2,14.6-10.2,21.1-16.7c3.4,7.3,7,14.6,10.8,21.7c-3.9,2.1-8,4-11.5,6.7
		c-0.1,0-0.2,0.1-0.3,0.1c-6.8,4.7-14.2,11.3-22.3,13.6c-8.7,2.4-17.4-1.9-25.9-2.8c-4.4-0.5-8.9-0.3-13.3-0.5
		c-1.5-0.1-4.5,0-5.8-0.7c-0.2-0.3-0.3-0.5-0.4-0.7c1.4,0,2.8,0,4-0.4c1.4-0.4,3.1-1.8,3.3-3.4c0.3-3.2-5.5-3.2-8.3-3.1
		c0.5-0.5,1.3-0.8,2.3-0.9c1.7-0.3,3.3-0.5,5-0.5c7.7,0,14.9,1.9,22.6,0.4c1.3-0.2,0.8-2.2-0.5-1.9c-6.3,1.2-12.2,0.3-18.5-0.2
		c-4.1-0.3-9.8-0.7-13.4,2c-2.3,1.7-3,4.3-1.7,6.9c0.1,0.1,0.2,0.3,0.2,0.4c-0.1,0-0.3,0.1-0.4,0.2c-3.3,3.3-7.8,8.2-12.4,10.5
		c0,0.1-0.1,0.3-0.3,0.3c-1.7,0.8-3.5,2.3-5.5,2.1c-1.3-0.1-2.8-1.1-3-2.5C34.9,48,36.5,46.2,38.1,44.9z"/>
	<path class="st1" d="M57.7,38.5c0.3,0.5,0.7,0.8,1.1,1c0,0.2,0.1,0.3,0.3,0.4c2.4,0.4,7.8,0.4,8.9-2.6c1.2-3.3-4.9-3.7-6.8-3.6
		C58.9,33.8,56,36,57.7,38.5z M58.6,36c0.7-1.3,2.4-1.3,3.6-1.3c0.9,0,2.2,0,3,0.4c1,0.1,1.5,0.9,1.5,2.2c-1.5,0.7-3,1.4-4.7,1.6
		C60.5,39.1,57.2,38.7,58.6,36z"/>
	<path class="st1" d="M40.8,53.3c6.4-3.1,12-7.4,16.6-12.7c0,0,0,0,0,0c1.1,1.2,2.7,1.9,4.4,2.3c-4,3.3-8.2,7.3-13,9.1
		c-0.6,0.2-0.4,1.2,0.2,1c5.2-2,9.7-6.2,14-9.8c0,0,0,0,0-0.1c2.6,0.4,5.3,0.3,7.5,0.1c0.6-0.1,0.7-1.1,0-1c-3.7,0.4-10.7,0.8-13-3
		c-1.4-2.4,0.2-5.2,2.4-6.4c2-1.2,4.4-1.3,6.6-1.4c8.1-0.2,16,1.7,24.1,0.5c0.6-0.1,0.4-1.1-0.2-1c-6.1,0.9-12.2,0-18.3-0.4
		c-4.2-0.3-9.8-0.8-13.4,1.9c-2.3,1.7-3.4,4.9-1.9,7.4c-4.6,5.3-10.2,9.5-16.5,12.6C39.8,52.7,40.2,53.6,40.8,53.3z"/>
</g>
</svg>
