<?xml version="1.0" encoding="utf-8"?>
<!-- Generator: Adobe Illustrator 21.1.0, SVG Export Plug-In . SVG Version: 6.00 Build 0)  -->
<svg version="1.1" id="Layer_1" xmlns="http://www.w3.org/2000/svg" xmlns:xlink="http://www.w3.org/1999/xlink" x="0px" y="0px"
	 viewBox="0 0 162 162" style="enable-background:new 0 0 162 162;" xml:space="preserve">
<style type="text/css">
	.st0{fill:#102773;}
	.st1{fill:#102773;stroke:#FCFCFC;stroke-width:1.08;stroke-miterlimit:10;}
	.st2{fill:#102773;stroke:#FDFFFF;stroke-width:1.1059;stroke-miterlimit:10;}
	.st3{fill:#79BBCE;stroke:#FCFCFC;stroke-width:0.8311;stroke-miterlimit:10;}
	.st4{fill:#FCFCFC;}
	.st5{fill:none;stroke:#FFFFFF;stroke-width:0.8311;stroke-miterlimit:10;}
	.st6{fill:#102773;stroke:#FCFCFC;stroke-width:0.7392;stroke-miterlimit:10;}
	.st7{fill:#102773;stroke:#FCFCFC;stroke-width:0.947;stroke-miterlimit:10;}
	.st8{fill:#102773;stroke:#FCFCFC;stroke-width:0.9091;stroke-miterlimit:10;}
	.st9{fill:#102773;stroke:#FCFCFC;stroke-width:0.9582;stroke-miterlimit:10;}
	.st10{fill:#102773;stroke:#FCFCFC;stroke-width:0.8311;stroke-miterlimit:10;}
	.st11{fill:none;stroke:#FDFFFF;stroke-width:1.1059;stroke-miterlimit:10;}
</style>
<rect x="113.5" y="108.8" class="st0" width="4.2" height="44.2"/>
<rect x="137.8" y="83.4" transform="matrix(-1 -1.224647e-16 1.224647e-16 -1 279.7761 207.6855)" class="st0" width="4.2" height="40.9"/>
<rect x="74.4" y="85.6" class="st0" width="4.2" height="40.9"/>
<polygon class="st1" points="71.9,80.3 104.4,59.6 139.6,77.7 116.3,106.5 "/>
<polygon class="st2" points="104.5,60.3 101,13 135.1,21.6 139.1,77.6 "/>
<path class="st0" d="M12,51.9c0.1-0.5,0.3-0.8,0.6-1.1c0.2-1,0.5-2,0.8-3c0-0.4,0-0.7,0.1-1.1c0.3-1.8,0.6-3.6,1-5.3
	c0.2-0.7,0.5-1.3,0.9-1.8c-0.1-1.1,0.3-2.1,0.8-2.9c-0.1-0.4-0.1-0.8,0-1.1c0.3-1.1,1.4-1.8,2.5-1.5l0.1,0c0.5,0.2,1,0.6,1.3,1.1
	c0,0,0,0,0,0c0.5,0.1,0.9,0.2,1.3,0.4c2.9,0.9,5.7,1.8,8.6,2.6c0.1,0,0.2,0.1,0.4,0.1c0.2,0.1,0.4,0.1,0.7,0.2
	c1.2,0.3,2.8,0.5,4.2,0.8c1-2.2,2.4-4.1,4.8-5.4c4.7-2.5,12.7-1.3,17.2,1c4.3,2.1,1.1,8.4-3.1,7.7c0,0.2,0,0.5-0.1,0.7
	c0,0.2-0.1,0.3-0.1,0.5c-0.1,0.7-0.5,1.3-0.9,1.8C52,48.3,51.6,51.2,51,54c1.6,0.6,3.3,1.1,4.9,1.7c3,1,3.4,4.5,2.1,6.6
	c0.2,0.3-0.1,0.8-0.5,0.6c-0.2,0.2-0.3,0.3-0.5,0.5c0.3,1.8-0.4,3.7-1.9,4.8c0.9,2.5-0.3,6-3.7,5.9c-3.6,0-7-0.9-10.5-1.8
	c-2.7-0.7-5.3-1.2-7.5-2.9c-0.1,0-0.2,0-0.3-0.1c-0.3-0.1-0.7-0.3-1-0.4c-1-0.3-1.9-1-2.4-2c-0.5-1-0.7-2.1-0.4-3.2l0-0.1
	c0,0,0,0,0,0c-0.2-0.6-0.3-1.3-0.4-2c-5.2-1.7-10.5-2.5-15.7-4.5c-0.7,0-1.5-0.4-1.8-1.1c-0.4-0.8-0.3-1.7,0.2-2.3
	C11.7,53.1,11.9,52.5,12,51.9z"/>
<circle class="st3" cx="39.4" cy="58.2" r="0"/>
<path class="st4" d="M58.6,35.1c-7.2-1.1-19.8-5.6-23.1,4.6c-0.2,0.5-1,0.3-0.8-0.2c3.5-10.8,16.5-6.3,24.1-5.1
	C59.4,34.3,59.1,35.1,58.6,35.1z"/>
<path class="st4" d="M50.1,43.9c-0.5-0.1-1.1-0.5-1.5-0.1c-0.2,0.2-0.5,1.8-0.5,2c-0.3,1.1-0.7,2.3-1.2,3.4
	c-0.9,2.1-2.1,4.2-3.8,5.7c-3,2.8-7.2,3.7-11.1,2.8c-0.5-0.1-0.3-0.9,0.2-0.8c3.8,0.9,7.9-0.1,10.8-3c2.9-2.9,4.1-7.1,5.1-11
	c0.1-0.2,0.3-0.4,0.5-0.3c0.6,0.2,1.2,0.4,1.9,0.5C50.8,43.2,50.6,44,50.1,43.9z"/>
<path class="st4" d="M29.5,62.3c-0.9,5.7,5.1,8,9.3,9.1c4.7,1.2,9.3,2.3,14,3.4c0.5,0.1,0.3,0.9-0.2,0.8l-9.4-2.3
	c-2.9-0.7-5.9-1.2-8.7-2.4c-3.5-1.5-6.5-4.7-5.8-8.9C28.8,61.5,29.6,61.8,29.5,62.3z"/>
<line class="st5" x1="29.5" y1="61.9" x2="10" y2="56.1"/>
<line class="st5" x1="35.6" y1="39.4" x2="16.1" y2="33.6"/>
<line class="st5" x1="16.7" y1="34.3" x2="10.8" y2="56.4"/>
<g>
	<polygon class="st6" points="44.9,85.7 52.1,88.7 76.7,27.3 69.4,24.3 	"/>
	<g>
		<path class="st7" d="M67.2,32.5c3.5,2.1,8.1,2.4,11.8,0.6c4.7-2.3,6.9-7.7,5.3-13c-1.8,2.4-3.7,4.7-5.5,7.1c-2-0.5-4-0.9-6-1.4"/>
		<path class="st7" d="M71.9,34.5c-3.9-1.1-7.4-4.2-8.6-8.2c-1.6-5,0.7-10.4,5.5-12.9c-0.4,3-0.8,6-1.2,8.9c1.7,1.1,3.5,2.3,5.2,3.4
			"/>
	</g>
	<g>
		<path class="st7" d="M46.9,88.8l6,2.6c-1,3.9-1.7,8.3-0.2,9.1c1.1,0.6,3.1-1.1,3.9-2c3.6-3.8,1.9-9.6,1.8-9.9
			c-0.2-0.7-2-6.4-7.6-8.1c-1.2-0.4-2.4-0.5-3.5-0.5"/>
		<path class="st7" d="M49.4,89.7l-6-2.4c-2,3.5-4.5,7.2-6.1,6.7c-1.2-0.4-1.5-3-1.5-4.2c0.1-5.2,5.2-8.2,5.5-8.3
			c0.6-0.3,5.9-3.2,11.1-0.5c1.1,0.6,2,1.3,2.9,2.2"/>
	</g>
</g>
<path class="st8" d="M58.5,45.5L58.5,45.5c-0.6,2.1,0.6,4.3,2.6,4.9l13.4,4c2,0.6,4.1-0.6,4.7-2.7v0c0.6-2.1-0.6-4.3-2.6-4.9
	l-13.4-4C61.2,42.2,59,43.4,58.5,45.5z"/>
<path class="st9" d="M56,54.4L56,54.4c-0.6,2.3,0.7,4.8,2.9,5.5l12.6,3.8c2.2,0.7,4.6-0.7,5.2-3v0c0.6-2.3-0.7-4.8-2.9-5.5
	l-12.6-3.8C59,50.7,56.7,52.1,56,54.4z"/>
<path class="st8" d="M53.6,63.3L53.6,63.3c-0.6,2.1,0.6,4.3,2.6,4.9l13.4,4c2,0.6,4.1-0.6,4.7-2.7v0c0.6-2.1-0.6-4.3-2.6-4.9
	l-13.4-4C56.3,60,54.2,61.2,53.6,63.3z"/>
<path class="st8" d="M52.3,71.7L52.3,71.7c-0.5,1.9,0.5,3.8,2.3,4.4L67,79.7c1.8,0.5,3.7-0.6,4.2-2.4v0c0.5-1.9-0.5-3.8-2.3-4.4
	l-12.4-3.7C54.7,68.7,52.8,69.8,52.3,71.7z"/>
<path class="st10" d="M51.2,39.7l-2.7,9.8c-1,3.6,1,7.4,4.5,8.4l0,0c3.4,1,7.1-1.1,8-4.7l2.7-9.8c1-3.6-1-7.4-4.5-8.4l0,0
	C55.8,34,52.2,36.1,51.2,39.7z"/>
<line class="st11" x1="105.6" y1="14.4" x2="108.7" y2="61.9"/>
<line class="st11" x1="110.8" y1="16.6" x2="114" y2="65.2"/>
<line class="st11" x1="116.1" y1="16.6" x2="119.3" y2="67.4"/>
<line class="st11" x1="122.5" y1="18.8" x2="124.6" y2="70.7"/>
<line class="st11" x1="127.7" y1="19.9" x2="130.9" y2="72.9"/>
</svg>
