<?xml version="1.0" encoding="utf-8"?>
<!-- Generator: Adobe Illustrator 21.1.0, SVG Export Plug-In . SVG Version: 6.00 Build 0)  -->
<svg version="1.1" id="Layer_1" xmlns="http://www.w3.org/2000/svg" xmlns:xlink="http://www.w3.org/1999/xlink" x="0px" y="0px"
	 viewBox="0 0 162 162" style="enable-background:new 0 0 162 162;" xml:space="preserve">
<style type="text/css">
	.st0{fill:#102773;stroke:#102773;stroke-width:2.866;stroke-miterlimit:10;}
	.st1{fill:#102773;stroke:#102773;stroke-width:2.2518;stroke-miterlimit:10;}
	.st2{fill:#FFFFFF;stroke:#102773;stroke-width:2.8838;stroke-miterlimit:10;}
	.st3{fill:none;stroke:#102773;stroke-width:2.8838;stroke-miterlimit:10;}
	.st4{fill:none;stroke:#102773;stroke-width:1.2395;stroke-miterlimit:10;}
	.st5{fill:#102773;}
	.st6{fill:#2B3F83;}
</style>
<g>
	<rect x="86" y="125.6" class="st0" width="15.8" height="22.9"/>
	<rect x="60.2" y="126.3" class="st1" width="15.8" height="13.5"/>
	<rect x="60.2" y="103.7" class="st1" width="15.8" height="13.5"/>
	<rect x="60.2" y="81.2" class="st1" width="15.8" height="13.5"/>
	<rect x="60.2" y="58.3" class="st1" width="15.8" height="13.5"/>
	<rect x="110.4" y="126.3" class="st1" width="15.8" height="13.5"/>
	<rect x="110.4" y="103.7" class="st1" width="15.8" height="13.5"/>
	<rect x="110.4" y="81.2" class="st1" width="15.8" height="13.5"/>
	<rect x="110.4" y="58.3" class="st1" width="15.8" height="13.5"/>
	<rect x="86" y="58.3" class="st1" width="15.8" height="13.5"/>
	<rect x="86" y="81.2" class="st1" width="15.8" height="13.5"/>
	<rect x="86" y="104.1" class="st1" width="15.8" height="13.5"/>
	<polyline class="st2" points="133.3,48.3 98.9,15.3 30.1,15.3 53,48.3 	"/>
	<polyline class="st2" points="30.1,15.3 30.1,117 53,150 	"/>
	<rect x="53" y="48.3" class="st3" width="80.2" height="101.7"/>
	<polyline class="st4" points="99.6,16 99.6,27.5 38.6,27.5 	"/>
	<line class="st4" x1="99.6" y1="27.5" x2="120.3" y2="48.3"/>
	<rect x="41.6" y="18.2" class="st5" width="7.2" height="10"/>
	<g>
		<ellipse class="st5" cx="97.8" cy="17.9" rx="4.2" ry="6"/>
		<ellipse class="st5" cx="103.3" cy="21.7" rx="4.2" ry="4.7"/>
		<ellipse class="st5" cx="95.9" cy="23.5" rx="4.2" ry="3.9"/>
		<ellipse class="st5" cx="103.3" cy="14.9" rx="4.2" ry="3.9"/>
		<rect x="99.1" y="18.7" class="st5" width="1.9" height="13.8"/>
	</g>
	<g>
		<ellipse class="st5" cx="107.8" cy="26.5" rx="4.2" ry="6"/>
		<ellipse class="st5" cx="113.3" cy="30.3" rx="4.2" ry="4.7"/>
		<ellipse class="st5" cx="105.9" cy="32.1" rx="4.2" ry="3.9"/>
		<ellipse class="st5" cx="113.3" cy="23.5" rx="4.2" ry="3.9"/>
		<rect x="109.2" y="27.3" class="st5" width="1.9" height="13.8"/>
	</g>
	<g>
		<ellipse class="st5" cx="117.8" cy="35.1" rx="4.2" ry="6"/>
		<ellipse class="st5" cx="123.4" cy="38.9" rx="4.2" ry="4.7"/>
		<ellipse class="st5" cx="116" cy="40.7" rx="4.2" ry="3.9"/>
		<ellipse class="st5" cx="123.4" cy="32.1" rx="4.2" ry="3.9"/>
		<rect x="119.2" y="35.9" class="st5" width="1.9" height="13.8"/>
	</g>
	<g>
		<ellipse class="st5" cx="83.4" cy="17.9" rx="4.2" ry="6"/>
		<ellipse class="st5" cx="89" cy="21.7" rx="4.2" ry="4.7"/>
		<ellipse class="st5" cx="81.6" cy="23.5" rx="4.2" ry="3.9"/>
		<ellipse class="st5" cx="89" cy="14.9" rx="4.2" ry="3.9"/>
		<rect x="84.8" y="18.7" class="st5" width="1.9" height="13.8"/>
	</g>
	<g>
		<ellipse class="st5" cx="69.1" cy="17.9" rx="4.2" ry="6"/>
		<ellipse class="st5" cx="74.7" cy="21.7" rx="4.2" ry="4.7"/>
		<ellipse class="st5" cx="67.2" cy="23.5" rx="4.2" ry="3.9"/>
		<ellipse class="st5" cx="74.7" cy="14.9" rx="4.2" ry="3.9"/>
		<rect x="70.5" y="18.7" class="st5" width="1.9" height="13.8"/>
	</g>
	<g>
		<ellipse class="st5" cx="56.2" cy="17.9" rx="4.2" ry="6"/>
		<ellipse class="st5" cx="61.8" cy="21.7" rx="4.2" ry="4.7"/>
		<ellipse class="st5" cx="54.3" cy="23.5" rx="4.2" ry="3.9"/>
		<ellipse class="st5" cx="61.8" cy="14.9" rx="4.2" ry="3.9"/>
		<rect x="57.6" y="18.7" class="st5" width="1.9" height="13.8"/>
	</g>
	<g>
		<ellipse class="st5" cx="93.5" cy="35.1" rx="4.2" ry="6"/>
		<ellipse class="st5" cx="99" cy="38.9" rx="4.2" ry="4.7"/>
		<ellipse class="st5" cx="91.6" cy="40.7" rx="4.2" ry="3.9"/>
		<ellipse class="st5" cx="99" cy="32.1" rx="4.2" ry="3.9"/>
		<rect x="94.8" y="35.9" class="st5" width="1.9" height="13.8"/>
	</g>
	<g>
		<ellipse class="st5" cx="79.1" cy="35.1" rx="4.2" ry="6"/>
		<ellipse class="st5" cx="84.7" cy="38.9" rx="4.2" ry="4.7"/>
		<ellipse class="st5" cx="77.3" cy="40.7" rx="4.2" ry="3.9"/>
		<ellipse class="st5" cx="84.7" cy="32.1" rx="4.2" ry="3.9"/>
		<rect x="80.5" y="35.9" class="st5" width="1.9" height="13.8"/>
	</g>
	<g>
		<ellipse class="st5" cx="64.8" cy="35.1" rx="4.2" ry="6"/>
		<ellipse class="st5" cx="70.4" cy="38.9" rx="4.2" ry="4.7"/>
		<ellipse class="st5" cx="62.9" cy="40.7" rx="4.2" ry="3.9"/>
		<ellipse class="st5" cx="70.4" cy="32.1" rx="4.2" ry="3.9"/>
		<rect x="66.2" y="35.9" class="st5" width="1.9" height="13.8"/>
	</g>
	<g>
		<g>
			<g>
				<g>
					<path class="st6" d="M52.9,62.7c-1.4,0.9-4.3,1.5-3.6-0.6c0.2-0.6,1.1-1,1.7-1.5c0.8-0.7,1.3-1.6,1.5-2.5c0-0.2,0-2.1,0-2.1
						c-1.1,0.2-1.9,0.5-1.8-0.6c0.2-1.1,2-1.2,2.2-2.3c0.3-1.4,0.3-2.8,0.4-4.3c-0.1,1.4,0.2,2.9,0.3,4.3c0.2,3,0.2,5.9,0.4,8.7
						c0.1,0.7,0.1,1.6,0.3,3.1c0.1,1.4,0.4,3.2,0.4,5.5c0,1.2,0,2.1,0,3.1c0,1,0,2,0,3c0,1.7,0.2,3.5,0.5,5.5l0.1,0.9
						c0.1,0.4,0.1,0.8,0.1,1.2c0,0.8,0,1.4,0,2c-0.1,1-0.1,2-0.2,2.9c0,0.2,0,0.5,0,0.7c0,0.3,0,0.6,0,0.9c0,0.5-0.1,1.1-0.1,1.5
						c-0.1,0.8-0.2,1.6-0.2,2.4c0,0.3,0,0.6-0.1,0.9c0,0.1,0,0.3,0,0.4c0,0.2,0,0.3,0,0.5c0,0.2,0,0.4-0.1,0.6
						c-0.2,1.4-0.6,2.2-0.6,2.5c0,0.1-0.1,0.2-0.1,0.3l0,0c0,0,0,0,0,0c-0.1,0-0.2,0-0.3-0.1c-0.1,0-0.2,0-0.2,0l-0.1,0l0,0
						c-0.2,0,1.3,0.2,0.7,0.1l0,0l0,0l0,0c0,0,0,0.1,0,0.1c0,0.1,0,0.1,0,0.1c0.1-0.3,0-0.2,0.1-0.4c0-0.1,0,0.1-0.1,0.2l0,0
						c0,0,0,0,0,0l-0.2,0c-0.1,0-0.2,0-0.4-0.1l-0.1,0l0,0l0,0c-0.6-0.1,0.8,0.2,0.7,0.1l0,0l0,0l0,0.1c0,0.2-0.1,0.4-0.1,0.6
						c-0.1,0.4-0.2,1-0.2,1.5c-0.1,0.6-0.1,2-0.2,3.3c-0.1,1.3-0.2,2.8-0.6,4.2c-0.1,0.4-0.3,1.1-0.3,2c-0.1,1.1-0.2,2.2-0.2,3.4
						c-0.1-1.4-0.2-2.5-0.3-3.4c-0.1-0.9-0.1-1.6-0.1-2.2c0.2-1.3,0.3-2.7,0.3-4c0-1.3,0-2.6,0.1-3.4c0.1-0.6,0.2-1.1,0.2-1.5
						c0.1-0.3,0.1-0.6,0.1-0.8c0-0.2,0.1-0.3,0.1-0.2c-0.1,0.2-0.1,0.3-0.1,0.5c0,0,0-0.1,0-0.3c0-0.1,0-0.2,0.2-0.8
						c-0.2,0.3-0.3,0.5-0.4,0.6c-0.1,0.1-0.2,0-0.4,0.3c-0.4,0.3-0.8,0.4-1.3,0.1c-0.7-0.6-0.1-1.2,0.3-1.5c-0.3,0.2-1,0.3-1.3-0.1
						c-0.3-0.3-0.2-0.6,0.1-1.2c0.1-0.3,0.3-0.7,0.5-1.1c0.2-0.3,0.4-0.6,0.6-1c0.9-1.1,1.5-2.2,1.7-3.2c0.1-0.5,0.2-1.1,0.2-1.6
						l0-0.4l0-0.3c0-0.2-0.1-0.4-0.1-0.6c-0.1,0.3-0.2,0.6-0.3,0.8c-0.1,0.3-0.3,0.6-0.4,0.9c-0.3,0.5-0.7,1-1.2,1.2
						c-0.9,0.6-1.8,0.7-2.3,0.3c-0.7-0.5-0.9-1.1-0.8-1.7c0-0.3,0.1-0.6,0.2-0.8c0.1-0.3,0.3-0.5,0.4-0.6c-0.9,0.2-1.4-0.5-1.5-1.1
						c-0.2-0.8-0.1-1.5,1.5-2.4c0.8-0.4,1.3-0.8,1.7-1.2c0.4-0.4,0.7-0.8,0.9-1.1c0.4-0.7,0.5-1.2,0.7-1.6c0.4-0.9-0.5-1.1-0.7-0.3
						c-0.6,1.3-1.2,2-1.8,2.5c-0.6,0.4-1.1,0.4-1.5,0.4c-0.8,0-1.5-1.1-1.1-2c-1.5,0.6-2.6,0.5-3.2-0.8c-0.7-1.8,0.6-2.9,2.8-3.2
						c-0.7-0.4-0.8-1-0.6-1.5c0.3-0.5,1-0.9,2-0.9c3-0.1,3.2-0.7,4.1-1.3c0.9-0.6,0.8-1.5,0.1-0.9c-1.7,1.3-3.5,1.2-3.9,0.3
						c-0.4-0.9-0.2-1.5,0.9-2.3c-1.3-0.4-1.3-2,0.8-2.1c3.4-0.5,3.7-2.3,3.6-2.8c-0.1,0.4-0.4,0.9-1.1,1.3c-0.9,0.5-2.4-0.1-2.5-0.8
						c-0.1-1,1.9-1.5,2.5-2.3c1.2-1.4,0.3-3.1,0.4-4.6c0-0.1,0-0.7,0-1.4"/>
				</g>
			</g>
		</g>
	</g>
	<g>
		<g>
			<g>
				<g>
					<path class="st6" d="M34.9,24.1c-0.3,1-1.6,2.2-2,0.7c-0.1-0.5,0.1-1,0.2-1.4c0.1-0.7-0.1-1.5-0.4-2.1c-0.1-0.1-1-1.2-1-1.2
						c-0.4,0.5-0.7,1-1.1,0.3c-0.4-0.7,0.4-1.4,0-2.1c-0.5-0.8-1-1.6-1.5-2.4c0.4,0.8,1.2,1.5,1.8,2.2c0.7,0.8,1.4,1.6,2.1,2.5
						c0.7,0.8,1.4,1.8,2.1,2.7c0.7,0.9,2,2.6,3.6,4.8c0.8,1.1,1.6,2.3,2.5,3.5c0.4,0.6,0.9,1.3,1.3,1.9c0.4,0.6,0.8,1.3,1.3,1.9
						c1.6,2.4,3.4,4.8,4.6,6.7c1.2,1.9,1.9,3.2,1.9,3.2s-0.3-0.6-0.4-0.8c-0.1-0.1,0.2,0.2,1.3,2.5c0.5,1.1,0.7,1.9,1,2.3
						c0.1,0.1,0.1,0.2,0.2,0.3c0.1,0.1,0.2,0.3,0.2,0.4c0.2,0.3,0.4,0.7,0.6,1c0.2,0.3,0.5,0.8,0.7,1.2c0.2,0.4,0.4,0.8,0.5,1.2
						c0.3,0.7,0.5,1.3,0.7,1.8c-0.3-0.4-0.7-0.9-1-1.6c-0.2-0.3-0.4-0.7-0.6-1.1c-0.2-0.4-0.6-0.8-0.7-1.1c-0.2-0.3-0.4-0.6-0.7-0.9
						c-0.1-0.1-0.2-0.3-0.3-0.4c-0.1-0.1-0.1-0.2-0.2-0.3c-0.3-0.5-0.6-1.3-1-2.3c-1-2.2-1.3-2.5-1.2-2.4c0.1,0.1,0.4,0.8,0.4,0.8
						s-0.2-0.4-0.6-1.1c0.4,0.9,0.6,1.9-0.2,1.9c-0.5,0-0.7-0.9-0.7-1.3c0,0.2-0.2,0.6-0.6,0.6c-0.5-0.1-0.7-0.9-0.8-2.2
						c-0.1-2.1-1-3.3-1.9-4.1c0.9,1.7,0.3,3.4-0.5,3.4c-1,0-1.5-1.2-1.4-1.7c-0.3,0.4-0.8,0.2-1.1,0c-0.4-0.3-0.7-0.8-0.4-2
						c0.8-2,0.4-2.7,0.3-3.4c-0.1-0.7-0.7-0.6-0.5,0c0.3,2-0.3,2.5-0.8,2.7c-0.5,0.2-1.2-0.3-1.3-1c-0.6,0.8-1.2,0.9-2,0.4
						c-0.9-0.8-0.6-1.7,0.4-2.6c-0.9,0-1.2-1.1-0.2-1.8c1.4-1.1,1.3-1.5,1.4-2.2c0.1-0.7-0.3-1.1-0.3-0.5c-0.2,1.4-1.2,1.9-1.7,1.6
						c-0.6-0.3-0.7-0.8-0.5-1.6c-0.8,0.2-1.5-0.8-0.5-1.5c1.5-1.4,1.1-2.5,0.8-2.7c0.1,0.3,0.1,0.6-0.1,1.1C36,28,35,28.1,34.7,27.7
						c-0.4-0.6,0.4-1.5,0.5-2.1c0.1-1.2-1.1-2.1-1.7-3c-0.1-0.1-0.3-0.5-0.6-0.9"/>
				</g>
			</g>
		</g>
	</g>
	<g>
		<g>
			<g>
				<g>
					<path class="st6" d="M47.1,49.8c-1.4,0.9-4.3,1.5-3.6-0.6c0.2-0.6,1.1-1,1.7-1.5c0.8-0.7,1.3-1.6,1.5-2.5c0-0.2,0-2.1,0-2.1
						c-1.1,0.2-1.9,0.5-1.8-0.6c0.2-1.1,2-1.2,2.2-2.3c0.3-1.4,0.3-2.8,0.4-4.3c-0.1,1.4,0.2,2.9,0.3,4.3c0.2,3,0.2,5.9,0.4,8.7
						c0.1,0.7,0.1,1.6,0.3,3.1c0.1,1.4,0.4,3.2,0.4,5.5c0,1.2,0,2.1,0,3.1c0,1,0,2,0,3c0,1.7,0.2,3.5,0.5,5.5l0.1,0.9
						c0.1,0.4,0.1,0.8,0.1,1.2c0,0.8,0,1.4,0,2c-0.1,1-0.1,2-0.2,2.9c0,0.2,0,0.5,0,0.7c0,0.3,0,0.6,0,0.9c0,0.5-0.1,1.1-0.1,1.5
						c-0.1,0.8-0.2,1.6-0.2,2.4c0,0.3,0,0.6-0.1,0.9c0,0.1,0,0.3,0,0.4c0,0.2,0,0.3,0,0.5c0,0.2,0,0.4-0.1,0.6
						c-0.2,1.4-0.6,2.2-0.6,2.5c0,0.1-0.1,0.2-0.1,0.3l0,0c0,0,0,0,0,0c-0.1,0-0.2,0-0.3-0.1c-0.1,0-0.2,0-0.2,0l-0.1,0l0,0
						c-0.2,0,1.3,0.2,0.7,0.1l0,0l0,0l0,0c0,0,0,0.1,0,0.1c0,0.1,0,0.1,0,0.1c0.1-0.3,0-0.2,0.1-0.4c0-0.1,0,0.1-0.1,0.2l0,0
						c0,0,0,0,0,0l-0.2,0c-0.1,0-0.2,0-0.4-0.1l-0.1,0l0,0l0,0c-0.6-0.1,0.8,0.2,0.7,0.1l0,0l0,0l0,0.1c0,0.2-0.1,0.4-0.1,0.6
						c-0.1,0.4-0.2,1-0.2,1.5c-0.1,0.6-0.1,2-0.2,3.3c-0.1,1.3-0.2,2.8-0.6,4.2c-0.1,0.4-0.3,1.1-0.3,2c-0.1,1.1-0.2,2.2-0.2,3.4
						c-0.1-1.4-0.2-2.5-0.3-3.4c-0.1-0.9-0.1-1.6-0.1-2.2c0.2-1.3,0.3-2.7,0.3-4c0-1.3,0-2.6,0.1-3.4c0.1-0.6,0.2-1.1,0.2-1.5
						c0.1-0.3,0.1-0.6,0.1-0.8c0-0.2,0.1-0.3,0.1-0.2c-0.1,0.2-0.1,0.3-0.1,0.5c0,0,0-0.1,0-0.3c0-0.1,0-0.2,0.2-0.8
						c-0.2,0.3-0.3,0.5-0.4,0.6c-0.1,0.1-0.2,0-0.4,0.3c-0.4,0.3-0.8,0.4-1.3,0.1c-0.7-0.6-0.1-1.2,0.3-1.5c-0.3,0.2-1,0.3-1.3-0.1
						c-0.3-0.3-0.2-0.6,0.1-1.2c0.1-0.3,0.3-0.7,0.5-1.1c0.2-0.3,0.4-0.6,0.6-1c0.9-1.1,1.5-2.2,1.7-3.2c0.1-0.5,0.2-1.1,0.2-1.6
						l0-0.4l0-0.3c0-0.2-0.1-0.4-0.1-0.6c-0.1,0.3-0.2,0.6-0.3,0.8c-0.1,0.3-0.3,0.6-0.4,0.9c-0.3,0.5-0.7,1-1.2,1.2
						c-0.9,0.6-1.8,0.7-2.3,0.3c-0.7-0.5-0.9-1.1-0.8-1.7c0-0.3,0.1-0.6,0.2-0.8c0.1-0.3,0.3-0.5,0.4-0.6c-0.9,0.2-1.4-0.5-1.5-1.1
						c-0.2-0.8-0.1-1.5,1.5-2.4c0.8-0.4,1.3-0.8,1.7-1.2c0.4-0.4,0.7-0.8,0.9-1.1c0.4-0.7,0.5-1.2,0.7-1.6c0.4-0.9-0.5-1.1-0.7-0.3
						c-0.6,1.3-1.2,2-1.8,2.5c-0.6,0.4-1.1,0.4-1.5,0.4c-0.8,0-1.5-1.1-1.1-2c-1.5,0.6-2.6,0.5-3.2-0.8c-0.7-1.8,0.6-2.9,2.8-3.2
						c-0.7-0.4-0.8-1-0.6-1.5c0.3-0.5,1-0.9,2-0.9c3-0.1,3.2-0.7,4.1-1.3c0.9-0.6,0.8-1.5,0.1-0.9c-1.7,1.3-3.5,1.2-3.9,0.3
						c-0.4-0.9-0.2-1.5,0.9-2.3c-1.3-0.4-1.3-2,0.8-2.1c3.4-0.5,3.7-2.3,3.6-2.8c-0.1,0.4-0.4,0.9-1.1,1.3c-0.9,0.5-2.4-0.1-2.5-0.8
						c-0.1-1,1.9-1.5,2.5-2.3c1.2-1.4,0.3-3.1,0.4-4.6c0-0.1,0-0.7,0-1.4"/>
				</g>
			</g>
		</g>
	</g>
	<g>
		<g>
			<g>
				<g>
					<path class="st6" d="M40,39.7c-1.4,0.9-4.3,1.5-3.6-0.6c0.2-0.6,1.1-1,1.7-1.5c0.8-0.7,1.3-1.6,1.5-2.5c0-0.2,0-2.1,0-2.1
						c-1.1,0.2-1.9,0.5-1.8-0.6c0.2-1.1,2-1.2,2.2-2.3c0.3-1.4,0.3-2.8,0.4-4.3c-0.1,1.4,0.2,2.9,0.3,4.3c0.2,3,0.2,5.9,0.4,8.7
						c0.1,0.7,0.1,1.6,0.3,3.1c0.1,1.4,0.4,3.2,0.4,5.5c0,1.2,0,2.1,0,3.1c0,1,0,2,0,3c0,1.7,0.2,3.5,0.5,5.5l0.1,0.9
						c0.1,0.4,0.1,0.8,0.1,1.2c0,0.8,0,1.4,0,2c-0.1,1-0.1,2-0.2,2.9c0,0.2,0,0.5,0,0.7c0,0.3,0,0.6,0,0.9c0,0.5-0.1,1.1-0.1,1.5
						c-0.1,0.8-0.2,1.6-0.2,2.4c0,0.3,0,0.6-0.1,0.9c0,0.1,0,0.3,0,0.4c0,0.2,0,0.3,0,0.5c0,0.2,0,0.4-0.1,0.6
						c-0.2,1.4-0.6,2.2-0.6,2.5c0,0.1-0.1,0.2-0.1,0.3l0,0c0,0,0,0,0,0c-0.1,0-0.2,0-0.3-0.1c-0.1,0-0.2,0-0.2,0l-0.1,0l0,0
						c-0.2,0,1.3,0.2,0.7,0.1l0,0l0,0l0,0c0,0,0,0.1,0,0.1c0,0.1,0,0.1,0,0.1c0.1-0.3,0-0.2,0.1-0.4c0-0.1,0,0.1-0.1,0.2l0,0
						c0,0,0,0,0,0l-0.2,0c-0.1,0-0.2,0-0.4-0.1l-0.1,0l0,0l0,0c-0.6-0.1,0.8,0.2,0.7,0.1l0,0l0,0l0,0.1c0,0.2-0.1,0.4-0.1,0.6
						c-0.1,0.4-0.2,1-0.2,1.5c-0.1,0.6-0.1,2-0.2,3.3c-0.1,1.3-0.2,2.8-0.6,4.2c-0.1,0.4-0.3,1.1-0.3,2c-0.1,1.1-0.2,2.2-0.2,3.4
						c-0.1-1.4-0.2-2.5-0.3-3.4c-0.1-0.9-0.1-1.6-0.1-2.2c0.2-1.3,0.3-2.7,0.3-4c0-1.3,0-2.6,0.1-3.4c0.1-0.6,0.2-1.1,0.2-1.5
						c0.1-0.3,0.1-0.6,0.1-0.8c0-0.2,0.1-0.3,0.1-0.2c-0.1,0.2-0.1,0.3-0.1,0.5c0,0,0-0.1,0-0.3c0-0.1,0-0.2,0.2-0.8
						c-0.2,0.3-0.3,0.5-0.4,0.6c-0.1,0.1-0.2,0-0.4,0.3c-0.4,0.3-0.8,0.4-1.3,0.1c-0.7-0.6-0.1-1.2,0.3-1.5c-0.3,0.2-1,0.3-1.3-0.1
						c-0.3-0.3-0.2-0.6,0.1-1.2c0.1-0.3,0.3-0.7,0.5-1.1c0.2-0.3,0.4-0.6,0.6-1c0.9-1.1,1.5-2.2,1.7-3.2c0.1-0.5,0.2-1.1,0.2-1.6
						l0-0.4l0-0.3c0-0.2-0.1-0.4-0.1-0.6c-0.1,0.3-0.2,0.6-0.3,0.8c-0.1,0.3-0.3,0.6-0.4,0.9c-0.3,0.5-0.7,1-1.2,1.2
						c-0.9,0.6-1.8,0.7-2.3,0.3c-0.7-0.5-0.9-1.1-0.8-1.7c0-0.3,0.1-0.6,0.2-0.8c0.1-0.3,0.3-0.5,0.4-0.6c-0.9,0.2-1.4-0.5-1.5-1.1
						c-0.2-0.8-0.1-1.5,1.5-2.4c0.8-0.4,1.3-0.8,1.7-1.2c0.4-0.4,0.7-0.8,0.9-1.1c0.4-0.7,0.5-1.2,0.7-1.6c0.4-0.9-0.5-1.1-0.7-0.3
						c-0.6,1.3-1.2,2-1.8,2.5c-0.6,0.4-1.1,0.4-1.5,0.4c-0.8,0-1.5-1.1-1.1-2c-1.5,0.6-2.6,0.5-3.2-0.8c-0.7-1.8,0.6-2.9,2.8-3.2
						c-0.7-0.4-0.8-1-0.6-1.5c0.3-0.5,1-0.9,2-0.9c3-0.1,3.2-0.7,4.1-1.3c0.9-0.6,0.8-1.5,0.1-0.9c-1.7,1.3-3.5,1.2-3.9,0.3
						c-0.4-0.9-0.2-1.5,0.9-2.3c-1.3-0.4-1.3-2,0.8-2.1c3.4-0.5,3.7-2.3,3.6-2.8c-0.1,0.4-0.4,0.9-1.1,1.3c-0.9,0.5-2.4-0.1-2.5-0.8
						c-0.1-1,1.9-1.5,2.5-2.3c1.2-1.4,0.3-3.1,0.4-4.6c0-0.1,0-0.7,0-1.4"/>
				</g>
			</g>
		</g>
	</g>
	<g>
		<g>
			<g>
				<g>
					<path class="st6" d="M32.8,31.2c-1.4,0.9-4.3,1.5-3.6-0.6c0.2-0.6,1.1-1,1.7-1.5c0.8-0.7,1.3-1.6,1.5-2.5c0-0.2,0-2.1,0-2.1
						c-1.1,0.2-1.9,0.5-1.8-0.6c0.2-1.1,2-1.2,2.2-2.3c0.3-1.4,0.3-2.8,0.4-4.3c-0.1,1.4,0.2,2.9,0.3,4.3c0.2,3,0.2,5.9,0.4,8.7
						c0.1,0.7,0.1,1.6,0.3,3.1c0.1,1.4,0.4,3.2,0.4,5.5c0,1.2,0,2.1,0,3.1c0,1,0,2,0,3c0,1.7,0.2,3.5,0.5,5.5l0.1,0.9
						c0.1,0.4,0.1,0.8,0.1,1.2c0,0.8,0,1.4,0,2c-0.1,1-0.1,2-0.2,2.9c0,0.2,0,0.5,0,0.7c0,0.3,0,0.6,0,0.9c0,0.5-0.1,1.1-0.1,1.5
						c-0.1,0.8-0.2,1.6-0.2,2.4c0,0.3,0,0.6-0.1,0.9c0,0.1,0,0.3,0,0.4c0,0.2,0,0.3,0,0.5c0,0.2,0,0.4-0.1,0.6
						c-0.2,1.4-0.6,2.2-0.6,2.5c0,0.1-0.1,0.2-0.1,0.3l0,0c0,0,0,0,0,0c-0.1,0-0.2,0-0.3-0.1c-0.1,0-0.2,0-0.2,0l-0.1,0l0,0
						c-0.2,0,1.3,0.2,0.7,0.1l0,0l0,0l0,0c0,0,0,0.1,0,0.1c0,0.1,0,0.1,0,0.1c0.1-0.3,0-0.2,0.1-0.4c0-0.1,0,0.1-0.1,0.2l0,0
						c0,0,0,0,0,0l-0.2,0c-0.1,0-0.2,0-0.4-0.1l-0.1,0l0,0l0,0c-0.6-0.1,0.8,0.2,0.7,0.1l0,0l0,0l0,0.1c0,0.2-0.1,0.4-0.1,0.6
						c-0.1,0.4-0.2,1-0.2,1.5c-0.1,0.6-0.1,2-0.2,3.3c-0.1,1.3-0.2,2.8-0.6,4.2c-0.1,0.4-0.3,1.1-0.3,2c-0.1,1.1-0.2,2.2-0.2,3.4
						c-0.1-1.4-0.2-2.5-0.3-3.4c-0.1-0.9-0.1-1.6-0.1-2.2c0.2-1.3,0.3-2.7,0.3-4c0-1.3,0-2.6,0.1-3.4c0.1-0.6,0.2-1.1,0.2-1.5
						c0.1-0.3,0.1-0.6,0.1-0.8c0-0.2,0.1-0.3,0.1-0.2c-0.1,0.2-0.1,0.3-0.1,0.5c0,0,0-0.1,0-0.3c0-0.1,0-0.2,0.2-0.8
						c-0.2,0.3-0.3,0.5-0.4,0.6c-0.1,0.1-0.2,0-0.4,0.3c-0.4,0.3-0.8,0.4-1.3,0.1c-0.7-0.6-0.1-1.2,0.3-1.5c-0.3,0.2-1,0.3-1.3-0.1
						c-0.3-0.3-0.2-0.6,0.1-1.2c0.1-0.3,0.3-0.7,0.5-1.1c0.2-0.3,0.4-0.6,0.6-1c0.9-1.1,1.5-2.2,1.7-3.2c0.1-0.5,0.2-1.1,0.2-1.6
						l0-0.4l0-0.3c0-0.2-0.1-0.4-0.1-0.6c-0.1,0.3-0.2,0.6-0.3,0.8c-0.1,0.3-0.3,0.6-0.4,0.9c-0.3,0.5-0.7,1-1.2,1.2
						c-0.9,0.6-1.8,0.7-2.3,0.3c-0.7-0.5-0.9-1.1-0.8-1.7c0-0.3,0.1-0.6,0.2-0.8c0.1-0.3,0.3-0.5,0.4-0.6c-0.9,0.2-1.4-0.5-1.5-1.1
						c-0.2-0.8-0.1-1.5,1.5-2.4c0.8-0.4,1.3-0.8,1.7-1.2c0.4-0.4,0.7-0.8,0.9-1.1c0.4-0.7,0.5-1.2,0.7-1.6c0.4-0.9-0.5-1.1-0.7-0.3
						c-0.6,1.3-1.2,2-1.8,2.5c-0.6,0.4-1.1,0.4-1.5,0.4c-0.8,0-1.5-1.1-1.1-2c-1.5,0.6-2.6,0.5-3.2-0.8c-0.7-1.8,0.6-2.9,2.8-3.2
						c-0.7-0.4-0.8-1-0.6-1.5c0.3-0.5,1-0.9,2-0.9c3-0.1,3.2-0.7,4.1-1.3c0.9-0.6,0.8-1.5,0.1-0.9c-1.7,1.3-3.5,1.2-3.9,0.3
						c-0.4-0.9-0.2-1.5,0.9-2.3c-1.3-0.4-1.3-2,0.8-2.1c3.4-0.5,3.7-2.3,3.6-2.8c-0.1,0.4-0.4,0.9-1.1,1.3c-0.9,0.5-2.4-0.1-2.5-0.8
						c-0.1-1,1.9-1.5,2.5-2.3c1.2-1.4,0.3-3.1,0.4-4.6c0-0.1,0-0.7,0-1.4"/>
				</g>
			</g>
		</g>
	</g>
	<g>
		<g>
			<g>
				<g>
					<path class="st6" d="M52.9,97.1c-1.4,0.9-4.3,1.5-3.6-0.6c0.2-0.6,1.1-1,1.7-1.5c0.8-0.7,1.3-1.6,1.5-2.5c0-0.2,0-2.1,0-2.1
						c-1.1,0.2-1.9,0.5-1.8-0.6c0.2-1.1,2-1.2,2.2-2.3c0.3-1.4,0.3-2.8,0.4-4.3c-0.1,1.4,0.2,2.9,0.3,4.3c0.2,3,0.2,5.9,0.4,8.7
						c0.1,0.7,0.1,1.6,0.3,3.1c0.1,1.4,0.4,3.2,0.4,5.5c0,1.2,0,2.1,0,3.1c0,1,0,2,0,3c0,1.7,0.2,3.5,0.5,5.5l0.1,0.9
						c0.1,0.4,0.1,0.8,0.1,1.2c0,0.8,0,1.4,0,2c-0.1,1-0.1,2-0.2,2.9c0,0.2,0,0.5,0,0.7c0,0.3,0,0.6,0,0.9c0,0.5-0.1,1.1-0.1,1.5
						c-0.1,0.8-0.2,1.6-0.2,2.4c0,0.3,0,0.6-0.1,0.9c0,0.1,0,0.3,0,0.4c0,0.2,0,0.3,0,0.5c0,0.2,0,0.4-0.1,0.6
						c-0.2,1.4-0.6,2.2-0.6,2.5c0,0.1-0.1,0.2-0.1,0.3l0,0c0,0,0,0,0,0c-0.1,0-0.2,0-0.3-0.1c-0.1,0-0.2,0-0.2,0l-0.1,0l0,0
						c-0.2,0,1.3,0.2,0.7,0.1l0,0l0,0l0,0c0,0,0,0.1,0,0.1c0,0.1,0,0.1,0,0.1c0.1-0.3,0-0.2,0.1-0.4c0-0.1,0,0.1-0.1,0.2l0,0
						c0,0,0,0,0,0l-0.2,0c-0.1,0-0.2,0-0.4-0.1l-0.1,0l0,0l0,0c-0.6-0.1,0.8,0.2,0.7,0.1l0,0l0,0l0,0.1c0,0.2-0.1,0.4-0.1,0.6
						c-0.1,0.4-0.2,1-0.2,1.5c-0.1,0.6-0.1,2-0.2,3.3c-0.1,1.3-0.2,2.8-0.6,4.2c-0.1,0.4-0.3,1.1-0.3,2c-0.1,1.1-0.2,2.2-0.2,3.4
						c-0.1-1.4-0.2-2.5-0.3-3.4c-0.1-0.9-0.1-1.6-0.1-2.2c0.2-1.3,0.3-2.7,0.3-4c0-1.3,0-2.6,0.1-3.4c0.1-0.6,0.2-1.1,0.2-1.5
						c0.1-0.3,0.1-0.6,0.1-0.8c0-0.2,0.1-0.3,0.1-0.2c-0.1,0.2-0.1,0.3-0.1,0.5c0,0,0-0.1,0-0.3c0-0.1,0-0.2,0.2-0.8
						c-0.2,0.3-0.3,0.5-0.4,0.6c-0.1,0.1-0.2,0-0.4,0.3c-0.4,0.3-0.8,0.4-1.3,0.1c-0.7-0.6-0.1-1.2,0.3-1.5c-0.3,0.2-1,0.3-1.3-0.1
						c-0.3-0.3-0.2-0.6,0.1-1.2c0.1-0.3,0.3-0.7,0.5-1.1c0.2-0.3,0.4-0.6,0.6-1c0.9-1.1,1.5-2.2,1.7-3.2c0.1-0.5,0.2-1.1,0.2-1.6
						l0-0.4l0-0.3c0-0.2-0.1-0.4-0.1-0.6c-0.1,0.3-0.2,0.6-0.3,0.8c-0.1,0.3-0.3,0.6-0.4,0.9c-0.3,0.5-0.7,1-1.2,1.2
						c-0.9,0.6-1.8,0.7-2.3,0.3c-0.7-0.5-0.9-1.1-0.8-1.7c0-0.3,0.1-0.6,0.2-0.8c0.1-0.3,0.3-0.5,0.4-0.6c-0.9,0.2-1.4-0.5-1.5-1.1
						c-0.2-0.8-0.1-1.5,1.5-2.4c0.8-0.4,1.3-0.8,1.7-1.2c0.4-0.4,0.7-0.8,0.9-1.1c0.4-0.7,0.5-1.2,0.7-1.6c0.4-0.9-0.5-1.1-0.7-0.3
						c-0.6,1.3-1.2,2-1.8,2.5c-0.6,0.4-1.1,0.4-1.5,0.4c-0.8,0-1.5-1.1-1.1-2c-1.5,0.6-2.6,0.5-3.2-0.8c-0.7-1.8,0.6-2.9,2.8-3.2
						c-0.7-0.4-0.8-1-0.6-1.5c0.3-0.5,1-0.9,2-0.9c3-0.1,3.2-0.7,4.1-1.3c0.9-0.6,0.8-1.5,0.1-0.9c-1.7,1.3-3.5,1.2-3.9,0.3
						c-0.4-0.9-0.2-1.5,0.9-2.3c-1.3-0.4-1.3-2,0.8-2.1c3.4-0.5,3.7-2.3,3.6-2.8c-0.1,0.4-0.4,0.9-1.1,1.3c-0.9,0.5-2.4-0.1-2.5-0.8
						c-0.1-1,1.9-1.5,2.5-2.3c1.2-1.4,0.3-3.1,0.4-4.6c0-0.1,0-0.7,0-1.4"/>
				</g>
			</g>
		</g>
	</g>
	<g>
		<g>
			<g>
				<g>
					<path class="st6" d="M31.4,67c-1.4,0.9-4.3,1.5-3.6-0.6c0.2-0.6,1.1-1,1.7-1.5c0.8-0.7,1.3-1.6,1.5-2.5c0-0.2,0-2.1,0-2.1
						c-1.1,0.2-1.9,0.5-1.8-0.6c0.2-1.1,2-1.2,2.2-2.3c0.3-1.4,0.3-2.8,0.4-4.3c-0.1,1.4,0.2,2.9,0.3,4.3c0.2,3,0.2,5.9,0.4,8.7
						c0.1,0.7,0.1,1.6,0.3,3.1c0.1,1.4,0.4,3.2,0.4,5.5c0,1.2,0,2.1,0,3.1c0,1,0,2,0,3c0,1.7,0.2,3.5,0.5,5.5l0.1,0.9
						c0.1,0.4,0.1,0.8,0.1,1.2c0,0.8,0,1.4,0,2c-0.1,1-0.1,2-0.2,2.9c0,0.2,0,0.5,0,0.7c0,0.3,0,0.6,0,0.9c0,0.5-0.1,1.1-0.1,1.5
						c-0.1,0.8-0.2,1.6-0.2,2.4c0,0.3,0,0.6-0.1,0.9c0,0.1,0,0.3,0,0.4c0,0.2,0,0.3,0,0.5c0,0.2,0,0.4-0.1,0.6
						c-0.2,1.4-0.6,2.2-0.6,2.5c0,0.1-0.1,0.2-0.1,0.3l0,0c0,0,0,0,0,0c-0.1,0-0.2,0-0.3-0.1c-0.1,0-0.2,0-0.2,0l-0.1,0l0,0
						c-0.2,0,1.3,0.2,0.7,0.1l0,0l0,0l0,0c0,0,0,0.1,0,0.1c0,0.1,0,0.1,0,0.1c0.1-0.3,0-0.2,0.1-0.4c0-0.1,0,0.1-0.1,0.2l0,0
						c0,0,0,0,0,0l-0.2,0c-0.1,0-0.2,0-0.4-0.1l-0.1,0l0,0l0,0c-0.6-0.1,0.8,0.2,0.7,0.1l0,0l0,0l0,0.1c0,0.2-0.1,0.4-0.1,0.6
						c-0.1,0.4-0.2,1-0.2,1.5c-0.1,0.6-0.1,2-0.2,3.3c-0.1,1.3-0.2,2.8-0.6,4.2c-0.1,0.4-0.3,1.1-0.3,2c-0.1,1.1-0.2,2.2-0.2,3.4
						c-0.1-1.4-0.2-2.5-0.3-3.4c-0.1-0.9-0.1-1.6-0.1-2.2c0.2-1.3,0.3-2.7,0.3-4c0-1.3,0-2.6,0.1-3.4c0.1-0.6,0.2-1.1,0.2-1.5
						c0.1-0.3,0.1-0.6,0.1-0.8c0-0.2,0.1-0.3,0.1-0.2c-0.1,0.2-0.1,0.3-0.1,0.5c0,0,0-0.1,0-0.3c0-0.1,0-0.2,0.2-0.8
						c-0.2,0.3-0.3,0.5-0.4,0.6c-0.1,0.1-0.2,0-0.4,0.3c-0.4,0.3-0.8,0.4-1.3,0.1c-0.7-0.6-0.1-1.2,0.3-1.5c-0.3,0.2-1,0.3-1.3-0.1
						c-0.3-0.3-0.2-0.6,0.1-1.2c0.1-0.3,0.3-0.7,0.5-1.1c0.2-0.3,0.4-0.6,0.6-1c0.9-1.1,1.5-2.2,1.7-3.2c0.1-0.5,0.2-1.1,0.2-1.6
						l0-0.4l0-0.3c0-0.2-0.1-0.4-0.1-0.6c-0.1,0.3-0.2,0.6-0.3,0.8c-0.1,0.3-0.3,0.6-0.4,0.9c-0.3,0.5-0.7,1-1.2,1.2
						c-0.9,0.6-1.8,0.7-2.3,0.3c-0.7-0.5-0.9-1.1-0.8-1.7c0-0.3,0.1-0.6,0.2-0.8c0.1-0.3,0.3-0.5,0.4-0.6c-0.9,0.2-1.4-0.5-1.5-1.1
						c-0.2-0.8-0.1-1.5,1.5-2.4c0.8-0.4,1.3-0.8,1.7-1.2c0.4-0.4,0.7-0.8,0.9-1.1c0.4-0.7,0.5-1.2,0.7-1.6c0.4-0.9-0.5-1.1-0.7-0.3
						c-0.6,1.3-1.2,2-1.8,2.5C27.1,88,26.5,88,26.1,88c-0.8,0-1.5-1.1-1.1-2c-1.5,0.6-2.6,0.5-3.2-0.8c-0.7-1.8,0.6-2.9,2.8-3.2
						c-0.7-0.4-0.8-1-0.6-1.5c0.3-0.5,1-0.9,2-0.9c3-0.1,3.2-0.7,4.1-1.3c0.9-0.6,0.8-1.5,0.1-0.9c-1.7,1.3-3.5,1.2-3.9,0.3
						c-0.4-0.9-0.2-1.5,0.9-2.3c-1.3-0.4-1.3-2,0.8-2.1c3.4-0.5,3.7-2.3,3.6-2.8c-0.1,0.4-0.4,0.9-1.1,1.3c-0.9,0.5-2.4-0.1-2.5-0.8
						c-0.1-1,1.9-1.5,2.5-2.3c1.2-1.4,0.3-3.1,0.4-4.6c0-0.1,0-0.7,0-1.4"/>
				</g>
			</g>
		</g>
	</g>
	<g>
		<g>
			<g>
				<g>
					<path class="st6" d="M38.5,74.1c-1.4,0.9-4.3,1.5-3.6-0.6c0.2-0.6,1.1-1,1.7-1.5c0.8-0.7,1.3-1.6,1.5-2.5c0-0.2,0-2.1,0-2.1
						c-1.1,0.2-1.9,0.5-1.8-0.6c0.2-1.1,2-1.2,2.2-2.3c0.3-1.4,0.3-2.8,0.4-4.3c-0.1,1.4,0.2,2.9,0.3,4.3c0.2,3,0.2,5.9,0.4,8.7
						c0.1,0.7,0.1,1.6,0.3,3.1c0.1,1.4,0.4,3.2,0.4,5.5c0,1.2,0,2.1,0,3.1c0,1,0,2,0,3c0,1.7,0.2,3.5,0.5,5.5l0.1,0.9
						c0.1,0.4,0.1,0.8,0.1,1.2c0,0.8,0,1.4,0,2c-0.1,1-0.1,2-0.2,2.9c0,0.2,0,0.5,0,0.7c0,0.3,0,0.6,0,0.9c0,0.5-0.1,1.1-0.1,1.5
						c-0.1,0.8-0.2,1.6-0.2,2.4c0,0.3,0,0.6-0.1,0.9c0,0.1,0,0.3,0,0.4c0,0.2,0,0.3,0,0.5c0,0.2,0,0.4-0.1,0.6
						c-0.2,1.4-0.6,2.2-0.6,2.5c0,0.1-0.1,0.2-0.1,0.3l0,0c0,0,0,0,0,0c-0.1,0-0.2,0-0.3-0.1c-0.1,0-0.2,0-0.2,0l-0.1,0l0,0
						c-0.2,0,1.3,0.2,0.7,0.1l0,0l0,0l0,0c0,0,0,0.1,0,0.1c0,0.1,0,0.1,0,0.1c0.1-0.3,0-0.2,0.1-0.4c0-0.1,0,0.1-0.1,0.2l0,0
						c0,0,0,0,0,0l-0.2,0c-0.1,0-0.2,0-0.4-0.1l-0.1,0l0,0l0,0c-0.6-0.1,0.8,0.2,0.7,0.1l0,0l0,0l0,0.1c0,0.2-0.1,0.4-0.1,0.6
						c-0.1,0.4-0.2,1-0.2,1.5c-0.1,0.6-0.1,2-0.2,3.3c-0.1,1.3-0.2,2.8-0.6,4.2c-0.1,0.4-0.3,1.1-0.3,2c-0.1,1.1-0.2,2.2-0.2,3.4
						c-0.1-1.4-0.2-2.5-0.3-3.4c-0.1-0.9-0.1-1.6-0.1-2.2c0.2-1.3,0.3-2.7,0.3-4c0-1.3,0-2.6,0.1-3.4c0.1-0.6,0.2-1.1,0.2-1.5
						c0.1-0.3,0.1-0.6,0.1-0.8c0-0.2,0.1-0.3,0.1-0.2c-0.1,0.2-0.1,0.3-0.1,0.5c0,0,0-0.1,0-0.3c0-0.1,0-0.2,0.2-0.8
						c-0.2,0.3-0.3,0.5-0.4,0.6c-0.1,0.1-0.2,0-0.4,0.3c-0.4,0.3-0.8,0.4-1.3,0.1c-0.7-0.6-0.1-1.2,0.3-1.5c-0.3,0.2-1,0.3-1.3-0.1
						c-0.3-0.3-0.2-0.6,0.1-1.2c0.1-0.3,0.3-0.7,0.5-1.1c0.2-0.3,0.4-0.6,0.6-1c0.9-1.1,1.5-2.2,1.7-3.2c0.1-0.5,0.2-1.1,0.2-1.6
						l0-0.4l0-0.3c0-0.2-0.1-0.4-0.1-0.6c-0.1,0.3-0.2,0.6-0.3,0.8c-0.1,0.3-0.3,0.6-0.4,0.9c-0.3,0.5-0.7,1-1.2,1.2
						c-0.9,0.6-1.8,0.7-2.3,0.3c-0.7-0.5-0.9-1.1-0.8-1.7c0-0.3,0.1-0.6,0.2-0.8c0.1-0.3,0.3-0.5,0.4-0.6c-0.9,0.2-1.4-0.5-1.5-1.1
						c-0.2-0.8-0.1-1.5,1.5-2.4c0.8-0.4,1.3-0.8,1.7-1.2c0.4-0.4,0.7-0.8,0.9-1.1c0.4-0.7,0.5-1.2,0.7-1.6c0.4-0.9-0.5-1.1-0.7-0.3
						c-0.6,1.3-1.2,2-1.8,2.5c-0.6,0.4-1.1,0.4-1.5,0.4c-0.8,0-1.5-1.1-1.1-2c-1.5,0.6-2.6,0.5-3.2-0.8c-0.7-1.8,0.6-2.9,2.8-3.2
						c-0.7-0.4-0.8-1-0.6-1.5c0.3-0.5,1-0.9,2-0.9c3-0.1,3.2-0.7,4.1-1.3c0.9-0.6,0.8-1.5,0.1-0.9c-1.7,1.3-3.5,1.2-3.9,0.3
						c-0.4-0.9-0.2-1.5,0.9-2.3c-1.3-0.4-1.3-2,0.8-2.1c3.4-0.5,3.7-2.3,3.6-2.8c-0.1,0.4-0.4,0.9-1.1,1.3c-0.9,0.5-2.4-0.1-2.5-0.8
						c-0.1-1,1.9-1.5,2.5-2.3c1.2-1.4,0.3-3.1,0.4-4.6c0-0.1,0-0.7,0-1.4"/>
				</g>
			</g>
		</g>
	</g>
	<g>
		<g>
			<g>
				<g>
					<path class="st6" d="M47.1,87c-1.4,0.9-4.3,1.5-3.6-0.6c0.2-0.6,1.1-1,1.7-1.5c0.8-0.7,1.3-1.6,1.5-2.5c0-0.2,0-2.1,0-2.1
						c-1.1,0.2-1.9,0.5-1.8-0.6c0.2-1.1,2-1.2,2.2-2.3c0.3-1.4,0.3-2.8,0.4-4.3c-0.1,1.4,0.2,2.9,0.3,4.3c0.2,3,0.2,5.9,0.4,8.7
						c0.1,0.7,0.1,1.6,0.3,3.1c0.1,1.4,0.4,3.2,0.4,5.5c0,1.2,0,2.1,0,3.1c0,1,0,2,0,3c0,1.7,0.2,3.5,0.5,5.5l0.1,0.9
						c0.1,0.4,0.1,0.8,0.1,1.2c0,0.8,0,1.4,0,2c-0.1,1-0.1,2-0.2,2.9c0,0.2,0,0.5,0,0.7c0,0.3,0,0.6,0,0.9c0,0.5-0.1,1.1-0.1,1.5
						c-0.1,0.8-0.2,1.6-0.2,2.4c0,0.3,0,0.6-0.1,0.9c0,0.1,0,0.3,0,0.4c0,0.2,0,0.3,0,0.5c0,0.2,0,0.4-0.1,0.6
						c-0.2,1.4-0.6,2.2-0.6,2.5c0,0.1-0.1,0.2-0.1,0.3l0,0c0,0,0,0,0,0c-0.1,0-0.2,0-0.3-0.1c-0.1,0-0.2,0-0.2,0l-0.1,0l0,0
						c-0.2,0,1.3,0.2,0.7,0.1l0,0l0,0l0,0c0,0,0,0.1,0,0.1c0,0.1,0,0.1,0,0.1c0.1-0.3,0-0.2,0.1-0.4c0-0.1,0,0.1-0.1,0.2l0,0
						c0,0,0,0,0,0l-0.2,0c-0.1,0-0.2,0-0.4-0.1l-0.1,0l0,0l0,0c-0.6-0.1,0.8,0.2,0.7,0.1l0,0l0,0l0,0.1c0,0.2-0.1,0.4-0.1,0.6
						c-0.1,0.4-0.2,1-0.2,1.5c-0.1,0.6-0.1,2-0.2,3.3c-0.1,1.3-0.2,2.8-0.6,4.2c-0.1,0.4-0.3,1.1-0.3,2c-0.1,1.1-0.2,2.2-0.2,3.4
						c-0.1-1.4-0.2-2.5-0.3-3.4c-0.1-0.9-0.1-1.6-0.1-2.2c0.2-1.3,0.3-2.7,0.3-4c0-1.3,0-2.6,0.1-3.4c0.1-0.6,0.2-1.1,0.2-1.5
						c0.1-0.3,0.1-0.6,0.1-0.8c0-0.2,0.1-0.3,0.1-0.2c-0.1,0.2-0.1,0.3-0.1,0.5c0,0,0-0.1,0-0.3c0-0.1,0-0.2,0.2-0.8
						c-0.2,0.3-0.3,0.5-0.4,0.6c-0.1,0.1-0.2,0-0.4,0.3c-0.4,0.3-0.8,0.4-1.3,0.1c-0.7-0.6-0.1-1.2,0.3-1.5c-0.3,0.2-1,0.3-1.3-0.1
						c-0.3-0.3-0.2-0.6,0.1-1.2c0.1-0.3,0.3-0.7,0.5-1.1c0.2-0.3,0.4-0.6,0.6-1c0.9-1.1,1.5-2.2,1.7-3.2c0.1-0.5,0.2-1.1,0.2-1.6
						l0-0.4l0-0.3c0-0.2-0.1-0.4-0.1-0.6c-0.1,0.3-0.2,0.6-0.3,0.8c-0.1,0.3-0.3,0.6-0.4,0.9c-0.3,0.5-0.7,1-1.2,1.2
						c-0.9,0.6-1.8,0.7-2.3,0.3c-0.7-0.5-0.9-1.1-0.8-1.7c0-0.3,0.1-0.6,0.2-0.8c0.1-0.3,0.3-0.5,0.4-0.6c-0.9,0.2-1.4-0.5-1.5-1.1
						c-0.2-0.8-0.1-1.5,1.5-2.4c0.8-0.4,1.3-0.8,1.7-1.2c0.4-0.4,0.7-0.8,0.9-1.1c0.4-0.7,0.5-1.2,0.7-1.6c0.4-0.9-0.5-1.1-0.7-0.3
						c-0.6,1.3-1.2,2-1.8,2.5c-0.6,0.4-1.1,0.4-1.5,0.4c-0.8,0-1.5-1.1-1.1-2c-1.5,0.6-2.6,0.5-3.2-0.8c-0.7-1.8,0.6-2.9,2.8-3.2
						c-0.7-0.4-0.8-1-0.6-1.5c0.3-0.5,1-0.9,2-0.9c3-0.1,3.2-0.7,4.1-1.3c0.9-0.6,0.8-1.5,0.1-0.9c-1.7,1.3-3.5,1.2-3.9,0.3
						c-0.4-0.9-0.2-1.5,0.9-2.3c-1.3-0.4-1.3-2,0.8-2.1c3.4-0.5,3.7-2.3,3.6-2.8c-0.1,0.4-0.4,0.9-1.1,1.3c-0.9,0.5-2.4-0.1-2.5-0.8
						c-0.1-1,1.9-1.5,2.5-2.3c1.2-1.4,0.3-3.1,0.4-4.6c0-0.1,0-0.7,0-1.4"/>
				</g>
			</g>
		</g>
	</g>
</g>
</svg>
