<?xml version="1.0" encoding="utf-8"?>
<!-- Generator: Adobe Illustrator 21.1.0, SVG Export Plug-In . SVG Version: 6.00 Build 0)  -->
<svg version="1.1" xmlns="http://www.w3.org/2000/svg" xmlns:xlink="http://www.w3.org/1999/xlink" x="0px" y="0px"
	 viewBox="0 0 162 162" style="enable-background:new 0 0 162 162;" xml:space="preserve">
<style type="text/css">
	.st0{fill:none;stroke:#102773;stroke-width:1.544;stroke-miterlimit:10;}
	.st1{fill:#102773;}
	.st2{fill:#FFFFFF;}
	.st3{fill:#FCFCFC;}
	.st4{fill:none;stroke:#102773;stroke-width:2.1178;stroke-miterlimit:10;}
	.st5{fill:none;stroke:#102773;stroke-width:1.3303;stroke-miterlimit:10;}
	.st6{fill:none;stroke:#102773;stroke-width:1.004;stroke-miterlimit:10;}
	.st7{fill:none;stroke:#102773;stroke-width:1.1734;stroke-miterlimit:10;}
</style>
<g id="Layer_1">
	<g>
		<polygon class="st0" points="17,144 69.8,20 93.2,20 146,144 		"/>
		<polygon class="st1" points="80,20 76,144 82.4,144 82.4,20 		"/>
		<rect x="62.8" y="105.1" class="st2" width="34.6" height="6.6"/>
		<rect x="62.8" y="72.1" class="st2" width="34.6" height="6.6"/>
		<rect x="63.7" y="45.7" class="st2" width="34.6" height="6.6"/>
		<rect x="69.3" y="25.9" class="st2" width="22.4" height="6.6"/>
	</g>
</g>
<g id="color">
	<g>
		<g>
			<path class="st3" d="M155.2,110.7c-0.4-3.3-1-6.5-1.9-9.7c-0.1-0.5-0.5-0.8-0.8-0.9c-0.2-0.7-0.5-1.3-0.8-1.8
				c-0.2-1-0.6-2-1.1-2.8c-0.2-2.1-1.1-4.1-2.6-5.2c-0.2-2.5-1.4-4.9-3.5-5.8c-0.5-2-1.6-3.7-3.4-4.3c-0.6-2.1-1.9-3.8-3.9-4.2
				c-0.7-2-2.2-3.5-4.3-3.8c-0.7-2.2-2.4-4-4.9-4c0,0-0.1,0-0.1,0c-0.9-1.6-2.3-2.7-4.4-2.7c-0.1,0-0.2,0-0.3,0
				c-0.9-1.5-2.3-2.5-4.2-2.5c-0.1,0-0.1,0-0.2,0c-0.9-1.2-2.1-2-3.7-2c-0.9-1.2-2.2-2.1-4-2.1c-0.3,0-0.6,0-0.9,0.1
				c-0.9-1-2.1-1.7-3.7-1.7c-0.6,0-1.1,0.1-1.5,0.2c-0.8-0.7-1.9-1.2-3.2-1.2c-0.4,0-0.9,0.1-1.3,0.2c-0.8-0.6-1.8-1-2.9-1
				c-0.2,0-0.5,0-0.7,0.1c-0.8-0.7-1.9-1.1-3.1-1.1c-0.6,0-1.2,0.1-1.7,0.3c-0.8-0.6-1.8-1-2.9-1c-0.7,0-1.4,0.2-2,0.4
				c-0.7-0.5-1.7-0.8-2.7-0.8c-0.7,0-1.4,0.1-1.9,0.4c-0.7-0.4-1.5-0.7-2.5-0.7c-1.1,0-2.1,0.4-2.9,0.9c-0.6-0.3-1.2-0.4-1.9-0.4
				c-0.9,0-1.7,0.2-2.4,0.6c-0.6-0.3-1.4-0.5-2.2-0.5c-1.4,0-2.5,0.5-3.4,1.4c-0.4-0.1-0.8-0.2-1.2-0.2c-1.2,0-2.2,0.4-3,1.1
				c-0.4-0.1-0.7-0.1-1.1-0.1c-1.1,0-2,0.3-2.8,0.9c-0.2,0-0.5-0.1-0.7-0.1c-1.3,0-2.3,0.4-3.1,1.2c-0.3,0-0.5-0.1-0.8-0.1
				c-1.8,0-3.2,0.9-4.1,2.3c-0.3,0-0.6-0.1-0.8-0.1c-1.8,0-3.1,0.8-4,2.1c-0.2,0-0.5-0.1-0.7-0.1c-1.6,0-2.9,0.7-3.8,1.8
				c-1.2,0.3-2.1,1.1-2.8,2.1c-1.2,0.3-2.2,1-2.9,2C34,68.2,33,69,32.4,70.1c-1.6,0.2-2.8,1.2-3.6,2.6c-1.6,0.4-2.7,1.6-3.4,3
				c-1.4,0.4-2.4,1.4-3.1,2.7c-1.5,0.6-2.5,2-3,3.6c-1,0.6-1.8,1.6-2.3,2.8c-1.1,0.8-1.9,2-2.3,3.4c-1,0.8-1.7,2.1-2.1,3.5
				c-0.8,0.8-1.3,1.9-1.6,3.1c-0.9,1.2-1.4,2.8-1.4,4.4c-0.2,0.2-0.3,0.4-0.4,0.8c-0.1,1.2-0.3,2.4-0.6,3.6c0,0,0,0,0,0
				c-0.6,1.5-1,2.9-1.3,4.6c0,0.1,0,0.2,0,0.2c-0.1,0.2-0.3,0.4-0.3,0.6c-0.2,1.8-0.4,3.6-0.5,5.4c-0.1,1,0.8,1.5,1.4,1.3
				c0.2,0.1,0.4,0.2,0.6,0.2c0.3,0,1.2-0.2,2.3-0.4c0,0,0,0,0,0c3.2,0.1,6.5,0.2,9.7,0.3c0.7,0,1.2-0.9,1.1-1.8
				c-0.1-0.3-0.1-0.5-0.2-0.7c0.1-0.2,0.2-0.4,0.1-0.7c-0.1-1.8,0.1-3.5,0.4-5.2c0,0,0-0.1,0-0.1c0.8-0.9,1.4-2.2,1.6-3.5
				c0.8-0.9,1.4-2.2,1.6-3.5c0.4-0.6,0.8-1.2,1-2c0.8-0.6,1.3-1.5,1.7-2.4c0.9-0.7,1.6-1.7,2-2.9c0.9-0.6,1.6-1.5,2.1-2.6
				c1.5-0.5,2.5-1.6,3.2-3.1c1.2-0.3,2-1.1,2.7-2.1c1.5-0.3,2.7-1.2,3.4-2.6c1.2-0.3,2.1-1.1,2.8-2.1c1.7-0.1,2.9-0.9,3.8-2.2
				c0,0,0.1,0,0.1,0c1.6,0,2.9-0.7,3.8-1.8c0.2,0,0.3,0,0.5,0c1.3,0,2.4-0.5,3.2-1.3c0.2,0,0.4,0,0.6,0c1.5,0,2.7-0.6,3.6-1.6
				c0.3,0.1,0.6,0.1,0.9,0.1c1.2,0,2.2-0.4,3-1.1c0.5,0.2,1,0.3,1.6,0.3c1.2,0,2.2-0.4,3-1.1c0.5,0.2,1,0.3,1.6,0.3
				c1.1,0,2-0.3,2.8-0.9c0.6,0.3,1.3,0.5,2.1,0.5c0.8,0,1.4-0.2,2-0.4c0.4,0.1,0.8,0.2,1.3,0.2c0.8,0,1.5-0.2,2.1-0.5
				c0.7,0.4,1.5,0.6,2.4,0.6c0.6,0,1.2-0.1,1.7-0.3c0.7,0.4,1.4,0.6,2.3,0.6c0.6,0,1.1-0.1,1.6-0.3c0.6,0.3,1.2,0.4,2,0.4
				c0.7,0,1.3-0.1,1.9-0.4c0.7,0.5,1.6,0.8,2.6,0.8c0.4,0,0.7-0.1,1.1-0.1c0.8,0.8,1.9,1.2,3.2,1.2c0.3,0,0.6,0,0.9-0.1
				c0.8,0.7,1.8,1,3,1c0.1,0,0.3,0,0.4,0c0.9,0.9,2,1.5,3.5,1.5c0.2,0,0.4,0,0.6,0c0.8,0.7,1.8,1.1,3.1,1.1c0.1,0,0.1,0,0.2,0
				c0.8,1,2,1.6,3.4,1.7c0.8,1,1.9,1.7,3.3,1.9c0.7,1.1,1.8,1.8,3.1,2c0.8,1.3,1.9,2.2,3.4,2.5c0.4,0.8,1,1.5,1.8,1.9
				c0.6,1.2,1.4,2.1,2.6,2.6c0.4,0.6,1,1.2,1.6,1.5c0.4,0.7,0.9,1.2,1.6,1.6c0.4,1.3,1.1,2.4,2.1,3.1c0.4,1.1,1,2.1,1.9,2.8
				c0.2,0.5,0.4,1,0.7,1.4c0.2,1.5,0.7,2.9,1.5,4c0.2,1.1,0.6,2.1,1.1,2.9c0.1,0.4,0.1,0.8,0.2,1.4c0,0.2,0.1,0.4,0.2,0.5
				c0.2,1.4,0.3,2.9,0.3,4.3c-0.1,0.3-0.1,0.7,0,0.9c0,0.2,0,0.4,0,0.7c-0.1,1.6,1.6,1.7,2.1,0.6c0.2,0,0.4,0,0.7,0
				c0.2,0.2,0.4,0.4,0.8,0.4c2.7,0,5.5,0,8.2-0.1c1,0,2.7,0.3,3.5-0.8C155.8,114.2,155.3,111.9,155.2,110.7z"/>
		</g>
		<g>
			<g>
				<path class="st4" d="M6.6,116.5c0-34.6,33.3-62.7,74.4-62.7s74.4,28.1,74.4,62.7"/>
				<path class="st4" d="M21.6,116.5c0-24.8,26.5-44.9,59.1-44.9s59.1,20.1,59.1,44.9"/>
			</g>
			<line class="st4" x1="5.3" y1="116.5" x2="22.2" y2="116.5"/>
			<line class="st4" x1="139.1" y1="116.5" x2="156.7" y2="116.5"/>
		</g>
	</g>
	<g>
		<path class="st1" d="M157.5,114.9c-0.4-2.6-1.1-5.2-2-7.7c-0.1-0.4-0.5-0.6-0.8-0.7c-0.2-0.5-0.5-1-0.8-1.5
			c-0.2-0.8-0.6-1.6-1.1-2.3c-0.2-1.7-1.1-3.3-2.7-4.1c-0.2-2-1.4-3.9-3.7-4.6c-0.5-1.6-1.7-2.9-3.6-3.4c-0.6-1.6-1.9-3-4-3.4
			c-0.7-1.6-2.2-2.8-4.5-3c-0.8-1.8-2.4-3.2-5.1-3.2c0,0-0.1,0-0.1,0c-0.9-1.3-2.4-2.2-4.5-2.2c-0.1,0-0.2,0-0.3,0
			c-0.9-1.2-2.4-2-4.4-2c-0.1,0-0.1,0-0.2,0c-0.9-0.9-2.2-1.6-3.8-1.6c-0.9-1-2.3-1.6-4.1-1.6c-0.3,0-0.6,0-0.9,0.1
			c-0.9-0.8-2.2-1.4-3.8-1.4c-0.6,0-1.1,0.1-1.6,0.2c-0.9-0.6-1.9-1-3.3-1c-0.5,0-0.9,0-1.3,0.1c-0.8-0.5-1.8-0.8-3-0.8
			c-0.3,0-0.5,0-0.7,0c-0.8-0.6-1.9-0.9-3.2-0.9c-0.6,0-1.2,0.1-1.7,0.2c-0.8-0.5-1.8-0.8-3-0.8c-0.8,0-1.4,0.1-2.1,0.3
			c-0.8-0.4-1.7-0.7-2.8-0.7c-0.7,0-1.4,0.1-2,0.3c-0.7-0.3-1.6-0.5-2.5-0.5c-1.2,0-2.2,0.3-3,0.8c-0.6-0.2-1.3-0.3-2-0.3
			c-1,0-1.8,0.2-2.5,0.5c-0.7-0.3-1.4-0.4-2.2-0.4c-1.4,0-2.6,0.4-3.5,1.1c-0.4-0.1-0.8-0.1-1.3-0.1c-1.3,0-2.3,0.3-3.1,0.9
			c-0.4-0.1-0.7-0.1-1.2-0.1c-1.1,0-2.1,0.3-2.9,0.7c-0.2,0-0.5,0-0.8,0c-1.3,0-2.4,0.4-3.2,0.9c-0.3,0-0.5-0.1-0.8-0.1
			c-1.9,0-3.3,0.7-4.2,1.8c-0.3,0-0.6-0.1-0.9-0.1c-1.8,0-3.2,0.7-4.1,1.7c-0.2,0-0.5,0-0.8,0c-1.7,0-3,0.6-3.9,1.4
			c-1.2,0.3-2.2,0.9-2.8,1.7c-1.3,0.2-2.3,0.8-3,1.6c-1.3,0.3-2.2,0.9-2.9,1.7c-1.6,0.2-2.9,1-3.7,2c-1.6,0.3-2.8,1.2-3.5,2.4
			c-1.4,0.3-2.5,1.1-3.1,2.2c-1.5,0.5-2.6,1.6-3.1,2.9c-1.1,0.5-1.8,1.3-2.3,2.3c-1.2,0.6-2,1.6-2.4,2.7c-1.1,0.7-1.8,1.7-2.1,2.8
			c-0.8,0.7-1.3,1.5-1.6,2.5c-0.9,1-1.4,2.2-1.5,3.5c-0.2,0.1-0.4,0.3-0.4,0.6c-0.1,1-0.4,1.9-0.6,2.9c0,0,0,0,0,0
			c-0.6,1.2-1.1,2.3-1.3,3.7c0,0.1,0,0.1,0,0.2c-0.1,0.1-0.3,0.3-0.3,0.5c-0.2,1.4-0.4,2.8-0.6,4.3c-0.1,0.8,0.8,1.2,1.5,1
			c0.2,0.1,0.4,0.2,0.6,0.2c0.3,0,1.2-0.1,2.4-0.3c0,0,0,0,0,0c3.3,0.1,6.7,0.1,10,0.2c0.8,0,1.3-0.7,1.1-1.4
			c-0.1-0.2-0.1-0.4-0.2-0.6c0.1-0.2,0.2-0.3,0.2-0.6c-0.1-1.4,0.1-2.8,0.5-4.1c0,0,0-0.1,0-0.1c0.9-0.7,1.4-1.7,1.7-2.8
			c0.9-0.7,1.4-1.7,1.7-2.8c0.4-0.5,0.8-1,1-1.6c0.8-0.5,1.3-1.2,1.7-1.9c1-0.6,1.6-1.4,2.1-2.3c1-0.5,1.7-1.2,2.2-2.1
			c1.5-0.4,2.6-1.3,3.3-2.5c1.2-0.3,2.1-0.9,2.8-1.6c1.6-0.2,2.8-1,3.5-2c1.2-0.3,2.2-0.9,2.8-1.7c1.7-0.1,3-0.7,3.9-1.7
			c0,0,0.1,0,0.1,0c1.7,0,3-0.6,3.9-1.4c0.2,0,0.4,0,0.5,0c1.4,0,2.5-0.4,3.3-1c0.2,0,0.4,0,0.6,0c1.6,0,2.8-0.5,3.7-1.3
			c0.3,0,0.6,0.1,1,0.1c1.3,0,2.3-0.3,3.1-0.9c0.5,0.1,1,0.2,1.6,0.2c1.3,0,2.3-0.3,3.1-0.9c0.5,0.1,1,0.2,1.6,0.2
			c1.1,0,2.1-0.3,2.8-0.7c0.6,0.2,1.3,0.4,2.1,0.4c0.8,0,1.5-0.1,2.1-0.3c0.4,0.1,0.8,0.1,1.3,0.1c0.8,0,1.5-0.1,2.2-0.4
			c0.7,0.3,1.5,0.5,2.5,0.5c0.7,0,1.2-0.1,1.8-0.2c0.7,0.3,1.5,0.5,2.4,0.5c0.6,0,1.2-0.1,1.7-0.2c0.6,0.2,1.3,0.3,2.1,0.3
			c0.7,0,1.3-0.1,1.9-0.3c0.8,0.4,1.7,0.6,2.7,0.6c0.4,0,0.8,0,1.1-0.1c0.9,0.6,2,1,3.3,1c0.3,0,0.7,0,1-0.1
			c0.8,0.5,1.9,0.8,3.1,0.8c0.2,0,0.3,0,0.4,0c0.9,0.7,2.1,1.2,3.6,1.2c0.2,0,0.4,0,0.6,0c0.8,0.6,1.9,0.9,3.2,0.9
			c0.1,0,0.1,0,0.2,0c0.8,0.8,2,1.3,3.5,1.4c0.8,0.8,1.9,1.4,3.4,1.5c0.8,0.8,1.8,1.4,3.2,1.6c0.8,1,2,1.8,3.5,2
			c0.5,0.6,1.1,1.2,1.8,1.5c0.6,0.9,1.5,1.7,2.6,2.1c0.4,0.5,1,0.9,1.7,1.2c0.4,0.5,1,1,1.6,1.3c0.4,1,1.2,1.9,2.2,2.5
			c0.4,0.9,1,1.7,1.9,2.3c0.2,0.4,0.4,0.8,0.7,1.1c0.2,1.2,0.7,2.3,1.6,3.2c0.2,0.8,0.6,1.6,1.2,2.3c0.1,0.3,0.1,0.7,0.2,1.1
			c0,0.2,0.1,0.3,0.2,0.4c0.2,1.1,0.3,2.3,0.3,3.4c-0.1,0.3-0.1,0.5,0,0.7c0,0.2,0,0.4,0,0.5c-0.1,1.2,1.7,1.4,2.2,0.5
			c0.2,0,0.4,0,0.7,0c0.2,0.2,0.5,0.3,0.8,0.3c2.8,0,5.6,0,8.5-0.1c1,0,2.8,0.2,3.6-0.6C158.1,117.7,157.6,115.9,157.5,114.9z"/>
	</g>
	<g>
		<g>
			<path class="st5" d="M4.3,119.5c0-27.5,34.3-49.9,76.7-49.9s76.7,22.3,76.7,49.9"/>
			<path class="st6" d="M19.7,119.5c0-19.7,27.3-35.8,60.9-35.8s60.9,16,60.9,35.8"/>
		</g>
		<line class="st7" x1="3" y1="119.5" x2="20.4" y2="119.5"/>
		<line class="st7" x1="140.9" y1="119.5" x2="159" y2="119.5"/>
	</g>
	<path class="st2" d="M19.1,114.8c-2-0.1-4,0-6,0.2c-0.7,0.1-1.3,0.1-2,0.2c0.1-0.1,0.2-0.2,0.2-0.4c0.1-1.4,0.5-2.7,1.2-3.9
		c0.1-0.1,0.1-0.2,0.1-0.3c2,0.2,4,0.6,6,1.2c0.6,0.2,0.9-0.8,0.3-1c-3.1-0.9-6.1-1.5-9.2-1.3c0,0,0,0,0,0c0.3-1.4,0.8-2.7,1.5-3.9
		c0.3-0.6-0.5-1.1-0.9-0.5c-0.7,1.3-1.3,2.7-1.6,4.1c0,0.1,0,0.3,0.1,0.4c-0.6,0-1.2,0.1-1.8,0.2c-0.6,0.1-0.4,1.1,0.3,1
		c1.5-0.2,2.9-0.3,4.4-0.2c-0.8,1.3-1.2,2.8-1.3,4.3c0,0.2,0.1,0.3,0.1,0.4c-1.8,0-3.5-0.1-5.3-0.3c-0.6-0.1-0.6,0.9,0,1
		c0.6,0,1.2,0.1,1.8,0.1c0,0.1,0,0.1,0,0.2v1.7c0,0.6,1,0.6,1,0v-1.7c0-0.1,0-0.1,0-0.1c1.5,0.1,3,0.2,4.5,0
		c0.6-0.1,1.1-0.1,1.7-0.2c-0.1,0.1-0.1,0.2-0.1,0.3v2c0,0.6,1,0.6,1,0v-2c0-0.2-0.1-0.3-0.1-0.4c1.4-0.1,2.8-0.2,4.3-0.1
		C19.7,115.9,19.7,114.9,19.1,114.8z"/>
	<path class="st2" d="M20,106c-1.8-0.1-3.7-0.6-5.5-1.2c0-0.1,0.1-0.1,0.1-0.2c0.4-1.9,1.3-3.5,2.7-4.7c0.5-0.4-0.2-1.1-0.7-0.7
		c-1.5,1.3-2.6,3.1-3,5.1c0,0.1,0,0.1,0,0.2c-1.3-0.4-2.5-0.9-3.7-1.2c-0.6-0.2-0.9,0.8-0.3,1c2.3,0.7,4.7,1.6,7.1,2.2
		c-0.1,0.1-0.1,0.2-0.1,0.3c0,0.9-0.1,1.8-0.3,2.7c-0.2,0.6,0.8,0.9,1,0.3c0.2-1,0.4-2,0.4-3c0,0,0-0.1,0-0.1
		c0.8,0.2,1.6,0.3,2.4,0.4C20.6,107.1,20.6,106.1,20,106z"/>
	<path class="st2" d="M24.5,95.6c-1.5,1-2.8,2.2-3.9,3.7c-0.1,0.1-0.1,0.2-0.1,0.4c-0.4-0.2-0.8-0.3-1.2-0.5c-0.8-0.3-1.4-1-2.2-1.3
		c-1-0.5-2-0.3-3-0.8c-0.6-0.3-1.1,0.5-0.5,0.9c0.5,0.3,1,0.4,1.6,0.6c1.1,0.2,1.7,0.6,2.5,1.2c1.6,1,3.3,1.3,4.8,2.6
		c0.5,0.4,1.2-0.3,0.7-0.7c-0.7-0.6-1.4-1.1-2.1-1.5c0.1,0,0.2-0.1,0.3-0.2c0.9-1.4,2.1-2.5,3.5-3.3C25.5,96.1,25,95.2,24.5,95.6z"
		/>
	<path class="st2" d="M20.9,92.5c-0.8-0.6-1.6,0.3-2.1,0.8c-1.1,1-2.1,2-3.2,3.1c-0.5,0.4,0.2,1.2,0.7,0.7c0.4-0.4,3.8-3.9,4.1-3.7
		C20.9,93.8,21.4,92.9,20.9,92.5z"/>
	<path class="st2" d="M88.1,71.2c-2-0.3-4-0.4-6-0.2c-0.1,0-0.2,0-0.2,0.1c0-0.2,0-0.4,0-0.6c0-0.6-1-0.6-1,0c0,1.5-0.1,2.9-0.3,4.4
		c-0.1-0.1-0.2-0.2-0.4-0.1c-2.1,0.2-4.2,0.2-6.3,0.1c-0.2-1.5-0.4-2.9-0.6-4.4c-0.1-0.6-1.1-0.4-1,0.3c0.1,0.5,0.2,1,0.2,1.5
		c0,0-0.1,0-0.1,0c-2.3,0.7-4.6,1-6.9,0.8c0,0-0.1,0-0.1,0c-0.1-0.5-0.1-1-0.2-1.5c-0.1-0.6-1.1-0.4-1,0.3c0.2,1.5,0.4,3,0.6,4.5
		c-2.4,0.7-4.8,1-7.3,1.1c0-0.2,0-0.3-0.1-0.5c-0.1-1.5-0.3-2.7-0.9-4.2c-0.2-0.6-1.2-0.3-1,0.3c0.2,0.6,0.4,1.2,0.5,1.8
		c-0.1,0-0.1-0.1-0.2-0.1c-0.2,0-0.3,0.1-0.4,0.2c0,0,0,0-0.1,0c-2,0.7-4,1.4-6,2.1c0,0,0,0,0,0c-0.3-0.7-0.6-1.3-0.9-2
		c-0.3-0.6-1.1-0.1-0.9,0.5c0.8,1.6,1.5,3.2,2.2,4.8c-2.3,0.4-4.3,1.9-6.6,2.3c-0.7-1.9-1.5-3.4-2.8-5c-0.4-0.5-1.1,0.2-0.7,0.7
		c0.3,0.4,0.6,0.8,0.9,1.3c-0.1-0.1-0.2-0.1-0.4,0c-2.1,0.6-3.9,1.6-5.6,3c-0.4-0.4-0.9-0.9-1.3-1.2c-0.5-0.4-1.2,0.3-0.7,0.7
		c1.1,1,2.2,2.1,3.2,3.4c-1.8,0.7-3.4,1.8-4.7,3.2c-1.3-1.3-2.6-2.6-4.1-3.6c-0.5-0.4-1,0.5-0.5,0.9c1.1,0.7,2.1,1.6,3,2.5
		c-0.1,0-0.2,0-0.3,0.1c-0.1-0.1-0.3-0.2-0.4-0.1c-2.4,0.7-4.3,2.1-5.8,4.1c-0.3-0.2-0.6-0.5-1-0.7c-0.8-0.5-1.6-0.7-2.4-1.2
		c-0.5-0.4-1,0.5-0.5,0.9c0.5,0.3,1,0.5,1.6,0.8c0.8,0.4,1.5,1,2.3,1.5c1.7,1.2,3.7,2.1,4.5,4.2c0.2,0.6,1.2,0.3,1-0.3
		c-0.2-0.5-0.4-0.9-0.7-1.2c1.5-1.8,3.4-3.1,5.6-3.9c0.3,0.4,0.6,0.8,0.8,1.2c0.3,0.6,1.2,0.1,0.9-0.5c-0.8-1.5-2.1-2.7-3.3-3.9
		c1.2-1.3,2.6-2.4,4.3-3c0.1,0,0.2-0.1,0.2-0.2c1.2,1.5,2.2,3.2,3.1,4.8c0.3,0.6,1.2,0.1,0.9-0.5c-0.4-0.7-0.8-1.3-1.2-2
		c1.6-0.7,3.1-1.5,4.6-2.4c0,0,0,0,0,0c0.4,0.7,0.6,1.5,0.5,2.4c-0.1,0.6,0.9,0.6,1,0c0.2-1.8-0.9-3.2-1.7-4.8
		c2.3-0.5,4.2-2,6.6-2.2c0.5,1.4,1,2.9,1.2,4.4c0.1,0.6,1.1,0.4,1-0.3c-0.1-0.5-0.2-0.9-0.3-1.4c2-0.6,4-1.3,5.9-1.9
		c0.2,0.5,0.5,1.1,0.7,1.6c0.3,0.6,1.1,0.1,0.9-0.5c-0.8-1.6-1.5-3.2-1.9-5c2.5,0,4.9-0.4,7.3-1.1c0.2,1.6,0.3,3.2,0.5,4.9
		c0,0.6,1,0.6,1,0c-0.1-0.7-0.1-1.5-0.2-2.2c2.2-0.1,4.5-0.3,6.7-0.6c0.2,0,0.3-0.2,0.4-0.3c0,0.7,0,1.3,0,2c0,0.6,1,0.6,1,0
		c0-1.8-0.1-3.5-0.2-5.3c2.1,0.1,4.1,0,6.2-0.1c0.1,0,0.2-0.1,0.3-0.1c-0.2,1.6-0.3,3.2-0.1,4.8c0.1,0.6,1.1,0.6,1,0
		c-0.1-0.6-0.1-1.2-0.1-1.9c0.1,0,0.1,0,0.2,0h4.8c0.6,0,0.6-1,0-1h-4.8c-0.1,0-0.1,0-0.2,0c0.1-1.9,0.4-3.8,0.5-5.7
		c0.1,0,0.1,0.1,0.2,0.1c1.9-0.2,3.9-0.1,5.8,0.2C88.5,72.3,88.8,71.3,88.1,71.2z M32.7,91.9c-2.1,0.9-4,2.2-5.6,3.9
		c-0.6-0.7-1.4-1.3-2.2-1.8c-0.4-0.3-0.8-0.5-1.2-0.8c0,0,0,0,0,0c1.3-1.8,3.1-3,5.2-3.6c0.1,0,0.1,0,0.1-0.1
		c0.1,0.1,0.2,0.1,0.3,0.1c0.3,0,0.5-0.3,0.5-0.5c0.2,0.2,0.4,0.4,0.6,0.6C31.2,90.4,32,91.1,32.7,91.9z M43.2,85.3
		c-1.5,1-3,1.8-4.6,2.4c-1-1.5-2.1-2.9-3.3-4.3c1.5-1.3,3.2-2.2,5.1-2.8c0.3-0.1,0.4-0.3,0.3-0.5c0.7,1.2,1.2,2.5,1.8,3.9
		C42.8,84.5,43,84.9,43.2,85.3C43.2,85.3,43.2,85.3,43.2,85.3z M51.7,83.3c-0.5-1.8-1.2-3.5-1.9-5.2c1.9-0.7,3.9-1.4,5.9-2.1
		c0.1,0,0.2-0.1,0.2-0.2c0.1,0,0.2-0.1,0.3-0.1c0.1,1,0.2,2,0.4,3c0.2,0.9,0.5,1.8,0.9,2.7C55.6,82,53.7,82.7,51.7,83.3z M72.6,78.5
		c-2.2,0.3-4.3,0.5-6.5,0.6c-0.2-1.7-0.4-3.3-0.6-5c2.5,0.2,4.8-0.1,7.2-0.9c0.3,1.9,0.4,3.8,0.5,5.7C73.1,78.7,72.9,78.5,72.6,78.5
		z"/>
	<path class="st2" d="M153.1,107.5c-1.8-0.1-3.6,0-5.4,0.2c-0.2-1.9-0.8-3.8-1.8-5.4c-0.1-0.1-0.2-0.2-0.3-0.2
		c1.6-0.4,3.1-0.7,4.7-1c0.6-0.1,0.4-1.1-0.3-1c-0.5,0.1-1,0.2-1.6,0.3c0.2-0.1,0.3-0.4,0.1-0.6c-1.5-2.1-3.1-4.1-5-5.9
		c0,0-0.1-0.1-0.1-0.1c0.3-0.2,0.7-0.3,1-0.5c0.6-0.3,0.1-1.1-0.5-0.9c-1.7,0.8-3.3,1.5-5,2.3c0-0.1,0-0.2-0.1-0.3
		c-1.7-2.1-3.9-3.7-6.4-4.7c1.2-0.9,2.4-1.7,3.7-2.5c0.6-0.3,0-1.2-0.5-0.9c-0.5,0.3-1,0.6-1.4,0.9c0-0.1-0.1-0.2-0.2-0.3
		c-1.3-1.1-2.6-2.1-3.8-3.2c-0.8-0.6-1.5-1.1-2.4-1.1c0.2-0.2,0.4-0.3,0.5-0.5c0.5-0.4-0.2-1.1-0.7-0.7c-1.1,0.9-2.2,1.9-3.1,3
		c-1.3-1.8-3.3-2.9-5.5-3.2c0.7-0.9,1.4-1.8,2-2.7c0.4-0.5-0.5-1-0.9-0.5c-0.3,0.4-0.6,0.8-0.8,1.1c-2.2-1.3-4.5-2.1-7-2.5
		c0.2-0.3,0.3-0.6,0.4-1c0.2-0.6-0.7-0.9-1-0.3c-0.4,1.2-1.1,2.3-1.8,3.3c-2-1.6-4.5-2.3-7.1-2.1c0.5-0.9,1.1-1.8,1.6-2.7
		c0.3-0.6-0.5-1.1-0.9-0.5c-0.1,0.2-0.3,0.5-0.4,0.7c0,0,0,0,0,0c-1.7-0.9-3.5-1.3-5.4-1.3c-0.6,0-0.6,1,0,1c1.7,0,3.4,0.3,4.9,1.1
		c0,0,0,0,0.1,0c-0.8,1.4-1.6,2.8-2.2,4.2c-1.7-0.5-3.4-0.7-5.2-0.6c-0.1,0-0.1,0-0.1,0c0.8-2.1,1.6-4.3,2.3-6.5
		c0.2-0.6-0.8-0.9-1-0.3c-0.4,1.1-0.7,2.2-1.1,3.3c-2.2-0.5-4.4-0.8-6.7-0.8c0,0,0,0,0,0c0.4-1.2,0.8-2.4,0.9-3.6
		c0.1-0.6-0.9-0.9-1-0.3c-0.5,3.4-2.5,6.5-1.9,10.1c0.1,0.6,1.1,0.4,1-0.3c-0.3-1.8,0.2-3.4,0.7-5.1c0.1,0.1,0.2,0.1,0.3,0.1
		c2.2,0,4.3,0.2,6.4,0.8c-0.6,1.7-1.2,3.3-1.9,4.9c-0.2,0.6,0.7,0.9,1,0.3c0.3-0.7,0.5-1.3,0.8-2c0.1,0.1,0.2,0.2,0.4,0.2
		c1.7-0.1,3.3,0.1,4.9,0.5c-0.3,0.8-0.5,1.7-0.5,2.6c0,0.6,1,0.6,1,0c0.1-1.8,0.8-3.5,1.7-5.1c0.1,0,0.2,0.1,0.3,0
		c2.5-0.4,4.9,0.3,6.8,1.9c-0.9,1.3-1.8,2.7-2.2,4.3c-0.1,0.6,0.8,0.9,1,0.3c0.2-0.7,0.4-1.4,0.8-2c0,0,0.1,0,0.2,0
		c2.2,0,4.2,0.6,6,1.9c0.1,0,0.1,0.1,0.2,0.1c-0.6,0.7-1.1,1.4-1.7,2c-0.4,0.5,0.3,1.2,0.7,0.7c1.4-1.6,2.7-3.2,4-4.9
		c0.1,0.1,0.2,0.1,0.3,0.1c2.1,0.1,3.9,1.2,5.1,2.9c0,0,0,0,0.1,0.1c-1.2,1.4-2.4,3-3.6,4.4c-0.4,0.5,0.3,1.2,0.7,0.7
		c2-2.4,3.9-5,6.2-7.1c0.1,0.2,0.3,0.4,0.6,0.4c1.1-0.2,2.5,1.4,3.2,2c0.8,0.7,1.6,1.3,2.4,2c0,0,0.1,0,0.1,0.1
		c-1.3,0.9-2.6,1.8-3.8,2.7c0-0.1-0.1-0.2-0.1-0.3c-1.6-1.4-3.5-2.4-5.7-2.8c-0.6-0.1-0.9,0.9-0.3,1c2,0.3,3.7,1.2,5.2,2.5
		c0.1,0,0.1,0.1,0.2,0.1c-0.9,0.8-1.9,1.5-2.8,2.4c-0.5,0.4,0.2,1.1,0.7,0.7c1.5-1.4,3.1-2.7,4.7-3.9c0,0.1,0.1,0.2,0.3,0.3
		c2.4,0.9,4.5,2.5,6.1,4.5c0,0,0,0,0,0c-1.9,0.9-3.8,1.7-5.7,2.6c-0.6,0.3-0.1,1.1,0.5,0.9c1.4-0.6,2.7-1.2,4-1.8
		c-0.2,0.3,0,0.9,0.5,0.8c1.2-0.3,2,0.9,2.6,1.8c0.5,0.8,1,1.7,1.4,2.6c0,0,0,0,0,0.1c-1,0.3-2,0.6-3,0.9c-0.6,0.2-0.4,1.2,0.3,1
		c2-0.6,4.1-1.2,6.2-1.6c-0.2,0.1-0.3,0.4-0.1,0.6c0.9,1.5,1.5,3.2,1.7,4.9c0,0,0,0.1,0,0.1c-2,0.3-3.9,0.9-5.9,1c-0.6,0-0.6,1,0,1
		c1.8-0.1,3.6-0.7,5.4-0.9c2.3-0.3,4.5-0.4,6.8-0.4C153.8,108.5,153.8,107.5,153.1,107.5z M116,83.9c0-0.1-0.1-0.2-0.2-0.3
		c-1.8-1.3-3.9-2-6.1-2.1c0.3-0.5,0.6-0.9,0.9-1.3c0.1-0.1,0.2-0.2,0.2-0.3c0.4-0.7,0.9-1.3,1.3-2c0,0,0.1,0,0.1,0
		c2.4,0.3,4.6,1.1,6.7,2.3C118,81.4,117,82.7,116,83.9z M142.6,101.7c0-0.1,0-0.2,0-0.3c-0.9-1.8-2.4-5.3-4.9-4.9
		c1.7-0.8,3.4-1.6,5.2-2.3c-0.1,0.2,0,0.3,0.1,0.5c1.8,1.7,3.4,3.6,4.8,5.7c0.1,0.1,0.2,0.2,0.3,0.2
		C146.2,100.9,144.4,101.3,142.6,101.7z"/>
	<path class="st2" d="M155.1,114.2c-3.5-0.3-7.1-0.5-10.7-0.6c0.2-0.1,0.2-0.4,0.1-0.6c-0.1-0.1-0.1-0.3-0.2-0.4
		c0.1-0.1,0.2-0.3,0.1-0.5c-0.3-0.7-0.3-1.4-0.2-2.2c0.1-0.6-0.9-0.6-1,0c-0.1,0.8,0,1.6,0.2,2.3c-0.1,0.1-0.2,0.3-0.1,0.5
		c0.1,0.2,0.2,0.5,0.3,0.7c0,0,0,0.1,0.1,0.1c-0.8,0-1.7,0-2.5,0c-0.6,0-0.6,1,0,1c2.2,0,4.4,0,6.5,0.1c-0.1,0.1-0.1,0.2-0.1,0.3
		c-0.1,1.1,0,2.2,0.3,3.3c0.2,0.6,1.1,0.4,1-0.3c-0.3-1-0.3-2-0.2-3c0-0.1,0-0.2,0-0.2c2.1,0.1,4.3,0.2,6.4,0.4
		C155.8,115.3,155.8,114.3,155.1,114.2z"/>
	<path class="st2" d="M152.4,113.2c-0.7-1.3-1.1-2.6-1.1-4.1c0-0.6-1-0.6-1,0c0,1.6,0.4,3.2,1.2,4.6
		C151.9,114.3,152.7,113.7,152.4,113.2z"/>
</g>
<g id="trees">
	<g>
		<rect x="56" y="47" class="st1" width="3" height="18"/>
		<ellipse class="st1" cx="54.2" cy="45.8" rx="8.2" ry="7.2"/>
		<ellipse class="st1" cx="60" cy="44" rx="7" ry="9"/>
	</g>
	<g>
		<rect x="104" y="47" class="st1" width="3" height="18"/>
		<ellipse class="st1" cx="102.2" cy="45.8" rx="8.2" ry="7.2"/>
		<ellipse class="st1" cx="108" cy="44" rx="7" ry="9"/>
	</g>
	<g>
		<rect x="39" y="54" class="st1" width="3" height="18"/>
		<ellipse class="st1" cx="37.2" cy="52.8" rx="8.2" ry="7.2"/>
		<ellipse class="st1" cx="43" cy="51" rx="7" ry="9"/>
	</g>
	<g>
		<rect x="121" y="54" class="st1" width="3" height="18"/>
		<ellipse class="st1" cx="119.2" cy="52.8" rx="8.2" ry="7.2"/>
		<ellipse class="st1" cx="125" cy="51" rx="7" ry="9"/>
	</g>
	<g>
		<rect x="24" y="64" class="st1" width="3" height="18"/>
		<ellipse class="st1" cx="22.2" cy="62.8" rx="8.2" ry="7.2"/>
		<ellipse class="st1" cx="28" cy="61" rx="7" ry="9"/>
	</g>
	<g>
		<rect x="136" y="63" class="st1" width="3" height="18"/>
		<ellipse class="st1" cx="134.2" cy="61.8" rx="8.2" ry="7.2"/>
		<ellipse class="st1" cx="140" cy="60" rx="7" ry="9"/>
	</g>
	<g>
		<rect x="80" y="44" class="st1" width="3" height="18"/>
		<ellipse class="st1" cx="78.2" cy="42.8" rx="8.2" ry="7.2"/>
		<ellipse class="st1" cx="84" cy="41" rx="7" ry="9"/>
	</g>
	<path class="st1" d="M74.9,61.3c-1.1,0.1-2.1,0.5-2.9,1.1v-4.4c0-1.3-2-1.3-2,0V64c-0.9-1.8-2.3-3.4-4.1-4.5
		c-1.1-0.7-2.1,1.1-1,1.7c2,1.2,3.3,3.1,3.9,5.3c0.2,0.8,1,0.9,1.6,0.5c0.6,0.4,1.6,0.2,1.6-0.7v0c0.1-0.1,0.1-0.2,0.2-0.4
		c0.3-1.4,1.3-2.5,2.8-2.5C76.2,63.3,76.2,61.3,74.9,61.3z"/>
	<path class="st1" d="M97.9,61.3c-1.1,0.1-2.1,0.5-2.9,1.1v-4.4c0-1.3-2-1.3-2,0V64c-0.9-1.8-2.3-3.4-4.1-4.5
		c-1.1-0.7-2.1,1.1-1,1.7c2,1.2,3.3,3.1,3.9,5.3c0.2,0.8,1,0.9,1.6,0.5c0.6,0.4,1.6,0.2,1.6-0.7v0c0.1-0.1,0.1-0.2,0.2-0.4
		c0.3-1.4,1.3-2.5,2.8-2.5C99.2,63.3,99.2,61.3,97.9,61.3z"/>
	<path class="st1" d="M53.9,66.3c-1.1,0.1-2.1,0.5-2.9,1.1v-4.4c0-1.3-2-1.3-2,0V69c-0.9-1.8-2.3-3.4-4.1-4.5
		c-1.1-0.7-2.1,1.1-1,1.7c2,1.2,3.3,3.1,3.9,5.3c0.2,0.8,1,0.9,1.6,0.5c0.6,0.4,1.6,0.2,1.6-0.7v0c0.1-0.1,0.1-0.2,0.2-0.4
		c0.3-1.4,1.3-2.5,2.8-2.5C55.2,68.3,55.2,66.3,53.9,66.3z"/>
	<path class="st1" d="M118.9,66.3c-1.1,0.1-2.1,0.5-2.9,1.1v-4.4c0-1.3-2-1.3-2,0V69c-0.9-1.8-2.3-3.4-4.1-4.5
		c-1.1-0.7-2.1,1.1-1,1.7c2,1.2,3.3,3.1,3.9,5.3c0.2,0.8,1,0.9,1.6,0.5c0.6,0.4,1.6,0.2,1.6-0.7v0c0.1-0.1,0.1-0.2,0.2-0.4
		c0.3-1.4,1.3-2.5,2.8-2.5C120.2,68.3,120.2,66.3,118.9,66.3z"/>
</g>
</svg>
