<?xml version="1.0" encoding="utf-8"?>
<!-- Generator: Adobe Illustrator 21.1.0, SVG Export Plug-In . SVG Version: 6.00 Build 0)  -->
<svg version="1.1" id="Layer_1" xmlns="http://www.w3.org/2000/svg" xmlns:xlink="http://www.w3.org/1999/xlink" x="0px" y="0px"
	 viewBox="0 0 162 162" style="enable-background:new 0 0 162 162;" xml:space="preserve">
<style type="text/css">
	.st0{fill:#102773;}
	.st1{fill:#F7F8F9;stroke:#102773;stroke-width:1.1088;stroke-miterlimit:10;}
	.st2{fill:#102773;stroke:#FFFFFF;stroke-width:1.1772;stroke-miterlimit:10;}
	.st3{fill:#FFFFFF;stroke:#102773;stroke-width:1.1042;stroke-miterlimit:10;}
	.st4{fill:none;stroke:#102773;stroke-width:1.8178;stroke-miterlimit:10;}
	.st5{fill:none;stroke:#102773;stroke-width:0.6817;stroke-miterlimit:10;}
	.st6{fill:none;stroke:#102773;stroke-width:0.9089;stroke-miterlimit:10;}
	.st7{fill:#F9F9F9;stroke:#FAFBFC;stroke-width:7.651902e-02;stroke-miterlimit:10;}
	.st8{fill:#F9F9F9;stroke:#FFFFFF;stroke-width:7.651902e-02;stroke-miterlimit:10;}
	.st9{fill:#F9F9F9;stroke:#F7F8F9;stroke-width:0.1253;stroke-miterlimit:10;}
	.st10{fill:#F9F9F9;stroke:#F9F9F9;stroke-width:5.956122e-02;stroke-miterlimit:10;}
	.st11{fill:#F9F9F9;stroke:#FCFCFC;stroke-width:5.956122e-02;stroke-miterlimit:10;}
	.st12{fill:#F9F9F9;}
	.st13{fill:#F9F9F9;stroke:#F9F9F9;stroke-width:0.2972;stroke-miterlimit:10;}
	.st14{fill:#102773;stroke:#F9F9F9;stroke-width:0.5536;stroke-miterlimit:10;}
	.st15{fill:none;stroke:#102773;stroke-width:1.1088;stroke-miterlimit:10;}
	.st16{fill:#FCFCFC;}
	.st17{fill:none;stroke:#102773;stroke-width:0.5544;stroke-miterlimit:10;}
	.st18{font-family:'Arial-BoldMT';}
	.st19{font-size:14.048px;}
</style>
<polygon class="st0" points="91.3,66.1 87.2,67 77.9,13.9 82,13 "/>
<polygon class="st1" points="62.4,21.2 66.6,40.3 105.8,32.4 114.8,20 100.6,13.2 "/>
<ellipse class="st0" cx="81.5" cy="107.1" rx="69.5" ry="42.9"/>
<ellipse class="st2" cx="82.1" cy="122.4" rx="47.1" ry="23.5"/>
<ellipse class="st3" cx="82.7" cy="121.8" rx="44.8" ry="21.8"/>
<g>
	<polygon class="st0" points="35.2,84.4 33.3,85.2 28.5,70.9 30.4,70.1 	"/>
	<path class="st0" d="M35.5,68.1c0.9,2.4-1.1,5.7-4.6,7.4s-7,1.1-7.9-1.3c-0.9-2.4,1.1-5.7,4.6-7.4C31,65.2,34.5,65.7,35.5,68.1z"/>
	<path class="st0" d="M30.5,62.8c1.3,3.3,0.6,6.8-1.5,7.8s-4.9-0.8-6.1-4c-1.3-3.3-0.6-6.8,1.5-7.8C26.4,57.7,29.2,59.5,30.5,62.8z"
		/>
</g>
<g>
	<polygon class="st0" points="43.6,76.2 41.6,77 36.8,62.7 38.8,61.8 	"/>
	<path class="st0" d="M43.8,59.9c0.9,2.4-1.1,5.7-4.6,7.4s-7,1.1-7.9-1.3c-0.9-2.4,1.1-5.7,4.6-7.4S42.9,57.5,43.8,59.9z"/>
	<path class="st0" d="M38.8,54.6c1.3,3.3,0.6,6.8-1.5,7.8c-2.1,1-4.9-0.8-6.1-4c-1.3-3.3-0.6-6.8,1.5-7.8
		C34.8,49.5,37.6,51.3,38.8,54.6z"/>
</g>
<g>
	<polygon class="st0" points="54,74.4 51.9,75 48.4,60.3 50.4,59.7 	"/>
	<path class="st0" d="M55.6,58.3c0.7,2.5-1.6,5.5-5.2,6.8c-3.6,1.3-7,0.4-7.8-2.1c-0.7-2.5,1.6-5.5,5.2-6.8
		C51.4,54.8,54.9,55.8,55.6,58.3z"/>
	<path class="st0" d="M51.1,52.4c1,3.4,0,6.8-2.2,7.6c-2.2,0.8-4.8-1.3-5.8-4.7c-1-3.4,0-6.8,2.2-7.6S50.1,49,51.1,52.4z"/>
</g>
<g>
	<polygon class="st0" points="62.2,70.5 60.1,70.7 59.1,55.4 61.1,55.3 	"/>
	<path class="st0" d="M66.5,55c0.3,2.6-2.5,5.1-6.2,5.6c-3.7,0.5-7-1.1-7.3-3.7c-0.3-2.6,2.5-5.1,6.2-5.6
		C62.9,50.7,66.2,52.4,66.5,55z"/>
	<path class="st0" d="M63,48.3c0.4,3.5-1.1,6.7-3.4,7c-2.3,0.3-4.5-2.3-4.9-5.8s1.1-6.7,3.4-7C60.4,42.1,62.6,44.8,63,48.3z"/>
</g>
<path class="st0" d="M135.7,48.1c-0.4,2.2-2.5,3.6-4.7,3.1c-2.2-0.5-3.7-2.7-3.3-4.9c0.4-2.2,2.5-3.6,4.7-3.1S136.1,45.9,135.7,48.1
	z"/>
<line class="st4" x1="131.6" y1="50.4" x2="129.8" y2="61.1"/>
<line class="st4" x1="129.8" y1="61.1" x2="121.4" y2="72.2"/>
<line class="st4" x1="129.8" y1="61.1" x2="131.1" y2="79.4"/>
<line class="st4" x1="130.7" y1="55.8" x2="123.1" y2="56.9"/>
<line class="st5" x1="123.1" y1="56.9" x2="109.3" y2="61.3"/>
<path class="st0" d="M111.1,59.3c-0.3,1.5-1.3,2.5-2.2,2.3s-1.6-1.6-1.3-3.1s1.3-2.5,2.2-2.3C110.7,56.5,111.3,57.9,111.1,59.3z"/>
<path class="st0" d="M109.4,60.8c-0.1,0.7-1.2,1.1-2.5,0.8c-1.2-0.3-2.1-1.1-2-1.8s1.2-1.1,2.5-0.8S109.5,60.1,109.4,60.8z"/>
<path class="st0" d="M116.7,66.2c-0.5,1.1-2.9,1.2-5.5,0c-2.6-1.1-4.3-3-3.8-4.1c0.5-1.1,2.9-1.2,5.5,0
	C115.5,63.2,117.2,65.1,116.7,66.2z"/>
<line class="st6" x1="108.7" y1="63.5" x2="104.5" y2="67.1"/>
<line class="st6" x1="113.9" y1="64.6" x2="113.8" y2="70.1"/>
<g>
	<polygon class="st7" points="68.6,93.1 67.8,93.3 65.5,82.3 66.3,82.1 	"/>
	<polygon class="st8" points="52.3,97.4 51.5,97.6 49.2,86.6 50,86.4 	"/>
	<polygon class="st9" points="47.2,98 50.6,93.3 67.7,88.8 72.7,91.2 	"/>
	<polygon class="st10" points="67.7,87.1 49.9,91.9 50.1,92.7 67.9,88 	"/>
	<polygon class="st10" points="67.4,85.6 49.6,90.3 49.7,91.2 67.6,86.4 	"/>
	<polygon class="st10" points="67.1,84 49.2,88.8 49.4,89.6 67.2,84.9 	"/>
	<polygon class="st10" points="66.7,82.5 48.9,87.2 49.1,88.1 66.9,83.3 	"/>
	<polygon class="st11" points="50.4,102 49.4,102.3 48.4,97.8 49.4,97.5 	"/>
	<polygon class="st11" points="72.5,96.1 71.5,96.4 70.6,91.8 71.6,91.6 	"/>
	<path class="st12" d="M71.2,90.9c-3.1,0.9-6.1,1.7-9.2,2.5c-3.1,0.8-6.1,1.5-9.2,2.4c-1.7,0.5-3.4,1-5,1.7c0,0,0,0.1,0,0.1
		c2.9-1.2,6-2,9.1-2.7c3.1-0.8,6.1-1.5,9.2-2.4C67.8,92,69.5,91.5,71.2,90.9C71.3,91,71.3,90.9,71.2,90.9z"/>
	<path class="st12" d="M70.2,90.6c-0.7-0.1-1.4-0.1-2.1,0c-0.7,0.1-1.3,0.5-2,0.8c-0.7,0.3-1.4,0.3-2.1,0.5
		c-0.7,0.2-1.4,0.4-2.1,0.7c-0.7,0.3-1.4,0.5-2.1,0.6c-0.7,0.1-1.4,0.1-2.2,0.2c-0.7,0.1-1.4,0.3-2.1,0.6c-0.7,0.2-1.4,0.4-2.2,0.5
		c-1.5,0.3-3,0.5-4.1,1.7c0,0,0,0.1,0,0c1-1.1,2.4-1.4,3.7-1.6c0.7-0.1,1.5-0.2,2.2-0.5c0.7-0.2,1.4-0.5,2.1-0.6
		c0.7-0.1,1.4-0.1,2.1-0.2c0.7-0.1,1.4-0.2,2-0.5c0.7-0.3,1.3-0.6,2-0.8c0.7-0.2,1.4-0.2,2.1-0.4c0.8-0.2,1.5-0.7,2.2-0.9
		C68.6,90.5,69.4,90.6,70.2,90.6C70.2,90.7,70.2,90.6,70.2,90.6z"/>
	<path class="st12" d="M68,89.5c-1.2,0.4-2.3,0.8-3.5,1.1c-1.1,0.4-2.3,0.8-3.4,1.1c-0.6,0.1-1.2,0.2-1.7,0.3
		c-0.6,0.1-1.2,0.2-1.7,0.4c-0.6,0.2-1.1,0.5-1.7,0.6c-0.6,0.2-1.1,0.3-1.7,0.4c-1.2,0.2-2.5,0.2-3.7,0.8c0,0,0,0.1,0,0.1
		c1.1-0.5,2.2-0.6,3.4-0.7c0.6-0.1,1.1-0.2,1.7-0.3c0.6-0.2,1.1-0.4,1.7-0.6c0.6-0.2,1.1-0.4,1.7-0.5c0.6-0.1,1.2-0.2,1.7-0.3
		c1.2-0.2,2.3-0.7,3.4-1C65.5,90.4,66.8,89.9,68,89.5C68.1,89.5,68.1,89.4,68,89.5z"/>
	<path class="st12" d="M69.1,89.7c-0.7,0.1-1.3,0.3-1.9,0.5c-0.6,0.2-1.2,0.5-1.8,0.8c-0.6,0.3-1.3,0.4-2,0.5
		c-0.6,0.1-1.3,0.3-1.9,0.5c-0.6,0.2-1.3,0.4-1.9,0.6c-0.3,0.1-0.6,0.2-1,0.3c-0.3,0.1-0.7,0.1-1,0.1c-0.3,0-0.6,0-0.9,0.1
		c-0.3,0.1-0.7,0.2-1,0.3c-0.6,0.2-1.2,0.5-1.9,0.6c-1.4,0.4-2.9,0.7-4.4,1c0,0,0,0.1,0,0.1c1.3-0.3,2.6-0.5,3.9-0.9
		c0.7-0.2,1.3-0.4,1.9-0.6c0.6-0.2,1.3-0.4,1.9-0.5c0.3,0,0.6,0,0.9-0.1c0.3,0,0.6-0.1,0.9-0.2c0.6-0.2,1.3-0.4,1.9-0.6
		c0.7-0.2,1.3-0.3,2-0.5c0.6-0.1,1.3-0.2,2-0.4c0.7-0.2,1.4-0.6,2.1-0.8C67.6,90.1,68.3,89.9,69.1,89.7
		C69.1,89.8,69.1,89.7,69.1,89.7z"/>
	<path class="st12" d="M71.3,90.5c-0.8,0.2-1.5,0.4-2.3,0.5c-0.4,0.1-0.7,0.2-1.1,0.3c-0.4,0.1-0.8,0.3-1.2,0.4L62.3,93
		c-1.5,0.4-3,0.9-4.5,1.3c-0.8,0.2-1.5,0.4-2.3,0.4c-0.4,0-0.8,0-1.1,0.1c-0.4,0.1-0.8,0.2-1.1,0.4c-1.7,0.6-3.4,1.1-5.1,1.5
		c0,0,0,0.1,0,0.1c1.5-0.4,3.1-0.8,4.6-1.3c0.8-0.3,1.5-0.6,2.3-0.7c0.4,0,0.7,0,1.1-0.1c0.4,0,0.8-0.1,1.1-0.2
		c1.5-0.4,3-0.8,4.5-1.3c1.5-0.4,3-0.9,4.5-1.3c0.4-0.1,0.9-0.2,1.3-0.4c0.4-0.1,0.8-0.3,1.2-0.4c0.4-0.1,0.8-0.1,1.3-0.2
		C70.5,90.8,70.9,90.7,71.3,90.5C71.4,90.5,71.4,90.5,71.3,90.5z"/>
	<path class="st12" d="M68.3,89c-1.1,0.5-2.3,0.5-3.5,0.8c-1.2,0.3-2.3,0.7-3.5,1.1c-1.2,0.4-2.3,0.7-3.5,1
		c-1.2,0.3-2.4,0.6-3.6,0.8c-1.3,0.3-2.6,0.4-3.8,1.1c0,0,0,0.1,0,0.1c1.1-0.6,2.3-0.8,3.4-1c0.7-0.1,1.4-0.3,2.1-0.4
		c-1.9,0.6-3.9,1.1-5.8,1.7c0,0,0,0.1,0,0.1c1.7-0.5,3.5-1,5.2-1.5c-0.2,0.1-0.4,0.2-0.6,0.3c0,0,0,0.1,0,0.1
		c0.6-0.4,1.4-0.6,2.1-0.7c0,0,0-0.1,0-0.1c-0.3,0-0.5,0.1-0.8,0.2c0,0,0,0,0,0c0.5-0.1,0.9-0.2,1.4-0.3c1.2-0.3,2.4-0.6,3.5-1
		c1.2-0.4,2.3-0.8,3.5-1.1c0.6-0.2,1.3-0.3,1.9-0.4C67,89.5,67.7,89.3,68.3,89C68.3,89,68.3,89,68.3,89z"/>
	<path class="st12" d="M70,89.9c-1.8,0.4-3.6,0.7-5.2,1.5c0,0,0,0.1,0,0.1C66.5,90.7,68.3,90.4,70,89.9C70.1,90,70.1,89.9,70,89.9z"
		/>
	<path class="st12" d="M54.7,93.8c-0.8,0.6-1.9,0.4-2.8,0.7c-0.5,0.1-1,0.3-1.4,0.5c-0.5,0.2-1,0.3-1.5,0.5c0,0,0,0.1,0,0.1
		c0.5-0.2,1-0.4,1.5-0.5c0.5-0.2,1-0.4,1.4-0.5C52.9,94.3,53.9,94.5,54.7,93.8C54.8,93.8,54.7,93.8,54.7,93.8z"/>
	<path class="st12" d="M53.2,94.9c-0.5,0-0.9,0.1-1.4,0.3c-0.5,0.2-0.9,0.5-1.4,0.5c0,0,0,0.1,0,0.1c0.5-0.1,0.9-0.3,1.3-0.5
		C52.2,95.1,52.7,94.9,53.2,94.9C53.2,94.9,53.2,94.9,53.2,94.9z"/>
	<path class="st12" d="M58.4,93.7c-0.9,0.1-1.8,0.2-2.7,0.5c0,0,0,0.1,0,0.1C56.6,94,57.5,93.9,58.4,93.7
		C58.5,93.8,58.4,93.7,58.4,93.7z"/>
	<path class="st12" d="M49.5,95.6c-0.3,0.1-0.5,0.2-0.8,0.3c0,0,0,0.1,0,0.1C49,95.8,49.2,95.7,49.5,95.6
		C49.5,95.6,49.5,95.6,49.5,95.6z"/>
	<path class="st12" d="M57.4,92.4c-0.6,0.2-1.1,0.3-1.7,0.5c0,0,0,0.1,0,0.1C56.3,92.8,56.9,92.6,57.4,92.4
		C57.5,92.4,57.4,92.4,57.4,92.4z"/>
	<path class="st12" d="M66.3,89.7c-0.4,0.2-0.8,0.2-1.2,0.2c-0.4,0-0.8,0.2-1.2,0.4c-0.8,0.3-1.7,0.6-2.5,0.9c0,0,0,0.1,0,0.1
		c0.8-0.3,1.7-0.6,2.5-0.9c0.4-0.1,0.8-0.3,1.2-0.3C65.5,90,65.9,90,66.3,89.7C66.3,89.8,66.3,89.7,66.3,89.7z"/>
	<path class="st12" d="M61.7,92.2c-0.8,0.1-1.6,0.4-2.2,0.9c0,0,0,0.1,0,0.1C60.1,92.7,60.9,92.4,61.7,92.2
		C61.7,92.3,61.7,92.2,61.7,92.2z"/>
	<path class="st12" d="M53.1,93.9c-0.6,0.2-1.1,0.3-1.7,0.3c-0.6,0-1.1,0.1-1.6,0.3c0,0,0,0.1,0,0.1c0.3-0.1,0.6-0.2,0.9-0.2
		c0.3-0.1,0.6-0.1,0.9-0.1C52.1,94.2,52.6,94.1,53.1,93.9C53.2,93.9,53.1,93.8,53.1,93.9z"/>
	<path class="st12" d="M49.4,96.6c-0.5,0.1-1,0.2-1.5,0.3c0,0,0,0.1,0,0.1C48.4,96.8,48.9,96.7,49.4,96.6
		C49.5,96.7,49.5,96.6,49.4,96.6z"/>
	<path class="st12" d="M58.3,94.7c-2.1,0.6-4.2,1.1-6.4,1.7c-0.6,0.2-1.2,0.3-1.8,0.5c0,0,0,0.1,0,0.1c2.1-0.6,4.2-1.1,6.4-1.7
		C57.1,95.1,57.7,94.9,58.3,94.7C58.4,94.7,58.3,94.7,58.3,94.7z"/>
	<path class="st12" d="M71.9,90.8c-0.6,0.6-1.5,0.8-2.2,1c-0.4,0.1-0.8,0.1-1.2,0.2c-0.4,0.1-0.8,0.3-1.2,0.4
		c-0.4,0.2-0.8,0.2-1.3,0.3c-0.4,0.1-0.9,0.2-1.3,0.3c-0.9,0.3-1.6,0.7-2.5,0.9c-1,0.2-2,0.4-3,0.5c0,0,0,0.1,0,0.1
		c0.9-0.2,1.8-0.3,2.7-0.5c0.4-0.1,0.8-0.2,1.2-0.4c0.4-0.2,0.9-0.4,1.3-0.5c0.4-0.1,0.9-0.2,1.3-0.3c0.4-0.1,0.9-0.1,1.3-0.2
		c0.4-0.1,0.8-0.3,1.2-0.4c0.4-0.1,0.8-0.2,1.2-0.3C70.4,91.7,71.2,91.5,71.9,90.8C71.9,90.8,71.9,90.7,71.9,90.8z"/>
	<path class="st13" d="M58.2,85.3c-1.2,0.1-2.4,0.5-3.6,0.9c-1.2,0.4-2.3,0.7-3.5,1c-0.7,0.2-1.4,0.3-2,0.5c0,0,0,0.1,0,0.1
		c1.2-0.3,2.4-0.6,3.6-0.9c1.2-0.3,2.3-0.7,3.5-1.1C56.9,85.6,57.6,85.5,58.2,85.3C58.3,85.4,58.3,85.3,58.2,85.3z"/>
	<path class="st12" d="M53.2,86.3c-1.4,0.4-2.7,0.7-4.1,1c0,0,0,0.1,0,0.1C50.5,87.1,51.9,86.7,53.2,86.3
		C53.3,86.3,53.3,86.3,53.2,86.3z"/>
	<path class="st13" d="M66.6,82.7c-1.6,0.6-3.2,1.2-4.8,1.6c-0.8,0.2-1.6,0.4-2.4,0.5C59,84.9,58.6,85,58.2,85
		c-0.4,0.1-0.8,0.1-1.2,0.1c-0.4,0.1-0.9,0.3-1.3,0.4c-0.5,0.2-0.9,0.3-1.4,0.5c0,0,0,0.1,0,0.1c0.8-0.3,1.6-0.5,2.4-0.8
		c0.4-0.1,0.8-0.2,1.2-0.2c0.4,0,0.8-0.1,1.2-0.2c1.6-0.3,3.3-0.6,4.9-1.2C64.8,83.5,65.8,83.2,66.6,82.7
		C66.7,82.8,66.7,82.7,66.6,82.7z"/>
	<path class="st12" d="M64.2,83.3c-0.9,0.4-1.9,0.3-2.7,0.7c0,0,0,0.1,0,0.1C62.4,83.7,63.4,83.8,64.2,83.3
		C64.3,83.4,64.3,83.3,64.2,83.3z"/>
	<path class="st12" d="M66.8,83c-2.1,0.6-4.2,1.2-6.3,1.8c-0.6,0.2-1.2,0.3-1.8,0.5c0,0,0,0.1,0,0.1c2.1-0.6,4.2-1.2,6.3-1.7
		C65.6,83.4,66.2,83.2,66.8,83C66.8,83.1,66.8,83,66.8,83z"/>
	<path class="st13" d="M62.1,85.9c-3.2,0.9-6.5,1.8-9.7,2.7c-0.9,0.3-1.9,0.5-2.8,0.7c0,0,0,0.1,0,0.1c1.6-0.3,3.3-0.8,4.9-1.3
		c1.6-0.5,3.2-0.9,4.9-1.4C60.3,86.4,61.2,86.2,62.1,85.9C62.1,85.9,62.1,85.9,62.1,85.9z"/>
	<path class="st12" d="M67.1,84.4c-0.6,0.2-1.1,0.3-1.7,0.5c-0.5,0.2-1.1,0.4-1.7,0.5c-0.5,0.1-1.1,0.1-1.6,0.2
		c-0.6,0.1-1.1,0.3-1.7,0.4c0,0,0,0.1,0,0.1c0.6-0.2,1.1-0.3,1.7-0.4c0.5-0.1,1.1-0.1,1.6-0.2c0.6-0.1,1.1-0.3,1.7-0.5
		C66,84.8,66.6,84.6,67.1,84.4C67.2,84.5,67.2,84.4,67.1,84.4z"/>
	<path class="st12" d="M56.5,87c-1.2,0.4-2.4,0.7-3.6,1.1c-1.2,0.4-2.4,0.7-3.7,0.9c0,0,0,0.1,0,0.1c1.2-0.2,2.4-0.6,3.7-0.9
		C54.1,87.7,55.3,87.4,56.5,87C56.6,87,56.6,87,56.5,87z"/>
	<path class="st12" d="M60.2,86.1c-0.8,0.2-1.6,0.4-2.4,0.6c0,0,0,0.1,0,0.1C58.6,86.5,59.4,86.3,60.2,86.1
		C60.3,86.2,60.3,86.1,60.2,86.1z"/>
	<path class="st12" d="M53,89.8c-1.1,0.2-2.2,0.4-3.3,0.6c0,0,0,0.1,0,0.1C50.8,90.3,51.9,90.1,53,89.8C53.1,89.9,53.1,89.8,53,89.8
		z"/>
	<path class="st13" d="M67.2,86.1c-1.1,0.2-2.3,0.6-3.4,0.9c-0.6,0.2-1.1,0.4-1.6,0.6c-0.6,0.2-1.1,0.4-1.7,0.6
		c-0.6,0.1-1.2,0.2-1.8,0.2c-0.5,0-1.1,0.1-1.6,0.3c-0.6,0.2-1.1,0.3-1.6,0.5c-0.6,0.2-1.1,0.4-1.7,0.5c-1.3,0.4-2.6,0.6-3.9,0.9
		c0,0,0,0.1,0,0.1c1.1-0.3,2.3-0.5,3.4-0.8c1.1-0.3,2.2-0.7,3.3-1c0.6-0.2,1.1-0.3,1.7-0.4c0.5-0.1,1.1-0.1,1.6-0.2
		c1.1-0.2,2.2-0.7,3.3-1.1C64.7,86.8,66,86.4,67.2,86.1C67.3,86.1,67.3,86.1,67.2,86.1z"/>
	<path class="st12" d="M67.2,86.3c-0.3,0.2-0.7,0.2-1.1,0.2c-0.3,0-0.7,0-1,0.2c-0.7,0.3-1.5,0.6-2.3,0.8c0,0,0,0.1,0,0.1
		c0.8-0.2,1.6-0.5,2.3-0.8c0.4-0.1,0.7-0.1,1.1-0.1C66.6,86.6,66.9,86.6,67.2,86.3C67.2,86.4,67.2,86.3,67.2,86.3z"/>
	<path class="st13" d="M64.4,86.5c-3,0.8-6,1.7-8.9,2.5c-0.8,0.2-1.7,0.5-2.5,0.7c0,0,0,0.1,0,0.1c3-0.8,6-1.6,8.9-2.5
		C62.8,87,63.6,86.8,64.4,86.5C64.5,86.5,64.5,86.5,64.4,86.5z"/>
	<path class="st12" d="M62,87.3c-0.6,0.3-1.2,0.5-1.8,0.7c0,0,0,0.1,0,0.1C60.9,87.9,61.5,87.6,62,87.3C62.1,87.3,62.1,87.3,62,87.3
		z"/>
	<path class="st13" d="M58,88.6c-0.5,0.1-0.9,0.3-1.4,0.5c-0.2,0.1-0.4,0.2-0.6,0.3c-0.2,0.1-0.5,0.3-0.7,0.3c0,0,0,0.1,0,0.1
		c0.4,0,0.8-0.3,1.2-0.5C57,88.9,57.5,88.8,58,88.6C58.1,88.6,58.1,88.6,58,88.6z"/>
	<path class="st13" d="M59.7,89.8c-2.5,0.8-5,1.5-7.5,2.1l-2.1,0.6c0,0,0,0.1,0,0.1c2.5-0.7,5-1.3,7.5-2.1
		C58.3,90.3,59,90.1,59.7,89.8C59.7,89.8,59.7,89.8,59.7,89.8z"/>
	<path class="st12" d="M67.7,87.4c-0.5,0.4-1.1,0.5-1.6,0.6l-1.9,0.4c-1.2,0.3-2.5,0.6-3.7,0.8c-0.7,0.2-1.4,0.3-2.1,0.5
		c0,0,0,0.1,0,0.1c2.5-0.6,5-1.1,7.5-1.7C66.5,88,67.2,87.9,67.7,87.4C67.7,87.4,67.7,87.4,67.7,87.4z"/>
	<path class="st12" d="M67.7,87.7c-1,0.3-2,0.7-3.1,0.9c-0.5,0.1-1.1,0.1-1.6,0.3c-0.5,0.1-1,0.4-1.5,0.5c-0.5,0.1-1,0-1.3,0.4
		c0,0,0,0.1,0,0c0.3-0.4,0.8-0.3,1.3-0.4c0.5-0.1,1-0.3,1.5-0.5c0.5-0.1,1-0.2,1.5-0.3c0.5-0.1,1-0.2,1.5-0.4
		C66.6,88.2,67.1,88,67.7,87.7C67.7,87.8,67.7,87.7,67.7,87.7z"/>
	<path class="st12" d="M57.4,90c-1.9,0.6-3.9,1.1-5.8,1.6c-0.6,0.1-1.1,0.3-1.7,0.4c0,0,0,0.1,0,0.1c1.9-0.5,3.9-1,5.8-1.6
		C56.3,90.4,56.9,90.3,57.4,90C57.4,90.1,57.4,90,57.4,90z"/>
	<polygon class="st12" points="72.9,91.6 47.2,98.4 47.1,98 72.8,91.2 	"/>
</g>
<g>
	<polygon class="st7" points="114.2,97.4 113.4,97.2 115.5,86.1 116.3,86.3 	"/>
	<polygon class="st8" points="97.9,93.5 97.1,93.3 99.2,82.2 100,82.4 	"/>
	<polygon class="st9" points="93.1,91.6 97.9,89 115,93.1 118.6,97.7 	"/>
	<polygon class="st10" points="115.7,91.6 97.8,87.3 97.6,88.2 115.5,92.5 	"/>
	<polygon class="st10" points="116,90 98.1,85.8 97.9,86.6 115.8,90.9 	"/>
	<polygon class="st10" points="116.3,88.5 98.4,84.2 98.2,85.1 116.1,89.3 	"/>
	<polygon class="st10" points="116.6,86.9 98.7,82.6 98.5,83.5 116.4,87.8 	"/>
	<polygon class="st11" points="94.4,96.7 93.4,96.5 94.3,91.9 95.2,92.2 	"/>
	<polygon class="st11" points="116.6,102 115.6,101.8 116.5,97.2 117.5,97.5 	"/>
	<path class="st12" d="M117.4,96.7c-3.1-0.7-6.2-1.4-9.3-2.1c-3.1-0.8-6.1-1.6-9.2-2.3c-1.7-0.4-3.4-0.7-5.2-0.9c0,0-0.1,0.1,0,0.1
		c3.1,0.3,6.2,1.1,9.2,1.9c3.1,0.8,6.1,1.6,9.2,2.3C114,96,115.7,96.4,117.4,96.7C117.5,96.8,117.5,96.7,117.4,96.7z"/>
	<path class="st12" d="M116.6,95.9c-0.6-0.4-1.2-0.8-1.9-1c-0.7-0.2-1.4-0.2-2.1-0.3c-0.7-0.1-1.4-0.4-2.1-0.6
		c-0.7-0.2-1.4-0.3-2.2-0.3c-0.7-0.1-1.4-0.2-2.1-0.4c-0.7-0.3-1.3-0.6-2-0.9c-0.7-0.3-1.4-0.4-2.1-0.5c-0.7-0.1-1.5-0.3-2.2-0.6
		c-1.4-0.5-2.9-1-4.4-0.4c0,0,0,0.1,0,0.1c1.3-0.5,2.7-0.1,4,0.3c0.7,0.2,1.4,0.5,2.1,0.6c0.7,0.1,1.4,0.2,2.1,0.4
		c0.7,0.2,1.3,0.6,2,0.9c0.7,0.3,1.3,0.4,2,0.5c0.7,0.1,1.4,0.1,2.1,0.3c0.7,0.1,1.4,0.5,2.1,0.6c0.8,0.2,1.6,0.1,2.4,0.3
		C115.2,95.1,115.9,95.5,116.6,95.9C116.6,96,116.7,96,116.6,95.9z"/>
	<path class="st12" d="M115.1,93.9c-1.2-0.2-2.4-0.4-3.6-0.6c-1.2-0.2-2.4-0.4-3.5-0.7c-0.6-0.2-1.1-0.4-1.7-0.6
		c-0.6-0.2-1.1-0.4-1.7-0.5c-0.6-0.1-1.2-0.1-1.8-0.2c-0.6-0.1-1.1-0.3-1.7-0.5c-1.2-0.4-2.4-1-3.7-1.1c0,0,0,0.1,0,0.1
		c1.2,0.1,2.2,0.5,3.3,1c0.5,0.2,1.1,0.4,1.6,0.5c0.6,0.1,1.2,0.2,1.7,0.3c0.6,0.1,1.2,0.2,1.7,0.4c0.6,0.2,1.1,0.4,1.7,0.6
		c1.1,0.4,2.3,0.5,3.5,0.7C112.4,93.5,113.8,93.7,115.1,93.9C115.1,93.9,115.2,93.9,115.1,93.9z"/>
	<path class="st12" d="M115.9,94.6c-0.6-0.2-1.3-0.4-1.9-0.5c-0.6-0.1-1.3-0.1-2-0.2c-0.7-0.1-1.3-0.3-2-0.5
		c-0.6-0.2-1.3-0.4-1.9-0.5c-0.6-0.2-1.3-0.3-1.9-0.4c-0.3-0.1-0.7-0.1-1-0.2c-0.3-0.1-0.6-0.2-1-0.4c-0.3-0.1-0.6-0.3-0.9-0.4
		c-0.3-0.1-0.7-0.2-1-0.2c-0.6-0.1-1.3-0.2-1.9-0.3c-1.5-0.3-2.9-0.8-4.4-1.2c0,0,0,0.1,0,0.1c1.3,0.4,2.6,0.8,3.9,1.1
		c0.7,0.2,1.3,0.3,2,0.4c0.7,0.1,1.3,0.2,1.9,0.5c0.3,0.1,0.6,0.3,0.8,0.4c0.3,0.1,0.6,0.2,0.9,0.2c0.7,0.1,1.3,0.2,2,0.4
		c0.7,0.1,1.3,0.3,2,0.5c0.6,0.2,1.3,0.4,1.9,0.5c0.7,0.1,1.5,0.1,2.2,0.2C114.5,94.2,115.2,94.4,115.9,94.6
		C116,94.7,116,94.6,115.9,94.6z"/>
	<path class="st12" d="M117.7,96.4c-0.8-0.1-1.5-0.4-2.3-0.6c-0.4-0.1-0.7-0.2-1.1-0.2c-0.4-0.1-0.8-0.1-1.2-0.2l-4.6-1
		c-1.5-0.3-3-0.7-4.6-1c-0.8-0.2-1.5-0.4-2.2-0.7c-0.3-0.2-0.7-0.3-1.1-0.4c-0.4-0.1-0.8-0.2-1.2-0.2c-1.7-0.2-3.5-0.6-5.2-1.1
		c0,0,0,0.1,0,0.1c1.5,0.4,3.1,0.8,4.6,1c0.8,0.1,1.6,0.2,2.3,0.5c0.3,0.1,0.7,0.3,1,0.5c0.4,0.1,0.7,0.2,1.1,0.3
		c1.5,0.4,3,0.7,4.5,1c1.5,0.3,3.1,0.7,4.6,1c0.4,0.1,0.9,0.2,1.3,0.3c0.4,0.1,0.9,0.1,1.3,0.2c0.4,0.1,0.8,0.3,1.2,0.4
		C116.8,96.2,117.3,96.3,117.7,96.4C117.7,96.4,117.8,96.4,117.7,96.4z"/>
	<path class="st12" d="M115.5,93.5c-1.2,0-2.3-0.7-3.5-1c-1.2-0.3-2.4-0.5-3.6-0.7c-1.2-0.2-2.4-0.5-3.6-0.8c-1.2-0.3-2.4-0.7-3.6-1
		c-1.2-0.4-2.5-0.9-3.8-0.8c0,0,0,0.1,0,0.1c1.2,0,2.3,0.4,3.5,0.7c0.7,0.2,1.4,0.4,2.1,0.6c-2-0.4-3.9-0.9-5.9-1.3c0,0,0,0.1,0,0.1
		c1.8,0.4,3.5,0.8,5.3,1.2c-0.2,0-0.5,0-0.7,0c0,0,0,0.1,0,0.1c0.7-0.1,1.4,0.1,2.1,0.3c0,0,0-0.1,0-0.1c-0.3-0.1-0.5-0.2-0.8-0.2
		c0,0,0,0,0,0c0.5,0.1,0.9,0.3,1.4,0.4c1.2,0.3,2.4,0.6,3.6,0.8c1.2,0.2,2.4,0.4,3.6,0.7c0.6,0.1,1.3,0.4,1.9,0.6
		C114.2,93.4,114.8,93.6,115.5,93.5C115.5,93.6,115.5,93.5,115.5,93.5z"/>
	<path class="st12" d="M116.7,95.3c-1.7-0.5-3.5-1.1-5.3-1.2c0,0,0,0.1,0,0.1C113.2,94.3,115,94.8,116.7,95.3
		C116.7,95.3,116.8,95.3,116.7,95.3z"/>
	<path class="st12" d="M101.4,91.4c-1,0.1-1.8-0.5-2.8-0.7c-0.5-0.1-1-0.2-1.5-0.3c-0.5-0.1-1-0.2-1.5-0.2c0,0,0,0.1,0,0.1
		c0.5,0.1,1,0.2,1.6,0.2c0.5,0.1,1,0.1,1.5,0.3C99.6,91,100.4,91.6,101.4,91.4C101.4,91.4,101.4,91.4,101.4,91.4z"/>
	<path class="st12" d="M99.6,91.6c-0.4-0.2-0.9-0.3-1.3-0.4c-0.5,0-1,0-1.5-0.2c0,0,0,0.1,0,0.1c0.4,0.2,0.9,0.2,1.4,0.2
		C98.6,91.3,99.1,91.4,99.6,91.6C99.6,91.7,99.7,91.6,99.6,91.6z"/>
	<path class="st12" d="M104.8,93.1c-0.9-0.3-1.7-0.7-2.6-0.8c0,0-0.1,0.1,0,0.1C103,92.5,103.9,92.8,104.8,93.1
		C104.8,93.2,104.8,93.1,104.8,93.1z"/>
	<path class="st12" d="M96,90.5c-0.3-0.1-0.5-0.1-0.8-0.1c0,0,0,0.1,0,0.1C95.5,90.4,95.7,90.5,96,90.5C96,90.5,96,90.5,96,90.5z"/>
	<path class="st12" d="M104.4,91.4c-0.6-0.1-1.2-0.2-1.7-0.4c0,0,0,0.1,0,0.1C103.2,91.2,103.8,91.3,104.4,91.4
		C104.4,91.5,104.4,91.4,104.4,91.4z"/>
	<path class="st12" d="M113.4,93.3c-0.4,0-0.8-0.2-1.2-0.4c-0.4-0.2-0.8-0.2-1.3-0.3c-0.9-0.1-1.8-0.3-2.6-0.4c0,0-0.1,0.1,0,0.1
		c0.9,0.1,1.8,0.3,2.6,0.4c0.4,0.1,0.8,0.1,1.2,0.3C112.6,93.1,113,93.3,113.4,93.3C113.4,93.3,113.4,93.3,113.4,93.3z"/>
	<path class="st12" d="M108.3,93.3c-0.8-0.3-1.6-0.4-2.4-0.3c0,0,0,0.1,0,0.1C106.7,93,107.5,93.1,108.3,93.3
		C108.3,93.4,108.3,93.3,108.3,93.3z"/>
	<path class="st12" d="M99.9,90.6c-0.6,0-1.1-0.3-1.7-0.5c-0.5-0.2-1-0.4-1.6-0.5c0,0,0,0.1,0,0.1c0.3,0.1,0.6,0.1,0.9,0.2
		c0.3,0.1,0.6,0.2,0.9,0.3C98.9,90.5,99.4,90.7,99.9,90.6C100,90.7,100,90.6,99.9,90.6z"/>
	<path class="st12" d="M95.6,91.3c-0.5-0.2-1-0.3-1.5-0.4c0,0,0,0.1,0,0.1C94.6,91.1,95.1,91.2,95.6,91.3
		C95.6,91.4,95.6,91.4,95.6,91.3z"/>
	<path class="st12" d="M104.3,93.9c-2.1-0.5-4.3-1-6.4-1.5c-0.6-0.1-1.2-0.3-1.8-0.4c0,0,0,0.1,0,0.1c2.1,0.5,4.3,1,6.4,1.5
		C103.1,93.7,103.7,93.8,104.3,93.9C104.4,94,104.4,93.9,104.3,93.9z"/>
	<path class="st12" d="M118.1,96.9c-0.8,0.2-1.6,0-2.4-0.2c-0.4-0.1-0.8-0.2-1.1-0.3c-0.4-0.1-0.8-0.1-1.2-0.2
		c-0.4,0-0.8-0.2-1.2-0.4c-0.4-0.2-0.8-0.3-1.3-0.4c-0.9-0.2-1.8-0.1-2.6-0.4c-1-0.3-1.9-0.6-2.9-1c0,0,0,0.1,0,0.1
		c0.9,0.3,1.8,0.6,2.7,0.9c0.4,0.1,0.8,0.2,1.2,0.3c0.5,0,0.9,0.1,1.4,0.1c0.4,0.1,0.9,0.2,1.3,0.3c0.4,0.1,0.8,0.4,1.3,0.4
		c0.4,0.1,0.8,0.1,1.2,0.2c0.4,0.1,0.8,0.2,1.2,0.4C116.4,97,117.2,97.2,118.1,96.9C118.1,96.9,118.1,96.9,118.1,96.9z"/>
	<path class="st13" d="M107.8,85.4c-1.1-0.5-2.3-0.7-3.5-0.9c-1.2-0.2-2.4-0.5-3.6-0.8c-0.7-0.2-1.4-0.4-2-0.5c0,0,0,0.1,0,0.1
		c1.2,0.3,2.4,0.6,3.6,0.9c1.2,0.3,2.4,0.4,3.6,0.7C106.5,85,107.2,85.2,107.8,85.4C107.8,85.5,107.9,85.4,107.8,85.4z"/>
	<path class="st12" d="M102.9,83.8c-1.4-0.3-2.8-0.6-4.1-1c0,0,0,0.1,0,0.1C100.2,83.3,101.6,83.6,102.9,83.8
		C103,83.9,103,83.9,102.9,83.8z"/>
	<path class="st13" d="M116.4,87.1c-1.7-0.2-3.3-0.5-4.9-0.9c-0.8-0.2-1.6-0.5-2.4-0.7c-0.4-0.1-0.8-0.3-1.2-0.4
		c-0.4-0.1-0.7-0.3-1.1-0.4c-0.4-0.1-0.9-0.2-1.3-0.3c-0.5-0.1-1-0.2-1.4-0.3c0,0,0,0.1,0,0.1c0.8,0.2,1.6,0.3,2.5,0.5
		c0.4,0.1,0.8,0.2,1.2,0.4c0.4,0.1,0.8,0.3,1.1,0.4c1.6,0.5,3.2,1,4.8,1.3C114.5,86.9,115.4,87.1,116.4,87.1
		C116.4,87.2,116.4,87.1,116.4,87.1z"/>
	<path class="st12" d="M114,86.5c-0.9-0.1-1.8-0.6-2.7-0.7c0,0-0.1,0.1,0,0.1C112.2,85.9,113,86.4,114,86.5
		C114,86.6,114,86.5,114,86.5z"/>
	<path class="st12" d="M116.4,87.4c-2.1-0.5-4.2-0.9-6.3-1.4c-0.6-0.1-1.2-0.3-1.8-0.4c0,0,0,0.1,0,0.1c2.1,0.5,4.2,1,6.3,1.4
		C115.2,87.2,115.8,87.3,116.4,87.4C116.4,87.5,116.4,87.4,116.4,87.4z"/>
	<path class="st13" d="M111.1,87.7c-3.3-0.7-6.6-1.5-9.8-2.2c-0.9-0.2-1.9-0.4-2.8-0.7c0,0,0,0.1,0,0.1c1.6,0.5,3.3,0.8,4.9,1.2
		c1.6,0.4,3.3,0.7,4.9,1.1C109.2,87.4,110.2,87.6,111.1,87.7C111.1,87.8,111.1,87.8,111.1,87.7z"/>
	<path class="st12" d="M116.2,88.9c-0.6-0.1-1.2-0.2-1.7-0.4c-0.6-0.1-1.1-0.2-1.7-0.4c-0.5-0.2-1-0.5-1.5-0.6
		c-0.5-0.2-1.1-0.3-1.7-0.4c0,0,0,0.1,0,0.1c0.6,0.1,1.1,0.2,1.7,0.4c0.5,0.2,1,0.5,1.5,0.6c0.5,0.2,1.1,0.3,1.7,0.4
		C115,88.7,115.6,88.8,116.2,88.9C116.2,88.9,116.2,88.9,116.2,88.9z"/>
	<path class="st12" d="M105.7,86.1c-1.2-0.3-2.5-0.5-3.7-0.8c-1.2-0.3-2.5-0.5-3.7-0.9c0,0,0,0.1,0,0.1c1.2,0.4,2.4,0.7,3.7,0.9
		C103.2,85.6,104.4,85.9,105.7,86.1C105.7,86.1,105.7,86.1,105.7,86.1z"/>
	<path class="st12" d="M109.3,87.1c-0.8-0.3-1.6-0.5-2.4-0.6c0,0,0,0.1,0,0.1C107.7,86.7,108.5,86.9,109.3,87.1
		C109.4,87.1,109.4,87.1,109.3,87.1z"/>
	<path class="st12" d="M101.4,87c-1.1-0.3-2.2-0.7-3.2-1c0,0,0,0.1,0,0.1C99.2,86.4,100.3,86.7,101.4,87C101.4,87,101.4,87,101.4,87
		z"/>
	<path class="st13" d="M115.7,90.4c-1.1-0.3-2.3-0.6-3.4-0.8c-0.6-0.1-1.1-0.2-1.7-0.2c-0.6-0.1-1.2-0.1-1.7-0.3
		c-0.6-0.1-1.1-0.4-1.7-0.6c-0.5-0.2-1-0.4-1.6-0.5c-0.6-0.1-1.1-0.2-1.7-0.3c-0.6-0.1-1.2-0.2-1.7-0.4c-1.3-0.3-2.6-0.7-3.8-1
		c0,0,0,0.1,0,0.1c1.1,0.3,2.3,0.6,3.4,0.9c1.1,0.3,2.3,0.4,3.4,0.7c0.6,0.1,1.2,0.3,1.7,0.5c0.5,0.2,1,0.5,1.5,0.6
		c1.1,0.4,2.3,0.4,3.4,0.6C113.1,89.8,114.4,90.1,115.7,90.4C115.7,90.5,115.7,90.4,115.7,90.4z"/>
	<path class="st12" d="M115.5,90.6c-0.4,0-0.7-0.2-1-0.4c-0.3-0.2-0.6-0.3-1-0.3c-0.8-0.1-1.6-0.2-2.4-0.3c0,0,0,0.1,0,0.1
		c0.8,0.2,1.6,0.3,2.4,0.4c0.4,0,0.7,0.2,1,0.4C114.9,90.6,115.2,90.7,115.5,90.6C115.5,90.7,115.5,90.6,115.5,90.6z"/>
	<path class="st13" d="M113,89.4c-3-0.7-6-1.4-9-2c-0.8-0.2-1.7-0.4-2.5-0.6c0,0,0,0.1,0,0.1c3,0.7,6,1.4,9,2.1
		C111.3,89.1,112.1,89.3,113,89.4C113,89.5,113,89.4,113,89.4z"/>
	<path class="st12" d="M110.5,89c-0.6,0-1.3-0.1-1.9-0.3c0,0,0,0.1,0,0.1C109.2,89,109.9,89.1,110.5,89
		C110.5,89.1,110.5,89,110.5,89z"/>
	<path class="st13" d="M106.4,88.2c-0.5-0.1-0.9-0.2-1.4-0.2c-0.2,0-0.4,0-0.6,0c-0.3,0-0.5,0-0.8-0.1c0,0-0.1,0,0,0.1
		c0.4,0.2,0.9,0.1,1.3,0.1C105.4,88.1,105.9,88.2,106.4,88.2C106.4,88.3,106.4,88.3,106.4,88.2z"/>
	<path class="st13" d="M107.4,90.1c-2.5-0.5-5.1-1.1-7.6-1.7L97.7,88c0,0,0,0.1,0,0.1c2.5,0.6,5,1.2,7.6,1.7
		C106,89.9,106.7,90.1,107.4,90.1C107.5,90.2,107.5,90.1,107.4,90.1z"/>
	<path class="st12" d="M115.6,91.8c-0.6,0.1-1.2-0.1-1.7-0.2l-1.8-0.5c-1.2-0.3-2.4-0.7-3.7-1c-0.7-0.2-1.4-0.4-2.1-0.6
		c0,0,0,0.1,0,0.1c2.5,0.7,4.9,1.4,7.4,2.1C114.3,91.8,114.9,92,115.6,91.8C115.6,91.9,115.6,91.8,115.6,91.8z"/>
	<path class="st12" d="M115.4,92.1c-1.1-0.2-2.1-0.4-3.2-0.7c-0.5-0.2-1-0.4-1.5-0.5c-0.5-0.1-1-0.1-1.6-0.3
		c-0.4-0.1-0.9-0.4-1.3-0.3c0,0,0,0.1,0,0.1c0.4-0.2,0.9,0.1,1.3,0.3c0.5,0.2,1,0.2,1.5,0.3c0.5,0.1,1,0.3,1.5,0.5
		c0.5,0.2,1,0.3,1.5,0.4C114.3,92,114.8,92.1,115.4,92.1C115.5,92.2,115.5,92.1,115.4,92.1z"/>
	<path class="st12" d="M105.3,89.2c-2-0.4-3.9-0.8-5.9-1.3c-0.6-0.1-1.1-0.3-1.7-0.4c0,0,0,0.1,0,0.1c2,0.5,3.9,0.9,5.9,1.3
		C104.1,89.1,104.7,89.2,105.3,89.2C105.3,89.3,105.3,89.3,105.3,89.2z"/>
	<polygon class="st12" points="118.7,98.1 92.9,91.9 92.9,91.5 118.8,97.7 	"/>
</g>
<ellipse class="st14" cx="73.1" cy="125.3" rx="5.7" ry="4.7"/>
<ellipse class="st14" cx="74.2" cy="125.9" rx="3.7" ry="1.8"/>
<ellipse class="st14" cx="69" cy="118.8" rx="2.6" ry="2.9"/>
<line class="st15" x1="69.5" y1="119.4" x2="70.5" y2="122.9"/>
<polygon class="st0" points="67.4,119.4 64.3,121.8 69.5,120.6 "/>
<ellipse class="st16" cx="67.9" cy="118.8" rx="0.5" ry="0.6"/>
<line class="st17" x1="65.8" y1="129.4" x2="80.5" y2="129.4"/>
<text transform="matrix(0.8718 -0.2166 0.1924 0.9813 69.0508 35.0076)" class="st0 st18 st19">PARK</text>
</svg>
