<?xml version="1.0" encoding="utf-8"?>
<!-- Generator: Adobe Illustrator 21.1.0, SVG Export Plug-In . SVG Version: 6.00 Build 0)  -->
<svg version="1.1" id="Layer_1" xmlns="http://www.w3.org/2000/svg" xmlns:xlink="http://www.w3.org/1999/xlink" x="0px" y="0px"
	 viewBox="0 0 162 162" style="enable-background:new 0 0 162 162;" xml:space="preserve">
<style type="text/css">
	.st0{fill:#102773;}
	.st1{fill:#FFFFFF;}
	.st2{fill:none;stroke:#102773;stroke-width:0.5;stroke-miterlimit:10;}
</style>
<g>
	<rect x="13" y="42" class="st0" width="36" height="81"/>
	<rect x="16" y="46" class="st1" width="7" height="7"/>
	<rect x="27" y="46" class="st1" width="7" height="7"/>
	<rect x="38" y="46" class="st1" width="7" height="7"/>
	<rect x="16" y="58" class="st1" width="7" height="7"/>
	<rect x="27" y="58" class="st1" width="7" height="7"/>
	<rect x="38" y="58" class="st1" width="7" height="7"/>
	<rect x="16" y="70" class="st1" width="7" height="7"/>
	<rect x="27" y="70" class="st1" width="7" height="7"/>
	<rect x="38" y="70" class="st1" width="7" height="7"/>
	<rect x="16" y="82" class="st1" width="7" height="7"/>
	<rect x="27" y="82" class="st1" width="7" height="7"/>
	<rect x="38" y="82" class="st1" width="7" height="7"/>
	<rect x="16" y="94" class="st1" width="7" height="7"/>
	<rect x="27" y="94" class="st1" width="7" height="7"/>
	<rect x="38" y="94" class="st1" width="7" height="7"/>
	<rect x="25" y="108" class="st1" width="11" height="14"/>
</g>
<g>
	<rect x="113" y="42" class="st0" width="36" height="81"/>
	<rect x="116" y="46" class="st1" width="7" height="7"/>
	<rect x="127" y="46" class="st1" width="7" height="7"/>
	<rect x="138" y="46" class="st1" width="7" height="7"/>
	<rect x="116" y="58" class="st1" width="7" height="7"/>
	<rect x="127" y="58" class="st1" width="7" height="7"/>
	<rect x="138" y="58" class="st1" width="7" height="7"/>
	<rect x="116" y="70" class="st1" width="7" height="7"/>
	<rect x="127" y="70" class="st1" width="7" height="7"/>
	<rect x="138" y="70" class="st1" width="7" height="7"/>
	<rect x="116" y="82" class="st1" width="7" height="7"/>
	<rect x="127" y="82" class="st1" width="7" height="7"/>
	<rect x="138" y="82" class="st1" width="7" height="7"/>
	<rect x="116" y="94" class="st1" width="7" height="7"/>
	<rect x="127" y="94" class="st1" width="7" height="7"/>
	<rect x="138" y="94" class="st1" width="7" height="7"/>
	<rect x="125" y="108" class="st1" width="11" height="14"/>
</g>
<g>
	<rect x="70.9" y="103.6" class="st0" width="1.5" height="18.4"/>
	<ellipse class="st0" cx="71.1" cy="106.7" rx="3.7" ry="7.7"/>
	<ellipse class="st0" cx="69.9" cy="110.8" rx="3.9" ry="4.6"/>
	<ellipse class="st0" cx="74.1" cy="109" rx="2.7" ry="3.8"/>
	<ellipse class="st0" cx="67.4" cy="106.2" rx="2" ry="3.1"/>
</g>
<g>
	<rect x="59" y="103.6" class="st0" width="1.5" height="18.4"/>
	<ellipse class="st0" cx="59.3" cy="106.7" rx="3.7" ry="7.7"/>
	<ellipse class="st0" cx="58.1" cy="110.8" rx="3.9" ry="4.6"/>
	<ellipse class="st0" cx="62.2" cy="109" rx="2.7" ry="3.8"/>
	<ellipse class="st0" cx="55.6" cy="106.2" rx="2" ry="3.1"/>
</g>
<g>
	<rect x="94.4" y="103.6" class="st0" width="1.5" height="18.4"/>
	<ellipse class="st0" cx="94.7" cy="106.7" rx="3.7" ry="7.7"/>
	<ellipse class="st0" cx="93.4" cy="110.8" rx="3.9" ry="4.6"/>
	<ellipse class="st0" cx="97.6" cy="109" rx="2.7" ry="3.8"/>
	<ellipse class="st0" cx="91" cy="106.2" rx="2" ry="3.1"/>
</g>
<g>
	<rect x="82.6" y="103.6" class="st0" width="1.5" height="18.4"/>
	<ellipse class="st0" cx="82.8" cy="106.7" rx="3.7" ry="7.7"/>
	<ellipse class="st0" cx="81.6" cy="110.8" rx="3.9" ry="4.6"/>
	<ellipse class="st0" cx="85.8" cy="109" rx="2.7" ry="3.8"/>
	<ellipse class="st0" cx="79.2" cy="106.2" rx="2" ry="3.1"/>
</g>
<g>
	<rect x="106.1" y="103.6" class="st0" width="1.5" height="18.4"/>
	<ellipse class="st0" cx="106.4" cy="106.7" rx="3.7" ry="7.7"/>
	<ellipse class="st0" cx="105.1" cy="110.8" rx="3.9" ry="4.6"/>
	<ellipse class="st0" cx="109.3" cy="109" rx="2.7" ry="3.8"/>
	<ellipse class="st0" cx="102.7" cy="106.2" rx="2" ry="3.1"/>
</g>
<g>
	<rect x="53.1" y="111" class="st0" width="0.8" height="10.5"/>
	<ellipse class="st0" cx="53.2" cy="112.7" rx="2.1" ry="4.4"/>
	<ellipse class="st0" cx="52.5" cy="115.1" rx="2.2" ry="2.6"/>
	<ellipse class="st0" cx="54.9" cy="114" rx="1.5" ry="2.2"/>
	<ellipse class="st0" cx="51.1" cy="112.4" rx="1.1" ry="1.7"/>
</g>
<g>
	<rect x="64.8" y="111" class="st0" width="0.8" height="10.5"/>
	<ellipse class="st0" cx="65" cy="112.7" rx="2.1" ry="4.4"/>
	<ellipse class="st0" cx="64.3" cy="115.1" rx="2.2" ry="2.6"/>
	<ellipse class="st0" cx="66.7" cy="114" rx="1.5" ry="2.2"/>
	<ellipse class="st0" cx="62.9" cy="112.4" rx="1.1" ry="1.7"/>
</g>
<g>
	<rect x="76.6" y="111" class="st0" width="0.8" height="10.5"/>
	<ellipse class="st0" cx="76.8" cy="112.7" rx="2.1" ry="4.4"/>
	<ellipse class="st0" cx="76.1" cy="115.1" rx="2.2" ry="2.6"/>
	<ellipse class="st0" cx="78.4" cy="114" rx="1.5" ry="2.2"/>
	<ellipse class="st0" cx="74.7" cy="112.4" rx="1.1" ry="1.7"/>
</g>
<g>
	<rect x="88.4" y="111" class="st0" width="0.8" height="10.5"/>
	<ellipse class="st0" cx="88.5" cy="112.7" rx="2.1" ry="4.4"/>
	<ellipse class="st0" cx="87.8" cy="115.1" rx="2.2" ry="2.6"/>
	<ellipse class="st0" cx="90.2" cy="114" rx="1.5" ry="2.2"/>
	<ellipse class="st0" cx="86.4" cy="112.4" rx="1.1" ry="1.7"/>
</g>
<g>
	<rect x="100.2" y="111" class="st0" width="0.8" height="10.5"/>
	<ellipse class="st0" cx="100.3" cy="112.7" rx="2.1" ry="4.4"/>
	<ellipse class="st0" cx="99.6" cy="115.1" rx="2.2" ry="2.6"/>
	<ellipse class="st0" cx="102" cy="114" rx="1.5" ry="2.2"/>
	<ellipse class="st0" cx="98.2" cy="112.4" rx="1.1" ry="1.7"/>
</g>
<rect x="45" y="65" class="st0" width="71" height="5"/>
<g>
	<rect x="62.1" y="57" class="st0" width="0.8" height="10.5"/>
	<ellipse class="st0" cx="62.2" cy="58.7" rx="2.1" ry="4.4"/>
	<ellipse class="st0" cx="61.5" cy="61.1" rx="2.2" ry="2.6"/>
	<ellipse class="st0" cx="63.9" cy="60" rx="1.5" ry="2.2"/>
	<ellipse class="st0" cx="60.1" cy="58.4" rx="1.1" ry="1.7"/>
</g>
<g>
	<rect x="55.1" y="56" class="st0" width="0.8" height="10.5"/>
	<ellipse class="st0" cx="55.2" cy="57.7" rx="2.1" ry="4.4"/>
	<ellipse class="st0" cx="54.5" cy="60.1" rx="2.2" ry="2.6"/>
	<ellipse class="st0" cx="56.9" cy="59" rx="1.5" ry="2.2"/>
	<ellipse class="st0" cx="53.1" cy="57.4" rx="1.1" ry="1.7"/>
</g>
<g>
	<rect x="107.1" y="56" class="st0" width="0.8" height="10.5"/>
	<ellipse class="st0" cx="107.2" cy="57.7" rx="2.1" ry="4.4"/>
	<ellipse class="st0" cx="106.5" cy="60.1" rx="2.2" ry="2.6"/>
	<ellipse class="st0" cx="108.9" cy="59" rx="1.5" ry="2.2"/>
	<ellipse class="st0" cx="105.1" cy="57.4" rx="1.1" ry="1.7"/>
</g>
<g>
	<rect x="100.1" y="57" class="st0" width="0.8" height="10.5"/>
	<ellipse class="st0" cx="100.2" cy="58.7" rx="2.1" ry="4.4"/>
	<ellipse class="st0" cx="99.5" cy="61.1" rx="2.2" ry="2.6"/>
	<ellipse class="st0" cx="101.9" cy="60" rx="1.5" ry="2.2"/>
	<ellipse class="st0" cx="98.1" cy="58.4" rx="1.1" ry="1.7"/>
</g>
<circle class="st0" cx="69.5" cy="62.5" r="1.5"/>
<circle class="st0" cx="74.5" cy="62.5" r="1.5"/>
<rect x="69" y="63" class="st0" width="1" height="3"/>
<rect x="68" y="64" class="st2" width="3" height="3"/>
<rect x="74" y="63" class="st0" width="1" height="3"/>
<rect x="73" y="64" class="st2" width="3" height="3"/>
</svg>
