<?xml version="1.0" encoding="utf-8"?>
<!-- Generator: Adobe Illustrator 21.1.0, SVG Export Plug-In . SVG Version: 6.00 Build 0)  -->
<svg version="1.1" id="Layer_1" xmlns="http://www.w3.org/2000/svg" xmlns:xlink="http://www.w3.org/1999/xlink" x="0px" y="0px"
	 viewBox="0 0 162 162" style="enable-background:new 0 0 162 162;" xml:space="preserve">
<style type="text/css">
	.st0{fill:#102773;}
	.st1{fill:#102773;stroke:#FFFFFF;stroke-miterlimit:10;}
	.st2{fill:#102773;stroke:#102773;stroke-width:7.651902e-02;stroke-miterlimit:10;}
	.st3{fill:#102773;stroke:#102773;stroke-width:0.1253;stroke-miterlimit:10;}
	.st4{fill:#102773;stroke:#102773;stroke-width:5.956122e-02;stroke-miterlimit:10;}
	.st5{fill:#102773;stroke:#FFFFFF;stroke-width:1.0601;stroke-miterlimit:10;}
	.st6{fill:#102773;stroke:#F9F9F9;stroke-width:0.2892;stroke-miterlimit:10;}
	.st7{fill:#102773;stroke:#F9F9F9;stroke-width:0.3252;stroke-miterlimit:10;}
	.st8{fill:#102773;stroke:#F9F9F9;stroke-width:0.268;stroke-miterlimit:10;}
	.st9{fill:none;stroke:#102773;stroke-width:0.5368;stroke-miterlimit:10;}
	.st10{fill:#102773;stroke:#FCFCFC;stroke-width:0.2603;stroke-miterlimit:10;}
	.st11{fill:#FCFCFC;}
	.st12{fill:none;stroke:#F5F6F7;stroke-width:0.2684;stroke-miterlimit:10;}
	.st13{fill:#102773;stroke:#F9F9F9;stroke-width:0.7639;stroke-miterlimit:10;}
	.st14{fill:#102773;stroke:#F9F9F9;stroke-width:0.8592;stroke-miterlimit:10;}
	.st15{fill:#102773;stroke:#F9F9F9;stroke-width:0.708;stroke-miterlimit:10;}
	.st16{fill:none;stroke:#102773;stroke-width:1.4179;stroke-miterlimit:10;}
	.st17{fill:#102773;stroke:#FCFCFC;stroke-width:0.8162;stroke-miterlimit:10;}
	.st18{fill:none;stroke:#F5F6F7;stroke-width:0.709;stroke-miterlimit:10;}
	.st19{fill:none;stroke:#102773;stroke-width:2;stroke-miterlimit:10;}
</style>
<ellipse class="st0" cx="80.5" cy="112.1" rx="69.5" ry="42.9"/>
<ellipse class="st1" cx="80.2" cy="112.5" rx="64.8" ry="38"/>
<g>
	<polygon class="st0" points="86.3,66.3 83.4,66.6 82.7,43.4 85.5,43.1 	"/>
	<path class="st0" d="M92.8,42.5c0.3,3.9-3.6,7.9-8.7,8.8c-5.1,0.9-9.5-1.5-9.8-5.4s3.6-7.9,8.7-8.8C88.1,36.1,92.5,38.5,92.8,42.5z
		"/>
	<path class="st0" d="M88.3,32.4c0.4,5.4-1.8,10.2-4.9,10.8c-3.1,0.6-6-3.3-6.4-8.7c-0.4-5.4,1.8-10.2,4.9-10.8
		C85,23.2,87.9,27.1,88.3,32.4z"/>
</g>
<g>
	<polygon class="st0" points="101.4,67.4 98.5,67.4 99.6,44.1 102.4,44.1 	"/>
	<path class="st0" d="M109.7,44.4c0,4-4.2,7.4-9.3,7.7c-5.1,0.3-9.3-2.6-9.2-6.6s4.2-7.4,9.3-7.7C105.5,37.5,109.7,40.4,109.7,44.4z
		"/>
	<path class="st0" d="M106,33.8c0,5.4-2.6,10-5.7,10.2c-3.2,0.2-5.7-4-5.7-9.5c0-5.4,2.6-10,5.7-10.2S106,28.4,106,33.8z"/>
</g>
<g>
	<polygon class="st0" points="120,67.3 117.2,67.2 116.8,43.9 119.6,44 	"/>
	<path class="st0" d="M126.9,44.5c0.2,4-3.7,7.3-8.8,7.5c-5.1,0.2-9.4-2.9-9.6-6.8s3.7-7.3,8.8-7.5
		C122.3,37.4,126.7,40.5,126.9,44.5z"/>
	<path class="st0" d="M122.6,33.8c0.3,5.4-2,9.9-5.1,10.1s-5.9-4.2-6.3-9.6s2-9.9,5.1-10.1C119.5,24,122.3,28.3,122.6,33.8z"/>
</g>
<g>
	<polygon class="st2" points="143,68.7 142.2,68.7 142.6,57.4 143.5,57.4 	"/>
	<polygon class="st2" points="126.2,68.9 125.3,68.9 125.8,57.6 126.6,57.6 	"/>
	<polygon class="st3" points="121.1,68.2 125.5,64.5 143.2,64.3 147.4,67.9 	"/>
	<polygon class="st0" points="143.6,62.7 125.2,62.9 125.1,63.8 143.6,63.6 	"/>
	<polygon class="st0" points="143.7,61.1 125.2,61.4 125.2,62.2 143.6,62 	"/>
	<polygon class="st0" points="143.7,59.5 125.3,59.8 125.3,60.6 143.7,60.4 	"/>
	<polygon class="st0" points="143.8,58 125.4,58.2 125.3,59 143.8,58.8 	"/>
	<polygon class="st4" points="123.1,72.9 122.1,72.9 122.3,68.3 123.3,68.2 	"/>
	<polygon class="st4" points="146,72.6 145,72.6 145.2,68 146.2,68 	"/>
	<path class="st0" d="M146.1,67.2c-3.2,0.1-6.4,0.2-9.5,0.2c-3.2,0-6.3,0-9.5,0c-1.8,0-3.5,0.1-5.3,0.4c0,0,0,0.1,0,0.1
		c3.1-0.4,6.3-0.4,9.4-0.4c3.2,0,6.3,0,9.5-0.1C142.5,67.4,144.3,67.3,146.1,67.2C146.1,67.3,146.1,67.2,146.1,67.2z"/>
	<path class="st0" d="M145.2,66.7c-0.7-0.2-1.4-0.5-2.1-0.5c-0.7-0.1-1.4,0.2-2.2,0.3c-0.7,0.1-1.5,0-2.2-0.1
		c-0.7,0-1.5,0.1-2.2,0.2c-0.7,0.1-1.4,0.2-2.2,0.1c-0.7-0.1-1.4-0.3-2.1-0.4c-0.7-0.1-1.4,0-2.2,0c-0.8,0.1-1.5,0-2.2,0
		c-1.5-0.1-3.1-0.2-4.4,0.7c0,0,0,0.1,0,0.1c1.2-0.8,2.7-0.8,4-0.7c0.7,0.1,1.5,0.1,2.2,0.1c0.7,0,1.4-0.2,2.2-0.1
		c0.7,0.1,1.4,0.2,2.1,0.4c0.7,0.1,1.4,0.1,2.1,0c0.7-0.1,1.4-0.2,2.2-0.3c0.7,0,1.4,0.1,2.2,0.1c0.8,0,1.6-0.3,2.4-0.3
		C143.6,66.2,144.4,66.5,145.2,66.7C145.2,66.8,145.2,66.7,145.2,66.7z"/>
	<path class="st0" d="M143.4,65c-1.2,0.1-2.4,0.2-3.6,0.3c-1.2,0.1-2.4,0.2-3.6,0.2c-0.6,0-1.2-0.1-1.8-0.2c-0.6-0.1-1.2-0.1-1.8,0
		c-0.6,0.1-1.2,0.2-1.8,0.2c-0.6,0-1.2,0-1.7-0.1c-1.3-0.1-2.5-0.4-3.8-0.2c0,0,0,0.1,0,0.1c1.2-0.2,2.3,0,3.4,0.1
		c0.6,0.1,1.1,0.1,1.7,0.1c0.6,0,1.2-0.1,1.8-0.2c0.6-0.1,1.2-0.1,1.8-0.1c0.6,0,1.2,0.1,1.8,0.2c1.2,0.1,2.4-0.1,3.6-0.2
		C140.6,65.3,142,65.2,143.4,65C143.4,65.1,143.4,65,143.4,65z"/>
	<path class="st0" d="M144.3,65.5c-0.7,0-1.3,0-2,0c-0.7,0.1-1.3,0.2-2,0.3c-0.7,0.1-1.4,0-2,0c-0.7,0-1.3,0-2,0c-0.7,0-1.3,0-2,0.1
		c-0.3,0-0.7,0.1-1,0.1c-0.3,0-0.7,0-1-0.1c-0.3-0.1-0.6-0.1-0.9-0.1c-0.3,0-0.7,0-1,0c-0.7,0.1-1.3,0.1-2,0.2c-1.5,0-3-0.1-4.5-0.1
		c0,0,0,0.1,0,0.1c1.3,0.1,2.7,0.1,4,0.1c0.7,0,1.3,0,2-0.1c0.7-0.1,1.3-0.1,2,0c0.3,0.1,0.6,0.1,0.9,0.2c0.3,0,0.6,0,1,0
		c0.7,0,1.3-0.1,2-0.1c0.7,0,1.4,0,2,0c0.7,0,1.3,0.1,2,0.1c0.7,0,1.5-0.2,2.2-0.3C142.8,65.6,143.5,65.5,144.3,65.5
		C144.3,65.6,144.3,65.5,144.3,65.5z"/>
	<path class="st0" d="M146.3,66.8c-0.8,0.1-1.6,0-2.4-0.1c-0.4,0-0.7,0-1.1,0.1c-0.4,0-0.8,0.1-1.2,0.1l-4.7,0.1
		c-1.6,0-3.1,0.1-4.7,0.1c-0.8,0-1.6,0-2.3-0.2c-0.4-0.1-0.7-0.1-1.1-0.1c-0.4,0-0.8,0-1.2,0.1c-1.8,0.2-3.5,0.2-5.3,0.2
		c0,0,0,0.1,0,0.1c1.6,0,3.2,0,4.7-0.1c0.8-0.1,1.6-0.2,2.4-0.1c0.4,0.1,0.7,0.1,1.1,0.2c0.4,0,0.8,0.1,1.1,0.1
		c1.6,0,3.1-0.1,4.7-0.1c1.6,0,3.2-0.1,4.7-0.1c0.4,0,0.9,0,1.3,0c0.4,0,0.9-0.1,1.3-0.1c0.4,0,0.8,0.1,1.3,0.1
		C145.4,66.9,145.9,66.9,146.3,66.8C146.3,66.9,146.4,66.8,146.3,66.8z"/>
	<path class="st0" d="M143.7,64.6c-1.2,0.3-2.4-0.1-3.6-0.1c-1.2,0-2.4,0.1-3.7,0.2c-1.2,0.1-2.4,0.1-3.7,0.1
		c-1.2,0-2.5-0.1-3.7-0.1c-1.3-0.1-2.6-0.2-3.9,0.1c0,0,0,0.1,0,0.1c1.2-0.3,2.4-0.2,3.6-0.1c0.7,0,1.4,0.1,2.2,0.1
		c-2,0.1-4,0.1-6,0.2c0,0,0,0.1,0,0.1c1.8-0.1,3.6-0.1,5.4-0.2c-0.2,0-0.5,0.1-0.7,0.2c0,0,0,0.1,0,0.1c0.7-0.3,1.5-0.2,2.2-0.2
		c0,0,0-0.1,0-0.1c-0.3,0-0.5,0-0.8,0c0,0,0,0,0,0c0.5,0,1,0,1.4,0c1.2,0,2.4,0,3.7-0.1c1.2-0.1,2.5-0.2,3.7-0.2c0.7,0,1.3,0,2,0.1
		C142.4,64.8,143,64.8,143.7,64.6C143.7,64.7,143.7,64.6,143.7,64.6z"/>
	<path class="st0" d="M145.2,66c-1.8-0.1-3.6-0.2-5.4,0.2c0,0,0,0.1,0,0.1C141.5,65.9,143.4,66,145.2,66
		C145.2,66.1,145.2,66,145.2,66z"/>
	<path class="st0" d="M129.4,66c-0.9,0.4-1.9,0-2.9,0c-0.5,0-1,0.1-1.5,0.1c-0.5,0-1,0.1-1.5,0.1c0,0,0,0.1,0,0.1
		c0.5,0,1.1-0.1,1.6-0.1c0.5,0,1-0.1,1.5-0.1C127.5,66,128.4,66.4,129.4,66C129.4,66,129.4,66,129.4,66z"/>
	<path class="st0" d="M127.6,66.6c-0.5-0.1-0.9-0.1-1.4,0c-0.5,0.1-1,0.2-1.5,0.2c0,0,0,0.1,0,0.1c0.5,0.1,0.9-0.1,1.4-0.2
		C126.6,66.6,127.1,66.6,127.6,66.6C127.6,66.7,127.7,66.6,127.6,66.6z"/>
	<path class="st0" d="M133,66.8c-0.9-0.1-1.8-0.2-2.7-0.1c0,0,0,0.1,0,0.1C131.1,66.6,132.1,66.8,133,66.8
		C133,66.9,133,66.8,133,66.8z"/>
	<path class="st0" d="M123.9,66.4c-0.3,0-0.6,0-0.8,0.1c0,0,0,0.1,0,0.1C123.3,66.5,123.6,66.5,123.9,66.4
		C123.9,66.5,123.9,66.4,123.9,66.4z"/>
	<path class="st0" d="M132.3,65.3c-0.6,0-1.2,0.1-1.8,0c0,0,0,0.1,0,0.1C131.1,65.4,131.7,65.4,132.3,65.3
		C132.4,65.3,132.4,65.3,132.3,65.3z"/>
	<path class="st0" d="M141.6,64.9c-0.4,0.1-0.8,0-1.2-0.1c-0.4-0.1-0.9,0-1.3,0c-0.9,0.1-1.8,0.2-2.7,0.3c0,0,0,0.1,0,0.1
		c0.9-0.1,1.8-0.2,2.7-0.3c0.4,0,0.8-0.1,1.3,0C140.7,64.9,141.1,65,141.6,64.9C141.6,64.9,141.6,64.9,141.6,64.9z"/>
	<path class="st0" d="M136.5,66.2c-0.8-0.1-1.6,0-2.4,0.3c0,0,0,0.1,0,0.1C134.9,66.2,135.7,66.1,136.5,66.2
		C136.5,66.2,136.5,66.2,136.5,66.2z"/>
	<path class="st0" d="M127.8,65.6c-0.6,0.1-1.2,0-1.8-0.1c-0.5-0.1-1.1-0.1-1.6-0.1c0,0,0,0.1,0,0.1c0.3,0,0.6,0,0.9,0
		c0.3,0,0.6,0.1,0.9,0.1C126.7,65.7,127.2,65.8,127.8,65.6C127.8,65.7,127.8,65.6,127.8,65.6z"/>
	<path class="st0" d="M123.5,67.4c-0.5-0.1-1-0.1-1.5,0c0,0,0,0.1,0,0.1C122.5,67.4,123,67.4,123.5,67.4
		C123.6,67.4,123.6,67.4,123.5,67.4z"/>
	<path class="st0" d="M132.6,67.7c-2.2,0-4.4,0-6.6,0.1c-0.6,0-1.2,0-1.9,0c0,0,0,0.1,0,0.1c2.2,0,4.4,0,6.6-0.1
		C131.4,67.8,132,67.8,132.6,67.7C132.7,67.8,132.7,67.7,132.6,67.7z"/>
	<path class="st0" d="M146.7,67.2c-0.8,0.4-1.6,0.4-2.4,0.4c-0.4,0-0.8-0.1-1.2-0.1c-0.4,0-0.8,0.1-1.2,0.1c-0.4,0.1-0.8,0-1.3-0.1
		c-0.4,0-0.9-0.1-1.3,0c-0.9,0-1.8,0.3-2.7,0.3c-1,0-2-0.2-3-0.2c0,0,0,0.1,0,0.1c0.9,0.1,1.9,0.2,2.8,0.2c0.4,0,0.8,0,1.3-0.1
		c0.5-0.1,0.9-0.2,1.4-0.2c0.4,0,0.9,0,1.3,0c0.4,0,0.9,0.1,1.3,0.1c0.4,0,0.8-0.1,1.2-0.1c0.4,0,0.8,0,1.2,0.1
		C145.1,67.7,145.9,67.7,146.7,67.2C146.8,67.3,146.8,67.2,146.7,67.2z"/>
	<path class="st0" d="M134.9,58.6c-1.2-0.2-2.4-0.1-3.7,0c-1.2,0.1-2.5,0.1-3.7,0.1c-0.7,0-1.4,0-2.1,0c0,0,0,0.1,0,0.1
		c1.2,0,2.5,0,3.7,0c1.2,0,2.4-0.2,3.7-0.2C133.5,58.6,134.2,58.6,134.9,58.6C134.9,58.7,134.9,58.6,134.9,58.6z"/>
	<path class="st0" d="M129.8,58.3c-1.4,0.1-2.8,0.1-4.2,0c0,0,0,0.1,0,0.1C127,58.4,128.4,58.4,129.8,58.3
		C129.8,58.4,129.8,58.3,129.8,58.3z"/>
	<path class="st0" d="M143.6,58.2c-1.7,0.2-3.4,0.3-5.1,0.3c-0.8,0-1.7,0-2.5-0.1c-0.4,0-0.8-0.1-1.2-0.1c-0.4,0-0.8-0.1-1.2-0.1
		c-0.5,0-0.9,0-1.4,0.1c-0.5,0-1,0.1-1.5,0.1c0,0,0,0.1,0,0.1c0.8-0.1,1.7-0.1,2.5-0.2c0.4,0,0.8,0,1.2,0.1c0.4,0.1,0.8,0.1,1.2,0.1
		c1.7,0.1,3.3,0.2,5,0.1C141.7,58.5,142.7,58.4,143.6,58.2C143.7,58.2,143.7,58.2,143.6,58.2z"/>
	<path class="st0" d="M141.2,58.2c-0.9,0.1-1.9-0.2-2.8,0c0,0,0,0.1,0,0.1C139.3,58.1,140.2,58.4,141.2,58.2
		C141.2,58.2,141.2,58.2,141.2,58.2z"/>
	<path class="st0" d="M143.7,58.5c-2.2,0.1-4.3,0.1-6.5,0.2c-0.6,0-1.2,0-1.8,0c0,0,0,0.1,0,0.1c2.2,0,4.3-0.1,6.5-0.1
		C142.5,58.6,143.1,58.6,143.7,58.5C143.7,58.5,143.7,58.5,143.7,58.5z"/>
	<path class="st0" d="M138.5,60.1c-3.4,0.1-6.7,0.2-10.1,0.2c-1,0-1.9,0-2.9,0c0,0,0,0.1,0,0.1c1.7,0.1,3.4,0,5.1,0
		c1.7,0,3.4-0.1,5.1-0.1C136.6,60.2,137.5,60.2,138.5,60.1C138.5,60.2,138.5,60.1,138.5,60.1z"/>
	<path class="st0" d="M143.7,59.9c-0.6,0-1.2,0-1.8,0.1c-0.6,0-1.2,0.1-1.7,0c-0.5,0-1.1-0.2-1.6-0.2c-0.6,0-1.2,0-1.7,0
		c0,0,0,0.1,0,0.1c0.6,0,1.2-0.1,1.7,0c0.5,0,1.1,0.2,1.6,0.2c0.6,0,1.1,0,1.7,0C142.5,60,143.1,60,143.7,59.9
		C143.7,60,143.7,59.9,143.7,59.9z"/>
	<path class="st0" d="M132.8,59.8c-1.3,0-2.5,0.1-3.8,0.1c-1.3,0-2.5,0.1-3.8,0c0,0,0,0.1,0,0.1c1.2,0.1,2.5,0.1,3.8,0
		C130.3,59.9,131.5,59.9,132.8,59.8C132.9,59.9,132.9,59.8,132.8,59.8z"/>
	<path class="st0" d="M136.6,59.9c-0.8,0-1.7,0-2.5,0c0,0,0,0.1,0,0.1C134.9,59.9,135.8,59.9,136.6,59.9
		C136.7,59.9,136.7,59.9,136.6,59.9z"/>
	<path class="st0" d="M128.7,61.7c-1.1,0-2.3-0.1-3.4-0.2c0,0,0,0.1,0,0.1C126.4,61.7,127.6,61.7,128.7,61.7
		C128.7,61.8,128.7,61.7,128.7,61.7z"/>
	<path class="st0" d="M143.4,61.5c-1.2,0-2.3,0-3.5,0.1c-0.6,0-1.2,0.1-1.7,0.2c-0.6,0.1-1.2,0.2-1.8,0.2c-0.6,0-1.2-0.1-1.8-0.2
		c-0.5-0.1-1.1-0.1-1.6-0.1c-0.6,0-1.1,0.1-1.7,0.1c-0.6,0-1.2,0.1-1.8,0.1c-1.3,0-2.6,0-4,0c0,0,0,0.1,0,0.1c1.2,0,2.3,0.1,3.5,0
		c1.2,0,2.3-0.1,3.5-0.2c0.6,0,1.2,0,1.8,0.1c0.5,0.1,1.1,0.2,1.6,0.2c1.2,0.1,2.3-0.2,3.5-0.3C140.8,61.6,142.1,61.6,143.4,61.5
		C143.4,61.6,143.4,61.5,143.4,61.5z"/>
	<path class="st0" d="M143.3,61.8c-0.4,0.1-0.7,0-1.1-0.1c-0.3-0.1-0.6-0.1-1-0.1c-0.8,0.1-1.6,0.2-2.4,0.2c0,0,0,0.1,0,0.1
		c0.8,0,1.6-0.1,2.5-0.2c0.4-0.1,0.7,0,1.1,0.1C142.6,61.9,143,62,143.3,61.8C143.3,61.9,143.3,61.8,143.3,61.8z"/>
	<path class="st0" d="M140.6,61.3c-3.1,0.1-6.2,0.2-9.3,0.2c-0.9,0-1.7,0-2.6,0.1c0,0,0,0.1,0,0.1c3.1-0.1,6.2-0.1,9.3-0.2
		C138.8,61.4,139.7,61.3,140.6,61.3C140.6,61.3,140.6,61.3,140.6,61.3z"/>
	<path class="st0" d="M138.1,61.5c-0.6,0.1-1.3,0.2-1.9,0.2c0,0,0,0.1,0,0.1C136.8,61.7,137.4,61.7,138.1,61.5
		C138.1,61.5,138.1,61.5,138.1,61.5z"/>
	<path class="st0" d="M133.9,61.7c-0.5,0-1,0-1.4,0.1c-0.2,0-0.4,0.1-0.6,0.1c-0.3,0.1-0.5,0.1-0.8,0.1c0,0-0.1,0.1,0,0.1
		c0.4,0.1,0.9-0.1,1.3-0.2C132.8,61.8,133.3,61.8,133.9,61.7C133.9,61.8,133.9,61.7,133.9,61.7z"/>
	<path class="st0" d="M135.2,63.3c-2.6,0.2-5.2,0.2-7.8,0.2l-2.2,0c0,0,0,0.1,0,0.1c2.6,0,5.2-0.1,7.8-0.2
		C133.7,63.4,134.5,63.4,135.2,63.3C135.2,63.3,135.2,63.3,135.2,63.3z"/>
	<path class="st0" d="M143.5,62.9c-0.6,0.2-1.2,0.2-1.7,0.2l-1.9,0c-1.3,0-2.5-0.1-3.8-0.1c-0.7,0-1.4,0-2.1-0.1c0,0,0,0.1,0,0.1
		c2.6,0.1,5.1,0.1,7.7,0.2C142.3,63.2,142.9,63.3,143.5,62.9C143.6,63,143.5,62.9,143.5,62.9z"/>
	<path class="st0" d="M143.4,63.3c-1.1,0.1-2.2,0.2-3.2,0.1c-0.5,0-1.1-0.1-1.6-0.1c-0.5,0-1.1,0.1-1.6,0.1c-0.5,0-0.9-0.2-1.4,0.1
		c0,0,0,0.1,0,0.1c0.4-0.3,0.9-0.1,1.3-0.1c0.5,0,1-0.1,1.6-0.1c0.5,0,1,0.1,1.5,0.1c0.5,0,1,0,1.6,0
		C142.2,63.4,142.8,63.4,143.4,63.3C143.5,63.4,143.5,63.3,143.4,63.3z"/>
	<path class="st0" d="M132.9,63c-2,0.1-4,0.1-6,0.2c-0.6,0-1.1,0-1.7,0c0,0,0,0.1,0,0.1c2,0,4-0.1,6-0.1
		C131.7,63.1,132.3,63.1,132.9,63C132.9,63,132.9,63,132.9,63z"/>
	<polygon class="st0" points="147.5,68.3 120.9,68.6 121,68.2 147.5,67.9 	"/>
</g>
<ellipse class="st5" cx="80" cy="112.5" rx="58.5" ry="33"/>
<g>
	<ellipse class="st6" cx="67.6" cy="116.8" rx="3.2" ry="2.3"/>
	<ellipse class="st7" cx="68.4" cy="117" rx="2.5" ry="0.9"/>
	<ellipse class="st8" cx="65.1" cy="113.6" rx="1.3" ry="1.4"/>
	<line class="st9" x1="65.4" y1="113.9" x2="65.9" y2="115.6"/>
	<polygon class="st10" points="64.2,114.5 63.4,115.8 65.1,114.9 	"/>
	<ellipse class="st11" cx="64.6" cy="113.6" rx="0.3" ry="0.3"/>
	<line class="st12" x1="63.9" y1="119.1" x2="71" y2="119.1"/>
</g>
<g>
	<ellipse class="st13" cx="52" cy="112.9" rx="8.6" ry="6"/>
	<ellipse class="st14" cx="54" cy="113.6" rx="6.6" ry="2.4"/>
	<ellipse class="st15" cx="45.5" cy="104.6" rx="3.3" ry="3.8"/>
	<line class="st16" x1="46.2" y1="105.4" x2="47.5" y2="109.9"/>
	<polygon class="st17" points="42.7,106.2 38.7,109.2 45.3,107.7 	"/>
	<ellipse class="st11" cx="44.1" cy="104.6" rx="0.7" ry="0.8"/>
	<line class="st18" x1="42.3" y1="119" x2="61" y2="119"/>
</g>
<g>
	<ellipse class="st6" cx="80.6" cy="116.8" rx="3.2" ry="2.3"/>
	<ellipse class="st7" cx="81.4" cy="117" rx="2.5" ry="0.9"/>
	<ellipse class="st8" cx="78.1" cy="113.6" rx="1.3" ry="1.4"/>
	<line class="st9" x1="78.4" y1="113.9" x2="78.9" y2="115.6"/>
	<polygon class="st10" points="77.2,114.5 76.4,115.8 78.1,114.9 	"/>
	<ellipse class="st11" cx="77.6" cy="113.6" rx="0.3" ry="0.3"/>
	<line class="st12" x1="76.9" y1="119.1" x2="84" y2="119.1"/>
</g>
<g>
	<ellipse class="st6" cx="93.6" cy="116.8" rx="3.2" ry="2.3"/>
	<ellipse class="st7" cx="94.4" cy="117" rx="2.5" ry="0.9"/>
	<ellipse class="st8" cx="91.1" cy="113.6" rx="1.3" ry="1.4"/>
	<line class="st9" x1="91.4" y1="113.9" x2="91.9" y2="115.6"/>
	<polygon class="st10" points="90.2,114.5 89.4,115.8 91.1,114.9 	"/>
	<ellipse class="st11" cx="90.6" cy="113.6" rx="0.3" ry="0.3"/>
	<line class="st12" x1="89.9" y1="119.1" x2="97" y2="119.1"/>
</g>
<line class="st19" x1="5" y1="64" x2="156" y2="64"/>
</svg>
