<?xml version="1.0" encoding="utf-8"?>
<!-- Generator: Adobe Illustrator 21.1.0, SVG Export Plug-In . SVG Version: 6.00 Build 0)  -->
<svg version="1.1" id="Layer_1" xmlns="http://www.w3.org/2000/svg" xmlns:xlink="http://www.w3.org/1999/xlink" x="0px" y="0px"
	 viewBox="0 0 162 162" style="enable-background:new 0 0 162 162;" xml:space="preserve">
<style type="text/css">
	.st0{fill:none;stroke:#102773;stroke-width:1.3443;stroke-miterlimit:10;}
	.st1{fill:#102773;}
	.st2{fill:#FFFFFF;}
	.st3{fill:none;stroke:#102773;stroke-width:0.9668;stroke-miterlimit:10;}
</style>
<g>
	<polygon class="st0" points="18,133.5 70.8,39.5 94.2,39.5 147,133.5 	"/>
	<polygon class="st1" points="81,39.5 77,133.5 83.4,133.5 83.4,39.5 	"/>
	<rect x="63.8" y="104" class="st2" width="34.6" height="5"/>
	<rect x="63.8" y="79" class="st2" width="34.6" height="5"/>
	<rect x="64.7" y="59" class="st2" width="34.6" height="5"/>
	<rect x="70.3" y="44" class="st2" width="22.4" height="5"/>
	<line class="st3" x1="18" y1="39" x2="147" y2="39"/>
</g>
<g>
	<g>
		<rect x="54.8" y="33.6" class="st1" width="1.1" height="9"/>
		<ellipse class="st1" cx="55" cy="35.1" rx="2.6" ry="3.8"/>
		<ellipse class="st1" cx="54.1" cy="37.1" rx="2.8" ry="2.3"/>
		<ellipse class="st1" cx="57.1" cy="36.3" rx="1.9" ry="1.9"/>
		<ellipse class="st1" cx="52.3" cy="34.9" rx="1.4" ry="1.5"/>
	</g>
	<g>
		<rect x="49" y="38.6" class="st1" width="0.9" height="11.2"/>
		<ellipse class="st1" cx="49.2" cy="40.5" rx="2.3" ry="4.7"/>
		<ellipse class="st1" cx="48.4" cy="43" rx="2.5" ry="2.8"/>
		<ellipse class="st1" cx="51" cy="41.9" rx="1.7" ry="2.3"/>
		<ellipse class="st1" cx="46.8" cy="40.2" rx="1.2" ry="1.9"/>
	</g>
	<g>
		<rect x="42.7" y="46.5" class="st1" width="1.2" height="14"/>
		<ellipse class="st1" cx="42.9" cy="48.9" rx="2.9" ry="5.8"/>
		<ellipse class="st1" cx="41.9" cy="52" rx="3.1" ry="3.5"/>
		<ellipse class="st1" cx="45.3" cy="50.6" rx="2.2" ry="2.9"/>
		<ellipse class="st1" cx="40" cy="48.5" rx="1.6" ry="2.3"/>
	</g>
	<g>
		<rect x="35.3" y="56" class="st1" width="1.4" height="16.2"/>
		<ellipse class="st1" cx="35.6" cy="58.7" rx="3.4" ry="6.7"/>
		<ellipse class="st1" cx="34.4" cy="62.3" rx="3.6" ry="4"/>
		<ellipse class="st1" cx="38.3" cy="60.7" rx="2.5" ry="3.4"/>
		<ellipse class="st1" cx="32.2" cy="58.3" rx="1.8" ry="2.7"/>
	</g>
	<g>
		<rect x="26.6" y="66.7" class="st1" width="1.7" height="19.8"/>
		<ellipse class="st1" cx="26.9" cy="70" rx="4.1" ry="8.2"/>
		<ellipse class="st1" cx="25.5" cy="74.4" rx="4.4" ry="4.9"/>
		<ellipse class="st1" cx="30.2" cy="72.5" rx="3" ry="4.1"/>
		<ellipse class="st1" cx="22.7" cy="69.5" rx="2.2" ry="3.3"/>
	</g>
	<g>
		<rect x="15.2" y="79.3" class="st1" width="2" height="23.3"/>
		<ellipse class="st1" cx="15.5" cy="83.2" rx="4.9" ry="9.7"/>
		<ellipse class="st1" cx="13.9" cy="88.3" rx="5.2" ry="5.8"/>
		<ellipse class="st1" cx="19.4" cy="86.1" rx="3.6" ry="4.9"/>
		<ellipse class="st1" cx="10.6" cy="82.5" rx="2.6" ry="3.9"/>
	</g>
</g>
<g>
	<path class="st1" d="M14.6,119.7c-0.8,1.1-1.4,2.4-1.9,3.8c-0.1-1.7-0.2-3.3-0.2-5c0-1.7-2-1.7-2,0c0,0.9,0,1.9,0.1,2.8
		c-0.2-0.3-0.5-0.6-0.7-0.8c-0.4-0.5-1-0.5-1.4,0c-0.4,0.5-0.4,1.4,0,1.9c0.6,0.7,1.2,1.4,1.9,2.2c0.1,0.2,0.3,0.3,0.5,0.3
		c0.1,0.8,0.1,1.6,0.2,2.3c-0.9-1.3-1.9-2.4-3.2-3.2c-1.2-0.7-2.2,1.6-1,2.3c1.9,1.2,3.4,3.2,4.2,5.8c0.2,0.8,0.9,1,1.3,0.8
		c0.6,0.2,1.3-0.2,1.2-1.2c-0.3-3.8,0.5-7.3,2.4-10.1C16.9,120.3,15.4,118.4,14.6,119.7z"/>
	<path class="st1" d="M22.6,105.7c-0.8,1.1-1.4,2.4-1.9,3.8c-0.1-1.7-0.2-3.3-0.2-5c0-1.7-2-1.7-2,0c0,0.9,0,1.9,0.1,2.8
		c-0.2-0.3-0.5-0.6-0.7-0.8c-0.4-0.5-1-0.5-1.4,0c-0.4,0.5-0.4,1.4,0,1.9c0.6,0.7,1.2,1.4,1.9,2.2c0.1,0.2,0.3,0.3,0.5,0.3
		c0.1,0.8,0.1,1.6,0.2,2.3c-0.9-1.3-1.9-2.4-3.2-3.2c-1.2-0.7-2.2,1.6-1,2.3c1.9,1.2,3.4,3.2,4.2,5.8c0.2,0.8,0.9,1,1.3,0.8
		c0.6,0.2,1.3-0.2,1.2-1.2c-0.3-3.8,0.5-7.3,2.4-10.1C24.9,106.3,23.4,104.4,22.6,105.7z"/>
	<path class="st1" d="M30.6,92.7c-0.8,1.1-1.4,2.4-1.9,3.8c-0.1-1.7-0.2-3.3-0.2-5c0-1.7-2-1.7-2,0c0,0.9,0,1.9,0.1,2.8
		c-0.2-0.3-0.5-0.6-0.7-0.8c-0.4-0.5-1-0.5-1.4,0c-0.4,0.5-0.4,1.4,0,1.9c0.6,0.7,1.2,1.4,1.9,2.2c0.1,0.2,0.3,0.3,0.5,0.3
		c0.1,0.8,0.1,1.6,0.2,2.3c-0.9-1.3-1.9-2.4-3.2-3.2c-1.2-0.7-2.2,1.6-1,2.3c1.9,1.2,3.4,3.2,4.2,5.8c0.2,0.8,0.9,1,1.3,0.8
		c0.6,0.2,1.3-0.2,1.2-1.2c-0.3-3.8,0.5-7.3,2.4-10.1C32.9,93.3,31.4,91.4,30.6,92.7z"/>
	<path class="st1" d="M37.5,81.4c-0.8,1-1.5,2.1-2,3.3c-0.1-1.5-0.2-2.9-0.2-4.4c0-1.5-2.1-1.5-2.1,0c0,0.8,0,1.6,0.1,2.4
		c-0.2-0.2-0.5-0.5-0.7-0.7c-0.4-0.4-1-0.5-1.5,0c-0.4,0.4-0.4,1.3,0,1.7c0.6,0.6,1.3,1.3,1.9,1.9c0.1,0.1,0.3,0.2,0.5,0.3
		c0.1,0.7,0.1,1.4,0.2,2c-0.9-1.1-2-2.1-3.2-2.8c-1.2-0.6-2.2,1.4-1,2c2,1,3.5,2.8,4.3,5.1c0.2,0.7,0.9,0.9,1.4,0.7
		c0.6,0.2,1.3-0.1,1.2-1.1C36.2,88.6,37,85.5,39,83C39.9,81.9,38.4,80.2,37.5,81.4z"/>
	<path class="st1" d="M44.5,69.4c-0.8,1-1.5,2.1-2,3.3c-0.1-1.5-0.2-2.9-0.2-4.4c0-1.5-2.1-1.5-2.1,0c0,0.8,0,1.6,0.1,2.4
		c-0.2-0.2-0.5-0.5-0.7-0.7c-0.4-0.4-1-0.5-1.5,0c-0.4,0.4-0.4,1.3,0,1.7c0.6,0.6,1.3,1.3,1.9,1.9c0.1,0.1,0.3,0.2,0.5,0.3
		c0.1,0.7,0.1,1.4,0.2,2c-0.9-1.1-2-2.1-3.2-2.8c-1.2-0.6-2.2,1.4-1,2c2,1,3.5,2.8,4.3,5.1c0.2,0.7,0.9,0.9,1.4,0.7
		c0.6,0.2,1.3-0.1,1.2-1.1C43.2,76.6,44,73.5,46,71C46.9,69.9,45.4,68.2,44.5,69.4z"/>
	<path class="st1" d="M51.5,59.8c-0.7,0.9-1.3,1.8-1.7,2.9c-0.1-1.3-0.2-2.6-0.2-3.9c0-1.3-1.8-1.3-1.8,0c0,0.7,0,1.4,0.1,2.1
		c-0.2-0.2-0.4-0.4-0.6-0.6c-0.4-0.4-0.9-0.4-1.3,0c-0.3,0.4-0.4,1.1,0,1.5c0.6,0.6,1.1,1.1,1.7,1.7c0.1,0.1,0.3,0.2,0.4,0.2
		c0.1,0.6,0.1,1.2,0.2,1.8c-0.8-1-1.7-1.8-2.9-2.4c-1-0.5-2,1.2-0.9,1.8c1.7,0.9,3.1,2.4,3.8,4.5c0.2,0.6,0.8,0.8,1.2,0.6
		c0.5,0.2,1.2-0.1,1.1-0.9c-0.3-2.9,0.4-5.6,2.2-7.8C53.5,60.3,52.3,58.8,51.5,59.8z"/>
	<path class="st1" d="M57.5,48.8c-0.7,0.9-1.3,1.8-1.7,2.9c-0.1-1.3-0.2-2.6-0.2-3.9c0-1.3-1.8-1.3-1.8,0c0,0.7,0,1.4,0.1,2.1
		c-0.2-0.2-0.4-0.4-0.6-0.6c-0.4-0.4-0.9-0.4-1.3,0c-0.3,0.4-0.4,1.1,0,1.5c0.6,0.6,1.1,1.1,1.7,1.7c0.1,0.1,0.3,0.2,0.4,0.2
		c0.1,0.6,0.1,1.2,0.2,1.8c-0.8-1-1.7-1.8-2.9-2.4c-1-0.5-2,1.2-0.9,1.8c1.7,0.9,3.1,2.4,3.8,4.5c0.2,0.6,0.8,0.8,1.2,0.6
		c0.5,0.2,1.2-0.1,1.1-0.9c-0.3-2.9,0.4-5.6,2.2-7.8C59.5,49.3,58.3,47.8,57.5,48.8z"/>
	<path class="st1" d="M62.8,42c-0.6,0.7-1,1.4-1.3,2.2c-0.1-1-0.1-2-0.1-3c0-1-1.4-1-1.4,0c0,0.6,0,1.1,0.1,1.7
		c-0.2-0.2-0.3-0.3-0.5-0.5c-0.3-0.3-0.7-0.3-1,0c-0.3,0.3-0.3,0.9,0,1.1c0.4,0.4,0.9,0.9,1.3,1.3c0.1,0.1,0.2,0.2,0.3,0.2
		c0,0.5,0.1,0.9,0.2,1.4c-0.6-0.8-1.4-1.4-2.2-1.9c-0.8-0.4-1.5,1-0.7,1.4c1.3,0.7,2.4,1.9,3,3.5c0.2,0.5,0.6,0.6,0.9,0.5
		c0.4,0.1,0.9-0.1,0.8-0.7c-0.2-2.3,0.3-4.4,1.7-6C64.4,42.4,63.4,41.3,62.8,42z"/>
	<path class="st1" d="M67.8,35c-0.6,0.7-1,1.4-1.3,2.2c-0.1-1-0.1-2-0.1-3c0-1-1.4-1-1.4,0c0,0.6,0,1.1,0.1,1.7
		c-0.2-0.2-0.3-0.3-0.5-0.5c-0.3-0.3-0.7-0.3-1,0c-0.3,0.3-0.3,0.9,0,1.1c0.4,0.4,0.9,0.9,1.3,1.3c0.1,0.1,0.2,0.2,0.3,0.2
		c0,0.5,0.1,0.9,0.2,1.4c-0.6-0.8-1.4-1.4-2.2-1.9c-0.8-0.4-1.5,1-0.7,1.4c1.3,0.7,2.4,1.9,3,3.5c0.2,0.5,0.6,0.6,0.9,0.5
		c0.4,0.1,0.9-0.1,0.8-0.7c-0.2-2.3,0.3-4.4,1.7-6C69.4,35.4,68.4,34.3,67.8,35z"/>
</g>
<g>
	<path class="st1" d="M149.7,118.7c0.8,1.1,1.4,2.4,1.9,3.8c0.1-1.7,0.2-3.3,0.2-5c0-1.7,2-1.7,2,0c0,0.9,0,1.9-0.1,2.8
		c0.2-0.3,0.5-0.6,0.7-0.8c0.4-0.5,1-0.5,1.4,0c0.4,0.5,0.4,1.4,0,1.9c-0.6,0.7-1.2,1.4-1.9,2.2c-0.1,0.2-0.3,0.3-0.5,0.3
		c-0.1,0.8-0.1,1.6-0.2,2.3c0.9-1.3,1.9-2.4,3.2-3.2c1.2-0.7,2.2,1.6,1,2.3c-1.9,1.2-3.4,3.2-4.2,5.8c-0.2,0.8-0.9,1-1.3,0.8
		c-0.6,0.2-1.3-0.2-1.2-1.2c0.3-3.8-0.5-7.3-2.4-10.1C147.4,119.3,148.8,117.4,149.7,118.7z"/>
	<path class="st1" d="M141.7,104.7c0.8,1.1,1.4,2.4,1.9,3.8c0.1-1.7,0.2-3.3,0.2-5c0-1.7,2-1.7,2,0c0,0.9,0,1.9-0.1,2.8
		c0.2-0.3,0.5-0.6,0.7-0.8c0.4-0.5,1-0.5,1.4,0c0.4,0.5,0.4,1.4,0,1.9c-0.6,0.7-1.2,1.4-1.9,2.2c-0.1,0.2-0.3,0.3-0.5,0.3
		c-0.1,0.8-0.1,1.6-0.2,2.3c0.9-1.3,1.9-2.4,3.2-3.2c1.2-0.7,2.2,1.6,1,2.3c-1.9,1.2-3.4,3.2-4.2,5.8c-0.2,0.8-0.9,1-1.3,0.8
		c-0.6,0.2-1.3-0.2-1.2-1.2c0.3-3.8-0.5-7.3-2.4-10.1C139.4,105.3,140.8,103.4,141.7,104.7z"/>
	<path class="st1" d="M133.7,91.7c0.8,1.1,1.4,2.4,1.9,3.8c0.1-1.7,0.2-3.3,0.2-5c0-1.7,2-1.7,2,0c0,0.9,0,1.9-0.1,2.8
		c0.2-0.3,0.5-0.6,0.7-0.8c0.4-0.5,1-0.5,1.4,0c0.4,0.5,0.4,1.4,0,1.9c-0.6,0.7-1.2,1.4-1.9,2.2c-0.1,0.2-0.3,0.3-0.5,0.3
		c-0.1,0.8-0.1,1.6-0.2,2.3c0.9-1.3,1.9-2.4,3.2-3.2c1.2-0.7,2.2,1.6,1,2.3c-1.9,1.2-3.4,3.2-4.2,5.8c-0.2,0.8-0.9,1-1.3,0.8
		c-0.6,0.2-1.3-0.2-1.2-1.2c0.3-3.8-0.5-7.3-2.4-10.1C131.4,92.3,132.8,90.4,133.7,91.7z"/>
	<path class="st1" d="M126.8,80.4c0.8,1,1.5,2.1,2,3.3c0.1-1.5,0.2-2.9,0.2-4.4c0-1.5,2.1-1.5,2.1,0c0,0.8,0,1.6-0.1,2.4
		c0.2-0.2,0.5-0.5,0.7-0.7c0.4-0.4,1-0.5,1.5,0c0.4,0.4,0.4,1.3,0,1.7c-0.6,0.6-1.3,1.3-1.9,1.9c-0.1,0.1-0.3,0.2-0.5,0.3
		c-0.1,0.7-0.1,1.4-0.2,2c0.9-1.1,2-2.1,3.2-2.8c1.2-0.6,2.2,1.4,1,2c-2,1-3.5,2.8-4.3,5.1c-0.2,0.7-0.9,0.9-1.4,0.7
		c-0.6,0.2-1.3-0.1-1.2-1.1c0.3-3.3-0.5-6.4-2.5-8.8C124.4,80.9,125.9,79.2,126.8,80.4z"/>
	<path class="st1" d="M119.8,68.4c0.8,1,1.5,2.1,2,3.3c0.1-1.5,0.2-2.9,0.2-4.4c0-1.5,2.1-1.5,2.1,0c0,0.8,0,1.6-0.1,2.4
		c0.2-0.2,0.5-0.5,0.7-0.7c0.4-0.4,1-0.5,1.5,0c0.4,0.4,0.4,1.3,0,1.7c-0.6,0.6-1.3,1.3-1.9,1.9c-0.1,0.1-0.3,0.2-0.5,0.3
		c-0.1,0.7-0.1,1.4-0.2,2c0.9-1.1,2-2.1,3.2-2.8c1.2-0.6,2.2,1.4,1,2c-2,1-3.5,2.8-4.3,5.1c-0.2,0.7-0.9,0.9-1.4,0.7
		c-0.6,0.2-1.3-0.1-1.2-1.1c0.3-3.3-0.5-6.4-2.5-8.8C117.4,68.9,118.9,67.2,119.8,68.4z"/>
	<path class="st1" d="M112.8,58.8c0.7,0.9,1.3,1.8,1.7,2.9c0.1-1.3,0.2-2.6,0.2-3.9c0-1.3,1.8-1.3,1.8,0c0,0.7,0,1.4-0.1,2.1
		c0.2-0.2,0.4-0.4,0.6-0.6c0.4-0.4,0.9-0.4,1.3,0c0.3,0.4,0.4,1.1,0,1.5c-0.6,0.6-1.1,1.1-1.7,1.7c-0.1,0.1-0.3,0.2-0.4,0.2
		c-0.1,0.6-0.1,1.2-0.2,1.8c0.8-1,1.7-1.8,2.9-2.4c1-0.5,2,1.2,0.9,1.8c-1.7,0.9-3.1,2.4-3.8,4.5c-0.2,0.6-0.8,0.8-1.2,0.6
		c-0.5,0.2-1.2-0.1-1.1-0.9c0.3-2.9-0.4-5.6-2.2-7.8C110.7,59.3,112,57.8,112.8,58.8z"/>
	<path class="st1" d="M106.8,47.8c0.7,0.9,1.3,1.8,1.7,2.9c0.1-1.3,0.2-2.6,0.2-3.9c0-1.3,1.8-1.3,1.8,0c0,0.7,0,1.4-0.1,2.1
		c0.2-0.2,0.4-0.4,0.6-0.6c0.4-0.4,0.9-0.4,1.3,0c0.3,0.4,0.4,1.1,0,1.5c-0.6,0.6-1.1,1.1-1.7,1.7c-0.1,0.1-0.3,0.2-0.4,0.2
		c-0.1,0.6-0.1,1.2-0.2,1.8c0.8-1,1.7-1.8,2.9-2.4c1-0.5,2,1.2,0.9,1.8c-1.7,0.9-3.1,2.4-3.8,4.5c-0.2,0.6-0.8,0.8-1.2,0.6
		c-0.5,0.2-1.2-0.1-1.1-0.9c0.3-2.9-0.4-5.6-2.2-7.8C104.7,48.3,106,46.8,106.8,47.8z"/>
	<path class="st1" d="M101.5,41c0.6,0.7,1,1.4,1.3,2.2c0.1-1,0.1-2,0.1-3c0-1,1.4-1,1.4,0c0,0.6,0,1.1-0.1,1.7
		c0.2-0.2,0.3-0.3,0.5-0.5c0.3-0.3,0.7-0.3,1,0c0.3,0.3,0.3,0.9,0,1.1c-0.4,0.4-0.9,0.9-1.3,1.3c-0.1,0.1-0.2,0.2-0.3,0.2
		c0,0.5-0.1,0.9-0.2,1.4c0.6-0.8,1.4-1.4,2.2-1.9c0.8-0.4,1.5,1,0.7,1.4c-1.3,0.7-2.4,1.9-3,3.5c-0.2,0.5-0.6,0.6-0.9,0.5
		c-0.4,0.1-0.9-0.1-0.8-0.7c0.2-2.3-0.3-4.4-1.7-6C99.8,41.4,100.8,40.3,101.5,41z"/>
	<path class="st1" d="M96.5,34c0.6,0.7,1,1.4,1.3,2.2c0.1-1,0.1-2,0.1-3c0-1,1.4-1,1.4,0c0,0.6,0,1.1-0.1,1.7
		c0.2-0.2,0.3-0.3,0.5-0.5c0.3-0.3,0.7-0.3,1,0c0.3,0.3,0.3,0.9,0,1.1c-0.4,0.4-0.9,0.9-1.3,1.3c-0.1,0.1-0.2,0.2-0.3,0.2
		c0,0.5-0.1,0.9-0.2,1.4c0.6-0.8,1.4-1.4,2.2-1.9c0.8-0.4,1.5,1,0.7,1.4c-1.3,0.7-2.4,1.9-3,3.5c-0.2,0.5-0.6,0.6-0.9,0.5
		c-0.4,0.1-0.9-0.1-0.8-0.7c0.2-2.3-0.3-4.4-1.7-6C94.8,34.4,95.8,33.3,96.5,34z"/>
</g>
<g>
	<g>
		
			<rect x="109.2" y="33.6" transform="matrix(-1 -4.502721e-11 4.502721e-11 -1 219.3524 76.2975)" class="st1" width="1.1" height="9"/>
		<ellipse class="st1" cx="110" cy="35.1" rx="2.6" ry="3.8"/>
		<ellipse class="st1" cx="110.9" cy="37.1" rx="2.8" ry="2.3"/>
		<ellipse class="st1" cx="107.9" cy="36.3" rx="1.9" ry="1.9"/>
		<ellipse class="st1" cx="112.7" cy="34.9" rx="1.4" ry="1.5"/>
	</g>
	<g>
		
			<rect x="115.1" y="38.6" transform="matrix(-1 -4.481050e-11 4.481050e-11 -1 231.0618 88.4659)" class="st1" width="0.9" height="11.2"/>
		<ellipse class="st1" cx="115.8" cy="40.5" rx="2.3" ry="4.7"/>
		<ellipse class="st1" cx="116.6" cy="43" rx="2.5" ry="2.8"/>
		<ellipse class="st1" cx="114" cy="41.9" rx="1.7" ry="2.3"/>
		<ellipse class="st1" cx="118.2" cy="40.2" rx="1.2" ry="1.9"/>
	</g>
	<g>
		
			<rect x="121.1" y="46.5" transform="matrix(-1 -4.497481e-11 4.497481e-11 -1 243.3837 107.0764)" class="st1" width="1.2" height="14"/>
		<ellipse class="st1" cx="122.1" cy="48.9" rx="2.9" ry="5.8"/>
		<ellipse class="st1" cx="123.1" cy="52" rx="3.1" ry="3.5"/>
		<ellipse class="st1" cx="119.7" cy="50.6" rx="2.2" ry="2.9"/>
		<ellipse class="st1" cx="125" cy="48.5" rx="1.6" ry="2.3"/>
	</g>
	<g>
		
			<rect x="128.3" y="56" transform="matrix(-1 -4.505963e-11 4.505963e-11 -1 257.9936 128.1922)" class="st1" width="1.4" height="16.2"/>
		<ellipse class="st1" cx="129.4" cy="58.7" rx="3.4" ry="6.7"/>
		<ellipse class="st1" cx="130.6" cy="62.3" rx="3.6" ry="4"/>
		<ellipse class="st1" cx="126.7" cy="60.7" rx="2.5" ry="3.4"/>
		<ellipse class="st1" cx="132.8" cy="58.3" rx="1.8" ry="2.7"/>
	</g>
	<g>
		
			<rect x="136.8" y="66.7" transform="matrix(-1 -4.516044e-11 4.516044e-11 -1 275.1855 153.2449)" class="st1" width="1.7" height="19.8"/>
		<ellipse class="st1" cx="138.1" cy="70" rx="4.1" ry="8.2"/>
		<ellipse class="st1" cx="139.5" cy="74.4" rx="4.4" ry="4.9"/>
		<ellipse class="st1" cx="134.8" cy="72.5" rx="3" ry="4.1"/>
		<ellipse class="st1" cx="142.3" cy="69.5" rx="2.2" ry="3.3"/>
	</g>
	<g>
		
			<rect x="147.9" y="79.3" transform="matrix(-1 -4.476387e-11 4.476387e-11 -1 297.7458 181.8764)" class="st1" width="2" height="23.3"/>
		<ellipse class="st1" cx="149.5" cy="83.2" rx="4.9" ry="9.7"/>
		<ellipse class="st1" cx="151.1" cy="88.3" rx="5.2" ry="5.8"/>
		<ellipse class="st1" cx="145.6" cy="86.1" rx="3.6" ry="4.9"/>
		<ellipse class="st1" cx="154.4" cy="82.5" rx="2.6" ry="3.9"/>
	</g>
</g>
</svg>
