<?xml version="1.0" encoding="utf-8"?>
<!-- Generator: Adobe Illustrator 21.1.0, SVG Export Plug-In . SVG Version: 6.00 Build 0)  -->
<svg version="1.1" id="Layer_1" xmlns="http://www.w3.org/2000/svg" xmlns:xlink="http://www.w3.org/1999/xlink" x="0px" y="0px"
	 viewBox="0 0 162 162" style="enable-background:new 0 0 162 162;" xml:space="preserve">
<style type="text/css">
	.st0{fill:#102773;}
	.st1{fill:#FFFFFF;stroke:#102773;stroke-miterlimit:10;}
	.st2{fill:#FCFCFC;stroke:#102773;stroke-miterlimit:10;}
	.st3{fill:none;stroke:#102773;stroke-miterlimit:10;}
	.st4{fill:#FFFFFF;stroke:#102773;stroke-width:0.8598;stroke-miterlimit:10;}
	.st5{fill:#FCFCFC;stroke:#102773;stroke-width:0.8598;stroke-miterlimit:10;}
	.st6{fill:none;stroke:#102773;stroke-width:0.8598;stroke-miterlimit:10;}
	.st7{fill:#FCFCFC;}
	.st8{fill:none;stroke:#102773;stroke-width:1.6477;stroke-miterlimit:10;}
	.st9{fill:none;stroke:#79BBCE;stroke-width:1.6477;stroke-miterlimit:10;}
	.st10{fill:#FFFFFF;}
</style>
<g>
	<g>
		<path class="st0" d="M116.2,71.2L116.2,71.2c3.2,0.1,5.8-2,5.7-4.7l-0.6-24.1c-0.1-2.7-2.8-5-6-5.1h0c-3.2-0.1-5.8,2-5.7,4.7
			l0.6,24.1C110.3,68.8,113,71.1,116.2,71.2z"/>
		
			<rect x="117.1" y="66.8" transform="matrix(-1 -4.483492e-11 4.483492e-11 -1 238.9409 169.5185)" class="st0" width="4.7" height="35.9"/>
		<polygon class="st0" points="106.5,102.3 111.2,102.9 115.2,67.2 110.5,66.6 		"/>
		<ellipse class="st0" cx="114.8" cy="28.4" rx="8.6" ry="9"/>
		<polygon class="st0" points="129.2,64.2 132,62.7 120.8,40.5 117.9,42.1 		"/>
		<polygon class="st0" points="96,60.8 98.5,62.8 113.1,42.5 110.6,40.6 		"/>
	</g>
	<g>
		<polygon class="st1" points="45,89 84,100 108,87 69,78 		"/>
		<polygon class="st2" points="44.5,88.5 44.5,96.5 83.5,107.5 83.5,99.5 		"/>
		<polygon class="st2" points="83.5,99.5 107.5,86.5 107.5,94.5 83.5,107.5 		"/>
		<line class="st3" x1="69.5" y1="77.5" x2="69.5" y2="84.5"/>
		<path class="st0" d="M100.2,89.6c-2.8,0.1-5.6-0.3-8.3-1c-0.2-0.1-0.4,0-0.5,0.2c0,0,0,0,0,0c-0.3-0.2-0.5-0.3-0.8-0.4
			c-0.9-0.5-1.8-1-2.9-1.3c-0.8-0.2-1.5-0.4-2.3-0.4c-0.5-0.2-0.9-0.4-1.2-0.4c-1.9-0.3-4-0.3-6-0.4c-0.9-0.2-1.9-0.5-2.8-0.8
			c-2.4-0.8-4.4-1.1-6.6-0.7c-0.4,0-0.7,0-1,0c-1.1,0.2-1.8,0.5-2.5,1l-1.6-0.1c-1.7-0.1-2.8,0.9-3.2,2.2c-2.1,1-4.3,1.9-6.4,2.9
			c-0.6,0.2-0.1,1,0.4,0.9c0.1,0.2,0.3,0.4,0.6,0.3c0.2-0.1,0.5-0.2,0.7-0.3c0.1,0.2,0.3,0.3,0.5,0.2c0.1,0,0.2-0.1,0.3-0.1
			c0,0.3,0.2,0.6,0.6,0.5c0.2,0,0.3-0.1,0.5-0.1c0.1,0.1,0.2,0.3,0.4,0.2c0.1,0,0.1,0,0.2,0c0,0.1,0.1,0.1,0.2,0.2
			c2.8,1.4,6.3,1.8,9.3,2.5c0.1,0,0.1,0,0.2,0c0.4,0.2,0.7,0.4,1.1,0.6c1.5,0.7,3.3,1.1,4.9,1.4c0.7,0.1,1.3,0.2,2,0.3
			c0,0.1,0.1,0.2,0.1,0.2c0.6,1.1,3.2,1.3,4.3,1.4c0.7,0.1,1.3,0.1,2,0c0.1,0,0.3,0.1,0.4,0.1c0,0.3,0.4,0.6,0.8,0.4
			c1.1-0.5,2.2-1,3.2-1.6c0.1,0,0.1,0,0.2-0.1c0.6-0.4,1.3-0.7,1.9-1.1c0.1-0.1,0.1-0.1,0.2-0.2c0.3-0.2,0.5-0.4,0.8-0.5
			c1-0.5,2.1-1,3.1-1.5c0.2-0.1,0.2-0.2,0.2-0.3c1.5-0.7,3-1.5,4.4-2.4c0,0,0,0,0.1-0.1c0.7-0.1,1.4-0.4,2.1-0.7c0.2,0,0.3,0,0.5,0
			C100.8,90.6,100.8,89.6,100.2,89.6z"/>
	</g>
	<g>
		<polygon class="st1" points="90,101 129,112 153,99 114,90 		"/>
		<polygon class="st2" points="89.5,100.5 89.5,108.5 128.5,119.5 128.5,111.5 		"/>
		<polygon class="st2" points="128.5,111.5 152.5,98.5 152.5,106.5 128.5,119.5 		"/>
		<line class="st3" x1="114.5" y1="89.5" x2="114.5" y2="96.5"/>
		<path class="st0" d="M145.2,101.6c-2.8,0.1-5.6-0.3-8.3-1c-0.2-0.1-0.4,0-0.5,0.2c0,0,0,0,0,0c-0.3-0.2-0.5-0.3-0.8-0.4
			c-0.9-0.5-1.8-1-2.9-1.3c-0.8-0.2-1.5-0.4-2.3-0.4c-0.5-0.2-0.9-0.4-1.2-0.4c-1.9-0.3-4-0.3-6-0.4c-0.9-0.2-1.9-0.5-2.8-0.8
			c-2.4-0.8-4.4-1.1-6.6-0.7c-0.4,0-0.7,0-1,0c-1.1,0.2-1.8,0.5-2.5,1l-1.6-0.1c-1.7-0.1-2.8,0.9-3.2,2.2c-2.1,1-4.3,1.9-6.4,2.9
			c-0.6,0.2-0.1,1,0.4,0.9c0.1,0.2,0.3,0.4,0.6,0.3c0.2-0.1,0.5-0.2,0.7-0.3c0.1,0.2,0.3,0.3,0.5,0.2c0.1,0,0.2-0.1,0.3-0.1
			c0,0.3,0.2,0.6,0.6,0.5c0.2,0,0.3-0.1,0.5-0.1c0.1,0.1,0.2,0.3,0.4,0.2c0.1,0,0.1,0,0.2,0c0,0.1,0.1,0.1,0.2,0.2
			c2.8,1.4,6.3,1.8,9.3,2.5c0.1,0,0.1,0,0.2,0c0.4,0.2,0.7,0.4,1.1,0.6c1.5,0.7,3.3,1.1,4.9,1.4c0.7,0.1,1.3,0.2,2,0.3
			c0,0.1,0.1,0.2,0.1,0.2c0.6,1.1,3.2,1.3,4.3,1.4c0.7,0.1,1.3,0.1,2,0c0.1,0,0.3,0.1,0.4,0.1c0,0.3,0.4,0.6,0.8,0.4
			c1.1-0.5,2.2-1,3.2-1.6c0.1,0,0.1,0,0.2-0.1c0.6-0.4,1.3-0.7,1.9-1.1c0.1-0.1,0.1-0.1,0.2-0.2c0.3-0.2,0.5-0.4,0.8-0.5
			c1-0.5,2.1-1,3.1-1.5c0.2-0.1,0.2-0.2,0.2-0.3c1.5-0.7,3-1.5,4.4-2.4c0,0,0,0,0.1-0.1c0.7-0.1,1.4-0.4,2.1-0.7c0.2,0,0.3,0,0.5,0
			C145.8,102.6,145.8,101.6,145.2,101.6z"/>
	</g>
	<g>
		<polygon class="st4" points="45,125.1 86.3,140.6 115.5,122.5 76,110.5 		"/>
		<polyline class="st5" points="45,125.1 45,133.7 85.4,149.2 85.4,140.6 115.5,122.5 115.5,129.4 85.4,149.2 		"/>
		<line class="st6" x1="76" y1="110.5" x2="76" y2="116.5"/>
		<path class="st0" d="M109.7,125.2c-0.3,0-0.7,0-1,0c-0.4-0.1-0.7-0.2-1.1-0.2c-0.3-1-1.1-1.8-2.3-1.9c-4.2-0.4-8-2.3-12.1-3.3
			c-4.4-1.1-8.8-2.2-13.2-3.3c-0.4-0.8-1.1-1.3-2.2-1.3c-0.2,0-0.3,0-0.5,0c-0.3-0.2-0.7-0.3-1.2-0.3c-0.7,0-1.2,0.2-1.6,0.5
			c-0.1,0-0.1,0-0.2,0c-0.5-0.1-1.1,0-1.6,0.3c-2.9,1.3-5.5,2.9-7.9,4.9c-1.2,0.4-2.4,0.8-3.5,1.2c-1.9,0.7-3.8,1.2-5.4,2.5
			c-0.4,0.3-0.6,0.6-0.8,0.9c-0.8-0.2-1.4,0.5-1.8,1.1c0,0,0,0,0,0c-0.5,0.2-0.9,0.3-1.3,0.6c-0.5,0.2-0.1,0.9,0.3,0.8
			c0.1,0,0.3-0.1,0.4-0.1c0,0.2,0.2,0.3,0.4,0.3h1.1c0.4,0.2,0.8,0.4,1.3,0.5c0.2,0.2,0.4,0.4,0.7,0.4c0.4,0.2,0.8,0.3,1.2,0.3
			c0.3,0.6,0.8,1.1,1.6,1.3c1.1,0.3,2.2,0.5,3.3,0.8c0.3,0.5,0.8,0.9,1.6,1c6.9,1,13.6,4.9,19.9,7.6c1.5,0.7,2.9-0.2,3.6-1.3
			c0.6,0.1,1.2,0.1,1.7-0.3c3.9-2.7,7.9-5.2,12-7.5c0.2-0.1,0.5-0.2,0.7-0.3c0.5-0.3,1-0.6,1.5-0.9c0.3-0.2,0.6-0.4,0.8-0.7l0.8-0.6
			c0.1-0.1,0.1-0.1,0.2-0.2c0,0,0.1,0,0.1,0c1.2,0.1,2-0.5,2.3-1.3c0.4-0.2,0.7-0.3,1.1-0.5c0.1-0.1,0.2-0.2,0.2-0.3l0.2-0.1
			c0,0,0,0,0,0c0.2,0,0.4,0,0.6,0C110.3,126.1,110.3,125.2,109.7,125.2z"/>
		<path class="st7" d="M101.1,123.4c-1.4,0.7-2.8,1.4-4.2,2.2c-1.6-0.6-3.3-1.2-4.9-1.7c1.1-0.4,2.2-0.8,3.4-1.1
			c0.5-0.1,0.3-1-0.2-0.8c-1.5,0.4-3,0.8-4.4,1.5c-0.6-0.2-1.2-0.4-1.8-0.6c-1.2-0.4-2.4-0.8-3.7-1.2c0.6-0.3,1.2-0.6,1.8-0.8
			c0.5-0.2,0.1-1-0.4-0.7c-0.9,0.4-1.7,0.8-2.6,1.2c-1.9-0.6-3.8-1.2-5.7-1.7c0.7-0.3,1.4-0.6,2-0.9c0.5-0.2,0.1-1-0.4-0.7
			c-1,0.4-2,0.9-3,1.3c-1.1-0.3-2.1-0.5-3.2-0.7c-0.5-0.1-0.8,0.7-0.2,0.8c0.7,0.1,1.4,0.3,2.1,0.5c-2.1,0.9-4.3,1.9-6.3,3.1
			c-0.4,0.3-0.9,0.5-1.3,0.8c-1.6-0.3-3.3-0.6-5-0.8c-0.5-0.1-0.8,0.8-0.2,0.8c1.4,0.2,2.8,0.4,4.1,0.7c-2.1,1.3-4.1,2.6-6.5,3.5
			c-0.1,0-0.1-0.1-0.2-0.1c-1.9-0.8-3.4-2-5.6-1.7c-0.5,0.1-0.3,0.9,0.2,0.8c1.4-0.2,3.1,0.5,4.6,1.2c-0.2,0-0.3,0.1-0.5,0.1
			c-0.5,0.2-0.3,1,0.2,0.8c0.5-0.1,0.9-0.3,1.3-0.4c0.8,0.4,1.5,0.8,2.2,1c0.8,0.3,1.7,0.6,2.5,0.9c0,0,0,0,0,0
			c-0.5,0.3,0,1,0.4,0.7c0.2-0.1,0.5-0.3,0.7-0.4c1.4,0.5,2.9,1,4.3,1.4c0.5,0.2,1.1,0.4,1.6,0.5c-0.2,0.1-0.3,0.2-0.5,0.3
			c-0.4,0.3,0,1.1,0.4,0.7c0.4-0.3,0.7-0.5,1.1-0.7c2,0.7,4,1.3,5.9,2c-0.1,0.1-0.3,0.2-0.4,0.3c-0.4,0.3,0,1.1,0.4,0.7
			c0.3-0.2,0.7-0.5,1-0.7c2,0.7,4,1.3,6,2c0.5,0.2,0.8-0.7,0.2-0.8c-1.8-0.6-3.5-1.2-5.3-1.8c2.3-1.5,4.7-3,7.2-4.3
			c1.9,0.8,3.7,1.6,5.5,2.5c0.5,0.2,0.9-0.5,0.4-0.7c-1.6-0.8-3.3-1.5-5-2.3c0.2-0.1,0.5-0.2,0.7-0.3c1.8-0.8,3.5-1.5,5.2-2.5
			c0.5-0.3,0.9-0.6,1.4-0.8c1.4,0.6,2.7,1.2,4,2c0.5,0.3,0.9-0.4,0.4-0.7c-1.1-0.7-2.3-1.3-3.5-1.8c1.2-0.7,2.4-1.3,3.7-1.9
			C102.1,123.9,101.6,123.2,101.1,123.4z M84.2,122.2c1.3,0.4,2.5,0.8,3.8,1.3c0.6,0.2,1.2,0.4,1.7,0.6c-1.9,1-3.6,2.4-5.5,3.4
			c-0.3,0.1-0.5,0.2-0.8,0.4c-2.2-0.8-4.5-1.5-6.7-2.1C79.2,124.5,81.7,123.4,84.2,122.2z M77.1,120.2c2,0.5,3.9,1.1,5.8,1.7
			c-2.5,1.2-5,2.3-7.4,3.6c-2-0.5-4-1-6-1.4C71.9,122.5,74.5,121.3,77.1,120.2z M66.6,130.1c-1.6-0.5-3.3-1.1-4.8-1.7
			c2.3-1,4.4-2.4,6.6-3.8c2,0.4,4,0.8,5.9,1.3C71.8,127.3,69.2,128.7,66.6,130.1z M73.6,132.4c-1.3-0.4-2.6-0.9-3.8-1.3
			c-0.6-0.2-1.3-0.4-1.9-0.6c2.6-1.4,5.2-2.8,7.8-4.1c2.2,0.6,4.5,1.3,6.7,2c-1.4,0.5-2.9,1-4.2,1.6C76.5,130.6,75,131.5,73.6,132.4
			z M80.5,134.7c-2-0.7-3.9-1.3-5.9-2c1-0.6,2.1-1.2,3.2-1.7c1.9-0.9,3.8-1.4,5.7-2.2c1.4,0.5,2.8,1,4.2,1.6
			C85.2,131.7,82.7,133.2,80.5,134.7z M95.5,126.5c-1.8,1.1-3.6,1.8-5.5,2.7c-0.4,0.2-0.9,0.4-1.3,0.6c-1.3-0.6-2.7-1.1-4.1-1.6
			c1.6-0.8,3-1.9,4.5-2.8c0.6-0.4,1.2-0.7,1.9-1c1.7,0.6,3.4,1.1,5.1,1.8C95.8,126.3,95.6,126.4,95.5,126.5z"/>
		<g>
			<rect x="83.8" y="122.6" class="st0" width="1.3" height="15.8"/>
			<ellipse class="st0" cx="84" cy="125.2" rx="3.2" ry="6.6"/>
			<ellipse class="st0" cx="82.9" cy="128.7" rx="3.4" ry="4"/>
			<ellipse class="st0" cx="86.5" cy="127.2" rx="2.3" ry="3.3"/>
			<ellipse class="st0" cx="80.8" cy="124.8" rx="1.7" ry="2.6"/>
		</g>
		<g>
			<rect x="66.4" y="106.3" class="st0" width="1.3" height="15.8"/>
			<ellipse class="st0" cx="66.6" cy="108.9" rx="3.2" ry="6.6"/>
			<ellipse class="st0" cx="65.6" cy="112.4" rx="3.4" ry="4"/>
			<ellipse class="st0" cx="69.2" cy="110.9" rx="2.3" ry="3.3"/>
			<ellipse class="st0" cx="63.5" cy="108.5" rx="1.7" ry="2.6"/>
		</g>
		<g>
			<rect x="95.7" y="114.9" class="st0" width="1.3" height="15.8"/>
			<ellipse class="st0" cx="95.9" cy="117.5" rx="3.2" ry="6.6"/>
			<ellipse class="st0" cx="94.8" cy="121" rx="3.4" ry="4"/>
			<ellipse class="st0" cx="98.4" cy="119.5" rx="2.3" ry="3.3"/>
			<ellipse class="st0" cx="92.7" cy="117" rx="1.7" ry="2.6"/>
		</g>
		<g>
			<rect x="86.7" y="104.5" class="st0" width="1.3" height="15.8"/>
			<ellipse class="st0" cx="86.9" cy="107.2" rx="3.2" ry="6.6"/>
			<ellipse class="st0" cx="85.9" cy="110.7" rx="3.4" ry="4"/>
			<ellipse class="st0" cx="89.5" cy="109.1" rx="2.3" ry="3.3"/>
			<ellipse class="st0" cx="83.8" cy="106.7" rx="1.7" ry="2.6"/>
		</g>
		<g>
			<rect x="105.1" y="110.6" class="st0" width="1.3" height="15.8"/>
			<ellipse class="st0" cx="105.3" cy="113.2" rx="3.2" ry="6.6"/>
			<ellipse class="st0" cx="104.3" cy="116.7" rx="3.4" ry="4"/>
			<ellipse class="st0" cx="107.8" cy="115.2" rx="2.3" ry="3.3"/>
			<ellipse class="st0" cx="102.2" cy="112.7" rx="1.7" ry="2.6"/>
		</g>
		<g>
			<rect x="76.4" y="102" class="st0" width="1.3" height="15.8"/>
			<ellipse class="st0" cx="76.6" cy="104.6" rx="3.2" ry="6.6"/>
			<ellipse class="st0" cx="75.6" cy="108.1" rx="3.4" ry="4"/>
			<ellipse class="st0" cx="79.2" cy="106.6" rx="2.3" ry="3.3"/>
			<ellipse class="st0" cx="73.5" cy="104.2" rx="1.7" ry="2.6"/>
		</g>
		<g>
			<rect x="55.9" y="112.3" class="st0" width="1.3" height="15.8"/>
			<ellipse class="st0" cx="56.1" cy="114.9" rx="3.2" ry="6.6"/>
			<ellipse class="st0" cx="55" cy="118.4" rx="3.4" ry="4"/>
			<ellipse class="st0" cx="58.6" cy="116.9" rx="2.3" ry="3.3"/>
			<ellipse class="st0" cx="52.9" cy="114.5" rx="1.7" ry="2.6"/>
		</g>
	</g>
	<g>
		<path class="st0" d="M32.3,75.3L32.3,75.3c-3.3,0.1-5.9-2.1-5.9-4.8L27,45.6c0.1-2.8,2.8-5.1,6.1-5.2h0c3.3-0.1,5.9,2.1,5.9,4.8
			L38.4,70C38.3,72.8,35.6,75.1,32.3,75.3z"/>
		<rect x="26.5" y="70.8" class="st0" width="4.8" height="37"/>
		<polygon class="st0" points="42.2,107.3 37.4,107.9 33.3,71.2 38.1,70.6 		"/>
		<ellipse class="st0" cx="33.7" cy="31.2" rx="8.9" ry="9.2"/>
		<polygon class="st0" points="18.9,68.1 16,66.5 27.6,43.7 30.5,45.3 		"/>
		<polygon class="st0" points="53,64.6 50.4,66.6 35.4,45.8 38,43.8 		"/>
		<rect x="50.7" y="40.5" class="st0" width="2.4" height="64.7"/>
		<rect x="41.8" y="103.5" class="st0" width="20.2" height="2.5"/>
		<line class="st8" x1="61.2" y1="105.2" x2="61.2" y2="108.6"/>
		<line class="st8" x1="41.8" y1="105.2" x2="41.8" y2="108.6"/>
		<line class="st9" x1="51.5" y1="105.2" x2="51.5" y2="108.6"/>
		<line class="st8" x1="54.7" y1="105.2" x2="54.7" y2="108.6"/>
		<line class="st8" x1="58" y1="105.2" x2="58" y2="108.6"/>
		<line class="st8" x1="45" y1="105.2" x2="45" y2="108.6"/>
		<line class="st8" x1="48.3" y1="105.2" x2="48.3" y2="108.6"/>
		<line class="st8" x1="51.5" y1="105.2" x2="51.5" y2="108.6"/>
	</g>
	<path class="st10" d="M138.1,102.6c-1.3,0.5-2.5,1.1-3.7,1.7c-1.4-0.7-2.4-1.9-4-2.4c-0.7-0.2-1.4-0.4-2.2-0.6
		c0.4-0.4,0.9-0.8,1.3-1.2c0.5-0.4-0.2-1.1-0.7-0.7c-0.6,0.6-1.2,1.1-1.8,1.6c-1-0.2-2.1-0.3-3.1-0.4c-1.2-0.1-2.3-0.2-3.5-0.4
		c0.4-0.2,0.9-0.5,1.3-0.7c0.6-0.3,0.1-1.2-0.5-0.9c-0.8,0.4-1.6,0.9-2.4,1.3c-0.6-0.1-1.3-0.3-1.9-0.5c-0.8-0.2-1.5-0.5-2.2-0.7
		c0.7-0.3,1.5-0.7,2.3-0.9c0.6-0.2,0.4-1.2-0.3-1c-1.2,0.4-2.3,0.9-3.4,1.5c-0.9-0.2-1.8-0.5-2.8-0.6c-0.6-0.1-0.6,0.9,0,1
		c0.5,0.1,1,0.1,1.5,0.3c-1.7,1-3.3,2-5,2.8c-0.8-0.4-1.7-0.7-2.6-1c-0.6-0.2-0.9,0.8-0.3,1c0.6,0.1,1.1,0.3,1.7,0.6
		c-0.5,0.2-1,0.4-1.5,0.6c-0.6,0.2-0.3,1.2,0.3,1c0.8-0.3,1.6-0.6,2.4-1c1.2,0.6,2.4,1.2,3.6,1.7c0,0,0,0,0,0
		c-0.2,0.1-0.5,0.3-0.7,0.4c-0.5,0.3,0,1.2,0.5,0.9c0.5-0.3,1-0.6,1.4-0.9c1.5,0.4,3.1,0.6,4.7,0.5c1.5,0,3.2-0.2,4.8-0.3
		c-1.1,0.7-2.2,1.4-3.3,2.1c-0.6,0.3-0.1,1.2,0.5,0.9c1.6-0.9,3.1-1.9,4.6-3c2.2,0.1,4.3,0.5,5.9,1.9c-1,0.6-1.9,1.3-2.8,1.9
		c-0.5,0.4,0,1.2,0.5,0.9c1-0.7,2-1.4,3-2.1c0.1,0.1,0.2,0.2,0.3,0.3c0.4,0.5,1.1-0.2,0.7-0.7c-0.1-0.1-0.1-0.1-0.2-0.2
		c1.2-0.7,2.4-1.4,3.6-2c0.3,0.1,0.6,0.2,0.9,0.2c0.6,0.1,0.8-0.7,0.4-0.9c0.9-0.4,1.7-0.8,2.6-1.2
		C139,103.3,138.7,102.4,138.1,102.6z M111.8,104.1c-1.2-0.4-2.4-1-3.6-1.6c1.8-1,3.5-2.1,5.2-3c1.4,0.4,2.7,0.9,4,1.3
		c0,0,0,0,0.1,0C115.7,101.9,113.7,103,111.8,104.1C111.8,104.1,111.8,104.1,111.8,104.1z M120.2,104.5c-2.3,0.2-4.7,0.4-7,0
		c1.9-1.1,3.8-2.2,5.8-3.3c1.5,0.3,3,0.4,4.5,0.5c0.8,0.1,1.7,0.2,2.6,0.3c-1,0.9-2.1,1.7-3.2,2.4
		C122.1,104.4,121.1,104.4,120.2,104.5z M130.1,106.8c-1.6-1.4-3.5-2-5.6-2.3c1-0.7,2-1.5,2.9-2.3c1.3,0.2,2.5,0.5,3.4,1.1
		c1,0.6,1.7,1.2,2.5,1.7C132.2,105.5,131.2,106.1,130.1,106.8z"/>
	<path class="st10" d="M92.3,91.2c-0.1,0-0.1,0-0.2,0c0.1-0.1,0.3-0.2,0.4-0.2c0.6-0.3,0.1-1.2-0.5-0.9c-0.7,0.4-1.3,0.7-1.9,1.1
		c-1.9-0.1-3.8-0.4-5.8-0.7c-0.7-0.1-1.4-0.2-2.1-0.3c1.1-0.6,2.1-1.2,3.2-1.8c0.6-0.3,0.1-1.2-0.5-0.9c-1.4,0.8-2.9,1.6-4.3,2.4
		c-0.8-0.1-1.5-0.3-2.3-0.6c-0.7-0.2-1.4-0.5-2.1-0.7c0.4-0.4-0.1-1.1-0.6-0.8c-0.2,0.1-0.4,0.3-0.6,0.4c-1.8-0.6-3.7-1.2-5.5-1.6
		c0.3-0.4-0.2-1-0.7-0.7c-0.2,0.1-0.4,0.3-0.6,0.4c-0.9-0.2-1.7-0.4-2.6-0.6c-0.6-0.1-0.9,0.8-0.3,1c0.6,0.1,1.2,0.2,1.8,0.3
		c-1.4,0.9-2.9,1.7-4.5,2.4c-0.9-0.1-1.8-0.3-2.7-0.4c-0.6-0.1-0.9,0.9-0.3,1c0.4,0.1,0.8,0.1,1.2,0.2c-0.5,0.2-0.9,0.4-1.4,0.6
		c-0.6,0.2-0.3,1.2,0.3,1c1-0.4,2-0.8,3-1.2c2.3,0.4,4.5,0.8,6.7,1.3c-0.9,0.5-1.8,0.9-2.8,0.9c-0.6,0-0.6,1,0,1
		c1.6,0,2.8-0.8,4.1-1.6c0.9,0.2,1.8,0.4,2.6,0.7c0.5,0.2,1.1,0.3,1.6,0.5c0,0-0.1,0-0.1,0.1c-0.5,0.4,0,1.2,0.5,0.9
		c0.3-0.2,0.5-0.4,0.8-0.5c1,0.3,2,0.6,2.9,0.8c1.4,0.3,2.8,0.2,4.1,0.4c-0.8,0.5-1.7,1-2.5,1.5c-0.5,0.3,0,1.2,0.5,0.9
		c1.1-0.7,2.2-1.3,3.4-2c0.4,0.1,0.7,0.3,1.1,0.5c0.5,0.4,1-0.5,0.5-0.9c-0.2-0.1-0.3-0.2-0.5-0.3c1.5-0.9,3-1.7,4.5-2.6
		c0.7,0,1.3,0,2,0C93,92.1,93,91.1,92.3,91.2z M70.8,91.2c-2.1-0.5-4.2-1-6.3-1.3c1.4-0.7,2.8-1.5,4.2-2.4c1.3,0.3,2.5,0.6,3.8,0.9
		c0.6,0.2,1.2,0.4,1.8,0.6c-0.8,0.5-1.7,1.1-2.5,1.6C71.4,90.7,71.1,90.9,70.8,91.2z M76.3,92.7c-0.5-0.2-1-0.3-1.6-0.5
		c-0.9-0.3-1.8-0.5-2.7-0.7c1.1-0.7,2.2-1.4,3.3-2.1c1.2,0.5,2.3,0.9,3.6,1.3c0.2,0,0.3,0.1,0.5,0.1C78.3,91.4,77.3,92,76.3,92.7z
		 M84.7,94.3c-0.9-0.3-1.9-0.3-2.9-0.4c-1.5-0.1-2.9-0.4-4.2-0.8c1.1-0.7,2.1-1.3,3.2-2c1.6,0.3,3.3,0.4,5,0.6
		c0.9,0.1,1.9,0.2,2.8,0.3C87.3,92.8,86,93.5,84.7,94.3z"/>
</g>
</svg>
