<?xml version="1.0" encoding="utf-8"?>
<!-- Generator: Adobe Illustrator 21.1.0, SVG Export Plug-In . SVG Version: 6.00 Build 0)  -->
<svg version="1.1" id="Layer_1" xmlns="http://www.w3.org/2000/svg" xmlns:xlink="http://www.w3.org/1999/xlink" x="0px" y="0px"
	 viewBox="0 0 162 162" style="enable-background:new 0 0 162 162;" xml:space="preserve">
<style type="text/css">
	.st0{fill:#102773;}
	.st1{fill:none;stroke:#102773;stroke-width:2.7213;stroke-miterlimit:10;}
	.st2{fill:none;stroke:#79BBCE;stroke-width:2.7213;stroke-miterlimit:10;}
</style>
<path class="st0" d="M42.9,98L42.9,98c-5.5,0.2-9.8-3.4-9.7-8l1.1-41c0.1-4.6,4.7-8.5,10.1-8.6h0c5.5-0.2,9.8,3.4,9.7,8l-1.1,41
	C52.9,93.9,48.4,97.8,42.9,98z"/>
<rect x="33.3" y="90.5" class="st0" width="8" height="61.1"/>
<polygon class="st0" points="59.3,150.9 51.4,151.9 44.7,91.2 52.6,90.2 "/>
<ellipse class="st0" cx="45.3" cy="25.3" rx="14.7" ry="15.3"/>
<polygon class="st0" points="20.8,86.2 16,83.5 35.1,45.8 39.9,48.5 "/>
<polygon class="st0" points="77.2,80.4 72.9,83.7 48.1,49.3 52.4,45.9 "/>
<rect x="73.3" y="40.5" class="st0" width="4" height="106.9"/>
<rect x="58.7" y="144.7" class="st0" width="33.3" height="4.2"/>
<line class="st1" x1="90.7" y1="147.4" x2="90.7" y2="153"/>
<line class="st1" x1="58.7" y1="147.4" x2="58.7" y2="153"/>
<line class="st2" x1="74.7" y1="147.4" x2="74.7" y2="153"/>
<line class="st1" x1="80" y1="147.4" x2="80" y2="153"/>
<line class="st1" x1="85.3" y1="147.4" x2="85.3" y2="153"/>
<line class="st1" x1="64" y1="147.4" x2="64" y2="153"/>
<line class="st1" x1="69.3" y1="147.4" x2="69.3" y2="153"/>
<line class="st1" x1="74.7" y1="147.4" x2="74.7" y2="153"/>
<path class="st0" d="M118.3,99L118.3,99c5.5,0.2,9.8-3.4,9.7-8l-1.1-41c-0.1-4.6-4.7-8.5-10.1-8.6h0c-5.5-0.2-9.8,3.4-9.7,8l1.1,41
	C108.3,94.9,112.9,98.8,118.3,99z"/>
<rect x="119.9" y="91.5" transform="matrix(-1 -4.478741e-11 4.478741e-11 -1 247.7665 244.1359)" class="st0" width="8" height="61.1"/>
<polygon class="st0" points="101.9,151.9 109.8,152.9 116.6,92.2 108.6,91.2 "/>
<ellipse class="st0" cx="115.9" cy="26.3" rx="14.7" ry="15.3"/>
<polygon class="st0" points="140.4,87.2 145.2,84.5 126.1,46.8 121.3,49.5 "/>
<polygon class="st0" points="84,81.4 88.3,84.7 113.1,50.3 108.8,46.9 "/>
</svg>
