<?xml version="1.0" encoding="utf-8"?>
<!-- Generator: Adobe Illustrator 21.1.0, SVG Export Plug-In . SVG Version: 6.00 Build 0)  -->
<svg version="1.1" xmlns="http://www.w3.org/2000/svg" xmlns:xlink="http://www.w3.org/1999/xlink" x="0px" y="0px"
	 viewBox="0 0 162 162" style="enable-background:new 0 0 162 162;" xml:space="preserve">
<style type="text/css">
	.st0{fill:none;stroke:#102773;stroke-width:3;stroke-miterlimit:10;}
	.st1{fill:#102773;}
	.st2{fill:none;stroke:#102773;stroke-width:3.182;stroke-miterlimit:10;}
	.st3{fill:none;stroke:#102773;stroke-width:2;stroke-miterlimit:10;}
	.st4{fill:#FFFFFF;}
	.st5{fill:none;stroke:#FFFFFF;stroke-width:1.7526;stroke-miterlimit:10;}
</style>
<g id="house">
	<rect x="29.5" y="46.5" class="st0" width="102" height="93"/>
	<polygon class="st1" points="17.5,47.5 143.5,47.5 80.5,10.5 	"/>
	<rect x="40.5" y="56.5" class="st0" width="30" height="27"/>
	<rect x="90.5" y="56.5" class="st0" width="30" height="27"/>
	<rect x="67.5" y="103.5" class="st2" width="26" height="36"/>
	<line class="st3" x1="56" y1="57" x2="56" y2="84"/>
	<line class="st3" x1="106" y1="58" x2="106" y2="85"/>
	<line class="st3" x1="41" y1="70" x2="71" y2="70"/>
	<line class="st3" x1="91" y1="70" x2="121" y2="70"/>
</g>
<g id="Layer_1">
	<rect x="88" y="110.7" class="st1" width="57" height="5.4"/>
	<g>
		<path class="st1" d="M139.4,115.7H90.3c0,0,1.6,35.3,3.8,35.3h44.8c2.2,0,3.8-35.3,3.8-35.3H93.6"/>
	</g>
	<path class="st1" d="M116.4,101.2c-13.6,0-24.6,4.4-24.6,9.7H141C141,105.6,130,101.2,116.4,101.2z"/>
	<path class="st1" d="M116.6,98.6c3,4.3,3.6,9,1.4,10.4c-2.2,1.5-6.4-0.9-9.4-5.2c-3-4.3-3.6-9-1.4-10.4
		C109.4,92,113.6,94.3,116.6,98.6z"/>
	<path class="st1" d="M124,104.9c-4.1,3.3-8.9,4.4-10.6,2.3c-1.7-2,0.3-6.3,4.4-9.6c4.1-3.3,8.9-4.4,10.6-2.3
		C130.1,97.3,128.1,101.6,124,104.9z"/>
	<path class="st4" d="M111.9,107.3c-3-4.3-4.1-8.7-2.4-9.8c1.7-1.1,5.5,1.5,8.5,5.8"/>
	<path class="st4" d="M117.3,101.2c4-3.5,8.2-5.3,9.3-4c1.1,1.2-1.2,5.1-5.1,8.5"/>
	<path class="st1" d="M128.2,103.2c-1.1-0.4-2.2-0.7-3.3-0.9c1.5-1,2.9-2.7,2.4-4.4c0-0.1-0.1-0.2-0.1-0.4c0-0.2-0.1-0.4-0.2-0.6
		c-0.1-0.2-0.2-0.2-0.4-0.1c-0.9-0.7-2.4-0.7-3.5-0.2c-0.3,0.1-0.6,0.3-0.9,0.4c-0.4,0.2-0.8,0.4-1.2,0.7c-0.1-0.2-0.4-0.4-0.6-0.2
		c-0.6,0.5-1.1,1.1-1.5,1.8c-0.1,0-0.1,0-0.2,0c-0.3,0.2-0.6,0.4-0.8,0.6c-0.1-0.2-0.3-0.3-0.5-0.2c0,0,0,0,0,0
		c-0.2-0.4-0.8-0.1-0.6,0.3c0,0.1,0.1,0.1,0.1,0.2c-0.1,0.1-0.1,0.2,0,0.3c0.1,0.2,0.3,0.4,0.4,0.6c0,0.1,0,0.2,0,0.3
		c-0.1-0.1-0.2-0.2-0.4-0.1c-0.1,0-0.3,0.1-0.4,0.1c0-0.1,0-0.1,0-0.2c0,0,0,0,0,0c0.2,0,0.5-0.2,0.3-0.4c0,0-0.1-0.1-0.1-0.1
		c0,0,0,0,0,0c0,0,0,0,0,0c0.3-0.4,0.2-0.9-0.3-1.1c-0.1,0-0.2-0.1-0.3,0c-0.7,0.4-0.9,1.2-0.8,1.8c0,0.2,0,0.3,0.1,0.4
		c-0.2,0.1-0.4,0.1-0.7,0.1c-0.5,0-1,0.1-1.5,0.1c-0.7,0-1.4-0.1-2.1-0.4c-1-0.4-1.8-1-2.4-1.8c-0.2-0.3-1.5-3-0.2-3
		c0.4,0,0.4-0.7,0-0.7c-2.1,0-1,3-0.2,4.2c-0.3-0.1-0.6,0.2-0.4,0.5c0.3,0.4,0.7,0.8,1,1.2c-0.3-0.1-0.5,0.4-0.2,0.6
		c0,0-0.1,0.1-0.1,0.1c-0.2,0.1-0.3,0.4-0.2,0.5c0,0,0,0,0,0c-0.4,0.1-0.3,0.7,0.2,0.6c0,0,0,0,0,0c0,0.2,0.1,0.4,0.3,0.4
		c0.1,0,0.1,0,0.2,0c0,0.2,0.1,0.3,0.3,0.3c0,0,0.1,0,0.1,0c-0.2,0.2-0.2,0.6,0.2,0.6c0.1,0,0.1,0,0.2,0c-0.3,0.2-0.7,0.5-1,0.7
		c-0.2,0-0.4,0-0.6,0c-0.4,0-0.4,0.4-0.2,0.6c-0.2,0.2-0.5,0.4-0.7,0.6c-0.2,0.2-0.1,0.5,0.2,0.6c0.6,0.2,1.1,0.2,1.7,0.1
		c0.1,0,0.1,0,0.2,0c-1,0.1-2.1,0.3-3.1,0.5c-0.4,0.1-0.3,0.7,0.2,0.6c1.9-0.4,3.9-0.6,5.8-0.8c0,0.1,0.1,0.3,0.3,0.3
		c0,0,0.1,0,0.1,0c0,0,0,0,0,0c0,0,0,0,0.1,0c0.4-0.1,0.8-0.1,1.2-0.2c0.1,0,0.2,0,0.4-0.1c0.1,0,0.3,0,0.4,0c0.5,0,1.1,0.1,1.6,0
		c-1.6,0.7-3.2,1.4-4.7,2.2c-0.3,0.1-0.1,0.6,0.2,0.5c1.5-0.5,4.1-1,5.1-2.3c0.1,0,0.2-0.1,0.4-0.1c-0.1,0.3,0.1,0.7,0.5,0.5
		c0.5-0.3,1-0.6,1.4-0.9c0.9-0.1,1.8-0.1,2.7-0.1c0.4,0,0.4-0.7,0-0.7c-1.5,0-3,0-4.5,0c0-0.2,0.1-0.5,0.1-0.7
		c1.4,0,2.7-0.1,4.1-0.1c0.4,0,0.4-0.4,0.2-0.6c0.3,0,0.6,0,0.9,0c0.2,0,0.3-0.2,0.3-0.4c0.1-0.2,0-0.4-0.2-0.5
		c0.2,0,0.4-0.1,0.6-0.1c0.3-0.1,0.3-0.4,0.1-0.5l0.1,0c0.2,0,0.3-0.2,0.3-0.3c0-0.2,0-0.3-0.2-0.4c-0.2,0-0.3-0.1-0.5-0.1l0,0
		c0,0,0,0,0,0c0,0,0.1,0,0.1,0c0.7,0.1,1.4,0.2,2.1,0.4c0,0,0.1,0,0.1,0c0,0.1,0.1,0.2,0.1,0.3c0,0.4,0.7,0.4,0.7,0
		c-0.1-0.5-0.3-0.8-0.6-1c0.8,0.2,1.5,0.4,2.3,0.6C128.4,104,128.6,103.3,128.2,103.2z M116.9,107.3c-0.4,0-0.8,0-1.1,0.1
		c0-0.1-0.1-0.1-0.2-0.1c0.2,0,0.4-0.1,0.6-0.1c0.3,0,0.4-0.4,0.3-0.6c0.2,0,0.4,0,0.6,0C116.9,106.8,116.9,107,116.9,107.3z
		 M117.9,103.8C117.9,103.7,118,103.7,117.9,103.8c0.2,0,0.3,0,0.4,0c0.2,0,0.3-0.1,0.3-0.3c0.1,0.1,0.1,0.3,0.2,0.4
		c0.1,0.2,0.2,0.2,0.4,0.1c0,0,0,0,0,0c-0.5,0-0.9,0.1-1.4,0.2C117.9,104,117.9,103.9,117.9,103.8z M120,105.2
		c-0.6,0-1.2,0.1-1.8,0.1c0-0.1-0.1-0.3-0.3-0.3c-0.1,0-0.2,0-0.2,0c0-0.1,0-0.1,0-0.2c0.7-0.1,1.5-0.2,2.2-0.3
		c-0.1,0.1-0.1,0.3,0.1,0.4C120,105.1,120,105.2,120,105.2z M122.8,101.7c-0.2,0.1-0.4,0.1-0.7,0.2c-1.1-0.1-2.2-0.2-3.2-0.2
		c0-0.3,0.1-0.6,0.1-0.8c0.6-1.3,1.7-2.2,2.9-3c0.1-0.1,0.2-0.2,0.3-0.2c1.5-0.8,3.7-1.4,3.3,1.3c-0.1,0.7-0.6,1.4-1.2,2
		C123.9,101.3,123.4,101.6,122.8,101.7z"/>
	<g>
		<path class="st5" d="M115.9,146.4c-7.2,0-13-5.9-13-13.2s5.8-13.2,13-13.2c7.2,0,13,5.9,13,13.2"/>
		<polygon class="st4" points="128.9,133.4 134.2,133.4 131.5,137.9 128.9,142.3 126.3,137.9 123.7,133.4 		"/>
	</g>
	<rect x="88" y="110" class="st4" width="57" height="1"/>
</g>
</svg>
