<?xml version="1.0" encoding="utf-8"?>
<!-- Generator: Adobe Illustrator 21.1.0, SVG Export Plug-In . SVG Version: 6.00 Build 0)  -->
<svg version="1.1" xmlns="http://www.w3.org/2000/svg" xmlns:xlink="http://www.w3.org/1999/xlink" x="0px" y="0px"
	 viewBox="0 0 162 162" style="enable-background:new 0 0 162 162;" xml:space="preserve">
<style type="text/css">
	.st0{fill:#102773;stroke:#102773;stroke-width:0.9813;stroke-miterlimit:10;}
	.st1{fill:#FCFCFC;}
	.st2{fill:#FFFEFD;stroke:#102773;stroke-width:2.8148;stroke-miterlimit:10;}
	.st3{fill:#102773;stroke:#102773;stroke-width:2.6758;stroke-miterlimit:10;}
	.st4{fill:none;stroke:#102773;stroke-width:0.9813;stroke-miterlimit:10;}
	.st5{fill:#102773;}
	.st6{font-family:'Arial-Black';}
	.st7{font-size:8.4847px;}
	.st8{fill:#FCFCFC;stroke:#102773;stroke-width:0.9813;stroke-miterlimit:10;}
	.st9{font-size:21.6832px;}
	.st10{fill:none;stroke:#102773;stroke-width:2.8089;stroke-miterlimit:10;}
</style>
<g id="Layer_1">
	<ellipse class="st0" cx="81" cy="81" rx="78.5" ry="79.5"/>
	<ellipse class="st1" cx="81" cy="81" rx="72" ry="73"/>
</g>
<g id="icon">
	<path class="st2" d="M100.5,127.9H61c-6.6,0-12-5.4-12-12V31.5c0-6.6,5.4-12,12-12h39.5c6.6,0,12,5.4,12,12v84.4
		C112.5,122.5,107.1,127.9,100.5,127.9z"/>
	<rect x="73.3" y="130" class="st3" width="14.9" height="27"/>
	<path class="st4" d="M87.7,120.5H72.9c-3.4,0-6.1-2.8-6.1-6.1v0c0-3.4,2.8-6.1,6.1-6.1h14.8c3.4,0,6.1,2.8,6.1,6.1v0
		C93.8,117.7,91.1,120.5,87.7,120.5z"/>
	<path class="st4" d="M88.6,123.3H72.9c-4.9,0-9-4-9-9v0c0-4.9,4-9,9-9h15.7c4.9,0,9,4,9,9v0C97.6,119.3,93.5,123.3,88.6,123.3z"/>
	<path class="st5" d="M97.1,114c0-0.1,0-0.1,0-0.2c0.1-1.2,0-2.3-0.4-3.4c-0.2-0.4-0.6-0.7-1-0.6c0.5-0.3,0.7-1.2,0-1.6
		c-1.7-1-3.5-1.8-5.3-2.5c-0.4-0.1-0.7,0-0.9,0.2c-3.9-0.4-7.8-0.6-11.7-0.6c-0.5,0-0.7,0.3-0.9,0.6c-2.3-0.2-4.5-0.3-6.8,0.2
		c-0.3,0.1-0.4,0.2-0.5,0.4c-0.1,0-0.3,0-0.4,0.1c-0.3,0.2-0.6,0.3-0.9,0.5c-0.1,0-0.1,0-0.2,0.1c-0.8,0.5-1.5,1.2-2,1.9
		c0,0-0.1,0.1-0.1,0.1c0,0.1-0.1,0.1-0.1,0.2c-0.2,0.4-0.4,0.8-0.6,1.2c-0.2,0.3-0.4,0.7-0.5,1.1c-0.3,0.1-0.5,0.4-0.5,0.8
		c0,0.6,0,1.2,0.1,1.8c-0.8,12.6,18.8,9.1,26.1,8.8c0.3,0,0.5-0.1,0.6-0.3c0.6-0.1,1.1-0.3,1.6-0.5c0.3-0.1,0.5-0.2,0.8-0.3
		c0,0,0,0,0,0c0,0,0,0,0,0c0.1,0,0.2-0.1,0.2-0.1c0.5-0.2,0.6-0.6,0.4-1c1.8-1.4,3-3.4,3.5-5.6C97.6,114.6,97.4,114.2,97.1,114z
		 M94.1,114c0,0.5,0,1,0,1.5c-0.2,0.1-0.3,0.2-0.5,0.4c-0.7,1.2-1.5,2.3-2.3,3.4c-0.1,0.1-0.2,0.3-0.2,0.5c-1.1,0.4-2.3,0.7-3.4,0.9
		c-0.1-0.3-0.4-0.6-0.8-0.5c-3.4,0.4-6.8,0.5-10.2,0.4c-2.1,0-3.9-0.1-6-0.7c-2.7-0.8-4.1-3-4.5-5.8c0,0,0-0.1,0-0.1
		c0-0.1,0-0.2,0-0.3c0.2-0.1,0.4-0.3,0.4-0.6c0.1-0.4,0.1-0.7,0.2-1.1c0.7-0.7,1.4-1.5,2.2-2.2c0.3-0.3,0.3-0.6,0.2-0.9
		c0,0,0.1,0,0.1-0.1c0.2-0.1,0.3-0.3,0.4-0.5c0,0,0,0,0,0c0.1,0,0.2,0.1,0.3,0.1c2.6,0.1,5.1-0.1,7.6-0.5c0.1,0,0.2-0.1,0.3-0.1
		c0.8,0.1,1.7,0.1,2.5,0.2c2.7,0.1,5.4,0,8.1-0.1c0,0,0.1,0.1,0.1,0.1c1.3,0.7,2.6,1.5,4,2.2c0,0.1,0,0.3,0.1,0.4
		c0.4,0.6,0.7,1.2,1,1.8c0.1,0.4,0.3,0.8,0.5,1.2C94.1,113.8,94.1,113.9,94.1,114z"/>
	<text transform="matrix(0.7403 0 0 1 75.6396 117.5146)" class="st5 st6 st7">20</text>
	<ellipse class="st4" cx="86.9" cy="112.5" rx="1.9" ry="1.9"/>
	<ellipse class="st8" cx="81" cy="46.7" rx="18.4" ry="21.9"/>
	<text transform="matrix(0.9905 0 0 1 65.6592 48.1914)" class="st5 st6 st9">H</text>
	<text transform="matrix(0.9905 0 0 1 79.6328 62.5698)" class="st5 st6 st9">2</text>
	<ellipse class="st10" cx="81" cy="80.9" rx="73.5" ry="74.4"/>
</g>
</svg>
