<svg id="Layer_1" data-name="Layer 1" xmlns="http://www.w3.org/2000/svg" viewBox="0 0 162.45 162.45"><defs><style>.cls-1,.cls-2,.cls-4{fill:#f2f2f2;}.cls-1,.cls-4,.cls-5,.cls-6,.cls-7{stroke:#102773;stroke-miterlimit:10;}.cls-1{stroke-width:6.45px;}.cls-3{fill:#102773;}.cls-4{stroke-width:4px;}.cls-5,.cls-6,.cls-7{fill:none;}.cls-5{stroke-width:1.67px;}.cls-6{stroke-width:0.42px;}.cls-7{stroke-width:3px;}.cls-8{fill:#fff;}</style></defs><title>Improve_existing_public_transport</title><rect class="cls-1" x="3.22" y="3.22" width="156" height="156"/><rect class="cls-2" x="40.22" y="115.22" width="4" height="10"/><rect class="cls-2" x="56.22" y="115.22" width="4" height="10"/><rect class="cls-2" x="104.22" y="115.22" width="4" height="10"/><rect class="cls-2" x="120.22" y="115.22" width="4" height="10"/><rect class="cls-3" x="41.22" y="75.22" width="6" height="70"/><rect class="cls-3" x="22.22" y="145.22" width="112" height="7"/><circle class="cls-4" cx="44.22" cy="44.22" r="31"/><rect class="cls-3" x="29.5" y="60.86" width="5.44" height="7.53" rx="2.72" ry="2.72"/><rect class="cls-3" x="52.51" y="60.86" width="5.44" height="7.53" rx="2.72" ry="2.72"/><rect class="cls-3" x="23" y="28.34" width="4.05" height="7.39" rx="2.02" ry="2.02" transform="translate(50.27 64.29) rotate(180)"/><polygon class="cls-3" points="27.83 27.42 24.88 27.42 24.88 31.75 26.35 31.75 26.35 27.93 27.83 27.93 27.83 27.42"/><path class="cls-5" d="M28.71,27H58.47V58.62s-.28,3.31-2.27,3.06" transform="translate(0.22 0.22)"/><path class="cls-5" d="M58.19,27H28.43V58.62s.28,3.31,2.27,3.06H56.21" transform="translate(0.22 0.22)"/><path class="cls-5" d="M58.15,57.12l-29.76-.06,0-14.27,0-17.32s.29-3.31,2.27-3.05" transform="translate(0.22 0.22)"/><path class="cls-5" d="M28.68,57.06l29.76.06,0-14.27,0-17.32s-.28-3.31-2.26-3.06l-25.51-.06" transform="translate(0.22 0.22)"/><path class="cls-3" d="M57.76,50.59a4.58,4.58,0,0,0,.48-1.73q.94-11.52.92-23.09A3.86,3.86,0,0,0,55.39,22,103.43,103.43,0,0,0,39,21.73c-2.41.15-5.5,0-7.75.95-3,1.22-2.69,4.5-2.68,7.19A3.59,3.59,0,0,0,28.73,31a3.74,3.74,0,0,0-.1,1q.22,6.27.17,12.54c0,4.18-.4,8.44-.21,12.62.09,2.1,1,4.22,3.25,4.82,1.82.5,4.07-.07,5.91-.28.91-.1,1.81-.2,2.7-.34l.25,0q3.38.11,6.76.13a38.58,38.58,0,0,0,6-.06l.29.11a3.41,3.41,0,0,0,2.9,0,2.82,2.82,0,0,0,1.21-.78A3.79,3.79,0,0,0,59,58.14a4,4,0,0,0-.78-2.28A33.13,33.13,0,0,0,57.76,50.59Z" transform="translate(0.22 0.22)"/><rect class="cls-2" x="29.5" y="26.55" width="28.45" height="16.32"/><circle class="cls-2" cx="32.64" cy="52.7" r="3.56"/><circle class="cls-2" cx="54.39" cy="52.7" r="3.56"/><ellipse class="cls-2" cx="32.5" cy="59.36" rx="1.84" ry="1.84" transform="translate(-29.02 31.88) rotate(-37.13)"/><ellipse class="cls-2" cx="54.25" cy="59.36" rx="1.84" ry="1.84" transform="translate(-24.61 45.01) rotate(-37.13)"/><rect class="cls-3" x="60.17" y="28.56" width="4.05" height="7.39" rx="2.02" ry="2.02"/><polygon class="cls-3" points="59.62 27.42 62.57 27.42 62.57 31.75 61.09 31.75 61.09 27.93 59.62 27.93 59.62 27.42"/><line class="cls-6" x1="51.33" y1="43.36" x2="44.81" y2="36.48"/><line class="cls-6" x1="44.81" y1="31.89" x2="44.81" y2="41.58"/><line class="cls-6" x1="36.02" y1="43.36" x2="42.54" y2="36.48"/><line class="cls-6" x1="42.54" y1="31.89" x2="42.54" y2="41.58"/><rect class="cls-6" x="35.46" y="43.1" width="1.42" height="0.51" rx="0.25" ry="0.25"/><rect class="cls-6" x="50.48" y="43.1" width="1.42" height="0.51" rx="0.25" ry="0.25"/><polyline class="cls-7" points="116.2 145.22 116.22 129.22 96.22 129.22 96.22 115.22 134.22 115.22 134.22 97.22 96.22 97.22 96.22 81.22 139.22 81.22 139.22 64.22 93.22 64.22 93.22 49.23 142.22 49.23 142.22 37.23 120.22 37.23"/><ellipse class="cls-3" cx="122.22" cy="22.72" rx="8" ry="8.5"/><polygon class="cls-3" points="122.32 36.73 128.22 27.23 116.42 27.23 122.32 36.73"/><ellipse class="cls-8" cx="122.22" cy="22.72" rx="6" ry="5.5"/><circle class="cls-3" cx="114.72" cy="48.72" r="6.5"/><circle class="cls-3" cx="93.72" cy="63.72" r="6.5"/><circle class="cls-3" cx="114.72" cy="81.72" r="6.5"/><circle class="cls-3" cx="138.72" cy="63.72" r="6.5"/><circle class="cls-3" cx="96.72" cy="97.72" r="6.5"/><circle class="cls-3" cx="132.72" cy="96.72" r="6.5"/><circle class="cls-3" cx="114.72" cy="114.72" r="6.5"/></svg>