<?xml version="1.0" encoding="utf-8"?>
<!-- Generator: Adobe Illustrator 21.1.0, SVG Export Plug-In . SVG Version: 6.00 Build 0)  -->
<svg version="1.1" id="Layer_1" xmlns="http://www.w3.org/2000/svg" xmlns:xlink="http://www.w3.org/1999/xlink" x="0px" y="0px"
	 viewBox="0 0 162 162" style="enable-background:new 0 0 162 162;" xml:space="preserve">
<style type="text/css">
	.st0{fill:none;stroke:#102773;stroke-width:1.7582;stroke-miterlimit:10;}
	.st1{fill:#102773;}
	.st2{fill:#102773;stroke:#102773;stroke-width:2;stroke-miterlimit:10;}
	.st3{fill:#FFFFFF;}
	.st4{fill:none;stroke:#102773;stroke-width:1.1104;stroke-miterlimit:10;}
	.st5{fill:none;stroke:#79BBCE;stroke-width:1.1104;stroke-miterlimit:10;}
	.st6{fill:none;stroke:#102773;stroke-miterlimit:10;}
	.st7{fill:none;stroke:#102773;stroke-width:3;stroke-miterlimit:10;}
</style>
<rect x="62" y="20" class="st0" width="88" height="71"/>
<circle class="st1" cx="32" cy="81" r="21"/>
<path class="st1" d="M6,162c0-33.7,11.4-61,25.5-61S57,128.3,57,162"/>
<circle class="st1" cx="93" cy="130" r="19"/>
<circle class="st1" cx="137" cy="130" r="19"/>
<path class="st1" d="M74,162c0-7.7,8.5-14,19-14s19,6.3,19,14"/>
<path class="st1" d="M119,162c0-7.7,8.5-14,19-14s19,6.3,19,14"/>
<line class="st2" x1="72.5" y1="101.7" x2="91.6" y2="72.8"/>
<rect x="36" y="118" class="st2" width="27" height="9"/>
<rect x="65" y="94" transform="matrix(0.866 0.5 -0.5 0.866 64.4273 -19.4458)" class="st2" width="7" height="33"/>
<ellipse transform="matrix(0.5 -0.866 0.866 0.5 -37.9423 114.282)" class="st2" cx="80" cy="90" rx="6" ry="5"/>
<ellipse class="st1" cx="68.5" cy="80.6" rx="2.6" ry="1.3"/>
<ellipse class="st1" cx="71.4" cy="81.6" rx="2.6" ry="1.3"/>
<ellipse class="st1" cx="76.6" cy="81.6" rx="2.6" ry="1.3"/>
<ellipse class="st1" cx="79.6" cy="80.6" rx="2.6" ry="1.3"/>
<ellipse class="st1" cx="74.1" cy="82.7" rx="2.6" ry="1.3"/>
<path class="st1" d="M83.4,65.2C83.4,65.2,83.4,65.2,83.4,65.2C83.4,65.2,83.4,65.2,83.4,65.2c0-0.1,0-0.1-0.1-0.1
	c-0.1-0.1-0.2-0.1-0.2,0c0,0.2-0.2,0.4-0.3,0.6c0,0-0.1,0-0.1,0.1c-1.1,0.7-2.4,0.6-3.6,0.8c-0.9,0.2-1.7,0.7-2.2,1.3
	c-0.1,0.1-0.1,0.2-0.2,0.3c-0.6,0.9-0.4,2-0.1,3c0,0.1,0.1,0.1,0.1,0.1c-1.7,2.2-2.7,4.8-2.9,7.4c-0.4-0.2-1-0.3-1.6-0.3
	c-1.4,0-2.6,0.6-2.6,1.3c0,0.7,1.2,1.3,2.6,1.3c0.7,0,1.3-0.1,1.8-0.4c0.5,0.2,1.1,0.4,1.8,0.4c1.4,0,2.6-0.6,2.6-1.3
	c0-0.7-1.2-1.3-2.6-1.3c-0.4,0-0.7,0-1.1,0.1c0.4-2.4,1.3-4.7,2.7-6.8c0,0,0,0,0.1,0c2.1,0.4,4.3-0.3,5.4-1.7
	c0.6-0.8,0.9-1.7,1.1-2.6C84.1,66.6,84,65.8,83.4,65.2z"/>
<ellipse class="st1" cx="73.9" cy="81" rx="2.6" ry="1.3"/>
<path class="st3" d="M83.5,66.1c0.1-0.1-0.2-0.2-0.3-0.1c-0.6,1.1-2,1.7-3.2,2.4c0-0.5,0.3-1,0.7-1.5c0.1-0.1-0.1-0.2-0.2-0.1
	c-0.5,0.5-0.7,1.1-0.7,1.7c0,0,0,0,0,0c-0.6,0.4-1.1,0.8-1.5,1.2c-0.1-0.7-0.2-1.3-0.1-2c0-0.1-0.2-0.2-0.3-0.1
	c-0.1,0.7,0,1.4,0.1,2.2c0,0,0,0.1,0.1,0.1c-0.2,0.3-0.4,0.5-0.5,0.8c-0.1,0.1,0.2,0.2,0.3,0.1c0.2-0.3,0.4-0.6,0.6-0.8
	c0,0,0.1,0,0.1,0c1.1,0,2.1-0.3,3-0.7c0.1-0.1,0-0.3-0.1-0.2c-0.8,0.5-1.8,0.7-2.8,0.7c0.5-0.6,1.2-1.1,2-1.5c0,0,0,0,0.1,0
	c1.1,0,2-0.4,2.6-1c0.1-0.1-0.1-0.2-0.2-0.1c-0.5,0.5-1.3,0.9-2.1,0.9c0.1,0,0.1-0.1,0.2-0.1C82,67.5,83,66.9,83.5,66.1z"/>
<path class="st1" d="M64.6,65.2C64.6,65.2,64.6,65.2,64.6,65.2C64.6,65.2,64.6,65.2,64.6,65.2c0-0.1,0-0.1,0.1-0.1
	c0.1-0.1,0.2-0.1,0.2,0c0,0.2,0.2,0.4,0.3,0.6c0,0,0.1,0,0.1,0.1c1.1,0.7,2.4,0.6,3.6,0.8c0.9,0.2,1.7,0.7,2.2,1.3
	c0.1,0.1,0.1,0.2,0.2,0.3c0.6,0.9,0.4,2,0.1,3c0,0.1-0.1,0.1-0.1,0.1c1.7,2.2,2.7,4.8,2.9,7.4c0.4-0.2,1-0.3,1.6-0.3
	c1.4,0,2.6,0.6,2.6,1.3c0,0.7-1.2,1.3-2.6,1.3c-0.7,0-1.3-0.1-1.8-0.4c-0.5,0.2-1.1,0.4-1.8,0.4c-1.4,0-2.6-0.6-2.6-1.3
	c0-0.7,1.2-1.3,2.6-1.3c0.4,0,0.7,0,1.1,0.1c-0.4-2.4-1.3-4.7-2.7-6.8c0,0,0,0-0.1,0c-2.1,0.4-4.3-0.3-5.4-1.7
	c-0.6-0.8-0.9-1.7-1.1-2.6C63.9,66.6,64,65.8,64.6,65.2z"/>
<path class="st3" d="M64.5,66.1c-0.1-0.1,0.2-0.2,0.3-0.1c0.6,1.1,2,1.7,3.2,2.4c0-0.5-0.3-1-0.7-1.5c-0.1-0.1,0.1-0.2,0.2-0.1
	c0.5,0.5,0.7,1.1,0.7,1.7c0,0,0,0,0,0c0.6,0.4,1.1,0.8,1.5,1.2c0.1-0.7,0.2-1.3,0.1-2c0-0.1,0.2-0.2,0.3-0.1c0.1,0.7,0,1.4-0.1,2.2
	c0,0,0,0.1-0.1,0.1c0.2,0.3,0.4,0.5,0.5,0.8c0.1,0.1-0.2,0.2-0.3,0.1c-0.2-0.3-0.4-0.6-0.6-0.8c0,0-0.1,0-0.1,0
	c-1.1,0-2.1-0.3-3-0.7c-0.1-0.1,0-0.3,0.1-0.2c0.8,0.5,1.8,0.7,2.8,0.7c-0.5-0.6-1.2-1.1-2-1.5c0,0,0,0-0.1,0c-1.1,0-2-0.4-2.6-1
	c-0.1-0.1,0.1-0.2,0.2-0.1c0.5,0.5,1.3,0.9,2.1,0.9c-0.1,0-0.1-0.1-0.2-0.1C66,67.5,65,66.9,64.5,66.1z"/>
<g>
	<path class="st1" d="M92.3,56.7L92.3,56.7c2.4,0.1,4.3-1.3,4.2-3.1l-0.5-15.7c-0.1-1.8-2-3.2-4.4-3.3h0c-2.4-0.1-4.3,1.3-4.2,3.1
		l0.5,15.7C88,55.2,90,56.6,92.3,56.7z"/>
	
		<rect x="93" y="54.5" transform="matrix(-1 -3.977941e-11 3.977941e-11 -1 189.4954 132.3711)" class="st1" width="3.5" height="23.4"/>
	<polygon class="st1" points="85.2,77.6 88.6,78 91.6,54.7 88.1,54.4 	"/>
	<ellipse class="st1" cx="91.3" cy="28.9" rx="6.4" ry="5.9"/>
	<polygon class="st1" points="101.9,52.2 104,51.2 95.7,36.7 93.6,37.8 	"/>
	<polygon class="st1" points="77.4,50 79.3,51.3 90,38.1 88.2,36.8 	"/>
	
		<rect x="77.4" y="34.7" transform="matrix(-1 -3.977941e-11 3.977941e-11 -1 156.4803 110.3969)" class="st1" width="1.7" height="41"/>
	
		<rect x="71" y="75.2" transform="matrix(-1 -3.956980e-11 3.956980e-11 -1 156.4803 152.0628)" class="st1" width="14.5" height="1.6"/>
	<line class="st4" x1="71.6" y1="75.7" x2="71.6" y2="77.8"/>
	<line class="st4" x1="85.5" y1="75.7" x2="85.5" y2="77.9"/>
	<line class="st5" x1="78.5" y1="75.7" x2="78.5" y2="77.8"/>
	<line class="st4" x1="76.2" y1="75.7" x2="76.2" y2="77.8"/>
	<line class="st4" x1="73.9" y1="75.7" x2="73.9" y2="77.8"/>
	<line class="st4" x1="83.2" y1="75.7" x2="83.2" y2="77.9"/>
	<line class="st4" x1="80.8" y1="75.7" x2="80.8" y2="77.8"/>
	<line class="st4" x1="78.5" y1="75.7" x2="78.5" y2="77.8"/>
</g>
<g>
	<path class="st1" d="M111.5,72.5c0.8-0.6,1.5-0.5,2.3-0.1c0.2-0.4,0.5-0.6,0.9-0.6c0.7,0.1,1.3,0.3,1.9,0.6c0.2-0.3,0.6-0.5,1-0.3
		c1.9,0.6,3.5,1.8,5,3.3c1.3-0.2,2.5-0.4,3.7-0.8c2.3-0.7,4.6-2,7.1-2.2c2.1-0.1,4,0.8,5.9,2c2.4,1.5,4.9,3,7.3,4.6
		c0.7,0.5,0.7,1.5,0.3,2c0.1,0.2,0.1,0.5,0,0.8c-0.5,1.9-1,3.9-1.5,5.8c-0.3,1-1.4,0.8-1.8,0c-1.6-3.2-4.7-4.6-7.6-4.7
		c-3.4-0.1-6.4,1.8-9.8,1.6c-2.8-0.1-5.5-2.1-7.8-3.8c-1.3-1-2.6-2.1-3.9-3.2c-1.2-1-2.3-1.9-3.2-3.3
		C111.1,73.6,111,72.8,111.5,72.5z"/>
	<path class="st1" d="M113.9,77.2c1.9,1.8,3.9,3.4,6,4.9c1.7,1.2,3.5,2.3,5.5,2.5c2.1,0.2,4.2-0.4,6.2-0.9c2.4-0.6,5-1.2,7.4,0
		c2.1,1.1,3.7,3.3,5.6,4.9c0,0,0.1,0,0.1,0.1c0.1,0.3,0.5,0.3,0.6,0c0.8-3.1,1.6-6.2,2.6-9.2c0,0,0-0.1,0-0.1
		c0.1-0.2,0.1-0.5-0.1-0.6c-1.5-0.7-3.1-1.3-4.4-2.4c-0.1,0-0.1-0.1-0.2-0.1c-3.1-2-6.6-4.9-10.2-4.4c-1.8,0.3-3.3,1.2-5,1.7
		c-1.7,0.5-3.4,0.6-5.2,0.9c0-0.1-0.1-0.2-0.1-0.3c-1-0.8-2.1-1.5-3.1-2.1c-0.9-0.5-1.8-0.9-2.7-0.5c-0.1,0-0.1,0.1-0.1,0.1
		c0,0-0.1-0.1-0.1-0.1c-1-0.5-1.9-0.8-2.7-0.1c0,0-0.1,0.1-0.1,0.1c-1.3-0.5-2.4-0.4-2.6,1.1C110.7,74.7,113,76.4,113.9,77.2z
		 M117.4,73.3c1,0.6,2,1.3,2.9,2c-0.4,0.2-0.7,0.4-0.9,0.8c0,0,0-0.1-0.1-0.1c-0.6-0.6-2.9-2.7-5-3.7
		C115.3,71.7,116.5,72.7,117.4,73.3z M120.3,78c-0.1,0-0.1,0-0.2-0.1c-0.2-0.1-0.3-0.3-0.2-0.5c0-0.6,0.6-0.7,1-0.6
		c0.6-0.1,1.4-0.1,1.5,0.4C122.7,77.9,120.9,78,120.3,78C120.3,78,120.3,78,120.3,78z M121.9,74.8c-0.2,0-0.3,0.1-0.5,0.1
		c-0.2,0-0.4,0.1-0.6,0.2c0-0.1,0-0.3-0.1-0.4c-1.1-0.8-2.2-1.6-3.3-2.3c0.8-0.1,1.7,0.5,2.5,1C120.5,73.8,121.2,74.3,121.9,74.8z
		 M111.6,73.3c0-0.5,0.4-0.9,0.8-1c0.6-0.1,1.3,0.4,1.9,0.6c0.1,0,0.1,0.1,0.1,0.1c1.6,0.7,3.3,2.4,4.5,3.5c0,0,0.1,0.1,0.1,0.1
		c0,0.1,0,0.1-0.1,0.2c-0.3,1,0.1,2,0.9,2.5c1.3,0.9,3.1,0.6,4.4,0.3c2-0.4,3.9-1,6-0.7c0.4,0,0.5-0.7,0.1-0.7
		c-2.6-0.3-4.8,0.6-7.3,0.9c-0.5,0.1-1.1,0.1-1.6,0c-0.3,0-0.6-0.1-0.8-0.3c0.9-0.1,2.8-0.3,2.5-1.5c-0.1-0.6-0.8-1-1.2-1.2
		c-0.4-0.1-0.9-0.1-1.3,0c0-0.1,0.1-0.2,0.1-0.3c0.4-0.3,1.4-0.4,1.8-0.4c1.4-0.2,2.9-0.3,4.3-0.6c2.7-0.6,5.3-2.6,8.2-2
		c2.7,0.6,5.4,2.8,7.9,4.4c0,0,0.1,0,0.1,0c1.2,0.9,2.7,1.5,4,2.2c-0.9,2.8-1.7,5.7-2.4,8.6c-2.4-2.2-4.5-5.1-7.6-5.6
		c-3.4-0.5-6.5,1.2-9.8,1.5c-4.2,0.4-7.9-2.7-11.2-5.6c-0.7-0.6-1.4-1.2-2.1-1.9c-0.4-0.4-0.7-0.7-1.1-1.1c-0.1-0.1-0.1-0.1-0.2-0.2
		C112.2,74.7,111.6,74.1,111.6,73.3z"/>
	<path class="st3" d="M120.8,78.6c0.6,0,2.6-0.4,2-1.6c-0.5-1.1-2.2-0.9-3-0.7c-0.1,0-0.1,0.1-0.1,0.1c-0.1,0.1-0.2,0.2-0.3,0.4
		C119,77.9,120,78.6,120.8,78.6z M120.8,76.6c0.5,0,1.1,0.2,1.6,0.4c0.1,0.5,0,0.8-0.4,0.9c-0.2,0.2-0.7,0.2-1,0.3
		c-0.4,0.1-1,0.1-1.2-0.4C119.2,76.8,120.3,76.6,120.8,76.6z"/>
	<path class="st3" d="M113.2,71.9c2.2,1,4.2,2.4,6,4.2c0,0,0,0,0,0c0.3-0.5,0.8-0.8,1.3-1c-1.4-1.1-3-2.5-4.7-3
		c-0.2-0.1-0.2-0.4,0-0.4c1.8,0.6,3.4,2,5,3.2c0,0,0,0,0,0c0.8-0.2,1.7-0.3,2.4-0.3c0.2,0,0.3,0.4,0.1,0.4c-1.2,0-3.5,0.1-4.1,1.6
		c-0.3,0.9,0.3,1.9,1.1,2.3c0.7,0.4,1.5,0.4,2.2,0.3c2.6-0.2,5.1-1.2,7.8-1c0.2,0,0.2,0.4,0,0.4c-2-0.1-3.9,0.4-5.9,0.8
		c-1.3,0.2-3.1,0.6-4.4-0.3c-0.8-0.6-1.4-1.7-1-2.7c-1.8-1.8-3.8-3.3-6-4.2C112.9,72.1,113,71.8,113.2,71.9z"/>
</g>
<line class="st6" x1="106.5" y1="23.5" x2="106.5" y2="88.5"/>
<line class="st7" x1="125.5" y1="45.5" x2="125.5" y2="70.5"/>
<polygon class="st1" points="120,45.5 131,45.5 125.5,32 "/>
</svg>
