<?xml version="1.0" encoding="utf-8"?>
<!-- Generator: Adobe Illustrator 21.1.0, SVG Export Plug-In . SVG Version: 6.00 Build 0)  -->
<svg version="1.1" xmlns="http://www.w3.org/2000/svg" xmlns:xlink="http://www.w3.org/1999/xlink" x="0px" y="0px"
	 viewBox="0 0 162 162" style="enable-background:new 0 0 162 162;" xml:space="preserve">
<style type="text/css">
	.st0{fill:#FCFCFC;}
	.st1{fill:#102773;}
	.st2{fill:none;stroke:#102773;stroke-width:1.9509;stroke-miterlimit:10;}
	.st3{fill:none;stroke:#102773;stroke-width:2.1151;stroke-miterlimit:10;}
	.st4{fill:#FCFCFC;stroke:#102773;stroke-width:2.1151;stroke-miterlimit:10;}
	.st5{fill:#102773;stroke:#FCFCFC;stroke-width:0.6649;stroke-miterlimit:10;}
	.st6{fill:#102773;stroke:#FFFFFF;stroke-width:0.6649;stroke-miterlimit:10;}
	.st7{fill:none;stroke:#FAFBFF;stroke-width:1.3299;stroke-miterlimit:10;}
	.st8{fill:#FFFFFF;}
	.st9{font-family:'Arial-BoldMT';}
	.st10{font-size:22.7824px;}
</style>
<g id="Layer_4">
</g>
<g id="Layer_3">
	<g>
		<g>
			<g>
				<path class="st0" d="M86.3,48.4c2.5,10.4,5.1,20.9,7.6,31.3c0.5,1.9,3.3,1.1,2.9-0.8c-2.5-10.4-5.1-20.9-7.6-31.3
					C88.7,45.7,85.8,46.5,86.3,48.4L86.3,48.4z"/>
			</g>
		</g>
		<g>
			<g>
				<path class="st0" d="M95.6,80.8c1.9,0,1.9-3,0-3C93.6,77.8,93.6,80.8,95.6,80.8L95.6,80.8z"/>
			</g>
		</g>
		<g>
			<g>
				<path class="st0" d="M86,46.7c2,8.4,4.3,16.6,7,24.8c1.2,3.5,2.6,7.1,2.4,10.9c-0.2,3.5-1.1,6.2-0.4,9.7
					c0.6,3.2,5.4,1.8,4.8-1.3c-0.7-3.6,0.8-7.6,0.6-11.3c-0.2-3.2-1.6-6.3-2.5-9.4c-2.7-8.2-4.9-16.3-7-24.8
					C90.1,42.3,85.2,43.6,86,46.7L86,46.7z"/>
			</g>
		</g>
		<g>
			<g>
				<path class="st0" d="M98.9,94c-0.2-0.9-0.4-1.8-0.7-2.8c-0.2-0.8-1.1-1.3-1.8-1c-0.8,0.2-1.2,1.1-1,1.8c0.2,0.9,0.4,1.8,0.7,2.8
					c0.2,0.8,1.1,1.3,1.8,1C98.7,95.6,99.1,94.8,98.9,94L98.9,94z"/>
			</g>
		</g>
		<g>
			<g>
				<path class="st0" d="M99.9,93.4c-1.7-9.5-0.3-19.6-1.6-29.2c-0.7-5.1-2-10.4-3.3-15.5c-0.7-2.8-1.4-5.4-4.5-5.9
					c-0.8-0.1-1.7,0.2-1.8,1c-0.5,2.5,0.7,4.7,1.4,7.1c1.3,4.5,1.7,9.1,2.3,13.8c0.2,1.9,3.2,1.9,3,0c-0.4-3.6-0.7-7.2-1.4-10.8
					c-0.6-2.7-2.9-6.6-2.4-9.3c-0.6,0.3-1.2,0.7-1.8,1c3.3,0.6,3.8,10,4.3,12.8c1,4.8,1.2,9.2,1.6,14.1c0.6,7.2,0.2,14.5,1.4,21.6
					C97.4,96.1,100.3,95.3,99.9,93.4L99.9,93.4z"/>
			</g>
		</g>
		<g>
			<g>
				<path class="st0" d="M87.9,41.7c-6.5,2.1-3.6,10.2-2.1,14.7c1.4,4.5,2.5,9.1,4,13.5c1.5,4.5,3,8.9,4.1,13.6
					c0.4,1.9,3.3,1.1,2.9-0.8c-1.5-6.5-3.9-12.6-6-18.9c-1-3.1-1.6-6.4-2.6-9.5c-0.7-2.3-3.1-8.6,0.5-9.7
					C90.5,44,89.7,41.1,87.9,41.7L87.9,41.7z"/>
			</g>
		</g>
		<g>
			<g>
				<path class="st0" d="M88.6,44.3c5.6,1.5,6.9,4.8,7.8,10.2c0.8,4.6,0.8,8.9,1.1,13.5c0.3,5,0.4,9.5,0,14.6
					c-0.3,3.6,0.6,7.8-1.3,11.1c-1,1.7,1.6,3.2,2.6,1.5c2.4-4.1,1.3-9.1,1.9-13.7c0.8-5.6-0.2-11.1-0.1-16.6
					c0.1-5.3-0.5-12.4-2.6-17.2c-1.7-3.8-4.7-5.3-8.6-6.4C87.5,40.9,86.7,43.8,88.6,44.3L88.6,44.3z"/>
			</g>
		</g>
		<g>
			<g>
				<path class="st0" d="M82.6,46.6c0.4,3.7,0.3,6.8,1.3,10.5c1.2,4.3,2,8.8,3.5,13c1.2,3.5,2,7,3.4,10.5c1.4,3.5,1.9,7.7,4.3,10.6
					c1.3,1.5,3.4-0.7,2.1-2.1c-2.2-2.6-3.1-7.8-4.3-11.1c-1.1-3-1.6-6.1-2.7-9.1c-1.4-3.6-1.7-7.4-2.8-11.1
					c-0.6-2.2-1.5-4.2-1.8-6.5c-0.2-1.6,0.1-3.2-0.1-4.8C85.4,44.8,82.4,44.7,82.6,46.6L82.6,46.6z"/>
			</g>
		</g>
		<g>
			<g>
				<path class="st0" d="M93.9,91.1c0,0.1,0.1,0.2,0.1,0.4c0.2,0.8,1.1,1.3,1.8,1c0.8-0.2,1.2-1.1,1-1.8c0-0.1-0.1-0.2-0.1-0.4
					c-0.2-0.8-1.1-1.3-1.8-1C94.2,89.5,93.7,90.3,93.9,91.1L93.9,91.1z"/>
			</g>
		</g>
		<path class="st1" d="M94.7,24.8c-3-2.1-5.4,0.6-6.5,2.7c-1,1.7-1.6,3.7-1.9,5.7c-0.7-1.4-1.5-2.8-2.5-4.1c-1.4-1.8-4.6-6.9-7-6.1
			c-2,0.6-1.3,4.1-0.5,5.8c2,4.9,6.9,7.9,9.8,12.2c-3.2,1.8-4.5,5.6-4.4,9.7c0.2,6.2,2.8,13,4.7,19.1c2.4,7.7,5,15.5,7.7,23.1
			c0.1,0.2,0.2,0.4,0.4,0.5c1.1,2.4,3.1,4.8,5.4,3.3c1.4-0.9,1.5-3.2,1.7-4.9c0.4-3.2,0.7-6.5,0.8-9.8c0.3-6.5,0.1-13-0.5-19.7
			c-0.5-5.1-0.5-12.7-3.8-17.6c-2-3-5.2-4.6-8.2-4.6c0,0,0,0,0,0c-0.1-0.3-0.1-0.7-0.1-1c2.6-1.5,4.7-3.7,5.9-6.7
			C96.3,30.3,97.5,26.8,94.7,24.8z M92.8,42.5c4.4,1.9,5.8,6.4,6.4,10.8c-4.7-0.9-10.8-2.7-13.3,1.7c-0.5,0.8,0.9,1.9,1.4,1
			c2.2-3.7,8.1-1.8,12.1-1.1c0.1,1.2,0.3,2.5,0.4,3.6c0.2,2.1,0.4,4.2,0.6,6.2c-3.6-1.2-7.6-2-9.7,1.1c-0.5,0.8,0.9,1.8,1.4,1
			c1.8-2.6,5.5-1.4,8.4-0.4c0.1,1.6,0.2,3.2,0.3,4.8c0.1,2,0.1,3.9,0,5.9c-3-1.8-6.5-1.2-7.7,1.6c-0.4,0.9,1,1.9,1.4,1
			c0.9-2.1,3.5-2.7,5.7-1.2c0.2,0.1,0.4,0.2,0.5,0.1c0,1.9-0.1,3.8-0.2,5.7c-0.2,2.3-0.3,4.5-0.6,6.7c-0.1,0.7,0,2-0.4,2.5
			c-2.6,3.7-4.1-1.1-4.5-2.7c-0.1-0.2-0.2-0.3-0.3-0.5c-3-8.5-5.8-17-8.3-25.5c-1.3-4.2-2.8-8.6-3.1-12.9
			C82.8,46.2,86.1,39.7,92.8,42.5z"/>
	</g>
	<g>
		<polygon class="st1" points="55,76.6 54.5,75.4 54,74.2 53.5,73.1 52.3,72.1 50.4,71.5 48,71.4 45.3,71.5 43.3,71.5 41.7,70.1 
			45.7,70 47.6,69.8 50,69.9 51.1,70 49.6,68.8 51.6,68.8 53,69 54,67.7 54.6,66 55.5,66.6 55.6,68.4 56.4,66.9 57.6,65.6 59,64.6 
			60.1,63.4 60.9,61.9 61.2,58.5 61.5,61.9 61.2,63.4 60.3,65 58.9,66.7 57.5,68.2 57.1,69.3 56.8,70.8 57.2,72.3 57.8,73.7 
			58.2,74.7 58.8,75.8 		"/>
		<polygon class="st1" points="41,70.4 38.6,69.7 36.7,68.6 34.8,66.4 38.4,67 40.9,67.1 42.5,67.2 42.9,68.1 42.3,69.4 		"/>
		<polygon class="st1" points="43.2,69.4 43.6,67.7 44.1,66.7 45.8,67.7 47,68.9 45.7,69.5 		"/>
		<polygon class="st1" points="49,69.1 47.5,68.7 46.4,67.4 45.7,65.8 45.7,63.6 46.3,61.5 46.9,59.7 49,60.3 51.2,62 52.6,63.6 
			53.2,65 53.1,66.3 52.6,67.6 51.4,68.3 50.2,68.5 		"/>
		<polygon class="st1" points="53.9,64.6 54.3,62.9 56,62.9 57,64 57,65.1 56.2,66 55.3,65.9 54.3,65.4 		"/>
		<polygon class="st1" points="57.3,63.4 57.7,64.3 58.2,64.5 59.2,63.3 60,62.4 60.4,61.5 60.4,60.3 60.5,58.7 58.3,62 57.2,62.8 
					"/>
		<polygon class="st1" points="43.3,67.1 42,66.6 41.1,66.2 40.4,64.5 39.3,62.1 38.7,59.8 38.8,58.5 40,57.7 41.2,58.1 43.4,60.4 
			44.9,62.3 45.4,63.3 45.3,64.8 45.3,66.2 43.9,66.3 		"/>
		<polygon class="st1" points="40.5,66.5 38,66.5 35.8,66 34.4,65.5 33.1,63.6 32,61.1 31.1,58.9 30.8,57 31.3,56.8 32.8,57.1 
			34.6,59 36.1,60.9 38.2,62 38.9,62.8 39.6,64.5 		"/>
		<polygon class="st1" points="53.5,63.6 52.2,62.7 51.2,62 51.1,59.8 51.5,57 51.8,54.3 54.4,55.2 56.1,56.9 57.3,58.4 58.1,59.7 
			58,61.3 57.2,62.8 56.5,62.8 55.6,62.3 54.3,62.9 		"/>
		<polygon class="st1" points="58.7,59.9 58,58.3 58,56 58.4,53.6 58.8,51.8 59.1,51.2 59,49.5 60.1,50.5 60.8,52.1 61.5,53.8 
			61.7,55.5 61.6,57.4 61.2,58.5 		"/>
		<polygon class="st1" points="37.5,60.4 35.9,59.7 34.5,58.4 32.8,57.1 32.1,56.2 31.4,54.5 30.6,52.8 30.8,51.1 31.2,50 
			32.2,50.2 33.3,51.2 34.6,51.9 36,52.7 37.3,54 37.3,55.7 37.8,58 38,59 38.3,61 		"/>
		<polygon class="st1" points="38.3,57.9 37.8,55.3 37.9,53.7 38.3,52.2 38.6,51.1 40.1,51 41.6,51.4 42.6,51.7 43.2,52.1 
			43.9,53.2 43.7,55.3 43.7,57.8 43.7,58.7 42.7,58.7 41.7,58.1 41.1,57.5 40,57.7 39.5,57.4 38.9,57.8 		"/>
		<polygon class="st1" points="45.6,61.8 44.3,61 44.2,58.5 44.2,55.9 44.3,54 44.7,52.7 45.4,52.4 47,52.9 48.3,53.5 49.4,54.2 
			50.2,55 51.1,56 50.7,58.5 50.2,60.4 49,60.3 48.3,59.7 47.4,59.5 46.9,59.7 46.1,60.4 		"/>
		<polygon class="st1" points="51.1,54.6 49.1,53.3 47.1,52.4 47.1,50.8 47.2,48.4 48.1,47.1 49.6,47.6 50.9,48.4 52.1,49.6 
			52.3,51.7 52.6,53.8 51.6,53.8 		"/>
		<polygon class="st1" points="53.7,54.4 55.2,55.2 56.5,56.2 57.3,57.4 57.4,55.4 57.9,53.2 58.4,51.5 57.5,49.8 56.3,48.8 
			55.4,47.5 54.3,47.1 52.9,47.6 52.5,49.4 52.7,52 53.4,53.6 		"/>
		<polygon class="st1" points="58.4,50 55.4,47.5 55.8,45.8 55.8,44 57.1,45.8 58,47 58.7,48 59,49.5 		"/>
		<polygon class="st1" points="35.2,51.7 33.7,50.8 32.2,50.2 32.1,48.7 32.4,46.6 33.1,45.1 34.2,43.8 35.5,46.6 35.7,48.1 
			36,50.5 36.4,52.1 		"/>
		<polygon class="st1" points="37.5,52.8 36.7,51 36.3,49.8 35.7,48.1 36.5,46.3 37.3,44.5 38.7,45.9 39.9,46.9 40.4,47.4 
			40.5,48.8 40.8,50.4 39.9,50.6 38.6,51.1 37.9,51.6 		"/>
		<polygon class="st1" points="44.7,52.7 43.5,51.6 42.5,51.2 41.9,50.9 41.4,49.7 41,47.9 41.1,46.1 41.6,44.2 43.7,44.4 
			45.1,45.3 46.3,45.9 47.1,46.6 48.1,47.1 47.2,48.4 46.6,49.6 46.4,50.8 46.1,51.7 		"/>
		<polygon class="st1" points="50.6,47.8 48.9,46.9 47.8,46.5 46.8,45.8 45.6,44.7 45.2,42.7 45.7,41.8 47.4,41.4 48.7,41.7 
			50.3,43.4 51.2,45.1 51.8,46.5 51.7,48.3 		"/>
		<polygon class="st1" points="52.1,47.2 53.4,46.7 54.3,46.5 54.8,46.3 55.4,44.9 54.9,43.7 53.9,42.3 52.1,40.7 50.8,40.1 
			49.6,39.9 48.8,40.2 47.8,39.6 49.4,41.6 50.5,42.7 51.3,43.9 51.8,45.7 		"/>
		<polygon class="st1" points="35,44.8 35.8,43.2 36.6,42.2 38.1,42.9 39.1,43.7 40.2,45.7 39.8,46 38.4,44.9 37.3,44.5 36.2,45.6 
			35.5,46.6 		"/>
		<polygon class="st1" points="37.8,42.3 37.9,40.8 39.1,40.2 40.1,40.7 40.9,41 41.1,42.9 41.5,43.6 41.1,44.9 40.3,44.8 
			39.1,43.7 38.1,42.9 		"/>
		<polygon class="st1" points="42,43.6 43,43.7 43.7,42.9 43.4,41.6 42.9,40.5 42.4,39.9 41.7,39.8 41,40.3 41.3,41.9 41.5,43.6 		
			"/>
		<polygon class="st1" points="44.1,43.8 45.1,44.6 44.9,42.1 45.5,41.5 46.2,41.2 47.4,41.4 48,41 47.6,40.1 46,39.3 44.6,39 
			43.7,38.6 42.8,38.7 		"/>
		<polygon class="st1" points="35.5,42 36.1,40.4 36.6,39.6 37.6,39.2 39.5,39.3 40.6,38.9 42.1,39.2 41.1,39.4 40,40.1 38.4,40.2 
			37.3,41.2 37.8,42.3 36.6,42.2 35.6,42.7 		"/>
	</g>
	<g>
		<g>
			<g>
				<path class="st0" d="M124.6,44c-3.2,10.2-6.5,20.5-9.7,30.7c-0.6,1.8,2.3,2.6,2.9,0.8c3.2-10.2,6.5-20.5,9.7-30.7
					C128.1,42.9,125.2,42.1,124.6,44L124.6,44z"/>
			</g>
		</g>
		<g>
			<g>
				<path class="st0" d="M116.6,76.7c1.9,0,1.9-3,0-3C114.7,73.7,114.7,76.7,116.6,76.7L116.6,76.7z"/>
			</g>
		</g>
		<g>
			<g>
				<path class="st0" d="M125.3,42.4c-1.4,4.4-2.8,8.8-4.2,13.2c-1.3,4.1-1.8,8.2-2.9,12.4c-1,3.7-1.5,7.2-3.8,10.4
					c-1.9,2.7-3.8,4.3-5,7.5c-1.1,3,3.8,4.3,4.8,1.3c1.1-3,3.9-5.2,5.6-8c1.8-3.2,2.3-6.4,3.2-9.9c1-3.8,1.4-7.7,2.6-11.5
					c1.5-4.7,3-9.3,4.4-14C131.1,40.7,126.2,39.3,125.3,42.4L125.3,42.4z"/>
			</g>
		</g>
		<g>
			<g>
				<path class="st0" d="M111.9,89.5c0.3-0.9,0.6-1.8,0.9-2.7c0.2-0.8-0.3-1.6-1-1.8c-0.8-0.2-1.6,0.3-1.8,1
					c-0.3,0.9-0.6,1.8-0.9,2.7c-0.2,0.8,0.3,1.6,1,1.8C110.8,90.8,111.6,90.3,111.9,89.5L111.9,89.5z"/>
			</g>
		</g>
		<g>
			<g>
				<path class="st0" d="M113,89.6c3.2-8.7,9.3-16.4,13.2-24.7c2.3-4.8,3.8-10.2,5.4-15.2c0.9-2.8,2.2-6.1-0.6-8.3
					c-0.6-0.5-1.5-0.7-2.1,0c-1.7,1.9-1.8,4.4-2.4,6.7c-1.2,4.5-3.3,8.7-5.2,13c-0.8,1.7,1.8,3.3,2.6,1.5c1.5-3.3,3.2-6.5,4.4-9.9
					c0.9-2.6,0.9-7.1,2.8-9.2c-0.7,0-1.4,0-2.1,0c2.6,2.1-2.7,12.5-3.5,14.9c-1.6,4.7-4.2,8.7-6.2,13.2c-2.7,5.9-6.8,11.1-9.1,17.2
					C109.5,90.6,112.4,91.3,113,89.6L113,89.6z"/>
			</g>
		</g>
		<g>
			<g>
				<path class="st0" d="M129.5,39.1c-6.5-1.5-8.2,6.3-9.3,10.8c-1.1,4.6-2.5,9-3.5,13.6c-1.1,4.9-2.2,9.7-3.7,14.5
					c-0.6,1.8,2.3,2.6,2.9,0.8c2-6.3,3.2-12.8,4.7-19.3c0.7-3.2,1.9-6.3,2.7-9.4c0.6-2.4,1.8-8.9,5.5-8.1
					C130.6,42.4,131.4,39.5,129.5,39.1L129.5,39.1z"/>
			</g>
		</g>
		<g>
			<g>
				<path class="st0" d="M128.8,41.6c1.6,1.7,3.4,3.9,3.4,6.3c0,2.6-1.8,5.6-2.7,8c-1.8,4.6-4.3,8.8-6.4,13.2
					c-1.8,3.5-4.3,6.8-6.6,9.9c-2.2,2.9-3.4,6.9-6.9,8.8c-1.7,0.9-0.2,3.5,1.5,2.6c4-2.2,5.6-6.8,8.3-10.2c3.2-4.1,5.4-8.5,7.7-13
					c2.9-5.5,6.9-11.3,7.8-17.6c0.6-4.3-1.2-7.2-4.1-10.1C129.6,38.1,127.5,40.2,128.8,41.6L128.8,41.6z"/>
			</g>
		</g>
		<g>
			<g>
				<path class="st0" d="M122.4,40.6c-1.5,3.4-3.2,6-4.3,9.7c-1.2,4.3-2.9,8.6-3.8,13c-0.7,3.6-1.9,7-2.5,10.7
					c-0.6,3.7-2.4,7.6-1.7,11.3c0.3,1.9,3.2,1.1,2.9-0.8c-0.5-3.4,1.5-8.2,2.1-11.7c0.5-3.2,1.8-6,2.4-9.2c0.7-3.8,2.4-7.3,3.4-10.9
					c0.6-2.2,0.9-4.4,1.9-6.5c0.7-1.5,1.8-2.7,2.4-4.2C125.8,40.4,123.2,38.8,122.4,40.6L122.4,40.6z"/>
			</g>
		</g>
		<g>
			<g>
				<path class="st0" d="M109.1,84.5c0,0.1-0.1,0.2-0.1,0.4c-0.2,0.7,0.3,1.7,1,1.8c0.8,0.2,1.6-0.2,1.8-1c0-0.1,0.1-0.2,0.1-0.4
					c0.2-0.7-0.3-1.7-1-1.8C110.1,83.3,109.3,83.7,109.1,84.5L109.1,84.5z"/>
			</g>
		</g>
		<path class="st1" d="M144.1,28.2c-1.4-3.3-4.9-2.2-7-1c-1.7,1-3.3,2.3-4.6,3.9c0.2-1.6,0.2-3.2,0-4.8c-0.2-2.3-0.4-8.3-2.9-8.9
			c-2-0.5-3.2,2.8-3.5,4.7c-0.8,5.2,1.8,10.3,2.1,15.5c-3.7-0.2-6.8,2.4-8.8,6c-3,5.4-4.3,12.5-5.9,18.8c-2,7.9-3.7,15.8-5.4,23.8
			c0,0.2,0,0.4,0.1,0.6c-0.3,2.7,0.2,5.7,2.9,5.6c1.7-0.1,2.9-1.9,4-3.3c2-2.5,3.9-5.2,5.8-8c3.6-5.4,6.9-11.1,9.8-17.1
			c2.3-4.7,6.2-11.1,5.8-17c-0.2-3.6-2.1-6.6-4.7-8.2c0,0,0,0,0,0c0.1-0.3,0.3-0.7,0.4-1c3,0.1,5.9-0.8,8.5-2.7
			C142.6,33.7,145.4,31.3,144.1,28.2z M133.3,42.3c2.8,3.9,1.6,8.4-0.1,12.5c-3.6-3.2-7.9-7.9-12.3-5.4c-0.8,0.5-0.2,2.1,0.7,1.6
			c3.8-2.1,7.9,2.7,10.9,5.4c-0.5,1.1-1,2.2-1.5,3.3c-0.9,1.9-1.8,3.8-2.7,5.6c-2.5-2.9-5.4-5.7-8.9-4.1c-0.9,0.4-0.2,2,0.7,1.6
			c2.9-1.3,5.4,1.6,7.4,4c-0.7,1.4-1.5,2.9-2.3,4.3c-1,1.7-2,3.4-3,5.1c-1.6-3.1-4.9-4.4-7.4-2.6c-0.8,0.5-0.1,2.2,0.7,1.6
			c1.9-1.3,4.4-0.5,5.5,1.9c0.1,0.2,0.2,0.3,0.4,0.4c-1,1.6-2.1,3.2-3.2,4.7c-1.3,1.9-2.6,3.7-4,5.4c-0.4,0.5-1.1,1.7-1.6,2
			c-4.2,1.8-2.9-3.1-2.5-4.6c0.1-0.2,0-0.4,0-0.5c1.9-8.8,3.8-17.5,6.1-26.2c1.1-4.3,2.1-8.8,4-12.6C122.8,40.2,129,36.4,133.3,42.3
			z"/>
	</g>
	<g>
		<g>
			<g>
				<path class="st0" d="M112.6,35.9c-0.1,10.7-0.3,21.5-0.4,32.2c0,1.9,3,1.9,3,0c0.1-10.7,0.3-21.5,0.4-32.2
					C115.6,33.9,112.6,33.9,112.6,35.9L112.6,35.9z"/>
			</g>
		</g>
		<g>
			<g>
				<path class="st0" d="M113.9,69.6c1.9,0,1.9-3,0-3C112,66.6,112,69.6,113.9,69.6L113.9,69.6z"/>
			</g>
		</g>
		<g>
			<g>
				<path class="st0" d="M112.7,34.2c-0.1,8.7,0,17.1,0.6,25.7c0.2,3.7,0.7,7.5-0.4,11.1c-1,3.3-2.6,5.8-2.8,9.3
					c-0.2,3.2,4.8,3.2,5,0c0.2-3.6,2.7-7.1,3.3-10.8c0.6-3.1,0.1-6.5-0.1-9.7c-0.5-8.6-0.7-17.1-0.6-25.7
					C117.8,31,112.8,31,112.7,34.2L112.7,34.2z"/>
			</g>
		</g>
		<g>
			<g>
				<path class="st0" d="M113.5,83.2c0-1,0-1.9,0-2.9c0-1.9-3-1.9-3,0c0,1,0,1.9,0,2.9C110.5,85.1,113.5,85.1,113.5,83.2L113.5,83.2
					z"/>
			</g>
		</g>
		<g>
			<g>
				<path class="st0" d="M114.7,82.9c0.8-10.2,5.2-20.1,5.8-30.3c0.3-5.2,0.9-10.8,0.5-16c-0.2-2.5-0.9-4.3-3.3-5.3
					c-0.6-0.2-1.4,0.1-1.7,0.7c-1.2,2.5-0.4,5.3-0.4,7.9c0.1,4.6-0.7,9-1.3,13.5c-0.2,1.9,2.8,1.9,3,0c0.5-3.7,1.2-7.4,1.3-11.2
					c0.1-2.3-1.1-6.7,0-8.8c-0.6,0.2-1.1,0.5-1.7,0.7c2.6,1,0.8,11.1,0.7,13.3c-0.2,4.6-1,8.7-1.8,13.3c-1.3,7.3-3.5,14.7-4.1,22.1
					C111.5,84.9,114.5,84.9,114.7,82.9L114.7,82.9z"/>
			</g>
		</g>
		<g>
			<g>
				<path class="st0" d="M115.8,29.8c-6.8,0.4-6,9-5.7,13.7c0.3,4.7,0.2,9.4,0.5,14.1c0.4,4.7,0.7,9.4,0.6,14.1c0,1.9,3,1.9,3,0
					c0.1-5-4.4-38.6,1.6-39C117.8,32.7,117.8,29.7,115.8,29.8L115.8,29.8z"/>
			</g>
		</g>
		<g>
			<g>
				<path class="st0" d="M115.8,32.5c5.4,3.1,5.4,6.9,4.9,12.7c-0.3,4.4-1.4,8.4-2.2,12.7c-0.8,4.2-1.4,8.4-3,12.4
					c-1.5,3.8-1.7,9-4.7,12c-1.4,1.4,0.8,3.5,2.1,2.1c3.4-3.4,3.6-8.7,5.3-12.9c2-4.9,2.7-10.3,3.9-15.4c1.2-5.5,2.6-12.1,1.9-17.7
					c-0.5-4.2-3.3-6.5-6.8-8.5C115.7,28.9,114.1,31.5,115.8,32.5L115.8,32.5z"/>
			</g>
		</g>
		<g>
			<g>
				<path class="st0" d="M109.4,33.7c-0.2,1.6-0.9,3.1-1.1,4.7c-0.3,2.2-0.1,4.3-0.1,6.5c0.1,4.1-0.3,8.3,0.1,12.5
					c0.4,3.9,0.3,7.8,0.8,11.7c0.4,3.5-0.1,7.5,1.5,10.6c0.8,1.7,3.4,0.2,2.6-1.5c-1.5-3.1-0.9-8-1.4-11.5
					c-0.5-3.8-0.4-7.8-0.6-11.6c-0.2-3.8,0.2-7.5,0-11.2c-0.2-3.6,0.8-6.7,1.3-10.1C112.7,31.8,109.7,31.8,109.4,33.7L109.4,33.7z"
					/>
			</g>
		</g>
		<g>
			<g>
				<path class="st0" d="M109.4,79.2c0,0.1,0,0.3,0,0.4c0,0.8,0.7,1.5,1.5,1.5c0.8,0,1.5-0.7,1.5-1.5c0-0.1,0-0.3,0-0.4
					c0-0.8-0.7-1.5-1.5-1.5C110.1,77.7,109.4,78.3,109.4,79.2L109.4,79.2z"/>
			</g>
		</g>
		<path class="st1" d="M126.6,15.2c-2.3-2.8-5.3-0.7-7,1c-1.4,1.5-2.4,3.2-3.3,5.1c-0.3-1.5-0.8-3.1-1.4-4.6
			c-0.9-2.1-2.8-7.8-5.3-7.7c-2.1,0.1-2.2,3.6-2,5.5c0.7,5.2,4.7,9.4,6.5,14.2c-3.6,0.9-5.8,4.3-6.7,8.3c-1.4,6-0.5,13.3-0.2,19.7
			c0.4,8.1,1,16.2,1.7,24.3c0,0.2,0.1,0.4,0.2,0.6c0.5,2.6,1.8,5.4,4.4,4.5c1.6-0.6,2.3-2.7,2.9-4.3c1.2-3,2.3-6.1,3.2-9.3
			c1.9-6.2,3.4-12.6,4.4-19.2c0.8-5.1,2.7-12.4,0.7-18c-1.2-3.4-3.9-5.7-6.8-6.5c0,0,0,0,0,0c0-0.4,0.1-0.7,0.1-1
			c2.9-0.8,5.5-2.5,7.4-5.1C126.8,20.9,128.8,17.8,126.6,15.2z M120.4,31.9c3.8,2.9,4,7.6,3.5,12c-4.3-2-9.8-5.2-13.3-1.7
			c-0.7,0.7,0.4,2,1.1,1.4c3-3.1,8.3,0.3,12,2c-0.2,1.2-0.4,2.4-0.5,3.6c-0.3,2.1-0.6,4.1-1,6.2c-3.2-2.1-6.8-3.9-9.7-1.4
			c-0.7,0.6,0.4,2,1.1,1.4c2.4-2.1,5.7,0,8.2,1.7c-0.3,1.6-0.6,3.2-1,4.8c-0.4,1.9-0.9,3.8-1.4,5.7c-2.4-2.5-5.9-2.8-7.9-0.4
			c-0.6,0.8,0.5,2.1,1.1,1.4c1.4-1.8,4.1-1.7,5.9,0.2c0.2,0.2,0.3,0.2,0.5,0.3c-0.5,1.8-1.1,3.7-1.6,5.5c-0.7,2.1-1.4,4.3-2.3,6.4
			c-0.2,0.6-0.5,1.9-1,2.4c-3.5,2.9-3.7-2.1-3.7-3.7c0-0.2-0.1-0.4-0.2-0.5c-0.8-9-1.4-17.9-1.8-26.8c-0.2-4.4-0.5-9,0.2-13.2
			C109.7,32.9,114.6,27.4,120.4,31.9z"/>
	</g>
	<g>
		<g>
			<g>
				<path class="st0" d="M101.3,44.4c2.5,10.4,5.1,20.9,7.6,31.3c0.5,1.9,3.3,1.1,2.9-0.8c-2.5-10.4-5.1-20.9-7.6-31.3
					C103.7,41.7,100.8,42.5,101.3,44.4L101.3,44.4z"/>
			</g>
		</g>
		<g>
			<g>
				<path class="st0" d="M110.6,76.8c1.9,0,1.9-3,0-3C108.6,73.8,108.6,76.8,110.6,76.8L110.6,76.8z"/>
			</g>
		</g>
		<g>
			<g>
				<path class="st0" d="M101,42.7c2,8.4,4.3,16.6,7,24.8c1.2,3.5,2.6,7.1,2.4,10.9c-0.2,3.5-1.1,6.2-0.4,9.7
					c0.6,3.2,5.4,1.8,4.8-1.3c-0.7-3.6,0.8-7.6,0.6-11.3c-0.2-3.2-1.6-6.3-2.5-9.4c-2.7-8.2-4.9-16.3-7-24.8
					C105.1,38.3,100.2,39.6,101,42.7L101,42.7z"/>
			</g>
		</g>
		<g>
			<g>
				<path class="st0" d="M113.9,90c-0.2-0.9-0.4-1.8-0.7-2.8c-0.2-0.8-1.1-1.3-1.8-1c-0.8,0.2-1.2,1.1-1,1.8
					c0.2,0.9,0.4,1.8,0.7,2.8c0.2,0.8,1.1,1.3,1.8,1C113.7,91.6,114.1,90.8,113.9,90L113.9,90z"/>
			</g>
		</g>
		<g>
			<g>
				<path class="st0" d="M114.9,89.4c-1.7-9.5-0.3-19.6-1.6-29.2c-0.7-5.1-2-10.4-3.3-15.5c-0.7-2.8-1.4-5.4-4.5-5.9
					c-0.8-0.1-1.7,0.2-1.8,1c-0.5,2.5,0.7,4.7,1.4,7.1c1.3,4.5,1.7,9.1,2.3,13.8c0.2,1.9,3.2,1.9,3,0c-0.4-3.6-0.7-7.2-1.4-10.8
					c-0.6-2.7-2.9-6.6-2.4-9.3c-0.6,0.3-1.2,0.7-1.8,1c3.3,0.6,3.8,10,4.3,12.8c1,4.8,1.2,9.2,1.6,14.1c0.6,7.2,0.2,14.5,1.4,21.6
					C112.4,92.1,115.3,91.3,114.9,89.4L114.9,89.4z"/>
			</g>
		</g>
		<g>
			<g>
				<path class="st0" d="M102.9,37.7c-6.5,2.1-3.6,10.2-2.1,14.7c1.4,4.5,2.5,9.1,4,13.5c1.5,4.5,3,8.9,4.1,13.6
					c0.4,1.9,3.3,1.1,2.9-0.8c-1.5-6.5-3.9-12.6-6-18.9c-1-3.1-1.6-6.4-2.6-9.5c-0.7-2.3-3.1-8.6,0.5-9.7
					C105.5,40,104.7,37.1,102.9,37.7L102.9,37.7z"/>
			</g>
		</g>
		<g>
			<g>
				<path class="st0" d="M103.6,40.3c5.6,1.5,6.9,4.8,7.8,10.2c0.8,4.6,0.8,8.9,1.1,13.5c0.3,5,0.4,9.5,0,14.6
					c-0.3,3.6,0.6,7.8-1.3,11.1c-1,1.7,1.6,3.2,2.6,1.5c2.4-4.1,1.3-9.1,1.9-13.7c0.8-5.6-0.2-11.1-0.1-16.6
					c0.1-5.3-0.5-12.4-2.6-17.2c-1.7-3.8-4.7-5.3-8.6-6.4C102.5,36.9,101.7,39.8,103.6,40.3L103.6,40.3z"/>
			</g>
		</g>
		<g>
			<g>
				<path class="st0" d="M97.6,42.6c0.4,3.7,0.3,6.8,1.3,10.5c1.2,4.3,2,8.8,3.5,13c1.2,3.5,2,7,3.4,10.5c1.4,3.5,1.9,7.7,4.3,10.6
					c1.3,1.5,3.4-0.7,2.1-2.1c-2.2-2.6-3.1-7.8-4.3-11.1c-1.1-3-1.6-6.1-2.7-9.1c-1.4-3.6-1.7-7.4-2.8-11.1
					c-0.6-2.2-1.5-4.2-1.8-6.5c-0.2-1.6,0.1-3.2-0.1-4.8C100.4,40.8,97.4,40.7,97.6,42.6L97.6,42.6z"/>
			</g>
		</g>
		<g>
			<g>
				<path class="st0" d="M108.9,87.1c0,0.1,0.1,0.2,0.1,0.4c0.2,0.8,1.1,1.3,1.8,1c0.8-0.2,1.2-1.1,1-1.8c0-0.1-0.1-0.2-0.1-0.4
					c-0.2-0.8-1.1-1.3-1.8-1C109.2,85.5,108.7,86.3,108.9,87.1L108.9,87.1z"/>
			</g>
		</g>
		<path class="st1" d="M109.7,20.8c-3-2.1-5.4,0.6-6.5,2.7c-1,1.7-1.6,3.7-1.9,5.7c-0.7-1.4-1.5-2.8-2.5-4.1c-1.4-1.8-4.6-6.9-7-6.1
			c-2,0.6-1.3,4.1-0.5,5.8c2,4.9,6.9,7.9,9.8,12.2c-3.2,1.8-4.5,5.6-4.4,9.7c0.2,6.2,2.8,13,4.7,19.1c2.4,7.7,5,15.5,7.7,23.1
			c0.1,0.2,0.2,0.4,0.4,0.5c1.1,2.4,3.1,4.8,5.4,3.3c1.4-0.9,1.5-3.2,1.7-4.9c0.4-3.2,0.7-6.5,0.8-9.8c0.3-6.5,0.1-13-0.5-19.7
			c-0.5-5.1-0.5-12.7-3.8-17.6c-2-3-5.2-4.6-8.2-4.6c0,0,0,0,0,0c-0.1-0.3-0.1-0.7-0.1-1c2.6-1.5,4.7-3.7,5.9-6.7
			C111.3,26.3,112.5,22.8,109.7,20.8z M107.8,38.5c4.4,1.9,5.8,6.4,6.4,10.8c-4.7-0.9-10.8-2.7-13.3,1.7c-0.5,0.8,0.9,1.9,1.4,1
			c2.2-3.7,8.1-1.8,12.1-1.1c0.1,1.2,0.3,2.5,0.4,3.6c0.2,2.1,0.4,4.2,0.6,6.2c-3.6-1.2-7.6-2-9.7,1.1c-0.5,0.8,0.9,1.8,1.4,1
			c1.8-2.6,5.5-1.4,8.4-0.4c0.1,1.6,0.2,3.2,0.3,4.8c0.1,2,0.1,3.9,0,5.9c-3-1.8-6.5-1.2-7.7,1.6c-0.4,0.9,1,1.9,1.4,1
			c0.9-2.1,3.5-2.7,5.7-1.2c0.2,0.1,0.4,0.2,0.5,0.1c0,1.9-0.1,3.8-0.2,5.7c-0.2,2.3-0.3,4.5-0.6,6.7c-0.1,0.7,0,2-0.4,2.5
			c-2.6,3.7-4.1-1.1-4.5-2.7c-0.1-0.2-0.2-0.3-0.3-0.5c-3-8.5-5.8-17-8.3-25.5c-1.3-4.2-2.8-8.6-3.1-12.9
			C97.8,42.2,101.1,35.7,107.8,38.5z"/>
	</g>
	<g>
		<path class="st1" d="M87.1,85.9c-8-3.7-12.1-13-9.2-20.8c2.9-7.8,11.7-11.2,19.7-7.5"/>
		<path class="st1" d="M86.7,85.5c8,3.7,16.8,0.4,19.7-7.4c2.9-7.8-1.3-17.1-9.3-20.8"/>
		<path class="st1" d="M96.4,54.8c0.9-1.5,4.6-2.7,6.7-3.1c2.2-0.4,5.7-0.6,5.6,0.9c-0.1,1.5-3.8,4.1-6.8,4.9
			C98.1,58.5,95.4,56.5,96.4,54.8z"/>
		<path class="st1" d="M96.8,57c-1.5-0.7-3.2-4.5-4-6.7C92,48,91.2,44.1,92.6,44c1.3-0.1,4.3,3.4,5.6,6.5
			C99.7,54.5,98.4,57.9,96.8,57z"/>
	</g>
	<g>
		<path class="st1" d="M82.5,84.7c-8.7-1.6-15-9.5-14.2-17.8c0.8-8.3,8.5-13.8,17.2-12.2"/>
		<path class="st1" d="M82,84.4c8.7,1.6,16.3-3.9,17.2-12.1c0.8-8.2-5.5-16.2-14.2-17.8"/>
		<path class="st1" d="M83.6,52.2c0.5-1.6,3.7-3.7,5.7-4.7c2-1,5.4-2,5.6-0.5c0.3,1.5-2.6,4.9-5.3,6.4C86.1,55.4,83,54.1,83.6,52.2z
			"/>
		<path class="st1" d="M84.5,54.3c-1.6-0.3-4.3-3.5-5.5-5.5c-1.3-2-3.1-5.6-1.8-6c1.2-0.5,5,2.2,7,4.9
			C86.7,51.1,86.3,54.7,84.5,54.3z"/>
	</g>
	<g>
		<path class="st1" d="M68.5,86.7c-8.7-1.6-15-9.5-14.2-17.8c0.8-8.3,8.5-13.8,17.2-12.2"/>
		<path class="st1" d="M68,86.4c8.7,1.6,16.3-3.9,17.2-12.1c0.8-8.2-5.5-16.2-14.2-17.8"/>
		<path class="st1" d="M69.6,54.2c0.5-1.6,3.7-3.7,5.7-4.7c2-1,5.4-2,5.6-0.5c0.3,1.5-2.6,4.9-5.3,6.4C72.1,57.4,69,56.1,69.6,54.2z
			"/>
		<path class="st1" d="M70.5,56.3c-1.6-0.3-4.3-3.5-5.5-5.5c-1.3-2-3.1-5.6-1.8-6c1.2-0.5,5,2.2,7,4.9
			C72.7,53.1,72.3,56.7,70.5,56.3z"/>
	</g>
</g>
<g id="Layer_1">
	<g>
		<g>
			<path class="st0" d="M58.9,19.9c1.4-0.2,2.2-0.9,3.4-1.5c1.8-0.9,3.8-1.3,5.7-1.8c4.1-1,9.4-3,13.6-2.5c3.7,0.5,7.3,1.4,10.8,2.7
				c3.6,1.3,7.7,0.9,11.2,3.2c1.1,0.7,2.1-1,1-1.7c-3.8-2.5-8.2-2.4-12.3-3.8c-3.6-1.2-7.3-2-11.1-2.5c-3.6-0.4-7.9,1.3-11.3,2.1
				c-2.2,0.5-4.5,0.9-6.6,1.6c-1.8,0.6-3.1,1.9-5,2.3C57.1,18.2,57.7,20.1,58.9,19.9L58.9,19.9z"/>
		</g>
	</g>
	<g>
		<g>
			<path class="st0" d="M101.8,20.5c1.3,0,1.3-2,0-2C100.5,18.5,100.5,20.5,101.8,20.5L101.8,20.5z"/>
		</g>
	</g>
	<g>
		<g>
			<g>
				<path class="st0" d="M34.9,67.6c-0.1-1.5,0.3-2.5,0.7-4c0.2-0.8,0.2-1.6,0.1-2.5c-0.1-0.5-0.4-1.7-0.1-2.2
					c0.8-1.7-1.7-3.1-2.5-1.4c-0.9,1.8,0.1,3.8-0.4,5.7c-0.2,0.7-0.4,1.2-0.6,1.8c-0.3,0.8-0.1,1.8-0.1,2.6
					C32.1,69.5,35,69.5,34.9,67.6L34.9,67.6z"/>
			</g>
		</g>
		<g>
			<g>
				<path class="st0" d="M35.6,58.6c1.2-6.7,3.3-14.1,7.3-19.8c1.1-1.5-1.4-3-2.5-1.4c-4.1,5.9-6.3,13.5-7.6,20.5
					C32.5,59.6,35.2,60.4,35.6,58.6L35.6,58.6z"/>
			</g>
		</g>
		<g>
			<g>
				<path class="st0" d="M43.4,37.8C46.7,29.9,54,26,60.3,21c1-0.8-0.4-2.1-1.4-1.4c-3.6,2.8-7.5,5-10.7,8.2
					c-2.6,2.7-5.2,5.9-6.6,9.4C41.1,38.4,42.9,38.9,43.4,37.8L43.4,37.8z"/>
			</g>
		</g>
		<g>
			<g>
				<path class="st0" d="M129.2,67.6c0-4.3,0.4-9.2-1.5-13.2c-0.5-1.1-2.2-0.1-1.7,1c0.7,1.5,1.1,4,1.2,5.6c0.1,2.2,0,4.4,0,6.6
					C127.3,68.8,129.2,68.9,129.2,67.6L129.2,67.6z"/>
			</g>
		</g>
		<g>
			<g>
				<path class="st0" d="M128.5,67.4c-0.1-4.8,0-9.3-1.5-13.9c-1-3.2-1.4-6.5-2.7-9.6c-1-2.4-2.7-4.5-3.9-6.8
					c-0.6-1.1-2.2-0.1-1.7,1c1.3,2.5,3,4.6,4,7.3c1,2.6,1.2,5.3,2.1,8c1.5,4.5,1.6,9.4,1.7,14.1C126.7,68.7,128.6,68.7,128.5,67.4
					L128.5,67.4z"/>
			</g>
		</g>
		<g>
			<g>
				<path class="st0" d="M128.4,56.2c-0.1-2.5-0.9-5.1-1.7-7.5c-0.8-2.3-2.2-4.4-3-6.7c-0.4-1.2-2.3-0.7-1.8,0.5
					c1.6,4.5,4.5,8.8,4.6,13.7C126.5,57.4,128.4,57.4,128.4,56.2L128.4,56.2z"/>
			</g>
		</g>
		<g>
			<g>
				<path class="st0" d="M128.9,59.1c0-1.7-0.1-3.3-0.5-5c-0.3-1.4-1.1-2.4-2.1-3.5c-0.8-0.9-2.2,0.4-1.4,1.4c1.9,2.1,2,4.4,2,7.1
					C127,60.3,128.9,60.3,128.9,59.1L128.9,59.1z"/>
			</g>
		</g>
		<g>
			<g>
				<path class="st0" d="M129.9,67.8c0-1.4,0-2.8,0-4.2c0-1.2-1.9-1.2-1.9,0c0,1.4,0,2.8,0,4.2C128,69,129.9,69,129.9,67.8
					L129.9,67.8z"/>
			</g>
		</g>
		<g>
			<g>
				<path class="st0" d="M120.2,37.7c-0.3-1.7-1.3-3.4-2-4.9c-0.8-1.6-1.7-3.2-2.9-4.5c-0.9-0.9-2.2,0.5-1.4,1.4
					c1.1,1.2,1.9,2.7,2.6,4.1c0.7,1.4,1.6,2.9,1.8,4.5C118.6,39.4,120.4,38.9,120.2,37.7L120.2,37.7z"/>
			</g>
		</g>
		<g>
			<g>
				<path class="st0" d="M121.3,36.3c-0.6-0.6-0.8-1.5-1.3-2.2c-0.6-0.8-1.2-1.5-2-2c-1-0.7-2,1-1,1.7c0.7,0.4,1.3,1.2,1.7,1.9
					c0.4,0.7,0.6,1.4,1.2,2C120.9,38.5,122.2,37.2,121.3,36.3L121.3,36.3z"/>
			</g>
		</g>
		<g>
			<g>
				<path class="st0" d="M118.1,31.9c-0.6-1.5-1.9-1.9-2.9-3.1c-1.1-1.3-2.1-2.4-3.4-3.4c-1.9-1.5-3.3-3.2-5.4-4.5
					c-1.2-0.8-2.5-1.2-3.8-1.8c-1.1-0.5-1.6,1.4-0.5,1.8c3.4,1.4,5.3,3.4,8.1,5.7c1.2,1,2.1,1.7,3.1,2.8c0.6,0.7,2.7,2.1,3,2.9
					C116.7,33.5,118.6,33,118.1,31.9L118.1,31.9z"/>
			</g>
		</g>
		<g>
			<g>
				<path class="st0" d="M120.4,38.9c-0.2-1.3-1.1-2.4-1.8-3.5c-0.8-1.4-1.6-2.9-2.6-4.2c-2.2-2.8-4.4-5.4-6.6-8.1
					c-0.8-1-2.1,0.4-1.4,1.4c1.8,2.3,3.6,4.5,5.4,6.8c1.1,1.3,1.9,2.6,2.8,4.1c0.7,1.2,2,2.8,2.3,4.1
					C118.7,40.6,120.6,40.1,120.4,38.9L120.4,38.9z"/>
			</g>
		</g>
		<g>
			<g>
				<path class="st0" d="M120.1,37.8c0.1,0.9,0.7,1.9,1.2,2.7c0.2,0.4,0.4,0.7,0.7,1c0.3,0.3,0.4,0.6,0.6,1c0.6,1.1,2.3,0.1,1.7-1
					c-0.2-0.3-0.3-0.6-0.5-0.9c-0.3-0.3-0.5-0.6-0.7-0.9c-0.4-0.7-1-1.7-1.1-2.5C121.7,36.1,119.9,36.6,120.1,37.8L120.1,37.8z"/>
			</g>
		</g>
		<g>
			<path class="st2" d="M35.5,68c-0.1-28.6,20-51.9,45-52.1s45.4,23,45.5,51.6"/>
			<path class="st3" d="M130.7,68.7C130.7,38,108.5,13,81.2,13S31.7,38,31.7,68.7H130.7z"/>
			<polygon class="st3" points="154,146 130.7,68.7 31.7,68.7 8.3,146 			"/>
		</g>
		<polygon class="st4" points="31.7,68.7 130.7,68.7 154,146 8.3,146 		"/>
	</g>
	<g>
		<path class="st1" d="M108.1,86.5c-0.1-0.3-0.4-0.5-0.7-0.5c-1.1,0-1.1,2.1-0.1,2.3c0.1,0.3,0.4,0.5,0.7,0.5
			C109,88.7,109,86.7,108.1,86.5z"/>
		<g>
			<rect x="39.9" y="78" class="st5" width="51" height="46.4"/>
			<polygon class="st1" points="91,83.8 107.1,83.8 115.7,104.5 125.1,106.8 125.1,119.1 127,119.1 127,126.7 38,127.7 38,124.4 
				91,124.4 			"/>
			<ellipse class="st6" cx="56.1" cy="128.1" rx="7.2" ry="9.3"/>
			<ellipse class="st6" cx="113.3" cy="128.3" rx="7.2" ry="9.3"/>
			<polygon class="st0" points="93.3,104.5 93.3,88.6 106,88.6 110.3,104.5 			"/>
			<polygon class="st0" points="114.9,104.5 112,104.5 106.9,86.1 			"/>
			<line class="st7" x1="39.9" y1="115" x2="91" y2="115"/>
			<text transform="matrix(0.5267 0 0 1 45.145 109.0957)" class="st8 st9 st10">LOCAL</text>
		</g>
	</g>
</g>
</svg>
