<?xml version="1.0" encoding="UTF-8" standalone="no"?>
<!DOCTYPE svg PUBLIC "-//W3C//DTD SVG 1.1//EN" "http://www.w3.org/Graphics/SVG/1.1/DTD/svg11.dtd">
<svg width="100%" height="100%" viewBox="0 0 12756 12756" version="1.1" xmlns="http://www.w3.org/2000/svg" xmlns:xlink="http://www.w3.org/1999/xlink" xml:space="preserve" xmlns:serif="http://www.serif.com/" style="fill-rule:evenodd;clip-rule:evenodd;stroke-linejoin:round;stroke-miterlimit:2;">
    <g transform="matrix(1,0,0,1,-9419.63,0)">
        <g id="Artboard6" transform="matrix(17.103,0,0,19.7229,-133348,-26312.2)">
            <rect x="8347.5" y="1334.1" width="745.829" height="646.758" style="fill:none;"/>
            <g transform="matrix(0.403771,0,0,0.350136,7734.97,1354.89)">
                <g>
                    <g transform="matrix(-0.833737,0.552161,0.552161,0.833737,3123.09,-981.095)">
                        <g>
                            <g transform="matrix(0.894478,0,0,0.894478,244.373,111.581)">
                                <path d="M2008.09,1316.29C2008.09,1316.29 1838.71,1135.21 1960.39,1063.25C2042.62,1014.62 2040.57,1003.54 2040.57,1003.54L1923.76,750.053C1923.76,750.053 1940.84,622.091 2021.85,742.837C2133.75,909.643 2316.09,1141.38 2231.2,1207.58C2151.53,1269.7 2052.19,1340.94 2008.09,1316.29Z" style="fill:rgb(0,36,125);"/>
                            </g>
                            <g transform="matrix(0.969844,0,0,1.00602,103.891,-5.44279)">
                                <path d="M1913.55,880.499C1913.55,880.499 1786.06,896.124 1884.96,986.396C1983.87,1076.67 1981.21,988.444 1972.36,959.848C1963.51,931.252 1913.55,880.499 1913.55,880.499Z" style="fill:rgb(0,36,125);"/>
                            </g>
                        </g>
                        <g transform="matrix(1,0,0,1,-12.6826,-22.6133)">
                            <circle cx="1909.05" cy="623.837" r="51.366" style="fill:rgb(230,178,7);"/>
                            <g transform="matrix(1,0,0,1,8.77974,-5.21707)">
                                <path d="M1972.61,595.408C1969.33,598.757 1973.99,608.166 1978.67,608.086C1984.77,607.982 2005,599.043 2009.16,594.786C2012.29,591.587 2008.12,582.469 2003.65,582.545C1997.56,582.649 1976.77,591.151 1972.61,595.408Z" style="fill:rgb(230,178,7);"/>
                                <g transform="matrix(1,0,0,1,-182.866,67.477)">
                                    <path d="M1972.61,595.408C1969.33,598.757 1973.99,608.166 1978.67,608.086C1984.77,607.982 2005,599.043 2009.16,594.786C2012.29,591.587 2008.12,582.469 2003.65,582.545C1997.56,582.649 1976.77,591.151 1972.61,595.408Z" style="fill:rgb(230,178,7);"/>
                                </g>
                            </g>
                            <g transform="matrix(-0.54001,-0.841658,0.841658,-0.54001,2404.5,2562.22)">
                                <path d="M1972.61,595.408C1969.33,598.757 1973.99,608.166 1978.67,608.086C1984.77,607.982 2005,599.043 2009.16,594.786C2012.29,591.587 2008.12,582.469 2003.65,582.545C1997.56,582.649 1976.77,591.151 1972.61,595.408Z" style="fill:rgb(230,178,7);"/>
                                <g transform="matrix(1,0,0,1,-182.866,67.477)">
                                    <path d="M1972.61,595.408C1969.33,598.757 1973.99,608.166 1978.67,608.086C1984.77,607.982 2005,599.043 2009.16,594.786C2012.29,591.587 2008.12,582.469 2003.65,582.545C1997.56,582.649 1976.77,591.151 1972.61,595.408Z" style="fill:rgb(230,178,7);"/>
                                </g>
                            </g>
                            <g transform="matrix(0.52916,-0.848522,0.848522,0.52916,369.349,1902.69)">
                                <path d="M1972.61,595.408C1969.33,598.757 1973.99,608.166 1978.67,608.086C1984.77,607.982 2005,599.043 2009.16,594.786C2012.29,591.587 2008.12,582.469 2003.65,582.545C1997.56,582.649 1976.77,591.151 1972.61,595.408Z" style="fill:rgb(230,178,7);"/>
                                <g transform="matrix(1,0,0,1,-182.866,67.477)">
                                    <path d="M1972.61,595.408C1969.33,598.757 1973.99,608.166 1978.67,608.086C1984.77,607.982 2005,599.043 2009.16,594.786C2012.29,591.587 2008.12,582.469 2003.65,582.545C1997.56,582.649 1976.77,591.151 1972.61,595.408Z" style="fill:rgb(230,178,7);"/>
                                </g>
                            </g>
                        </g>
                    </g>
                    <g transform="matrix(1.09667,0,0,1.09667,-274.405,-49.2125)">
                        <g transform="matrix(0.979503,-0.201432,0.201432,0.979503,-176.798,466.882)">
                            <g transform="matrix(-0.89953,0.316848,0.329978,0.936808,3993.75,-673.253)">
                                <path d="M2042.05,1351.82C2042.05,1351.82 1838.71,1135.21 1960.39,1063.25C2042.62,1014.62 2040.57,1003.54 2040.57,1003.54L1927.05,747.035C1927.05,747.035 1970.28,662.915 2021.85,742.837C2130.67,911.509 2346.13,1178.37 2262.65,1246.2C2220.51,1280.43 2122.04,1363.54 2042.05,1351.82Z" style="fill:rgb(0,36,125);"/>
                            </g>
                            <g transform="matrix(-0.975322,0.343544,0.371126,1.05363,4091.86,-845.577)">
                                <path d="M1897.96,876.224C1897.96,876.224 1770.38,913.565 1877.37,995.559C1928.39,1034.66 1984.43,987.417 1972.36,959.848C1940.73,887.585 1897.96,876.224 1897.96,876.224Z" style="fill:rgb(0,36,125);"/>
                            </g>
                        </g>
                        <g transform="matrix(1.08977,-0.207622,0.187152,0.982331,-299.749,501.137)">
                            <path d="M2391.12,294.821C2378.53,307.207 2291.66,390.821 2345.65,464.792C2348.87,469.207 2334.94,499.752 2339.88,508.307C2344.82,516.862 2368.04,522.274 2375.28,516.121C2382.52,509.967 2383.32,471.387 2383.32,471.387C2383.32,471.387 2427.85,446.842 2421.22,390.476C2411.01,303.47 2403.72,282.435 2391.12,294.821Z" style="fill:rgb(54,164,73);"/>
                        </g>
                    </g>
                    <g transform="matrix(0.862698,-0.42006,0.42006,0.862698,-84.8933,1346.95)">
                        <g transform="matrix(-0.687582,-0.551568,-0.551568,0.687582,5191.48,1765.73)">
                            <g transform="matrix(-0.89953,0.316848,0.329978,0.936808,3993.75,-673.253)">
                                <path d="M2042.05,1351.82C2042.05,1351.82 1838.71,1135.21 1960.39,1063.25C2042.62,1014.62 2040.57,1003.54 2040.57,1003.54L1927.05,747.035C1927.05,747.035 1970.28,662.915 2021.85,742.837C2130.67,911.509 2346.13,1178.37 2262.65,1246.2C2220.51,1280.43 2122.04,1363.54 2042.05,1351.82Z" style="fill:rgb(0,36,125);"/>
                            </g>
                            <g transform="matrix(-0.975322,0.343544,0.371126,1.05363,4091.86,-845.577)">
                                <path d="M1897.96,876.224C1897.96,876.224 1770.38,913.565 1877.37,995.559C1928.39,1034.66 1984.43,987.417 1972.36,959.848C1940.73,887.585 1897.96,876.224 1897.96,876.224Z" style="fill:rgb(0,36,125);"/>
                            </g>
                        </g>
                        <g transform="matrix(1.09552,-0.161057,0.150834,1.02599,-376.828,495.176)">
                            <path d="M3234.92,654.029C3219.05,639.34 3082.89,724.247 3161.2,777.787C3221.2,818.81 3248.46,666.552 3234.92,654.029Z" style="fill:rgb(55,192,212);"/>
                        </g>
                    </g>
                </g>
            </g>
        </g>
    </g>
</svg>
