<svg id="Layer_1" data-name="Layer 1" xmlns="http://www.w3.org/2000/svg" viewBox="0 0 162.45 162.45"><defs><style>.cls-1,.cls-2{fill:#f2f2f2;}.cls-1,.cls-3,.cls-4{stroke:#102773;stroke-miterlimit:10;}.cls-1{stroke-width:6.45px;}.cls-3,.cls-4{fill:none;}.cls-3{stroke-width:2.8px;}.cls-4{stroke-width:3px;}</style></defs><title>National_cycling_network</title><rect class="cls-1" x="3.22" y="3.22" width="156" height="156"/><rect class="cls-2" x="40.22" y="115.22" width="4" height="10"/><rect class="cls-2" x="56.22" y="115.22" width="4" height="10"/><rect class="cls-2" x="104.22" y="115.22" width="4" height="10"/><rect class="cls-2" x="120.22" y="115.22" width="4" height="10"/><path class="cls-3" d="M14.36,106.64A76,76,0,0,1,13,92.28C13,52.91,43,21,80,21s67,31.91,67,71.28a76.11,76.11,0,0,1-1.14,13.18" transform="translate(0.22 0.22)"/><circle class="cls-4" cx="45.72" cy="116.72" r="24.5"/><circle class="cls-4" cx="115.72" cy="117.72" r="24.5"/><line class="cls-4" x1="45.72" y1="118.72" x2="57.72" y2="67.72"/><line class="cls-4" x1="114.72" y1="120.72" x2="112.72" y2="86.72"/><line class="cls-4" x1="51.72" y1="87.72" x2="135.72" y2="87.72"/><line class="cls-4" x1="114.72" y1="118.72" x2="83.72" y2="118.72"/><line class="cls-4" x1="84.72" y1="118.72" x2="113.72" y2="81.72"/><line class="cls-4" x1="100.72" y1="81.72" x2="126.72" y2="81.72"/><line class="cls-4" x1="56.72" y1="68.72" x2="70.72" y2="68.72"/></svg>