<?xml version="1.0" encoding="utf-8"?>
<!-- Generator: Adobe Illustrator 21.1.0, SVG Export Plug-In . SVG Version: 6.00 Build 0)  -->
<svg version="1.1" id="Layer_1" xmlns="http://www.w3.org/2000/svg" xmlns:xlink="http://www.w3.org/1999/xlink" x="0px" y="0px"
	 viewBox="0 0 162 162" style="enable-background:new 0 0 162 162;" xml:space="preserve">
<style type="text/css">
	.st0{fill:none;stroke:#102773;stroke-width:2.3625;stroke-miterlimit:10;}
	.st1{fill:#FFFFFF;stroke:#102773;stroke-width:2.3625;stroke-miterlimit:10;}
	.st2{fill:#FCFCFC;stroke:#102773;stroke-width:0.9587;stroke-miterlimit:10;}
	.st3{fill:#102773;}
	.st4{fill:#102773;stroke:#FCFCFC;stroke-width:0.6187;stroke-miterlimit:10;}
	.st5{fill:#102773;stroke:#FFFFFF;stroke-width:0.6187;stroke-miterlimit:10;}
	.st6{fill:#FCFCFC;}
	.st7{fill:none;stroke:#FAFBFF;stroke-width:1.2374;stroke-miterlimit:10;}
</style>
<g>
	<rect x="28" y="64.2" class="st0" width="120" height="56.8"/>
	<rect x="59.2" y="26.7" class="st1" width="57.7" height="94.3"/>
	<rect x="76.5" y="105.3" class="st1" width="23.1" height="15.7"/>
	<line class="st0" x1="88" y1="105.3" x2="88" y2="121"/>
	<rect x="78.2" y="17" class="st2" width="19.6" height="18.7"/>
	<rect x="85.7" y="19.4" class="st3" width="4.6" height="14.5"/>
	
		<rect x="85.6" y="19.8" transform="matrix(-1.836970e-16 1 -1 -1.836970e-16 114.6744 -61.3256)" class="st3" width="4.8" height="13.8"/>
	<rect x="66.1" y="89.6" class="st3" width="9.2" height="9.7"/>
	<rect x="77.6" y="89.6" class="st3" width="9.2" height="9.7"/>
	<rect x="89.2" y="89.6" class="st3" width="9.2" height="9.7"/>
	<rect x="100.7" y="89.6" class="st3" width="9.2" height="9.7"/>
	<g>
		<rect x="66.1" y="77.5" class="st3" width="9.2" height="9.7"/>
		<rect x="77.6" y="77.5" class="st3" width="9.2" height="9.7"/>
		<rect x="89.2" y="77.5" class="st3" width="9.2" height="9.7"/>
		<rect x="100.7" y="77.5" class="st3" width="9.2" height="9.7"/>
	</g>
	<rect x="66.1" y="65.4" class="st3" width="9.2" height="9.7"/>
	<rect x="77.6" y="65.4" class="st3" width="9.2" height="9.7"/>
	<rect x="89.2" y="65.4" class="st3" width="9.2" height="9.7"/>
	<rect x="100.7" y="65.4" class="st3" width="9.2" height="9.7"/>
	<rect x="66.1" y="53.3" class="st3" width="9.2" height="9.7"/>
	<rect x="77.6" y="53.3" class="st3" width="9.2" height="9.7"/>
	<rect x="89.2" y="53.3" class="st3" width="9.2" height="9.7"/>
	<rect x="100.7" y="53.3" class="st3" width="9.2" height="9.7"/>
	<rect x="66.1" y="41.2" class="st3" width="9.2" height="9.7"/>
	<rect x="77.6" y="41.2" class="st3" width="9.2" height="9.7"/>
	<rect x="89.2" y="41.2" class="st3" width="9.2" height="9.7"/>
	<rect x="100.7" y="41.2" class="st3" width="9.2" height="9.7"/>
	<rect x="31.5" y="104.1" class="st3" width="6.9" height="6"/>
	<rect x="40.1" y="104.1" class="st3" width="6.9" height="6"/>
	<rect x="48.8" y="104.1" class="st3" width="6.9" height="6"/>
	<rect x="31.5" y="93.2" class="st3" width="6.9" height="6"/>
	<rect x="40.1" y="93.2" class="st3" width="6.9" height="6"/>
	<rect x="48.8" y="93.2" class="st3" width="6.9" height="6"/>
	<rect x="31.5" y="81.1" class="st3" width="6.9" height="6"/>
	<rect x="40.1" y="81.1" class="st3" width="6.9" height="6"/>
	<rect x="48.8" y="81.1" class="st3" width="6.9" height="6"/>
	<rect x="31.5" y="69" class="st3" width="6.9" height="6"/>
	<rect x="40.1" y="69" class="st3" width="6.9" height="6"/>
	<rect x="48.8" y="69" class="st3" width="6.9" height="6"/>
	<rect x="120.3" y="69" class="st3" width="6.9" height="6"/>
	<rect x="129" y="69" class="st3" width="6.9" height="6"/>
	<rect x="137.6" y="69" class="st3" width="6.9" height="6"/>
	<rect x="120.3" y="81.1" class="st3" width="6.9" height="6"/>
	<rect x="129" y="81.1" class="st3" width="6.9" height="6"/>
	<rect x="137.6" y="81.1" class="st3" width="6.9" height="6"/>
	<rect x="120.3" y="93.2" class="st3" width="6.9" height="6"/>
	<rect x="129" y="93.2" class="st3" width="6.9" height="6"/>
	<rect x="137.6" y="93.2" class="st3" width="6.9" height="6"/>
	<rect x="120.3" y="104.1" class="st3" width="6.9" height="6"/>
	<rect x="129" y="104.1" class="st3" width="6.9" height="6"/>
	<rect x="137.6" y="104.1" class="st3" width="6.9" height="6"/>
</g>
<g>
	<rect x="13.9" y="94" class="st4" width="51" height="40.2"/>
	<polygon class="st3" points="65,99 81.1,99 89.7,116.9 99.1,118.9 99.1,129.6 101,129.6 101,136.1 12,137 12,134.2 65,134.2 	"/>
	<ellipse class="st5" cx="30.1" cy="137.4" rx="7.2" ry="8"/>
	<ellipse class="st5" cx="87.3" cy="137.6" rx="7.2" ry="8"/>
	<polygon class="st6" points="67.3,116.9 67.3,103.2 80,103.2 84.3,116.9 	"/>
	<polygon class="st6" points="88.9,116.9 86,116.9 80.9,101 	"/>
	<path class="st3" d="M82.1,101.3c-0.1-0.3-0.4-0.5-0.7-0.5c-1.1,0-1.1,1.8-0.1,1.9c0.1,0.3,0.4,0.5,0.7,0.5
		C83,103.3,83,101.5,82.1,101.3z"/>
	<line class="st7" x1="13.9" y1="126.1" x2="65" y2="126.1"/>
	<g>
		<path class="st6" d="M38.8,100.1c-0.6-1.1-1.9-0.6-2.7-0.1c-0.7,0.4-1.2,0.9-1.7,1.5c0-0.5,0-1.1-0.1-1.6
			c-0.1-0.8-0.3-2.8-1.2-2.9c-0.8-0.1-1.2,1.1-1.3,1.7c-0.2,1.8,0.8,3.4,1,5.2c-1.4,0.1-2.6,1.1-3.3,2.4c-1.1,1.9-1.5,4.4-2,6.6
			c-0.6,2.7-1.2,5.5-1.7,8.3c0,0.1,0,0.1,0,0.2c-0.1,0.9,0.1,1.9,1.2,1.8c0.7-0.1,1.1-0.8,1.5-1.3c0.7-0.9,1.5-1.9,2.1-2.9
			c1.3-2,2.5-4,3.5-6.2c0.8-1.7,2.2-4,2-6c-0.1-1.2-0.9-2.2-1.9-2.6c0,0,0,0,0,0c0-0.1,0.1-0.2,0.1-0.3c1.2-0.1,2.3-0.5,3.3-1.3
			C38.3,102.1,39.4,101.1,38.8,100.1z M34.8,105.4c1.1,1.2,0.8,2.8,0.2,4.3c-1.4-0.9-3.2-2.4-4.9-1.4c-0.3,0.2,0,0.7,0.3,0.5
			c1.4-0.8,3.1,0.6,4.3,1.4c-0.2,0.4-0.4,0.8-0.5,1.2c-0.3,0.7-0.6,1.4-1,2c-1-0.9-2.2-1.7-3.5-1.1c-0.3,0.2,0,0.7,0.3,0.5
			c1.1-0.6,2.1,0.3,2.9,1.1c-0.3,0.5-0.5,1-0.8,1.5c-0.4,0.6-0.7,1.2-1.1,1.8c-0.7-1-2-1.3-2.9-0.6c-0.3,0.2,0,0.7,0.3,0.5
			c0.7-0.5,1.7-0.3,2.2,0.4c0,0.1,0.1,0.1,0.2,0.1c-0.4,0.6-0.8,1.2-1.2,1.7c-0.5,0.7-1,1.4-1.5,2c-0.2,0.2-0.4,0.6-0.6,0.7
			c-1.6,0.8-1.2-0.9-1-1.5c0-0.1,0-0.1,0-0.2c0.6-3.1,1.2-6.1,2-9.1c0.4-1.5,0.7-3.1,1.4-4.4C30.7,105,33.1,103.5,34.8,105.4z"/>
		<g>
			<path class="st6" d="M39.7,111.8c2.8,1.5,4.4,4.1,3.6,5.7l0,0c-0.8,1.6-3.7,1.8-6.5,0.2"/>
			<polygon class="st6" points="32.9,114.2 32.4,115.3 36.9,117.8 37.4,116.7 			"/>
			<polygon class="st6" points="33.7,112.6 33.1,113.7 37.7,116.2 38.2,115.1 			"/>
			<polygon class="st6" points="34.4,111 33.9,112.1 38.5,114.5 39,113.4 			"/>
			<polygon class="st6" points="35.2,109.3 34.7,110.4 39.2,112.9 39.7,111.8 			"/>
			<path class="st6" d="M56.1,124.1L56.1,124.1c-0.3,0.6-1,0.8-1.5,0.5l-13.1-7.1c-0.6-0.3-0.8-1-0.5-1.6h0c0.3-0.6,1-0.8,1.5-0.5
				l13.1,7.1C56.2,122.8,56.4,123.5,56.1,124.1z"/>
		</g>
	</g>
</g>
</svg>
