<?xml version="1.0" encoding="utf-8"?>
<!-- Generator: Adobe Illustrator 21.1.0, SVG Export Plug-In . SVG Version: 6.00 Build 0)  -->
<svg version="1.1" xmlns="http://www.w3.org/2000/svg" xmlns:xlink="http://www.w3.org/1999/xlink" x="0px" y="0px"
	 viewBox="0 0 162 162" style="enable-background:new 0 0 162 162;" xml:space="preserve">
<style type="text/css">
	.st0{fill:#102773;}
	.st1{fill:#FFFFFF;}
</style>
<g id="colour">
</g>
<g id="colour_1_">
</g>
<g id="Layer_1">
</g>
<g id="rsayas">
	<g>
		<path class="st0" d="M128.3,78c-2.2,0.3-3.1,1.7-3.7,3.5c-0.9-0.3-1.8-0.3-2.4,0.6c-0.8,1.2-1.4,2.6-1.7,4.1
			c-0.8-0.1-1.7,0.2-2,1.2c-1.7,4-2.1,8.5-1.7,13.2c-2.1,1.7-4.4,3.3-6.8,4.8c-4.6,2.7-10.3,4.2-14.2,7.9c-3.3,3.2-4.6,7.8-5.4,12.6
			c-1.1,6.3-2,12.6-3,19c-0.3,1.9,1.6,3.5,3,3.6c0.3,0.5,0.7,0.9,1.3,1.2c4.1,2.2,8.1,4.5,12.2,6.7c2.1,1.2,3.4-1.1,2.6-3
			c-3.2-7.5-0.9-14.7,3.3-19.6c4.8-5.6,12.6-7.6,17.2-13.3c3.9-4.7,4.6-12.1,5-18.6c0.2-3.7,0.3-7.5,0.3-11.2c0-3.4,0.2-6.8-1-10.3
			C130.8,79.1,129.6,77.8,128.3,78z"/>
		<path class="st0" d="M130,78c-2.9-2-4.7-0.4-5.8,2.4c-0.1,0-0.2-0.1-0.3,0c-2.5,0.2-3.4,2.1-3.9,4.5c0,0.1,0,0.2-0.1,0.3
			c-0.1,0-0.3,0-0.4,0c-2.1,0.8-2.6,2.9-3.1,5.1c-0.6,2.7-1,5.5-1.1,8.3c0,0.3,0.1,0.5,0.2,0.6c-3,2.3-5.7,5.1-9.2,6.9
			c-3.4,1.8-7.3,3-10.3,5.4c-6.3,5-6.4,15.2-7.6,23.4c-0.1,0.1-0.1,0.2-0.1,0.4c-0.2,3.8-1.6,7.4-2.5,10.9c-0.2,0.6,0.4,1.1,0.8,1.2
			c0.1,0.1,0.1,0.1,0.2,0.2c6.6,3.2,13.1,6.7,19.6,10.3c0.7,0.4,1.1-0.3,0.9-0.9c0-0.1,0.1-0.2,0-0.3c-0.1-5.5-1.5-11.6-0.2-16.7
			c1.5-5.8,6.3-9.1,10.8-11.9c3.9-2.4,8.1-4.8,10.9-8.6c2.6-3.5,3.3-8.1,3.8-12.8c0.6-5.7,0.7-11.5,0.4-17.3
			C132.8,86.4,133.3,80.3,130,78z M123.7,82.2c-1.2,4.9-1,11.9-1,13.9c0,0.1,0,0.1,0,0.2c-1-0.1-1.9,0-2.7,0.3
			c0.2-2.7,0.5-5.3,0.9-7.9C121.3,86.5,121.4,82.9,123.7,82.2z M124.8,101c-0.9,0.9-3.7,3.6-4.5,2.3c-0.6-1,0.4-2.2,1.5-3.1
			c0.5-0.8,1.5-1.5,2.6-0.7c0.4,0.3,0.6,0.8,0.5,1.2C125,100.7,124.9,100.8,124.8,101C124.8,100.9,124.8,100.9,124.8,101z
			 M117.5,92.8c0.3-1.8,0.6-4.3,2-5.5c-0.5,2.9-0.8,5.9-1.1,8.9c0,0.4,0.2,0.7,0.4,0.8c-0.4,0.2-0.8,0.4-1.2,0.7
			c-0.3,0.2-0.6,0.4-0.9,0.6C117,96.4,117.2,94.6,117.5,92.8z M131,84.2c0,0.2,0,0.4,0.1,0.6c0.1,1.2,0.2,2.4,0.2,3.5
			c0.1,2.1,0.2,4.2,0.2,6.3c0,9.8-0.1,20.7-7,26.8c-5.5,4.7-13,7.1-17.1,13.4c-3.8,5.9-2,13.7-1.8,21.1c-6-3.4-12.1-6.6-18.3-9.6
			c0.9-3.2,2-6.5,2.3-9.9c0-0.1,0.1-0.1,0.1-0.2c1-6.4,1.1-14.2,4.2-19.6c3.3-5.7,10.4-6.8,15.6-10.2c2.7-1.7,5-3.9,7.4-5.9
			c0.9-0.7,2.4-2.1,3.5-2.3c0.2,0.1,0.4,0.2,0.7,0.3c-0.8,0.6-1.5,1.3-2,2.1c-0.5,1-0.7,2.7,0.2,3.8c1.7,2.3,4.8-0.4,6.3-1.8
			c0,0.6-0.2,1.1-0.7,1.7c-0.7,1-1.5,1.9-2.4,2.7c-4.2,3.6-9.1,5.7-12.4,10.3c-0.5,0.8,0.8,1.8,1.4,1.1c2.7-3.8,6.4-5.9,10.1-8.5
			c2.4-1.7,5.7-4.2,6.1-7.6c0.3-2.2-0.8-4.3-3-5.4c-0.1-0.1-0.2-0.1-0.4-0.2c0-0.1,0.1-0.2,0.1-0.3c-0.1-3.8-0.5-9.2,0.7-12.8
			c-0.1-0.1-0.1-0.2-0.1-0.3c0.5-1.4,0.6-3.2,1.8-4c0.8-0.5,2.1-0.5,3,0.3C131,80.6,131.1,82.5,131,84.2z"/>
		<path class="st1" d="M124.2,97.7c-0.4-0.2-0.8-0.2-1.2-0.2c-0.1-0.1-0.2-0.2-0.4-0.1c-1.6,0.8-4.4,3.4-3.3,5.9
			c1.3,2.8,4.8,0.2,5.7-0.8C126.2,101.4,126.5,98.6,124.2,97.7z M125.2,99.8c0.4,1.2-0.6,2-1.2,2.6c-0.5,0.4-1.2,1-1.9,1.1
			c-0.6,0.4-1.3,0.1-2-0.8c0.4-1.2,0.9-2.3,1.6-3.3C122.3,98.6,124.4,97.3,125.2,99.8z"/>
		<path class="st1" d="M124.8,79.8c-1.6,5.1-2.2,10.6-1.6,16.3c0,0,0,0,0,0c-1.3-0.3-2.6,0-3.7,0.5c0.2-4.1,0.2-8.7,1.8-12.2
			c0.2-0.4-0.5-1-0.7-0.5c-1.7,3.8-1.6,8.8-1.9,13.1c0,0,0,0,0,0.1c-1.6,0.9-3,2.3-4.1,3.5c-0.3,0.3,0.3,1,0.6,0.7
			c1.8-2,5.3-5.5,8.7-4c2.1,0.9,2.8,3.6,2.4,5.4c-0.4,1.7-1.6,3-2.7,4c-4.2,3.9-9.6,6.3-13.3,10.9c-0.3,0.4,0.4,0.9,0.7,0.5
			c2.8-3.5,6.6-5.7,10.1-8.3c2.4-1.8,5.7-4,6.1-7.5c0.3-2.2-1-4.9-3.2-5.9c-0.5-5.7,0-11.2,1.6-16.2
			C125.7,79.7,124.9,79.3,124.8,79.8z"/>
	</g>
	<g>
		<path class="st0" d="M31.3,77.6c2.2,0.3,3.1,1.7,3.7,3.5c0.9-0.3,1.8-0.3,2.4,0.6c0.8,1.2,1.4,2.6,1.7,4.1c0.8-0.1,1.7,0.3,2,1.2
			c1.6,4,2.1,8.5,1.6,13.2c2.1,1.8,4.4,3.4,6.8,4.8c4.6,2.7,10.3,4.2,14.2,8c3.3,3.2,4.5,7.8,5.3,12.6c1,6.3,1.9,12.6,2.9,19
			c0.3,1.9-1.6,3.5-3,3.6c-0.3,0.5-0.7,0.9-1.3,1.2c-4.1,2.2-8.1,4.5-12.2,6.7c-2.1,1.1-3.4-1.1-2.6-3c3.2-7.5,0.9-14.7-3.2-19.6
			c-4.8-5.6-12.5-7.7-17.1-13.3c-3.9-4.8-4.5-12.1-4.9-18.6c-0.2-3.7-0.2-7.5-0.2-11.2c0-3.4-0.1-6.8,1.1-10.3
			C28.8,78.8,30,77.4,31.3,77.6z"/>
		<path class="st0" d="M26.6,89c-0.3,5.9-0.2,11.7,0.4,17.3c0.5,4.7,1.2,9.2,3.8,12.8c2.8,3.8,6.9,6.2,10.8,8.6
			c4.6,2.9,9.4,6.2,10.8,12c1.3,5.2-0.2,11.2-0.3,16.7c0,0.1,0,0.2,0,0.3c-0.3,0.6,0.1,1.3,0.9,0.9c6.5-3.6,13-7,19.6-10.2
			c0.1,0,0.1-0.1,0.2-0.2c0.5-0.1,1-0.6,0.8-1.2c-0.9-3.5-2.3-7.1-2.5-10.9c0-0.2-0.1-0.3-0.1-0.4c-1.2-8.2-1.3-18.4-7.6-23.4
			c-3-2.4-6.9-3.6-10.3-5.5c-3.4-1.9-6.1-4.6-9.1-7c0.1-0.2,0.2-0.4,0.2-0.6c-0.2-2.8-0.5-5.6-1.1-8.3c-0.5-2.2-1-4.3-3.1-5.1
			c-0.1-0.1-0.3-0.1-0.4,0c0-0.1,0-0.2-0.1-0.3c-0.5-2.4-1.4-4.3-3.9-4.5c-0.1,0-0.2,0-0.3,0c-1.1-2.9-2.8-4.4-5.8-2.5
			C26.3,79.9,26.8,86.1,26.6,89z M38.6,88.4c0.4,2.6,0.7,5.2,0.9,7.9c-0.9-0.3-1.8-0.4-2.7-0.3c0-0.1,0-0.1,0.1-0.2
			c0.1-1.9,0.3-8.9-0.9-13.9C38.2,82.6,38.3,86.2,38.6,88.4z M34.7,100.6c-0.1-0.1-0.1-0.2-0.2-0.4c-0.1-0.4,0.1-0.9,0.5-1.2
			c1.1-0.8,2.2-0.1,2.6,0.7c1.1,0.9,2.1,2.1,1.5,3.2C38.4,104.2,35.5,101.5,34.7,100.6C34.7,100.6,34.7,100.6,34.7,100.6z M42.7,98
			c-0.3-0.2-0.6-0.4-0.8-0.6c-0.4-0.2-0.8-0.5-1.2-0.7c0.3-0.2,0.5-0.4,0.4-0.8c-0.2-3-0.5-6-1-9c1.4,1.2,1.6,3.7,2,5.5
			C42.3,94.3,42.5,96.1,42.7,98z M29.9,79.1c0.9-0.8,2.3-0.8,3-0.3c1.2,0.8,1.3,2.7,1.8,4c0,0.1,0,0.2-0.1,0.3
			c1.2,3.6,0.8,9.1,0.6,12.9c0,0.1,0,0.3,0.1,0.3c-0.1,0.1-0.2,0.1-0.4,0.2c-2.2,1.2-3.3,3.2-3,5.4c0.4,3.4,3.7,5.9,6.1,7.6
			c3.7,2.6,7.4,4.7,10,8.5c0.5,0.8,1.9-0.3,1.4-1.1c-3.3-4.6-8.2-6.7-12.3-10.4c-0.9-0.8-1.7-1.7-2.4-2.7c-0.5-0.6-0.7-1.1-0.7-1.7
			c1.5,1.4,4.6,4.1,6.3,1.8c0.8-1.2,0.7-2.9,0.2-3.8c-0.4-0.8-1.2-1.5-1.9-2.1c0.2-0.1,0.4-0.2,0.7-0.3c1.1,0.2,2.6,1.6,3.5,2.3
			c2.5,2,4.8,4.2,7.4,5.9c5.1,3.4,12.3,4.6,15.5,10.3c3,5.3,3.1,13.2,4.1,19.6c0,0.1,0,0.2,0.1,0.2c0.3,3.4,1.4,6.7,2.3,9.9
			c-6.2,3-12.3,6.2-18.3,9.5c0.3-7.4,2.1-15.2-1.7-21.1c-4.1-6.3-11.6-8.7-17-13.4c-6.9-6.1-7-17-6.9-26.8c0-2.1,0.1-4.2,0.2-6.3
			c0.1-1.2,0.1-2.4,0.3-3.5c0-0.2,0-0.4,0.1-0.6C28.5,82.2,28.6,80.2,29.9,79.1z"/>
		<path class="st1" d="M34.5,102.3c0.9,1,4.5,3.6,5.7,0.8c1.1-2.5-1.7-5.1-3.3-5.9c-0.1-0.1-0.3,0-0.4,0.1c-0.4,0-0.8,0-1.2,0.2
			C33,98.2,33.3,101.1,34.5,102.3z M37.9,99.1c0.7,0.9,1.2,2.1,1.6,3.3c-0.7,0.9-1.4,1.2-2,0.8c-0.7-0.1-1.3-0.7-1.9-1.1
			c-0.7-0.5-1.6-1.4-1.2-2.6C35.2,97,37.2,98.2,37.9,99.1z"/>
		<path class="st1" d="M34.8,79.5c1.6,5.1,2.2,10.6,1.6,16.3c0,0,0,0,0,0c1.3-0.3,2.6,0,3.7,0.5c-0.2-4.1-0.2-8.7-1.7-12.2
			c-0.2-0.4,0.5-1,0.7-0.5c1.7,3.8,1.6,8.8,1.9,13.1c0,0,0,0,0,0.1c1.6,0.9,3,2.3,4.1,3.5c0.3,0.3-0.3,1-0.6,0.7
			c-1.8-2-5.3-5.6-8.7-4.1c-2.1,0.9-2.8,3.6-2.4,5.4c0.4,1.7,1.6,3,2.7,4.1c4.2,4,9.6,6.4,13.2,11c0.3,0.4-0.4,0.9-0.7,0.5
			c-2.7-3.5-6.5-5.7-10-8.3c-2.4-1.8-5.7-4.1-6.1-7.6c-0.2-2.2,1-4.9,3.2-5.8c0.6-5.7,0-11.2-1.6-16.2C33.9,79.4,34.7,79,34.8,79.5z
			"/>
	</g>
	<ellipse class="st0" cx="59.5" cy="92.5" rx="9.5" ry="6.5"/>
	<ellipse class="st0" cx="70.5" cy="97.5" rx="9.5" ry="6.5"/>
	<ellipse class="st0" cx="89.5" cy="97.5" rx="9.5" ry="6.5"/>
	<ellipse class="st0" cx="100.5" cy="92.5" rx="9.5" ry="6.5"/>
	<ellipse class="st0" cx="80.5" cy="102.5" rx="9.5" ry="6.5"/>
	<path class="st0" d="M114.6,17.4C114.6,17.4,114.6,17.4,114.6,17.4c-0.1-0.1-0.1-0.2-0.1-0.3c0-0.2-0.1-0.3-0.2-0.4
		c-0.2-0.4-0.8-0.5-0.9,0c-0.2,1.1-0.6,1.9-1.2,2.7c-0.1,0.1-0.3,0.2-0.4,0.3c-4,3.5-8.7,2.7-13.4,4.1c-3.5,1-6.3,3.3-8,6.5
		c-0.2,0.4-0.4,0.9-0.6,1.4c-2.1,4.4-1.6,9.8-0.5,14.4c0.1,0.3,0.3,0.4,0.5,0.3c-6.3,10.9-9.9,23.2-10.6,35.8
		c-1.6-0.8-3.6-1.3-5.8-1.3c-5.2,0-9.5,2.9-9.5,6.5s4.3,6.5,9.5,6.5c2.5,0,4.8-0.7,6.5-1.8c1.7,1.1,4,1.8,6.5,1.8
		c5.2,0,9.5-2.9,9.5-6.5S91.7,81,86.5,81c-1.4,0-2.7,0.2-3.9,0.6c1.4-11.5,4.7-22.7,9.9-33c0.1,0.1,0.1,0.2,0.3,0.2
		c7.8,2.1,15.9-1.4,19.8-8.5c2.1-3.8,3.4-8.3,4.1-12.5C117.2,24.1,117.1,20.4,114.6,17.4z"/>
	<ellipse class="st0" cx="79.5" cy="94.5" rx="9.5" ry="6.5"/>
	<path class="st1" d="M115,21.6c0.2-0.6-0.7-0.9-1-0.3c-2.2,5.5-7.5,8.4-12,11.9c0.2-2.6,1-5,2.6-7.2c0.4-0.5-0.5-1-0.9-0.5
		c-1.7,2.5-2.7,5.3-2.7,8.3c0,0.1,0,0.2,0.1,0.2c-2.1,1.8-3.9,3.7-5.4,5.9c-0.4-3.2-0.8-6.3-0.3-9.5c0.1-0.6-0.9-0.9-1-0.3
		c-0.5,3.6-0.1,7,0.3,10.6c0,0.2,0.1,0.3,0.2,0.3c-0.8,1.2-1.4,2.5-2,3.9c-0.2,0.6,0.7,0.9,1,0.3c0.6-1.4,1.3-2.7,2.1-3.9
		c0.1,0.1,0.2,0.2,0.4,0.2c4-0.1,7.8-1.3,11-3.6c0.5-0.4,0-1.2-0.5-0.9c-3.1,2.2-6.5,3.4-10.3,3.5c2-2.9,4.5-5.2,7.4-7.4
		c0.1,0,0.1,0,0.2,0c3.9,0.1,7.5-1.8,9.7-5c0.4-0.5-0.5-1-0.9-0.5c-1.8,2.6-4.6,4.2-7.8,4.5c0.2-0.2,0.5-0.4,0.8-0.6
		C109.7,28.9,113.2,26,115,21.6z"/>
	<path class="st0" d="M45.3,17.4C45.3,17.4,45.3,17.4,45.3,17.4c0.1-0.1,0.1-0.2,0.1-0.3c0-0.2,0.1-0.3,0.2-0.4
		c0.2-0.4,0.8-0.5,0.9,0c0.2,1.1,0.6,1.9,1.2,2.7c0.1,0.1,0.3,0.2,0.4,0.3c4,3.5,8.7,2.7,13.4,4.1c3.5,1,6.3,3.3,8,6.5
		c0.2,0.4,0.4,0.9,0.6,1.4c2.1,4.4,1.6,9.8,0.5,14.4c-0.1,0.3-0.3,0.4-0.5,0.3c6.3,10.9,9.9,23.2,10.6,35.8c1.6-0.8,3.6-1.3,5.8-1.3
		c5.2,0,9.5,2.9,9.5,6.5S91.7,94,86.4,94c-2.5,0-4.8-0.7-6.5-1.8c-1.7,1.1-4,1.8-6.5,1.8c-5.2,0-9.5-2.9-9.5-6.5s4.3-6.5,9.5-6.5
		c1.4,0,2.7,0.2,3.9,0.6c-1.4-11.5-4.7-22.7-9.9-33c-0.1,0.1-0.1,0.2-0.3,0.2c-7.8,2.1-15.9-1.4-19.8-8.5c-2.1-3.8-3.4-8.3-4.1-12.5
		C42.7,24.1,42.8,20.4,45.3,17.4z"/>
	<path class="st1" d="M45,21.6c-0.2-0.6,0.7-0.9,1-0.3c2.2,5.5,7.5,8.4,12,11.9c-0.2-2.6-1-5-2.6-7.2c-0.4-0.5,0.5-1,0.9-0.5
		c1.7,2.5,2.7,5.3,2.7,8.3c0,0.1,0,0.2-0.1,0.2c2.1,1.8,3.9,3.7,5.4,5.9c0.4-3.2,0.8-6.3,0.3-9.5c-0.1-0.6,0.9-0.9,1-0.3
		c0.5,3.6,0.1,7-0.3,10.6c0,0.2-0.1,0.3-0.2,0.3c0.8,1.2,1.4,2.5,2,3.9c0.2,0.6-0.7,0.9-1,0.3c-0.6-1.4-1.3-2.7-2.1-3.9
		c-0.1,0.1-0.2,0.2-0.4,0.2c-4-0.1-7.8-1.3-11-3.6c-0.5-0.4,0-1.2,0.5-0.9c3.1,2.2,6.5,3.4,10.3,3.5c-2-2.9-4.5-5.2-7.4-7.4
		c-0.1,0-0.1,0-0.2,0c-3.9,0.1-7.5-1.8-9.7-5c-0.4-0.5,0.5-1,0.9-0.5c1.8,2.6,4.6,4.2,7.8,4.5c-0.2-0.2-0.5-0.4-0.8-0.6
		C50.2,28.9,46.7,26,45,21.6z"/>
</g>
</svg>
