<?xml version="1.0" encoding="utf-8"?>
<!-- Generator: Adobe Illustrator 21.1.0, SVG Export Plug-In . SVG Version: 6.00 Build 0)  -->
<svg version="1.1" id="Layer_1" xmlns="http://www.w3.org/2000/svg" xmlns:xlink="http://www.w3.org/1999/xlink" x="0px" y="0px"
	 viewBox="0 0 162 162" style="enable-background:new 0 0 162 162;" xml:space="preserve">
<style type="text/css">
	.st0{fill:none;stroke:#102773;stroke-width:5.6177;stroke-miterlimit:10;}
	.st1{fill:#102773;}
	.st2{fill:none;stroke:#102773;stroke-width:4.8107;stroke-miterlimit:10;}
	.st3{fill:#FFFFFF;}
</style>
<ellipse class="st0" cx="81" cy="121" rx="77.5" ry="7.5"/>
<g>
	<path class="st1" d="M37.9,123.9c-17.4,1.6-32.1-11-32.8-28.1s12.8-32.4,30.2-34"/>
	<path class="st1" d="M36.8,123.6C54.2,122,67.7,106.8,67,89.7S51.5,60.2,34.1,61.8"/>
	<path class="st1" d="M30.9,57.9c0.5-3.6,6.3-9.6,9.8-12.5c3.7-3,10-6.9,10.9-4.1c0.9,2.8-3.7,11.4-8.7,15.9
		C36.8,62.9,30.3,62.1,30.9,57.9z"/>
	<path class="st1" d="M33.3,61.6c-3.2,0.2-9.3-4.8-12.4-8c-3.2-3.4-7.6-9.5-5.3-11.2c2.3-1.6,10.5,1.6,15.2,6
		C36.6,54,37,61.4,33.3,61.6z"/>
</g>
<g>
	<path class="st1" d="M127.9,123.9c-17.4,1.6-32.1-11-32.8-28.1s12.8-32.4,30.2-34"/>
	<path class="st1" d="M126.8,123.6c17.4-1.6,30.9-16.8,30.2-33.9s-15.4-29.6-32.8-27.9"/>
	<path class="st1" d="M120.9,57.9c0.5-3.6,6.3-9.6,9.8-12.5c3.7-3,10-6.9,10.9-4.1c0.9,2.8-3.7,11.4-8.7,15.9
		C126.8,62.9,120.3,62.1,120.9,57.9z"/>
	<path class="st1" d="M123.3,61.6c-3.2,0.2-9.3-4.8-12.4-8c-3.2-3.4-7.6-9.5-5.3-11.2c2.3-1.6,10.5,1.6,15.2,6
		C126.6,54,127,61.4,123.3,61.6z"/>
</g>
<line class="st2" x1="68" y1="68" x2="95" y2="68"/>
<line class="st2" x1="68" y1="79" x2="95" y2="79"/>
<ellipse transform="matrix(0.7071 -0.7071 0.7071 0.7071 -32.1198 128.4558)" class="st3" cx="139" cy="103" rx="18" ry="6"/>
<ellipse transform="matrix(0.9932 -0.1165 0.1165 0.9932 -9.2529 17.7257)" class="st3" cx="147.1" cy="88" rx="6" ry="10"/>
</svg>
