<?xml version="1.0" encoding="utf-8"?>
<!-- Generator: Adobe Illustrator 21.1.0, SVG Export Plug-In . SVG Version: 6.00 Build 0)  -->
<svg version="1.1" id="Layer_1" xmlns="http://www.w3.org/2000/svg" xmlns:xlink="http://www.w3.org/1999/xlink" x="0px" y="0px"
	 viewBox="0 0 162 162" style="enable-background:new 0 0 162 162;" xml:space="preserve">
<style type="text/css">
	.st0{fill:#FFFFFF;stroke:#102773;stroke-width:2.625;stroke-miterlimit:10;}
	.st1{fill:none;stroke:#102773;stroke-width:2;stroke-miterlimit:10;}
	.st2{fill:#102773;}
	.st3{font-family:'Calibri';}
	.st4{font-size:12px;}
	.st5{fill:none;stroke:#102773;stroke-width:4.3353;stroke-miterlimit:10;}
	.st6{fill:none;stroke:#102773;stroke-width:2.1677;stroke-miterlimit:10;}
	.st7{fill:none;stroke:#FFFFFF;stroke-width:1.0838;stroke-miterlimit:10;}
	.st8{fill:#FCFCFC;}
	.st9{fill:none;stroke:#102773;stroke-width:3.1179;stroke-miterlimit:10;}
	.st10{fill:none;stroke:#102773;stroke-width:1.0393;stroke-miterlimit:10;}
	.st11{fill:none;stroke:#102773;stroke-width:0.75;stroke-miterlimit:10;}
	.st12{fill:#FCFCFC;stroke:#102773;stroke-miterlimit:10;}
</style>
<circle class="st0" cx="80.5" cy="81.5" r="70"/>
<line class="st1" x1="80.5" y1="11.5" x2="80.5" y2="151.5"/>
<line class="st1" x1="10" y1="82" x2="151" y2="82"/>
<text transform="matrix(1 0 0 1 4.4043 13.0786)" class="st2 st3 st4">WINTER</text>
<text transform="matrix(1 0 0 1 121.4043 13.0786)" class="st2 st3 st4">SPRING</text>
<text transform="matrix(1 0 0 1 111.4043 157.0786)" class="st2 st3 st4">SUMMER</text>
<text transform="matrix(1 0 0 1 4.4043 157.0786)" class="st2 st3 st4">FALL</text>
<g>
	<circle class="st5" cx="36.7" cy="61.3" r="14.6"/>
	<line class="st6" x1="36.7" y1="47.2" x2="36.7" y2="76.5"/>
	<line class="st6" x1="21.5" y1="61.3" x2="50.8" y2="61.3"/>
	<line class="st6" x1="36.7" y1="61.3" x2="47.5" y2="71.1"/>
	<line class="st6" x1="36.7" y1="61.3" x2="25.8" y2="50.5"/>
	<line class="st6" x1="36.7" y1="61.3" x2="26.9" y2="72.2"/>
	<line class="st6" x1="36.7" y1="61.3" x2="47.5" y2="51.6"/>
	<circle class="st7" cx="36.7" cy="61.3" r="14.6"/>
	<path class="st2" d="M31.7,74.7c-0.7,0-0.7,1.1,0,1.1C32.4,75.8,32.4,74.7,31.7,74.7z"/>
	<path class="st2" d="M36.8,75.5c-0.7,0-0.7,1.1,0,1.1C37.5,76.5,37.5,75.5,36.8,75.5z"/>
	<path class="st2" d="M42.5,74.3c-0.7,0-0.7,1.1,0,1.1C43.2,75.4,43.2,74.3,42.5,74.3z"/>
	<path class="st2" d="M47.4,70.8c-0.7,0-0.7,1.1,0,1.1C48.1,71.9,48.1,70.8,47.4,70.8z"/>
	<path class="st2" d="M50.2,66.5c-0.7,0-0.7,1.1,0,1.1C50.9,67.6,50.9,66.5,50.2,66.5z"/>
	<path class="st2" d="M51.5,60.8c-0.7,0-0.7,1.1,0,1.1C52.2,61.9,52.2,60.8,51.5,60.8z"/>
	<path class="st2" d="M50.4,55.3c-0.7,0-0.7,1.1,0,1.1C51.1,56.4,51.1,55.3,50.4,55.3z"/>
	<path class="st2" d="M47.7,51C47,51,47,52,47.7,52C48.4,52,48.4,51,47.7,51z"/>
	<path class="st2" d="M42.8,47.6c-0.7,0-0.7,1.1,0,1.1C43.5,48.6,43.5,47.6,42.8,47.6z"/>
	<path class="st2" d="M36.7,46c-0.7,0-0.7,1.1,0,1.1C37.4,47.1,37.4,46,36.7,46z"/>
	<path class="st2" d="M31.5,47.1c-0.7,0-0.7,1.1,0,1.1C32.2,48.2,32.2,47.1,31.5,47.1z"/>
	<path class="st2" d="M26.3,50.4c-0.7,0-0.7,1.1,0,1.1C27,51.5,27,50.4,26.3,50.4z"/>
	<path class="st2" d="M23.6,54.5c-0.7,0-0.7,1.1,0,1.1C24.3,55.5,24.3,54.5,23.6,54.5z"/>
	<path class="st2" d="M22,60.8c-0.7,0-0.7,1.1,0,1.1C22.7,61.9,22.7,60.8,22,60.8z"/>
	<path class="st2" d="M23.4,66.9c-0.7,0-0.7,1.1,0,1.1C24.1,67.9,24.1,66.9,23.4,66.9z"/>
	<path class="st2" d="M26.7,71.5c-0.7,0-0.7,1.1,0,1.1C27.4,72.6,27.4,71.5,26.7,71.5z"/>
	<path class="st2" d="M23,63.7c-0.7,0-0.7,1.1,0,1.1C23.7,64.8,23.7,63.7,23,63.7z"/>
	<path class="st2" d="M23.1,57.7c-0.7,0-0.7,1.1,0,1.1C23.8,58.8,23.8,57.7,23.1,57.7z"/>
	<path class="st2" d="M28,53.1c0.1-0.3,0.1-0.6-0.3-0.7c-0.6-0.2-1.3,0.1-1.6,0.6c0,0-0.1,0-0.1,0c0-0.3-0.2-0.5-0.5-0.5
		c-0.7,0-0.7,1.1,0,1.1c0,0,0,0,0,0c0,0.3,0.3,0.6,0.6,0.5c-0.8,0.8-1.4,1.7-1.9,2.8c-0.6,1.4-0.3,2.5,0.1,4c0.2,0.7,1.2,0.4,1-0.3
		c-0.3-1.5-0.6-2.6,0.2-4c0.6-1,1.3-1.8,2.1-2.5c0.1-0.1,0.1-0.2,0.2-0.3C28.1,53.7,28.2,53.3,28,53.1z"/>
	<path class="st2" d="M29.3,48.8c-0.7,0-0.7,1.1,0,1.1C30,49.9,30,48.8,29.3,48.8z"/>
	<path class="st2" d="M34.7,46.8c-0.7,0-0.7,1.1,0,1.1C35.4,47.9,35.4,46.8,34.7,46.8z"/>
	<path class="st2" d="M40.4,47.2c-0.7,0-0.7,1.1,0,1.1C41.1,48.3,41.1,47.2,40.4,47.2z"/>
	<path class="st2" d="M45,49.4c-0.7,0-0.7,1.1,0,1.1C45.7,50.4,45.7,49.4,45,49.4z"/>
	<path class="st2" d="M48.8,53.1c-0.7,0-0.7,1.1,0,1.1C49.5,54.2,49.5,53.1,48.8,53.1z"/>
	<path class="st2" d="M50.5,58.1c-0.7,0-0.7,1.1,0,1.1C51.2,59.1,51.2,58.1,50.5,58.1z"/>
	<path class="st2" d="M50.6,63.5c-0.7,0-0.7,1.1,0,1.1C51.3,64.6,51.3,63.5,50.6,63.5z"/>
	<path class="st2" d="M48.6,68.4c-0.7,0-0.7,1.1,0,1.1C49.3,69.5,49.3,68.4,48.6,68.4z"/>
	<path class="st2" d="M44.9,72.1c-0.7,0-0.7,1.1,0,1.1C45.6,73.2,45.6,72.1,44.9,72.1z"/>
	<path class="st2" d="M39.8,74.4c-0.7,0-0.7,1.1,0,1.1C40.5,75.5,40.5,74.4,39.8,74.4z"/>
	<path class="st2" d="M34.5,74.6c-0.7,0-0.7,1.1,0,1.1C35.1,75.7,35.2,74.6,34.5,74.6z"/>
	<path class="st2" d="M29.6,73c-0.7,0-0.7,1.1,0,1.1C30.3,74.1,30.3,73,29.6,73z"/>
	<path class="st2" d="M25.3,69.1c-0.7,0-0.7,1.1,0,1.1C26,70.2,26,69.1,25.3,69.1z"/>
	<path class="st2" d="M36,49c-2.6-0.7-5.9,0.4-7.6,2.5c-0.4,0.5,0.3,1.3,0.8,0.8c1.4-1.7,4.3-2.8,6.5-2.2C36.4,50.2,36.7,49.2,36,49
		z"/>
	<path class="st2" d="M49.2,59.5c-0.1,0-0.1,0-0.2,0c0-1.2,0-2.4-0.5-3.6c-0.6-1.4-1.7-1.9-2.6-3.1c-0.1-0.1-0.2-0.2-0.3-0.2
		c0,0,0,0,0,0v-0.4c0-0.5-0.5-0.6-0.8-0.5c-1.2-2.5-3.7-3.3-6.3-2.9c0-0.1,0-0.3-0.1-0.4c0.1-0.3-0.1-0.7-0.5-0.7
		c-0.4,0-0.5,0.3-0.5,0.6c-0.2,0.2-0.2,0.5-0.1,0.7c0,0,0,0,0,0c-0.7,0.2-0.4,1.2,0.3,1c2.8-0.8,5.5-0.3,6.6,2.7
		c0.1,0.4,0.5,0.4,0.8,0.3c0,0.1,0,0.1,0.1,0.2c0.7,1,1.8,1.5,2.4,2.6c0.8,1.5,0.7,3.2,0.5,4.8c-0.1,0.7,1,0.7,1.1,0
		c0-0.1,0-0.2,0-0.3h0c0.1,0,0.2,0.1,0.3,0.1C49.9,60.6,49.9,59.5,49.2,59.5z"/>
	<path class="st2" d="M28.1,69.1c-1.5-0.6-1.8-1.7-2.2-3.1c-0.4-1.3-0.8-2.2-0.3-3.5c0.2-0.5-0.3-0.7-0.7-0.6
		c-0.3-0.2-0.8,0-0.8,0.4v0.5c0,0.2,0.1,0.3,0.2,0.4c-0.2,1.4,0.3,2.8,0.8,4.2c0.4,1.4,1.4,2.3,2.7,2.8
		C28.5,70.4,28.8,69.3,28.1,69.1z"/>
	<path class="st2" d="M36.2,72.7c-0.6-0.8-1.7-0.4-2.5-0.4c-1.5,0-2.9-0.7-3.9-1.8c-0.5-0.5-1.2,0.3-0.8,0.8c0.9,0.9,2,1.6,3.2,1.9
		c0.2,0,0.4,0.1,0.6,0.1c0,0.2,0.1,0.4,0.4,0.5c0.8,0.3,1.9,0.9,2.7,0.4C36.4,73.8,36.6,73.2,36.2,72.7z"/>
	<path class="st2" d="M49.3,61.9c-0.1-0.7-1.2-0.4-1,0.3c0.5,2.4-0.7,4.8-2.8,6.1c-0.3,0.2-0.3,0.4-0.2,0.7c-0.1,0-0.1-0.1-0.2-0.1
		c-0.3-0.1-0.6-0.1-0.7,0.2c-1.4,2.6-3.7,3.7-6.6,3.4c-0.4,0-0.6,0.4-0.5,0.7c-0.1,0.3,0,0.8,0.5,0.8h0.4c0.3,0,0.4-0.2,0.5-0.4
		c2,0,3.7-0.6,5.1-1.9c0.2,0.3,0.5,0.4,0.8,0.1c0.5-0.6,1.6-1.7,1.1-2.5c0.1,0,0.3,0,0.4-0.1C48.6,67.7,49.8,64.8,49.3,61.9z"/>
</g>
<g>
	<g>
		<g>
			<path class="st8" d="M63.6,38.6c-0.1,8.6-0.2,17.2-0.3,25.9c0,1.5,2.4,1.5,2.4,0c0.1-8.6,0.2-17.2,0.3-25.9
				C66,37,63.6,37,63.6,38.6L63.6,38.6z"/>
		</g>
	</g>
	<g>
		<g>
			<path class="st8" d="M64.7,65.6c1.5,0,1.5-2.4,0-2.4C63.2,63.2,63.2,65.6,64.7,65.6L64.7,65.6z"/>
		</g>
	</g>
	<g>
		<g>
			<path class="st8" d="M63.8,37.2c-0.1,6.6-0.2,13.1,0.3,19.6c0.3,3.5,0.8,7-0.3,10.3c-0.8,2.6-2,4.4-2.1,7.1c-0.2,2.6,3.8,2.6,4,0
				c0.2-3.1,2.2-6,2.7-9c0.4-2.5,0-5.2-0.2-7.8c-0.4-6.8-0.5-13.4-0.4-20.3C67.8,34.6,63.8,34.6,63.8,37.2L63.8,37.2z"/>
		</g>
	</g>
	<g>
		<g>
			<path class="st8" d="M64.4,76.6c0-0.8,0-1.5,0-2.3c0-1.5-2.4-1.5-2.4,0c0,0.8,0,1.5,0,2.3C62,78.1,64.4,78.1,64.4,76.6L64.4,76.6
				z"/>
		</g>
	</g>
	<g>
		<g>
			<path class="st8" d="M65.3,76.3c0.6-7.8,3.6-15.3,4.5-23c0.5-4.1,0.5-8.5,0.5-12.7c0-2.3,0-4.4-2.3-5.5c-0.7-0.3-1.5-0.1-1.8,0.7
				c-0.8,2.2-0.2,4.6-0.2,6.9c0,3.4-0.6,6.7-1,10c-0.2,1.5,2.2,1.5,2.4,0c0.4-2.8,0.9-5.5,1-8.3c0.1-2.5-0.8-5.6,0.1-8
				c-0.6,0.2-1.2,0.5-1.8,0.7c2.5,1.1,1,8.5,0.8,10.8c-0.2,4-0.9,7.4-1.5,11.3c-1,5.7-2.7,11.3-3.2,17.1
				C62.8,77.9,65.2,77.9,65.3,76.3L65.3,76.3z"/>
		</g>
	</g>
	<g>
		<g>
			<path class="st8" d="M66.2,33.7c-5.3,0.3-4.7,6.8-4.6,10.4c0.2,7.7,1.1,15.5,0.9,23.2c0,1.5,2.4,1.5,2.4,0
				c0.1-3.6-3.4-31,1.3-31.3C67.8,36,67.8,33.6,66.2,33.7L66.2,33.7z"/>
		</g>
	</g>
	<g>
		<g>
			<path class="st8" d="M66.2,35.8c7.3,4.1,3.3,14.6,2.2,21c-0.7,3.8-1.8,7.2-3,10.8c-0.9,2.7-1,6-3.1,8.1c-1.1,1.1,0.6,2.8,1.7,1.7
				c2.1-2.1,2.4-4.8,3.2-7.6c1.5-4.9,2.9-9.5,3.9-14.5c1.5-7.7,4.5-16.9-3.7-21.6C66.1,33,64.9,35.1,66.2,35.8L66.2,35.8z"/>
		</g>
	</g>
	<g>
		<g>
			<path class="st8" d="M61.1,36.8c-0.4,2.9-1,5.1-1,8.1c0,3.5-0.2,7.2,0.1,10.7c0.2,2.9,0.1,5.8,0.5,8.7c0.4,3,0,6.6,1.3,9.4
				c0.7,1.4,2.7,0.2,2.1-1.2c-1.2-2.5-0.9-6.9-1.2-9.6c-0.3-3.2-0.3-6.5-0.4-9.7c-0.2-5.6,0.3-11,1-16.4
				C63.7,35.3,61.3,35.3,61.1,36.8L61.1,36.8z"/>
		</g>
	</g>
	<g>
		<g>
			<path class="st8" d="M61.1,73.3c0,0.1,0,0.2,0,0.3c0,1.5,2.4,1.5,2.4,0c0-0.1,0-0.2,0-0.3C63.5,71.8,61.1,71.8,61.1,73.3
				L61.1,73.3z"/>
		</g>
	</g>
	<path class="st2" d="M74.8,21.9c-1.9-2.2-4.3-0.6-5.6,0.8c-1.1,1.2-2,2.5-2.6,4.1c-0.2-1.2-0.6-2.5-1.1-3.7
		c-0.7-1.7-2.2-6.3-4.2-6.2c-1.7,0.1-1.8,2.9-1.6,4.4c0.6,4.2,3.7,7.5,5.1,11.4c-2.8,0.7-4.6,3.4-5.3,6.6
		c-1.1,4.8-0.4,10.6-0.2,15.8c0.3,6.5,0.8,13,1.4,19.5c0,0.2,0.1,0.3,0.2,0.5c0.4,2.1,1.4,4.3,3.5,3.6c1.3-0.5,1.8-2.2,2.3-3.5
		c1-2.4,1.8-4.9,2.6-7.5c1.5-5,2.7-10.1,3.5-15.4c0.6-4.1,2.1-10,0.5-14.4c-1-2.7-3.1-4.6-5.4-5.2c0,0,0,0,0,0c0-0.3,0-0.6,0.1-0.8
		c2.3-0.6,4.4-2,5.9-4.1C75,26.6,76.6,24,74.8,21.9z M69.8,35.3c3,2.3,3.2,6.1,2.8,9.7c-3.4-1.6-7.8-4.2-10.6-1.3
		c-0.5,0.5,0.4,1.6,0.9,1.1c2.4-2.5,6.6,0.2,9.6,1.6c-0.1,1-0.3,2-0.4,2.9c-0.2,1.7-0.5,3.3-0.8,5c-2.5-1.7-5.4-3.1-7.7-1.1
		c-0.6,0.5,0.3,1.6,0.9,1.1c1.9-1.7,4.5,0,6.6,1.3c-0.2,1.3-0.5,2.6-0.8,3.8c-0.3,1.5-0.7,3.1-1.1,4.6c-1.9-2-4.7-2.2-6.3-0.3
		c-0.5,0.6,0.4,1.7,0.9,1.1c1.1-1.4,3.2-1.4,4.7,0.2c0.1,0.1,0.3,0.2,0.4,0.2c-0.4,1.5-0.8,2.9-1.3,4.4c-0.6,1.7-1.2,3.4-1.8,5.1
		c-0.2,0.5-0.4,1.6-0.8,1.9c-2.8,2.4-2.9-1.7-3-3c0-0.2-0.1-0.3-0.1-0.4c-0.6-7.2-1.1-14.4-1.4-21.5c-0.1-3.5-0.4-7.2,0.1-10.6
		C61.4,36.2,65.2,31.8,69.8,35.3z"/>
</g>
<g>
	<path class="st2" d="M133.1,67.1c-0.3,0-0.3,0.5,0,0.5C133.4,67.6,133.4,67.1,133.1,67.1z"/>
	<path class="st2" d="M133.7,69c-0.3,0-0.3,0.5,0,0.5C134,69.5,134,69,133.7,69z"/>
	<path class="st2" d="M135.3,70.6c-0.3,0-0.3,0.5,0,0.5C135.6,71.1,135.6,70.6,135.3,70.6z"/>
	<path class="st2" d="M137.1,72.2c-0.3,0-0.3,0.5,0,0.5C137.4,72.7,137.4,72.2,137.1,72.2z"/>
	<path class="st2" d="M138.4,70.7c-0.3,0-0.3,0.5,0,0.5C138.7,71.3,138.7,70.7,138.4,70.7z"/>
	<path class="st2" d="M140,68.2c-0.3,0-0.3,0.5,0,0.5C140.2,68.7,140.2,68.2,140,68.2z"/>
	<path class="st2" d="M141.1,65.5c-0.3,0-0.3,0.5,0,0.5C141.4,66,141.4,65.5,141.1,65.5z"/>
	<path class="st2" d="M141.7,63.6c-0.3,0-0.3,0.5,0,0.5C142,64.1,142,63.6,141.7,63.6z"/>
	<path class="st2" d="M140.7,61.4c-0.3,0-0.3,0.5,0,0.5C141,61.9,141,61.4,140.7,61.4z"/>
	<path class="st2" d="M140,64.7c-0.3,0-0.3,0.5,0,0.5C140.2,65.2,140.2,64.7,140,64.7z"/>
	<path class="st2" d="M139.5,67.1c-0.3,0-0.3,0.5,0,0.5C139.8,67.6,139.8,67.1,139.5,67.1z"/>
	<path class="st2" d="M137.8,68.8c-0.3,0-0.3,0.5,0,0.5C138.1,69.4,138.1,68.8,137.8,68.8z"/>
	<path class="st2" d="M136.7,70.7c-0.3,0-0.3,0.5,0,0.5C137,71.3,137,70.7,136.7,70.7z"/>
	<path class="st2" d="M135.7,68.8c-0.3,0-0.3,0.5,0,0.5C136,69.4,136,68.8,135.7,68.8z"/>
	<path class="st2" d="M134.6,67.7c-0.3,0-0.3,0.5,0,0.5C134.8,68.3,134.8,67.7,134.6,67.7z"/>
	<path class="st2" d="M136.1,66.8c-0.3,0-0.3,0.5,0,0.5C136.4,67.3,136.4,66.8,136.1,66.8z"/>
	<path class="st2" d="M138,66.9c-0.3,0-0.3,0.5,0,0.5C138.3,67.5,138.3,66.9,138,66.9z"/>
	<path class="st2" d="M138.4,64.4c-0.3,0-0.3,0.5,0,0.5C138.7,64.9,138.7,64.4,138.4,64.4z"/>
	<path class="st2" d="M138.4,63c-0.3,0-0.3,0.5,0,0.5C138.7,63.5,138.7,63,138.4,63z"/>
	<path class="st2" d="M136.3,62.7c-0.3,0-0.3,0.5,0,0.5C136.6,63.2,136.6,62.7,136.3,62.7z"/>
	<path class="st2" d="M136.8,65.4c-0.3,0-0.3,0.5,0,0.5C137.1,65.9,137.1,65.4,136.8,65.4z"/>
	<path class="st2" d="M135.1,63.8c-0.3,0-0.3,0.5,0,0.5C135.4,64.3,135.4,63.8,135.1,63.8z"/>
	<path class="st2" d="M134.8,66.2c-0.3,0-0.3,0.5,0,0.5C135.1,66.7,135.1,66.2,134.8,66.2z"/>
	<path class="st2" d="M133.4,65c-0.3,0-0.3,0.5,0,0.5C133.7,65.6,133.7,65,133.4,65z"/>
	<path class="st2" d="M132.3,65c-0.3,0-0.3,0.5,0,0.5C132.6,65.6,132.6,65,132.3,65z"/>
	<path class="st2" d="M133,63c-0.3,0-0.3,0.5,0,0.5C133.3,63.5,133.3,63,133,63z"/>
	<path class="st2" d="M142.6,61.1c-1.1-2-3.3-2.4-5.1-1.7c0.1-0.3,0.2-0.6,0.3-0.9c0.1-0.2-0.1-0.3-0.2-0.3c-0.1,0-0.3,0-0.5,0
		c-0.1-0.2-0.4-0.3-0.7,0c-0.1,0-0.1,0.1-0.1,0.1c-0.1,0.1-0.3,0.2-0.3,0.4c-0.1,0.4,0.1,0.9,0.1,1.2c0,0,0,0.1,0,0.1
		c0,0,0-0.1-0.1-0.1c-0.2-0.3-0.4-0.5-0.7-0.7c-0.1-0.1-0.3,0-0.3,0.2c-0.4-0.2-0.8-0.2-1.2-0.3c-0.2,0-0.4-0.1-0.6-0.1
		c-0.2,0-0.3,0.3-0.2,0.4c0.2,0.2,0.5,0.4,0.7,0.6c-1.1,0-1.9,1-2.3,2.1c-0.5,1.6-0.7,3.5-0.2,5.1c0.5,1.6,1.5,3,2.5,4.2
		c0.6,0.8,1.5,1.5,2.4,1.7c-0.1,0.1-0.2,0.2-0.3,0.2c-0.2,0.2,0,0.5,0.2,0.4c0.7-0.1,1.4-0.3,2.1-0.4c0.3-0.1,0.2-0.6-0.1-0.5
		c0,0,0,0,0,0c0.8-0.5,1.4-1.4,2-2.2c1-1.6,1.8-3.4,2.4-5.2C143,64.2,143.3,62.5,142.6,61.1z M142.4,64.1c-0.3,1.7-1,3.3-1.8,4.8
		c-0.8,1.5-1.9,3.7-3.5,4c0,0,0,0,0,0c-0.1-0.1-0.2-0.2-0.3,0c0,0,0,0-0.1,0.1c-1.6-0.1-2.8-2-3.7-3.3c-1.1-1.6-1.6-3.3-1.4-5.3
		c0.1-1.1,0.5-2.4,1.2-3.1c0,0.1,0,0.3,0.1,0.3c-0.2,0.2,0,0.6,0.2,0.4c0.1-0.1,0.2-0.1,0.3-0.2c0.6-0.3,1.1-0.4,1.7-0.3
		c-0.6,0.3-1.1,0.7-1.5,1.3c-0.1,0.1,0,0.2,0,0.3c-0.1,0-0.1,0.1-0.2,0.2c-0.2,0.2,0.1,0.5,0.3,0.4c0.4-0.2,2-1.1,2.8-1
		c0,0.4,0.4,0.7,0.8,0.6c0.1,0,0.2-0.2,0.2-0.3c0-0.1-0.1-0.2-0.1-0.3c0.2-0.1,0.3-0.3,0.5-0.4c0.1,0,0.3,0,0.4,0
		c0.5,0.1,1.1,0.3,1.6,0.6c0.2,0.1,0.5-0.2,0.3-0.4c0,0-0.1-0.1-0.1-0.1c0-0.1,0-0.3-0.2-0.3c-0.1,0-0.2-0.1-0.3-0.1
		c-0.5-0.4-1.1-0.6-1.8-0.6c0.2-0.2,0.6-0.4,1-0.6c0.4-0.2,0.8-0.3,1.3-0.3c0.1,0,0.2-0.1,0.2-0.2C141.8,60.5,142.8,62,142.4,64.1z"
		/>
	<path class="st2" d="M136.8,64.3c-0.3,0-0.3,0.5,0,0.5C137.1,64.8,137.1,64.3,136.8,64.3z"/>
	<path class="st2" d="M139,68.8c-0.3,0-0.3,0.5,0,0.5C139.3,69.4,139.3,68.8,139,68.8z"/>
	<path class="st2" d="M140.5,63.2c-0.3,0-0.3,0.5,0,0.5C140.8,63.7,140.8,63.2,140.5,63.2z"/>
	<path class="st2" d="M141.8,61.6c-0.3,0-0.3,0.5,0,0.5C142.1,62.1,142.1,61.6,141.8,61.6z"/>
	<path class="st2" d="M139.5,60.6c-0.3,0-0.3,0.5,0,0.5C139.8,61.1,139.8,60.6,139.5,60.6z"/>
</g>
<path class="st2" d="M132,61.5c-0.6,0-0.6,1,0,1C132.7,62.5,132.7,61.5,132,61.5z"/>
<g>
	<g>
		<path class="st2" d="M96.3,45.1C96.3,45.1,96.3,45.1,96.3,45.1C96.3,45.2,96.3,45.1,96.3,45.1z"/>
		<path class="st2" d="M104,37.8c0-1.4-1-2.8-2.2-3.4c-1.2-0.6-2.5,0-3.4,0.9c0,0,0,0.1-0.1,0.1c-0.2-1-0.2-2.1-0.1-3.2
			c0-0.3-0.4-0.3-0.5,0c-0.1,1.2-0.1,2.5,0.2,3.7c0,0,0,0,0,0.1c-0.1,0.3-0.1,0.6-0.1,1c-0.1,0.1-0.2,0.1-0.2,0.2
			c-0.1-0.5-0.2-1-0.4-1.5c-0.4-0.7-1.1-1.2-1.4-1.9c-0.1-0.3-0.5,0-0.4,0.2c0.3,0.6,0.8,0.9,1.2,1.5c0.4,0.5,0.6,1.1,0.6,1.7
			c-0.9-0.4-1.8-0.6-2.8-0.8c-0.3,0-0.4,0.4-0.1,0.4c0.7,0.1,1.3,0.3,2,0.5c-0.5,0-1,0.1-1.5,0.4c-0.4,0.3-0.8,0.6-1.1,1
			c0-0.5-0.1-1.2,0-1.7c0.1-0.8,0.5-0.9,0.8-1.5c0.1-0.2,0.2-0.5,0.2-0.7c0-0.6-0.2-0.6,0.4-1.1c0.6-0.6,0.5-0.2,1.2-0.2
			c0.3,0,0.5-0.1,0.7-0.2c0.2-0.2,0.3-0.3,0.4-0.5c0.6-0.7,1.3-1.3,2.1-0.4c0.2,0.2,0.5-0.1,0.3-0.3c-0.5-0.6-1.3-0.8-2-0.4
			c-0.4,0.2-0.5,0.6-0.8,0.9c-0.9,1-1.1,0.2-2,0.3c-1.2,0.2-0.5,1.4-0.7,2.2c-0.1,0.5-0.7,0.9-0.8,1.4c-0.3,0.7-0.1,1.7,0,2.4
			c0,0.2,0.1,0.2,0.2,0.2c-0.8,1.2-1,2.7-0.2,4.1c0,0.1,0,0.2,0,0.2c0,0.3,0,0.6,0.1,0.9c0,0-0.1-0.1-0.1-0.1c-0.9-0.2-3-1-3.5,0.2
			c-0.1,0.2-0.1,0.4-0.1,0.6c-0.2,0.4-0.4,0.6-0.6,0.7c-0.3,0.1-0.7,0.2-1,0.3c-0.1,0-0.2,0-0.3,0c-1.1,0.2-2.2,0.2-3.3,0.2
			c-0.3,0-0.3,0.5,0,0.5c0,0,0.1,0,0.1,0c0,0.1,0.1,0.1,0.3,0.1c0.6-0.1,1.2,2.2,1.4,3.9c0,0.2,0,0.3,0.1,0.5c0.1,0.5,0.1,1,0.2,1.1
			c0,0.2,0.4,0.3,0.5,0.1c0.1-0.3,0.6-0.7,0.9-0.7c0.4-0.2,0.7,0,1,0.6c-0.1,0.1-0.1,0.2-0.2,0.3l-0.3,0.2c-0.3,0.3-0.6,0.5-0.9,0.9
			c-0.4,0.6-0.6,1.4-0.3,2c0.3,0.7,1,0.9,1.7,1c0.6,0.1,1.3-0.2,1.9-0.1c0.3,0,0.5,0,0.7,0.2c0,0.1-0.1,0.2-0.1,0.3
			c0,0.3-0.3,0.7-0.4,1c-0.1,0.2,0.1,0.3,0.3,0.3c0.6-0.1,1.2-0.3,1.8-0.4c0.7-0.1,1.4-0.3,2,0.2c0.5,0.3,0.8,0.9,0.7,1.5
			c-0.2,0.7-0.9,1.1-1.1,1.8c-0.5,1.6,1.4,1.9,2.4,2.3c0.3,0.1,0.5-0.2,0.2-0.4c-0.8-0.5-1.2-1.6-0.4-2.5c0.2-0.2,0.5-0.3,0.8-0.5
			c0.3-0.2,0.6-0.3,0.7-0.7c0.3-0.6,0-1.3-0.4-1.8c0.2-0.6,0.6-1.2,1.1-1.5c0.3-0.1,0-0.5-0.2-0.4c-0.6,0.3-1.1,0.9-1.3,1.5
			c0,0-0.1,0-0.1-0.1c0-0.1,0.1-0.1,0-0.2c-0.7-1.5-0.9-3.1-0.7-4.7c0-0.3-0.4-0.3-0.5,0c-0.2,1.6,0.1,3.2,0.7,4.7
			c-1.1-0.5-2.4-0.4-3.6-0.1c0.1-0.2,0-0.4-0.2-0.4c-1,0.3-0.4-1-0.3-1.5c0.1-0.3,0.1-0.7,0.1-1.1c0,0,0-0.1,0-0.1
			c0.4-0.4,0.9-0.8,1.3-1.2c-0.1,0.4-0.2,0.8-0.1,1.2c0.1,0.9,0.6,1.8,1,2.6c0.1,0.3,0.6,0,0.4-0.2c-0.4-0.7-0.8-1.3-0.9-2.1
			c-0.1-0.7,0-1.4,0.3-2c0.1-0.1,0.2-0.1,0.2-0.2c0.3-0.2,0.4-0.5,0.5-0.8c0.1,0.2,0.2,0.4,0.5,0.4c0.2,0,0.3-0.1,0.5,0
			c0,0,0.1,0.3,0.2,0.4c0.5,0.6,1.9,0.7,2.6,0.5c0.1,0,0.1-0.1,0.2-0.2c0.7,0.2,1.8-0.1,2.1-0.8c0.4-0.8,0-2.1-0.9-2.4c0,0,0,0,0,0
			c0.1-0.5,0.1-1-0.2-1.4c0.7-0.7,1.5-2.5,1-3.5c0.9-0.2,1.6-0.9,1.6-1.8c0-0.8-0.5-1.5-1.3-1.7C102.6,40.2,104,39.4,104,37.8z
			 M95.2,57.3c0.8,0.1,2,0.4,2.3,1.2c0.3,0.3,0.3,0.6-0.1,0.9c0,0.4-0.1,0.6-0.4,0.7c-0.1,0.1-0.3,0.2-0.5,0.3
			c-0.9,0.7-1,1.8-0.5,2.6c-0.2-0.1-0.4-0.1-0.6-0.2c-0.9-0.5-0.6-1.4-0.1-2c0.4-0.5,0.9-1.1,0.7-1.9c-0.2-1.1-1.1-1.5-2.2-1.5
			C94.3,57.3,94.7,57.3,95.2,57.3z M97.7,37.9c0-0.2,0.1-0.4,0.3-0.5c0.2,0.6,0.6,1.1,0.9,1.7c0,0,0.1,0.1,0.1,0.1
			c-0.3,0-0.6,0-0.9,0.1c0-0.5-0.2-0.9-0.5-1.3C97.7,38,97.7,38,97.7,37.9z M93.8,43.1C93.7,43,93.7,43,93.8,43.1
			c0-0.2,0.1-0.3,0.1-0.4c0.5-0.9,1.6-2,2.6-1.4c0,0.4,0.1,0.9,0.1,1.3c0,0.2,0.1,0.4,0.2,0.5c-0.4,0.4-0.7,0.9-0.7,1.5
			c-0.4-0.1-0.5-0.3-0.9-0.2c-0.4,0.1-0.6,0.5-0.8,0.9c-0.1,0.2-0.2,0.3-0.3,0.5c-0.2-0.7-0.5-1.6-0.5-2.4
			C93.8,43.3,93.8,43.2,93.8,43.1z M97.1,43.4c0.4,0.4,1,0.6,1.6,0.7c0,0,0.1,0,0.1,0c0.1,0.2,0.1,0.3,0.2,0.4
			c-0.1,0.1-0.1,0.1-0.1,0.2c-0.3,0.4-0.4,0.9-0.5,1.4c-0.3-0.5-0.6-1-1-1.2c-0.2-0.2-0.5-0.2-0.8-0.2
			C96.6,44.2,96.8,43.7,97.1,43.4z M98.8,42c-0.1,0.3-0.2,1-0.1,1.6c-0.5-0.1-1.1-0.2-1.4-0.7c0,0,0,0,0,0c0,0,0,0,0,0
			c-0.3-0.5-0.4-1.8-0.1-2.3c0.1-0.2,0.4-0.5,0.7-0.6c0.1,0.1,0.3,0.1,0.4-0.1c0,0,0-0.1,0-0.1c1.1-0.4,2.6-0.1,2.7,1
			C100,40.9,99.1,41.3,98.8,42z M94,39c0.3-0.4,0.7-0.8,1.2-1c1.2-0.5,2.5,0.2,2.5,1.5c-0.3,0.1-0.5,0.2-0.7,0.4
			c-0.3,0.2-0.4,0.6-0.5,0.9c-1-0.5-2,0.2-2.6,1c-0.2,0.2-0.3,0.4-0.5,0.7C93,41.3,93.2,39.9,94,39z M92.6,57.2
			c-0.4,0.1-0.8,0.3-1.2,0.4c0.3-0.7,0.6-1.4-0.3-1.6c-0.2,0-0.3-0.1-0.5-0.1c0,0,0-0.1,0-0.1c0.3-0.2,0.7-0.5,1-0.8
			c0.2-0.2,0.3-0.3,0.5-0.5c0,0.6-0.5,1.8-0.4,2.1C91.8,57,92.2,57.2,92.6,57.2z M95.2,50.6c-0.7-0.4-1-0.9-1.1-1.7c0,0,0-0.7,0-0.8
			c-0.1-0.5-0.4-0.9-0.1-1.5c0.2-0.3,0.4-0.5,0.6-0.8c0.3-0.4,0.5-1.1,1.2-1.1c-0.1,0,0.5,0.2,0.5,0.3c0.5,0.2,0.3-0.3,1,0.2
			c0.4,0.3,0.7,1,1,1.4c0,0.1,0.1,0.1,0.1,0.1c0,0.2,0.1,0.3,0.1,0.5c-0.3,0.1-0.6,0.4-0.8,0.9c-0.1,0.4-0.1,0.7-0.1,1
			c-0.1,0-0.1,0-0.2,0c-0.5,0.1-1,0-1.5,0.3C95.6,49.9,95.3,50.2,95.2,50.6z M98.4,49.6c-0.1-0.1-0.2-0.1-0.2-0.1
			c-0.1-0.4,0-0.8,0.2-1.1c0.7-0.9,1.6-0.3,1.6,0.6c0,0.9-0.7,0.9-1.2,1.4c-0.1-0.1-0.3-0.2-0.4-0.4C98.4,49.9,98.5,49.7,98.4,49.6z
			 M97.6,52.3c-0.5-0.1-0.7-0.1-0.9-0.6c-0.1-0.2-0.1-0.3-0.4-0.4c-0.3-0.1-0.5,0.2-0.7-0.3c-0.1-0.4,0.4-0.9,0.7-0.9
			c0.3-0.1,0.5,0,0.8,0c0.2,0,0.5-0.2,0.7-0.2c0.1,0.3,0.3,0.6,0.6,0.8c-0.3,0.5-0.2,1.2,0.3,1.6C98.4,52.4,98,52.4,97.6,52.3z
			 M100.2,49.8C100.2,49.8,100.2,49.8,100.2,49.8c1,0.3,0.8,1.8,0.1,2.2c-0.3,0.1-0.6,0.1-1,0.1c-0.7-0.9-0.7-1.4,0.2-1.7
			C99.8,50.3,100,50.1,100.2,49.8z M99.9,47.7C99.8,47.7,99.8,47.6,99.9,47.7c-0.4-0.2-0.6-0.3-0.9-0.3c-0.2-0.6-0.3-1.3-0.1-1.9
			c0.2-0.7,1.6-1.9,1.9-0.5C101,45.8,100.5,47.1,99.9,47.7z M101,44.1c-0.1,0-0.1,0-0.1,0.1c-0.1-0.1-0.1-0.1-0.2-0.1
			c-0.4-0.2-0.9-0.1-1.3,0.2c-0.5-0.2-0.1-2.1,0.1-2.3c0.4-0.5,1.2-0.7,1.8-0.5C102.9,41.7,102.4,43.8,101,44.1z M101.3,40.5
			c-0.2-0.9-1.1-1.3-2-1.3c0.1-0.1,0.2-0.2,0.1-0.3c-0.7-1.1-1.7-2.2-0.4-3.5c1-0.9,2.3-1,3.4-0.1c0.8,0.7,1.4,2,1.1,3.1
			C103.2,39.4,102.1,40,101.3,40.5z"/>
	</g>
	<path class="st2" d="M131,49.9c-0.4-0.8-0.7-1.7-1.5-2.3c-0.3-0.2-0.6-0.4-1-0.5c-1.2-0.9-1-2.7,0.5-3.3c0.2-0.1,0.1-0.4-0.1-0.4
		c-0.8-0.2-1.5-0.6-2.1-1.1c-0.2-0.1-0.4,0-0.4,0.2c0,0.3-0.1,0.6-0.2,0.9c-0.4,0.3-0.7,0.2-0.9-0.2c-0.3-0.3-0.4-0.9-0.5-1.2
		c-0.3-1.1-0.1-2.2,0.4-3.2c0.1-0.2-0.1-0.4-0.3-0.3c-1,0.5-1,1.4-0.8,2.3c-0.2-0.2-0.3-0.5-0.4-0.8c-0.1-0.5,0-0.9-0.2-1.3
		c-0.4-0.8-1.1-1.3-2-1.5c-0.1,0-0.1,0-0.2,0c0.1-0.9,0.4-1.7-0.5-2.4c0.1-0.6-0.2-1.4-0.7-1.7c-0.3-0.2-0.5-0.1-0.8-0.2
		c-0.6-0.1-0.8-0.5-1.1-0.9c-0.4-0.6-1.1-0.7-1.8-0.6c0-0.3-0.1-0.5-0.4-0.8c-0.2-0.1-0.4-0.2-0.6-0.3c-0.2-0.1-0.3,0-0.6-0.1
		c-0.3-0.2-0.2-0.2-0.4-0.4c-0.2-0.1-0.3-0.2-0.4-0.3c0.1,0,0.2-0.1,0.3-0.1c0.1,0,0.1-0.1,0.1-0.1c0.1,0,0.1,0,0.2,0
		c0.3-0.1,0.2-0.5-0.1-0.4c-0.2,0-0.4,0.1-0.6,0.1c-0.8-0.2-1.6-0.1-2.3-0.4c-0.7-0.3-1.3-0.4-2.1-0.4c0-0.1,0.1-0.1,0.1-0.2
		c0.1-0.5-0.2-0.7-0.6-1c-0.3-0.2-1.1-0.8-1.6-0.6c-0.8,0.3,0,1.1-1.2,1.1c-0.2,0-0.5-0.2-0.7-0.2c-0.2,0-0.4,0.1-0.6,0.2
		c-0.7,0.3-0.8,0.6-1.8,0.6c-0.4,0-0.5-0.1-0.8,0c-1,0.2-2.2,1.5-1.9,2.6c0,0.1,0.2,0.2,0.3,0.2c0,0,0,0,0.1,0c-0.2,0-0.5,0-0.7,0
		c-0.5,0.2-0.5,0.6-0.8,1c-0.1,0.2-0.3,0.3-0.4,0.4c0,0,0-0.1-0.1-0.1c-0.1-0.1-0.3-0.2-0.5-0.2c-0.1-0.2-0.2-0.3-0.4-0.2
		c-0.4,0-0.6,0.1-0.9,0.4c-0.1,0.1-0.1,0.1-0.1,0.2c-0.3,0.3-0.6,0.8-0.8,1.1c-0.5,0-1.1,0.1-1.4,0c-0.2,0-0.3,0.1-0.4,0.2
		c0,0,0,0,0,0c-0.4,0-0.5,0.4-0.4,0.7c-0.1,0.9-0.6,1.8-0.8,2.7c-0.5,0.5-0.8,1.2-0.7,1.9c0,0.5,0.8,0.6,0.9,0.1c0,0,0.1,0,0.1-0.1
		c0.3-0.3,0.6-0.7,0.9-1c0.4-0.2,0.8-0.3,1.3-0.3c0.2,0,0.4-0.1,0.4-0.3c0.3,0.1,0.6,0.3,0.9,0.2c0.2,0,0.3-0.2,0.3-0.3
		c0.1-0.4,0.2-0.7,0.3-1c0.1-0.2,0.2-0.3,0.3-0.5c0.1-0.1,0.2-0.3,0.4-0.4c0.1-0.1,0.1-0.1,0.1-0.2c0.1,0,0.2-0.1,0.2-0.3
		c-0.1-0.4-0.1-0.7-0.2-1.1c0-0.7,0.3-1.2,1-1.4c0.1-0.1,0.2-0.2,0.3-0.3c0.1-0.1,0-0.3,0.1-0.4c1-1.3,1.1-0.2,1.9-0.4
		c0.4-0.1,0.5-0.5,0.8-0.8c0.8-0.8,1.4-0.1,2.2,0c0.6,0.1,1.7,0.1,1.9,0.9c-0.1,0-0.3,0.1-0.4,0.2c0,0-0.1,0.1-0.1,0.1
		c-1,0.2-1.8,1.2-1.7,2.3c0,0.7,0.6,1.4,1.3,1.9c0,0,0,0.1,0,0.1c-0.3,1.1-1.4,1.5-2.4,1.5c-0.3,0-0.3,0.5,0,0.5
		c0.6,0,1.3-0.1,1.8-0.4c-0.3,0.6-0.4,1.2-0.3,1.8c0,0,0,0,0,0H103c-0.3,0-0.3,0.5,0,0.5h2.2c0,0,0,0,0,0c0,0,0,0,0.1,0
		c0.7,0.1,1.5,0.1,2.2,0c0,0,0,0.1,0.1,0.1c1.3,1.1,0.6,3.8-0.5,4.8c-0.5,0.5-1.3,0.8-2,0.9c-1,0-2.6-0.5-2.8-1.7
		c0-0.3-0.5-0.3-0.5,0c0.1,0.9,0.7,1.4,1.4,1.8c0,0,0,0.1,0,0.1c0.1,0.2,0.1,0.4,0,0.7c-0.1,0.1-0.1,0.1-0.1,0.2
		c-0.4,1-1.8,1.6-2.7,0.8c-0.2-0.2-0.6,0.1-0.3,0.3c0.4,0.3,0.9,0.5,1.3,0.5c0,0-0.1,0.1-0.1,0.1c-0.1,0.5,0,0.8,0.1,1.3
		c0.1,0.6,0.1,0.8-0.1,1.4c-0.1,0.1-0.2,0.2-0.2,0.4c-0.1,0.2-0.2,0.5-0.2,0.7c-0.2-0.2-0.6-0.2-0.9,0.1c-0.2,0.2-0.5,0.3-0.7,0.4
		c-0.8,0.2-1.9,0.2-1.9,0.2c-0.1,0-0.3,0-0.4,0c-0.3-0.2-0.5-0.5-0.8-0.9c-0.1-0.2-0.3-0.1-0.4,0c-0.4-0.3-0.8-0.5-1.3-0.5
		c-0.6,0.1-0.9,0.4-0.9,0.8c-0.2,0-0.4,0.1-0.6,0.3c0,0,0,0,0,0c-0.5-0.5-1.7-0.2-1.6,0.7c0,0.4,0.1,0.8,0.1,1.3
		c-0.3-0.1-0.6-0.1-0.9-0.1c-1.2,0.1-1.2,1.9,0,1.9c0.1,0.1,0.3,0.1,0.4,0.2c0.1,0.2,0.2,0.3,0.3,0.4c-0.2,0.3-0.3,0.5-0.4,0.8
		c-0.1,0.2,0.2,0.4,0.3,0.3c0.4-0.2,0.8-0.5,1.1-0.6c0.5-0.2,0.9,0.1,1.3,0.3c0.1,0.1,0.2,0,0.3-0.1c0.4,0.2,0.8,0.4,1.2,0.5
		c0,0.1,0,0.1,0.1,0.2c0.1,0.1,0.2,0.1,0.2,0.2c-0.2,0-0.3,0.2-0.1,0.4c0.1,0.1,0.2,0.2,0.3,0.3c-0.1,0.3-0.2,0.6-0.3,0.8
		c-0.1,0-0.1,0-0.2,0.1c-0.1,0.2-0.2,0.3-0.2,0.4c-0.1-0.1-0.2,0-0.3,0.1c-0.6,1-0.6,2.5,0.8,2.6c0.2,0,0.3-0.2,0.2-0.4
		c-0.2-0.4-0.3-0.9-0.2-1.3c0.1,0,0.2,0,0.2,0c0.3-0.3,0.5-0.7,0.6-1.1c0.1,0,0.2,0.1,0.2,0c0.4-0.2,0.8-0.3,0.9-0.7c0,0,0,0,0,0
		c0.1-0.1,0.1-0.1,0.1-0.3c-0.1-0.5-0.3-0.8-0.5-1.2c0,0,0,0,0,0c0.4-0.5,0.8-0.9,1.2-1.4c0.6,1,1.2,2,2.2,2.3
		c0.5,0.2,1.2,0.3,1.9,0.4c0.3,0.2,0.7,0.4,1.1,0.5c0.5,0.1,1,0,1.6,0c0.2,0,0.3,0,0.5,0c0.2,0,0.4,0.1,0.6,0.2
		c0.1,0.1,0.3,0,0.3-0.1c0.4-0.1,0.9-0.3,1.2-0.6c0,0,0,0,0,0c0.2,0.1,0.5,0.2,0.8,0.2c0,0.1,0.1,0.1,0.1,0.1
		c2.1,0.6,4.2,0.3,6.3-0.3c1.5-0.5,2.9-1.1,3.7-2.5c0,0,0.1-0.1,0.1-0.1c0.5,0.7,0.8,1.4,1,2.3c0,0.2,0.3,0.2,0.4,0.1
		c0.4-0.4,0.7-0.8,1.2-1.1c0.1,0.1,0.3,0,0.3-0.1c0,0,0,0,0,0c0.1-0.1,0.3-0.1,0.4-0.2c0.1,0,0.3,0,0.4-0.1c0,0,0,0,0.1,0.1
		c0.7,0.6,1.4,0.8,2.3,0.8c0.9,0,1.5,0.3,2.2,0.8c0.2,0.2,0.4,0.3,0.7,0.3c0.1,0,0.2-0.1,0.2-0.1c0.3-0.5,0.4-1.3,0.6-1.9
		c0.1-0.5,0.2-0.9,0.2-1.3c0.1-0.1,0.2-0.2,0.2-0.3c0.1-0.3-0.2-0.7-0.4-0.9c-0.5-0.8-1.2-1.5-0.8-2.5c0.6-0.1,1.1-0.1,1.7-0.2
		c0.5-0.1,1.7-0.2,1.9-0.8C131.8,51.1,131.2,50.3,131,49.9z M121.5,37.5C121.5,37.5,121.5,37.5,121.5,37.5c1.1,0.2,1.9,1,1.9,2.1
		c0,0.6,0,0.8,0.3,1.3c0.4,0.7,0.7,0.9,0.6,1.6c-0.1,0.1-0.1,0.1-0.1,0.2c0,0,0,0,0,0.1c0,0,0,0.1,0,0.1c0,0.1,0,0.1-0.1,0.2
		c0,0,0,0.1-0.1,0.1c0,0,0,0.1,0,0.1c-0.1,0.3-0.3,0.5-0.5,0.7c-0.3,0.4-0.6,1.1-1,1.5c-0.1-0.4-0.3-0.8-0.6-1.1
		c-0.1-0.1-0.5-0.3-0.5-0.4c-0.4-0.4-0.3-0.6-0.2-1c0.1,0,0.2,0,0.3-0.1c0.4-0.8,0.9-1.5,1-2.4c0.1-0.8-0.3-1.3-0.7-1.9
		C121.5,38.2,121.4,37.8,121.5,37.5z M108,50.2c0.8,0.2,1.6,0,2.2-0.5c0,0,0,0.1,0,0.1c0.4,0.6,0.3,1.4-0.2,1.9
		c-0.5,0.4-1.2,0.5-1.8,0.5C108.3,51.5,108.2,50.8,108,50.2z M110.6,51.8c0.5-0.6,0.6-1.5,0.1-2.2c0-0.1-0.1-0.1-0.2-0.1
		c0.1-0.1,0.1-0.1,0.2-0.2c0.4,0.3,0.9,0.4,1.5,0.4c0.3,0,0.6-0.1,1-0.1c0,0,0,0,0,0c0.2,1.5,1.3,2.3,2.5,2.2
		c-0.3,0.1-0.7,0.1-1.1,0c-0.1,0-0.2,0-0.2,0c0,0-0.1,0-0.1,0c-0.6,0.2-0.9,0.6-1.2,1.1c-0.3,0.4-0.5,0.8-1,1
		c-0.5,0.3-0.9,0.1-1.3-0.2c0-0.5-0.3-1-0.6-1.5c0,0,0-0.1-0.1-0.1C110.3,52.1,110.4,51.9,110.6,51.8z M111.4,45.2
		c-0.2-0.4-0.5-0.7-0.8-0.9c0.7-0.1,1.1-0.6,1.5-1.1c0.7-0.9,1.2-2,0.8-3.1c0,0,0,0,0.1,0c0.5-0.6,1-0.7,1.5,0
		c0.5,0,0.8,0.2,0.8,0.6c0.1,0.2,0.1,0.4,0.1,0.5c0.2,0.3,0.4,0.4,0.6,0.6c0.8,0.8,0.8,1.4,0.8,2.4c-0.1,1.1,0,1.7-1,2.2
		c-0.7,0.4-0.6,0.5-1,1.3c-0.5,1.1-1,0.9-1.8,1.1c-0.8,0.2-1.4,0.5-2.1,0.1C111.7,47.8,112,46.3,111.4,45.2z M108.3,40
		C108.3,40,108.3,40,108.3,40c0.6-0.6,3-0.4,3.6-0.2c0.2,0.1,0.4,0.3,0.6,0.3c0.4,0.9-0.1,2-0.7,2.8c-0.5,0.6-0.9,1-1.7,0.9
		c-0.5-0.1-1-0.4-1.4-0.7c0,0-0.1,0-0.1,0c0-0.1,0.1-0.2,0.1-0.3C108.7,41.8,108.7,40.7,108.3,40z M113.7,37.4
		c0.1,0,0.1,0.1,0.2,0.1c0,0.2-0.1,0.4-0.2,0.7c-0.2,0.4-0.6,0.9-1,1.1c0,0,0,0-0.1,0c0,0,0,0,0,0c-0.1-0.1-0.3-0.1-0.4,0.1
		c-0.1,0-0.3-0.1-0.5-0.2c-0.4-0.1-0.8-0.1-1.2-0.1c-0.5,0-1.1-0.1-1.6,0c0.2-0.4,0.2-1,0.2-1.4c0-0.5-0.1-1-0.4-1.4
		c0-0.1-0.1-0.1-0.1-0.2c0.3-0.1,0.5-0.3,0.7-0.6c0.7,0.1,1.3-0.1,1.7-0.4c0,0.1,0.1,0.2,0.3,0.1c0.8-0.2,0.6,0.7,1,1.1
		c0.2,0.2,0.4,0.1,0.6,0.2c0.3,0.1,0.7,0,1,0.3c0,0,0.1,0.1,0.1,0.1C113.6,37.1,113.5,37.3,113.7,37.4z M114.4,37.8
		c0.1,0,0.1,0,0.2,0c-0.1,0.8,0.4,1.2,0.8,1.8c0.3,0.4,0.5,1.1,1,1.2c0.6,0.1,1-0.3,1.4-0.6c0.2-0.1,0.4-0.2,0.7-0.3
		c0.2,0.3,0.3,0.6,0.4,0.9c0.2,1-0.3,1.4-1,1.9c-0.3,0.2-0.4,0.2-0.6,0.5c0-0.2,0-0.5-0.1-0.7c-0.2-0.8-0.8-1-1.2-1.6
		c-0.5-0.7-0.5-1.5-1.3-1.9c-0.3-0.1-0.6-0.2-0.8-0.1c0,0,0.1,0,0.1-0.1c0.3-0.3,0.4-0.6,0.4-1C114.4,37.9,114.4,37.8,114.4,37.8z
		 M119.6,36.5c0,0.1-0.1,0.2-0.1,0.3c0,0.1-0.2,0.1-0.2,0.2c-0.2,0.5-0.1,1.1-0.2,1.7c0.1,0.5,0,0.8-0.4,0.9c0,0,0-0.1-0.1-0.1
		c-0.1-0.2-0.5,0-0.4,0.2c-0.1,0-0.2,0.1-0.4,0.1c-0.2,0.1-0.4,0.3-0.7,0.4c-0.9,0.3-1.1-0.2-1.4-0.8c-0.3-0.6-0.9-0.9-0.8-1.7
		c0.7-0.2,1.4-0.9,2.1-1.3c0.5-0.3,0.5-0.6,0.6-1.1c0-0.1,0-0.2,0.1-0.3c0.1,0,0.1,0.1,0.2,0.1c0.7-0.1,1.4,0.2,1.6,0.7
		c0,0.2,0,0.4,0,0.6C119.5,36.4,119.6,36.5,119.6,36.5z M113.6,49.5C113.6,49.5,113.6,49.4,113.6,49.5c0.3-0.2,0.6-0.3,0.8-0.4
		c0.9-0.5,0.6-1.7,1.5-2.3c0.6-0.3,0.9-0.3,1.2-1.1c0.2-0.6,0.3-1.4,0.3-2.1c0,0,0.1,0.1,0.1,0.1c0.2,0,1,2.1,1,2.3
		c0.1,1-0.9,1.3-0.9,2.1c0,1.1,0.1,2-0.9,2.7C115.5,51.8,113.8,51,113.6,49.5z M118,50c0.1-0.2,0.1-0.4,0.1-0.6
		c0.3,0,0.6,0.1,0.9,0.1c0,0.1-0.1,0.2,0,0.3c0,0.3,0.2,0.5,0,0.7c-0.1,0.3-0.4,0.4-0.7,0.4c-0.1,0-0.2,0.1-0.2,0.2
		c-0.1-0.1-0.3-0.1-0.5-0.1c-0.1,0-0.3,0-0.4,0C117.6,50.8,117.9,50.5,118,50z M118.2,49c0-0.5,0-0.9,0.3-1.4
		c0.3-0.5,0.6-0.6,0.6-1.3c0-0.8-0.5-1.7-0.8-2.4c-0.1-0.2-0.2-0.4-0.3-0.5c0.3-0.2,0.7-0.3,1-0.6c0.3-0.2,0.4-0.6,0.5-0.9
		c0.1-0.3,0.1-0.6,0-0.9c0.7,0.4,1.4,0.8,1.2,1.8c0,0.3-0.3,0.5-0.2,0.9c0.1,0.4,0.5,0.5,0.9,0.8c0.5,0.4,0.7,0.9,0.8,1.4
		c-0.1,0.1-0.2,0.1-0.3,0.1c-0.3,0.1,0,0.5,0.2,0.4c0,0,0,0,0,0c0,0.5-0.2,1.1-0.5,1.5C120.7,49.2,119.5,49.1,118.2,49z M120.6,35.4
		c0.1-0.1,0.2-0.1,0.2-0.2c0.3,0.4,0.3,1.2,0.2,1.6c-0.1,0.2-0.1,0.3-0.2,0.5c-0.1,0.4,0,0.7,0.1,1.1c0.2,0.4,0.6,0.7,0.7,1.1
		c0.4,1.1-0.1,2-0.6,3c-0.1-1-0.9-1.5-1.8-2c0,0,0,0-0.1,0c-0.1-0.2-0.2-0.3-0.2-0.5c0.3-0.1,0.6-0.3,0.8-0.5
		c0.4-0.5,0.1-0.8,0.1-1.4c-0.1-0.7,0.4-1.1,0.3-1.8c0-0.2,0-0.3-0.1-0.5c0,0,0-0.1,0.1-0.1C120,35.7,120.7,35.3,120.6,35.4z
		 M118.2,32.5c0,0.1,0,0.2,0.1,0.3c0.3,0.3,0.5,0.4,0.9,0.4c0.5,0.1,1.2,0.1,1.3,0.8c0,0.6-0.2,1-0.6,1c0,0-0.1,0-0.1,0
		c-0.4-0.5-1.1-0.6-2-0.5c0.2-0.5,0.3-0.9,0.2-1.4c-0.2-0.7-0.9-0.7-1.2-1.2c-0.1-0.1-0.1-0.2-0.1-0.4
		C117.4,31.7,117.8,31.8,118.2,32.5z M113.1,30.2c0.2-0.1,0.3-0.2,0.5-0.3c0,0,0,0,0.1,0c0.2,0,2.1,1,2.3,1.2
		c0.2,0.2,0.3,0.3,0.4,0.4c0,0.1,0,0.2,0.1,0.3c0,0.1,0,0.3,0.1,0.6c0,0.1,0,0.2,0.1,0.2c0.1,0.1,0.1,0.1,0.3,0.2
		c0.5,0.4,0.6,0,0.7,0.9c0.1,0.8,0,0.3-0.1,0.8c-0.1,0.6-0.2,1.3-0.6,1.7c-0.1,0.1-0.4,0.2-0.6,0.3c-0.6,0.5-1.1,1.1-1.8,0.8
		c-0.2-0.6-0.5-1.1-1.1-1.1c-0.6-0.1-0.6,0.1-1-0.6c-0.1-0.2-0.1-0.3-0.2-0.5c-0.2-0.2-0.5-0.3-0.8-0.2c0.6-0.8,0.8-2.2,0.4-3.2
		c0,0,0,0,0,0C111.7,30.9,112.6,30.5,113.1,30.2z M106.9,30.5c1.3-0.8,3.2-0.8,4,0.8c0.7,1.4,0.5,4.1-1.6,3.9
		c0.6-1.5-0.2-3.9-1.8-3.8C107.5,31,107.2,30.7,106.9,30.5z M106,35.1c-0.6-0.5-0.7-0.8-0.5-1.5c0.2-0.8,0.7-1.7,1.8-1.4
		c0.1,0,0.3,0,0.3-0.2c0,0,0-0.1,0-0.1c0.5,0,1,0.3,1.2,0.7c0.2,0.4,0.3,0.9,0.3,1.3c0,0.3,0,0.6-0.1,0.9c-0.2,0.7-0.4,0.9-1.1,0.9
		C107.1,35.7,106.6,35.5,106,35.1z M108.1,39.2c-0.1,0.1-0.4,0.1-0.6,0.1c-0.6,0.1-1.2,0-1.8,0c0,0,0-0.1,0-0.1
		c-0.2-0.9,0.1-1.6,0.7-2.2c0.2-0.3,0.5-0.6,0.8-0.7c0.2,0.1,0.4,0.1,0.7,0.1c0.3,0.2,0.5,0.5,0.6,0.8c0.1,0.3,0.1,0.7,0.1,1.1
		C108.5,38.5,108.4,39,108.1,39.2z M108.4,43.4C108.4,43.4,108.4,43.4,108.4,43.4c0.2,0.1,0.3,0.2,0.4,0.3c-0.2,0-0.3,0.1-0.5,0.2
		c-0.1,0-0.2,0.1-0.2,0.1C108.2,43.8,108.3,43.6,108.4,43.4z M107.6,45.3c0.6-0.7,1-1.3,2-1c0.6,0.2,1,0.7,1.3,1.2
		c0.5,1,0.3,2.3-0.3,3.2c-0.2-0.2-0.5,0.1-0.3,0.3c0,0,0,0,0,0c-0.6,0.7-1.6,1.1-2.5,0.6c-0.2-0.6-0.6-1.2-1-1.6
		C106.7,46.9,106.9,46.1,107.6,45.3z M106.8,45.4c0.1,0,0.1-0.1,0.2-0.1c-0.1,0.1-0.2,0.2-0.2,0.4c-0.4,0.6-0.5,1.2-0.5,1.9
		c-0.7-0.6-1.6-1-2.5-1.2c0-0.2,0-0.4,0-0.6C104.8,46,106,45.9,106.8,45.4z M101.5,52.5c-0.2-0.9,0.5-1.2,0.6-2
		c0.1-0.7-0.4-1.3-0.3-2.1c0-0.1-0.1-0.2-0.1-0.3c0.8-0.1,1.6-0.6,1.9-1.4c1.4,0.3,2.7,1.1,3.5,2.4c0,0.1,0.1,0.1,0.1,0.2
		c-0.1,0.1-0.2,0.3,0,0.4c0.1,0.1,0.2,0.1,0.3,0.2c0.5,1.6,0.5,3.7-1.2,4.4C104.7,55,101.9,54.4,101.5,52.5z M106.6,55.1
		c0.1-0.2-0.1-0.3-0.2-0.3c0,0,0.1,0,0.1,0c1-0.4,1.5-1.2,1.6-2.2c0.5,0,1.1,0,1.6-0.2c0,0,0,0.1,0,0.1c0.2,0.4,0.4,0.7,0.4,1.1
		c-0.1,0.1-0.1,0.3,0,0.4c0,0.4-0.2,0.9-0.7,1.3c-0.3,0.3-0.7,0.7-1.2,0.9C107.9,56.3,106.3,56,106.6,55.1z M111.9,58.3
		c-0.6,0.5-1,0.2-1.6,0.3c-0.6,0.1-1.1,0.5-1.8,0.3c-0.4-0.1-0.7-0.4-0.9-0.7c-0.1-0.5-0.2-1-0.4-1.5c0-0.1,0-0.2,0-0.3
		c0.6,0.3,1.3,0.3,1.9-0.1c0.6-0.4,1.3-1.1,1.6-1.8c0-0.1,0.1-0.2,0.1-0.3c0.2,0.1,0.5,0.2,0.7,0.3c-0.1,0.8-0.1,1.5,0.5,2.1
		c0.2,0.2,0.6,0.4,0.9,0.5c0,0,0.1,0,0.1,0C112.6,57.5,112.3,58,111.9,58.3z M116.4,56.1c-0.1,0.3-0.2,0.6-0.4,0.8
		c-0.1,0.3-0.4,0.4-0.7,0.1c-0.7-0.2-0.3-0.1-0.6-0.4c-0.2-0.2-0.3-0.4-0.7-0.4c-0.2,0-0.3,0.1-0.5,0.2c-1.4,0.5-1.7-0.9-1.6-1.9
		c0.1,0,0.3-0.1,0.4-0.1c0.3-0.2,0.6-0.4,0.8-0.7c0.4-0.4,0.6-1.1,1.1-1.4c-0.2,0.8-0.1,1.8,0.6,2.4c0.5,0.5,1.2,0.5,1.6,1
		c0.1,0.1,0.1,0.2,0.2,0.2C116.5,56,116.4,56.1,116.4,56.1z M120.5,55.6c-0.1,0-0.3-0.1-0.4,0c-0.2,0.1-0.4,0.1-0.6,0.2
		c-0.1,0.1-0.3,0.2-0.4,0.3c-0.1,0-0.2,0-0.2,0c-0.1,0-0.1,0.1-0.2,0.1c0,0.1-0.1,0.2-0.1,0.3c-0.2,0.1-0.3,0.2-0.5,0.2
		c-0.9,0.1-1.1-1-1.6-1.4c-0.5-0.4-1.2-0.4-1.6-1c-0.3-0.4-0.6-1.2-0.4-1.7c0.2-0.4,0.4-0.2,0.7-0.2c0.6-0.1,1.1-0.3,1.7-0.5
		c1-0.4,1.4,0.1,2.3,0.2c0.6,0.1,1.3,0.2,1.7,0.8c0.2,0.2,0.2,0.6,0.1,0.9c0,0,0,0.1,0,0.2c0,0,0,0,0,0c0,0.1,0,0.2,0,0.2
		c0,0.1,0.1,0.2,0.2,0.2C121.1,54.8,120.9,55.2,120.5,55.6z M123.8,46.6C123.9,46.6,123.9,46.6,123.8,46.6c0.1,0.1,0.1,0.2,0.2,0.3
		c0,0,0,0,0,0c0.3,0.3,0.4,0.7,0.5,1c0,0.1,0,0.2,0,0.3c0,0.4-0.1,0.8-0.3,1.2c-0.4,0.8-1.2,1.1-1.8,1.7c-0.2,0.3-0.2,0.3-0.3,0.6
		c-0.1,0.3,0,0.7-0.1,1c-0.1,0.4-0.3,0.8-0.7,1.1c0-1-0.3-1.9-1.5-2.1c-0.4-0.1-0.8-0.1-1.2-0.3c0.2-0.1,0.4-0.2,0.6-0.4
		c0.1-0.2,0.2-0.3,0.2-0.5c0-0.2-0.2-0.8,0-0.8c0.1,0,0.2,0,0.2-0.1c0.6,0,1.2-0.2,1.7-0.7c0.7-0.7,1.1-1.7,1.1-2.7
		c0.6-0.5,1-1.4,1.4-2c0.8,0.2,1.1,2.2,0.3,2.2c-0.1-0.1-0.2-0.1-0.2-0.2C123.8,46,123.6,46.4,123.8,46.6z"/>
</g>
<g>
	<path class="st2" d="M119.5,71c-0.3,0-0.3,0.4,0,0.4C119.8,71.4,119.8,71,119.5,71z"/>
	<path class="st2" d="M120.1,72.6c-0.3,0-0.3,0.4,0,0.4C120.5,73.1,120.5,72.6,120.1,72.6z"/>
	<path class="st2" d="M122,74c-0.3,0-0.3,0.4,0,0.4C122.3,74.5,122.3,74,122,74z"/>
	<path class="st2" d="M124.1,75.4c-0.3,0-0.3,0.4,0,0.4C124.5,75.8,124.5,75.4,124.1,75.4z"/>
	<path class="st2" d="M125.6,74.2c-0.3,0-0.3,0.4,0,0.4C126,74.6,126,74.2,125.6,74.2z"/>
	<path class="st2" d="M127.4,71.9c-0.3,0-0.3,0.4,0,0.4C127.8,72.4,127.8,71.9,127.4,71.9z"/>
	<path class="st2" d="M128.8,69.6c-0.3,0-0.3,0.4,0,0.4C129.1,70,129.1,69.6,128.8,69.6z"/>
	<path class="st2" d="M129.4,67.9c-0.3,0-0.3,0.4,0,0.4C129.8,68.4,129.8,67.9,129.4,67.9z"/>
	<path class="st2" d="M128.3,66c-0.3,0-0.3,0.4,0,0.4C128.6,66.4,128.6,66,128.3,66z"/>
	<path class="st2" d="M127.4,68.9c-0.3,0-0.3,0.4,0,0.4C127.8,69.3,127.8,68.9,127.4,68.9z"/>
	<path class="st2" d="M126.9,71c-0.3,0-0.3,0.4,0,0.4C127.3,71.4,127.3,71,126.9,71z"/>
	<path class="st2" d="M125,72.5c-0.3,0-0.3,0.4,0,0.4C125.3,72.9,125.3,72.5,125,72.5z"/>
	<path class="st2" d="M123.6,74.2c-0.3,0-0.3,0.4,0,0.4C124,74.6,124,74.2,123.6,74.2z"/>
	<path class="st2" d="M122.5,72.5c-0.3,0-0.3,0.4,0,0.4C122.8,72.9,122.8,72.5,122.5,72.5z"/>
	<path class="st2" d="M121.1,71.5c-0.3,0-0.3,0.4,0,0.4C121.5,72,121.5,71.5,121.1,71.5z"/>
	<path class="st2" d="M123,70.7c-0.3,0-0.3,0.4,0,0.4C123.3,71.1,123.3,70.7,123,70.7z"/>
	<path class="st2" d="M125.1,70.8c-0.3,0-0.3,0.4,0,0.4C125.5,71.3,125.5,70.8,125.1,70.8z"/>
	<path class="st2" d="M125.6,68.6c-0.3,0-0.3,0.4,0,0.4C126,69.1,126,68.6,125.6,68.6z"/>
	<path class="st2" d="M125.6,67.4c-0.3,0-0.3,0.4,0,0.4C126,67.8,126,67.4,125.6,67.4z"/>
	<path class="st2" d="M123.1,67.1c-0.3,0-0.3,0.4,0,0.4C123.5,67.5,123.5,67.1,123.1,67.1z"/>
	<path class="st2" d="M123.8,69.4c-0.3,0-0.3,0.4,0,0.4C124.1,69.9,124.1,69.4,123.8,69.4z"/>
	<path class="st2" d="M121.8,68.1c-0.3,0-0.3,0.4,0,0.4C122.2,68.5,122.2,68.1,121.8,68.1z"/>
	<path class="st2" d="M121.5,70.1c-0.3,0-0.3,0.4,0,0.4C121.8,70.6,121.8,70.1,121.5,70.1z"/>
	<path class="st2" d="M119.8,69.2c-0.3,0-0.3,0.4,0,0.4C120.2,69.6,120.2,69.2,119.8,69.2z"/>
	<path class="st2" d="M118.5,69.2c-0.3,0-0.3,0.4,0,0.4C118.8,69.6,118.8,69.2,118.5,69.2z"/>
	<path class="st2" d="M119.3,67.4c-0.3,0-0.3,0.4,0,0.4C119.7,67.8,119.7,67.4,119.3,67.4z"/>
	<path class="st2" d="M130.5,65.8c-1.2-1.7-3.8-2.1-5.9-1.5c0.1-0.3,0.2-0.5,0.3-0.8c0.1-0.1-0.1-0.3-0.3-0.3c-0.1,0-0.3,0-0.5,0
		c-0.2-0.2-0.4-0.3-0.8,0c-0.1,0-0.1,0.1-0.1,0.1c-0.2,0.1-0.3,0.2-0.3,0.3c-0.1,0.3,0.1,0.8,0.1,1.1c0,0,0,0.1,0,0.1
		c0,0,0,0-0.1-0.1c-0.2-0.3-0.5-0.5-0.9-0.6c-0.2-0.1-0.4,0-0.4,0.2c-0.4-0.1-0.9-0.2-1.4-0.2c-0.2,0-0.5-0.1-0.7-0.1
		c-0.2,0-0.4,0.3-0.2,0.4c0.3,0.2,0.6,0.4,0.9,0.5c-1.3,0-2.2,0.9-2.7,1.8c-0.6,1.4-0.8,3.1-0.2,4.5c0.5,1.4,1.8,2.6,2.9,3.7
		c0.7,0.7,1.7,1.3,2.8,1.5c-0.1,0.1-0.2,0.1-0.3,0.2c-0.2,0.2,0,0.4,0.3,0.4c0.8-0.1,1.6-0.3,2.4-0.4c0.3-0.1,0.2-0.5-0.1-0.4
		c0,0,0,0,0,0c1-0.4,1.7-1.2,2.3-1.9c1.2-1.4,2.2-2.9,2.8-4.6C131,68.4,131.4,67,130.5,65.8z M130.3,68.4c-0.4,1.5-1.2,2.9-2.1,4.2
		c-0.9,1.3-2.2,3.3-4.1,3.5c0,0,0,0,0,0c-0.1-0.1-0.3-0.1-0.4,0c0,0-0.1,0-0.1,0.1c-1.9-0.1-3.3-1.7-4.3-2.9
		c-1.3-1.4-1.9-2.8-1.7-4.6c0.1-1,0.6-2.1,1.4-2.7c0,0.1,0,0.2,0.2,0.3c-0.3,0.1,0,0.5,0.3,0.4c0.1-0.1,0.3-0.1,0.4-0.2
		c0.6-0.2,1.3-0.3,2-0.3c-0.7,0.2-1.2,0.6-1.7,1.2c-0.1,0.1,0,0.2,0,0.2c-0.1,0-0.1,0.1-0.2,0.1c-0.2,0.2,0.1,0.5,0.3,0.4
		c0.4-0.2,2.3-1,3.3-0.9c0,0.4,0.5,0.6,1,0.5c0.1,0,0.2-0.2,0.2-0.3c0-0.1-0.1-0.2-0.2-0.3c0.2-0.1,0.4-0.2,0.6-0.3
		c0.2,0,0.3,0,0.5,0c0.6,0.1,1.2,0.3,1.8,0.5c0.3,0.1,0.6-0.2,0.3-0.4c0,0-0.1,0-0.1-0.1c0-0.1,0-0.2-0.2-0.3
		c-0.1,0-0.2-0.1-0.4-0.1c-0.6-0.3-1.3-0.5-2.1-0.6c0.2-0.2,0.7-0.4,1.2-0.6c0.5-0.1,1-0.2,1.5-0.3c0.1,0,0.2-0.1,0.2-0.2
		C129.6,65.2,130.8,66.5,130.3,68.4z"/>
	<path class="st2" d="M123.8,68.5c-0.3,0-0.3,0.4,0,0.4C124.1,68.9,124.1,68.5,123.8,68.5z"/>
	<path class="st2" d="M126.3,72.5c-0.3,0-0.3,0.4,0,0.4C126.6,72.9,126.6,72.5,126.3,72.5z"/>
	<path class="st2" d="M128.1,67.5c-0.3,0-0.3,0.4,0,0.4C128.4,68,128.4,67.5,128.1,67.5z"/>
	<path class="st2" d="M129.6,66.1c-0.3,0-0.3,0.4,0,0.4C129.9,66.6,129.9,66.1,129.6,66.1z"/>
	<path class="st2" d="M126.9,65.3c-0.3,0-0.3,0.4,0,0.4C127.3,65.7,127.3,65.3,126.9,65.3z"/>
</g>
<g>
	<path class="st2" d="M105.5,70c-0.3,0-0.3,0.4,0,0.4C105.8,70.4,105.8,70,105.5,70z"/>
	<path class="st2" d="M106.1,71.6c-0.3,0-0.3,0.4,0,0.4C106.5,72.1,106.5,71.6,106.1,71.6z"/>
	<path class="st2" d="M108,73c-0.3,0-0.3,0.4,0,0.4C108.3,73.5,108.3,73,108,73z"/>
	<path class="st2" d="M110.1,74.4c-0.3,0-0.3,0.4,0,0.4C110.5,74.8,110.5,74.4,110.1,74.4z"/>
	<path class="st2" d="M111.6,73.2c-0.3,0-0.3,0.4,0,0.4C112,73.6,112,73.2,111.6,73.2z"/>
	<path class="st2" d="M113.4,70.9c-0.3,0-0.3,0.4,0,0.4C113.8,71.4,113.8,70.9,113.4,70.9z"/>
	<path class="st2" d="M114.8,68.6c-0.3,0-0.3,0.4,0,0.4C115.1,69,115.1,68.6,114.8,68.6z"/>
	<path class="st2" d="M115.4,66.9c-0.3,0-0.3,0.4,0,0.4C115.8,67.4,115.8,66.9,115.4,66.9z"/>
	<path class="st2" d="M114.3,65c-0.3,0-0.3,0.4,0,0.4C114.6,65.4,114.6,65,114.3,65z"/>
	<path class="st2" d="M113.4,67.9c-0.3,0-0.3,0.4,0,0.4C113.8,68.3,113.8,67.9,113.4,67.9z"/>
	<path class="st2" d="M112.9,70c-0.3,0-0.3,0.4,0,0.4C113.3,70.4,113.3,70,112.9,70z"/>
	<path class="st2" d="M111,71.5c-0.3,0-0.3,0.4,0,0.4C111.3,71.9,111.3,71.5,111,71.5z"/>
	<path class="st2" d="M109.6,73.2c-0.3,0-0.3,0.4,0,0.4C110,73.6,110,73.2,109.6,73.2z"/>
	<path class="st2" d="M108.5,71.5c-0.3,0-0.3,0.4,0,0.4C108.8,71.9,108.8,71.5,108.5,71.5z"/>
	<path class="st2" d="M107.1,70.5c-0.3,0-0.3,0.4,0,0.4C107.5,71,107.5,70.5,107.1,70.5z"/>
	<path class="st2" d="M109,69.7c-0.3,0-0.3,0.4,0,0.4C109.3,70.1,109.3,69.7,109,69.7z"/>
	<path class="st2" d="M111.1,69.8c-0.3,0-0.3,0.4,0,0.4C111.5,70.3,111.5,69.8,111.1,69.8z"/>
	<path class="st2" d="M111.6,67.6c-0.3,0-0.3,0.4,0,0.4C112,68.1,112,67.6,111.6,67.6z"/>
	<path class="st2" d="M111.6,66.4c-0.3,0-0.3,0.4,0,0.4C112,66.8,112,66.4,111.6,66.4z"/>
	<path class="st2" d="M109.1,66.1c-0.3,0-0.3,0.4,0,0.4C109.5,66.5,109.5,66.1,109.1,66.1z"/>
	<path class="st2" d="M109.8,68.4c-0.3,0-0.3,0.4,0,0.4C110.1,68.9,110.1,68.4,109.8,68.4z"/>
	<path class="st2" d="M107.8,67.1c-0.3,0-0.3,0.4,0,0.4C108.2,67.5,108.2,67.1,107.8,67.1z"/>
	<path class="st2" d="M107.5,69.1c-0.3,0-0.3,0.4,0,0.4C107.8,69.6,107.8,69.1,107.5,69.1z"/>
	<path class="st2" d="M105.8,68.2c-0.3,0-0.3,0.4,0,0.4C106.2,68.6,106.2,68.2,105.8,68.2z"/>
	<path class="st2" d="M104.5,68.2c-0.3,0-0.3,0.4,0,0.4C104.8,68.6,104.8,68.2,104.5,68.2z"/>
	<path class="st2" d="M105.3,66.4c-0.3,0-0.3,0.4,0,0.4C105.7,66.8,105.7,66.4,105.3,66.4z"/>
	<path class="st2" d="M116.5,64.8c-1.2-1.7-3.8-2.1-5.9-1.5c0.1-0.3,0.2-0.5,0.3-0.8c0.1-0.1-0.1-0.3-0.3-0.3c-0.1,0-0.3,0-0.5,0
		c-0.2-0.2-0.4-0.3-0.8,0c-0.1,0-0.1,0.1-0.1,0.1c-0.2,0.1-0.3,0.2-0.3,0.3c-0.1,0.3,0.1,0.8,0.1,1.1c0,0,0,0.1,0,0.1
		c0,0,0,0-0.1-0.1c-0.2-0.3-0.5-0.5-0.9-0.6c-0.2-0.1-0.4,0-0.4,0.2c-0.4-0.1-0.9-0.2-1.4-0.2c-0.2,0-0.5-0.1-0.7-0.1
		c-0.2,0-0.4,0.3-0.2,0.4c0.3,0.2,0.6,0.4,0.9,0.5c-1.3,0-2.2,0.9-2.7,1.8c-0.6,1.4-0.8,3.1-0.2,4.5c0.5,1.4,1.8,2.6,2.9,3.7
		c0.7,0.7,1.7,1.3,2.8,1.5c-0.1,0.1-0.2,0.1-0.3,0.2c-0.2,0.2,0,0.4,0.3,0.4c0.8-0.1,1.6-0.3,2.4-0.4c0.3-0.1,0.2-0.5-0.1-0.4
		c0,0,0,0,0,0c1-0.4,1.7-1.2,2.3-1.9c1.2-1.4,2.2-2.9,2.8-4.6C117,67.4,117.4,66,116.5,64.8z M116.3,67.4c-0.4,1.5-1.2,2.9-2.1,4.2
		c-0.9,1.3-2.2,3.3-4.1,3.5c0,0,0,0,0,0c-0.1-0.1-0.3-0.1-0.4,0c0,0-0.1,0-0.1,0.1c-1.9-0.1-3.3-1.7-4.3-2.9
		c-1.3-1.4-1.9-2.8-1.7-4.6c0.1-1,0.6-2.1,1.4-2.7c0,0.1,0,0.2,0.2,0.3c-0.3,0.1,0,0.5,0.3,0.4c0.1-0.1,0.3-0.1,0.4-0.2
		c0.6-0.2,1.3-0.3,2-0.3c-0.7,0.2-1.2,0.6-1.7,1.2c-0.1,0.1,0,0.2,0,0.2c-0.1,0-0.1,0.1-0.2,0.1c-0.2,0.2,0.1,0.5,0.3,0.4
		c0.4-0.2,2.3-1,3.3-0.9c0,0.4,0.5,0.6,1,0.5c0.1,0,0.2-0.2,0.2-0.3c0-0.1-0.1-0.2-0.2-0.3c0.2-0.1,0.4-0.2,0.6-0.3
		c0.2,0,0.3,0,0.5,0c0.6,0.1,1.2,0.3,1.8,0.5c0.3,0.1,0.6-0.2,0.3-0.4c0,0-0.1,0-0.1-0.1c0-0.1,0-0.2-0.2-0.3
		c-0.1,0-0.2-0.1-0.4-0.1c-0.6-0.3-1.3-0.5-2.1-0.6c0.2-0.2,0.7-0.4,1.2-0.6c0.5-0.1,1-0.2,1.5-0.3c0.1,0,0.2-0.1,0.2-0.2
		C115.6,64.2,116.8,65.5,116.3,67.4z"/>
	<path class="st2" d="M109.8,67.5c-0.3,0-0.3,0.4,0,0.4C110.1,67.9,110.1,67.5,109.8,67.5z"/>
	<path class="st2" d="M112.3,71.5c-0.3,0-0.3,0.4,0,0.4C112.6,71.9,112.6,71.5,112.3,71.5z"/>
	<path class="st2" d="M114.1,66.5c-0.3,0-0.3,0.4,0,0.4C114.4,67,114.4,66.5,114.1,66.5z"/>
	<path class="st2" d="M115.6,65.1c-0.3,0-0.3,0.4,0,0.4C115.9,65.6,115.9,65.1,115.6,65.1z"/>
	<path class="st2" d="M112.9,64.3c-0.3,0-0.3,0.4,0,0.4C113.3,64.7,113.3,64.3,112.9,64.3z"/>
</g>
<g>
	<path class="st9" d="M126,91c0,9.9-8.7,18-19.4,18s-19.4-8.1-19.4-18"/>
	<line class="st10" x1="86" y1="90.8" x2="126.5" y2="90.5"/>
	<path class="st2" d="M125.9,90.4v0.7c0,0.6,1.1,0.6,1.1,0v-0.7C127,89.8,125.9,89.8,125.9,90.4z"/>
	<ellipse class="st2" cx="90.9" cy="94.5" rx="0.5" ry="1.5"/>
	<ellipse class="st2" cx="94.1" cy="98.5" rx="0.5" ry="1.5"/>
	<ellipse class="st2" cx="97.3" cy="95.5" rx="0.5" ry="1.5"/>
	<ellipse class="st2" cx="101.7" cy="93.5" rx="0.5" ry="1.5"/>
	<ellipse class="st2" cx="104.9" cy="96.5" rx="0.5" ry="1.5"/>
	<ellipse class="st2" cx="108.1" cy="94.5" rx="0.5" ry="1.5"/>
	<ellipse class="st2" cx="120" cy="93.5" rx="0.5" ry="1.5"/>
	<ellipse class="st2" cx="116.8" cy="96.5" rx="0.5" ry="1.5"/>
	<ellipse class="st2" cx="113.5" cy="94.5" rx="0.5" ry="1.5"/>
	<ellipse class="st2" cx="114.6" cy="100.5" rx="0.5" ry="1.5"/>
	<ellipse class="st2" cx="121.1" cy="97.5" rx="0.5" ry="1.5"/>
	<ellipse class="st2" cx="109.2" cy="100.5" rx="0.5" ry="1.5"/>
	<ellipse class="st2" cx="101.7" cy="99.5" rx="0.5" ry="1.5"/>
	<ellipse class="st2" cx="97.3" cy="101.5" rx="0.5" ry="1.5"/>
	<ellipse class="st2" cx="104.9" cy="103.5" rx="0.5" ry="1.5"/>
	<ellipse class="st2" cx="111.4" cy="104.5" rx="0.5" ry="1.5"/>
	<ellipse class="st2" cx="100.6" cy="104.5" rx="0.5" ry="1.5"/>
	<ellipse class="st2" cx="117.9" cy="101.5" rx="0.5" ry="1.5"/>
	<ellipse class="st2" cx="94.1" cy="93.5" rx="0.5" ry="1.5"/>
</g>
<path class="st2" d="M135.1,105.5l-1.1,1.6c-0.3-0.2-0.6-0.4-1-0.5c-0.3-0.1-0.5,0.1-0.6,0.3c-0.2,0-0.5,0.1-0.7,0.2
	c-0.5,0.2-0.1,1.1,0.5,0.8c0.1-0.1,0.2-0.1,0.4-0.1c-3.1,1-7.8,5.2-12,11.1c-5.6,7.7-8.2,15.4-5.8,17.1c2.4,1.7,8.8-3.2,14.3-11
	c4-5.5,6.4-11,6.6-14.2c0.3,0.4,0.9,0.4,0.8-0.1c0-0.1,0-0.2-0.1-0.3c0.4,0.1,0.8-0.1,0.5-0.5c-0.3-0.5-0.7-1-1.2-1.5
	c-0.1-0.1-0.2-0.1-0.2-0.1l1.1-1.5L135.1,105.5z"/>
<path class="st2" d="M115.3,116.1l-1.3,1.4c-0.3-0.3-0.6-0.5-0.9-0.6c-0.3-0.1-0.6,0-0.6,0.2c-0.3,0-0.5,0-0.7,0
	c-0.5,0.1-0.2,1.1,0.3,0.9c0.1,0,0.3,0,0.4,0c-3.2,0.5-8.4,3.9-13.4,9.1c-6.5,6.8-10.1,14-7.9,16.1c2.2,2.1,9.2-1.8,15.7-8.7
	c4.6-4.9,7.8-9.9,8.4-13.1c0.2,0.4,0.9,0.5,0.9,0c0-0.1,0-0.2,0-0.3c0.3,0.2,0.8,0,0.6-0.5c-0.3-0.6-0.6-1.1-1-1.6
	c-0.1-0.1-0.1-0.1-0.2-0.2l1.3-1.4L115.3,116.1z"/>
<g>
	<path class="st11" d="M70,115.6c0-0.1,0-0.1,0-0.2c-1.4-1.4-3.5-2.8-5.6-2.7c-0.5,0-1,0.2-1.4,0.4c-1.8-1.5-4.4-1.3-6.5-0.6
		c-0.1-0.1-0.1-0.2-0.2-0.3c-0.3-0.5-0.6-0.9-1.1-1.2c-0.2-0.3-0.5-0.5-0.8-0.4c-0.7,0.1-1.5,1.2-1.6,2c-1.4,0-2.8,0.2-4.1,0.7
		c-0.1,0-0.1,0.1-0.1,0.1c-0.9-0.3-1.9-0.4-2.9-0.2c-2.9,0.5-4.9,2.6-6.1,5.1c-0.1,0.2,0.1,0.3,0.2,0.3c-0.7,0.8-1.4,1.6-1.8,2.6
		c-2.1,4.3-1.4,11,4.1,12.6c0.1,0,0.1,0,0.2,0c0.3,0.4,0.6,0.7,1,1c1.7,1.5,4,3,6.4,2.8c2.3,1.9,5.6,1.2,8.3,0.8
		c0.1,0.1,0.2,0.1,0.2,0.2c0.8,0.5,1.7,0.3,2.5,0.3c1-0.1,2-0.2,2.9-0.4c0.1,0,0.2-0.1,0.3-0.1c2.6,0.1,5.2-1.6,7.1-3
		c2.1-1.6,3.8-3.7,4.6-6.1C77.5,124.3,75.3,117.6,70,115.6z M63.3,113.4c0.2-0.1,0.4-0.2,0.6-0.3c2-0.5,4.2,0.9,5.5,2.2
		c-2.8-0.9-5.8-0.1-7.8,2c-0.1,0.1-0.1,0.1,0,0.2c-0.2,0-0.4,0-0.6,0c0,0,0,0,0,0c-0.6-0.3-1.1-0.6-1.5-1.1c0.7-0.3,1.4-0.8,2-1.3
		c0.5-0.5,1-1.2,1.6-1.6C63.2,113.6,63.3,113.5,63.3,113.4z M62.8,113.4c-0.2,0.2-0.4,0.3-0.6,0.5c-0.9,0.9-1.7,1.8-2.9,2.3
		c-0.6-0.7-1.1-1.5-1.6-2.2c-0.3-0.4-0.6-0.7-0.9-1.1C58.7,112.3,61.1,112.1,62.8,113.4z M56.6,115.2c0,0.2,0.4,0.1,0.3-0.1
		c-0.1-0.9-0.7-1.7-1.5-2.1c0.2-0.4,0.2-0.8,0.1-1.2c0.3,0.3,0.5,0.6,0.7,0.9c-0.2,0.1-0.1,0.4,0.1,0.3c0,0,0,0,0.1,0c0,0,0,0,0,0
		c0.5,0.7,1.1,1.4,1.5,2.1c0.6,1,1.3,1.9,2.3,2.5c-1.2,0.1-2.3,0.6-3.2,1.4c-0.7-0.8-1.6-1.3-2.6-1.5c0.5-0.8,0.3-1.8-0.1-2.6
		c-0.2-0.4-0.4-0.7-0.6-1c0,0,0,0,0,0c0.7,0.1,1.2-0.1,1.5-0.6C56,113.7,56.5,114.4,56.6,115.2z M55.2,112c0.2,0.8-0.4,1.7-1.4,1.5
		c-0.1,0-0.2,0.1-0.2,0.2c-0.1-0.2-0.2-0.4-0.3-0.7c0.1-0.1,0.1-0.2,0-0.3c0-0.2,0.1-0.4,0.2-0.6C53.9,111.5,55,111,55.2,112z
		 M46,113.7c3-0.4,5.6,1.7,8,3.2c0.2,0.1,0.4-0.2,0.2-0.3c-1.6-1-3.3-2.3-5.1-2.9c1.2-0.5,2.5-0.7,3.8-0.7c0.1,0.6,0.6,1,0.9,1.5
		c0.5,0.8,0.9,2,0.3,2.9c-0.4,0-0.9,0-1.3,0c-0.6-0.3-1.2-0.5-1.7-0.6c0.1-0.1,0.1-0.2,0-0.3c-3.8-1.9-8.2-0.8-11,2
		C41.2,116.2,43.2,114.1,46,113.7z M38.5,121.3c2.2-4.2,7.5-6.5,12.1-4.4c-3.5-0.4-6.8,2.5-8.6,5.3c-1.5,2.2-1.9,4.5-1.6,7.2
		c0.2,1.6,0.8,3,1.7,4.2C36.9,131.8,36.4,125.4,38.5,121.3z M42.8,133.9c-2-2.2-2.6-5.2-2.1-8.1c0.4-2.4,2.3-4.9,4.1-6.6
		c2-1.8,4.9-2.7,7.4-1.7c-0.1,0-0.1,0-0.2,0.1c-2.2,0.7-3.7,2.7-4.5,4.7c-1.1,2.5-1.4,5.3-1.1,8c0.3,2.4,1.1,5.2,2.9,7
		C46.8,137.5,44.3,135.6,42.8,133.9z M50.1,137.6c0-0.1-0.1-0.3-0.2-0.2c0,0-0.1,0-0.1,0c-0.4-0.3-0.7-0.7-1-1.1
		c-1.7-2.5-2.3-5.7-2.2-8.6c0.1-2.8,1-5.9,3-8c1.1-1.1,2.7-1.9,4.3-1.8c0,0.1,0.2,0.2,0.3,0.1c0,0,0,0,0,0c1,0.1,1.8,0.5,2.5,1.3
		c0,0.1,0,0.2,0,0.2c0,0,0,0-0.1,0.1c-0.1,0.1,0,0.2,0,0.3c-0.3,4.8-0.4,9.5-0.1,14.3c0.1,1.4,0.1,3.1,1.1,4.2
		C55.1,138.5,52.2,139,50.1,137.6z M64.2,138c-0.1,0-0.1,0-0.2,0.1c-0.1,0-0.2,0-0.3,0c-0.1,0-0.2,0.1-0.2,0.1
		c-0.6,0.1-1.3,0.2-1.9,0.3c-1,0.1-2.4,0.4-3.3-0.2c-1.7-1.1-1.4-3.9-1.4-5.7c-0.2-4.4-0.1-8.7,0.2-13.1c0,0,0,0,0,0
		c0.1,0,0.2-0.1,0.2-0.2c1.3-1.2,3-1.6,4.6-1.3c0,0.1,0.1,0.2,0.3,0.1c0,0,0.1,0,0.1-0.1c1.5,0.3,2.8,1.1,3.9,2.1
		c2.5,2.6,3,6.4,2.9,9.7C69.1,133.4,68,136.9,64.2,138z M75.5,128.8c-0.7,2.2-2.1,4.1-3.8,5.6c-1.7,1.5-4.1,3.2-6.5,3.5
		c1.1-0.5,2.1-1.2,2.8-2.3c0.9-1.4,1.3-3.1,1.4-4.7c0.3-3.6-0.2-7.8-2.7-10.7c-1-1.2-2.4-2-3.9-2.4c2.9-1.2,6.4-0.8,8.9,1.1
		c2.8,2.1,3.4,5.1,3.6,8.4c0,0.2,0.4,0.2,0.4,0c-0.1-1.8-0.3-3.6-1-5.3c-0.6-1.4-1.6-2.6-2.9-3.5c-2.8-2-6.5-2.3-9.6-0.9
		c-0.1,0-0.3,0-0.4-0.1c1.8-1.9,4.6-2.7,7.2-2c2.6,0.7,4.5,2.6,5.6,4.9C76,123.1,76.4,126.1,75.5,128.8z"/>
</g>
<path class="st2" d="M59.2,116.7c-0.7-0.8-1.3-1.6-1.9-2.5c-0.3-0.5-0.9-0.2-0.9,0.2c-0.1-0.2-0.2-0.3-0.4-0.5
	c-0.2-0.2-0.3-0.2-0.5-0.1c-0.1-0.2-0.1-0.3-0.2-0.5c-0.1-0.2-0.3-0.3-0.4-0.2c0.4-0.6,0.5-1.6-0.4-1.8c-0.4-0.1-0.7,0.1-0.9,0.4
	c-0.3,0.4-0.1,0.9-0.2,1.3c-0.1,0.5,0.6,0.8,0.9,0.5c0.1,0,0.1,0,0.2,0c0,0.1,0,0.2,0,0.4c0,0,0,0,0,0.1c-0.2,0.1-0.3,0.3-0.2,0.5
	c0.1,0.6,0.3,1.2,0.4,1.9c0,0,0,0,0,0c-0.4,0-0.7,0.6-0.4,0.9c0.5,0.4,1,0.8,1.5,1.2c0.3,0.2,0.5,0.5,0.9,0.5c0.3,0,0.5-0.2,0.7-0.4
	c0.5-0.5,0.8-0.8,1.5-0.9C59.4,117.5,59.5,117,59.2,116.7z"/>
<g>
	<path class="st2" d="M38.7,108.4c-5.5-2.7-10.3-6.6-13.2-12.1c-2.2-4.1-3.8-9.2-8.8-10.3c-0.7-0.1-0.9,0.9-0.3,1
		c5.9,1.2,7.2,9,10.5,13.3c3,3.9,7,6.8,11.3,9C38.8,109.6,39.3,108.7,38.7,108.4z"/>
	<circle class="st12" cx="21.5" cy="95.5" r="3"/>
	<circle class="st12" cx="26.5" cy="91.5" r="3"/>
	<circle class="st12" cx="21.5" cy="101.5" r="3"/>
	<circle class="st12" cx="26.5" cy="97.5" r="3"/>
	<circle class="st12" cx="31.5" cy="93.5" r="3"/>
	<circle class="st12" cx="26.5" cy="103.5" r="3"/>
	<circle class="st12" cx="31.5" cy="98.5" r="3"/>
	<circle class="st12" cx="31.5" cy="104.5" r="3"/>
	<circle class="st12" cx="35.5" cy="96.5" r="3"/>
	<circle class="st12" cx="35.5" cy="101.5" r="3"/>
	<circle class="st12" cx="35.5" cy="107.5" r="3"/>
	<circle class="st12" cx="39.5" cy="99.5" r="3"/>
	<circle class="st12" cx="39.5" cy="104.5" r="3"/>
	<circle class="st12" cx="40.5" cy="109.5" r="3"/>
</g>
</svg>
