<?xml version="1.0" encoding="utf-8"?>
<!-- Generator: Adobe Illustrator 21.1.0, SVG Export Plug-In . SVG Version: 6.00 Build 0)  -->
<svg version="1.1" xmlns="http://www.w3.org/2000/svg" xmlns:xlink="http://www.w3.org/1999/xlink" x="0px" y="0px"
	 viewBox="0 0 162 162" style="enable-background:new 0 0 162 162;" xml:space="preserve">
<style type="text/css">
	.st0{fill:#102773;stroke:#102773;stroke-width:0.9813;stroke-miterlimit:10;}
	.st1{fill:#102773;}
	.st2{fill:#FCFCFC;}
	.st3{fill:#102773;stroke:#102773;stroke-width:0.9458;stroke-miterlimit:10;}
	.st4{fill:none;stroke:#102773;stroke-width:2.3812;stroke-miterlimit:10;}
	.st5{fill:#102773;stroke:#102773;stroke-width:1.0362;stroke-miterlimit:10;}
	.st6{fill:none;stroke:#102773;stroke-width:1.0362;stroke-miterlimit:10;}
	.st7{fill:#4365AA;stroke:#F9F9F9;stroke-miterlimit:10;}
	.st8{fill:none;stroke:#102773;stroke-width:2;stroke-miterlimit:10;}
	.st9{fill:none;stroke:#4365AA;stroke-width:2;stroke-miterlimit:10;}
</style>
<g id="Layer_1">
	<ellipse class="st0" cx="81" cy="81" rx="78.5" ry="79.5"/>
	<ellipse class="st1" cx="81" cy="81.1" rx="73.5" ry="74.4"/>
	<ellipse class="st2" cx="81" cy="81" rx="72" ry="73"/>
</g>
<g id="color">
</g>
<g id="icon">
	<polygon class="st3" points="67.3,90.2 109.8,90.2 124.8,70.5 83.8,70.5 	"/>
	<polyline class="st4" points="122.7,70.5 133,90.2 133,128 69.2,128 69.2,90.2 	"/>
	<line class="st4" x1="108.8" y1="90.2" x2="108.8" y2="128"/>
	<rect x="118.3" y="115.1" class="st1" width="7.3" height="12.9"/>
	<rect x="76.1" y="113" class="st1" width="8.8" height="10.3"/>
	<rect x="90" y="113" class="st1" width="8.8" height="10.3"/>
	<rect x="76.1" y="97.5" class="st1" width="8.8" height="10.3"/>
	<rect x="90" y="97.5" class="st1" width="8.8" height="10.3"/>
	<rect x="115" y="97.5" class="st1" width="5.9" height="10.3"/>
	<rect x="123.8" y="97.5" class="st1" width="5.9" height="10.3"/>
	<g>
		<ellipse class="st5" cx="55" cy="35" rx="22.5" ry="13.5"/>
		<ellipse class="st5" cx="80.5" cy="44.5" rx="26" ry="9"/>
		<ellipse class="st5" cx="113" cy="49" rx="19.5" ry="6.5"/>
		<ellipse class="st5" cx="105" cy="36.5" rx="21.5" ry="11"/>
	</g>
	<path class="st1" d="M74.5,118.2c0.1-1.3-0.9-2.7-2.5-2.2c-6.2,1.6-13.9,2.2-20.5,1.1c0,0,0-0.1,0-0.1c-0.3-2.5-4.3-2.6-4,0
		c0,0.1,0,0.1,0,0.2c-0.9,0.8-1,2.4,0.3,3.2c0,0,0,0,0,0c0,0.4,0,0.8,0.1,1.2c-0.1,0.2-0.1,0.3-0.1,0.5c-0.3,3.1-0.5,6.2-0.4,9.3
		c0,1.5,1.4,2.1,2.5,1.9c0.6,0.1,1.3,0,1.8-0.4c0.2,0.3,0.6,0.5,1,0.7c5.3,1.5,12.6,2.7,18,0.8c1.4-0.5,1.9-1.2,2.2-2.5
		c0.7-0.2,1.2-0.8,1.2-1.8v-6.9c0-0.1,0-0.1,0-0.2c0.1-1.2,0.3-2.3,0.5-3.5C74.8,119,74.7,118.5,74.5,118.2z M57.2,130.5
		c3.5,0,7,0,10.5,0.2c-0.4,0.1-0.9,0.2-1.5,0.3C63.2,131.2,60.2,131,57.2,130.5z"/>
	<ellipse class="st5" cx="61" cy="114.5" rx="13.5" ry="3"/>
	<ellipse class="st5" cx="61" cy="132.5" rx="13.5" ry="3"/>
	<line class="st6" x1="47.5" y1="114.5" x2="47.5" y2="132.5"/>
	<line class="st6" x1="74.5" y1="114.5" x2="74.5" y2="132.5"/>
	<ellipse class="st7" cx="61" cy="115" rx="13" ry="3"/>
	<line class="st8" x1="61.5" y1="135.5" x2="61.5" y2="145.5"/>
	<line class="st8" x1="60" y1="145" x2="102" y2="145"/>
	<line class="st8" x1="101" y1="145" x2="101" y2="139"/>
	<line class="st8" x1="102" y1="139" x2="90" y2="139"/>
	<line class="st8" x1="91" y1="139" x2="91" y2="132"/>
	<line class="st8" x1="90" y1="132" x2="104" y2="132"/>
	<line class="st8" x1="103" y1="132" x2="103" y2="128"/>
	<g>
		<line class="st9" x1="46" y1="50" x2="46" y2="59"/>
		<line class="st9" x1="52" y1="61" x2="52" y2="70"/>
		<line class="st9" x1="46" y1="74" x2="46" y2="83"/>
		<line class="st9" x1="52" y1="87" x2="52" y2="96"/>
		<line class="st9" x1="45" y1="99" x2="45" y2="108"/>
	</g>
	<g>
		<line class="st9" x1="63" y1="52" x2="63" y2="61"/>
		<line class="st9" x1="69" y1="63" x2="69" y2="72"/>
		<line class="st9" x1="63" y1="76" x2="63" y2="85"/>
		<line class="st9" x1="69" y1="89" x2="69" y2="98"/>
		<line class="st9" x1="62" y1="101" x2="62" y2="110"/>
	</g>
	<g>
		<line class="st9" x1="80" y1="54" x2="80" y2="63"/>
		<line class="st9" x1="86" y1="65" x2="86" y2="74"/>
		<line class="st9" x1="80" y1="78" x2="80" y2="87"/>
		<line class="st9" x1="86" y1="91" x2="86" y2="100"/>
		<line class="st9" x1="79" y1="103" x2="79" y2="112"/>
	</g>
	<g>
		<line class="st9" x1="94" y1="54" x2="94" y2="63"/>
		<line class="st9" x1="100" y1="65" x2="100" y2="74"/>
		<line class="st9" x1="94" y1="78" x2="94" y2="87"/>
		<line class="st9" x1="100" y1="91" x2="100" y2="100"/>
		<line class="st9" x1="93" y1="103" x2="93" y2="112"/>
	</g>
	<g>
		<line class="st9" x1="112" y1="56" x2="112" y2="65"/>
		<line class="st9" x1="118" y1="67" x2="118" y2="76"/>
		<line class="st9" x1="112" y1="80" x2="112" y2="89"/>
		<line class="st9" x1="118" y1="93" x2="118" y2="102"/>
		<line class="st9" x1="111" y1="105" x2="111" y2="114"/>
	</g>
</g>
</svg>
