<?xml version="1.0" encoding="utf-8"?>
<!-- Generator: Adobe Illustrator 21.1.0, SVG Export Plug-In . SVG Version: 6.00 Build 0)  -->
<svg version="1.1" xmlns="http://www.w3.org/2000/svg" xmlns:xlink="http://www.w3.org/1999/xlink" x="0px" y="0px"
	 viewBox="0 0 162 162" style="enable-background:new 0 0 162 162;" xml:space="preserve">
<style type="text/css">
	.st0{fill:#102773;stroke:#102773;stroke-width:0.9813;stroke-miterlimit:10;}
	.st1{fill:none;stroke:#102773;stroke-width:2.8089;stroke-miterlimit:10;}
	.st2{fill:#FFFFFF;}
	.st3{fill:#102773;stroke:#102773;stroke-width:2.4064;stroke-miterlimit:10;}
	.st4{fill:#102773;stroke:#102773;stroke-width:1.9536;stroke-miterlimit:10;}
	.st5{fill:#102773;}
	.st6{fill:#F7F7F7;}
	.st7{fill:none;stroke:#F9F8F7;stroke-width:1.4652;stroke-miterlimit:10;}
	.st8{fill:none;stroke:#102773;stroke-width:2.4064;stroke-miterlimit:10;}
	.st9{fill:none;stroke:#102773;stroke-width:1.1024;stroke-miterlimit:10;}
	.st10{font-family:'Arial-Black';}
	.st11{font-size:12.4737px;}
	.st12{fill:none;stroke:#102773;stroke-width:0.4884;stroke-miterlimit:10;}
</style>
<g id="Layer_1">
	<ellipse class="st0" cx="81" cy="81" rx="78.5" ry="79.5"/>
	<ellipse class="st1" cx="81" cy="81.1" rx="73.5" ry="74.4"/>
	<ellipse class="st2" cx="81" cy="81" rx="72" ry="73"/>
</g>
<g id="icon">
	<g>
		<line class="st3" x1="47.7" y1="85" x2="55.7" y2="85.1"/>
		<line class="st3" x1="54.8" y1="86.2" x2="55.4" y2="35"/>
		<line class="st3" x1="56.2" y1="36.1" x2="63.1" y2="36.2"/>
		<line class="st3" x1="61.3" y1="94" x2="62.2" y2="35"/>
		<line class="st3" x1="61.3" y1="92.9" x2="68.1" y2="92.9"/>
		<line class="st3" x1="69.3" y1="94.1" x2="70.2" y2="35.1"/>
		<line class="st3" x1="71" y1="36.2" x2="77.9" y2="36.3"/>
		<line class="st3" x1="77.2" y1="94.1" x2="78.2" y2="35.1"/>
		<line class="st3" x1="78.4" y1="93" x2="85.2" y2="93"/>
		<line class="st3" x1="86.3" y1="94.2" x2="87.3" y2="35.2"/>
		<line class="st3" x1="85.8" y1="36.3" x2="97.2" y2="36.4"/>
		<line class="st3" x1="95.2" y1="92" x2="96.1" y2="35.3"/>
		<line class="st3" x1="94" y1="93" x2="100.8" y2="93"/>
	</g>
	<rect x="101.2" y="70.1" class="st4" width="41.8" height="37.4"/>
	<rect x="106.3" y="107.5" class="st5" width="8.3" height="6.2"/>
	<rect x="129.9" y="107.8" class="st5" width="8.3" height="6.2"/>
	<ellipse class="st6" cx="116.4" cy="88.8" rx="11.7" ry="13.3"/>
	<ellipse class="st6" cx="139.8" cy="73.7" rx="1.6" ry="1.8"/>
	<line class="st7" x1="130.4" y1="80.2" x2="140" y2="80.2"/>
	<line class="st7" x1="140" y1="83.6" x2="130.4" y2="83.6"/>
	<line class="st7" x1="130.4" y1="87.2" x2="140" y2="87.2"/>
	<line class="st7" x1="130.4" y1="90.9" x2="140" y2="90.9"/>
	<line class="st7" x1="130.4" y1="94.5" x2="140" y2="94.5"/>
	<line class="st7" x1="130.4" y1="97.6" x2="140" y2="97.6"/>
	<line class="st7" x1="130.4" y1="101.3" x2="140" y2="101.3"/>
	<path class="st5" d="M116.7,77c-0.2,0-0.4,0.1-0.4,0.4c0,3.6,0,7.2,0,10.7c0,0.2,0,0.3,0.1,0.3c0,0.3,0.1,0.5,0.4,0.5
		C121,88.1,120.7,77.9,116.7,77z M116.9,87.6c0,0.1,0.1,0.2,0.1,0.2c0,0.1,0,0.1,0,0.2c0,0-0.1,0-0.1,0.1
		C116.9,87.9,116.9,87.8,116.9,87.6z"/>
	<path class="st5" d="M116.2,101c0.2,0,0.4-0.1,0.4-0.4c0-3.6,0-7.2,0-10.7c0-0.2,0-0.3-0.1-0.3c0-0.3-0.1-0.5-0.4-0.5
		C112,90,112.2,100.1,116.2,101z M116,90.4c0-0.1-0.1-0.2-0.1-0.2c0-0.1,0-0.1,0-0.2c0,0,0.1,0,0.1-0.1C116,90.1,116,90.3,116,90.4z
		"/>
	<path class="st5" d="M106.3,88.7c0,0.2,0.1,0.4,0.4,0.4c3.2,0,6.3,0,9.5,0.1c0.1,0,0.2,0,0.3-0.1c0.2,0,0.5-0.2,0.4-0.4
		C116.1,84,107.1,84.1,106.3,88.7z M115.6,88.5c0.1,0,0.1-0.1,0.2-0.1c0.1,0,0.1,0,0.2,0c0,0.1,0,0.1,0.1,0.2
		C115.9,88.5,115.8,88.5,115.6,88.5z"/>
	<path class="st5" d="M126.1,89.4c0-0.2-0.2-0.4-0.4-0.4c-0.1-0.1-0.2-0.1-0.3-0.1c-3.2,0-6.3,0-9.5,0.1c-0.3,0-0.4,0.2-0.4,0.4
		C116.3,93.9,125.3,94.1,126.1,89.4z M125.2,89.5c0,0.1,0,0.1-0.1,0.2c-0.1,0-0.1,0-0.2,0c0-0.1-0.1-0.1-0.2-0.1
		C125,89.5,125.1,89.5,125.2,89.5z"/>
	<rect x="20" y="52.9" class="st8" width="27.1" height="54.6"/>
	<rect x="23.4" y="57.3" class="st9" width="20.2" height="17.2"/>
	<line class="st9" x1="26.2" y1="84.9" x2="26.2" y2="102"/>
	<line class="st9" x1="40.4" y1="84.9" x2="40.4" y2="102"/>
	<line class="st9" x1="33.5" y1="84.9" x2="33.5" y2="102"/>
	<line class="st9" x1="23.4" y1="89.1" x2="28.9" y2="89.1"/>
	<line class="st9" x1="30.8" y1="92.7" x2="36.3" y2="92.7"/>
	<line class="st9" x1="37.7" y1="95.3" x2="43.2" y2="95.3"/>
	<text transform="matrix(0.7243 0 0 1 25.1592 70.4023)" class="st5 st10 st11">19</text>
	<ellipse class="st12" cx="39.7" cy="63.8" rx="2.1" ry="2.3"/>
</g>
</svg>
