<?xml version="1.0" encoding="utf-8"?>
<!-- Generator: Adobe Illustrator 21.1.0, SVG Export Plug-In . SVG Version: 6.00 Build 0)  -->
<svg version="1.1" xmlns="http://www.w3.org/2000/svg" xmlns:xlink="http://www.w3.org/1999/xlink" x="0px" y="0px"
	 viewBox="0 0 162 162" style="enable-background:new 0 0 162 162;" xml:space="preserve">
<style type="text/css">
	.st0{fill:#102773;stroke:#102773;stroke-width:0.9813;stroke-miterlimit:10;}
	.st1{fill:none;stroke:#102773;stroke-width:2.8089;stroke-miterlimit:10;}
	.st2{fill:#FCFCFC;}
	.st3{fill:#102773;}
	.st4{fill:none;stroke:#102773;stroke-width:2.6088;stroke-miterlimit:10;}
	.st5{fill:none;stroke:#FFFFFF;stroke-width:0.8696;stroke-miterlimit:10;}
	.st6{fill:none;stroke:#102773;stroke-width:1.5031;stroke-miterlimit:10;}
</style>
<g id="Layer_1">
	<ellipse class="st0" cx="81" cy="81" rx="78.5" ry="79.5"/>
	<ellipse class="st1" cx="81" cy="81.1" rx="73.5" ry="74.4"/>
	<ellipse class="st2" cx="81" cy="81" rx="72" ry="73"/>
</g>
<g id="colour">
	<path class="st3" d="M98.6,71.3c-3.8,0.8-7.6,1.3-11.4,1.5c0,0,0,0,0-0.1c0.1-0.3,0.2-0.6,0.3-0.9c0.1-0.3-0.2-0.6-0.5-0.6
		c-0.4,0-0.6,0.1-0.9,0.3c-0.1,0.1-0.3,0.3-0.4,0.4c-0.1,0.1-0.1,0.2-0.2,0.3c-0.1,0-0.1,0-0.2,0c0-0.2-0.1-0.3-0.3-0.4
		c0.2-0.3-0.2-0.9-0.7-0.7c-0.1,0-0.2,0.1-0.3,0.1c0-0.3-0.3-0.5-0.6-0.5c-0.7,0.1-1.1,0.9-0.8,1.6c-0.2-0.1-0.5-0.2-0.8-0.2
		c-2-0.1-4-0.1-5.9,0c0,0-0.1,0-0.1,0c-4.7-0.2-9.3,0-14,0.5c-0.8,0.1-1.4,0.6-1.7,1.2c-0.5,0-1.1,0.3-1.5,0.9
		c-3.9,5.4-8.2,10.3-13,14.9c-1.3,1.2-0.3,3.4,1.4,3.4c11.3,0,23.2,0.6,34.4-0.8c1.7,0.3,3.4,0.5,5.2,0.6c1.3,0.1,2.3-1.4,1.9-2.5
		c0-0.1-0.1-0.3-0.1-0.4c5.4-3.6,9.4-10.8,12.4-15.7C101.8,72.7,100.2,71,98.6,71.3z"/>
</g>
<g id="icon">
	<g>
		<polygon class="st4" points="44.1,93.1 87.5,93.1 102.7,71.5 61,71.5 		"/>
		<polyline class="st4" points="102.7,71.5 114,93.1 114,134.5 44.1,134.5 44.1,93.1 		"/>
		<line class="st4" x1="87.5" y1="93.1" x2="87.5" y2="134.5"/>
	</g>
	<rect x="97.9" y="120.4" class="st3" width="8" height="14.1"/>
	<rect x="51.7" y="118" class="st3" width="9.7" height="11.3"/>
	<rect x="66.9" y="118" class="st3" width="9.7" height="11.3"/>
	<rect x="51.7" y="101.1" class="st3" width="9.7" height="11.3"/>
	<rect x="66.9" y="101.1" class="st3" width="9.7" height="11.3"/>
	<rect x="94.3" y="101.1" class="st3" width="6.4" height="11.3"/>
	<rect x="104" y="101.1" class="st3" width="6.4" height="11.3"/>
	<line class="st5" x1="75.4" y1="94.2" x2="90.7" y2="71"/>
	<line class="st5" x1="65.8" y1="93.1" x2="81" y2="71.5"/>
	<line class="st5" x1="55.3" y1="93.1" x2="72.2" y2="71.5"/>
	<line class="st5" x1="52.1" y1="81.8" x2="95.5" y2="81.8"/>
	<ellipse class="st3" cx="81.5" cy="30.2" rx="11.5" ry="12.2"/>
	<line class="st6" x1="81.7" y1="47.4" x2="81.6" y2="62.7"/>
	<polygon class="st3" points="77.2,61.8 86.2,62.1 81,67.2 	"/>
	<line class="st6" x1="69.2" y1="46.9" x2="69.6" y2="62.3"/>
	<polygon class="st3" points="65.2,61.4 74.1,61.6 69.1,66.8 	"/>
	<line class="st6" x1="93.1" y1="47.2" x2="93.5" y2="62.5"/>
	<polygon class="st3" points="89.1,61.7 98,61.9 93,67.1 	"/>
</g>
</svg>
