<?xml version="1.0" encoding="utf-8"?>
<!-- Generator: Adobe Illustrator 21.1.0, SVG Export Plug-In . SVG Version: 6.00 Build 0)  -->
<svg version="1.1" xmlns="http://www.w3.org/2000/svg" xmlns:xlink="http://www.w3.org/1999/xlink" x="0px" y="0px"
	 viewBox="0 0 162 162" style="enable-background:new 0 0 162 162;" xml:space="preserve">
<style type="text/css">
	.st0{fill:#102773;}
	.st1{fill:#79BBCE;stroke:#FCFCFC;stroke-width:0.8194;stroke-miterlimit:10;}
	.st2{fill:#FCFCFC;}
	.st3{fill:none;stroke:#FFFFFF;stroke-width:0.8194;stroke-miterlimit:10;}
	.st4{fill:#102773;stroke:#FCFCFC;stroke-width:0.8963;stroke-miterlimit:10;}
	.st5{fill:#102773;stroke:#FCFCFC;stroke-width:0.9448;stroke-miterlimit:10;}
	.st6{fill:#102773;stroke:#FCFCFC;stroke-width:0.8194;stroke-miterlimit:10;}
	.st7{fill:#79BBCE;stroke:#FCFCFC;stroke-width:0.7135;stroke-miterlimit:10;}
	.st8{fill:none;stroke:#FFFFFF;stroke-width:0.7135;stroke-miterlimit:10;}
	.st9{fill:none;stroke:#102773;stroke-width:4.1244;stroke-miterlimit:10;}
	.st10{fill:#102773;stroke:#102773;stroke-width:0.1653;stroke-miterlimit:10;}
	.st11{fill:#102773;stroke:#102773;stroke-width:0.1558;stroke-miterlimit:10;}
	.st12{fill:#102773;stroke:#102773;stroke-width:0.1803;stroke-miterlimit:10;}
	.st13{fill:#102773;stroke:#FCFAFA;stroke-width:1.87;stroke-miterlimit:10;}
	.st14{fill:#102773;stroke:#FCFCFC;stroke-width:0.7804;stroke-miterlimit:10;}
	.st15{fill:#102773;stroke:#FCFCFC;stroke-width:0.8226;stroke-miterlimit:10;}
	.st16{fill:#102773;stroke:#FCFCFC;stroke-width:0.7135;stroke-miterlimit:10;}
</style>
<g id="colour">
</g>
<g id="Layer_1">
	<g>
		<polygon class="st0" points="51.1,105.8 51.7,103.7 52.3,101.5 52.9,99.4 52.6,96.7 51.3,93.7 49.1,90.7 46.4,87.8 44.4,85.5 
			44.1,81.7 48.1,86.2 50.2,88.1 52.3,91.1 53.4,92.6 53,89.2 54.9,91.6 56,93.4 58.2,92.9 60.3,91.3 60.6,93.1 59.1,95.7 
			61.3,94.7 63.6,94.3 65.7,94.7 67.9,94.3 70,93.3 73.5,89.1 70.7,93.9 69,95.7 66.8,96.7 63.9,97.4 61.1,97.7 59.8,98.6 
			58.1,100.4 57.1,102.7 56.4,105.3 56,107.2 55.6,109.3 		"/>
		<polygon class="st0" points="43.2,81.2 41.5,77.5 40.7,73.9 40.8,68.6 43.7,73.6 46,76.7 47.5,78.8 47.1,80.5 45.4,81.5 		"/>
		<polygon class="st0" points="46.2,82.5 48.2,80.7 49.6,80 50.3,83.3 50.4,86.3 48.5,85.5 		"/>
		<polygon class="st0" points="52.1,88.9 51,86.6 51.1,83.7 51.9,80.6 53.9,77.8 56.3,75.6 58.6,74 60.1,77.3 60.6,82.1 60.5,85.8 
			59.8,88.3 58.6,90 56.9,91.1 55.2,90.7 53.8,89.6 		"/>
		<polygon class="st0" points="60.9,88.6 62.9,86.9 64.4,88.9 64.4,91.6 63.5,93 61.8,93.3 61.1,92 60.5,90.2 		"/>
		<polygon class="st0" points="65.2,91.1 64.8,92.8 65.1,93.5 67.2,93.2 68.8,92.9 70,92.1 71.1,90.6 72.6,88.6 67.4,90.4 
			65.7,90.2 		"/>
		<polygon class="st0" points="48.4,79.5 47.5,77.4 47.1,75.7 47.9,72.7 49.1,68.2 50.5,64.5 51.8,62.9 53.6,63.2 54.4,65.1 
			54.5,70.7 54.3,75.1 53.8,77 52.4,78.8 51.1,80.7 49.7,79.1 		"/>
		<polygon class="st0" points="46.2,75.4 43.7,72.6 42.2,69.3 41.2,66.9 41.7,62.8 42.9,58.4 44,54.3 45.3,51.5 46.1,51.8 47.2,54 
			47.3,58.6 47,63 48,66.9 48,68.7 47.2,71.8 		"/>
		<polygon class="st0" points="61.4,86.8 60.9,84.2 60.6,82.1 62.5,78.9 65.4,75.7 68.1,72.6 69.8,76.7 70,81 69.8,84.4 69.3,87.1 
			67.8,89.1 65.7,90.2 65,89.3 64.6,87.7 62.9,86.9 		"/>
		<polygon class="st0" points="69.7,88.1 70.5,85.1 72.6,82 75.1,79.4 77.2,77.5 77.9,77 79.4,74.7 79.6,77.2 78.8,80.2 78,83.4 
			76.7,85.7 74.8,88.2 73.5,89.1 		"/>
		<polygon class="st0" points="48.8,63.9 47.9,61.1 47.7,57.7 47.2,54 47.3,52 48.2,48.9 49,45.7 50.7,43.6 52.1,42.7 52.9,44.1 
			53,46.7 53.6,49.1 54.3,52 54.4,55.1 52.9,57.4 51.3,61 50.6,62.6 49,65.7 		"/>
		<polygon class="st0" points="51.8,61.5 53.7,57.4 55.2,55.5 56.9,53.9 58.2,52.9 59.8,54.3 60.9,56.7 61.6,58.3 61.8,59.6 
			61.5,61.9 59.4,64.3 57.1,67.7 56.3,68.9 55.3,67.7 55,65.7 54.8,64.2 53.6,63.2 53.5,62.3 52.5,62.1 		"/>
		<polygon class="st0" points="55.4,75.2 54.9,72.6 57,69.2 59.3,65.7 61.1,63.2 62.7,62.1 63.6,62.5 64.8,65.1 65.4,67.4 66,69.6 
			65.9,71.6 65.9,74 63.3,76.8 61.1,78.8 60.1,77.3 59.8,75.6 59.2,74.3 58.6,74 57.1,74 		"/>
		<polygon class="st0" points="67.1,72.1 66.4,68 65.3,64.5 66.7,62.3 69,59.3 71,58.6 72.1,61.1 72.5,63.7 72.7,66.6 70.9,69.7 
			69.4,72.8 68.4,71.7 		"/>
		<polygon class="st0" points="69.9,75 70.6,77.8 71,80.6 70.7,83.1 72.6,80.5 75,78.2 77.1,76.6 77.7,73.3 77.5,70.4 77.7,67.8 
			77,66 75.2,64.9 73.3,66.8 71.1,70.5 70.3,73.5 		"/>
		<polygon class="st0" points="78.4,74.6 77.7,67.8 79.6,66.1 81.3,63.6 81,67.4 80.7,70.2 80.5,72.3 79.4,74.7 		"/>
		<polygon class="st0" points="54.5,49.6 53.8,46.7 52.9,44.1 54.2,42 56.3,39.5 58.3,38.4 60.6,38 59.2,43.2 58.2,45.4 56.3,49 
			55.3,51.6 		"/>
		<polygon class="st0" points="55.7,53.7 56.6,50.5 57.1,48.4 58.2,45.4 60.5,43.9 62.9,42.5 63.1,46.1 63.3,48.8 63.3,49.9 
			62.2,52.1 61,54.4 60,53.6 58.2,52.9 57.1,52.7 		"/>
		<polygon class="st0" points="62.7,62.1 62.6,59.2 61.9,57.5 61.6,56.4 62.2,54.3 63.4,51.3 65.3,49.1 67.4,47.3 69.2,49.8 
			69.8,52.8 70.4,55 70.5,56.7 71,58.6 69,59.3 67.3,60.1 66.1,61.6 65,62.4 		"/>
		<polygon class="st0" points="72.8,62.6 72,59.4 71.3,57.5 70.9,55.3 70.8,52.5 72.2,49.5 73.5,48.8 75.4,50.3 76.5,52.2 
			76.5,56.3 75.8,59.5 75.1,62.2 73.5,64.5 		"/>
		<polygon class="st0" points="74.8,63.6 76.5,64.3 77.5,65.1 78.3,65.5 80.1,64.4 80.7,62.1 80.9,59 80.7,55 80,52.5 78.9,50.8 
			78,50.4 77.5,48.4 77.2,52.9 77.3,55.7 77,58.2 75.9,61.1 		"/>
		<polygon class="st0" points="60.5,40.2 62.7,39 64.3,38.6 65.2,41.4 65.4,43.6 64.7,47.5 64,47.5 63.6,44.4 62.9,42.5 60.9,42.8 
			59.2,43.2 		"/>
		<polygon class="st0" points="65.4,40.2 66.8,38.2 68.5,39 69.1,40.8 69.5,42 68,44.8 67.8,46.3 66.3,47.6 65.6,46.5 65.4,43.6 
			65.2,41.4 		"/>
		<polygon class="st0" points="68.3,46.9 69.2,48.1 70.6,47.9 71.5,45.7 72,43.7 72,42.5 71.4,41.5 70.3,41.3 69.1,43.7 67.8,46.3 
					"/>
		<polygon class="st0" points="70.1,49.6 70.4,51.7 72.4,48.3 73.6,48.2 74.5,48.6 75.4,50.3 76.4,50.5 76.8,48.8 76,45.9 75,43.8 
			74.4,42.2 73.5,41.2 		"/>
		<polygon class="st0" points="63.4,37.2 65.5,35.6 66.7,35.3 68,35.8 69.7,38.3 71.2,38.9 72.4,41.1 71.2,40.2 69.5,39.9 
			67.8,38.1 65.9,38.3 65.4,40.2 64.3,38.6 62.9,38 		"/>
	</g>
	<g>
		<path class="st0" d="M5.8,107.3c0.1-0.5,0.3-0.9,0.5-1.2c0.2-1.1,0.4-2.2,0.7-3.3c0-0.4,0-0.8,0.1-1.2c0.2-2,0.5-3.9,0.9-5.9
			c0.2-0.8,0.4-1.5,0.8-2c0-1.2,0.2-2.3,0.7-3.2c-0.1-0.4-0.1-0.8,0-1.3c0.3-1.2,1.2-2,2.2-1.6l0.1,0c0.5,0.2,0.9,0.6,1.1,1.2
			c0,0,0,0,0,0c0.4,0.1,0.8,0.2,1.1,0.4c2.5,1,5.1,1.9,7.6,2.8c0.1,0,0.2,0.1,0.3,0.1c0.2,0.1,0.4,0.1,0.6,0.2
			c1.1,0.3,2.5,0.5,3.7,0.9c0.9-2.4,2.2-4.5,4.3-5.9c4.2-2.8,11.2-1.4,15.3,1.1c3.8,2.4,1,9.3-2.7,8.4c0,0.3,0,0.5,0,0.8
			c0,0.2,0,0.4-0.1,0.6c-0.1,0.8-0.4,1.5-0.8,2c-0.9,2.9-1.3,6-1.8,9.1c1.5,0.6,2.9,1.2,4.4,1.8c2.7,1.1,3,4.9,1.9,7.3
			c0.2,0.3-0.1,0.9-0.4,0.7c-0.1,0.2-0.3,0.4-0.5,0.5c0.3,2-0.3,4-1.7,5.3c0.8,2.8-0.3,6.6-3.2,6.5c-3.2,0-6.2-1-9.3-2
			c-2.4-0.7-4.7-1.3-6.7-3.2c-0.1,0-0.2,0-0.3-0.1c-0.3-0.1-0.6-0.3-0.9-0.5c-0.9-0.4-1.7-1.1-2.2-2.2c-0.4-1.1-0.6-2.3-0.3-3.5
			l0-0.1c0,0,0,0,0,0c-0.2-0.7-0.3-1.4-0.4-2.2c-4.6-1.9-9.3-2.7-13.9-4.9c-0.6,0-1.3-0.4-1.6-1.2C5,111,5,110,5.5,109.3
			C5.6,108.7,5.7,108,5.8,107.3z"/>
		<circle class="st1" cx="30" cy="114.2" r="0"/>
		<path class="st2" d="M47.1,88.8c-6.3-1.2-17.5-6.2-20.5,5c-0.1,0.6-0.8,0.3-0.7-0.3c3.1-11.8,14.6-6.9,21.4-5.6
			C47.7,88,47.5,88.9,47.1,88.8z"/>
		<path class="st2" d="M39.5,98.5c-0.4-0.2-1-0.6-1.3-0.2c-0.2,0.2-0.4,1.9-0.5,2.2c-0.3,1.3-0.6,2.5-1,3.7
			c-0.8,2.4-1.9,4.6-3.4,6.3c-2.7,3-6.4,4-9.8,3c-0.5-0.1-0.3-1,0.2-0.9c3.4,1,7-0.2,9.5-3.3c2.6-3.2,3.6-7.7,4.5-12.1
			c0-0.2,0.3-0.4,0.4-0.3c0.5,0.2,1.1,0.4,1.6,0.6C40.2,97.8,40,98.7,39.5,98.5z"/>
		<path class="st2" d="M21.3,118.7c-0.8,6.3,4.6,8.8,8.3,10c4.1,1.3,8.3,2.5,12.4,3.8c0.5,0.1,0.3,1-0.2,0.9l-8.3-2.5
			c-2.6-0.8-5.2-1.4-7.7-2.6c-3.1-1.6-5.7-5.1-5.1-9.7C20.7,117.9,21.4,118.1,21.3,118.7z"/>
		<line class="st3" x1="21.3" y1="118.3" x2="4" y2="111.9"/>
		<line class="st3" x1="26.7" y1="93.6" x2="9.4" y2="87.2"/>
		<line class="st3" x1="10" y1="88" x2="4.7" y2="112.2"/>
		<path class="st4" d="M46.9,100.3L46.9,100.3c-0.5,2.3,0.5,4.7,2.3,5.4l11.9,4.4c1.8,0.7,3.6-0.7,4.2-3v0c0.5-2.3-0.5-4.7-2.3-5.4
			l-11.9-4.4C49.3,96.6,47.5,98,46.9,100.3z"/>
		<path class="st5" d="M44.8,110.1L44.8,110.1c-0.6,2.6,0.6,5.3,2.6,6l11.1,4.1c2,0.7,4.1-0.8,4.6-3.3l0,0c0.6-2.6-0.6-5.3-2.6-6
			l-11.1-4.1C47.4,106,45.4,107.5,44.8,110.1z"/>
		<path class="st4" d="M42.6,119.8L42.6,119.8c-0.5,2.3,0.5,4.7,2.3,5.4l11.9,4.4c1.8,0.7,3.6-0.7,4.2-3l0,0
			c0.5-2.3-0.5-4.7-2.3-5.4l-11.9-4.4C45,116.2,43.2,117.5,42.6,119.8z"/>
		<path class="st4" d="M41.5,129L41.5,129c-0.5,2.1,0.5,4.2,2.1,4.8l11,4.1c1.6,0.6,3.2-0.6,3.7-2.7l0,0c0.5-2.1-0.5-4.2-2.1-4.8
			l-11-4.1C43.6,125.7,41.9,126.9,41.5,129z"/>
		<path class="st6" d="M40.5,93.8l-2.4,10.8c-0.9,3.9,0.9,8.1,4,9.2h0c3,1.1,6.2-1.2,7.1-5.1l2.4-10.8c0.9-3.9-0.9-8.1-4-9.2l0,0
			C44.6,87.6,41.4,89.9,40.5,93.8z"/>
	</g>
	<g>
		<path class="st0" d="M156.8,72.9c-0.1-0.5-0.2-0.8-0.4-1c-0.1-1-0.3-2-0.5-2.9c0-0.4,0-0.7,0-1.1c-0.1-1.7-0.3-3.4-0.5-5.2
			c-0.1-0.7-0.3-1.3-0.6-1.8c0.1-1-0.1-2-0.5-2.8c0.1-0.3,0.1-0.7,0.1-1.1c-0.2-1.1-1-1.8-1.9-1.5l-0.1,0c-0.4,0.1-0.8,0.5-1,1
			c0,0,0,0,0,0c-0.4,0-0.7,0.1-1,0.3c-2.2,0.7-4.5,1.4-6.7,2c-0.1,0-0.2,0.1-0.3,0.1c-0.2,0-0.3,0.1-0.5,0.1c-1,0.2-2.2,0.3-3.3,0.6
			c-0.6-2.2-1.7-4-3.4-5.4c-3.5-2.7-9.7-2-13.3,0c-3.4,1.8-1.3,8,2,7.5c0,0.2,0,0.5,0,0.7c0,0.2,0,0.3,0,0.5
			c0.1,0.7,0.3,1.3,0.6,1.8c0.7,2.5,0.9,5.3,1.2,8c-1.3,0.4-2.6,0.9-3.9,1.3c-2.4,0.8-2.8,4.1-1.9,6.2c-0.2,0.3,0,0.8,0.3,0.6
			c0.1,0.2,0.2,0.3,0.4,0.5c-0.3,1.7,0.1,3.5,1.2,4.7c-0.8,2.3,0,5.7,2.5,5.9c2.8,0.2,5.4-0.5,8.1-1.1c2.1-0.5,4.1-0.9,5.9-2.3
			c0.1,0,0.2,0,0.3,0c0.3-0.1,0.5-0.2,0.8-0.4c0.8-0.3,1.5-0.8,2-1.8c0.4-0.9,0.6-2,0.4-3.1l0-0.1c0,0,0,0,0,0
			c0.2-0.6,0.3-1.2,0.4-1.9c4.1-1.3,8.2-1.8,12.3-3.4c0.6,0,1.1-0.3,1.4-0.9c0.3-0.7,0.3-1.6,0-2.2
			C156.9,74.1,156.8,73.5,156.8,72.9z"/>
		<circle class="st7" cx="135.4" cy="77.4" r="0"/>
		<path class="st2" d="M121.7,54.2c5.6-0.6,15.5-4.2,17.6,5.7c0.1,0.5,0.7,0.3,0.6-0.2c-2.2-10.5-12.4-7-18.3-6.3
			C121.2,53.4,121.3,54.2,121.7,54.2z"/>
		<path class="st2" d="M127.9,63.1c0.4-0.1,0.9-0.4,1.2,0c0.1,0.2,0.3,1.7,0.3,2c0.2,1.1,0.4,2.2,0.7,3.3c0.6,2.1,1.4,4.1,2.7,5.7
			c2.2,2.8,5.4,3.9,8.4,3.3c0.4-0.1,0.3-0.9-0.1-0.8c-3,0.6-6.1-0.6-8.1-3.5c-2.1-2.9-2.8-7-3.4-10.8c0-0.2-0.2-0.4-0.4-0.3
			c-0.5,0.1-1,0.3-1.5,0.4C127.3,62.4,127.5,63.2,127.9,63.1z"/>
		<path class="st2" d="M142.8,81.8c0.4,5.5-4.3,7.4-7.6,8.2c-3.6,0.9-7.3,1.7-10.9,2.5c-0.4,0.1-0.3,0.9,0.1,0.8l7.3-1.7
			c2.3-0.5,4.6-0.8,6.8-1.8c2.8-1.2,5.2-4.1,4.9-8.1C143.4,81.1,142.8,81.3,142.8,81.8z"/>
		<line class="st8" x1="142.8" y1="81.5" x2="158.1" y2="77"/>
		<line class="st8" x1="139.2" y1="59.6" x2="154.5" y2="55.2"/>
		<line class="st8" x1="154" y1="55.8" x2="157.5" y2="77.3"/>
		<g>
			<polygon class="st0" points="103.8,36.7 100.2,76 92.1,76.1 95.7,36.9 			"/>
			<polygon class="st0" points="87.8,75.4 103.8,75 103.2,80.8 87.3,81.2 			"/>
			<polygon class="st0" points="102.6,37 97.2,37.1 97.8,31.1 103.2,31 			"/>
		</g>
		<path class="st9" d="M100.7,54.3c8.9-2.6,17.9,6.2,20.1,19.5c2.1,12.8-2.8,25.2-11.1,28.4"/>
		<polygon class="st10" points="88.3,110.6 112.3,103.7 111.6,99.5 87.6,106.4 		"/>
		<polygon class="st11" points="113.2,115.8 106.8,117.7 105.1,107.2 111.5,105.4 		"/>
		<path class="st11" d="M96.1,137.5c-1.3-8.1,4.9-16.7,13.9-19.3s17.4,1.9,18.7,9.9"/>
		<polygon class="st12" points="108,97.7 87.2,103.6 86.4,98.8 107.2,92.8 		"/>
		<path class="st13" d="M107.3,54.2c0.7,4.4-1.4,8.8-4.8,9.8c-3.4,1-6.7-1.8-7.5-6.2c-0.7-4.4,1.4-8.8,4.8-9.8
			C103.2,47,106.6,49.8,107.3,54.2z"/>
		<polygon class="st12" points="91.7,79.4 95,79.4 94.8,86.6 91.6,86.5 		"/>
		<polygon class="st12" points="97.4,79.9 100.6,80 100.5,87.1 97.3,87.1 		"/>
		<path class="st14" d="M121.3,64.2L121.3,64.2c0.3,2-0.7,4.1-2.2,4.5l-10.5,3.1c-1.6,0.5-3.1-0.8-3.5-2.9v0c-0.3-2,0.7-4.1,2.2-4.5
			l10.5-3.1C119.4,60.8,121,62.1,121.3,64.2z"/>
		<path class="st15" d="M122.8,72.8L122.8,72.8c0.4,2.3-0.7,4.5-2.5,5l-9.9,2.9c-1.7,0.5-3.5-0.9-3.9-3.2v0c-0.4-2.3,0.7-4.5,2.5-5
			l9.9-2.9C120.7,69.1,122.4,70.5,122.8,72.8z"/>
		<path class="st14" d="M124.2,81.5L124.2,81.5c0.3,2-0.7,4.1-2.2,4.5L111.5,89c-1.6,0.5-3.1-0.8-3.5-2.9v0c-0.3-2,0.7-4.1,2.2-4.5
			l10.5-3.1C122.3,78.1,123.9,79.4,124.2,81.5z"/>
		<path class="st14" d="M124.8,89.5L124.8,89.5c0.3,1.8-0.6,3.6-2,4l-9.7,2.8c-1.4,0.4-2.8-0.7-3.1-2.6v0c-0.3-1.8,0.6-3.6,2-4
			l9.7-2.8C123.1,86.5,124.5,87.7,124.8,89.5z"/>
		<path class="st16" d="M127.2,59l1.6,9.5c0.6,3.5-1.1,7-3.8,7.8h0c-2.7,0.8-5.4-1.4-6-4.9l-1.6-9.5c-0.6-3.5,1.1-7,3.8-7.8l0,0
			C124,53.3,126.6,55.5,127.2,59z"/>
	</g>
</g>
</svg>
