<?xml version="1.0" encoding="utf-8"?>
<!-- Generator: Adobe Illustrator 21.1.0, SVG Export Plug-In . SVG Version: 6.00 Build 0)  -->
<svg version="1.1" xmlns="http://www.w3.org/2000/svg" xmlns:xlink="http://www.w3.org/1999/xlink" x="0px" y="0px"
	 viewBox="0 0 342 390" style="enable-background:new 0 0 342 390;" xml:space="preserve">
<style type="text/css">
	.st0{fill:#23448C;}
	.st1{fill:#EDC25B;}
	.st2{fill:#494949;}
	.st3{fill:#030816;}
	.st4{fill:#333333;}
	.st5{fill:#F7C6AD;}
	.st6{fill:#F9B893;}
	.st7{fill:#F79479;}
	.st8{fill:none;stroke:#F9B893;stroke-width:0.75;stroke-miterlimit:10;}
	.st9{fill:#F9AD95;}
	.st10{fill:#E2A937;}
	.st11{fill:#E5A007;}
	.st12{fill:#FFFFFF;}
	.st13{fill:none;stroke:#000000;stroke-width:0.8216;stroke-miterlimit:10;}
	.st14{fill:none;stroke:#000000;stroke-width:0.6124;stroke-miterlimit:10;}
	.st15{fill:#1D3277;}
</style>
<g id="sneakers_colour">
	<path class="st0" d="M150.1,340.5c-0.7,0-1.3,0.5-1.4,1.2c-0.2-0.1-0.4-0.2-0.7-0.2c-2.3-0.2-4.5-0.4-6.8-0.8
		c-1.2-0.2-3.1-0.9-4.4-0.3c-1.1,0.6-1,1.8-1.5,2.8c-0.7,1.4-1.7,2.2-1.9,3.8c0,0.2,0,0.4,0,0.6c-0.6,0.2-1,0.6-0.9,1.4
		c0,0.1,0,0.3,0.1,0.4c0,0,0,0,0,0c0,0,0,0.1,0,0.1c0.1,0.5,0.2,1,0.5,1.4c0.3,0.8,0.7,1.4,1.2,1.9c0,0,0,0.1,0,0.1
		c0.7,1.1,1.7,1.9,2.9,2.3c0.2,0.1,0.4,0,0.5-0.1c0.2,0,0.3,0.1,0.5,0.1c0.3,0,0.4-0.1,0.5-0.3c0.8,0.1,1.6,0,2.4-0.2
		c-0.1,0.7,0.5,1.4,1.1,1.5c0.6,0.1,1.2-0.1,1.5-0.5c0.2,0,0.4-0.1,0.5-0.2c0.5-0.2,0.9-0.4,1.3-0.7c0.1,0,0.1-0.1,0.2-0.1
		c0.1,0,0.3,0,0.4-0.1c0.8-0.5,1.6-1.1,2.4-1.6c0.4-0.3,0.2-0.8-0.2-0.9c1-1.4,1.4-3.1,1.1-4.8c0.5-1.3,1.1-2.6,1.6-3.9
		c0.1-0.1,0.1-0.3,0.1-0.4c0.2-0.3,0.4-0.6,0.4-1V342C151.6,341.2,150.9,340.4,150.1,340.5z M143.2,350.8c-1.2-0.2-2.3-0.1-3.3,0.3
		c-0.1,0-0.1,0-0.2,0c-1.1-0.1-2.9-0.2-3.7-1.1c-0.2-0.4-0.3-0.8-0.4-1.2c0.1-0.1,0.3-0.1,0.4-0.3c0.6-0.5,1.2-0.9,1.8-1.2
		c0.2,0.1,0.4,0.1,0.6,0.1c2.6,0,5.2-0.2,7.8-0.6c0.1,0.2,0.2,0.4,0.3,0.6c-0.2,0.5,0,1,0.3,1.3c0,0.6-0.2,1.2-0.6,1.8
		c-0.2,0-0.4-0.1-0.7,0C144.7,350.6,143.9,350.7,143.2,350.8z"/>
	<path class="st0" d="M214.4,342.7c0.6-2-2.6-5.2-3.4-6.4c-0.2-0.3-0.4-0.4-0.6-0.5c-0.3-0.4-0.6-0.6-1.1-0.6
		c-2.8,0-7.4,0.4-10.2,2.2c-0.5,0.2-1,0.5-1.5,0.8c-0.6,0.4-0.8,1-0.7,1.7c0.3,1.6,1.8,3.4,2.6,4.7c0.1,0.1,0.1,0.1,0.2,0.2
		c-0.2,0.3-0.3,0.7-0.2,1.2c0.3,1.6,1.5,3.7,3,4.6c0.3,0.2,0.5,0.3,0.8,0.3c0.2,0.3,0.4,0.6,0.8,0.7c1.9,0.8,4.6,0.5,6-1.1
		c0.4,0.1,0.9,0.4,1.2,0.4c0.1,0,0.3,0.1,0.4,0.1c0.1,0.2,0.2,0.5,0.3,0.6c0.6,0.6,1.5,0.6,2.1,0c0.4-0.4,0.7-0.9,1-1.3
		c0.3-0.2,0.5-0.5,0.7-0.8C216.8,347.4,215.6,344.6,214.4,342.7z M208.6,338.2c0.1,0.1,0.1,0.2,0.2,0.4c-0.1,0-0.1,0-0.2,0
		c-0.4,0-0.9-0.1-1.4-0.1C207.7,338.4,208.2,338.3,208.6,338.2z M210.7,347.6c-0.8-0.2-1.5-0.4-2.4-0.1c0,0,0,0,0,0
		c-1.4-0.2-3.2,0.3-4.6,0.3c-0.8-0.7-1.4-1.7-1.6-2.7c-0.1-0.3-0.2-0.5-0.3-0.6c0.1-0.1,0.1-0.2,0.2-0.3c0.6-1.4,6.3,0,9.6,0
		c0.6,1,1.6,2.8,1.4,3.6c-0.2,0.1-0.3,0.2-0.4,0.4C212.1,348.3,211.2,347.7,210.7,347.6z"/>
	<path class="st1" d="M145.9,346.8c-1.3-0.1-2.7,0.4-3.9,0.8c-1.4,0.4-2.6,0.6-4,0.4c-0.3-0.1-0.7-0.2-1-0.2
		c-0.3,0.1-0.5,0.2-0.6,0.3c-0.3,0-0.6,0.2-0.7,0.8c-0.2,1.2,0.8,1.6,1.9,1.7c0.1,0.1,0.3,0.1,0.4,0.2c0.2,0.1,0.4,0.1,0.5,0
		c0.1,0.2,0.3,0.3,0.5,0.2c1-0.4,1.9-0.7,2.9-0.9c0.2,0,0.5-0.1,0.7-0.1c0.9,0,1.6,0.4,2.5,0.5c0.8,0.1,1.8,0,2.4-0.7
		C148.6,348.4,147.3,346.9,145.9,346.8z"/>
	<path class="st1" d="M137.3,355.8c0-0.2-0.1-0.4-0.4-0.4c-1.6-0.3-3-1.3-3.8-2.7c-0.2-0.3-0.7-0.3-0.9,0c-1.3,2.7,3,3.9,4.8,4.1
		C137.6,356.8,137.7,356.1,137.3,355.8z"/>
	<path class="st1" d="M150.5,351.6c-0.3-0.4-0.8,0-0.9,0.4c-0.2,2-2.3,2.9-4,3.5c-0.3,0.1-0.4,0.4-0.3,0.6c0,0,0,0-0.1,0
		c-0.6,0.3-0.1,1.1,0.5,0.9c0.9-0.4,2.4-0.9,3.7-1.7c0.3-0.2,0.6-0.3,0.9-0.5c0.2-0.1,0.2-0.3,0.2-0.5
		C151.1,353.5,151.3,352.6,150.5,351.6z"/>
	<path class="st1" d="M152.4,341.2c-0.3,1.5-0.8,3-1.5,4.4c-0.3,0.6,0.6,1.1,0.9,0.5c0.7-1.5,1.3-3,1.6-4.6
		C153.5,340.8,152.6,340.6,152.4,341.2z"/>
	<path class="st1" d="M139.4,341.1c0-0.3-0.2-0.5-0.4-0.5c-0.1-0.3-0.5-0.6-0.8-0.3c-0.3,0.3-0.5,0.6-0.7,0.8
		c0.1-0.2,0.2-0.4,0.2-0.5c0.1,0,0.1,0,0.2-0.1c0,0,0,0,0.1,0c0.2-0.2,0.3-0.4,0.2-0.7l-0.1-0.1c-0.2-0.2-0.4-0.3-0.7-0.2
		c-0.3,0.1-0.4,0.4-0.5,0.7c-0.3,0.6-0.6,1.2-0.9,1.7c-0.7,1.1-1.4,2.2-2.2,3.3c-0.3,0.4,0.3,0.9,0.7,0.7c0.7-0.4,1.5-0.8,2.3-1
		c0.6-0.1,1.1-0.2,1.6-0.6c0.4-0.3,0.6-0.7,0.8-1.2c0.2,0,0.5-0.2,0.4-0.5C139.5,342.2,139.5,341.7,139.4,341.1z"/>
	<path class="st1" d="M150.4,345.2c0.2-1,0.4-1.9,0.5-2.9c0.1-0.3-0.1-0.7-0.5-0.6c-1.1,0.1-2.1,0-3.2-0.1c-0.2,0-0.3,0-0.4,0.1
		c-0.1-0.1-0.2-0.2-0.4-0.3c-0.2-0.1-0.6,0-0.7,0.3c0,0.1,0,0.2-0.1,0.2c0,0-0.1,0.1-0.1,0.2c-0.3,0.9-0.3,1.7,0,2.6
		c0.1,0.2,0.3,0.4,0.5,0.4c0.1,0,0.2,0,0.2,0c0.7,0.5,1.5,0.5,2.3,0.6c0.4,0.2,0.7,0.4,1,0.6c0.4,0.3,0.8-0.2,0.7-0.6
		C150.5,345.5,150.5,345.3,150.4,345.2z"/>
	<path class="st1" d="M199.1,344c-0.9-1.3-1.8-2.6-2.6-3.9c-0.3-0.5-1-0.1-0.9,0.3c-0.2-0.2-0.5-0.4-0.7-0.7c-0.4-0.4-1,0.2-0.8,0.6
		c-0.2,0.1-0.2,0.3-0.2,0.5c0.7,1.9,2.3,3.3,4.2,3.7c0.1,0,0.1,0,0.2,0c0,0,0,0,0,0.1C198.6,345.1,199.5,344.6,199.1,344z"/>
	<path class="st1" d="M206,352.7c0-0.2-0.1-0.3-0.2-0.4c-1-0.5-2.8-0.8-4.1-1.3c-0.9-1.2-1.6-2.4-2-3.9c-0.2-0.6-1.2-0.3-1,0.3
		c0.1,0.2,0.1,0.3,0.2,0.5c0,0,0,0-0.1,0c-0.9,0.9-0.8,2-0.1,2.9c0.1,0.7,0.5,1.4,1.4,1.8c1.7,0.9,3.8,1,5.7,0.6
		C206,353.3,206.1,353,206,352.7z"/>
	<path class="st1" d="M216.7,350.3c0.2-0.5-0.6-0.9-0.9-0.4c-0.6,1-1.5,1.7-2.5,2.3c-0.6,0.3-0.1,1.2,0.5,0.9
		c0.3-0.2,0.6-0.4,0.9-0.6c0.1,0.3,0.5,0.5,0.8,0.2c0.3-0.4,0.7-0.8,1.1-1.2c0.1,0,0.3-0.1,0.3-0.3
		C216.9,350.8,216.8,350.5,216.7,350.3z"/>
	<path class="st1" d="M215.1,343.3c-1.9-2.7-3.8-5.4-5.7-8.1c-0.2-0.3-0.6-0.3-0.8,0c-0.1-0.1-0.2-0.3-0.3-0.4
		c-0.4-0.5-1.2,0-0.9,0.5c-0.2,0.2-0.3,0.5,0,0.7c1.1,1,1.5,2.6,2.4,3.8c0.9,1.3,2,2.4,2.6,3.9c-0.1,0.1-0.1,0.1-0.1,0.2
		c-0.5-0.1-1-0.2-1.4-0.2c-2-0.2-4.1,0.4-6.1,0.4c-0.4-0.1-0.9-0.2-1.3-0.2c0.1-0.1,0.1-0.3,0.1-0.5c0.1,0.1,0.2,0.1,0.3,0.1
		c0.1,0.1,0.2,0.1,0.4,0c0,0,0,0,0,0.1c0.3,0.6,1.2,0.1,0.9-0.5c-1.2-2.3-2.6-4.4-4.3-6.4c-0.1-0.1-0.2-0.3-0.2-0.4
		c-0.2-0.3-0.5-0.3-0.7-0.1c-0.1-0.1-0.1-0.1-0.2-0.2c-0.3-0.4-0.7-0.1-0.8,0.3c-0.1-0.1-0.2-0.3-0.3-0.4c-0.4-0.5-1.1,0.2-0.7,0.7
		c0.2,0.3,0.5,0.6,0.7,0.9c-0.3-0.1-0.6,0.1-0.7,0.3c-0.2,0-0.5,0.2-0.5,0.4c-0.4-0.3-1.1,0.1-0.8,0.6l0.2,0.2
		c-0.3,0-0.7,0.5-0.4,0.9c1.3,1.5,2.3,3.2,3.1,5c-0.3,0.3,0,1,0.5,0.8l1.4-0.4c0.1,0.2,0.4,0.2,0.6,0.1c0,0,0,0.1,0,0.1
		c0.5,3.1,6.1,1.4,8,1.6c0.1,0,0.1,0,0.2,0c0,0.1,0.1,0.1,0.2,0.2c0.5,0.2,1.1,0.5,1.7,0.3c0,0,0,0,0.1,0c0.1,0.1,0.2,0.2,0.4,0.2
		c0.5-0.1,0.9-0.3,1.1-0.7c0.1-0.1,0.1-0.2,0.1-0.3c0.7-0.3,1.1-0.9,0.6-1.9c-0.1-0.3-0.4-0.5-0.6-0.7c0.4-0.1,0.8-0.1,1.1-0.2
		C215.1,343.9,215.3,343.5,215.1,343.3z M211.2,344.6c-0.4,0-0.8,0-1.1,0c-0.7,0-1.4,0-2.2,0c0.4-0.1,0.8-0.1,1.3-0.1
		c0.4,0,2.9-0.1,3.2,0.3C212,344.6,211.6,344.6,211.2,344.6z"/>
</g>
<g id="sneakers_drawing">
	<g>
		<path class="st2" d="M151,347.8c0.8-1,2-2.2,2.5-3.4c0.2-0.5,0.2-1.1,0.2-1.7c0-0.6-0.3-1.4-0.3-2c0,0,0,0,0,0
			c0.1-0.2,0.1-0.5-0.2-0.7c0,0,0,0-0.1,0c-0.3-0.2-0.7,0-0.7,0.3c0,0.1,0,0.3,0,0.4c0-0.5-0.9-0.7-1-0.1c-0.3,2.1-1.1,4-1.6,6
			c-0.7-0.9-1.7-1.5-2.9-1.7c-0.2,0-0.9,0.1-1.1,0c-0.3-0.2-0.4-0.4-0.4-0.7c0.5,0.1,0.9,0.3,1.4,0.5c0.6,0.2,0.9-0.7,0.3-1
			c-0.5-0.2-1-0.4-1.4-0.5c0,0,0,0,0,0c0.1-0.2,0.1-0.4,0.2-0.6c0.3,0.1,0.5,0.3,0.8,0.5c0.5,0.4,1.2-0.3,0.7-0.7
			c-0.4-0.3-0.8-0.5-1.2-0.7c0.1-0.2,0.1-0.4,0.2-0.5c0.3,0.1,0.6,0.3,0.8,0.4c0.6,0.3,1.1-0.6,0.5-0.9c-0.3-0.2-0.7-0.4-1.1-0.5
			c0-0.1,0.1-0.3,0.1-0.4c0.2-0.6-0.8-0.9-1-0.3c0,0.1-0.1,0.3-0.1,0.4c-1.3-0.4-2.7-0.5-4.1-0.3c0-0.1,0-0.1,0-0.2
			c0.1-0.6-0.8-0.9-1-0.3c0,0.2-0.1,0.4-0.2,0.7c-0.6,0.1-1.1,0.3-1.7,0.6c-0.6,0.3-0.1,1.1,0.5,0.9c0.3-0.1,0.6-0.2,0.9-0.3
			c0,0.1-0.1,0.2-0.1,0.3c-0.6,0.2-1.3,0.4-1.8,0.6c-0.6,0.3-0.1,1.1,0.5,0.9c0.3-0.1,0.6-0.3,0.9-0.4c-0.1,0.2-0.2,0.5-0.3,0.7
			c-0.5,0.1-1.1,0.2-1.6,0.4c-0.6,0.2-0.3,1.2,0.3,1c0.2-0.1,0.4-0.1,0.6-0.2c-0.6,0.7-1.5,0.9-2.6,1.1c-0.9,0.2-1.7,0.5-2.4,1
			c1-2.4,2.8-4.4,3.7-6.9c0.2-0.6-0.7-0.9-1-0.3c-1.1,3.1-3.7,5.6-4.3,8.8c0,0,0,0.1-0.1,0.1c-0.1,0.2-0.1,0.3,0,0.4
			c-0.1,0.5-0.1,1.1-0.1,1.7c-0.1,0.1-0.1,0.1-0.1,0.2c-0.4,1.4-0.5,2.8-0.4,4.3c0,0,0,0,0,0.1c0,0,0,0,0,0c0,0.2,0.1,0.3,0.1,0.5
			c0,0,0,0,0,0c0,0,0,0,0,0c0.2,0.2,0.4,0.4,0.6,0.6c4.7,5.4,12.4,5.1,17.5,0.6c0.7-0.5,1.4-1.2,1.9-2c0.1-0.2,0.1-0.3,0-0.4
			c0,0,0,0,0-0.1c0-1.2-0.3-2.4-0.9-3.6c-0.1-0.1-0.2-0.2-0.3-0.2c0.1-0.7,0.1-1.4,0.2-2.1C150.8,348,150.9,347.9,151,347.8z
			 M152.4,340.9c0,1.1,0.6,2.2,0,3.3c-0.4,0.7-1,1.4-1.5,2.1C151.3,344.5,152.1,342.8,152.4,340.9z M148,349.4
			c-0.5,0.8-1.5,0.9-2.5,0.8c-0.3,0.3-0.8-0.1-2-0.3c-0.6-0.1-1-0.1-1.6,0c-2.3,0.3-5.1,2-6.2-1.5c0,0,0,0,0,0
			c-0.1-0.8,4.4-0.4,5.2-0.5c0.8-0.1,1.6-0.4,2.4-0.6c0.5-0.2,1.1-0.3,1.6-0.4c0.2-0.1,0.4-0.2,0.6-0.2c0.6-0.4,1.4-0.3,2,0.1
			C148.3,347.5,148.5,348.7,148,349.4z M141.4,340.5c1.3-0.2,2.7-0.2,4,0.2c-0.1,0.2-0.1,0.3-0.2,0.5c-1.2-0.4-2.6-0.5-4-0.3
			C141.3,340.8,141.4,340.6,141.4,340.5z M141,342c1.3-0.2,2.7-0.2,4,0.2c-0.1,0.3-0.2,0.5-0.2,0.8c-1.3-0.3-2.7-0.3-4-0.2
			C140.8,342.5,140.9,342.2,141,342z M132.8,355.1c-0.1-0.2-0.3-0.3-0.4-0.5c-0.1-0.8,0-1.6,0.1-2.4c0.8,1.8,2.5,3,4.4,3.7
			C135.5,356.6,134.1,356.1,132.8,355.1z M143.2,354.9c-0.8-0.7-1.5-1.5-2.7-1.6c-0.6,0-1.1,0.1-1.5,0.5c-0.5,0.5-0.7,0.9-1.1,1.3
			c-3.4-1-5.3-3.5-4.8-6.8c0.9-1.3,2.3-2.1,3.9-2.1c0.8,0,1.4,0.1,2-0.4c0.5-0.4,1-1.1,1.3-1.9c1.4-0.2,2.8-0.2,4.2,0.1
			c-0.1,0.5-0.1,1.1,0.2,1.5c0.4,0.5,0.8,0.4,1.4,0.4c0.5,0,1,0.1,1.4,0.2c-1.2-0.3-2.8-0.1-3.9,0.2c-1.7,0.5-3.3,0.9-5.1,0.6
			c-0.7-0.1-1.4-0.3-2-0.3c-1.1,0.1-1.7,0.7-1.7,1.8c0,0,0,0,0,0c0,0.1,0,0.1,0,0.2c1.1,3.5,3.8,3.1,6.7,2.4
			c2.3-0.5,7.2,1.6,7.6-2.4c0.1-1-0.2-1.7-0.7-2.1c0.5,0.3,0.9,0.8,1.2,1.4c0,0.1,0.1,0.1,0.1,0.1c0,0.1,0,0.1,0,0.2
			c-0.2,3.6-2.1,6.6-5.9,7C143.5,355.1,143.4,355,143.2,354.9z M150.6,353.9C150.6,353.9,150.6,353.9,150.6,353.9
			c-0.4,0.6-0.8,1-1.3,1.5c-1.2,0.9-2.7,1.1-4.2,0.6c2-0.6,3.8-1.9,4.7-3.9c0.1-0.2,0.2-0.4,0.2-0.6
			C150.4,352.2,150.6,353.1,150.6,353.9z"/>
		<path class="st2" d="M217.3,348.6c-0.1-0.2-0.2-0.3-0.4-0.3c0.2-1.2,0-2.4-0.4-3.6c-0.7-1.8-1.8-3.3-2.8-4.8
			c-1.4-2-2.6-4.1-3.9-6.2c-0.3-0.5-1.2,0-0.9,0.5c1.5,2.5,3.1,5.1,4.7,7.5c1.9,2.8,4.2,7.7-0.1,9.7c-0.1,0.1-0.2,0.2-0.2,0.3
			c-1.2-0.8-2.2-2.1-3.9-1.4c-0.7,0.3-1.2,0.8-1.8,1.3c0,0,0,0,0,0c-4,0.8-6.9-1.7-7.8-5.3c0-0.1,0.1-0.1,0.1-0.2
			c0.2-0.3,0-0.6-0.3-0.7c-0.5-2.2-1.6-3.7-2.8-5.6c-0.3-0.5-1.2,0-0.9,0.5c0.6,0.9,1.2,1.8,1.7,2.7c0.3,0.6,0.5,1.2,0.7,1.8
			c-1-0.4-1.9-0.9-2.7-1.5c-0.6-0.4-1.1-0.9-1.4-1.5c-0.1-0.1-1.1-2.1-0.9-2.3c0.4-0.5-0.3-1.2-0.7-0.7c-0.9,1,0.5,3.4,1.3,4.3
			c1.2,1.4,3,2.3,4.7,2.9c0,0.1,0,0.1,0,0.2c-1,1.5-2,2.9-1.4,4.7c0,0.1,0,0.2,0,0.3c0.1,0.3,0.3,0.5,0.5,0.7c1.1,1.9,3.4,3,5.3,3.7
			c5,1.7,10.5,0.5,14.1-3.4c0.1-0.2,0.2-0.3,0.1-0.5c0,0,0,0,0-0.1C217.7,350.6,217.6,349.6,217.3,348.6z M198.5,348.4
			c0.1-0.3,0.4-0.7,0.6-1c0.3,1,0.7,1.8,1.4,2.6c1.5,1.8,3.6,2.7,5.9,2.6c-0.3,0.2-0.6,0.3-1,0.5c-1.9,0.5-4.9,0-6.4-1.5
			C198.3,350.7,198,349.6,198.5,348.4z M216.4,351.3c0,0.1,0,0.1,0,0.2c-0.8,0.7-1.5,0.8-2.1,0.6c1.1-0.5,1.8-1.4,2.3-2.4
			C216.6,350.2,216.6,350.8,216.4,351.3z"/>
		<path class="st2" d="M212.5,343.2c0-0.1,0-0.3-0.1-0.4c-0.4-0.4-0.8-0.9-1.1-1.3c0.3,0.1,0.5,0.3,0.7,0.4c0.5,0.4,1.2-0.3,0.7-0.7
			c-0.8-0.6-1.6-0.9-2.5-1.1c-0.2-0.2-0.3-0.5-0.5-0.7c0,0,0-0.1-0.1-0.1c0.4,0.1,0.7,0.2,1.1,0.4c0.6,0.3,1.1-0.6,0.5-0.9
			c-0.7-0.4-1.4-0.6-2.3-0.7c-0.1-0.2-0.3-0.4-0.4-0.7c0.2,0.1,0.3,0.2,0.5,0.3c0.5,0.4,1-0.5,0.5-0.9c-0.5-0.3-1-0.5-1.7-0.6
			c-0.2-0.3-0.4-0.7-0.5-1c-0.3-0.6-1.2-0.1-0.9,0.5c0.1,0.2,0.2,0.3,0.3,0.5c-1,0.1-2,0.3-2.8,0.6c-0.2,0.1-0.5,0.1-0.8,0.2
			c0,0,0,0,0-0.1c-0.2-0.6-1.2-0.3-1,0.3c0,0,0,0.1,0,0.1c-0.9,0.3-1.6,0.8-1.5,1.6c0.1,0.6,1.1,0.4,1-0.3c0-0.1,0.4-0.2,0.9-0.4
			c0.1,0.3,0.3,0.6,0.4,1c-0.5,0.2-1,0.5-1.4,0.8c-0.5,0.4,0,1.3,0.5,0.9c0.4-0.3,0.8-0.5,1.2-0.7c0.1,0.2,0.1,0.4,0.2,0.6
			c-0.3,0.2-0.7,0.4-0.9,0.7c-0.4,0.5,0.3,1.2,0.7,0.7c0.2-0.2,0.4-0.4,0.7-0.5c0.1,0.1,0.1,0.2,0.2,0.3c0.1,0.1,0.7,0.7,0.7,0.6
			c0,0.1,0,0.3,0.1,0.4c-1.6-0.1-3.1,0.1-3.8,1.7c-0.2,0.1-0.4,0.3-0.3,0.6c0.4,1.2,1,2.4,2.2,3c1.6,0.7,3.2-0.2,4.8-0.3
			c2.2-0.1,6.2,2.3,7-1.2C215.3,344.2,214.1,343.4,212.5,343.2z M203.7,338.9c-0.1-0.3-0.2-0.6-0.3-0.9c0.7-0.2,1.4-0.4,1.6-0.4
			c0.7-0.1,1.5-0.3,2.3-0.3c0.2,0.3,0.3,0.5,0.5,0.8C206.3,338.2,204.9,338.5,203.7,338.9z M204.3,340.4c-0.1-0.2-0.2-0.4-0.3-0.6
			c1.3-0.5,2.8-0.8,4.2-0.7c0.2,0.3,0.4,0.6,0.5,0.8c-0.4,0-0.8,0-1.2,0C206.6,340.1,205.4,340.1,204.3,340.4z M204.8,341.3
			c1.4-0.5,3.1-0.5,4.7-0.3c0.6,0.8,1.2,1.5,1.9,2.2c-0.4,0-0.9,0.1-1.3,0.2c-1.2,0.2-2.8-0.2-4.4-0.4c0-0.1,0.1-0.1,0.1-0.2
			C205.9,342.1,205.3,341.8,204.8,341.3z M213.7,346.9c-0.7,0.8-1.8,0.6-2.9,0.3c-0.3,0-0.7-0.1-1.4-0.2c-0.6-0.1-1.1-0.1-1.7-0.1
			c-2.2,0.1-4.7,1.2-5.9-1.5c0.9-2.9,4.9-0.7,6.7-0.7c0.4,0,0.9-0.1,1.3-0.2c0.4-0.1,0.8-0.2,1.2-0.3c0.1,0,0.2,0.1,0.3,0.1
			c0.7-0.1,1.4-0.1,2,0.4C214.1,345.1,214.3,346.2,213.7,346.9z"/>
	</g>
</g>
<g id="trousers_drawing">
	<path class="st3" d="M209.7,330.1c-1.4-2.7-1.5-5.9-2.8-8.6c-1.6-3.1-2.7-6.1-3.2-9.7c0-0.2-0.2-0.4-0.3-0.4
		c0.3-1.1,0.5-2.3,0.6-3.5c0.5-3.7,0.4-7.4,1.1-11.1c0.1-0.3-0.1-0.5-0.3-0.7c0.6-2,1-4.1,1.2-6c0-0.1,0-0.2,0-0.2
		c0-0.1,0-0.1,0-0.2v-0.5c0.1-0.1,0.1-0.2,0.1-0.4c0-0.5-0.1-0.9-0.2-1.4c0.3-9.9-0.6-19.8-1.4-29.7c-0.7-9.7-2-19.5-2.1-29.2
		c0.1-0.1,0.1-0.2,0.1-0.4c0.2-6-1.2-12.5-1.8-18.5c-0.3-2.8-0.6-5.6-0.9-8.4c-0.4-3.2-1.3-6.2-1.4-9.4c0-0.2-0.1-0.3-0.2-0.4
		c-0.1-0.4-0.1-0.7-0.2-1.1c-0.1-0.7-0.9-0.5-1,0.1c-0.1,0.1-0.1,0.3-0.1,0.5c0.2,0.5,0.2,1,0.2,1.5c0,0.2,0.1,0.3,0.1,0.4
		c0,0.1,0,0.2,0,0.3c0,0.1,0,0.1,0.1,0.2c0.2,2.1,0.7,4,1.1,6c0.6,3.4,0.8,6.9,1.2,10.3c0.6,5.8,1.9,12,1.8,17.9
		c-0.1,0.1-0.1,0.2-0.1,0.4c0.1,9.9,1.4,19.9,2.1,29.7c0.8,10.1,1.7,20.3,1.4,30.5c0,0.1,0,0.2,0,0.2v1.3c0,0,0,0.1,0,0.1
		c0,0,0,0,0,0.1c-0.7,4.2-1.6,9.5-4.7,12.2c-2.9,2.5-6.8,2.8-10.1,4.3c-0.6,0.3-0.3,1.4,0.3,1.2c3.6-1.6,8-1.9,11-5.1
		c0.9-0.9,1.6-2.1,2.2-3.3c-0.3,2.5-0.3,5-0.6,7.6c-0.4,3.8-1.6,7.6-2.5,11.3c-0.2,0.7,0.8,1.1,1,0.3c0.4-1.7,0.9-3.3,1.3-5
		c0.7,3.6,2,6.4,3.5,9.6c0.9,2,1,4.3,1.8,6.4c0.3,0.8,1.1,1.7,1.3,2.5c0.6,2.2-1,2.3-2.5,2.4c-3.1,0.3-6.5,1.7-9.2,3.4
		c-1.8,1.2-3.3,2.8-5.5,2.2c-1.5-0.4-2.8-1.6-3.2-3.5c-0.2-0.8,0-2.2,0.2-3.4c0.4,1.4,0.9,2.8,1.5,4.2c0.3,0.7,1.1,0.1,0.9-0.6
		c-1-2.5-1.8-4.8-1.9-7.7c-0.1-1.9-0.1-3.4-0.6-5.2c-1-4-2.2-7.9-3.2-11.9c-1-4.1-2.1-8.3-3-12.4c-0.9-4-1-8.3-2.1-12.2
		c-0.1-0.2-0.2-0.3-0.3-0.4c-0.7-2.3-1.3-4.6-1.4-7.1c-0.1-2.5,0.3-5.1,0.3-7.6c0.1-4.9,0.2-10.1-0.2-15c-0.8-9.8-3.5-19.7-6.1-28.9
		c0-0.1,0-0.1,0-0.2c-0.9-3-1.8-6-2.7-8.9c-0.1-0.2-0.2-0.3-0.3-0.4c0.2-1,0.3-2.1,0.3-3.1c0.3,0.1,0.6-0.1,0.6-0.6
		c0.1-2.1,0.4-3.3,2.3-4.2c0.5-0.2,1-0.3,1.5-0.5c1.7-0.5,3.3-1,5-1.4c3.3-1,6.6-2,10.1-1.7c0.6,0.1,0.6-1.1,0-1.2
		c-4.7-0.4-9.4,1.4-13.9,2.7c-3.1,0.9-5.2,1.4-5.8,5c-0.1-0.5-0.3-0.9-0.5-1.3c-0.5-1-0.9-1.5-1.2-2.4c2.1-0.3,4.2-0.8,5-3.4
		c1.3-4.3-0.8-9.3,0-13.8c0.1-0.7-0.8-1.1-1-0.3c-0.5,2.6-0.2,5,0.1,7.6c0.2,1.6,0.5,3.4,0.2,5c-0.5,2.8-2.2,3.5-4.3,3.7
		c-0.1,0-0.1,0-0.2,0.1c-0.3-1.6-0.4-3.3-0.5-4.9l-0.9-9.2c-0.1-0.8-1.1-0.8-1,0c0.5,4.8,0.5,10,1.5,14.7c0.1,0.7,0.4,1.3,0.7,1.9
		c-5.3,0.1-10.7-2.5-15.8-0.1c-0.6,0.3-0.3,1.4,0.3,1.2c5-2.3,10.1,0.1,15.2,0.1c0.1,0.1,0.2,0.1,0.3,0.1c0.1,0,0.2,0,0.3-0.1
		c0,0,0,0,0,0c0.1,0,0.2-0.1,0.3-0.2c0.3,0.6,0.6,1.2,0.7,1.9c0,0-0.1,0-0.1,0c-5.3,1.8-10.5,4.1-15.6,6.8c-0.6,0.3-0.1,1.3,0.5,1
		c5-2.7,10.1-4.9,15.4-6.7c0,0,0,0,0,0c0.1,2.3-0.7,5-1.5,7c-0.1,0.1-0.2,0.2-0.3,0.4c-5,21.6-8,44.1-5.6,66.5c0,0,0,0.1,0,0.1
		c-0.7,9.6-5.4,18.5-8.7,27.1c-0.1,0.2-0.1,0.3-0.2,0.5c-0.2,0.1-0.3,0.2-0.3,0.5c0,0.1,0,0.1,0,0.2c-0.7,1.9-1.4,3.7-2.2,5.5
		c-0.7,1.5-1.6,2.9-2.2,4.5c-1.2,3.2,0.1,7,1.5,9.7c0,0,0.1,0.1,0.1,0.1c0,0.3,0.2,0.5,0.5,0.5c0.5,0,0.6-0.6,0.4-1
		c0-0.1,0-0.2-0.1-0.3c-1.2-2.2-2.4-5.4-1.7-8c0.5-2.1,2-4.1,2.8-6c0.4-1,0.8-2,1.2-3c0.3,2.5,0.6,5.1,0.8,7.6c0.2,3.3-1,6.2-2,9.3
		c-0.1,0.2,0,0.4,0.1,0.6c0,0.1,0,0.1,0,0.2c0.8,3.2-1.5,3-3.4,2.8c-1.9-0.2-3.9-0.7-5.8-1c-1.3-0.2-2.5-0.4-3.8-0.5
		c-2-0.1-4.2,0.5-5.9-1.2c-0.5-1.6-0.2-3.2,0.7-4.5c-0.2,0.7-0.3,1.5-0.5,2.2c-0.2,0.7,0.8,1.1,1,0.3c1-4.2,2-8.4,2.9-12.7
		c0.1,0.1,0.1,0.2,0.2,0.2c1,1.2,1.8,3,1.3,4.8c-0.3,1-1.5,2.1-2.1,2.7c-0.5,0.5,0.2,1.4,0.7,0.8c1.6-1.7,3.4-3.7,2.5-6.4
		c-0.5-1.4-1.4-2.5-2.4-3.5c0-0.3-0.2-0.5-0.5-0.5c-1.3-1.4-2.5-2.9-2.1-5.3c1.4-8.1,2.4-15.9,1.5-24.2c0-0.1,0-0.2,0-0.3
		c-1.6-6.6-0.8-13.3,0.2-19.9c0.7-5,1.5-10,2.8-14.9c0,0.8,0.1,1.6,0.1,2.3c0.3,4.5,0.4,8.6-1.4,12.6c-0.3,0.7,0.6,1.3,0.9,0.6
		c3.1-6.8,1.4-15.2,1-22.5c-0.5-8.6-1.1-17.3-1.6-25.9c0.1-0.1,0.1-0.2,0.1-0.4c-0.4-9.8-0.4-19.5,0.1-29.3c0-0.8-1-0.8-1,0
		c-0.5,9.5-0.6,19-0.2,28.4c-0.1,0.1-0.2,0.2-0.2,0.5c0.5,8.1,1,16.3,1.5,24.4c0.1,2.1,0.3,4.1,0.4,6.2c0,0-0.1,0.1-0.1,0.2
		c-1.8,6.4-2.9,13.1-3.8,19.8c-0.8,6.1-1.3,12.2,0.1,18.1c0,0,0,0.1,0,0.1c1,8.2-0.1,16-1.5,24c-0.3,1.9-0.4,3.4,0.8,4.8
		c0.5,0.6,1.1,1.2,1.6,1.7c-0.7,3.1-1.4,6.1-2.1,9.2c-0.1,0-0.2,0-0.3,0.1c-1.7,1.6-2.6,4.1-1.8,6.6c0,0.2,0,0.3,0.2,0.5
		c1.6,1.7,3.3,1.6,5.3,1.6c3.1,0,6,0.8,9.1,1.3c3.2,0.5,7.6,1.5,6.3-4c0-0.1-0.1-0.1-0.1-0.2c0.9-2.8,2.2-5.7,2.1-8.7
		c-0.1-3.5-0.7-7-1.1-10.4c0.9-2.4,1.9-4.9,2.8-7.3c2.8-7.2,6-13.9,6.4-22c0-0.2-0.1-0.4-0.2-0.5c-2.2-21.8,0.7-43.6,5.5-64.6
		c0.1,0,0.1-0.1,0.1-0.2c0.4-0.9,0.8-2.1,1.1-3.3c0.8,2.5,1.5,5.1,2.3,7.6c0,0,0,0.1,0,0.1c1.4,5,2.7,10.1,3.8,15.2
		c1.1,5.2,2.4,10.5,2.5,15.9c0.1,5,0.3,10.1,0.1,15.1c-0.2,5.1,0,9,1.5,13.8c0.1,0.2,0.1,0.3,0.3,0.3c0.9,3.6,1.1,7.6,1.9,11.2
		c1,4.5,2.1,9,3.3,13.5c1,4,2.6,8.1,3.3,12.2c0.3,1.7,0.2,3.3,0.3,5c-0.1,0.1-0.2,0.2-0.2,0.4c-0.6,4.8-1.2,8.9,3.4,10.3
		c2,0.6,3.3,0,5-1.3c2.4-1.8,5.1-3.1,7.9-3.8c1.9-0.5,4.5,0.4,5.7-1.9C211.5,332.4,210.4,331.5,209.7,330.1z"/>
</g>
<g id="trousers_colour">
	<path class="st4" d="M209.6,330.1c-0.3-0.4-0.7-0.7-1.2-0.7c-0.2-0.4-0.4-0.8-0.6-1.1c0-1.7-0.6-3.3-1.2-4.9
		c-0.7-2.2-1.4-4.4-2-6.6c0-0.7-0.2-1.5-0.7-2.3c0,0,0-0.1-0.1-0.1c0-0.1-0.1-0.1-0.1-0.2c1.7-12.5,3.9-25.5,1.9-38
		c0-0.4,0-0.9,0-1.3c0.2-11.8-1.9-23.1-2.8-34.8c-0.1-0.7-0.3-1.3-0.5-1.8c0-1,0-2-0.1-3c0-0.6-0.2-1.2-0.4-1.7
		c0.3-5.1,0.3-10.3-0.3-15.4c-0.9-7.7-2.8-15.3-3-23.1c0-0.9-0.3-1.6-0.7-2.2c-0.4-2.3-2.6-3.6-5-3.1c-16.5,3.4-33.4,5.6-50,1.8
		c-2.7-0.6-4.5,1.3-4.9,3.4c-0.3,0.5-0.4,1.1-0.4,1.9c0.3,6.5,0.5,13,0.8,19.4c-0.1,0.1-0.2,0.3-0.2,0.5c-0.3,1.6-0.2,3.3-0.1,5
		c-0.1,0.2-0.2,0.5-0.2,0.8c0.3,4.3,0.7,8.6,1.3,12.9c0.1,1.9,0.2,3.8,0.2,5.8c-0.5,4.6-0.3,9.1,0.6,13.7c-0.1,0.1-0.1,0.3-0.2,0.4
		c-2.1,6.8-3.4,13.6-3.9,20.4c-0.3,0.2-0.6,0.6-0.5,1.2c0,0.5,0,1.1,0.1,1.6c-0.1,0.2-0.3,0.4-0.3,0.7c-0.4,3-0.2,6,0.6,8.9
		c0.1,2.3,0.2,4.5,0.4,6.8c0.5,6.5-1,12.1-1.5,18.4c-0.1,1.1-0.1,2.2,0.1,3.2c-0.1,0.1-0.2,0.1-0.3,0.2c-0.6,0.6-0.5,1.5,0,2.1
		c0.3,0.3,0.7,0.6,1,0.9c0.4,0.9,0.8,1.8,1.4,2.6c-0.5,1-0.7,2.1-0.6,3.2c0,0.2,0.1,0.4,0.1,0.6c-0.2,0.6-0.3,1.2-0.5,1.8
		c-0.5,1.7-1,3.3-1.4,5c-1.3,0.8-2.1,2.1-1.9,3.8c0.4,2.7,2.9,2.9,5.1,3c2.1,0.1,4.1,0.2,6.2,0.4c1.2,0.1,2.7,0.4,4,0.5
		c0.3,0.4,0.7,0.7,1.2,0.6c0.4,0,0.9-0.1,1.3-0.2c0.1,0,0.2,0,0.3,0c0.2,0,0.4-0.1,0.5-0.2c0,0,0,0,0,0c0.6-0.3,1.1-0.7,1.1-1.4
		c0-0.1,0-0.2,0-0.3c0.1-0.8,0-1.8,0-2.5c0-0.4-0.1-0.7-0.3-0.9c0.2-0.2,0.3-0.3,0.4-0.6c0.1-0.4,0.3-0.8,0.4-1.2c0,0,0,0,0,0
		c0,0,0,0,0-0.1c0.2-0.2,0.2-0.5,0.3-0.7c0.2-0.5,0.4-1,0.5-1.6c0.1-0.2,0.1-0.4,0.1-0.5c0.8-4.1,0.1-8.6-1-12.8
		c4.6-8.7,7.9-17.9,9.9-27.5c0.2-0.7,0.1-1.4,0-1.9c-0.9-9.5-1.3-19.1-1.1-28.7c0.2-1.8,0.5-3.5,1.1-5.3c0.2-0.6,0-1.1-0.4-1.4
		c0-0.2,0.1-0.3,0.1-0.5c0.9-8.6,2.4-17.2,4.4-25.6c1.1-2.3,1.7-5,2.6-7.5c2.8,6.4,4.3,13.1,5.8,20.1c1,4.6,2,9.2,2.9,13.9
		c-0.4,1-0.4,2.1,0,3.2c0.1,0.5,0.2,1,0.5,1.5c0.3,5.9,0.2,11.7,0,17.7c-0.2,6.3,2.1,12.1,3.3,18.2c1.2,6.5,1.8,13,3.2,19.4
		c0.7,3.2,1.7,6.4,2.6,9.6c0.4,1.4,1.9,5.4,2.2,7.9c-0.5,0.5-0.9,1-1.2,1.6c-0.3,0.7-0.5,1.4-0.1,2.1c0.1,0.2,0.2,0.3,0.3,0.4
		c-0.1,2,0.6,3.8,2.9,4.5c1.2,0.4,2.2,0.1,3.1-0.4c0.4,0.1,0.8,0.1,1.2-0.2c1.9-1.4,3.9-2.5,6.2-3.1c1.7-0.4,3.7-0.5,5.3-1.5
		c0.1-0.1,0.3-0.2,0.4-0.3c0.3,0.2,0.6,0.3,0.9,0.3c0.9,0,1.4-0.7,1.5-1.5C210.5,332.3,210.2,331.1,209.6,330.1z"/>
</g>
<g id="Arms_colour">
	<path class="st5" d="M136.8,148c0.3-4.7,1.4-9.2,2.6-13.8c0.7-2.5-2.5-3.7-3.8-2.1c-0.2-1-1.1-1.5-1.9-1.5c0,0,0-0.1,0-0.1
		c0.4-2.9-3.8-4.1-4.2-1.2c-0.1,0.7-0.2,1.3-0.2,2c-1.1-0.6-2.8-0.4-3.3,1.2c-0.5,1.2-0.2,2.7,0,4c-0.1,0.3-0.2,0.6-0.2,1
		c0.1,1,0.1,2,0.1,3c0,0.2-0.1,0.4-0.1,0.5c-0.3,4.2-2.1,7.9-2.1,12.2c-0.1,4.6,0.3,9.3,0.4,13.9c0,0.5,0.1,0.9,0.4,1.2
		c0.5,8.8,0.3,19,3.1,27.5c-0.2,0.7-0.4,1.4-0.6,2.1c-0.4,1.5-0.7,3-0.9,4.5c-0.2,0.1-0.3,0.4-0.3,0.7c0,2.3,1.5,3.9,3,5.4
		c2,2.1,4.1,4.1,6.3,5.9c0.1,0,0.1,0.1,0.2,0.1c0.3,0.5,0.7,1.1,1.1,1.5c0.5,0.6,1.3,1.7,2.2,1.3c1-0.4,0.7-1.7,0.4-2.5
		c-0.4-1-1-1.8-1.6-2.6c-0.3-0.3-0.6-0.4-0.9-0.2c-0.4-0.6-0.9-1.2-1.4-1.8c0.1-0.2,0.1-0.4,0.1-0.6c-0.3-1.7-0.6-3.4-0.8-5.1
		c0.9,1.9,1.7,3.9,2.5,5.8c0.3,0.6,0.8,0.6,1.2,0.2c0.5,0.1,1.1-0.2,1.1-0.8c0.1-1.7-0.3-3.4-1-5c0,0,0,0,0,0
		c-0.2-2.2-0.2-4.4-0.3-6.7c-0.1-2-0.5-3.7-1.7-5.3c-0.1-0.1-0.1-0.1-0.2-0.2c-0.6-6.4-0.8-12.8-0.5-19.2c0-0.3,0-0.5-0.1-0.7
		c0.4-3.8,0.8-7.6,1-11.5C136.6,156.9,136.5,152.4,136.8,148z"/>
	<path class="st5" d="M214.9,150.6c0.2-4.6-1.2-8.7-2.7-12.9c-0.3-3.6-0.6-7.3-0.5-11c0.1-2.2-2.5-2.8-3.7-1.6
		c-0.2,0.1-0.4,0.2-0.5,0.4c-0.9-1.1-2.9-1-3.6,0.2c-1-0.6-2.4-0.1-3,1c-1.4-0.2-3.1,0.9-2.7,2.8c0.3,1.6,0.6,3.1,1,4.7
		c-0.4,0.5-0.6,1.2-0.4,2c0.7,2.2,1.3,4.3,1.8,6.5c-0.1,0.3-0.2,0.7-0.1,1.1c0.9,7.5,0.4,15.2,0.9,22.7c0.4,7.1,1,14.1,0.2,21.2
		c-1.2,1.2-2.2,2.5-2.8,4.1c-0.9,2.3-0.4,4.9-1,7.3c-0.1,0.3-0.2,0.6-0.3,0.9c-0.5,1.3-2,3.4-1.4,4.8c-0.1,0.3,0,0.6,0.2,0.8
		c0,0,0,0.1,0,0.1c-0.1,0.9,1,1.1,1.5,0.5c0.4,0.2,0.9,0.2,1.1-0.3c0.8-2,1.3-4.2,2.1-6.2c1.8-1.1,3.3,0,3.2,2.2
		c0,0.2,0,0.4-0.1,0.7c-1.2,1.2-2.4,2.3-3.7,3.5c-1.5,1.3-2.3,3-2.9,4.8c-0.3,0.4-0.6,0.8-0.9,1.2c-0.3,0.4-0.1,1,0.3,1.2
		c1.7,0.9,2.9-1,4-2.2c0.1-0.1,0.1-0.2,0.2-0.2c0.2,0,0.3-0.1,0.5-0.2c2.5-2.3,5-4.7,6.6-7.8c0.4,0,0.7-0.1,0.9-0.6
		c0.1-0.4,0.2-0.7,0.3-1.1c0.2-0.1,0.3-0.2,0.4-0.5c1-2.4,0.5-5.1,0-7.7c0-0.1,0-0.1,0-0.2c0-0.2,0-0.3,0-0.5c0-0.1,0-0.2-0.1-0.3
		c0,0,0,0,0-0.1c1.3-3,1.7-6.7,2.3-9.9c0.4-0.5,0.6-1.1,0.4-1.9c-0.3-1.3,0.4-2.9,0.6-4.1c0.3-1.5,0.4-3,0.6-4.5
		c0.1-0.7-0.2-1.3-0.6-1.6C213.7,163.4,214.7,157,214.9,150.6z"/>
</g>
<g id="hands">
	<path class="st6" d="M137.6,212.7c-0.8-0.9-1.6-1.8-2.4-2.7c0.1,0,0.1-0.1,0.1-0.2c0-0.4,0-0.9-0.1-1.3c0.5,1.2,1,2.4,2,3
		c1.1,0.8,1.7-0.3,1.9-1.4c0.3-2.1-0.6-4.2-1-6.3c-0.4-2.4,0.1-4.8-0.2-7.1c-0.3-2.1-1.5-3.6-2.4-5.3c0,0.3-0.1,0.6-0.1,0.9
		c0.7,1.2,1.5,2.3,1.9,3.6c0.5,2.2,0.1,4.5,0.2,6.8c0.2,2.2,1.2,4.3,1.2,6.5c-0.1-0.1-0.3-0.2-0.6-0.2c-1,0-1.1,1.6-0.2,1.8
		c-0.3,0-0.6-0.1-0.8-0.3c-0.3-0.3-0.6-0.8-0.8-1.3c-0.5-1-0.8-2-1.3-3c-0.2-0.5-0.5-1.5-1-2.3c-0.4-0.8-0.9-1.6-1.5-2.3
		c-0.3-0.3-0.7,0.1-0.4,0.4c0.3,0.3,0.5,0.6,0.7,0.9c0,0,0,0,0,0c-0.9-0.1-0.9,1-0.8,1.7c0,0.3,0.1,0.6,0.2,0.9
		c-0.3,0.1-0.5,0-0.8-0.1c-0.3-0.2-0.6,0.4-0.3,0.5c0.4,0.2,0.8,0.2,1.2,0.1c0.3,1,0.8,1.9,1.4,2.7c-0.3,0.2-0.6,0.5-1,0.7
		c-0.3,0.2,0,0.7,0.3,0.5l1-0.8c0.6,0.8,1.2,1.5,1.9,2.3c-0.1,0-0.1,0.1-0.2,0.2c-0.1,0-0.2,0.1-0.2,0.2c0,0,0,0.1,0,0.1
		c-0.1,0.1-0.2,0.2-0.2,0.4c-0.1,0.3,0.2,0.6,0.4,0.4c0,0,0,0,0-0.1l0,0c0,0,0,0,0,0c0.1-0.1,0.2-0.3,0.2-0.4
		c0.1-0.1,0.2-0.2,0.3-0.3c0,0,0,0,0-0.1c0.4,0.4,0.8,0.8,1.1,1.3c0.4,0.5,0.9,1,1.2,1.6c0.1,0.1,0.3,0.6,0.4,0.8
		c0.3,0.4,0.3,1-0.1,1.3c-0.1,0.2-0.3,0.3-0.6,0.3c-0.3,0-0.5-0.1-0.6-0.3c-0.2-0.1-0.4-0.3-0.5-0.5c-0.3-0.2-0.7-0.7-0.9-0.9
		c-0.5-0.4-0.9-0.8-1.4-1.3c-1.7-1.6-3.3-3.2-4.9-4.9c-1.6-1.7-4-3.7-4-6.3c0-2.4,1.1-5,1.6-7.4c0-0.2,0.1-0.3,0.1-0.5
		c-0.2-0.1-0.3-0.3-0.5-0.4c0,0.2-0.1,0.3-0.1,0.5c-0.5,2.3-1.3,4.7-1.6,7.1c-0.2,2,0.5,3.4,1.8,4.9c3.1,3.7,6.6,7.4,10.4,10.4
		c1,0.8,1.9,0.3,2.1-1C139.8,215.1,138.5,213.7,137.6,212.7z M133.6,207.7c-0.1-0.2-0.5-1-0.9-1.8c0.1-0.1,0-0.3-0.1-0.4
		c-0.2-0.6-0.3-1.1-0.1-1.4c0.1-0.1,0.7,0.1,1,0.3c0.2,0.7,0.5,1.3,0.7,2c-0.1,0.1-0.1,0.2,0,0.3c0.4,0.9,0.6,1.8,0.6,2.7
		C134.3,208.8,133.9,208.3,133.6,207.7z"/>
	<path class="st6" d="M210,190c0-0.5,0-0.9,0-1.4c-0.2,0-0.4-0.1-0.6-0.1c0,0.7,0,1.5,0.1,2.3c0.2,2.5,0.6,5,0.3,7.5
		c-0.3,2.7-1.9,4.6-3.5,6.6c-1.3,1.7-2.7,3.4-4.2,4.9c-0.8,0.8-1.7,1.6-2.6,2.2c-0.4,0.3-0.9,0.7-1.4,0.9c-0.5,0.2-0.2,0.3-1,0
		c-0.6,0-0.7-0.2-0.4-0.6c0.1-0.4,0.3-0.7,0.6-1c1.4-1.7,3.4-2.8,4.8-4.5c1.4-1.8,2.3-3.8,2.8-6c0,0,0-0.1,0-0.1
		c0.1-0.1,0.1-0.2,0.1-0.3c-0.3-1.1-1.1-1.8-2.1-2c0.1-0.1,0.2-0.1,0.4-0.2c0.3-0.1,0.2-0.7-0.2-0.6c-0.5,0.2-0.9,0.4-1.3,0.8
		c-0.1,0-0.1,0-0.2,0c-0.2,0-0.2,0.2-0.2,0.3c-0.5,0.5-0.9,1.2-1.2,1.9c-0.4,1.1-0.6,2.3-1,3.4c-0.1,0.4-0.3,0.8-0.5,1.2
		c0.1-0.3,0.1-0.5,0-0.8c-0.1-0.2-0.2-0.4-0.3-0.5c0-0.1-0.1-0.1-0.1-0.1c0,0-0.1,0-0.1,0c0,0,0,0,0,0c0,0-0.1-0.1-0.3-0.1
		c0,0,0,0,0,0c-0.3,0-0.6,0-0.9,0.3c0,0-0.1,0-0.1,0c0,0,0,0,0,0c0,0,0,0,0,0c-0.4,0.4-0.5,1.1-0.2,1.6c0.3,0.5,1,0.6,1.5,0.4
		c0.1-0.1,0.2-0.1,0.3-0.2c-0.7,0.9-1.5,0.7-2.6-0.6c-0.1-0.5,0.2-1.1,0.3-1.6c0.6-2.3,1.7-4.4,2-6.8c0.2-1.2,0.1-2.3,0.3-3.5
		c0.3-1.3,1-2.4,1.8-3.4c0.7-0.9,1.2-1.8,1.5-2.7c-0.2-0.1-0.3-0.2-0.4-0.3c-0.2,0.5-0.4,1-0.7,1.4c-1.2,1.9-2.6,3.3-2.9,5.7
		c-0.2,1.4-0.2,2.8-0.5,4.2c-0.3,1.3-0.8,2.6-1.3,3.9c-0.4,1.3-1.5,3.7-0.1,4.7c1.3,1,2.8-0.3,3.4-1.5c1-1.9,1-4.7,2.6-6.2
		c1.1-0.2,2.1,0.4,2.4,1.5c0,0-0.1,0.1-0.1,0.1c-0.1,0.6-0.3,1.1-0.5,1.7c-0.1,0-0.2,0-0.2,0.1c-0.8,0.9-1.6,1.7-2.5,2.4
		c-0.6,0.4-1.2,0.8-1.6,1.4c-0.5,0.7-0.9,1.5-1.4,2.2c-0.4,0.7-0.8,1.2-0.8,2c-0.5,0.5-0.9,1-1.1,1.6c-0.5,1.3,0.1,2.2,1.4,1.8
		c1.9-0.7,3.8-2.5,5.2-4c1.8-1.8,3.4-3.8,4.9-5.9c1.4-1.8,2.4-3.3,2.7-5.6C210.7,195.6,210.2,192.8,210,190z M199,208.1
		c0.6-0.9,1.1-1.7,1.9-2.3c0.8-0.6,1.6-1.3,2.3-2.1c-0.7,1.5-1.7,2.9-2.9,4.1c-0.7,0.7-1.6,1.3-2.5,2
		C198.2,209.2,198.7,208.6,199,208.1z"/>
</g>
<g id="Arms_drawing">
	<path class="st6" d="M127.9,195.4c-1.2-4.4-1.4-9.2-1.9-13.8c-0.6-5.7-1.2-11.5-1.6-17.2c-0.4-5.4-1-11.3,0.2-16.6
		c0.5-2.2,1.1-4.4,1.3-6.7c0.2-2.7,0-5.5-0.1-8.2c0-0.6-0.9-0.6-0.9,0c0.2,2.7,0.4,5.5,0.1,8.2c-0.2,2.9-1.2,5.5-1.6,8.4
		c-0.8,5.4-0.1,11.3,0.3,16.7c0.4,5.9,1.1,11.8,1.7,17.7c0.4,4.3,0.7,8.8,2,12.9C127.5,196.3,127.7,195.9,127.9,195.4z"/>
	<path class="st6" d="M137,150.7c0.4-5.4,1.4-10.9,2.2-16.3c0.1-0.6-0.8-0.8-0.8-0.2c-0.7,5.1-1.6,10.2-2.1,15.3
		c-0.3,2.7-0.1,5.4-0.1,8.1c0,2.6-0.4,5.2-0.6,7.8c-0.5,5.1-0.4,10.2-0.4,15.4c0,3.8-0.2,7.6,0,11.4c0.4,0.6,0.8,1.2,1,1.8
		c-0.5-4.5-0.2-9.2-0.2-13.7c0-5-0.1-10,0.4-14.9c0.2-2.3,0.6-4.6,0.6-6.9C137.1,155.9,136.8,153.3,137,150.7z"/>
	<path class="st6" d="M200.7,159.8c0.5,9.8,1.6,20,0.1,29.8c0.2-0.2,0.4-0.5,0.6-0.7c0.1-0.2,0.3-0.4,0.5-0.6
		c1.2-9.1,0.2-18.5-0.2-27.6c-0.2-5,0.1-10.1-0.5-15c-0.3-2.3-0.9-4.6-1.3-6.9c-0.5-3-0.8-6.1-0.9-9.1c0-0.6-0.9-0.6-0.9,0
		c0.2,5,1.1,9.6,2,14.5C201,149.3,200.5,154.7,200.7,159.8z"/>
	<path class="st6" d="M214.5,144.4c-0.5-2.8-1.5-5.5-1.8-8.4c-0.4-3.2-0.4-6.3-0.4-9.5c0-0.6-0.9-0.6-0.9,0c0,5.3,0.3,10.3,1.6,15.4
		c1.5,5.6,1.1,11.2,0.7,16.9c-0.4,5.7-1.1,11.4-1.8,17c-0.5,3.9-1,7.9-2,11.7c-0.2,1.4-0.4,2.9-0.5,4.3c1.6-4.2,2.5-8.6,3-13.2
		c0.8-6,1.5-12,2-18.1C214.9,155.3,215.5,149.7,214.5,144.4z"/>
</g>
<g id="face_colour">
	<path class="st5" d="M152.4,64.8c0-0.1,0-0.2,0-0.3c-0.1-0.3-0.2-0.7-0.3-1c-0.2-1.2-0.6-2.4-0.9-3.6c-0.1-0.3-0.3-0.4-0.5-0.3
		c0,0,0-0.1,0-0.1c0-0.2-0.2-0.3-0.4-0.4c0,0,0-0.1-0.1-0.1c-0.1-0.1-0.2-0.1-0.3-0.2c-0.2-0.1-0.3-0.1-0.5,0
		c-0.8,0.5-0.3,1.9-0.1,2.6c0.3,1.5,1,2.9,1.9,4.2c0.1,0.1,0.1,0.1,0.2,0.2c0,0.1,0.1,0.2,0.1,0.4c0.2,0.5,1,0.5,1-0.1
		C152.5,65.7,152.4,65.2,152.4,64.8z"/>
	<path class="st5" d="M178.6,79.5c-0.4-0.6-1-1.1-1.7-1.4c0-0.1-0.1-0.2-0.1-0.4c-0.1-0.2-0.2-0.4-0.3-0.6c0-0.5,0-1,0-1.5
		c0-0.9-0.3-1.6-0.7-2.2c1.1-3,1.6-6.3,1.9-9.5c0.2,0,0.4,0,0.5-0.2c0-0.1,0.1-0.2,0.1-0.2c0,0,0,0,0.1-0.1c0-0.1,0.1-0.2,0.1-0.3
		c0.5-1.3,1-2.6,1.2-4c0-0.2,0-0.4-0.2-0.5c0.2-0.5-0.4-1-0.8-0.6c-0.2,0.2-0.3,0.4-0.5,0.6c-0.2,0.2-0.1,0.4,0,0.6
		c-0.1,0.2-0.1,0.4-0.1,0.5c0.2-5.1,0.3-10.4-2.1-14.9c-0.6-1.2-1.7-1.7-2.7-1.8c-0.5-0.1-1-0.2-1.5-0.1c-5.7,0.8-12.1,1.1-17.6,2.9
		c-2.3,0.8-2.8,3.2-2.1,4.9c-0.1,8.3,0.4,19.1,5.4,26.3c-0.2,0.1-0.3,0.2-0.3,0.4c0.1,1.9,0,3.8-0.2,5.7c-0.2,0.2-0.4,0.4-0.5,0.7
		c0,0,0,0-0.1-0.1c0-0.1-0.1-0.2-0.1-0.2c0-0.1,0-0.1,0.1-0.2c0.1-0.2,0-0.3-0.1-0.4c0-0.1,0-0.1,0-0.2c0.1-0.2,0.3-0.4,0.4-0.5
		c0.4-0.5-0.4-0.9-0.8-0.6c0,0,0,0,0,0c-0.1,0-0.2,0-0.3,0.1c-0.4,0.4-0.7,0.7-1.1,1.1c-0.1,0.1-0.3,0.2-0.4,0.4
		c0-0.1-0.1-0.2-0.2-0.3c-0.1-0.2-0.3-0.3-0.5-0.3c-0.3-0.1-0.7,0.2-0.7,0.6c0.5,2.9,2.6,4.8,5.3,5.9c1.9,1.4,4.9,1.6,7.6,1.4
		c1,0,1.9,0,2.7-0.2c2.9-0.4,5.7-1.4,8-3.2c1.8-1.4,2.7-3,3-5c0,0,0-0.1,0-0.1c0.2-0.4,0.2-0.9,0.1-1.4c0-0.3,0-0.7,0-1
		C179.2,79.6,178.8,79.5,178.6,79.5z"/>
	<path class="st7" d="M167.5,72.4c-1.1,0.2-2.2,0.3-3.3,0.2c-0.6-0.1-0.6,0.9,0,1c1.2,0.1,2.4,0,3.6-0.3
		C168.4,73.2,168.1,72.2,167.5,72.4z"/>
</g>
<g id="Face_drawing">
	<path class="st6" d="M177.7,65.6c1.1-1.5,1.9-2.9,2-4.8c0.1-1,0.7-3.6-0.2-4.3c-0.2-0.2-0.4-0.2-0.6-0.1c-0.3,0.1-0.5,0.3-0.7,0.6
		c0-0.3,0-0.6,0-0.9c0-0.6-1-0.6-1,0c0.1,4.6-0.5,9.3-1.2,13.8c-0.8,4.6-3.5,8.7-8,10.5c-4.5,1.8-8.7-1.5-11.2-5.1
		c0-0.1-0.1-0.2-0.2-0.3c-0.2-0.3-0.3-0.5-0.5-0.8c-1.1-1.8-1.4-4.1-1.9-6.1c-0.5-2.2-1.1-4.4-1.6-6.6c0-0.1,0.1-0.2,0-0.3
		c-0.3-0.9-0.6-1.9-0.9-2.8c-0.2-0.5-0.9-0.4-1,0c-1.1-0.6-2.3-0.6-2.4,1.2c-0.2,3.1,1.8,5.7,4,7.5c0.2,0.1,0.3,0.1,0.5,0.1
		c0.6,3,1.5,5.9,3.1,8.3c0,0,0,0,0,0c0.3,1.5,0.4,3,0.3,4.6l0,0c-0.4,0.6-1,1-1.5,1.4c-0.5,0.4-1.1,0.8-1.7,1.1
		c-0.6,0.3-0.1,1.2,0.5,0.9c0.7-0.4,1.3-0.8,1.9-1.3c0.2-0.2,0.5-0.4,0.7-0.6c-0.1,1.2-0.2,2.4-0.3,3.5c-0.1,0.6,0.9,0.6,1,0
		c0.2-2.7,0.4-5.4,0.2-8c2.6,3,6.1,5.6,10.2,4.6c3.6-0.9,7-4,8.6-7.4c0.4,2.3,1.2,4.6,1.5,7c0.1,0.6,1.1,0.4,1-0.3
		c-0.1-0.5-0.2-1-0.3-1.5c0.1,0.2,0.3,0.3,0.4,0.5c0.4,0.5,1.1-0.2,0.7-0.7c-0.4-0.5-0.9-1-1.3-1.5c-0.1-0.1-0.2-0.2-0.3-0.2
		c-0.4-1.8-0.9-3.5-1-5.3c0.6-2.1,0.8-4.4,1.1-6.5C177.6,65.8,177.7,65.7,177.7,65.6z M150.9,60C150.9,60,151,60.1,150.9,60
		c0.2,0.5,0.4,0.9,0.5,1.3c-0.5-0.6-1-1.2-1.5-1.7c-0.3-0.3-0.7-0.1-0.8,0.2C149.2,58.5,150.3,59.4,150.9,60z M149.8,62.9
		c-0.4-0.9-0.7-1.8-0.7-2.8c0.1,0.3,0.1,0.5,0.2,0.8c0.1,0.4,0.4,0.4,0.7,0.3c0.4,0.4,0.7,0.9,1.1,1.3c-0.4-0.2-0.9,0.3-0.6,0.7
		l0.1,0.2c0.2,0.3,0.4,0.7,0.4,1.1c0.1,0.6,1,0.6,1,0.1c0.1,0.5,0.2,1,0.3,1.5C151.3,65.2,150.4,64.2,149.8,62.9z M177.8,63.8
		c0.1-0.5,0.1-1.1,0.2-1.6c0,0,0.1-0.1,0.1-0.2c0.2-0.5,0.5-1,0.8-1.5c-0.1,0.4-0.1,0.7-0.1,0.9C178.5,62.3,178.2,63,177.8,63.8z"/>
	<path class="st6" d="M169.3,85.3c-1.1,0.5-2.3,0.7-3.5,0.5c-0.6-0.1-0.9,0.9-0.3,1c1.5,0.2,2.9,0,4.3-0.6
		C170.4,85.9,169.9,85.1,169.3,85.3z"/>
	<path class="st8" d="M162.5,66.5"/>
	<path class="st6" d="M169.4,66.4c-0.3-0.6-1.2-0.1-0.9,0.5c0.3,0.6,0.1,1.1-0.4,1.4c0-0.4-0.3-0.8-0.7-0.5c-1,0.7-2.2,0.8-3.2,0.2
		c-0.5-0.3-0.9,0.3-0.7,0.7c-0.1,0-0.2-0.1-0.3-0.2c-0.4-0.3-0.5-0.9-0.6-1.4c-0.1-0.6-1.1-0.4-1,0.3c0.1,0.8,0.4,1.5,1.1,2
		c0.6,0.4,1.3,0.5,2,0.2c0.2-0.1,0.2-0.2,0.3-0.3c0.7,0.1,1.3,0.1,2-0.2c0.1,0.1,0.2,0.3,0.4,0.3C169.1,69.6,170.1,67.9,169.4,66.4z
		"/>
	<path class="st6" d="M162.8,60.1c-1.9-1.9-4.6-1.9-6.6-0.1c0,0,0,0,0,0c0,0,0,0,0,0c0,0-0.1,0.1-0.1,0.1c-0.4,0.4,0.1,1.2,0.6,0.9
		c0,0,0.1-0.1,0.1-0.1c0.1,0,0.1-0.1,0.1-0.1c1.6-1.4,3.6-1.3,5.1,0.1C162.6,61.3,163.3,60.5,162.8,60.1z"/>
	<path class="st9" d="M171.1,72c-0.2,0-0.2-0.1-0.3-0.2c-0.2-0.3-0.6-0.2-0.8,0.1c0,0-0.1,0-0.1,0c-0.8,0.4-1.7-0.2-2.6-0.2
		c-0.6,0-1.2,0.1-1.7,0.5c0,0,0,0-0.1,0.1c0,0-0.1-0.1-0.1-0.1c-0.6-0.3-1.2-0.3-1.8-0.1c-0.7,0.2-1.3,0.5-2.1,0.4
		c-0.2-0.3-0.6-0.4-0.9,0c-0.1,0.1-0.2,0.2-0.3,0.3c-0.6,0.3-0.1,1.2,0.5,0.9c0.1,0,0.2-0.1,0.2-0.2c0.1,0,0.1,0.1,0.2,0.1
		c0.4,0,0.7,0,1.1,0c0,0.2,0,0.3,0.2,0.4c2.3,1.1,4.7,1.1,6.8-0.6c0.1-0.1,0.1-0.2,0.2-0.2c0.3,0,0.6-0.1,0.9-0.2c0,0,0,0,0,0
		c0.1,0.1,0.3,0.1,0.5,0.2C171.5,73.1,171.7,72.1,171.1,72z M164,72.9c0.3-0.1,0.6-0.1,0.9,0c0.2,0.1,0.4,0.1,0.6-0.1
		c0.1,0.2,0.4,0.3,0.6,0.1c0.5-0.4,1-0.3,1.5-0.3C166.5,73.3,165.2,73.3,164,72.9z"/>
	<path class="st6" d="M173.8,59.1c-1.9-1.9-4.6-1.9-6.6-0.1c0,0,0,0,0,0c0,0,0,0,0,0c0,0-0.1,0.1-0.1,0.1c-0.4,0.4,0.1,1.2,0.6,0.9
		c0,0,0.1-0.1,0.1-0.1c0.1,0,0.1-0.1,0.1-0.1c1.6-1.4,3.6-1.3,5.1,0.1C173.6,60.3,174.3,59.5,173.8,59.1z"/>
</g>
<g id="hair_colour">
	<path class="st10" d="M174.2,39.3c0.2-0.2,0.3-0.5,0-0.7c-0.8-0.7-1.8-1.4-2.8-1.8c0.1-0.2,0-0.4-0.2-0.6c-0.9-0.7-2.1-1.1-3.3-1.3
		c-3.7-1.2-7.6-1.6-11,0.6c-0.1-0.1-0.3-0.2-0.5-0.1c-1,0.3-2,0.7-2.9,1.1c-0.8,0.3-1.6,0.7-2.3,1.2c-0.2-0.1-0.4,0-0.6,0.2
		c-0.4,0.6-0.8,1.2-1.1,1.9c-0.8,1.1-1.4,2.3-1.4,3.8c0,0,0,0.1,0,0.1c-0.8,4.4,0.4,8.9,2.3,13.3c0.1,0.4,0.2,0.8,0.3,1.2
		c0.1,0.2,0.2,0.3,0.3,0.3c0,0.1,0,0.1,0,0.2c0.1,0.6,1.1,0.4,1-0.3c-0.3-2.4,0.6-4.8,0.3-7.2c-0.1-0.8-0.1-1.6-0.1-2.3
		c0.2-0.8,0.3-1.5,0.6-2.2c0.5-0.2,1-0.3,1.5-0.4c0.1,0.2,0.3,0.3,0.6,0.3c2.5-0.4,4.9-1,7.2-1.8c0.1,0,0.2,0,0.3,0
		c0.1,0,0.2-0.1,0.3-0.1c0.1,0.1,0.2,0.1,0.3,0.2c-0.2,0.3,0.1,0.9,0.6,0.7c0.2-0.1,0.4-0.1,0.6-0.2c0.1,0.2,0.3,0.3,0.5,0.3
		c1.2-0.2,2.4-0.6,3.4-1.1c0,0,0,0.1,0.1,0.1c-0.1,0.1-0.1,0.1-0.2,0.2c-0.3,0.3-0.1,0.9,0.4,0.9c1.5-0.2,3-1.3,4.2-2
		c0.1,0,0.1-0.1,0.1-0.1c0.2,0,0.3-0.2,0.4-0.3c0.2,0.3,0.4,0.6,0.7,0.9c0.1,0.1,0.2,0.1,0.2,0.1c0.2,0.6,0.6,1.1,1,1.6
		c0.5,2,1,3.9,1.5,5.9c0.1,0.3,0.3,0.4,0.6,0.3c0.2,0.8,0.3,1.6,0.4,2.5c0,0.1,0.1,0.2,0.1,0.3c0,0,0,0,0,0c0,0.6,1,0.6,1,0
		C178.8,49.1,178.3,43.2,174.2,39.3z M171.5,41c-0.2,0.1-0.4,0.2-0.6,0.4c0,0,0,0,0,0c0.2-0.2,0.5-0.4,0.7-0.6
		c0.4-0.3,0-0.9-0.4-0.8c0.1-0.1,0.3-0.2,0.4-0.3c0.1,0.2,0.1,0.4,0.2,0.6c0,0.3,0.1,0.6,0.2,0.9C171.9,40.9,171.7,40.9,171.5,41z"
		/>
</g>
<g id="hair_drawing">
	<path class="st11" d="M177.7,42.5c-1.2-2.9-3.4-4.8-5.8-6.7c-2.4-1.8-5-2.2-7.8-2.9c-0.1-0.1-0.2-0.2-0.3-0.3
		c-0.4-0.1-0.6-0.3-0.9-0.5c-0.5-0.5-1.2,0.3-0.7,0.7c0.1,0.1,0.3,0.2,0.4,0.3c-1.7,0.1-3.6,0-5.1,0.7c-0.6,0.3-0.9,0.7-1.4,0.9
		c-0.9,0.5-1.6,0.3-2.4,0.6c-2.3,1-4.8,2.3-5.8,4.8c-0.6,1.7-0.6,3.7-0.8,5.4c-0.2,1.5-0.2,3,0.1,4.5c0.7,4.3,3.3,8.1,4.6,12.2
		c0.2,1.5,0.4,3,0.7,4.5c0.1,0.4,0.5,0.4,0.8,0.3c0.3,0,0.5-0.3,0.5-0.6c-0.4-2.3-0.7-4.6-1-6.9c0-0.1,0-0.1,0-0.2
		c-0.1-2.1,0.4-3.9,0.6-6c0.2-2-1.5-5.3,1-6.3c0.6,0,1.1-0.1,1.7-0.3c0.8,0,1.6,0.1,2.3,0c1.4-0.2,3.8-1.2,4.9,0
		c0.1,0.1,0.3,0.2,0.5,0.1c1.3-0.5,2.5-1.2,3.9-1.2c0.3,0,0.6,0.2,1,0.2c1.5-0.2,2.7-1.3,4.1-2c2.2,2.3,2.1,5,3.4,7.9
		c1.6,3.5,0.7,7,0.7,10.6c-0.1,0.4-0.1,0.9-0.1,1.3c0,0.2,0.1,0.3,0.1,0.4c0,0.1,0,0.2,0,0.2c-0.1,0.6,0.9,0.6,1,0
		c0.2-1.8,0.3-3.5,0.5-5.3C179,53.5,179.9,48,177.7,42.5z M178,54.6c0,0.1,0,0.1,0,0.2c-0.1-0.9-0.3-1.8-0.7-2.6
		c-1.5-3.4-1.5-6.9-4.6-9.4c0,0-0.1-0.1-0.1-0.1c0.1-0.1,0.1-0.3,0-0.4c-0.7-1.2-0.9-2.4-0.8-3.7c0.1-0.6-0.9-0.6-1,0
		c-0.1,1.5,0.2,2.9,1,4.3c0.1,0.1,0.1,0.1,0.2,0.2c-0.1,0.1-0.1,0.3,0,0.4c-0.1,0.1-0.2,0.2-0.4,0.2c-0.1-0.1-0.1-0.1-0.2-0.1
		c-2.4-0.8-3.7-4.8-3.6-7.2c0-0.6-1-0.6-1,0c-0.1,2.7,1.2,6.6,3.8,7.9c-0.3,0.2-0.7,0.4-1,0.5c-0.9,0.3-1.2,0.3-1.5,0.2
		c0.2-0.2,0.2-0.4,0-0.7c-2.6-2.5-4.3-5.6-5.1-9.1c-0.1-0.6-1.1-0.4-1,0.3c0.8,3.6,2.6,6.7,5.2,9.3c-0.1,0-0.1,0-0.2,0
		c-0.3,0.1-0.5,0.2-0.8,0.3c-0.1-0.1-0.2-0.2-0.3-0.2c-2-0.5-3.1-2.1-4.2-3.7c-1-1.5-1.9-3-2.5-4.6c-0.2-0.6-1.2-0.3-1,0.3
		c0.7,2.1,1.9,4,3.1,5.8c0.5,0.8,1.1,1.5,1.8,2c-3.3-1.7-5.8-4.5-7.3-7.9c-0.3-0.6-1.1-0.1-0.9,0.5c1.2,2.8,3.1,5.1,5.5,6.9
		c-3.3-1.3-6.8-3.2-7.3-6.4c-0.1-0.6-1.1-0.4-1,0.3c0.5,3.4,4,5.5,7.4,6.9c-3.3,0.1-9.1,0-9.6-3.7c-0.1-0.6-1.1-0.4-1,0.3
		c0.5,3.4,4.7,4.2,8.2,4.4c-0.4,0.1-0.9,0.2-1.3,0.3c-0.8-0.1-1.6-0.1-2.4,0.2c-1.7-0.2-3.2-1-4.1-2.5c-0.3-0.6-1.2-0.1-0.9,0.5
		c0.8,1.4,2,2.4,3.5,2.8c0.1,0,0.2,0.1,0.4,0.1c-1.3,1.8,0.1,5-0.3,7c-0.2,1-0.3,2.1-0.3,3.1c-0.1,0-0.2,0.1-0.3,0.2
		c-0.1-0.1-0.2-0.1-0.4-0.1c0,0-0.1,0-0.1,0c-0.1,0-0.1,0-0.2,0.1c-0.5-1.2-1.1-2.4-1.6-3.6c-1.7-3.7-1.7-8.2-0.7-12.1
		c0.8-2.9,3.2-4.9,6.1-5.3c0.9-0.1,1-0.3,1.8-0.7c1.4-0.7,2.1-1.2,3.7-1.4c1.1-0.1,2.2-0.1,3.2-0.2c0.2,0,0.3-0.1,0.4-0.2
		c3,0.8,5.6,1.3,8.2,3.3c2.6,2,4.5,4.3,5.3,7.5C178.1,47.7,178.5,51.5,178,54.6z"/>
	<path class="st11" d="M174.5,56.1c-0.1-0.1-0.2-0.3-0.4-0.3c-1.8,0-3.7,0-5.5,0.4c-0.9,0.2-1.7,0.7-1.4,1.7c0,0.1,0.1,0.2,0.2,0.3
		c0,0.3,0.2,0.5,0.6,0.4c0.6-0.2,6.4-2.5,6.5-1.1c0,0.6,1,0.6,1,0C175.4,56.8,175,56.4,174.5,56.1z"/>
	<path class="st11" d="M163.3,58.1C163.3,58.1,163.3,58.1,163.3,58.1c0-0.2-0.1-0.2-0.1-0.3c-0.3-0.5-0.8-0.7-1.4-0.8
		c-0.7,0-1.5,0-2.2,0c-0.8-0.1-1.5-0.1-2.3-0.1c-1.2,0.1-2.6,0.1-3.2,1.2c-0.3,0.4,0.2,0.9,0.6,0.7c0.1,0,0.2,0,0.2-0.1
		c1.3-1,2.8-0.4,4.2-0.1c1.1,0.2,2.3,0.1,3.4,0.3c0.3,0.1,0.5-0.1,0.6-0.3C163.3,58.5,163.4,58.4,163.3,58.1z"/>
</g>
<g id="eyes">
	<g>
		<ellipse class="st12" cx="159.5" cy="61" rx="2.5" ry="1"/>
		<ellipse cx="159.5" cy="61" rx="1.2" ry="1"/>
		<ellipse class="st12" cx="158.9" cy="60.5" rx="0.6" ry="0.5"/>
	</g>
	<g>
		<ellipse transform="matrix(1 -6.553728e-03 6.553728e-03 1 -0.3896 1.1187)" class="st12" cx="170.5" cy="60" rx="2.5" ry="1"/>
		<ellipse transform="matrix(1 -6.553728e-03 6.553728e-03 1 -0.3896 1.1187)" cx="170.5" cy="60" rx="1.2" ry="1"/>
		
			<ellipse transform="matrix(1 -6.553728e-03 6.553728e-03 1 -0.3862 1.1228)" class="st12" cx="171.1" cy="59.5" rx="0.6" ry="0.5"/>
	</g>
</g>
<g id="Glasses">
	<g>
		
			<ellipse transform="matrix(0.9982 -6.057788e-02 6.057788e-02 0.9982 -3.4532 9.7506)" class="st13" cx="159.1" cy="61.8" rx="4.5" ry="3"/>
		<ellipse transform="matrix(0.9921 -0.1258 0.1258 0.9921 -6.3274 22.0046)" class="st13" cx="171.1" cy="61.1" rx="4.5" ry="3"/>
		<path class="st14" d="M163.1,62.6c-0.1-1.4,0.7-2.5,1.8-2.6s2.1,1,2.1,2.4"/>
		<rect x="163" y="60" transform="matrix(0.9982 -6.057788e-02 6.057788e-02 0.9982 -3.375 10.1086)" width="4" height="1.5"/>
		<polygon points="150,58 150,59 154.7,61.3 155,60 		"/>
		<polygon points="175.1,60 178.8,55.9 178.9,56.9 175.6,60.9 		"/>
	</g>
</g>
<g id="tshirt_colours">
	<path class="st0" d="M214.1,122.8c-0.4-0.5-0.7-1.1-1.1-1.6c0.2-0.8,0.1-1.8-0.6-2.3c-0.2-0.2-0.4-0.3-0.5-0.5c0,0,0-0.1-0.1-0.1
		c-0.1-0.5-0.3-1-0.4-1.4c-0.6-2.9-1.3-5.8-1.9-8.7c0.4-0.6,0.6-1.4,0.3-2c-0.6-1.4-0.9-2.8-1.1-4.2c-0.2-1-0.5-1.9-1.1-2.6
		c-0.2-0.9-0.3-1.9-0.5-2.8c-0.1-0.4-0.3-0.8-0.5-1.1c0-0.1,0-0.3,0-0.4c-0.1-0.8-0.4-1.4-0.9-1.8c-0.1-0.7-0.4-1.3-1.1-1.8
		c-1.4-1-2.8-1.9-4.2-2.7c-0.1-0.3-0.3-0.6-0.6-0.8c-2.3-2-5-3.5-8-4c-0.2,0-0.5,0-0.7,0c-1-0.5-2-1-3-1.3c-0.6-0.4-1.1-0.8-1.6-1.4
		c-0.7-0.8-1.5-1-2.3-0.7c-0.3-0.3-0.6-0.5-1-0.6c-1.6-1.3-4.7,0.1-4,2.6c0.5,2-2.1,4.3-4.3,5.8c-2.3,0.8-4.6,1.7-6.9,2.5
		c-0.4-0.3-0.9-0.6-1.6-0.5c-3.8,0.3-11-0.2-13-4.3c0-0.2,0-0.3,0-0.5c-0.1-1.4-1.1-2.5-2.5-2.5h-0.1c-0.8,0-1.6,0.4-2.1,1.1
		c-7.1,3.6-18,7.6-21,15.6c-3.3,9-4.1,19.6-4.8,29.1c0,0.1,0,0.2,0,0.3c-1.6,1.2-1,4.4,1.5,4.6c3.9,0.2,7.8,0.3,11.7,0.1
		c0.4,0.1,0.8,0.1,1.3,0.2c0.3,0,0.5,0,0.8,0c0.5,0.1,1,0.1,1.5,0.2c-0.4,2.1,0.2,4.7,0.3,6.7c0.1,3.4,0.3,6.8,0.6,10.2
		c0.2,2.2,0.5,4.3,0.9,6.3c-0.3,0.3-0.6,0.7-0.7,1.3c-1.3,7.6-3.2,15.4-2.1,23c-0.1,0.1-0.2,0.3-0.2,0.4c-0.3,0.2-0.5,0.4-0.7,0.8
		c-1,1.4-1.4,3.1-1.3,4.8c0,0.4,0.1,0.7,0.3,1c-0.1,0.7-0.2,1.4-0.3,2.1c-0.2,1.3,0.3,2.7,1.7,3.1c0.3,0.1,0.7,0.1,1,0
		c0.3,0.3,0.7,0.6,1.2,0.7c1.4,0.2,2.9,0.4,4.3,0.5c0.1,0.1,0.3,0.1,0.4,0.2c0.6,0.2,1.1,0.2,1.5,0c7.5,0.6,15,0.4,22.5-0.2
		c0.5,0.3,1,0.5,1.6,0.4c0.6-0.1,1.1-0.2,1.5-0.5c7.4,0.1,14.8-0.5,22-2.2c0.9,0.2,1.8,0.1,2.6-0.3c1-0.4,1.9-1.4,1.8-2.5
		c0.2-0.3,0.3-0.7,0.3-1.2c0-8.6-0.4-17.1-1-25.7c0-0.6-0.3-1.1-0.6-1.5c-0.4-3.7-0.5-7.4-0.4-11.1c0-0.6-0.2-1.2-0.5-1.5
		c0-0.4,0-0.9,0.1-1.3c0-0.5-0.1-1-0.3-1.3c0-0.1,0-0.3,0-0.4c0-0.6,0-1.3-0.2-1.9c0.1-4.8,0.4-9.6,0.8-14.4
		c4.4-1.3,8.9-2.5,13.4-3.5C212.5,127.3,215.7,125.1,214.1,122.8z"/>
	<path class="st1" d="M193.3,124.3c0-0.5,0.1-1,0.1-1.4c0.4-3.3,0.6-6.6,0.6-10c0-0.3-0.3-0.5-0.5-0.5c0,0,0,0,0,0
		c-0.5-0.6-2.2-0.4-2.8-0.5c-1.9-0.1-3.9-0.3-5.8-0.4c-1.5-0.1-3.4-0.5-4.9-0.3c-0.3-0.3-0.9-0.3-0.9,0.3c0,0.1,0,0.3,0,0.4
		c-0.2,0.7-0.3,1.4-0.3,2.2c0,0.1-0.1,0.2-0.1,0.3c-0.2,2.4-0.6,5.2-0.4,7.7c0,0,0,0-0.1,0c-0.9,0.9-0.6,2.6-0.1,3.7
		c0.3,0.7,0.8,1.4,1.5,1.7c1.6,1.5,3.6,2.7,5.5,3.6c0.3,0.1,0.5,0.2,0.8,0.3c0,0,0.1,0,0.1,0.1c0,0,0.1,0,0.1,0c0,0,0,0,0,0
		c0,0,0,0,0,0c0.5,0.2,0.9,0.3,1.3,0.2c0.1,0.1,0.3,0.2,0.6,0.1c0.3-0.2,0.6-0.4,0.8-0.6c0.6-0.3,1.2-0.7,1.7-1.2
		c1.1-0.8,2.1-1.8,2.5-3.2c0.3-0.6,0.5-1.3,0.6-2.1C193.6,124.6,193.5,124.4,193.3,124.3z"/>
</g>
<g id="tshirt_drawing">
	<path class="st15" d="M139,125.1c-3.3-6.1-6.7-12.2-10-18.4c-0.3-0.6-1.2-0.1-0.9,0.5c3.3,6.1,6.7,12.2,10,18.4
		C138.5,126.2,139.3,125.7,139,125.1z"/>
	<path class="st15" d="M133.7,123.4c-3-3.7-4.9-7.9-5.7-12.5c-0.1-0.6-1.1-0.4-1,0.3c0.9,4.8,2.9,9.2,6,13
		C133.4,124.6,134.1,123.9,133.7,123.4z"/>
	<path class="st15" d="M133.2,129.4c-1.2-2-2.3-4.1-3.3-6.2c-0.5-1-0.9-2-1.4-3c-0.5-1.1-1.9-3.3-1.5-4.6c0.2-0.6-0.8-0.9-1-0.3
		c-0.6,1.8,1,4.2,1.7,5.8c1.3,3,2.8,5.9,4.5,8.7C132.6,130.4,133.5,129.9,133.2,129.4z"/>
	<path class="st15" d="M215.1,125.2c-2-5.6-3.6-11.3-4.8-17.1c-1.1-5.4-1.7-11.2-4.2-16.2c-1-1.9-2.8-2.2-4.4-3.5
		c-1.9-1.5-3.9-2.7-6.1-3.8c-5.2-2.5-10.6-4.5-15.9-6.7c-0.1-0.1-0.1-0.1-0.2-0.2c-0.1-0.1-0.1-0.1-0.2-0.1
		c-0.1-0.1-0.1-0.3-0.2-0.4c-0.3-0.6-1.2-0.1-0.9,0.5c3.9,6.5-5.2,11-10.3,11.9c-2.7,0.4-5.5,0.4-8.1-0.4c-1.3-0.4-2.5-0.9-3.6-1.7
		c-0.7-0.5-1.4-1.2-1.9-1.9c-0.3-0.3-0.5-0.7-0.6-1.1c-0.3-0.6-0.4-1.2-0.3-1.9c0.1-0.1,0.2-0.2,0.4-0.4c0,0,0.1,0,0.1,0
		c0,0,0,0,0,0c0,0,0.1,0,0.1,0c0.3-0.1,0.5-0.5,0.2-0.8c0-0.1-0.1-0.1-0.1-0.2c-0.1-0.1-0.3-0.2-0.5-0.1c-0.2,0.1-0.3,0.1-0.5,0.2
		c-0.5,0.1-0.9,0.3-1.3,0.7c0,0,0,0,0,0c-0.3,0.1-0.7,0.2-1,0.3c-0.1-0.1-0.4-0.2-0.6-0.1c-5.1,2.2-9.8,5-14.3,8.3
		c-1.9,1.3-4.3,2.2-6,3.7c-1.4,1.2-2,3.1-2.5,4.8c-3.3,11-4.9,22.6-5.2,34.1c0,0.3,0.2,0.5,0.5,0.5c0,0,0.1,0,0.1,0
		c5.8,0.3,11.5,0.8,17.3,1.4c-0.3,2.7-0.6,5.3-0.4,8c0,0.2,0.1,0.3,0.2,0.4c0,2.1,0.1,4.1,0.5,6.2c0.1,0.3,0.3,0.4,0.5,0.3
		c-0.2,2.5-0.1,5,0.4,7.4c-3.4,7.2-3.7,15.2-3.6,23c0,0.2,0.1,0.3,0.2,0.4c0,0.4-0.1,0.8-0.1,1.2c-0.6,1.2-1.2,2.5-1.5,3.8
		c-0.5,2.4-0.5,4.9-0.5,7.3c0,0.1,0,0.2,0.1,0.3c0,0.1,0,0.2,0,0.3c0.1,0.5,0.7,0.4,0.9,0.1c1,0.5,2.1,0.8,3.2,0.9
		c0.2,0,0.3,0,0.4-0.1c0,0,0,0,0,0c1.4,0.4,2.7,0.7,4.1,1c2.4,0.4,4.8,0.6,7.3,0.7c5.7,0.1,11.5,0,17.2-0.3c5.7-0.3,11.4-0.8,17-1.5
		c2.6-0.3,5.3-0.7,7.9-1c1.7-0.3,4.3-0.1,5.5-1.6c0.3,0.1,0.6-0.1,0.6-0.5c-0.5-5-1-10.1-0.8-15.1c0.1-2.4,0.5-4.7,0.4-7.1
		c-0.1-1.9-0.5-3.7-0.8-5.6c-0.4-2.3-0.7-4.5-1.1-6.7c0.3,0.2,0.9,0.1,0.8-0.3c-1.2-8.8-0.9-17.6-0.6-26.4c4.7-1.3,9.5-2.4,14.3-3.5
		c0,0.2,0,0.4,0,0.5c0,0.4,0.4,0.6,0.8,0.4c0.8-0.4,1.3-0.9,1.7-1.7c0-0.1,0.1-0.1,0.1-0.2C214.7,126,215.2,125.7,215.1,125.2z
		 M152.3,84c0.3,1.4,1.3,2.8,2,3.5c2.9,2.8,7.1,3.7,11,3.5c5.6-0.2,16-4.4,14.6-11.2c1.8,2.7-1.4,6.9-3.4,8.6
		c-2.1,1.8-4.7,3.1-7.4,3.6c-3,0.6-6.1,0.2-9-0.7c-1.6-0.5-3-1.2-4.4-2.1c-0.8-0.5-1.5-1-2.2-1.6c-0.2-0.2-0.4-0.3-0.6-0.5
		C151.8,86.1,151.6,85.1,152.3,84z M140.2,132.6c0,0.5-0.1,1-0.1,1.5c-5.7-0.6-11.3-1-17-1.4c0.3-10.6,1.8-21.2,4.6-31.5
		c0.4-1.4,0.7-2.7,1.3-3.9c0,0,0,0.1,0,0.1c2.1,4.2,3.4,8.7,5.1,13c1.5,3.9,3.4,7.6,5.5,11.2C140.1,125.3,140.5,128.9,140.2,132.6z
		 M141.5,159.2c0.6,2.3,1.4,4.6,2.3,6.9c-0.7,1.2-1.3,2.2-1.6,3.7c-0.4,1.9-0.7,3.4-1.7,5.1c-0.5,1-1,1.9-1.3,2.8
		c-0.2,0-0.4,0.2-0.4,0.5c0,0.6-0.2,1.1-0.3,1.6C138.4,172.8,138.7,165.7,141.5,159.2z M213.8,125.2c-5.4,1.1-10.8,2.4-16.2,3.8
		c0.2-3.6,0.3-7.2,0.4-10.8c0.1,0,0.1-0.1,0.2-0.1c2.8-3.9,5.4-7.8,5.8-12.7c0.1-0.6-0.9-0.6-1,0c-0.3,4.3-2.5,7.8-5,11.2
		c0-0.6,0-1.2,0-1.7c0.2,0,0.3-0.1,0.4-0.3c2.6-7.2,4.3-14.6,5.1-22.1c0.1-0.6-0.9-0.6-1,0c-0.8,6.9-2.3,13.6-4.5,20.2
		c0-1.5,0-3.1-0.1-4.6c0-0.6-1-0.6-1,0c0.5,15.6-1.9,31.2-0.1,46.8c-0.3-1.6-0.7-3.3-1.2-4.9c-1.5-5.1-1.8-10.4-2.1-15.7
		c0-0.6-1-0.6-1,0c0.3,4.8,0.5,9.6,1.7,14.3c1.1,4.6,2.2,8.9,2.9,13.5c0.3,2.4,0.9,4.7,1.1,7.1c0.1,2.4-0.2,4.7-0.4,7.1
		c-0.2,4.9,0.2,9.8,0.7,14.7c-0.1,0-0.1,0.1-0.2,0.1c-0.9,1.1-3.3,1.1-4.6,1.3c-1.7,0.3-3.5,0.5-5.2,0.7c-2.9,0.4-5.8,0.7-8.7,1
		c-6.2,0.6-12.3,1-18.5,1.1c-5.9,0.2-12,0.4-17.8-0.8c-1.4-0.3-2.8-0.6-4.1-1.1c-0.8-0.2-1.9-0.9-2.7-0.9c-0.1,0-0.1,0-0.1,0
		c0-2.8,0-5.6,1-8.2c0.2-0.6,0.5-1.2,0.7-1.7c0.1-0.1,0.1-0.2,0.2-0.3l0,0c0,0,0-0.1,0.1-0.1c0.2-0.1,0.3-0.3,0.2-0.5c0,0,0,0,0,0
		c0.3-0.7,0.6-1.4,0.8-2.2c0.1-0.1,0.2-0.1,0.2-0.3c0.5-2,1.7-3.6,2.5-5.5c0.6-1.5,0.6-3,1.1-4.5c0.5-1.6,1.6-2.9,2.2-4.5
		c0.7-1.7,0.5-3.6,0.4-5.4c0-0.6-1-0.6-1,0c0.1,2,0.1,3.8-0.6,5.6c-0.7-1.7-1.3-3.5-1.8-5.2c0.1-0.1,0.1-0.1,0.1-0.2
		c3.1-8.8,5.2-17.9,6.2-27.1c0.1-0.6-0.9-0.6-1,0c-1,8.7-2.9,17.3-5.8,25.6c-0.7-3.5-0.9-7.1,0-10.7c0.2-0.6-0.8-0.9-1-0.3
		c-0.1,0.4-0.2,0.8-0.3,1.2c-0.2-1.9-0.3-3.8-0.2-5.7c0-0.2-0.1-0.4-0.3-0.4c0-3.3,0.5-6.6,0.7-9.9c0.2-3.3-0.1-6.6-0.6-9.9
		c0.1-0.1,0.2-0.3,0.1-0.6c-0.1-0.1-0.1-0.2-0.2-0.3c-1.2-7.4-2.4-14.8-3.6-22.2c-0.1-0.6-1.1-0.4-1,0.3c1.1,6.5,2.1,13,3.2,19.5
		c-1.8-3.3-3.4-6.7-4.7-10.3c-1.4-3.9-2.7-7.9-4.6-11.6c-0.1-0.2-0.3-0.3-0.5-0.2c0.5-0.9,1.3-1.8,2.3-2.4c1.9-1.2,3.9-2.2,5.7-3.6
		c3.6-2.6,7.3-4.8,11.3-6.6c0.1,0,0.2,0.1,0.3,0c0.6-0.2,1.2-0.4,1.9-0.7c0,0.1-0.1,0.2-0.1,0.2c-0.4,1.8,0.8,3.4,2,4.5
		c3.8,3.3,9.1,5.2,14.2,5c4.3-0.2,8.6-2.1,11.5-5.4c1.9-2.1,3.7-5.6,2.5-8.1c4.6,1.9,9.2,3.7,13.7,5.8c2.4,1.1,4.5,2.4,6.6,4
		c0.7,0.6,1.3,0.9,2.1,1.4c1.8,1.1,2.2,2,2.9,4c1.8,4.8,2.3,10,3.4,15c1.2,5.2,2.7,10.4,4.4,15.4
		C213.9,125.2,213.9,125.2,213.8,125.2z"/>
	<path class="st15" d="M206.6,106.4c-2.4,6.8-5.2,13.5-8.3,20c-0.3,0.6,0.6,1.1,0.9,0.5c3.1-6.6,5.9-13.3,8.4-20.2
		C207.8,106.1,206.9,105.8,206.6,106.4z"/>
	<path class="st15" d="M197.5,92.6c-1,1.5-0.8,3.4-0.9,5.2c-0.1,2.8-0.2,5.6-0.3,8.4c0,0.6,1,0.6,1,0c0.1-2.1,0.2-4.3,0.3-6.4
		c0.1-1.9-0.3-5,0.8-6.6C198.7,92.6,197.9,92.1,197.5,92.6z"/>
	<path class="st15" d="M194.6,120.6c0.1-3,0.2-6,0.2-9c0-0.5-0.7-0.6-0.9-0.3c-5,0.1-10-0.7-15-1.2c-0.2,0-0.3,0.1-0.4,0.2
		c-0.2,0-0.4,0.2-0.4,0.5l-0.4,8.6c-0.1,2.1-0.8,4.9-0.2,7c0.4,1.7,2.2,2.4,3.5,3.2c1.2,0.8,2.3,1.5,3.5,2.3
		c0.6,0.4,1.6,1.3,2.4,1.4c1.4,0,3-1.6,4.1-2.3c1.2-0.8,2.8-1.4,3.3-2.8C194.9,125.9,194.5,122.8,194.6,120.6z M193.8,112.3
		c0,0.7,0,1.4,0,2.1c-2.4,0.1-4.8,0-7.3-0.1c-2.4-0.1-5.2,0-7.3-1.4c-0.1-0.1-0.2-0.1-0.2-0.1c0-0.6,0.1-1.1,0.1-1.7
		C183.9,111.6,188.8,112.4,193.8,112.3z M193.3,126.7c-0.3,1.4-0.9,2-2.1,2.9c-0.7,0.5-1.5,1-2.3,1.5c-1.2,0.8-1.5,1.3-3.2,0.5
		c-1.6-0.8-3.2-2.1-4.7-3.1c-1.1-0.7-2.4-1.3-2.7-2.8c-0.2-0.7,0.1-1.7,0.1-2.5c0.2-3.1,0.3-6.2,0.5-9.3c1.7,1,3.7,1.1,5.6,1.3
		c3.1,0.2,6.1,0.3,9.2,0.2c0,2.7-0.1,5.3-0.2,8C193.4,124.4,193.5,125.6,193.3,126.7z"/>
</g>
</svg>
