<svg xmlns="http://www.w3.org/2000/svg" xmlns:xlink="http://www.w3.org/1999/xlink" viewBox="0 0 157.98 159.97"><defs><style>.cls-1,.cls-4{fill:#edc25b;}.cls-1{stroke:#edc25b;stroke-width:0.98px;}.cls-1,.cls-10,.cls-11,.cls-13,.cls-14,.cls-15,.cls-16,.cls-4,.cls-5,.cls-6,.cls-7,.cls-9{stroke-miterlimit:10;}.cls-2{fill:#4365aa;}.cls-3{fill:url(#linear-gradient);}.cls-14,.cls-4{stroke:#d8d8d8;}.cls-4{stroke-width:6.78px;}.cls-10,.cls-11,.cls-13,.cls-14,.cls-15,.cls-16,.cls-5,.cls-6,.cls-7,.cls-9{fill:none;}.cls-5,.cls-7{stroke:#f9f9f9;}.cls-5{stroke-width:4.11px;}.cls-6{stroke:#000;stroke-width:0.48px;}.cls-7{stroke-width:4.05px;}.cls-8{fill:#d8d8d8;}.cls-10,.cls-11,.cls-13,.cls-9{stroke:#4365aa;}.cls-9{stroke-width:0.97px;}.cls-10{stroke-width:1px;}.cls-11{stroke-width:0.99px;}.cls-12{fill:#114aa5;}.cls-13{stroke-width:1.27px;}.cls-14{stroke-width:1.05px;}.cls-15,.cls-16{stroke:#114aa5;}.cls-15{stroke-width:1.42px;}.cls-16{stroke-width:0.31px;}</style><linearGradient id="linear-gradient" x1="152.92" y1="19.83" x2="40.6" y2="111.23" gradientUnits="userSpaceOnUse"><stop offset="0" stop-color="#fff"/><stop offset="0.18" stop-color="#faedcd"/><stop offset="0.36" stop-color="#f5dda4"/><stop offset="0.54" stop-color="#f2d184"/><stop offset="0.7" stop-color="#efc96d"/><stop offset="0.86" stop-color="#eec460"/><stop offset="1" stop-color="#edc25b"/></linearGradient></defs><title>Draught_proofing_icon</title><g id="Layer_1" data-name="Layer 1"><ellipse class="cls-1" cx="78.99" cy="79.98" rx="78.5" ry="79.49"/><ellipse class="cls-2" cx="78.99" cy="80.05" rx="73.5" ry="74.43"/><ellipse class="cls-3" cx="78.99" cy="79.99" rx="72" ry="73"/></g><g id="icon"><rect class="cls-4" x="27.45" y="37.99" width="72.26" height="76.99"/><rect class="cls-5" x="101.57" y="40.02" width="32.42" height="36.47"/><rect class="cls-5" x="101.57" y="77.5" width="32.42" height="36.47"/><rect class="cls-6" x="26.99" y="38.5" width="72.26" height="76.99"/><rect class="cls-5" x="28.38" y="39" width="32.42" height="36.47"/><rect class="cls-7" x="28.38" y="78.51" width="32.42" height="35.45"/><ellipse class="cls-8" cx="59.88" cy="77.5" rx="2.78" ry="3.04"/><rect class="cls-2" x="63.58" y="113.96" width="35.2" height="2.03"/><rect class="cls-2" x="63.58" y="37.99" width="35.2" height="2.03"/><rect class="cls-2" x="61.88" y="77.07" width="75.97" height="1.85" transform="translate(175.86 -22.88) rotate(90)"/><rect class="cls-9" x="31.16" y="81.55" width="27.79" height="30.39"/><rect class="cls-10" x="30.7" y="41.54" width="27.79" height="32.42"/><rect class="cls-10" x="103.88" y="42.55" width="27.79" height="32.42"/><rect class="cls-11" x="103.88" y="80.03" width="27.79" height="31.91"/><path class="cls-12" d="M76.88,134.69a6.55,6.55,0,0,1-3.8-2.21,7.7,7.7,0,0,1-.86-1.28,10.51,10.51,0,0,1-.6-1.44,3,3,0,0,1,.75-3.32c.61-.49,0-1.61-.6-1.12a4,4,0,0,0-.59.59.52.52,0,0,0-.61.13A5.75,5.75,0,0,0,69.12,131a5.66,5.66,0,0,0,1.3,3.46.67.67,0,0,0,.06.35,3.91,3.91,0,0,0,5.93,1.63.63.63,0,0,0,.26-.48C77.34,135.94,77.59,134.84,76.88,134.69Z" transform="translate(-2.01 -1.01)"/><path class="cls-13" d="M77.74,129c1.83,3.8,1.2,8.1-1.41,9.6s-6.2-.36-8-4.16-1.2-8.1,1.41-9.6S75.91,125.19,77.74,129Z" transform="translate(-2.01 -1.01)"/><path class="cls-2" d="M84.62,139.38a1.1,1.1,0,0,1-.19-1.52,14.28,14.28,0,0,0-4.1-15,.55.55,0,0,0-.52-.12.54.54,0,0,0-.48-.3,48.23,48.23,0,0,0-6.74.31l-.82-.05a.47.47,0,0,0-.44.22l-1.28.18c-.67.11-.49,1.11.09,1.24a.53.53,0,0,0,.51.32l3.32-.06a.77.77,0,0,0,0,.31,2.42,2.42,0,0,0-.85.22,4,4,0,0,0-1.9,4,7.09,7.09,0,0,0,2.92,5c1,.73,3.05,1.8,4.23,1a.66.66,0,0,0,.29-.56v-.24a.66.66,0,0,0-.44-.62l-.18-.06a.52.52,0,0,0-.68.39l-.53-.07a5.4,5.4,0,0,1-.94-.3,5.85,5.85,0,0,1-2.41-1.94,5,5,0,0,1-1-3,1.91,1.91,0,0,1,1-2,1.22,1.22,0,0,1,2.05.56c.32.76,1.34.1,1-.65a3,3,0,0,0-.2-.38h0s0,0,0,0a7,7,0,0,0,2.1,2.51l0,.4a.7.7,0,0,0-.12.54l.16.93a.73.73,0,0,0,0,.34,7.94,7.94,0,0,0,.25,1.43l.5,2.85a.64.64,0,0,0,0,.09c-.06.26-.14.52-.21.78a10.16,10.16,0,0,1-1.22,2.12.73.73,0,0,0-.09.18l-1.31,0a.54.54,0,0,0-.54.46l-1.44.09-.38-.22c-.67-.39-1.27.73-.6,1.12l.51.3a.45.45,0,0,0,.12.07c3.3,2,6.61,4.23,10.05,5.84A41,41,0,0,1,92,144.09,29.78,29.78,0,0,1,84.62,139.38Z" transform="translate(-2.01 -1.01)"/><path class="cls-14" d="M77.23,129.23c1.55,3.21,1,6.84-1.19,8.11s-5.25-.31-6.79-3.52-1-6.84,1.19-8.11S75.68,126,77.23,129.23Z" transform="translate(-2.01 -1.01)"/><path class="cls-15" d="M78.53,128.58c2.11,4.38,1.4,9.32-1.58,11s-7.11-.44-9.22-4.82-1.4-9.32,1.58-11S76.42,124.2,78.53,128.58Z" transform="translate(-2.01 -1.01)"/><line class="cls-16" x1="69.23" y1="121.63" x2="77.53" y2="121.63"/><path class="cls-16" d="M84.8,139.53l-1.11-.7-8.3,2.11,8.3,4.85,3.33-.71c1-.25,2-.44,2.94-.63l1.94-.42A29.78,29.78,0,0,1,84.8,139.53Z" transform="translate(-2.01 -1.01)"/><path class="cls-12" d="M79.82,122.06c-.73-.25-1,1-.32,1.25,5.27,1.83,5.64,10.3,4,15a.6.6,0,1,0,1.14.34C86.55,133.21,85.72,124.11,79.82,122.06Z" transform="translate(-2.01 -1.01)"/></g></svg>