<svg xmlns="http://www.w3.org/2000/svg" xmlns:xlink="http://www.w3.org/1999/xlink" viewBox="0 0 157.98 159.97"><defs><style>.cls-1{fill:#edc25b;stroke:#edc25b;stroke-width:0.98px;}.cls-1,.cls-10,.cls-11,.cls-13,.cls-6,.cls-7,.cls-8,.cls-9{stroke-miterlimit:10;}.cls-2,.cls-6,.cls-9{fill:#4365aa;}.cls-3{fill:url(#linear-gradient);}.cls-4{fill:#e5a82e;}.cls-5{fill:#fff;}.cls-10,.cls-13,.cls-6,.cls-7,.cls-8,.cls-9{stroke:#f9f9f9;}.cls-6,.cls-7{stroke-width:0.97px;}.cls-10,.cls-11,.cls-13,.cls-7{fill:none;}.cls-12,.cls-8{fill:#f9f9f9;}.cls-8{stroke-width:2.42px;}.cls-13,.cls-9{stroke-width:0.97px;}.cls-10{stroke-width:1.94px;}.cls-11{stroke:#4365aa;stroke-width:0.49px;}</style><linearGradient id="linear-gradient" x1="152.92" y1="19.83" x2="40.6" y2="111.23" gradientUnits="userSpaceOnUse"><stop offset="0" stop-color="#fff"/><stop offset="0.18" stop-color="#faedcd"/><stop offset="0.36" stop-color="#f5dda4"/><stop offset="0.54" stop-color="#f2d184"/><stop offset="0.7" stop-color="#efc96d"/><stop offset="0.86" stop-color="#eec460"/><stop offset="1" stop-color="#edc25b"/></linearGradient></defs><title>External_internal_wall_insulation_icon</title><g id="Layer_1" data-name="Layer 1"><ellipse class="cls-1" cx="78.99" cy="79.98" rx="78.5" ry="79.49"/><ellipse class="cls-2" cx="78.99" cy="80.05" rx="73.5" ry="74.43"/><ellipse class="cls-3" cx="78.99" cy="79.99" rx="72" ry="73"/></g><g id="icon"><path class="cls-4" d="M44.29,53.32c-.16-2.2-3.19-2.47-3.77-.77a1.89,1.89,0,0,0-.3,1.05l-.09,59.18a1.93,1.93,0,0,0,3.87,0q0-26.3.08-52.59s0-.09,0-.14A34,34,0,0,0,44.29,53.32Z" transform="translate(-2.01 -1.01)"/><path class="cls-4" d="M123.16,52.5c-.11-2.5-4-2.52-3.87,0,0,.86.06,1.72.09,2.58a1.84,1.84,0,0,0-1,1.63q-.28,8.78.2,17.52a2.24,2.24,0,0,0,0,.37l.24,7.18a2.21,2.21,0,0,0-.15.8c-.08,4.76,0,9.5.36,14.25a2,2,0,0,0,.32,1q-.24,6.14-.6,12.29a2,2,0,0,0-.38,1.56l.28,1.79c.36,2.29,3.66,1.55,3.8-.52A554.82,554.82,0,0,0,123.16,52.5Z" transform="translate(-2.01 -1.01)"/><path class="cls-5" d="M118,112.76q-4.34-5.76-8.62-11.55a2.09,2.09,0,0,0-.39-.82c-1.72-2.24-3.39-4.51-5-6.8a2.58,2.58,0,0,0-1.3-2.29h4.72V91h.24V42.24l-.24.22V42H56.13V89.71L54.68,91h1.45v.24H60.2l-.1.09A1.76,1.76,0,0,0,59,92.9C56.56,95,54.91,98,53.08,100.56l-8.57,12.11c-1.4,2,1.66,3.84,3.17,2.17a2.17,2.17,0,0,0,2.73,0c.45,1.28,2,2.12,3,.78l.6-.77c.57,1.1,2,1.71,2.94.49l.56-.73c.51,1.19,2,1.91,3,.64l.47-.62a2.07,2.07,0,0,0,3.68.75c.29-.41.58-.82.86-1.23h.24a1.82,1.82,0,0,0,1.14.35l42.94-.41a1.87,1.87,0,0,0,1.25-.44l.14.19a2.09,2.09,0,0,0,3,.37l.35.47C116.13,116.7,119.48,114.76,118,112.76Z" transform="translate(-2.01 -1.01)"/><polyline class="cls-6" points="116.64 112.98 116.64 50.99 101.17 42.2 101.17 90.53 116.64 112.98"/><polyline class="cls-6" points="42.04 112.73 42.04 50.74 57.5 41.96 57.5 90.28 42.04 112.73"/><polyline class="cls-7" points="37.69 112.25 37.69 49.28 53.15 41.96"/><polyline class="cls-7" points="121.28 112.25 121.28 49.28 105.81 41.96"/><polygon class="cls-8" points="31.41 50.06 126.11 50.06 78.76 11.99 31.41 50.06"/><rect class="cls-6" x="31.89" y="50.55" width="5.8" height="61.5"/><rect class="cls-9" x="121.76" y="50.55" width="5.8" height="61.5"/><rect class="cls-10" x="31.41" y="112.54" width="95.67" height="1.95"/><line class="cls-7" x1="31.89" y1="55.43" x2="37.69" y2="55.43"/><line class="cls-7" x1="31.89" y1="61.29" x2="37.69" y2="61.29"/><line class="cls-7" x1="31.89" y1="66.17" x2="37.69" y2="66.17"/><line class="cls-7" x1="31.89" y1="72.03" x2="37.69" y2="72.03"/><line class="cls-7" x1="31.89" y1="76.91" x2="37.69" y2="76.91"/><line class="cls-7" x1="31.89" y1="81.79" x2="37.69" y2="81.79"/><line class="cls-7" x1="31.89" y1="85.69" x2="37.69" y2="85.69"/><line class="cls-7" x1="31.89" y1="90.57" x2="37.69" y2="90.57"/><line class="cls-7" x1="31.89" y1="94.48" x2="37.69" y2="94.48"/><line class="cls-7" x1="31.89" y1="98.38" x2="37.69" y2="98.38"/><line class="cls-7" x1="31.89" y1="102.29" x2="37.69" y2="102.29"/><line class="cls-7" x1="31.89" y1="107.17" x2="37.69" y2="107.17"/><line class="cls-7" x1="34.79" y1="50.55" x2="34.79" y2="55.43"/><line class="cls-7" x1="34.79" y1="61.29" x2="34.79" y2="66.17"/><line class="cls-7" x1="34.79" y1="72.03" x2="34.79" y2="76.91"/><line class="cls-7" x1="34.79" y1="81.79" x2="34.79" y2="85.69"/><line class="cls-7" x1="34.79" y1="90.57" x2="34.79" y2="94.48"/><line class="cls-7" x1="34.79" y1="98.38" x2="34.79" y2="102.29"/><line class="cls-7" x1="34.79" y1="107.17" x2="34.79" y2="113.03"/><line class="cls-7" x1="121.76" y1="55.43" x2="127.56" y2="55.43"/><line class="cls-7" x1="121.76" y1="60.31" x2="127.56" y2="60.31"/><line class="cls-7" x1="121.76" y1="65.19" x2="127.56" y2="65.19"/><line class="cls-7" x1="121.76" y1="70.07" x2="127.56" y2="70.07"/><line class="cls-7" x1="121.76" y1="74.95" x2="127.56" y2="74.95"/><line class="cls-7" x1="121.76" y1="79.84" x2="127.56" y2="79.84"/><line class="cls-7" x1="121.76" y1="83.74" x2="127.56" y2="83.74"/><line class="cls-7" x1="121.76" y1="87.65" x2="127.56" y2="87.65"/><line class="cls-7" x1="121.76" y1="91.55" x2="127.56" y2="91.55"/><line class="cls-7" x1="121.76" y1="96.43" x2="127.56" y2="96.43"/><line class="cls-7" x1="121.76" y1="101.31" x2="127.56" y2="101.31"/><line class="cls-7" x1="121.76" y1="107.17" x2="127.56" y2="107.17"/><line class="cls-7" x1="124.66" y1="50.55" x2="124.66" y2="55.43"/><line class="cls-7" x1="124.66" y1="60.31" x2="124.66" y2="65.19"/><line class="cls-7" x1="124.66" y1="70.07" x2="124.66" y2="74.95"/><line class="cls-7" x1="124.66" y1="79.84" x2="124.66" y2="83.74"/><line class="cls-7" x1="124.66" y1="87.65" x2="124.66" y2="91.55"/><line class="cls-7" x1="124.66" y1="96.43" x2="124.66" y2="101.31"/><line class="cls-7" x1="124.66" y1="107.17" x2="124.66" y2="112.05"/><line class="cls-11" x1="56.05" y1="90.57" x2="103.4" y2="90.57"/><line class="cls-11" x1="28.99" y1="51.53" x2="129.49" y2="51.53"/><polygon class="cls-12" points="32.96 120.35 30.39 120.3 31.72 118.15 33.05 116.01 34.28 118.21 35.52 120.41 32.96 120.35"/><line class="cls-13" x1="32.86" y1="119.37" x2="32.86" y2="134.99"/><line class="cls-13" x1="39.62" y1="119.37" x2="39.62" y2="134.99"/><line class="cls-13" x1="46.38" y1="119.37" x2="46.38" y2="134.99"/><polygon class="cls-12" points="39.72 120.35 37.16 120.3 38.48 118.15 39.81 116.01 41.05 118.21 42.28 120.41 39.72 120.35"/><polygon class="cls-12" points="46.48 120.35 43.92 120.3 45.25 118.15 46.58 116.01 47.81 118.21 49.05 120.41 46.48 120.35"/></g></svg>