<svg xmlns="http://www.w3.org/2000/svg" xmlns:xlink="http://www.w3.org/1999/xlink" viewBox="0 0 157.98 159.97"><defs><style>.cls-1,.cls-4{fill:#edc25b;}.cls-1{stroke:#edc25b;}.cls-1,.cls-10,.cls-3,.cls-4,.cls-5,.cls-8{stroke-miterlimit:10;}.cls-1,.cls-5,.cls-8{stroke-width:0.98px;}.cls-2{fill:url(#linear-gradient);}.cls-3{fill:#fffefd;stroke:#fff;stroke-width:2.81px;}.cls-4{stroke:#fcfcfc;stroke-width:2.68px;}.cls-10,.cls-5{fill:none;}.cls-10,.cls-5,.cls-8{stroke:#4365aa;}.cls-6,.cls-7,.cls-8{fill:#4365aa;}.cls-7{font-size:8.48px;}.cls-7,.cls-9{font-family:Arial-Black, Arial Black;}.cls-9{font-size:21.68px;fill:#fcfbfa;}.cls-10{stroke-width:2.81px;}</style><linearGradient id="linear-gradient" x1="152.92" y1="19.83" x2="40.6" y2="111.23" gradientUnits="userSpaceOnUse"><stop offset="0" stop-color="#fff"/><stop offset="0.18" stop-color="#faedcd"/><stop offset="0.36" stop-color="#f5dda4"/><stop offset="0.54" stop-color="#f2d184"/><stop offset="0.7" stop-color="#efc96d"/><stop offset="0.86" stop-color="#eec460"/><stop offset="1" stop-color="#edc25b"/></linearGradient></defs><title>Hydrogen_boilers_icon</title><g id="Layer_1" data-name="Layer 1"><ellipse class="cls-1" cx="78.99" cy="79.98" rx="78.5" ry="79.49"/><ellipse class="cls-2" cx="78.99" cy="79.99" rx="72" ry="73"/></g><g id="icon"><rect class="cls-3" x="46.99" y="18.49" width="63.5" height="108.42" rx="12" ry="12"/><rect class="cls-4" x="71.27" y="126.99" width="14.94" height="27"/><rect class="cls-5" x="64.73" y="110.22" width="27.08" height="12.26" rx="6.13" ry="6.13"/><rect class="cls-5" x="61.93" y="107.4" width="33.62" height="17.91" rx="8.96" ry="8.96"/><path class="cls-6" d="M97.14,117a.72.72,0,0,0,0-.22,8.42,8.42,0,0,0-.42-3.44,1,1,0,0,0-1-.64.94.94,0,0,0,0-1.62,35,35,0,0,0-5.32-2.5.77.77,0,0,0-.91.24,112.8,112.8,0,0,0-11.69-.61.84.84,0,0,0-.85.62,24.77,24.77,0,0,0-6.84.18.77.77,0,0,0-.52.36.94.94,0,0,0-.45.09,9.18,9.18,0,0,0-.9.5.88.88,0,0,0-.22.08A7,7,0,0,0,66,112l-.09.1a1,1,0,0,0-.09.18,6.83,6.83,0,0,0-.61,1.19,6.08,6.08,0,0,0-.51,1.11.88.88,0,0,0-.47.77,11.19,11.19,0,0,0,.08,1.78c-.76,12.64,18.78,9.08,26.06,8.79a.88.88,0,0,0,.63-.28,7.26,7.26,0,0,0,1.64-.54l.76-.29h0l.23-.09a.73.73,0,0,0,.42-1A9.38,9.38,0,0,0,97.54,118,.93.93,0,0,0,97.14,117ZM94.08,117v1.49a.88.88,0,0,0-.45.39,25.79,25.79,0,0,1-2.33,3.4.94.94,0,0,0-.21.46,19,19,0,0,1-3.42.92.74.74,0,0,0-.84-.55,83.15,83.15,0,0,1-10.24.42,20.41,20.41,0,0,1-6-.69c-2.74-.82-4.13-3-4.46-5.75,0,0,0-.07,0-.11a.89.89,0,0,0,0-.27.72.72,0,0,0,.42-.58A7.46,7.46,0,0,1,66.8,115L69,112.83a.85.85,0,0,0,.22-.88l.12-.06a.76.76,0,0,0,.41-.52h0a1,1,0,0,0,.32.06,39.53,39.53,0,0,0,7.59-.49.82.82,0,0,0,.33-.13c.83.07,1.65.13,2.49.16,2.69.09,5.39,0,8.08-.14a.88.88,0,0,0,.13.11l4,2.23a1,1,0,0,0,.12.43,12.69,12.69,0,0,1,1,1.83,6.73,6.73,0,0,0,.45,1.25A.91.91,0,0,0,94.08,117Z" transform="translate(-2.01 -1.01)"/><text class="cls-7" transform="translate(73.63 119.51) scale(0.74 1)">20</text><ellipse class="cls-5" cx="84.88" cy="114.47" rx="1.87" ry="1.89"/><ellipse class="cls-8" cx="78.97" cy="45.72" rx="18.44" ry="21.92"/><text class="cls-9" transform="translate(63.65 47.18) scale(0.99 1)">H</text><text class="cls-9" transform="translate(77.62 61.56) scale(0.99 1)">2</text><ellipse class="cls-10" cx="78.99" cy="79.93" rx="73.5" ry="74.43"/></g></svg>