<svg xmlns="http://www.w3.org/2000/svg" xmlns:xlink="http://www.w3.org/1999/xlink" viewBox="0 0 157.98 159.97"><defs><style>.cls-1{fill:#edc25b;stroke:#edc25b;stroke-width:0.98px;}.cls-1,.cls-10,.cls-4,.cls-5,.cls-7,.cls-8,.cls-9{stroke-miterlimit:10;}.cls-2{fill:#4365aa;}.cls-3{fill:url(#linear-gradient);}.cls-4,.cls-6,.cls-7{fill:#fff;}.cls-4,.cls-7,.cls-8{stroke:#fffefd;}.cls-4{stroke-width:0.95px;}.cls-10,.cls-5,.cls-8,.cls-9{fill:none;}.cls-5,.cls-9{stroke:#fff;}.cls-5{stroke-width:2.38px;}.cls-7,.cls-8{stroke-width:1.04px;}.cls-10,.cls-9{stroke-width:2px;}.cls-10{stroke:#4365aa;}</style><linearGradient id="linear-gradient" x1="152.92" y1="19.83" x2="40.6" y2="111.23" gradientUnits="userSpaceOnUse"><stop offset="0" stop-color="#fff"/><stop offset="0.18" stop-color="#faedcd"/><stop offset="0.36" stop-color="#f5dda4"/><stop offset="0.54" stop-color="#f2d184"/><stop offset="0.7" stop-color="#efc96d"/><stop offset="0.86" stop-color="#eec460"/><stop offset="1" stop-color="#edc25b"/></linearGradient></defs><title>Rainwater_harvesting_system_icon</title><g id="Layer_1" data-name="Layer 1"><ellipse class="cls-1" cx="78.99" cy="79.98" rx="78.5" ry="79.49"/><ellipse class="cls-2" cx="78.99" cy="80.05" rx="73.5" ry="74.43"/><ellipse class="cls-3" cx="78.99" cy="79.99" rx="72" ry="73"/></g><g id="icon"><polygon class="cls-4" points="65.27 89.2 107.81 89.2 122.78 69.45 81.81 69.45 65.27 89.2"/><polyline class="cls-5" points="120.72 69.45 130.99 89.2 130.99 126.99 67.17 126.99 67.17 89.2"/><line class="cls-5" x1="106.78" y1="89.2" x2="106.78" y2="126.99"/><rect class="cls-6" x="116.32" y="114.11" width="7.34" height="12.88"/><rect class="cls-6" x="74.14" y="111.96" width="8.84" height="10.31"/><rect class="cls-6" x="88.03" y="111.96" width="8.84" height="10.31"/><rect class="cls-6" x="74.14" y="96.5" width="8.84" height="10.31"/><rect class="cls-6" x="88.03" y="96.5" width="8.84" height="10.31"/><rect class="cls-6" x="113.02" y="96.5" width="5.87" height="10.31"/><rect class="cls-6" x="121.82" y="96.5" width="5.87" height="10.31"/><ellipse class="cls-7" cx="52.99" cy="33.99" rx="22.5" ry="13.5"/><ellipse class="cls-7" cx="78.49" cy="43.49" rx="26" ry="9"/><ellipse class="cls-7" cx="110.99" cy="47.99" rx="19.5" ry="6.5"/><ellipse class="cls-7" cx="102.99" cy="35.49" rx="21.5" ry="11"/><path class="cls-6" d="M74.51,118.16a2,2,0,0,0-2.46-2.24A51.84,51.84,0,0,1,51.55,117v-.12c-.26-2.54-4.26-2.56-4,0v.16a2,2,0,0,0,.27,3.2l0,0c0,.4,0,.8.08,1.2a2.19,2.19,0,0,0-.12.52,85.62,85.62,0,0,0-.43,9.35,2,2,0,0,0,2.52,1.87,2.18,2.18,0,0,0,1.79-.36,1.92,1.92,0,0,0,1,.65c5.27,1.48,12.63,2.72,18,.77a3,3,0,0,0,2.21-2.47,1.82,1.82,0,0,0,1.24-1.8v-6.89c0-.07,0-.13,0-.2.13-1.17.3-2.34.53-3.51A2,2,0,0,0,74.51,118.16ZM57.22,130.47q5.27-.06,10.52.21a6.9,6.9,0,0,1-1.48.26A33.25,33.25,0,0,1,57.22,130.47Z" transform="translate(-2.01 -1.01)"/><ellipse class="cls-7" cx="58.99" cy="113.49" rx="13.5" ry="3"/><ellipse class="cls-7" cx="58.99" cy="131.49" rx="13.5" ry="3"/><line class="cls-8" x1="45.49" y1="113.49" x2="45.49" y2="131.49"/><line class="cls-8" x1="72.49" y1="113.49" x2="72.49" y2="131.49"/><ellipse class="cls-2" cx="58.99" cy="113.99" rx="13" ry="3"/><line class="cls-9" x1="59.49" y1="134.49" x2="59.49" y2="144.49"/><line class="cls-9" x1="57.99" y1="143.99" x2="99.99" y2="143.99"/><line class="cls-9" x1="98.99" y1="143.99" x2="98.99" y2="137.99"/><line class="cls-9" x1="99.99" y1="137.99" x2="87.99" y2="137.99"/><line class="cls-9" x1="88.99" y1="137.99" x2="88.99" y2="130.99"/><line class="cls-9" x1="87.99" y1="130.99" x2="101.99" y2="130.99"/><line class="cls-9" x1="100.99" y1="130.99" x2="100.99" y2="126.99"/><line class="cls-10" x1="43.99" y1="48.99" x2="43.99" y2="57.99"/><line class="cls-10" x1="49.99" y1="59.99" x2="49.99" y2="68.99"/><line class="cls-10" x1="43.99" y1="72.99" x2="43.99" y2="81.99"/><line class="cls-10" x1="49.99" y1="85.99" x2="49.99" y2="94.99"/><line class="cls-10" x1="42.99" y1="97.99" x2="42.99" y2="106.99"/><line class="cls-10" x1="60.99" y1="50.99" x2="60.99" y2="59.99"/><line class="cls-10" x1="66.99" y1="61.99" x2="66.99" y2="70.99"/><line class="cls-10" x1="60.99" y1="74.99" x2="60.99" y2="83.99"/><line class="cls-10" x1="66.99" y1="87.99" x2="66.99" y2="96.99"/><line class="cls-10" x1="59.99" y1="99.99" x2="59.99" y2="108.99"/><line class="cls-10" x1="77.99" y1="52.99" x2="77.99" y2="61.99"/><line class="cls-10" x1="83.99" y1="63.99" x2="83.99" y2="72.99"/><line class="cls-10" x1="77.99" y1="76.99" x2="77.99" y2="85.99"/><line class="cls-10" x1="83.99" y1="89.99" x2="83.99" y2="98.99"/><line class="cls-10" x1="76.99" y1="101.99" x2="76.99" y2="110.99"/><line class="cls-10" x1="91.99" y1="52.99" x2="91.99" y2="61.99"/><line class="cls-10" x1="97.99" y1="63.99" x2="97.99" y2="72.99"/><line class="cls-10" x1="91.99" y1="76.99" x2="91.99" y2="85.99"/><line class="cls-10" x1="97.99" y1="89.99" x2="97.99" y2="98.99"/><line class="cls-10" x1="90.99" y1="101.99" x2="90.99" y2="110.99"/><line class="cls-10" x1="109.99" y1="54.99" x2="109.99" y2="63.99"/><line class="cls-10" x1="115.99" y1="65.99" x2="115.99" y2="74.99"/><line class="cls-10" x1="109.99" y1="78.99" x2="109.99" y2="87.99"/><line class="cls-10" x1="115.99" y1="91.99" x2="115.99" y2="100.99"/><line class="cls-10" x1="108.99" y1="103.99" x2="108.99" y2="112.99"/></g></svg>