<svg xmlns="http://www.w3.org/2000/svg" xmlns:xlink="http://www.w3.org/1999/xlink" viewBox="0 0 157.98 159.97"><defs><style>.cls-1,.cls-5,.cls-9{fill:#edc25b;}.cls-1{stroke:#edc25b;stroke-width:0.98px;}.cls-1,.cls-10,.cls-11,.cls-13,.cls-2,.cls-4,.cls-5,.cls-8{stroke-miterlimit:10;}.cls-10,.cls-11,.cls-13,.cls-2,.cls-8{fill:none;}.cls-10,.cls-11,.cls-13,.cls-2{stroke:#4365aa;}.cls-2{stroke-width:2.81px;}.cls-3{fill:url(#linear-gradient);}.cls-4,.cls-7{fill:#f7f7f7;}.cls-4{stroke:#fff;}.cls-10,.cls-4{stroke-width:2.41px;}.cls-5{stroke:#f7f7f7;stroke-width:1.95px;}.cls-6{fill:#fff;}.cls-8{stroke:#f9f8f7;stroke-width:1.47px;}.cls-11{stroke-width:1.1px;}.cls-12{font-size:12.47px;fill:#4365aa;font-family:Arial-Black, Arial Black;}.cls-13{stroke-width:0.49px;}</style><linearGradient id="linear-gradient" x1="152.92" y1="19.83" x2="40.6" y2="111.23" gradientUnits="userSpaceOnUse"><stop offset="0" stop-color="#fff"/><stop offset="0.18" stop-color="#faedcd"/><stop offset="0.36" stop-color="#f5dda4"/><stop offset="0.54" stop-color="#f2d184"/><stop offset="0.7" stop-color="#efc96d"/><stop offset="0.86" stop-color="#eec460"/><stop offset="1" stop-color="#edc25b"/></linearGradient></defs><title>Smart_hybrid_heat_pumps_icon</title><g id="Layer_1" data-name="Layer 1"><ellipse class="cls-1" cx="78.99" cy="79.98" rx="78.5" ry="79.49"/><ellipse class="cls-2" cx="78.99" cy="80.05" rx="73.5" ry="74.43"/><ellipse class="cls-3" cx="78.99" cy="79.99" rx="72" ry="73"/></g><g id="icon"><line class="cls-4" x1="45.71" y1="84" x2="53.68" y2="84.05"/><line class="cls-4" x1="52.82" y1="85.17" x2="53.39" y2="33.99"/><line class="cls-4" x1="54.23" y1="35.11" x2="61.06" y2="35.15"/><line class="cls-4" x1="59.28" y1="92.99" x2="60.22" y2="34.03"/><line class="cls-4" x1="59.29" y1="91.88" x2="66.13" y2="91.92"/><line class="cls-4" x1="67.25" y1="93.04" x2="68.19" y2="34.09"/><line class="cls-4" x1="69.04" y1="35.21" x2="75.87" y2="35.25"/><line class="cls-4" x1="75.23" y1="93.09" x2="76.17" y2="34.14"/><line class="cls-4" x1="76.38" y1="91.99" x2="83.21" y2="92.03"/><line class="cls-4" x1="84.34" y1="93.15" x2="85.28" y2="34.2"/><line class="cls-4" x1="83.83" y1="35.32" x2="95.22" y2="35.39"/><line class="cls-4" x1="93.22" y1="91.01" x2="94.14" y2="34.28"/><line class="cls-4" x1="91.98" y1="91.99" x2="98.82" y2="92.03"/><rect class="cls-5" x="99.23" y="69.07" width="41.76" height="37.42"/><rect class="cls-6" x="104.27" y="106.49" width="8.26" height="6.24"/><rect class="cls-6" x="127.91" y="106.75" width="8.26" height="6.24"/><ellipse class="cls-7" cx="114.37" cy="87.78" rx="11.7" ry="13.25"/><ellipse class="cls-7" cx="137.78" cy="72.71" rx="1.61" ry="1.82"/><line class="cls-8" x1="128.37" y1="79.21" x2="138.01" y2="79.21"/><line class="cls-8" x1="138.01" y1="82.59" x2="128.37" y2="82.59"/><line class="cls-8" x1="128.37" y1="86.22" x2="138.01" y2="86.22"/><line class="cls-8" x1="128.37" y1="89.86" x2="138.01" y2="89.86"/><line class="cls-8" x1="128.37" y1="93.5" x2="138.01" y2="93.5"/><line class="cls-8" x1="128.37" y1="96.62" x2="138.01" y2="96.62"/><line class="cls-8" x1="128.37" y1="100.26" x2="138.01" y2="100.26"/><path class="cls-9" d="M116.67,77c-.19,0-.38.11-.37.44l0,10.74a.52.52,0,0,0,.11.34c0,.26.15.54.37.49C121,88.05,120.75,77.92,116.67,77Zm.25,10.56a.35.35,0,0,0,.12.2c0,.07,0,.15,0,.22l-.13.06Z" transform="translate(-2.01 -1.01)"/><path class="cls-9" d="M116.24,101c.19,0,.38-.11.37-.44l0-10.74a.52.52,0,0,0-.11-.34c0-.26-.15-.54-.37-.49C112,90,112.16,100.12,116.24,101ZM116,90.44a.35.35,0,0,0-.12-.2c0-.07,0-.15,0-.22L116,90Z" transform="translate(-2.01 -1.01)"/><path class="cls-9" d="M106.32,88.72a.36.36,0,0,0,.39.43l9.48.06a.39.39,0,0,0,.3-.12c.23,0,.48-.16.43-.41C116.08,84,107.13,84.11,106.32,88.72Zm9.33-.18a.31.31,0,0,0,.18-.14h.2l.05.15Z" transform="translate(-2.01 -1.01)"/><path class="cls-9" d="M126.1,89.37c0-.25-.2-.41-.43-.41a.39.39,0,0,0-.3-.12l-9.48.06a.36.36,0,0,0-.39.43C116.31,93.94,125.26,94.08,126.1,89.37Zm-.85.14-.05.15H125a.31.31,0,0,0-.18-.14Z" transform="translate(-2.01 -1.01)"/><rect class="cls-10" x="17.99" y="51.92" width="27.08" height="54.57"/><rect class="cls-11" x="21.43" y="56.34" width="20.19" height="17.15"/><line class="cls-11" x1="24.19" y1="83.89" x2="24.19" y2="101.04"/><line class="cls-11" x1="38.41" y1="83.89" x2="38.41" y2="101.04"/><line class="cls-11" x1="31.53" y1="83.89" x2="31.53" y2="101.04"/><line class="cls-11" x1="21.43" y1="88.04" x2="26.94" y2="88.04"/><line class="cls-11" x1="28.78" y1="91.68" x2="34.28" y2="91.68"/><line class="cls-11" x1="35.66" y1="94.28" x2="41.17" y2="94.28"/><text class="cls-12" transform="translate(23.15 69.39) scale(0.72 1)">19</text><ellipse class="cls-13" cx="37.73" cy="62.84" rx="2.07" ry="2.34"/></g></svg>