<?xml version="1.0" encoding="utf-8"?>
<!-- Generator: Adobe Illustrator 21.1.0, SVG Export Plug-In . SVG Version: 6.00 Build 0)  -->
<svg version="1.1" xmlns="http://www.w3.org/2000/svg" xmlns:xlink="http://www.w3.org/1999/xlink" x="0px" y="0px"
	 viewBox="0 0 162 162" style="enable-background:new 0 0 162 162;" xml:space="preserve">
<style type="text/css">
	.st0{fill:#102773;stroke:#102773;stroke-width:0.9813;stroke-miterlimit:10;}
	.st1{fill:#102773;}
	.st2{fill:#FFFFFF;}
	.st3{fill:none;stroke:#102773;stroke-width:3.4881;stroke-miterlimit:10;}
	.st4{fill:#FCFCFC;}
	.st5{font-family:'Arial-Black';}
	.st6{font-size:18.9859px;}
	.st7{fill:none;stroke:#FCFCFC;stroke-miterlimit:10;}
	.st8{fill:#102773;stroke:#102773;stroke-miterlimit:10;}
	.st9{fill:none;stroke:#102773;stroke-miterlimit:10;}
</style>
<g id="Layer_1">
	<ellipse class="st0" cx="81" cy="81" rx="78.5" ry="79.5"/>
	<ellipse class="st1" cx="81" cy="81.1" rx="73.5" ry="74.4"/>
	<ellipse class="st2" cx="81" cy="81" rx="72" ry="73"/>
</g>
<g id="color">
</g>
<g id="icon">
	<rect x="30.5" y="37.5" class="st3" width="100" height="69"/>
	<g>
		<rect x="62.1" y="66" class="st1" width="39.7" height="32.5"/>
		<polygon class="st1" points="57,66.7 107,66.7 82,50.5 		"/>
		<rect x="92.3" y="49" class="st1" width="5.9" height="14.8"/>
	</g>
	<rect x="36" y="81" class="st1" width="14" height="4"/>
	<rect x="36" y="89" class="st1" width="14" height="4"/>
	<rect x="36" y="97" class="st1" width="14" height="4"/>
	<rect x="34" y="41" class="st1" width="92" height="3"/>
	<text transform="matrix(0.7897 0 0 1 71 91.1777)" class="st4 st5 st6">20</text>
	<circle class="st7" cx="93" cy="79" r="2"/>
	<rect x="115.5" y="97.5" class="st8" width="9" height="4"/>
	<rect x="115.5" y="91.5" class="st8" width="9" height="4"/>
	<rect x="115.5" y="85.5" class="st8" width="9" height="4"/>
	<rect x="115.5" y="79.5" class="st9" width="9" height="4"/>
	<rect x="115.5" y="73.5" class="st9" width="9" height="4"/>
</g>
<g id="color_manos">
	<path class="st2" d="M145.5,112.8C145.5,112.7,145.4,112.7,145.5,112.8c-0.1-0.1-0.2-0.2-0.2-0.2c0,0,0,0,0,0
		c-0.3-0.1-0.6-0.2-0.9-0.2c-1.1,0-1.8,0.8-1.9,1.7c0,0.1-0.1,0.1-0.1,0.2c0.7-3.4,1-7.3,0-9.7c-1.1-2.8-3.7-3.4-6.1-1.5
		c-3.3,2.6-5.2,8.5-6.7,13c-1.4-4.4-2.1-9-2.6-13.7c0-0.1,0-0.2,0-0.4c-0.1-5-0.6-9.9-1.4-14.8c-0.1-0.9-0.7-1.3-1.4-1.4
		c-0.4-0.8-1.4-1.2-2.3-1c-0.4,0.1-0.8,0.4-1,0.7c-0.5,0.2-0.9,0.7-1.1,1.3c-1.5,5.7-1.9,11.6-1.1,17.4c0.1,2.3,0.1,4.5,0.2,6.8
		c0.1,1.5,0.1,3.1,0.1,4.6c0.2,0.1,0.3,0.3,0.3,0.6c0.8,4.1,0.3,8.2,0,12.4c0,0.5-0.4,0.8-0.7,0.9c-0.2,1.5-0.4,3.1-0.7,4.6
		c-0.4-0.7-0.9-1.3-1.3-2c-0.2-0.2-0.4-0.4-0.6-0.6c-1-2.5-2.1-5-3.5-7.3c-1.6-2.9-3.7-6.2-7.2-5.5c-1.7-0.6-2.8,0-3.4,1.1
		c-0.1,0.1-0.2,0.1-0.3,0.2c-0.6,0.7-0.8,1.7-0.2,2.5c0.1,0.8,0.3,1.5,0.6,2.2c1.5,2.9,4.7,4.5,6.4,7.3c2.1,3.3,3.4,7.5,4.8,11.2
		c-0.1,0.1-0.1,0.3-0.2,0.4c0,0.1,0.1,0.1,0.1,0.2c0.1,0.1,0.1,0.3,0.2,0.5c0.1,0.3,0.2,0.6,0.2,0.9c0,0.2,0.1,0.4,0.1,0.6
		c0.1,0.1,0.2,0.2,0.3,0.2c0.7-0.4,1.4-0.8,2.1-1.2c0.1,0,0.2,0,0.3,0c0.1,0,0.2,0,0.3,0c0.5-0.2,1-0.5,1.5-0.7
		c0.2-0.1,0.2-0.2,0.2-0.3c0.1,0,0.1,0,0.2-0.1c0.5-0.3,0.9-0.6,1.4-0.9c0.1,0,0.2,0,0.4-0.1c1.3-0.9,2.6-1.9,3.9-2.9
		c0.1,0,0.1-0.1,0.1-0.2c7.1-5.5,13.2-12.2,18-19.8c0.1-0.1,0.1-0.3,0.1-0.4c1-1.9,2.1-3.8,3.1-5.8
		C145.6,113.4,145.8,113,145.5,112.8z"/>
	<path class="st1" d="M37.6,130.2c0-2-1.1-3.8-3-4.8c0,0,0,0-0.1,0c-2-1.7-4.8-2.8-7.6-3.7c-0.7-0.8-1.6-0.9-2.3-0.7
		c-1.1-0.3-2.2-0.6-3.1-0.8c0-0.2,0-0.5-0.3-0.6c-0.2,0-0.3-0.1-0.5-0.1c-0.4-0.1-0.8,0.4-0.6,0.7c0.1,0.1,0.2,0.2,0.3,0.4
		c-0.1,0.1-0.1,0.3,0,0.4c0.8,1.1,1.6,2.2,2.4,3.3c0.1,0.3,0.3,0.6,0.5,1c0.4,0.5,0.8,0.9,1.2,1.4c1.8,2.4,3.7,4.7,5.6,6.9
		c0.7,0.8,1.9,3,3.3,2.7c0.4-0.1,0.7-0.4,1.1-0.9c0.1,0,0.2-0.1,0.2-0.1c0.8-0.9,1.5-1.8,2.2-2.8c0.1-0.1,0.1-0.2,0.1-0.3
		c0.1-0.1,0.2-0.1,0.3-0.3c0.1-0.4,0.2-0.7,0.2-1.1C37.6,130.6,37.6,130.4,37.6,130.2z"/>
	<path class="st2" d="M39.9,108.4c0.7-3.7,0.6-7.3-0.1-11.1c-1.1-5.5-3.2-10.9-2.1-16.7c0.1-0.5,0-1-0.1-1.4
		c0.8-3.6,1.8-7.6,0.5-10.9c-1.2-3-6.2-4.9-7-0.5c0,0.2,0,0.4,0,0.6c-0.3,0.5-0.6,1.1-0.9,1.7c-3.1-0.4-6.1,0.1-8.4,2.7
		c-3.1,3.6-5.3,9.7-7,14.1c-1.7,4.5,1,8.3,2.6,12.5c2.4,6.6,3.3,13.2,2.7,20.1c-0.2,2.9,3.8,3.1,4.8,0.9c0.4,0.3,0.8,0.5,1.3,0.6
		c0,0,0,0,0.1,0c1.8,1.3,3.3,1.9,4.7,1.8c0.1,0.2,0.2,0.4,0.4,0.6c0.4,0.5,1,1,1.6,1.5c-0.2,1.4,0.5,3,2.4,3c1.7,0,2.5-1.5,2.4-2.8
		C40.4,121.3,43.5,112.4,39.9,108.4z"/>
	<path class="st1" d="M33.4,124.1c-2.6-1.7-5.6-2.7-8.6-3.5c-0.4-0.1-0.8,0.1-1,0.3l-2.9-0.9c-1.2-0.4-1.8,1.5-0.5,1.9l4.6,1.4
		c0.5,0.1,0.8-0.1,1-0.4c1.1,0.3,2.1,0.7,3.2,1.1c-0.5,0.5-0.5,1.5,0.4,1.8c1.8,0.7,3.4,2,4.5,3.6c0.3,0.4,0.7,0.5,1.1,0.4
		c0.1,0.1,0.3,0.1,0.4,0.1c0.5,0.3,1.3,0.2,1.5-0.5C37.9,127.2,35,125.1,33.4,124.1z"/>
</g>
<g id="manos">
	<g>
		<path class="st1" d="M146.3,112.6c-1-0.9-2.2-1.3-3.3-0.4c0.1-1,0.3-2,0.4-3c0.3-2.9,0-6-2.5-7.1c-1.8-0.8-4.6-1.3-6.1,0.8
			c-1,1.6-1.8,3.5-2.6,5.2c-0.9,2-1.8,4.1-2.6,6.2c-1.6-4.6-1.8-10.2-2.4-15.1c-0.4-3.3-0.6-6.6-1.1-9.9c-0.3-2.1-1.2-4.4-3.1-4.9
			c-4.3-1.3-5,7.4-5.3,10.6c-0.4,6.4,0.5,12.8,1.1,19.1c0.6,6.5,0.4,13-0.9,19.4c-1.4-2.5-2.7-5-4.1-7.5c-1.3-2.4-2.6-5.2-4.7-6.8
			c-1.6-1.2-3.7-1.6-5.7-1c-1.6,0.5-3.4,1.7-2.9,4c0.6,2.5,2.7,4.6,4.1,6.3c1.8,2.2,3.5,4.6,4.9,7.2c1.8,3.3,3.1,7,4,10.9
			c0.2-0.1,0.4-0.2,0.6-0.3c-1.5-6.5-4.4-12.4-8.3-17.4c0,0,0-0.1,0-0.2c0-1.8,0-3.8-0.9-5.3c-0.3-0.6-0.8-1-1.3-1.3
			c-0.3-0.1-0.5-0.2-0.8-0.2c-0.2,0-0.4,0.1-0.6,0.1c-0.1-0.1-0.2-0.2-0.4-0.1c-0.2,0.1-0.2,0.2-0.3,0.4c0,0.2,0.1,0.3,0.2,0.4
			c0.3,0.2,0.7,0,1.1,0c0.7,0.1,1.3,0.7,1.7,1.4c0.7,1.1,0.7,2.7,0.7,4.1c-1.4-1.6-5.8-6.1-3.5-8.4c2.2-2.3,6.1-0.9,7.8,1
			c1.8,1.9,2.9,4.6,4.2,6.9c1.3,2.3,2.5,4.6,3.8,6.9c-0.3,1.3-0.7,2.7-1.1,4c-0.1,0.5,0.4,0.8,0.6,0.3c0.4-1.2,0.7-2.4,1-3.6
			c0.2,0.1,0.6-0.2,0.4-0.6l-0.2-0.3c1-4.3,1.5-8.8,1.5-13.2c-0.1-5.9-1-11.6-1.4-17.5c-0.2-3-0.3-6.1-0.1-9.2c0.2-2.5,0.5-8,3-9.2
			c1.7-0.8,3.1,0.9,3.7,2.5c0.5,1.4,0.6,3,0.7,4.5l1.1,9.6c0.6,5.7,0.9,12.1,4,16.7c0.2,0.2,0.4,0.1,0.5-0.1c0.1,0,0.3,0,0.3-0.2
			c0.8-2.8,1.4-5.6,1.9-8.4c0.1-0.5-0.5-0.6-0.6-0.1c-0.4,2.7-1,5.4-1.8,8.1c-0.5-0.8-1-1.7-1.3-2.6c0.1,0,0.1-0.1,0.2-0.2
			c1.2-3.1,2.5-6.1,3.9-9c0.8-1.6,1.4-3.5,3.2-3.7c1.1-0.1,2.8,0.2,3.8,0.7c2.8,1.6,1.7,6.4,1.3,9.4l-0.1,0.8c0,0,0,0,0,0
			c-0.5,3-0.9,6-1.4,9c-0.1,0.5,0.5,0.6,0.6,0.1c0.5-3,1-6,1.4-9c1-1.3,2.2-1,3.1-0.1C146.1,113,146.2,112.8,146.3,112.6z"/>
		<path class="st1" d="M122.3,87.2c-0.6,0-1.3,0.3-1.6,1c-0.6,1.2-0.1,2.8,0.1,4c0.1,0.5,0.7,0.4,0.6-0.1c0,0,0,0,0.1,0
			c0.9,0.1,1.8,0.2,2.7,0.3c0.2,0,0.4-0.2,0.4-0.4C124.6,90,124.4,87.3,122.3,87.2z M121.3,91.5c-0.2-1.5-0.6-3.9,1.2-3.5
			c1.4,0.3,1.5,2.2,1.4,3.6c-0.8-0.1-1.5-0.2-2.3-0.3C121.5,91.4,121.4,91.4,121.3,91.5z"/>
	</g>
	<g>
		<path class="st1" d="M40.4,108.8c-0.1-0.1-0.1-0.1-0.2-0.1c0.8-3.1,1-6.3,0.6-9.5c-0.4-2.9-1.4-5.6-2.2-8.4
			c-1-3.3-1.4-6.5-0.9-9.9c0.6-4.2,2.9-10.9-0.5-14.5c-1.2-1.2-2.9-1.8-4.5-1c-1.2,0.6-2,1.9-2.4,3.3c0,0,0-0.1,0-0.1
			c0.1-0.3-0.1-0.5-0.3-0.6c-0.2-0.3-0.9-0.2-0.9,0.3c0,0.4,0,0.7,0,1.1c-1.6,0-3.2,0.1-4.7,0.7c-1.7,0.7-2.8,2-3.6,3.6
			c-1.3,2.4-2.5,4.9-3.8,7.4c-1.1,2.2-2.8,4.6-3.2,7c-0.4,2.3,0.8,4.6,1.6,6.6c0.9,2.6,1.8,5.1,2.5,7.8c1.5,5.5,2.4,11.3,1.7,17
			c0,0,0,0,0,0.1c0,0-0.1,0-0.1,0c0,0,0,0,0,0c0.1,0.2,0.2,0.4,0.2,0.6c1.4,0,2.8,0.4,4.1,0.8c3.8,1,15.6,4.6,13.6,10.5
			c-0.1,0-0.3,0.1-0.4,0.2c-1,1.7-2.1,3.3-3.3,4.8c-0.4,0.5,0.3,1.2,0.7,0.7c1.3-1.6,2.5-3.2,3.5-5c0.1-0.1,0.1-0.3,0-0.4
			c0.6-1.6,0.3-3.1-0.6-4.4c0.6-3.5,2.9-6.3,4-9.6C42.5,114.7,42.1,111.5,40.4,108.8z M40.1,119.3c-1.2,2.5-2.6,4.8-3.2,7.5
			c-2.9-3.4-9.5-5.5-12.4-6.3c-1.2-0.3-2.8-0.9-4.4-1c0,0,0,0,0-0.1c0.6-4.8,0.1-9.7-1-14.4c-1.1-4.8-3-9.3-4.5-14
			c-0.9-2.9,0.5-5.1,1.7-7.6c1.2-2.3,2.4-4.6,3.5-7c1.1-2.1,2-4.7,4.3-5.8c1.5-0.7,3.1-0.8,4.8-0.8c0,0.1,0,0.2,0,0.3
			c0,0.6-0.1,1.3-0.1,1.9c0,0.1,0,0.1,0,0.1c0,0,0,0,0,0c0,0,0,0,0,0c0,0.1,0.1,0.3,0.2,0.4c-0.5,2.2-1.1,4.5-1.5,6.8
			c-0.1-0.1-0.2-0.1-0.3,0c-0.2,0.1-0.4,0.2-0.6,0.3c-0.1,0-0.2,0-0.2,0.1c-0.3,0.2-0.5,0.3-0.8,0.5c-0.1,0.1-0.2,0.2-0.2,0.3
			c-0.6-0.3-1.4-0.5-2.1-0.3c-0.4,0.1-0.2,0.7,0.2,0.6c1.5-0.3,3.1,0.8,3.1,2.4c0,0.2,0.1,0.3,0.3,0.3c-0.1,0.6-0.2,1.1-0.3,1.7
			c-0.1,0-0.1-0.1-0.2,0c-1.6,0.4-3.1,1.1-4.5,2.1c-0.3,0.2,0,0.8,0.3,0.5c1.3-1,2.7-1.6,4.3-2c-0.3,1.7-0.7,3.5-1.1,5.2
			c-0.1,0.4,0.5,0.6,0.6,0.2c1.2-5.5,2.3-10.9,3.5-16.4c0.2-0.9,0.4-1.9,0.6-2.9c0.1-0.1,0.1-0.2,0.1-0.3c0,0,0-0.1,0-0.1
			c0.1-0.5,0.2-1,0.4-1.6c0,0,0.1,0,0.1,0c0.4,0,0.4-0.5,0.1-0.6c0.2-0.5,0.3-1,0.5-1.4c1.3-2.8,4.5-3.1,6.2-0.3
			c1.4,2.3,0.9,5.5,0.6,8c-0.4,2.4-0.9,4.8-1.1,7.3c-0.3,4.9,1.9,9.3,3,14c1.3,5.7,0.5,11.7-2.3,16.8c-0.2,0.3,0.3,0.7,0.5,0.3
			c0.8-1.5,1.5-3.2,2-4.9C41.9,112.5,41.6,116,40.1,119.3z"/>
		<path class="st1" d="M33.8,67.1c-1.9,0-1.9,2-2.3,3.5c-0.3,0.2-0.4,0.5-0.2,0.8c0,0.1-0.1,0.2-0.1,0.2c-0.2,0.4,0.3,0.7,0.5,0.3
			c0-0.1,0.1-0.2,0.1-0.2c0.5,0.2,1.3,0.2,1.8,0.2c0.8,0.1,1.6,0.3,2.5,0.4c0.2,0,0.4-0.1,0.4-0.3C36.6,70.2,36.4,67.1,33.8,67.1z
			 M32,71.2c0.2-1.1,0.2-2.5,1.1-3.1c0.9-0.7,2,0,2.5,0.9c0.4,0.8,0.4,1.9,0.3,2.8c-0.6-0.1-1.3-0.2-1.9-0.3
			C33.4,71.3,32.6,71.1,32,71.2z"/>
		<path class="st1" d="M26.5,83.8c-1.5-0.8-3.2-0.8-4.7,0c-0.3,0.2,0,0.7,0.3,0.5c1.3-0.7,2.8-0.7,4.1,0
			C26.5,84.5,26.8,84,26.5,83.8z"/>
	</g>
</g>
</svg>
