<svg xmlns="http://www.w3.org/2000/svg" xmlns:xlink="http://www.w3.org/1999/xlink" viewBox="0 0 157.98 159.97"><defs><style>.cls-1{fill:#edc25b;stroke:#edc25b;stroke-width:0.98px;}.cls-1,.cls-4,.cls-7,.cls-8{stroke-miterlimit:10;}.cls-2,.cls-6,.cls-8{fill:#4365aa;}.cls-3{fill:url(#linear-gradient);}.cls-4,.cls-7{fill:none;}.cls-4{stroke:#f9f9f9;stroke-width:3.49px;}.cls-5{fill:#f9f9f9;}.cls-6{font-size:18.99px;font-family:Arial-Black, Arial Black;}.cls-7,.cls-8{stroke:#4365aa;}.cls-9{fill:#fff;}</style><linearGradient id="linear-gradient" x1="152.92" y1="19.83" x2="40.6" y2="111.23" gradientUnits="userSpaceOnUse"><stop offset="0" stop-color="#fff"/><stop offset="0.18" stop-color="#faedcd"/><stop offset="0.36" stop-color="#f5dda4"/><stop offset="0.54" stop-color="#f2d184"/><stop offset="0.7" stop-color="#efc96d"/><stop offset="0.86" stop-color="#eec460"/><stop offset="1" stop-color="#edc25b"/></linearGradient></defs><title>Smart_controls_icon</title><g id="Layer_1" data-name="Layer 1"><ellipse class="cls-1" cx="78.99" cy="79.98" rx="78.5" ry="79.49"/><ellipse class="cls-2" cx="78.99" cy="80.05" rx="73.5" ry="74.43"/><ellipse class="cls-3" cx="78.99" cy="79.99" rx="72" ry="73"/></g><g id="icon"><rect class="cls-4" x="28.49" y="36.49" width="100" height="69"/><rect class="cls-5" x="60.14" y="64.98" width="39.71" height="32.51"/><polygon class="cls-5" points="54.99 65.72 104.99 65.72 79.99 49.47 54.99 65.72"/><rect class="cls-5" x="90.28" y="47.99" width="5.88" height="14.78"/><rect class="cls-5" x="33.99" y="79.99" width="14" height="4"/><rect class="cls-5" x="33.99" y="87.99" width="14" height="4"/><rect class="cls-5" x="33.99" y="95.99" width="14" height="4"/><rect class="cls-5" x="32.99" y="39.99" width="92" height="3"/><text class="cls-6" transform="translate(68.99 90.17) scale(0.79 1)">20</text><circle class="cls-7" cx="89.99" cy="77.99" r="2"/><rect class="cls-8" x="113.49" y="96.49" width="9" height="4"/><rect class="cls-8" x="113.49" y="90.49" width="9" height="4"/><rect class="cls-8" x="113.49" y="84.49" width="9" height="4"/><rect class="cls-7" x="113.49" y="78.49" width="9" height="4"/><rect class="cls-7" x="113.49" y="72.49" width="9" height="4"/></g><g id="color_manos" data-name="color manos"><path class="cls-9" d="M145.49,112.77l-.08-.08a.5.5,0,0,0-.15-.1v0a1.9,1.9,0,0,0-.91-.22,1.85,1.85,0,0,0-1.9,1.66l-.14.19c.75-3.44,1-7.26,0-9.67-1.1-2.76-3.75-3.37-6.05-1.54-3.28,2.61-5.18,8.49-6.72,13a73.86,73.86,0,0,1-2.63-13.66,2.19,2.19,0,0,0,0-.38,103.85,103.85,0,0,0-1.38-14.76,1.58,1.58,0,0,0-1.41-1.43,2.06,2.06,0,0,0-2.28-1,1.91,1.91,0,0,0-1,.68,2,2,0,0,0-1.09,1.26,45.18,45.18,0,0,0-1.08,17.45c.06,2.26.15,4.53.23,6.79q.09,2.31.14,4.62a.87.87,0,0,1,.34.56c.83,4.14.31,8.23,0,12.39a1,1,0,0,1-.75.9c-.17,1.54-.38,3.08-.67,4.61l-1.33-2a2.33,2.33,0,0,0-.61-.61,54.85,54.85,0,0,0-3.47-7.34c-1.65-2.88-3.73-6.2-7.2-5.53a2.64,2.64,0,0,0-3.43,1.13,1.68,1.68,0,0,0-.26.23,2.06,2.06,0,0,0-.25,2.53,6.17,6.17,0,0,0,.63,2.24c1.48,2.92,4.66,4.52,6.37,7.3,2.06,3.35,3.39,7.46,4.83,11.25a1.71,1.71,0,0,0-.19.44l.07.15a4.35,4.35,0,0,1,.19.46,5.22,5.22,0,0,1,.22.85c0,.18.05.37.08.56a1.67,1.67,0,0,0,.3.22c.7-.4,1.39-.82,2.07-1.24a.45.45,0,0,0,.31,0,.49.49,0,0,0,.29,0l1.48-.7a.41.41,0,0,0,.25-.33.5.5,0,0,0,.17-.07l1.41-.93a.42.42,0,0,0,.36-.07q2-1.37,3.85-2.91a.47.47,0,0,0,.12-.15,76,76,0,0,0,18-19.85.45.45,0,0,0,.06-.38l3.13-5.77A.48.48,0,0,0,145.49,112.77Z" transform="translate(-2.01 -1.01)"/><path class="cls-2" d="M37.6,130.22a5.34,5.34,0,0,0-3-4.81l-.06,0a22.62,22.62,0,0,0-7.59-3.68,2.09,2.09,0,0,0-2.3-.68l-3.15-.85a.49.49,0,0,0-.33-.59l-.47-.15c-.39-.12-.83.38-.56.73l.29.37a.41.41,0,0,0,0,.42q1.18,1.69,2.4,3.34a2.62,2.62,0,0,0,.55,1l1.21,1.38q2.71,3.53,5.62,6.91c.71.82,1.93,3,3.31,2.68a2.19,2.19,0,0,0,1.09-.86.43.43,0,0,0,.21-.12,28.9,28.9,0,0,0,2.2-2.75.43.43,0,0,0,.08-.31.46.46,0,0,0,.27-.3,6,6,0,0,0,.2-1.05A2.88,2.88,0,0,0,37.6,130.22Z" transform="translate(-2.01 -1.01)"/><path class="cls-9" d="M39.94,108.38a28,28,0,0,0-.11-11.06c-1.07-5.55-3.24-10.95-2.11-16.67a2.53,2.53,0,0,0-.12-1.45c.84-3.6,1.78-7.6.45-10.9-1.19-3-6.24-4.87-7-.53a2.8,2.8,0,0,0,0,.59,10.37,10.37,0,0,0-.86,1.71c-3.12-.39-6.1.12-8.36,2.71-3.1,3.56-5.29,9.72-7,14.08s1,8.31,2.57,12.55a46.39,46.39,0,0,1,2.7,20.12c-.25,2.88,3.76,3.15,4.77.86a2.54,2.54,0,0,0,1.27.58l.05,0a7.73,7.73,0,0,0,4.66,1.84,2.69,2.69,0,0,0,.39.56,14.07,14.07,0,0,0,1.55,1.47,2.43,2.43,0,1,0,4.76.18C40.43,121.26,43.5,112.39,39.94,108.38Z" transform="translate(-2.01 -1.01)"/><path class="cls-2" d="M33.42,124.07a28.93,28.93,0,0,0-8.57-3.48.9.9,0,0,0-1,.34L20.91,120c-1.23-.39-1.76,1.55-.53,1.93L25,123.37a.87.87,0,0,0,1-.37,32.84,32.84,0,0,1,3.16,1.11,1.08,1.08,0,0,0,.35,1.77A9.94,9.94,0,0,1,34,129.43a1,1,0,0,0,1.1.41,1.06,1.06,0,0,0,.42.08,1,1,0,0,0,1.54-.52C37.86,127.16,35,125.15,33.42,124.07Z" transform="translate(-2.01 -1.01)"/></g><g id="manos"><path class="cls-2" d="M146.32,112.6c-1-.9-2.21-1.29-3.29-.43.14-1,.27-2,.38-3,.32-2.9,0-6-2.47-7.08-1.78-.76-4.65-1.3-6.06.81a38.62,38.62,0,0,0-2.58,5.25c-.93,2-1.81,4.13-2.64,6.23-1.64-4.64-1.82-10.21-2.36-15.14-.36-3.28-.6-6.65-1.13-9.89-.35-2.13-1.16-4.36-3.07-4.94-4.33-1.31-5,7.43-5.26,10.56-.45,6.45.51,12.77,1.07,19.08a65.56,65.56,0,0,1-.91,19.39L113.88,126c-1.33-2.43-2.6-5.23-4.72-6.82a6.39,6.39,0,0,0-5.67-1c-1.62.48-3.41,1.73-2.88,4,.59,2.5,2.65,4.55,4.12,6.32a42.84,42.84,0,0,1,4.95,7.23,44.2,44.2,0,0,1,4,10.85l.58-.27A44,44,0,0,0,106,128.87a.48.48,0,0,0,0-.15c0-1.8,0-3.8-.88-5.26a3.5,3.5,0,0,0-1.35-1.29,2.34,2.34,0,0,0-.83-.25c-.15,0-.41.06-.61.07a.28.28,0,0,0-.36-.14c-.18.06-.24.19-.3.39a.38.38,0,0,0,.17.4c.33.22.75,0,1.11,0a2.61,2.61,0,0,1,1.73,1.36,8.11,8.11,0,0,1,.71,4.1c-1.36-1.58-5.8-6.08-3.48-8.43s6.07-.93,7.85,1,2.95,4.57,4.23,6.92l3.79,6.9c-.31,1.34-.66,2.69-1.08,4-.14.46.42.76.56.3.37-1.18.69-2.37,1-3.57.24.13.59-.24.41-.57l-.19-.34a56.78,56.78,0,0,0,1.46-13.21c-.05-5.89-1-11.63-1.37-17.46a59.75,59.75,0,0,1-.06-9.19c.21-2.54.54-8,3-9.21,1.68-.83,3.15.91,3.69,2.52a21.44,21.44,0,0,1,.73,4.45l1.07,9.63c.64,5.74.93,12.06,4,16.68.16.24.43.13.54-.07.13,0,.27,0,.33-.21a63,63,0,0,0,1.86-8.42.32.32,0,1,0-.62-.1,61.59,61.59,0,0,1-1.76,8.05,16.6,16.6,0,0,1-1.33-2.64.34.34,0,0,0,.19-.2c1.21-3.06,2.52-6.07,3.94-9,.79-1.63,1.43-3.5,3.22-3.69a7.24,7.24,0,0,1,3.78.74c2.83,1.6,1.72,6.36,1.25,9.37l-.12.8a.38.38,0,0,0,0,0l-1.39,9a.32.32,0,1,0,.62.1c.46-3,1-6,1.45-9,1-1.3,2.17-1,3.14-.1C146.09,113,146.21,112.81,146.32,112.6Z" transform="translate(-2.01 -1.01)"/><path class="cls-2" d="M122.26,87.21a1.68,1.68,0,0,0-1.61,1c-.56,1.17-.06,2.82.11,4a.32.32,0,1,0,.63-.09l.08,0,2.69.3c.22,0,.37-.17.38-.42C124.58,90,124.36,87.29,122.26,87.21Zm-1,4.32c-.24-1.48-.63-3.94,1.17-3.54,1.36.3,1.46,2.19,1.44,3.64l-2.32-.26A.3.3,0,0,0,121.3,91.54Z" transform="translate(-2.01 -1.01)"/><path class="cls-2" d="M40.41,108.76a.28.28,0,0,0-.24-.14,24.63,24.63,0,0,0,.6-9.5,53.62,53.62,0,0,0-2.23-8.39,22.61,22.61,0,0,1-.91-9.92c.58-4.2,2.91-10.89-.5-14.46a3.85,3.85,0,0,0-4.49-1c-1.47.75-2.2,2.42-2.65,4a13.93,13.93,0,0,0-5.67.66,7.06,7.06,0,0,0-3.63,3.6C19.4,76,18.19,78.52,16.94,81c-1.1,2.17-2.81,4.58-3.23,7-.39,2.27.82,4.57,1.57,6.64.92,2.56,1.8,5.14,2.53,7.77a43.18,43.18,0,0,1,1.68,17,.27.27,0,0,0,0,.05h-.1a4.92,4.92,0,0,1,.22.63,19.35,19.35,0,0,1,4.15.79c3.8,1,15.63,4.58,13.62,10.49a.44.44,0,0,0-.37.24,32.38,32.38,0,0,1-3.34,4.8c-.41.49.29,1.2.71.71a33.81,33.81,0,0,0,3.5-5,.46.46,0,0,0,0-.41,4.6,4.6,0,0,0-.57-4.39c.62-3.5,2.85-6.29,4-9.58A10.16,10.16,0,0,0,40.41,108.76Zm-.33,10.52c-1.16,2.47-2.63,4.77-3.22,7.45-2.87-3.39-9.51-5.47-12.43-6.27a22.79,22.79,0,0,0-4.37-1,.31.31,0,0,0,0-.07,40.73,40.73,0,0,0-1-14.36c-1.12-4.81-3-9.31-4.48-14-.91-2.92.46-5.1,1.74-7.62l3.53-7c1.08-2.13,2-4.67,4.26-5.75a12.18,12.18,0,0,1,5.66-.78C29,73.1,28.3,76.3,27.64,79.52a.29.29,0,0,0-.33,0l-.64.34a.47.47,0,0,0-.24.07l-.82.49a.46.46,0,0,0-.2.25,3.07,3.07,0,0,0-2.14-.31c-.38.09-.22.68.16.59a2.65,2.65,0,0,1,3.15,2.41.3.3,0,0,0,.25.29l-.33,1.68a.28.28,0,0,0-.21,0,11.72,11.72,0,0,0-4.46,2.05c-.31.23,0,.76.3.53a11.29,11.29,0,0,1,4.26-2C26,87.6,25.69,89.32,25.33,91c-.08.39.5.55.58.16l3.48-16.38c.33-1.57.57-3.26,1-4.86h.08c.35,0,.38-.49.09-.59A11.51,11.51,0,0,1,31.13,68c1.32-2.76,4.53-3.14,6.17-.35,1.37,2.32.94,5.5.56,8S37,80.51,36.8,83c-.29,4.95,1.87,9.3,3,14a24.27,24.27,0,0,1-2.26,16.82c-.18.35.33.66.52.31a25.44,25.44,0,0,0,2-4.85C41.95,112.47,41.64,116,40.08,119.28Z" transform="translate(-2.01 -1.01)"/><path class="cls-2" d="M33.84,67.14c-1.86,0-1.93,2-2.26,3.53a.49.49,0,0,0-.21.76c0,.08-.06.16-.1.24-.17.35.35.66.52.31,0-.07.06-.15.09-.23a12.33,12.33,0,0,0,1.76.24l2.45.38a.31.31,0,0,0,.38-.3C36.59,70.18,36.37,67.12,33.84,67.14Zm-1.8,4c.24-1.11.24-2.49,1.06-3.14s2,0,2.45.89a5.26,5.26,0,0,1,.33,2.79L34,71.41A7.2,7.2,0,0,0,32,71.16Z" transform="translate(-2.01 -1.01)"/><path class="cls-2" d="M26.48,83.8a4.92,4.92,0,0,0-4.73,0c-.34.18,0,.72.3.53a4.29,4.29,0,0,1,4.13,0C26.51,84.52,26.82,84,26.48,83.8Z" transform="translate(-2.01 -1.01)"/></g></svg>