<svg xmlns="http://www.w3.org/2000/svg" xmlns:xlink="http://www.w3.org/1999/xlink" viewBox="0 0 157.98 159.97"><defs><style>.cls-1{fill:#edc25b;stroke:#edc25b;stroke-width:0.98px;}.cls-1,.cls-2,.cls-5,.cls-7,.cls-8{stroke-miterlimit:10;}.cls-2,.cls-5,.cls-7,.cls-8{fill:none;}.cls-2{stroke:#4365aa;stroke-width:2.81px;}.cls-3{fill:url(#linear-gradient);}.cls-4{fill:#4365aa;}.cls-5,.cls-7,.cls-8{stroke:#fff;}.cls-5{stroke-width:2.61px;}.cls-6{fill:#fff;}.cls-7{stroke-width:0.87px;}.cls-8{stroke-width:1.5px;}</style><linearGradient id="linear-gradient" x1="152.92" y1="19.83" x2="40.6" y2="111.23" gradientUnits="userSpaceOnUse"><stop offset="0" stop-color="#fff"/><stop offset="0.18" stop-color="#faedcd"/><stop offset="0.36" stop-color="#f5dda4"/><stop offset="0.54" stop-color="#f2d184"/><stop offset="0.7" stop-color="#efc96d"/><stop offset="0.86" stop-color="#eec460"/><stop offset="1" stop-color="#edc25b"/></linearGradient></defs><title>Solar_panels_icon</title><g id="Layer_1" data-name="Layer 1"><ellipse class="cls-1" cx="78.99" cy="79.98" rx="78.5" ry="79.49"/><ellipse class="cls-2" cx="78.99" cy="80.05" rx="73.5" ry="74.43"/><ellipse class="cls-3" cx="78.99" cy="79.99" rx="72" ry="73"/></g><g id="colour"><path class="cls-4" d="M98.59,71.31A78.81,78.81,0,0,1,83.33,73a2,2,0,0,0-1.45-.74,44.83,44.83,0,0,0-5.94,0l-.1,0a98.33,98.33,0,0,0-14,.51,2,2,0,0,0-1.66,1.17,2,2,0,0,0-1.49.86,105.71,105.71,0,0,1-13,14.92,2,2,0,0,0,1.41,3.41c11.27,0,23.17.55,34.42-.81,1.72.25,3.44.46,5.18.62a2,2,0,0,0,1.93-2.53l-.15-.44c5.37-3.61,9.43-10.77,12.36-15.65A2,2,0,0,0,98.59,71.31Z" transform="translate(-2.01 -1.01)"/></g><g id="icon"><polygon class="cls-5" points="42.07 92.09 85.47 92.09 100.74 70.45 58.95 70.45 42.07 92.09"/><polyline class="cls-5" points="100.74 70.45 111.99 92.09 111.99 133.49 42.07 133.49 42.07 92.09"/><line class="cls-5" x1="85.47" y1="92.09" x2="85.47" y2="133.49"/><rect class="cls-6" x="95.92" y="119.38" width="8.04" height="14.11"/><rect class="cls-6" x="49.7" y="117.03" width="9.69" height="11.29"/><rect class="cls-6" x="64.93" y="117.03" width="9.69" height="11.29"/><rect class="cls-6" x="49.7" y="100.09" width="9.69" height="11.29"/><rect class="cls-6" x="64.93" y="100.09" width="9.69" height="11.29"/><rect class="cls-6" x="92.3" y="100.09" width="6.43" height="11.29"/><rect class="cls-6" x="101.94" y="100.09" width="6.43" height="11.29"/><line class="cls-7" x1="73.44" y1="93.21" x2="88.68" y2="69.97"/><line class="cls-7" x1="63.77" y1="92.09" x2="79.04" y2="70.45"/><line class="cls-7" x1="53.32" y1="92.09" x2="70.2" y2="70.45"/><line class="cls-7" x1="50.1" y1="80.8" x2="93.5" y2="80.8"/><ellipse class="cls-6" cx="79.49" cy="29.22" rx="11.5" ry="12.23"/><line class="cls-8" x1="79.71" y1="46.34" x2="79.6" y2="61.68"/><polygon class="cls-6" points="75.23 60.75 84.17 61.11 79.02 66.2 75.23 60.75"/><line class="cls-8" x1="67.23" y1="45.92" x2="67.54" y2="61.28"/><polygon class="cls-6" points="63.15 60.42 72.09 60.62 67.08 65.82 63.15 60.42"/><line class="cls-8" x1="91.14" y1="46.14" x2="91.44" y2="61.5"/><polygon class="cls-6" points="87.05 60.65 95.99 60.84 90.98 66.04 87.05 60.65"/></g></svg>