<svg xmlns="http://www.w3.org/2000/svg" xmlns:xlink="http://www.w3.org/1999/xlink" viewBox="0 0 157.98 159.97"><defs><style>.cls-1{fill:#edc25b;stroke:#edc25b;stroke-width:0.98px;}.cls-1,.cls-4,.cls-5,.cls-6,.cls-7{stroke-miterlimit:10;}.cls-2,.cls-4{fill:#4365aa;}.cls-3{fill:url(#linear-gradient);}.cls-4,.cls-5,.cls-6,.cls-7{stroke:#fafbfc;}.cls-4,.cls-5{stroke-width:3.48px;}.cls-5,.cls-6,.cls-7{fill:none;}.cls-7{stroke-width:1.14px;}</style><linearGradient id="linear-gradient" x1="152.92" y1="19.83" x2="40.6" y2="111.23" gradientUnits="userSpaceOnUse"><stop offset="0" stop-color="#fff"/><stop offset="0.18" stop-color="#faedcd"/><stop offset="0.36" stop-color="#f5dda4"/><stop offset="0.54" stop-color="#f2d184"/><stop offset="0.7" stop-color="#efc96d"/><stop offset="0.86" stop-color="#eec460"/><stop offset="1" stop-color="#edc25b"/></linearGradient></defs><title>Triple_glazed_windows_icon</title><g id="Layer_1" data-name="Layer 1"><ellipse class="cls-1" cx="78.99" cy="79.98" rx="78.5" ry="79.49"/><ellipse class="cls-2" cx="78.99" cy="80.05" rx="73.5" ry="74.43"/><ellipse class="cls-3" cx="78.99" cy="79.99" rx="72" ry="73"/></g><g id="icon"><polygon class="cls-4" points="91.45 27.11 91.45 99.78 123.99 125.49 123.99 42.76 91.45 27.11"/><polygon class="cls-4" points="73.37 25.99 73.37 98.66 105.91 124.37 105.91 41.64 73.37 25.99"/><polygon class="cls-4" points="56.49 27.11 56.49 99.78 89.03 125.49 89.03 42.76 56.49 27.11"/><line class="cls-5" x1="56.49" y1="65.12" x2="89.04" y2="84.13"/><line class="cls-5" x1="70.95" y1="33.82" x2="70.95" y2="112.07"/><circle class="cls-6" cx="40.99" cy="62.99" r="8.5"/><line class="cls-7" x1="40.49" y1="79.98" x2="40.49" y2="101.99"/><line class="cls-7" x1="49.99" y1="91.28" x2="30.99" y2="91.28"/><line class="cls-7" x1="33.13" y1="82.63" x2="47.82" y2="99.01"/><line class="cls-7" x1="33.7" y1="99.61" x2="47.82" y2="82.37"/></g></svg>