<svg xmlns="http://www.w3.org/2000/svg" xmlns:xlink="http://www.w3.org/1999/xlink" viewBox="0 0 157.98 159.97"><defs><style>.cls-1{fill:#edc25b;stroke:#edc25b;stroke-width:0.98px;}.cls-1,.cls-10,.cls-11,.cls-12,.cls-2,.cls-4,.cls-7,.cls-8,.cls-9{stroke-miterlimit:10;}.cls-10,.cls-11,.cls-12,.cls-2,.cls-4,.cls-7,.cls-8,.cls-9{fill:none;}.cls-2,.cls-9{stroke:#4365aa;}.cls-2{stroke-width:2.81px;}.cls-3{fill:url(#linear-gradient);}.cls-10,.cls-11,.cls-12,.cls-4,.cls-7,.cls-8{stroke:#fff;}.cls-4{stroke-width:1.39px;}.cls-5{fill:#fff;}.cls-6{fill:#4365aa;}.cls-7{stroke-width:1.06px;}.cls-8{stroke-width:1.47px;}.cls-9{stroke-width:2.13px;}.cls-10{stroke-width:0.29px;}.cls-11{stroke-width:1.64px;}.cls-12{stroke-width:1.67px;}</style><linearGradient id="linear-gradient" x1="152.92" y1="19.83" x2="40.6" y2="111.23" gradientUnits="userSpaceOnUse"><stop offset="0" stop-color="#fff"/><stop offset="0.18" stop-color="#faedcd"/><stop offset="0.36" stop-color="#f5dda4"/><stop offset="0.54" stop-color="#f2d184"/><stop offset="0.7" stop-color="#efc96d"/><stop offset="0.86" stop-color="#eec460"/><stop offset="1" stop-color="#edc25b"/></linearGradient></defs><title>Whole_House_Energiesprong_icon</title><g id="Layer_1" data-name="Layer 1"><ellipse class="cls-1" cx="78.99" cy="79.98" rx="78.5" ry="79.49"/><ellipse class="cls-2" cx="78.99" cy="80.05" rx="73.5" ry="74.43"/><ellipse class="cls-3" cx="78.99" cy="79.99" rx="72" ry="73"/></g><g id="icon"><line class="cls-4" x1="79.64" y1="18.32" x2="79.55" y2="32.69"/><polygon class="cls-5" points="75.57 31.82 83.7 32.16 79.01 36.94 75.57 31.82"/><line class="cls-4" x1="68.3" y1="17.92" x2="68.58" y2="32.32"/><polygon class="cls-5" points="64.59 31.52 72.72 31.7 68.17 36.57 64.59 31.52"/><line class="cls-4" x1="90.03" y1="18.13" x2="90.31" y2="32.53"/><polygon class="cls-5" points="86.32 31.73 94.44 31.91 89.89 36.78 86.32 31.73"/><polygon class="cls-5" points="33.54 64.53 65.57 43.3 94.39 43.3 125.35 64.53 33.54 64.53"/><rect class="cls-5" x="47.42" y="64.53" width="65.13" height="50.95"/><polygon class="cls-6" points="51.69 62.4 65.57 50.73 94.39 50.73 108.27 62.4 51.69 62.4"/><line class="cls-7" x1="55.42" y1="53.38" x2="101.87" y2="53.91"/><line class="cls-7" x1="53.29" y1="57.63" x2="106.14" y2="58.16"/><line class="cls-5" x1="67.97" y1="50.73" x2="60.63" y2="62.4"/><polygon class="cls-8" points="79.36 46.55 96.15 68.35 67.14 67.23 79.36 46.55"/><line class="cls-9" x1="60.23" y1="62.4" x2="60.23" y2="69.83"/><line class="cls-9" x1="59.15" y1="69.04" x2="108.27" y2="69.04"/><line class="cls-9" x1="107.2" y1="69.83" x2="107.2" y2="76.2"/><line class="cls-9" x1="51.69" y1="75.14" x2="108.27" y2="75.41"/><line class="cls-9" x1="52.75" y1="75.14" x2="52.75" y2="81.51"/><line class="cls-9" x1="51.69" y1="82.57" x2="108.27" y2="82.84"/><line class="cls-9" x1="107.2" y1="83.63" x2="107.2" y2="90"/><line class="cls-9" x1="51.69" y1="90" x2="108.27" y2="90.27"/><line class="cls-9" x1="52.75" y1="91.07" x2="52.75" y2="97.43"/><line class="cls-9" x1="51.69" y1="98.5" x2="108.27" y2="98.76"/><line class="cls-9" x1="107.2" y1="99.56" x2="107.2" y2="110.17"/><line class="cls-9" x1="53.82" y1="110.17" x2="108.27" y2="110.44"/><ellipse class="cls-6" cx="54.09" cy="105.93" rx="2.94" ry="3.72"/><ellipse class="cls-6" cx="54.09" cy="109.11" rx="2.52" ry="1.06"/><ellipse class="cls-6" cx="54.09" cy="110.17" rx="2.52" ry="1.06"/><ellipse class="cls-6" cx="54.09" cy="111.23" rx="2.52" ry="1.06"/><line class="cls-10" x1="53.88" y1="103.27" x2="52.83" y2="105.93"/><line class="cls-10" x1="52.83" y1="105.93" x2="54.93" y2="105.93"/><line class="cls-10" x1="54.93" y1="105.93" x2="53.88" y2="108.58"/><line class="cls-4" x1="78.48" y1="140.59" x2="78.58" y2="126.21"/><polygon class="cls-5" points="82.56 127.09 74.43 126.75 79.11 121.97 82.56 127.09"/><line class="cls-4" x1="89.82" y1="140.99" x2="89.54" y2="126.59"/><polygon class="cls-5" points="93.54 127.39 85.41 127.21 89.96 122.34 93.54 127.39"/><line class="cls-4" x1="68.09" y1="140.78" x2="67.81" y2="126.38"/><polygon class="cls-5" points="71.81 127.18 63.68 127 68.23 122.13 71.81 127.18"/><path class="cls-11" d="M99.64,29.31c22.84,0,41.36,23.08,41.36,51.56s-18.52,51.56-41.36,51.56" transform="translate(-2.01 -1.01)"/><path class="cls-12" d="M63.73,132.43C40.13,132.43,21,109.34,21,80.87S40.13,29.31,63.73,29.31" transform="translate(-2.01 -1.01)"/></g></svg>