<?xml version="1.0" encoding="utf-8"?>
<!-- Generator: Adobe Illustrator 21.1.0, SVG Export Plug-In . SVG Version: 6.00 Build 0)  -->
<svg version="1.1" xmlns="http://www.w3.org/2000/svg" xmlns:xlink="http://www.w3.org/1999/xlink" x="0px" y="0px"
	 viewBox="0 0 162 162" style="enable-background:new 0 0 162 162;" xml:space="preserve">
<style type="text/css">
	.st0{fill:#102773;stroke:#102773;stroke-width:0.9813;stroke-miterlimit:10;}
	.st1{fill:none;stroke:#102773;stroke-width:2.8089;stroke-miterlimit:10;}
	.st2{fill:#FCFCFC;}
	.st3{fill:none;stroke:#102773;stroke-width:1.3876;stroke-miterlimit:10;}
	.st4{fill:#102773;}
	.st5{fill:#F9F9F9;}
	.st6{fill:none;stroke:#102773;stroke-width:1.0646;stroke-miterlimit:10;}
	.st7{fill:#FFFFFF;}
	.st8{fill:none;stroke:#102773;stroke-width:1.4659;stroke-miterlimit:10;}
	.st9{fill:none;stroke:#FCFCFC;stroke-width:2.1292;stroke-miterlimit:10;}
	.st10{fill:none;stroke:#FFFFFF;stroke-width:2.1292;stroke-miterlimit:10;}
	.st11{fill:none;stroke:#FAFBFC;stroke-width:2.1292;stroke-miterlimit:10;}
	.st12{fill:none;stroke:#F7F8F9;stroke-width:2.1292;stroke-miterlimit:10;}
	.st13{fill:none;stroke:#F9F9F9;stroke-width:2.1292;stroke-miterlimit:10;}
	.st14{fill:none;stroke:#102773;stroke-width:0.2949;stroke-miterlimit:10;}
	.st15{fill:none;stroke:#102773;stroke-width:1.6424;stroke-miterlimit:10;}
	.st16{fill:none;stroke:#102773;stroke-width:1.6692;stroke-miterlimit:10;}
</style>
<g id="Layer_1">
	<ellipse class="st0" cx="81" cy="81" rx="78.5" ry="79.5"/>
	<ellipse class="st1" cx="81" cy="81.1" rx="73.5" ry="74.4"/>
	<ellipse class="st2" cx="81" cy="81" rx="72" ry="73"/>
</g>
<g id="icon">
	<line class="st3" x1="81.7" y1="19.3" x2="81.6" y2="33.7"/>
	<polygon class="st4" points="77.6,32.8 85.7,33.2 81,37.9 	"/>
	<line class="st3" x1="70.3" y1="18.9" x2="70.6" y2="33.3"/>
	<polygon class="st4" points="66.6,32.5 74.7,32.7 70.2,37.6 	"/>
	<line class="st3" x1="92" y1="19.1" x2="92.3" y2="33.5"/>
	<polygon class="st4" points="88.3,32.7 96.5,32.9 91.9,37.8 	"/>
	<polygon class="st4" points="35.5,65.5 67.6,44.3 96.4,44.3 127.4,65.5 	"/>
	<rect x="49.4" y="65.5" class="st4" width="65.1" height="51"/>
	<polygon class="st5" points="53.7,63.4 67.6,51.7 96.4,51.7 110.3,63.4 	"/>
	<line class="st6" x1="57.4" y1="54.4" x2="103.9" y2="54.9"/>
	<line class="st6" x1="55.3" y1="58.6" x2="108.1" y2="59.2"/>
	<line class="st7" x1="70" y1="51.7" x2="62.6" y2="63.4"/>
	<polygon class="st8" points="81.4,47.6 98.2,69.4 69.1,68.2 	"/>
	<line class="st9" x1="62.2" y1="63.4" x2="62.2" y2="70.8"/>
	<line class="st10" x1="61.2" y1="70" x2="110.3" y2="70"/>
	<line class="st11" x1="109.2" y1="70.8" x2="109.2" y2="77.2"/>
	<line class="st12" x1="53.7" y1="76.2" x2="110.3" y2="76.4"/>
	<line class="st13" x1="54.8" y1="76.2" x2="54.8" y2="82.5"/>
	<line class="st9" x1="53.7" y1="83.6" x2="110.3" y2="83.8"/>
	<line class="st13" x1="109.2" y1="84.6" x2="109.2" y2="91"/>
	<line class="st13" x1="53.7" y1="91" x2="110.3" y2="91.3"/>
	<line class="st13" x1="54.8" y1="92.1" x2="54.8" y2="98.4"/>
	<line class="st9" x1="53.7" y1="99.5" x2="110.3" y2="99.8"/>
	<line class="st12" x1="109.2" y1="100.6" x2="109.2" y2="111.2"/>
	<line class="st12" x1="55.8" y1="111.2" x2="110.3" y2="111.4"/>
	<ellipse class="st2" cx="56.1" cy="106.9" rx="2.9" ry="3.7"/>
	<ellipse class="st2" cx="56.1" cy="110.1" rx="2.5" ry="1.1"/>
	<ellipse class="st5" cx="56.1" cy="111.2" rx="2.5" ry="1.1"/>
	<ellipse class="st2" cx="56.1" cy="112.2" rx="2.5" ry="1.1"/>
	<g>
		<line class="st14" x1="55.9" y1="104.3" x2="54.8" y2="106.9"/>
		<line class="st14" x1="54.8" y1="106.9" x2="56.9" y2="106.9"/>
		<line class="st14" x1="56.9" y1="106.9" x2="55.9" y2="109.6"/>
	</g>
	<line class="st3" x1="80.5" y1="141.6" x2="80.6" y2="127.2"/>
	<polygon class="st4" points="84.6,128.1 76.4,127.8 81.1,123 	"/>
	<line class="st3" x1="91.8" y1="142" x2="91.6" y2="127.6"/>
	<polygon class="st4" points="95.5,128.4 87.4,128.2 92,123.3 	"/>
	<line class="st3" x1="70.1" y1="141.8" x2="69.8" y2="127.4"/>
	<polygon class="st4" points="73.8,128.2 65.7,128 70.2,123.1 	"/>
	<path class="st15" d="M99.6,29.3c22.8,0,41.4,23.1,41.4,51.6s-18.5,51.6-41.4,51.6"/>
	<path class="st16" d="M63.7,132.4c-23.6,0-42.7-23.1-42.7-51.6s19.1-51.6,42.7-51.6"/>
</g>
</svg>
