<?xml version="1.0" encoding="UTF-8" standalone="no"?>
<!DOCTYPE svg PUBLIC "-//W3C//DTD SVG 1.1//EN" "http://www.w3.org/Graphics/SVG/1.1/DTD/svg11.dtd">
<svg viewBox="0 0 12756 12756" version="1.1" xmlns="http://www.w3.org/2000/svg" xmlns:xlink="http://www.w3.org/1999/xlink" xml:space="preserve" xmlns:serif="http://www.serif.com/" style="fill-rule:evenodd;clip-rule:evenodd;stroke-linejoin:round;stroke-miterlimit:2;">
    <g transform="matrix(1,0,0,1,-37335.6,-16421.4)">
        <g id="Artboard6" transform="matrix(17.103,0,0,19.7229,-105432,-9890.81)">
            <rect x="8347.5" y="1334.1" width="745.829" height="646.758" style="fill:none;"/>
            <g transform="matrix(0.536203,-0.178907,0.311235,0.701449,6442.42,-1510.71)">
                <g>
                    <g transform="matrix(1.05939,1.83775e-18,-1.21821e-18,0.702252,-164.216,2064.69)">
                        <g transform="matrix(1,0,0,1,391.63,10.3282)">
                            <g transform="matrix(0.167077,0.856077,0.856077,-0.167077,586.78,2365.76)">
                                <circle cx="1909.05" cy="623.837" r="51.366" style="fill:rgb(230,178,7);"/>
                                <g transform="matrix(1,0,0,1,8.77974,-5.21707)">
                                    <path d="M1972.61,595.408C1969.33,598.757 1973.99,608.166 1978.67,608.086C1984.77,607.982 2005,599.043 2009.16,594.786C2012.29,591.587 2008.12,582.469 2003.65,582.545C1997.56,582.649 1976.77,591.151 1972.61,595.408Z" style="fill:rgb(230,178,7);"/>
                                    <g transform="matrix(1,0,0,1,-182.866,67.477)">
                                        <path d="M1972.61,595.408C1969.33,598.757 1973.99,608.166 1978.67,608.086C1984.77,607.982 2005,599.043 2009.16,594.786C2012.29,591.587 2008.12,582.469 2003.65,582.545C1997.56,582.649 1976.77,591.151 1972.61,595.408Z" style="fill:rgb(230,178,7);"/>
                                    </g>
                                </g>
                                <g transform="matrix(-0.54001,-0.841658,0.841658,-0.54001,2404.5,2562.22)">
                                    <path d="M1972.61,595.408C1969.33,598.757 1973.99,608.166 1978.67,608.086C1984.77,607.982 2005,599.043 2009.16,594.786C2012.29,591.587 2008.12,582.469 2003.65,582.545C1997.56,582.649 1976.77,591.151 1972.61,595.408Z" style="fill:rgb(230,178,7);"/>
                                    <g transform="matrix(1,0,0,1,-182.866,67.477)">
                                        <path d="M1972.61,595.408C1969.33,598.757 1973.99,608.166 1978.67,608.086C1984.77,607.982 2005,599.043 2009.16,594.786C2012.29,591.587 2008.12,582.469 2003.65,582.545C1997.56,582.649 1976.77,591.151 1972.61,595.408Z" style="fill:rgb(230,178,7);"/>
                                    </g>
                                </g>
                                <g transform="matrix(0.52916,-0.848522,0.848522,0.52916,369.349,1902.69)">
                                    <path d="M1972.61,595.408C1969.33,598.757 1973.99,608.166 1978.67,608.086C1984.77,607.982 2005,599.043 2009.16,594.786C2012.29,591.587 2008.12,582.469 2003.65,582.545C1997.56,582.649 1976.77,591.151 1972.61,595.408Z" style="fill:rgb(230,178,7);"/>
                                    <g transform="matrix(1,0,0,1,-182.866,67.477)">
                                        <path d="M1972.61,595.408C1969.33,598.757 1973.99,608.166 1978.67,608.086C1984.77,607.982 2005,599.043 2009.16,594.786C2012.29,591.587 2008.12,582.469 2003.65,582.545C1997.56,582.649 1976.77,591.151 1972.61,595.408Z" style="fill:rgb(230,178,7);"/>
                                    </g>
                                </g>
                            </g>
                            <g transform="matrix(0.716746,0.631191,-0.568961,0.646081,-126.642,1930.98)">
                                <path d="M2391.12,294.821C2378.53,307.207 2291.66,390.821 2345.65,464.792C2348.87,469.207 2334.94,499.752 2339.88,508.307C2344.82,516.862 2368.04,522.274 2375.28,516.121C2382.52,509.967 2383.32,471.387 2383.32,471.387C2383.32,471.387 2427.85,446.842 2421.22,390.476C2411.01,303.47 2403.72,282.435 2391.12,294.821Z" style="fill:rgb(54,164,73);"/>
                            </g>
                            <g transform="matrix(-0.71718,-0.710221,0.665142,-0.67166,3282.68,6862.46)">
                                <path d="M3234.92,654.029C3219.05,639.34 3082.89,724.247 3161.2,777.787C3221.2,818.81 3248.46,666.552 3234.92,654.029Z" style="fill:rgb(55,192,212);"/>
                            </g>
                            <g transform="matrix(0.75356,-1.10984,1.10984,0.75356,-4254.89,2145.2)">
                                <g transform="matrix(1,0,-5.55112e-17,1,-43.3465,26.1249)">
                                    <path d="M1206.93,3906.28C1205.03,3901.09 1207.7,3895.34 1212.89,3893.44C1218.07,3891.54 1223.83,3894.21 1225.72,3899.39C1225.72,3899.39 1232.29,3917.24 1245.83,3932.65C1258.31,3946.86 1277.15,3959.19 1302.98,3950.18C1315.8,3945.7 1322.14,3940.66 1323.03,3934.74C1323.53,3931.41 1321.71,3928.37 1319.3,3926.24C1316.89,3924.11 1313.72,3922.65 1310.73,3923.4C1308.16,3924.05 1306.29,3926.5 1304.88,3930.42C1303.01,3935.62 1297.28,3938.32 1292.08,3936.46C1286.88,3934.59 1284.17,3928.86 1286.04,3923.66C1290.33,3911.69 1297.99,3905.97 1305.84,3903.99C1315,3901.68 1325.16,3904.71 1332.54,3911.23C1339.92,3917.75 1344.35,3927.5 1342.82,3937.7C1341.23,3948.38 1332.74,3960.99 1309.57,3969.08C1274.08,3981.46 1247.95,3965.39 1230.79,3945.86C1214.69,3927.53 1206.93,3906.28 1206.93,3906.28ZM1206.93,3906.28C1206.93,3906.28 1206.93,3906.28 1206.93,3906.28Z" style="fill:rgb(55,192,212);"/>
                                </g>
                                <g transform="matrix(1,0,-5.55112e-17,1,15.0479,56.373)">
                                    <path d="M1206.93,3906.28C1205.03,3901.09 1207.7,3895.34 1212.89,3893.44C1218.07,3891.54 1223.83,3894.21 1225.72,3899.39C1225.72,3899.39 1232.29,3917.24 1245.83,3932.65C1258.31,3946.86 1277.15,3959.19 1302.98,3950.18C1315.8,3945.7 1322.14,3940.66 1323.03,3934.74C1323.53,3931.41 1321.71,3928.37 1319.3,3926.24C1316.89,3924.11 1313.72,3922.65 1310.73,3923.4C1308.16,3924.05 1306.29,3926.5 1304.88,3930.42C1303.01,3935.62 1297.28,3938.32 1292.08,3936.46C1286.88,3934.59 1284.17,3928.86 1286.04,3923.66C1290.33,3911.69 1297.99,3905.97 1305.84,3903.99C1315,3901.68 1325.16,3904.71 1332.54,3911.23C1339.92,3917.75 1344.35,3927.5 1342.82,3937.7C1341.23,3948.38 1332.74,3960.99 1309.57,3969.08C1274.08,3981.46 1247.95,3965.39 1230.79,3945.86C1214.69,3927.53 1206.93,3906.28 1206.93,3906.28ZM1206.93,3906.28C1206.93,3906.28 1206.93,3906.28 1206.93,3906.28L1206.93,3906.28Z" style="fill:rgb(55,192,212);"/>
                                </g>
                            </g>
                            <g transform="matrix(-1.7652,1.01652,1.1049,1.91868,-794.811,-5436.14)">
                                <g transform="matrix(0.355303,0.411284,-0.385179,0.332752,593.522,2551.28)">
                                    <path d="M3233.21,659.608C3191.01,622.44 3090.68,745.367 3126.39,782.567C3165.01,822.8 3259.58,682.836 3233.21,659.608Z" style="fill:rgb(91,111,162);"/>
                                </g>
                                <g>
                                    <g transform="matrix(1,0,0,1,0,0.602508)">
                                        <path d="M1435.94,4078.35C1435.94,4078.35 1442.3,4063.14 1445.57,4063.45C1448.83,4063.75 1457.77,4081.06 1455.53,4080.19C1447.96,4077.22 1435.94,4078.35 1435.94,4078.35Z" style="fill:rgb(91,111,162);"/>
                                    </g>
                                    <g transform="matrix(-0.578764,0.383652,-0.420575,-0.634465,4014.47,6146.45)">
                                        <path d="M1435.94,4078.35C1435.94,4078.35 1442.3,4063.14 1445.57,4063.45C1448.83,4063.75 1457.77,4081.06 1455.53,4080.19C1447.96,4077.22 1435.94,4078.35 1435.94,4078.35Z" style="fill:rgb(91,111,162);"/>
                                    </g>
                                    <g transform="matrix(1,0,0,1,0,0.602508)">
                                        <path d="M1481.87,4092.38C1481.87,4092.38 1496.78,4077.07 1500.6,4080.76C1504.43,4084.45 1503.71,4109.19 1500.49,4112.96C1497.27,4116.74 1481.27,4103.41 1481.27,4103.41L1481.87,4092.38Z" style="fill:rgb(91,111,162);"/>
                                    </g>
                                </g>
                            </g>
                            <g transform="matrix(1.4929,-0.679281,0.679281,1.4929,-3483.39,-644.864)">
                                <g transform="matrix(0.993056,0.117639,-0.117639,0.993056,459.941,-148.307)">
                                    <path d="M1415.88,3822.39C1412.76,3820.07 1393.75,3869.97 1445.57,3863.35C1445.57,3863.35 1444.41,3875.99 1448.41,3874.23C1452.41,3872.47 1462.74,3861.14 1462.74,3852.3C1462.74,3843.46 1452.41,3832.17 1448.41,3830.64C1444.41,3829.1 1445.57,3843.55 1445.57,3843.55C1418.17,3849.24 1416.51,3822.86 1415.88,3822.39Z" style="fill:rgb(54,164,73);"/>
                                </g>
                                <g transform="matrix(-0.339018,-0.94078,0.94078,-0.339018,-1643.18,6468.05)">
                                    <path d="M1415.88,3822.39C1412.76,3820.07 1393.75,3869.97 1445.57,3863.35C1445.57,3863.35 1444.41,3875.99 1448.41,3874.23C1452.41,3872.47 1462.74,3861.14 1462.74,3852.3C1462.74,3843.46 1452.41,3832.17 1448.41,3830.64C1444.41,3829.1 1445.57,3843.55 1445.57,3843.55C1418.17,3849.24 1416.51,3822.86 1415.88,3822.39Z" style="fill:rgb(54,164,73);"/>
                                </g>
                                <g transform="matrix(-0.582192,0.813051,-0.813051,-0.582192,5401.36,4852.52)">
                                    <path d="M1415.88,3822.39C1412.76,3820.07 1393.75,3869.97 1445.57,3863.35C1445.57,3863.35 1444.41,3875.99 1448.41,3874.23C1452.41,3872.47 1462.74,3861.14 1462.74,3852.3C1462.74,3843.46 1452.41,3832.17 1448.41,3830.64C1444.41,3829.1 1445.57,3843.55 1445.57,3843.55C1418.17,3849.24 1416.51,3822.86 1415.88,3822.39Z" style="fill:rgb(54,164,73);"/>
                                </g>
                            </g>
                        </g>
                        <g transform="matrix(0.983097,-0.183083,0.183083,0.983097,-352.826,220.226)">
                            <g>
                                <g transform="matrix(1,0,0,1,0,0.602508)">
                                    <path d="M1025.53,3767.68C827.755,3919.56 759.545,3968.55 591.22,4101.06C587.278,4104.16 595.793,4141.76 602,4175.67C607.184,4203.99 609.255,4229.7 615.343,4230.97C825.448,4274.76 978.101,4292.79 1155.95,4315.48C1249.84,4327.46 1092.6,3716.17 1025.53,3767.68Z" style="fill:rgb(207,20,43);"/>
                                </g>
                                <g transform="matrix(0.99838,-0.0568967,0.0568967,0.99838,-255.54,-51.6982)">
                                    <path d="M869.775,4413.27L876.595,4384.94C879.717,4371.97 892.778,4363.98 905.744,4367.1C918.71,4370.22 926.703,4383.28 923.582,4396.25L911.145,4447.91C908.033,4460.84 895.058,4468.82 882.114,4465.78C882.114,4465.78 730.619,4429.76 729.662,4429.35C727.919,4428.61 712.124,4420.81 715.413,4401.4C717.047,4391.75 728.683,4344.99 728.683,4344.99C731.916,4332.05 745.045,4324.17 757.984,4327.4C770.923,4330.64 778.803,4343.77 775.57,4356.7L767.81,4389.44L771.521,4390.31C788.082,4394.19 804.643,4398.07 821.203,4401.94L869.775,4413.27Z" style="fill:rgb(207,20,43);"/>
                                </g>
                                <g transform="matrix(0.985436,-0.170046,0.167882,0.972895,-689.185,98.5612)">
                                    <path d="M590.216,4226.38C590.216,4220.88 585.804,4216.41 580.371,4216.41L560.68,4216.41C555.246,4216.41 550.835,4220.88 550.835,4226.38L550.835,4340.08C550.835,4345.58 555.246,4350.05 560.68,4350.05L580.371,4350.05C585.804,4350.05 590.216,4345.58 590.216,4340.08L590.216,4226.38Z" style="fill:rgb(207,20,43);"/>
                                </g>
                            </g>
                        </g>
                    </g>
                    <g transform="matrix(6.29528,-1.66636,2.51381,4.17303,-29050.8,-19011.3)">
                        <g transform="matrix(34.9438,-4.91264e-17,-4.91264e-17,34.9438,2143.37,6615.94)">
                            <path d="M0.313,-0.37C0.356,-0.37 0.39,-0.38 0.413,-0.4C0.436,-0.42 0.448,-0.448 0.448,-0.485C0.448,-0.555 0.403,-0.59 0.313,-0.59C0.3,-0.59 0.288,-0.589 0.276,-0.587C0.271,-0.586 0.268,-0.582 0.268,-0.576L0.268,-0.382C0.268,-0.377 0.271,-0.373 0.276,-0.372C0.292,-0.371 0.304,-0.37 0.313,-0.37ZM0.293,-0.74C0.52,-0.74 0.633,-0.658 0.633,-0.495C0.633,-0.406 0.608,-0.339 0.557,-0.294C0.505,-0.248 0.431,-0.225 0.333,-0.225C0.318,-0.225 0.3,-0.226 0.277,-0.227C0.271,-0.227 0.268,-0.224 0.268,-0.219L0.268,-0.057C0.268,-0.042 0.262,-0.028 0.251,-0.017C0.24,-0.006 0.226,-0 0.211,-0L0.13,-0C0.115,-0 0.101,-0.006 0.09,-0.017C0.079,-0.028 0.073,-0.042 0.073,-0.057L0.073,-0.668C0.073,-0.684 0.078,-0.698 0.089,-0.711C0.1,-0.724 0.113,-0.731 0.129,-0.732C0.186,-0.737 0.24,-0.74 0.293,-0.74Z" style="fill:white;fill-rule:nonzero;"/>
                        </g>
                        <g transform="matrix(43.6561,5.43206e-15,5.43206e-15,43.6561,2168.7,6618.79)">
                            <path d="M0.313,-0.37C0.356,-0.37 0.39,-0.38 0.413,-0.4C0.436,-0.42 0.448,-0.448 0.448,-0.485C0.448,-0.555 0.403,-0.59 0.313,-0.59C0.3,-0.59 0.288,-0.589 0.276,-0.587C0.271,-0.586 0.268,-0.582 0.268,-0.576L0.268,-0.382C0.268,-0.377 0.271,-0.373 0.276,-0.372C0.292,-0.371 0.304,-0.37 0.313,-0.37ZM0.293,-0.74C0.52,-0.74 0.633,-0.658 0.633,-0.495C0.633,-0.406 0.608,-0.339 0.557,-0.294C0.505,-0.248 0.431,-0.225 0.333,-0.225C0.318,-0.225 0.3,-0.226 0.277,-0.227C0.271,-0.227 0.268,-0.224 0.268,-0.219L0.268,-0.057C0.268,-0.042 0.262,-0.028 0.251,-0.017C0.24,-0.006 0.226,-0 0.211,-0L0.13,-0C0.115,-0 0.101,-0.006 0.09,-0.017C0.079,-0.028 0.073,-0.042 0.073,-0.057L0.073,-0.668C0.073,-0.684 0.078,-0.698 0.089,-0.711C0.1,-0.724 0.113,-0.731 0.129,-0.732C0.186,-0.737 0.24,-0.74 0.293,-0.74Z" style="fill:white;fill-rule:nonzero;"/>
                        </g>
                    </g>
                </g>
            </g>
        </g>
    </g>
</svg>
