<svg xmlns="http://www.w3.org/2000/svg" viewBox="0 0 137.2 354.18"><defs><style>.cls-1{fill:#3a271b;}.cls-2{fill:#231307;}.cls-3{fill:#efbfa5;}.cls-4{fill:#fff;}.cls-5{fill:#f9e6dc;}.cls-6{fill:#fcf5f2;}.cls-7{fill:#e2a786;}.cls-8{fill:#f9a475;}.cls-9{fill:#19120f;}.cls-10{fill:#332520;}.cls-11{fill:#f7efed;}.cls-12{fill:#30302f;}.cls-13{fill:#262625;}.cls-14{fill:#f9773e;}.cls-15{fill:#efeeed;}.cls-16{fill:#ddd;}.cls-17{fill:#969493;}</style></defs><title>Character 7</title><g id="shoes_colours" data-name="shoes colours"><path class="cls-1" d="M133.72,339.84c-.48-2.67-4-2.12-4.72,0l-.12,0a2.86,2.86,0,0,0-2.22-.15,2,2,0,0,0-2.16-1.31,9.62,9.62,0,0,0-4,1.32,2,2,0,0,0-.12-.25,2.51,2.51,0,0,0-2.4-1.19,2.56,2.56,0,0,0-3,1.09,13.06,13.06,0,0,0-1.1,2l0,0h0l-.26.59a2,2,0,0,0-.05,1.06c-1.62,3.69-2.72,7.5-5.09,10.9-2,2.8-6.32,5.15-5.74,8.88a2.45,2.45,0,0,0,1.75,1.75c2.48.66,5.55.32,8.08.19a33.92,33.92,0,0,0,5.52-.34,2.24,2.24,0,0,0,2-.72C126.79,356.92,135.65,350.49,133.72,339.84Z" transform="translate(-101.87 -14.05)"/><path class="cls-1" d="M189.79,344.49a2.42,2.42,0,0,0-.48-1c0-1.05,0-2.11,0-3.17a2.55,2.55,0,0,0-4.11-1.91,3,3,0,0,0-1.57.23,2.77,2.77,0,0,0-3-.15c0-.16,0-.32,0-.48-.36-3.16-5.36-3.2-5,0a62.83,62.83,0,0,1-.82,19.87,2.64,2.64,0,0,0,2.94,3.11c.41,1.62,2.63,1.9,4,.85a2.72,2.72,0,0,0,3.7-.38h.17a2.74,2.74,0,0,0,4-1.26C191.53,355.3,190.91,349.48,189.79,344.49Z" transform="translate(-101.87 -14.05)"/></g><g id="shoes"><path class="cls-2" d="M134.17,340.6a.4.4,0,0,0-.28-.33l0-.4c-.08-.63-1.08-.64-1,0,.4,3.29.82,6.82-.73,9.89-1.24,2.46-3.47,4.42-5.44,6.33a.5.5,0,0,0-.35.31l0,0h0c-1.86,1.82-3.75,4.05-6,5.49a7.8,7.8,0,0,0-.13-1.39,13.39,13.39,0,0,0-1.62-3.66,5,5,0,0,1-.24-.65l.45.1a.5.5,0,0,0,.59-.35.55.55,0,0,0,.6-.62l-.07-.46a.41.41,0,0,0-.55-.34.51.51,0,0,0-.21-.15l-1-.31a7,7,0,0,1,.6-1.72c.38.12.75.24,1.13.38h0a.48.48,0,0,0,.76.1l.75-.75a.5.5,0,0,0-.43-.84q-.71-.25-1.42-.46l.11-.2.51-.9.72.2a.42.42,0,0,0,.56-.26,1.55,1.55,0,0,0,.85-.66.48.48,0,0,0-.4-.73.51.51,0,0,0-.14-.08l-.54-.18c.31-.5.64-1,1-1.49.54.22,1.08.45,1.61.71s1-.45.61-.79a.39.39,0,0,0-.07-.59l-.1-.08h0a11.45,11.45,0,0,0-1-.7l.34-.43a4.14,4.14,0,0,0,1.39.28.51.51,0,0,0,.43-.75,1.56,1.56,0,0,0-.12-.17.55.55,0,0,0,0-.89l-.29-.2c.35-.39.7-.79,1.08-1.16s-.25-1.16-.71-.71-.82.86-1.21,1.31a13.73,13.73,0,0,0-4.56-1.82,12.09,12.09,0,0,0-3.67-.33v-.06a.47.47,0,0,0,.26-.31l.54-1.81a.5.5,0,0,0-.81-.5.48.48,0,0,0-.45.11c-2.32,2-2.64,5.17-3.48,8a37.75,37.75,0,0,1-1.47,4.11.51.51,0,0,0-.26.56,21.21,21.21,0,0,1-3.5,5.48c-1.57,1.74-4.61,3.61-4.53,6.3,0,0,0,0,0,.05-2.87,6.58,8.77,6.3,12.16,5.95a13.76,13.76,0,0,0,8-3.19,18.17,18.17,0,0,0,4.25-6.86.48.48,0,0,0,.79-.07c.28-.5,2-1,2.45-1.3a10.27,10.27,0,0,0,2-1.4,8.18,8.18,0,0,0,2.17-3.45C135.27,348.28,134.81,344.17,134.17,340.6Zm-15.67,9.92a28.31,28.31,0,0,0-5-.79c.19-.44.35-.89.51-1.34a15.17,15.17,0,0,1,1.59.16l3.54.89C118.93,349.81,118.7,350.16,118.5,350.53Zm2.25-3.61-.49.77a24.5,24.5,0,0,0-5.69-1c.18-.62.34-1.24.49-1.87a23.41,23.41,0,0,1,6.21,1.28C121.09,346.4,120.91,346.66,120.75,346.92Zm1.63-2.35a11.79,11.79,0,0,0-6.94-1.42c0-.22.08-.44.12-.66a28.87,28.87,0,0,0,2.9,0l.41.05c.42.1.84.2,1.26.32l.51.13c.32.16.6.32.83.45.43.26.82.51,1.22.73ZM115,339.82c0,.24-.09.47-.13.71l-.07,0a.48.48,0,0,0-.19.63l-.05,0a.51.51,0,0,0,0,.86l0,0c-.08.44-.15.89-.24,1.33a5.14,5.14,0,0,0-.8.37A14.24,14.24,0,0,1,115,339.82Zm-2,6.06c.12-.39.22-.8.33-1.21a.48.48,0,0,0,.33.13h.39c-.15.63-.31,1.25-.49,1.87h-.82C112.85,346.43,112.95,346.16,113,345.88Zm-.84,2.46a.45.45,0,0,0,.25.06H113c-.16.44-.32.88-.51,1.31l-.83,0C111.86,349.23,112,348.78,112.19,348.34Zm.41,3.32a17,17,0,0,1,5.05.42c-.22.46-.43.92-.6,1.38,0,.12-.06.22-.09.32a21.12,21.12,0,0,0-5.33-.57A17.74,17.74,0,0,0,112.61,351.66Zm-2.28.91c.15-.27.28-.55.42-.83a.51.51,0,0,0,.34.07l.28,0a18.51,18.51,0,0,1-1.09,1.5l-.4,0C110,353.07,110.19,352.83,110.33,352.57Zm9,9.66a1.82,1.82,0,0,1-.79.62,12.3,12.3,0,0,1-1.58.46l-.53.09a28.79,28.79,0,0,1-5.29.16,39.1,39.1,0,0,1-5.62-.51c-2.35-.41-1-2.19.09-3.39,1.37-1.56,3-2.9,4.4-4.41a33,33,0,0,1,7,.68c.33.88,1,1.69,1.5,2.77C118.77,359.2,119.71,361.57,119.3,362.23Z" transform="translate(-101.87 -14.05)"/><path class="cls-2" d="M191.63,358.36v-3a.45.45,0,0,0,0-.17l0-.07v0l-.41-.68a21.88,21.88,0,0,0-.13-2.58c-.39-3.62-.93-7.22-1.54-10.81-.11-.63-1.07-.36-1,.27.53,3.18,1,6.37,1.39,9.57a28.89,28.89,0,0,1,.27,3.36.44.44,0,0,0,0,.49,9.15,9.15,0,0,1-.21,1.69c-.75-1.7-2.83-2.48-3.94-3.93l.77.19a.5.5,0,0,0,.27-1c-.52-.21-1.09-.42-1.68-.6,0,0,0-.08,0-.12a4.5,4.5,0,0,1,0-.79l1.36.42a.51.51,0,0,0,.56-.73,4,4,0,0,0-1.73-1.46l.11-.65a3.43,3.43,0,0,0,.79,0c.45,0,.73-.68.25-.93l-.83-.41c.05-.45.12-.91.18-1.36a5.93,5.93,0,0,0,1.54.29,1,1,0,0,0,0-1.34,13,13,0,0,0-1.28-.76c.13-1,.24-1.92.38-2.87.09-.63-.87-.9-1-.27-.13.9-.24,1.8-.36,2.71a12.19,12.19,0,0,0-6.92-.74,15.38,15.38,0,0,1,.12-3.21c.1-.63-.86-.9-1-.27a17.87,17.87,0,0,0-.15,3.7l-.33.08a.46.46,0,0,0-.35.47c-.47.21-.46,1,.14,1h.64c0,.49.09,1,.14,1.48a4.68,4.68,0,0,0-.91.53c-.47.35-.08,1.11.39.92a.53.53,0,0,0,.67.34c0,.37,0,.74,0,1.09a7.71,7.71,0,0,0-1.28.51.45.45,0,0,0-.19.19,92.63,92.63,0,0,0-.36-11.58c-.05-.64-1.05-.64-1,0,.56,6.72.81,13.47-.71,20.07a4.11,4.11,0,0,0-.25.77.49.49,0,0,0-.29.3c-.68,1.87-1.21,4.38.56,5.8,2.14,1.72,6.18,1.24,8.68,1.17s5.18,0,7-1.9A5.93,5.93,0,0,0,191.63,358.36Zm-8.56-14.23a12.24,12.24,0,0,1,2,.58c-.05.42-.12.84-.17,1.26a10.86,10.86,0,0,0-6.24-1q-.06-.57-.12-1.15A26.81,26.81,0,0,1,183.07,344.13Zm-4.2,3.76c0-.44,0-.88-.08-1.32a18,18,0,0,1,4.08.37c.61.14,1.19.37,1.78.56l-.08.51A12.18,12.18,0,0,0,178.87,347.89Zm5.45,2c0,.3,0,.59,0,.88a13.59,13.59,0,0,0-5.49-.39c0-.34.06-.68.07-1A12.08,12.08,0,0,1,184.32,349.85Zm-8-.6a.5.5,0,0,0,.71.29l.28-.13a.54.54,0,0,0,.41.24c0,.34-.1.68-.17,1a6.31,6.31,0,0,0-1.18.55.47.47,0,0,0-.18.19C176.24,350.68,176.28,350,176.32,349.25Zm-.17,2.51a.48.48,0,0,0,.72.31l.09,0a.53.53,0,0,0,.11.23,15.38,15.38,0,0,1-1.3,2.58C175.93,353.81,176.05,352.78,176.15,351.76Zm-.21,4.65c.73-1.53,1.88-2.66,2.44-4.27a14.12,14.12,0,0,1,6.09-.05,3.25,3.25,0,0,0,.15.43c.68,1.44,2.44,1.92,3.5,3,2.44,2.48-.16,4.61-2.66,4.88a23.56,23.56,0,0,1-3.48,0,26.8,26.8,0,0,1-4.3-.51q-.88-.18-1.74-.42A2.45,2.45,0,0,1,175.94,356.41Z" transform="translate(-101.87 -14.05)"/></g><g id="face_colour" data-name="face colour"><path class="cls-3" d="M195.41,39.64c-.89-.28-1.55.26-2,1-.3-1.74-.65-3.46-1-5.15a1.31,1.31,0,0,0,0-1.45l0-.05c.87-4.32-1.77-7.12-5.24-8.71a14.9,14.9,0,0,0-11.75-2.45,1.44,1.44,0,0,0-.4-.09,3.35,3.35,0,0,0-.48,0,1.28,1.28,0,0,0-1.51.13l-.38.34a1.34,1.34,0,0,0-.32,0c-7.72.59-8.56,11.1-9,17.39-1.59.46-2.15,1.87-2,3.47.17,2.63.59,5.27.88,7.9a1.38,1.38,0,0,0,1.56,1.2,26.17,26.17,0,0,0,1.83,6.07,1.39,1.39,0,0,0,0,.25c0,.15,0,.31,0,.46.52,1,1.06,2,1.61,3.06l0,0a.55.55,0,0,1,.56.62,15.81,15.81,0,0,0-.17,2.6.51.51,0,0,0-.21.37s0,0,0,.07A6.28,6.28,0,0,0,166,68.91a.51.51,0,0,0-.48.3.52.52,0,0,0-.14.61,1.08,1.08,0,0,0,.11.18l0,0a2.41,2.41,0,0,0,.6,1.47.54.54,0,0,1-.26-.06v.12a1.48,1.48,0,0,0,.09,1.35,1.32,1.32,0,0,0,1.69.89,28.4,28.4,0,0,0,8,1.36,41,41,0,0,0,6,0c3.35,0,7.65.14,10.36-1.5h.05a1.07,1.07,0,0,0,.89-1.3,3.23,3.23,0,0,0,.47-3.62.48.48,0,0,0-.11-.14c0-.11,0-.21,0-.32a.38.38,0,0,0-.3-.33l-.14-.23a12.08,12.08,0,0,0-1.06-2.48.45.45,0,0,0-.26-.21c0-.23,0-.46.06-.69s0-.47,0-.7a.51.51,0,0,1-.24-.69c.14-.28.26-.56.39-.84,0,0,0-.08,0-.12a.42.42,0,0,1,.16-.26l.05-.11c.34-.83.59-1.7.86-2.56,0-.49-.11-1-.14-1.47a1.22,1.22,0,0,0,0-.18,22.52,22.52,0,0,0,1.25-5.25,4.63,4.63,0,0,0,1.85-3.27c.22-2.07.55-4.17.72-6.24C196.58,41.59,196.67,40,195.41,39.64ZM170.88,66.46a1.46,1.46,0,0,0-.6-.26,1.08,1.08,0,0,0-1-1.16c0-.13,0-.25,0-.38.26.25.52.5.8.72a1.28,1.28,0,0,0,1,.29A1.22,1.22,0,0,0,170.88,66.46Z" transform="translate(-101.87 -14.05)"/><path class="cls-4" d="M183.28,51.78a25.19,25.19,0,0,0-5.63-.65,9,9,0,0,0-4.1.48c-.39.18-.2.68.15.76a.38.38,0,0,0,.27.28c3.16.81,6.38,1.48,9.41-.09A.43.43,0,0,0,183.28,51.78Z" transform="translate(-101.87 -14.05)"/><path class="cls-5" d="M183.31,51.77c-1.12-.78-3.14-.84-4.48-.87a16.46,16.46,0,0,0-5.49.84.44.44,0,0,0-.07.8.42.42,0,0,0,.29.39,9,9,0,0,0,1,.24,9.54,9.54,0,0,0,4.31.46c1.15-.08,4.13-.09,4.59-1.37A.43.43,0,0,0,183.31,51.77Z" transform="translate(-101.87 -14.05)"/><path class="cls-6" d="M183.13,51.89a22,22,0,0,0-9.63-.37.42.42,0,0,0,0,.8.36.36,0,0,0,.19.21c2.72,1.36,6.57.73,9.45.17A.43.43,0,0,0,183.13,51.89Z" transform="translate(-101.87 -14.05)"/></g><g id="face_drawing" data-name="face drawing"><path class="cls-7" d="M196.88,42.54c.12-1.08.21-2.75-1.09-3.22a1.5,1.5,0,0,0-1.84.81,36.36,36.36,0,0,0-1.59-8.25.38.38,0,0,0,.12-.29c-.11-5.68-5.84-8-10.59-9-5-1-11.21-1.18-15.14,2.47a.36.36,0,0,0-.38.19c-.09.14-.15.3-.23.44l-.22.23a.42.42,0,0,0-.09.36c-1.94,3.81-2.56,8.29-3,12.49,0,.44-.08.87-.11,1.31a1,1,0,0,0-1.22.13c-1.32,1-.66,3.68-.49,4.95.14,1.08.35,2.15.51,3.23a30.09,30.09,0,0,0,.34,3.7c.22.77.69,1.22,1.37,1.09a26.4,26.4,0,0,0,1.94,6v0c.26.53.51,1.07.79,1.6v-.09c.33.6.7,1.17,1.08,1.72a.44.44,0,0,0,0,.24,7,7,0,0,1-1.72,5.46c-.42.48.28,1.19.71.71a8,8,0,0,0,2-5.1,14.06,14.06,0,0,0,9.42,5.31c5.16.57,10.31-2.54,13.49-6.84a11.6,11.6,0,0,0,2,5.84.48.48,0,0,0,.43.22q0,.9,0,1.79l.07.05V68.34a.46.46,0,0,0,.38-.72,10.73,10.73,0,0,1-1.92-6.73.45.45,0,0,0,0-.06c.27-.45.52-.9.75-1.37v.23a21.27,21.27,0,0,1,.85-2.39,13.65,13.65,0,0,0,.44-1.76,35.5,35.5,0,0,0,.42-3.67,2.37,2.37,0,0,0,1.91-2.32c.11-1-.06-2.08,0-3.12C196.37,45.1,196.73,43.85,196.88,42.54ZM162.23,47.4c-.16-1-.35-2-.45-3q-.09-.78-.11-1.56a1.37,1.37,0,0,1,.88-1.68.44.44,0,0,0,.11.16,50.65,50.65,0,0,0,.4,10.81A40.51,40.51,0,0,1,162.23,47.4Zm31.2,5a15.79,15.79,0,0,1-4.85,11.24c-2.73,2.63-6.21,4.82-10.12,4.72-8.25-.23-13.09-8.16-14.42-15.44A50.31,50.31,0,0,1,163.59,40c.35-4.43,1-9.31,3-13.34a.45.45,0,0,0,.16,0,.35.35,0,0,1,0-.07,3.55,3.55,0,0,1,.17-.49c3.52-3.63,9.31-3.67,14-2.8,4,.75,9.32,2.35,10.46,6.66h-.12c.1.72.18,1.45.28,2.17a36.91,36.91,0,0,1,1.57,8.28A78.73,78.73,0,0,1,193.43,52.39Zm2.59-10a11.93,11.93,0,0,1-.24,1.46c-.09.51-.19,1-.25,1.54-.14,1.19.27,4.82-1.12,5.54a72,72,0,0,0-.35-9.63.36.36,0,0,0,.11,0c.09-.61.49-1.28,1.19-.92a1.21,1.21,0,0,1,.62,1.11A1,1,0,0,1,196,42.42Z" transform="translate(-101.87 -14.05)"/><path class="cls-7" d="M186.11,61.42c-3.72,3.67-9.64,4.7-13.48.6-.37-.4-1,.2-.6.6,4.16,4.44,10.63,3.39,14.68-.6C187.09,61.63,186.5,61,186.11,61.42Z" transform="translate(-101.87 -14.05)"/><path class="cls-7" d="M182,57.1a5.33,5.33,0,0,0-6.54-.39c-.45.3,0,1,.43.73a4.48,4.48,0,0,1,5.51.25C181.79,58,182.39,57.45,182,57.1Z" transform="translate(-101.87 -14.05)"/><path class="cls-7" d="M181.49,43.05a.43.43,0,0,0-.35.65,1.64,1.64,0,0,1,1.27.62,1.15,1.15,0,0,1,.09,1.11,1.44,1.44,0,0,1-.05.28,1,1,0,0,1-.94.75,1.31,1.31,0,0,1-.84-.34,2.19,2.19,0,0,1-1.7,1.46,2.87,2.87,0,0,1-2.5-1.67h-.33a1.46,1.46,0,0,1-1.49.08,1.08,1.08,0,0,1-.3-1.35,1.89,1.89,0,0,1,.87-.77.43.43,0,0,0-.68-.47c-.92.92-1.76,3,.11,3.48,1,.25.95-.36,2.21.48.33.22.43.54.8.74a2.09,2.09,0,0,0,1.91,0,2.12,2.12,0,0,0,.69-.52c.58-.64.21-.42,1-.59.64-.13,1,0,1.45-.56C183.7,45.24,183.17,43,181.49,43.05Z" transform="translate(-101.87 -14.05)"/><path class="cls-7" d="M176.63,37.63c-.18-.51-1-.29-.82.23a4.18,4.18,0,0,1,.24,1.77c0,.54.81.54.85,0A4.79,4.79,0,0,0,176.63,37.63Z" transform="translate(-101.87 -14.05)"/><path class="cls-7" d="M180.29,37.47a4.92,4.92,0,0,0-.58,2.23.42.42,0,0,0,.85,0A4,4,0,0,1,181,37.9C181.28,37.42,180.55,37,180.29,37.47Z" transform="translate(-101.87 -14.05)"/><path class="cls-7" d="M170.35,49.17A3.14,3.14,0,0,0,170,53c.29.46,1,0,.73-.43a2.27,2.27,0,0,1,.24-2.82C171.32,49.37,170.73,48.77,170.35,49.17Z" transform="translate(-101.87 -14.05)"/><path class="cls-7" d="M186.31,49.4c-.37-.4-1,.2-.6.6a2.2,2.2,0,0,1,.34,2.51c-.25.48.48.91.73.43A3.08,3.08,0,0,0,186.31,49.4Z" transform="translate(-101.87 -14.05)"/><path class="cls-7" d="M181.61,72.3a11.16,11.16,0,0,1-5.72.34.42.42,0,0,0-.23.82,12,12,0,0,0,6.17-.34A.42.42,0,0,0,181.61,72.3Z" transform="translate(-101.87 -14.05)"/><path class="cls-8" d="M184.48,51.82a.43.43,0,0,0-.14-.16c-2.4-1.65-4.73-1.21-7.47-1.46a6.09,6.09,0,0,0-4.77,1.55.35.35,0,0,0-.11.39.38.38,0,0,0,.1.4c2.93,2.95,9.63,3,12.52-.05A.43.43,0,0,0,184.48,51.82Zm-6.42-.59c2.07.05,3.64-.15,5.46.93-2.62,1.72-7.72,1.38-10.31-.17C174.77,50.91,176.17,51.18,178.06,51.23Z" transform="translate(-101.87 -14.05)"/></g><g id="hair"><path class="cls-9" d="M194.76,24.92a15.17,15.17,0,0,0-2.43-4.49,10.3,10.3,0,0,0-1.91-1.93c-1.25-.91-2.83-1-3.59-2.45a.5.5,0,0,0-.86,0,53.11,53.11,0,0,0-6.75-1.57.42.42,0,0,0-.41.23,1.35,1.35,0,0,1-1.26-.51.5.5,0,0,0-.71,0,1.61,1.61,0,0,1-2.19.37.5.5,0,0,0-.5,0c-.42.24-.82.49-1.21.75a.49.49,0,0,0-.73-.4,19.5,19.5,0,0,0-6.86,5.82l-.21-.17a.51.51,0,0,0-.84.22A24.57,24.57,0,0,1,162,25.94a3.25,3.25,0,0,0-.54,2.07c.06,1.8-.38,3.4-.47,5.17a11.41,11.41,0,0,0,.55,2.93.51.51,0,0,0-.3.73,14.74,14.74,0,0,1,1.62,3.27q.47,5.39.59,10.81a.43.43,0,0,0,.59.38.4.4,0,0,0,.56-.38q-.11-2.21-.15-4.42s0,0,0,0a50.5,50.5,0,0,1-.07-6.46,22,22,0,0,1,2-6.1.41.41,0,0,0,0-.25.43.43,0,0,0,.11-.36A7.26,7.26,0,0,1,168.38,27c1.84-1.67,5.35-1.56,7.73-1.73a57.52,57.52,0,0,1,6.3-.17c2,.08,5.44.41,7.2,1.74a.4.4,0,0,0,.05.22c1,1.83.89,3.68,1.38,5.64.41,1.64,1.44,3,1.85,4.71,0,.14.06.29.09.44.07,3,.28,5.9.46,8.85a.41.41,0,0,0,.09.23q0,1.57-.07,3.13a.42.42,0,0,0,0,.09v.66a.62.62,0,0,0,1.15,0,6.54,6.54,0,0,0-.07-1c-.05-2.16,0-4.38-.09-6.59,0-1.17.05-2.34.1-3.51,0,0,0-.1,0-.15a.4.4,0,0,0,.5-.35C195.81,34.55,196.37,29.56,194.76,24.92Z" transform="translate(-101.87 -14.05)"/><path class="cls-10" d="M193.82,33.24a7.56,7.56,0,0,0-.28,2.73c0,.54.89.54.85,0a6.89,6.89,0,0,1,.25-2.5A.42.42,0,0,0,193.82,33.24Z" transform="translate(-101.87 -14.05)"/><path class="cls-10" d="M193.18,30.37a10.91,10.91,0,0,0-1,3.49c-.06.54.78.54.85,0a9.65,9.65,0,0,1,.89-3.07C194.15,30.31,193.42,29.88,193.18,30.37Z" transform="translate(-101.87 -14.05)"/><path class="cls-10" d="M192.48,30.22s.05-1.11.05-1.13q0-.61,0-1.23,0-1.23,0-2.45a.42.42,0,0,0-.85,0v3.68c0,.64-.2,1.44.37,1.86S192.91,30.54,192.48,30.22Z" transform="translate(-101.87 -14.05)"/><path class="cls-10" d="M189.66,21.82v3.67a.42.42,0,0,0,.85,0V21.82A.42.42,0,0,0,189.66,21.82Z" transform="translate(-101.87 -14.05)"/><path class="cls-10" d="M193.72,26c-.09-.49-.51-.71-.92-.38a.37.37,0,0,0,.11.65c0,.13,0,.29,0,.36l.06.57.11,1.13c.05.54.9.54.85,0C193.87,27.57,193.85,26.77,193.72,26Z" transform="translate(-101.87 -14.05)"/><path class="cls-10" d="M191.49,22.49a7.65,7.65,0,0,0,0,1.2c0,.54.88.55.85,0a7.65,7.65,0,0,1,0-1.2C192.4,21.94,191.55,21.95,191.49,22.49Z" transform="translate(-101.87 -14.05)"/><path class="cls-10" d="M188.69,21.93q-.34-1.19-.59-2.4c-.11-.53-.92-.31-.82.23q.24,1.21.59,2.4A.42.42,0,0,0,188.69,21.93Z" transform="translate(-101.87 -14.05)"/><path class="cls-10" d="M185.59,18.76c-.24-.49-1-.06-.73.43A11.15,11.15,0,0,1,186,23.46c0,.54.88.55.85,0A12.26,12.26,0,0,0,185.59,18.76Z" transform="translate(-101.87 -14.05)"/><path class="cls-10" d="M184,17.4c-.06-.53-.91-.54-.85,0l.69,5.84c.06.53.91.54.85,0Z" transform="translate(-101.87 -14.05)"/><path class="cls-10" d="M181.25,17.25a.42.42,0,0,0-.85,0l.07,5.31a.42.42,0,0,0,.85,0Z" transform="translate(-101.87 -14.05)"/><path class="cls-10" d="M179,16.54a15.56,15.56,0,0,0-.72,6.71c.06.54.91.54.85,0a15,15,0,0,1,.69-6.48C180,16.24,179.14,16,179,16.54Z" transform="translate(-101.87 -14.05)"/><path class="cls-10" d="M176.25,16.66c-1.19,1.88-1,4.9-.89,7,0,.54.89.54.85,0-.15-2-.34-4.84.77-6.6C177.27,16.63,176.54,16.2,176.25,16.66Z" transform="translate(-101.87 -14.05)"/><path class="cls-10" d="M173.54,17.33c-1.49,1.53-1.28,4.67-1,6.59.07.53.92.54.85,0-.22-1.69-.51-4.66.79-6C174.52,17.53,173.93,16.93,173.54,17.33Z" transform="translate(-101.87 -14.05)"/><path class="cls-10" d="M170.38,19.42c0-.55-.83-.54-.85,0a27,27,0,0,0,.24,4.6c.07.54.89.31.82-.23A25.74,25.74,0,0,1,170.38,19.42Z" transform="translate(-101.87 -14.05)"/><path class="cls-10" d="M168.36,20.39c.07-.54-.78-.53-.85,0a19.27,19.27,0,0,0,0,5.06c.07.54.89.31.82-.23A18.48,18.48,0,0,1,168.36,20.39Z" transform="translate(-101.87 -14.05)"/><path class="cls-10" d="M165.14,24.18c-.08-.54-.9-.31-.82.23l.6,4c.08.54.9.31.82-.23Z" transform="translate(-101.87 -14.05)"/><path class="cls-10" d="M163.62,28.11c0-.54-.88-.55-.85,0q.16,2.5.55,5c.08.54.9.31.82-.23Q163.77,30.49,163.62,28.11Z" transform="translate(-101.87 -14.05)"/><path class="cls-10" d="M162.84,33.22c-.19-.51-1-.29-.82.23a14,14,0,0,1,.9,4.24c0,.54.88.55.85,0A14.71,14.71,0,0,0,162.84,33.22Z" transform="translate(-101.87 -14.05)"/><path class="cls-10" d="M165.38,30.05c0-.54-.89-.54-.85,0q.12,1.65.13,3.29a.42.42,0,0,0,.85,0Q165.5,31.7,165.38,30.05Z" transform="translate(-101.87 -14.05)"/><path class="cls-10" d="M167,24.66a.42.42,0,0,0-.85,0,13,13,0,0,0,.17,2.43c.09.54.9.31.82-.23A11.76,11.76,0,0,1,167,24.66Z" transform="translate(-101.87 -14.05)"/><path class="cls-9" d="M174.62,35.72A17.1,17.1,0,0,0,170,35a5,5,0,0,0-3.19,2.08c-.36.41.24,1,.6.6.9-1,1.78-1.9,3.26-1.83a27.32,27.32,0,0,1,3.7.67C174.92,36.63,175.15,35.82,174.62,35.72Z" transform="translate(-101.87 -14.05)"/><path class="cls-9" d="M190,36.21a10,10,0,0,0-3.6-1.39,11.56,11.56,0,0,0-4.21,1c-.51.19-.29,1,.23.82a12.9,12.9,0,0,1,3.41-.91,7.5,7.5,0,0,1,3.75,1.22C190.05,37.19,190.48,36.45,190,36.21Z" transform="translate(-101.87 -14.05)"/></g><g id="eyes"><ellipse class="cls-7" cx="69.8" cy="25.08" rx="3.81" ry="2.12"/><ellipse class="cls-7" cx="83.35" cy="25.08" rx="3.81" ry="2.12"/><ellipse class="cls-11" cx="69.8" cy="25.5" rx="2.96" ry="1.69"/><ellipse class="cls-11" cx="83.35" cy="25.5" rx="2.96" ry="1.69"/><circle cx="70.22" cy="25.5" r="1.27"/><circle cx="82.93" cy="25.5" r="1.27"/><circle class="cls-4" cx="68.95" cy="25.08" r="0.42"/><circle class="cls-4" cx="84.2" cy="25.08" r="0.42"/></g><g id="trousers_colour" data-name="trousers colour"><path class="cls-12" d="M216.14,184.64c1.18-5.5-5.61-8-7.25-3.09a3.38,3.38,0,0,0-.63,0c-19.45,2.83-38.8,3.67-58.27,1.16a3.63,3.63,0,0,0-2.45-.33l-.2,0a3.11,3.11,0,0,0-1.47.12,3.6,3.6,0,0,0-4.83-.81,1.3,1.3,0,0,0-.56-.17.53.53,0,0,0-1,.23,1.06,1.06,0,0,0,0,.3,1.62,1.62,0,0,0-.2.56c-.1.65-.19,1.3-.29,1.95a6.08,6.08,0,0,0-.15.93v.17q-.45,3.25-.76,6.53a5.46,5.46,0,0,0-.44,1.1,11.81,11.81,0,0,0-.15,4.9l-.31,1.54a6.12,6.12,0,0,0-.12,1.32,5.72,5.72,0,0,0-.49,1.83l-4,39.77a5.29,5.29,0,0,0,.06,1.45q-2.33,10.8-3.9,21.78c-.19.78-.35,1.56-.49,2.34a5.65,5.65,0,0,0-.29,1c-2.77,15.11-4.71,30.39-6.41,45.7a4.76,4.76,0,0,0-.72,2,91.65,91.65,0,0,0-1.05,11.58,1.76,1.76,0,0,0-.37.69,8.18,8.18,0,0,0-.27,2.75,5.61,5.61,0,0,0-1.27,3c-.19.24-.37.49-.54.75a2.16,2.16,0,0,0-.36,1.06l-.16.16a1.77,1.77,0,0,0,0,2.17,1.14,1.14,0,0,0,1.68.13,1.23,1.23,0,0,0,.82-.08,3.65,3.65,0,0,0,1.26.64,23.94,23.94,0,0,0,2.42.56,1.32,1.32,0,0,0,.45.31c1.68.7,3.4,1.25,5.16.64a.79.79,0,0,0,.56.14l3.16-.51a1.47,1.47,0,0,0,1.28-1.53,1,1,0,0,1,.12-.94c.08-.48.13-1,.19-1.45.24-.7.47-1.41.69-2.12a8.62,8.62,0,0,0,.52-2.22,1.63,1.63,0,0,0,0-.42,77.8,77.8,0,0,0,2.28-7.78c6.87-16.51,11.45-34.25,16.49-51.63l16.25-56a1.49,1.49,0,0,0-.16-1.28,57.63,57.63,0,0,0,3.31-8.86q1.52,4.05,2.72,8.23a1.53,1.53,0,0,0-.24,1.35c.38,1.09.78,2.17,1.2,3.24,2.09,23.69,2,47.44,1,71.17a.55.55,0,0,1,.06.25c0,4-.15,8-.3,12-.07,1.87.06,3.8-.15,5.65-.12,1.08-.37,2.1-.51,3.15a31.08,31.08,0,0,1-.2,8.72.47.47,0,0,1,.19.56,17.48,17.48,0,0,0-.25,3.23c-.08,1.18-.2,2.35-.32,3.52a.53.53,0,0,1-.24.4c-.17,2.17-.42,4.28-.72,6.42l-.06.92a5.32,5.32,0,0,0,.18,1.83,1.88,1.88,0,0,1,.55.35,11.11,11.11,0,0,1,3.88,2.07l.27-.08c2,1.18,5.46,1.18,6.78,1a6.36,6.36,0,0,0,2.19-.6,1,1,0,0,0,.78.05,1.44,1.44,0,0,0,.8-.8,1.1,1.1,0,0,0,.75-.74c.17-.44.34-.89.5-1.34a16.75,16.75,0,0,1,.93-5.45v0c.32-2,.7-4,1-6.07a66.8,66.8,0,0,1,1.88-9.52c.2-2.23.39-4.44.59-6.62,1.24-4.13,1.66-8.53,2.75-12.72a118.31,118.31,0,0,0,2.27-14,1.77,1.77,0,0,0-.3-1.29q2.06-12.52,3.76-25.13a1.75,1.75,0,0,0-.44-1.46l1.18-7.1,2.07-9.2a1.77,1.77,0,0,0,0-.81c.16-.62.32-1.24.47-1.86,3.33-13.29,4.68-27.12,6-40.85a1.55,1.55,0,0,0-.12-.82,14,14,0,0,0,1.75-8,1.9,1.9,0,0,0-.1-.46c0-.13,0-.25,0-.38S216.08,184.91,216.14,184.64Z" transform="translate(-101.87 -14.05)"/></g><g id="trousers"><path class="cls-13" d="M144,263.18c-2.37,6.56-8.47,9.28-11.85,14.92-.32.53.42,1,.73.52,3.38-5.66,9.46-8.32,11.85-14.92C144.95,263.09,144.22,262.57,144,263.18Z" transform="translate(-101.87 -14.05)"/><path class="cls-13" d="M143.83,288.8c-1.28,4.55-4.54,8-7.27,11.29s-5.63,6.64-8.48,9.91c-.4.45.2,1.17.6.72,3.25-3.72,6.49-7.44,9.62-11.3,2.5-3.09,5.17-6.16,6.34-10.34C144.82,288.45,144,288.18,143.83,288.8Z" transform="translate(-101.87 -14.05)"/><path class="cls-13" d="M214.92,193l0-.25a29.32,29.32,0,0,0,1.83-10.88c0-.65-.88-.66-.86,0a28,28,0,0,1-1.66,10.19.56.56,0,0,0-.2.55v0c-.9,2.53-2,5-3.15,7.39-.27.57.47,1.09.74.52.91-2,1.82-3.93,2.62-6-1.65,21.23-6.8,41.74-9.93,62.68-1.58,10.54-2.4,21.2-4.16,31.71-1.79,10.72-3.88,21.38-5.85,32.05l-1.62,8.8-.81,4.4a21.07,21.07,0,0,1-.76,4.05c-1.3,3-6.07,2-8.27,1.47a18.24,18.24,0,0,1-6.8-3.43c1.58-8.35,1.57-17.14,2-25.66q.63-13.71,1.09-27.43c.58-17.09,1.23-34.31-.41-51.35a141.5,141.5,0,0,0-5.21-27.36.48.48,0,0,0-.21-.28c0-.2,0-.4,0-.61a8.76,8.76,0,0,0,2.58-4.38c1.33-4.75.68-10.38.62-15.29a.43.43,0,1,0-.86,0c0,3.15.14,6.32.08,9.48s-.41,7.54-2.94,9.41a.46.46,0,0,0-.17.11c-.55.33-1.42.55-1.81-.2a14.92,14.92,0,0,1,.08-2.9l.12-4.35.27-10.16a.43.43,0,1,0-.86,0l-.49,18.38a.51.51,0,0,0,.31.49,3,3,0,0,0,2.18-.06,14.86,14.86,0,0,0,.14,2.34.56.56,0,0,0-.09.19Q158,258.82,141.6,310.14c-3,9.42-6.46,18.79-8.15,28.7a.58.58,0,0,0,0,.32c-1.53,2.63-5.81,1.84-8.1,1.53a27.31,27.31,0,0,1-8.52-2.71,35.31,35.31,0,0,1,3.2-6.64.36.36,0,0,0,.33.08l3-.74c.54-.14.31-1.12-.23-1l-3,.74a.37.37,0,0,0-.23.18.41.41,0,0,0-.38,0c2.47-19.42,5-38.85,8.08-58.13,1.59-9.81,3.4-19.56,5.34-29.28a105.37,105.37,0,0,0,2-13.47c.34-5,.27-10,.69-15,1-11.41,2.7-22.78,4.11-34.12.08-.64-.74-.92-.83-.27-1.22,9.8-2.51,19.58-3.63,29.4s-.66,19.73-2.44,29.44-3.79,19.34-5.42,29.1S124.36,288,123,297.87c-1.55,11.22-3,22.47-4.41,33.71a.6.6,0,0,0,.08.4,35.62,35.62,0,0,0-2.62,5.73.61.61,0,0,0,0,.48.44.44,0,0,0,.18.59,28.2,28.2,0,0,0,10.68,3.1c2.47.18,5.93.55,7.4-2.37a.53.53,0,0,0,0-.54c1.51-8.73,4.42-17,7.08-25.28q4.1-12.82,8.09-25.69,8-25.74,15.47-51.69,4.18-14.47,8.21-29a.52.52,0,0,0,.13-.13c4.21,15.06,5.42,31,5.51,46.77.1,17.22-.72,34.47-1.47,51.66-.44,10.1-.28,20.75-2.18,30.64a.55.55,0,0,0,.08.43.52.52,0,0,0,.19.44,18.16,18.16,0,0,0,10.76,4.15c1.35,0,3.44.17,4.64-.81s1.29-2.91,1.57-4.47l6.49-35.19c2.12-11.49,3.67-23,5.06-34.6s3.55-22.94,5.68-34.33c2.37-12.68,4.61-25.42,5.54-38.38A.41.41,0,0,0,214.92,193Z" transform="translate(-101.87 -14.05)"/><path class="cls-13" d="M196,275.07l-10.31-12c-.39-.46-1,.26-.6.72l10.31,12C195.82,276.25,196.42,275.53,196,275.07Z" transform="translate(-101.87 -14.05)"/><path class="cls-13" d="M198,264.89l-3.93-5.08c-.37-.48-1,.24-.6.72l3.93,5.08C197.78,266.09,198.38,265.37,198,264.89Z" transform="translate(-101.87 -14.05)"/><path class="cls-13" d="M191.86,306.89q-4,9.74-8.85,18.94c-.29.56.44,1.07.73.52q4.82-9.2,8.85-18.94C192.83,306.82,192.1,306.3,191.86,306.89Z" transform="translate(-101.87 -14.05)"/></g><g id="armscolour"><path class="cls-3" d="M147,122.54c.16-1.35-1.11-1.85-2.14-1.51a1.85,1.85,0,0,0-2.33-.06,1.88,1.88,0,0,0-1.2-.1,1.72,1.72,0,0,0-2.53-.42,1.74,1.74,0,0,0-1.34-.36,1.79,1.79,0,0,0-1.34-1.15,1.66,1.66,0,0,0-2.4-1.23c-1.65-.93-2.78.56-2.84,2.34,0,.9,0,1.8,0,2.7-.58,6.76-2.73,13.23-3.69,19.93a75.61,75.61,0,0,0-.31,18.44,1.71,1.71,0,0,0,.66,1.21,132.61,132.61,0,0,1,.82,13.3c-.44,5.55-2,10.73-2.85,16.18-.32,2.13-.43,5,1,6.73a4,4,0,0,0,.31,1.08v0h0s0,.07,0,.1a.36.36,0,0,0,.13.14,5.28,5.28,0,0,0,1.78,2.91.4.4,0,0,0,.36.08.34.34,0,0,0,.14.26l.3.22c.22.27.45.54.7.79a.38.38,0,0,0,.47.08c.61.42,1.22.83,1.86,1.2a.38.38,0,0,0,.31,0l.66.5a.38.38,0,0,0,.18.08c.29.33.59.66.9,1a.39.39,0,0,0,.49.06c0,.29.07.58.11.87h0v.11a.33.33,0,0,0,.42.28c.11-2.21.39-4.39.68-6.58a.44.44,0,0,0-.74,0,.41.41,0,0,0-.25-.08q-1.16-1.29-2.33-2.56a1.6,1.6,0,0,0,0-1,34.79,34.79,0,0,1-.93-5.48.38.38,0,0,0,.09-.11,12.91,12.91,0,0,1,2.28-3l.11.21a24.66,24.66,0,0,0,1,3.61s0,0,0,.05a32.1,32.1,0,0,0,.2,4.28c0,.53-.1,1.06-.15,1.6a.43.43,0,0,0,.47.48.44.44,0,0,0,.1.19l.07.08a.29.29,0,0,0,.09.07s0,0,0-.07a.45.45,0,0,1,.1-.29s0-.07,0-.11a.49.49,0,0,0,.17-.35q.67-8.31,2-16.53c.1-.59-.74-.86-.93-.35a6.16,6.16,0,0,0-.35-.54c-.9-4.75-.09-9.46,1-14.2a.37.37,0,0,0,.2-.26q1.25-5.28,2.12-10.63a.44.44,0,0,0,0-.2q1.83-7.36,3.51-14.76a1.65,1.65,0,0,0-.13-1.14Q145.91,131.68,147,122.54Z" transform="translate(-101.87 -14.05)"/><path class="cls-3" d="M237.34,122.88a1.75,1.75,0,0,0-.49-1c-.31-2-.68-4-1.07-6-.33-1.66-2.37-1.48-3.06-.32a2,2,0,0,0-1.5.42c-1-.81-2.89-.41-2.75,1.22l0,.22-.19-.44c-.84-1.81-3.35-.52-3.07,1.22a1.61,1.61,0,0,0-.51.88.41.41,0,0,0-.14,0,1.75,1.75,0,0,0-.47.08,1.63,1.63,0,0,0-2.94.24,1.9,1.9,0,0,0-.3,0c-1.34-1.07-3.66.47-2.55,2.11,2.79,4.13,4.28,8.77,5.62,13.51a1.85,1.85,0,0,0-.11.3q-3.56,14.29-6.6,28.69l-.26.12a8.44,8.44,0,0,0-3.67,1.37,2,2,0,0,0-.47.46c-1.9,1.09-5,3.08-4.82,5.37-.26.33-.52.65-.78,1s.31.79.66.49a.84.84,0,0,0,.88.63c.54-.08,1-.76,1.3-1.11l.19-.2,4.65,0c-.76,1.43.85,2.73,2.12,2.3a12.4,12.4,0,0,1,.28,1.85v.12a.42.42,0,0,0,0,.05,6.74,6.74,0,0,1-.14,1.5q-.23.77-.4,1.56a.4.4,0,0,0,.27.49l0,0,0,.1h0c-.2.63-.62.92-.7,1.52h0a16.18,16.18,0,0,1-.05,1.68c0,.55,0,1.1,0,1.64a.41.41,0,0,1,.11.25,5.63,5.63,0,0,1-.24,1.93.37.37,0,0,0,.33-.39c0-.26,0-.53,0-.79l.34-1.36a.41.41,0,0,0,.4-.4c0-.13,0-.26,0-.4l.49-1.4a.39.39,0,0,0,.3-.37c0-.21,0-.42,0-.63l.34-1a.35.35,0,0,0-.15-.44.38.38,0,0,0,.45-.29l.9-3c.4-.9.84-1.78,1.29-2.65l.12-.08a1.75,1.75,0,0,0,.43-.46q1.76-2.73,3.33-5.57l.07-.11s0-.1.07-.14c.58-1.05,1.13-2.11,1.66-3.19a.37.37,0,0,0,.26-.21l1.37-2.6c.67-1.14,1.3-2.3,1.85-3.51v0a60.76,60.76,0,0,0,6.24-12.27C238.87,138.27,238.32,130.66,237.34,122.88Zm-25.92,48.39a6.73,6.73,0,0,1,1.28-.87.37.37,0,0,0,.18-.19,9.52,9.52,0,0,0,1.12-.77,1.55,1.55,0,0,0,.69,0,.48.48,0,0,0-.07.1h0c-.4-.25-.89.36-.51.67l.91.74,0,0,.17.24Zm4.72-2.07-.12-.13a.44.44,0,0,0-.53,0l0,0a9.17,9.17,0,0,1,.8-.68Z" transform="translate(-101.87 -14.05)"/></g><g id="arms"><path class="cls-7" d="M135.7,207.62l-5.15-3.86c-1.81-1.36-3.29-2.34-3.82-4.66-.45-2-1.46-4.25-1.39-6.26s1-3.94,1.47-5.86c1.9-7.31,1.58-14.94,1.07-22.4-.54-7.85-1.35-15.8-.12-23.63,1.19-7.55,4-14.84,3.4-22.6,0-.54-.89-.54-.85,0,.56,6.75-1.55,13.17-2.88,19.7a71.76,71.76,0,0,0-1,18.45c.37,6.51,1.1,13,.92,19.54a48.79,48.79,0,0,1-1.22,10c-.65,2.71-2.1,5.54-1.58,8.39.29,1.56,1,3,1.26,4.6a6,6,0,0,0,1.28,3.06c2.19,2.52,5.58,4.37,8.23,6.36a.3.3,0,0,0,.28.05C135.67,208.2,135.68,207.91,135.7,207.62Z" transform="translate(-101.87 -14.05)"/><path class="cls-7" d="M135.87,205.67c0-.31.06-.61.1-.92-2.47-1.9-5.39-3.57-6.17-6.74a14.5,14.5,0,0,0-1-2.84c-.43-.91-1-1.51-.79-2.68a12.56,12.56,0,0,1,1.23-2.76c.22-.49-.5-.92-.73-.43-.52,1.13-1.51,2.62-1.44,3.92.09,1.58,1.41,3.14,1.82,4.68s.65,2.64,1.87,3.8c1.5,1.42,3.3,2.62,4.92,3.9A.32.32,0,0,0,135.87,205.67Z" transform="translate(-101.87 -14.05)"/><path class="cls-7" d="M136.4,201.39a8.27,8.27,0,0,1-2.15-1.89c-.54-.8-.41-1.75-.77-2.69a7,7,0,0,1-.5-2.72,6.94,6.94,0,0,0,0-1,.62.62,0,0,0,.42,0c.33-.15.25-.52,0-.68a.47.47,0,0,0,0-.11l.08-.17c.09-.2.18-.4.28-.6l.32-.69a27.87,27.87,0,0,1,.82,3.35c.22,1.7,0,4.64,1.36,5.94a.42.42,0,0,0,.19.1c0-.06,0-.12,0-.18a.45.45,0,0,1,.09-.29c0-.15,0-.29,0-.44a.45.45,0,0,0-.22.21,4.32,4.32,0,0,0-.14-2q-.17-1-.24-2c-.07-.63-.11-1.27-.2-1.89-.33-2.18-1.55-3.89-.83-6.18.16-.52-.65-.74-.82-.23a5.56,5.56,0,0,0-.18,2.52.33.33,0,0,0-.32.21l-.55,1.2c-.12.26-.29.54-.4.83-.29-.23-.82,0-.68.42.35,1,0,1.92,0,2.93.05.59.26.62.47,1.15.37.92.32,1.88.64,2.78.48,1.33,2,2.21,3.23,3.06C136.32,202,136.36,201.7,136.4,201.39Z" transform="translate(-101.87 -14.05)"/><path class="cls-7" d="M146.43,122.71C145.79,134,143.51,145,141,155.92c-1.22,5.24-2.5,10.47-3.67,15.72-1,4.26-1.41,8.23.9,12,.05-.53.1-1.06.15-1.59-2-4.34-.5-9.07.57-13.7,1.18-5.11,2.43-10.21,3.59-15.33a183.76,183.76,0,0,0,4.77-30.29C147.31,122.17,146.46,122.17,146.43,122.71Z" transform="translate(-101.87 -14.05)"/><path class="cls-7" d="M223.24,129.42a43.94,43.94,0,0,0-4.39-8.37c-.3-.46-1,0-.73.43a35.44,35.44,0,0,1,4.79,9.63c1,3.84-.5,7.94-1.35,11.68l-2.39,10.47-1.2,5.23c-.5,2.2-.52,4.41-2.89,5.43a13.5,13.5,0,0,0-5.68,4c-1,1.21-2.76,3.91-2.29,5.61.33,1.18,1.39,1,2.22.44,1.21-.8,2.17-2,3.4-2.76a19.48,19.48,0,0,1,4.72-2.18c.52-.17.3-1-.23-.82a20.31,20.31,0,0,0-6.36,3.29,11.63,11.63,0,0,1-1.51,1.3c-1.11.56-1.47.09-1.13-.94a11,11,0,0,1,2.38-4,11.14,11.14,0,0,1,4.12-2.84,7.56,7.56,0,0,0,2.36-1,4.11,4.11,0,0,0,1.06-2.43c.38-1.61.74-3.22,1.1-4.83,1.47-6.44,3.05-12.86,4.41-19.32A13.5,13.5,0,0,0,223.24,129.42Z" transform="translate(-101.87 -14.05)"/><path class="cls-7" d="M236.29,114.88c-.11-.53-.93-.31-.82.23,1.4,6.51,3.2,13.48,2.65,20.18s-3.33,12.8-6.2,18.69a148,148,0,0,1-9,16.62,31.21,31.21,0,0,0-3.73,7c-.88,2.6-1.38,5.32-2.82,7.66a5.57,5.57,0,0,1-.21,1.76l.06,0c1.74-2.14,2.45-4.65,3.21-7.25A31.76,31.76,0,0,1,223.6,171a151.89,151.89,0,0,0,9.71-18c2.68-5.61,5.14-11.49,5.66-17.75C239.52,128.51,237.7,121.45,236.29,114.88Z" transform="translate(-101.87 -14.05)"/><path class="cls-7" d="M143,136.17a13.13,13.13,0,0,0-6.57-1.3c-.54,0-.55.88,0,.85a12.25,12.25,0,0,1,6.14,1.18C143.1,137.14,143.53,136.41,143,136.17Z" transform="translate(-101.87 -14.05)"/><path class="cls-7" d="M231.35,128.14a37.26,37.26,0,0,0-6.72,1.41c-.52.16-.3,1,.23.82a36.06,36.06,0,0,1,6.49-1.38C231.89,128.93,231.9,128.08,231.35,128.14Z" transform="translate(-101.87 -14.05)"/></g><g id="tshirt_colour" data-name="tshirt colour"><path class="cls-14" d="M236.58,112.77c-1.52.13-2.72,1-4.07,1.69a48,48,0,0,1-6.45,2.52c-1.89.6-3.8,1.12-5.71,1.67l-.78.22q-.53.13-1,.28a.43.43,0,0,0-.18,0l-1,.18a.94.94,0,0,0-.41.08h0l-.1,0a.4.4,0,0,0-.1.63.44.44,0,0,0,.6.56l.07,0,.07.08a.43.43,0,0,0,.41.11l.15,0a.39.39,0,0,0,.3-.36c3.61-1,7.19-2,10.72-3.25,2.44-.85,6.28-1.53,7.92-3.72A.43.43,0,0,0,236.58,112.77Z" transform="translate(-101.87 -14.05)"/><path class="cls-14" d="M148.34,120.43a14.41,14.41,0,0,1-4.2.13l-1-.16q-1.85-.43-3.7-.9c-2.88-.93-5.7-2.2-8.57-3h0c-.2-.33-.82-.27-.78.19a5.54,5.54,0,0,1-.06,1.42c-.1.53.72.76.82.23,0-.08,0-.17,0-.25a67.75,67.75,0,0,0,11.73,3.11l.31.06q2.19.51,4.39,1a.43.43,0,0,0,.51-.34h.07c.35,0,.47-.31.36-.57l.33,0C149.1,121.15,148.88,120.33,148.34,120.43Z" transform="translate(-101.87 -14.05)"/><path class="cls-15" d="M208.1,80.26a11.72,11.72,0,0,0-8.8,1.21c-.22-.07-.43-.15-.65-.22a11.59,11.59,0,0,0-14,7.76,13,13,0,0,0-6.83-.79,11.07,11.07,0,0,0-13.39,1.61c-1.23-5.32-5.12-9.6-11.11-9.6-5.65,0-12.13,5.26-11.44,11.44a181.54,181.54,0,0,0,7.63,37.11,14,14,0,0,0-.39,2.39l-2.46,34.06c-.35,4.87,3.33,9.16,7.77,10.76a14,14,0,0,0,6.61,2.31,146.14,146.14,0,0,0,24.53.25c9-.69,17.42-2.1,21.8-11.06,3.76-7.68,4.34-16.38,4.94-24.78s.77-16.63.61-25a11.64,11.64,0,0,0-1-4.39q1.86-9.55,4.12-19A11.67,11.67,0,0,0,208.1,80.26Z" transform="translate(-101.87 -14.05)"/><path class="cls-16" d="M236.18,108.87a2.18,2.18,0,0,0-.55-.23,44,44,0,0,0-5.51-16.19c-.65-1.17-1.33-2.43-2.05-3.7-.64-1.92-1.95-3.19-3.14-5-1-1.5-1.58-3.42-3-4.36-1-1.27-2.53-1.88-4.1-2.62a189.13,189.13,0,0,0-20.62-8.29l-.12,0A2.18,2.18,0,0,0,194,71a1,1,0,0,0-.14.28q-.25.41-.53.8a13.78,13.78,0,0,1-1,1.25,16,16,0,0,1-2.16,1.94,57.88,57.88,0,0,1-22.76-.8,5.72,5.72,0,0,1-1.67-3.8,2.14,2.14,0,0,0-3.19-1.83q-5.39,3-10.86,5.76-5.09,2-10.07,4.31a.36.36,0,0,0-.17.16,1.83,1.83,0,0,0-1.79,1c-.87,1.61-1.65,3.22-2.37,4.84a.36.36,0,0,0-.52.16,58.4,58.4,0,0,0-4.5,14.71,108.39,108.39,0,0,0-1.94,15.78.42.42,0,0,0,.82.13,2.17,2.17,0,0,0,1,.77c2.81,2,6.78,2.53,10.11,2.87a.36.36,0,0,0,.17,0c1.58.44,3.17.83,4.77,1.11.21.59.42,1.19.62,1.78s.37,1.21.52,1.79a2.08,2.08,0,0,0-.59,1.36q-.82,12.93-2.33,25.78l-.11.31a.41.41,0,0,0-.05.09l-.09.29a.34.34,0,0,0-.21.2,7.08,7.08,0,0,0-.62,3A80.25,80.25,0,0,0,141,169.84a1.55,1.55,0,0,0-.67.73,9.73,9.73,0,0,0-.9,4.47,2.4,2.4,0,0,0,.25.92,1.59,1.59,0,0,0-.1,1.19h0a.43.43,0,0,0,.33.77l.1,0a2.39,2.39,0,0,0,2.27.86,1.76,1.76,0,0,0,1.16.61,133.3,133.3,0,0,0,14.37,1.27,1.87,1.87,0,0,0,1.53-.62,71.82,71.82,0,0,0,8.33.49l5.39.15a41.43,41.43,0,0,0,6.63.25c.7.07,1.4.13,2.1.17,4.22.24,8.45.32,12.68.42a1.88,1.88,0,0,0,1.4.48l10-.44a2,2,0,0,0,1.66-.93c.89-.17,1.77-.36,2.65-.58a.33.33,0,0,0,.39.28,11.55,11.55,0,0,0,2.91-.7.45.45,0,0,0,.14-.09,2,2,0,0,0,1.37-.9l.86-.29a2.25,2.25,0,0,0,.25-4.08,2.06,2.06,0,0,0-.93-1.62c0-.25,0-.5-.08-.75a1.62,1.62,0,0,0-.68-1.07.41.41,0,0,0-.7-.23l-.05,0h0l-.3.2a.43.43,0,0,0-.33.1l-1.36,1.13a13.54,13.54,0,0,0-1.78,1.48h0a2.64,2.64,0,0,1-1.93.12l-.18.1a2,2,0,0,0,0-.21,1.33,1.33,0,0,1-.54-.86s0-.09,0-.13l-.08-.08.05-.09c-.08-1.55,1.61-3.46,2.48-4.48a15,15,0,0,1,1.86-1.81l.21-.25,1.11-.8c.28-.13.56-.27.83-.43a.38.38,0,0,0,.2-.4.43.43,0,0,0,.05-.18l.84-12.21c.5-5.33.9-10.68,1.15-16q.31-6.61.38-13.23c0-1,.16-2.24.17-3.45a2.23,2.23,0,0,0,.62-.07A149.83,149.83,0,0,0,235,113l.12-.06a2.21,2.21,0,0,0,1.56-.6A2.23,2.23,0,0,0,236.18,108.87Z" transform="translate(-101.87 -14.05)"/><path class="cls-14" d="M147.81,121.25a.38.38,0,0,0-.39-.32.38.38,0,0,0-.36.23,25.94,25.94,0,0,1-11.8-2.49c-.49-.23-.92.5-.43.73a27,27,0,0,0,12.72,2.6A.44.44,0,0,0,147.81,121.25Z" transform="translate(-101.87 -14.05)"/><path class="cls-14" d="M216.65,179.32l.09-.22c.2-.51-.62-.73-.82-.23l0,.06q-2.36.87-4.77,1.53l-.86.16-2.8.37a.34.34,0,0,0-.14,0L199.12,182h-.26a.35.35,0,0,0-.4-.33c-3.08.25-6.17.38-9.26.32-.9,0-1.79-.05-2.69-.1l-.1,0q-8.62-.66-17.27-.7a1.1,1.1,0,0,0-1-.43c-1.76.08-3.51.1-5.27.09a.38.38,0,0,0-.37-.27c-1.71,0-3.41,0-5.12,0l-1.4-.2a.44.44,0,0,0-.38.13c-2.18-.27-4.36-.45-6.55-.54a11.55,11.55,0,0,0-2-.07l-3.34-.42-1-.17a.36.36,0,0,0-.29-.39c-.44-.11-.87-.2-1.31-.29a9.5,9.5,0,0,1-1-.36.35.35,0,0,0-.36.07.62.62,0,0,0-.43.41.66.66,0,0,0,0,.21,1.25,1.25,0,0,0,.29,2.29,66.59,66.59,0,0,0,10.8,1.54,1.2,1.2,0,0,0,.59-.11,105.68,105.68,0,0,0,13,.73,52.34,52.34,0,0,0,8.4.43,102.71,102.71,0,0,0,14.75.1.44.44,0,0,0,.16,0c1.67.08,3.34.08,5,0a.36.36,0,0,0,.39.32q9.62-.45,19.15-1.82l.06,0a10.93,10.93,0,0,0,2-.37,3.69,3.69,0,0,0,1.36-.72l.25,0a.45.45,0,0,0,.35-.63,5.28,5.28,0,0,0,.39-.62.38.38,0,0,0,.21-.43l.07-.16A.44.44,0,0,0,216.65,179.32Z" transform="translate(-101.87 -14.05)"/></g><g id="tshirt"><path class="cls-17" d="M146.68,119.32c-5.67-6.1-10.77-13.46-9.72-22.21.06-.54-.78-.54-.85,0-1.07,9,4.15,16.57,10,22.81C146.45,120.32,147,119.72,146.68,119.32Z" transform="translate(-101.87 -14.05)"/><path class="cls-17" d="M143.07,105.67c-1.65-1.87-2.05-4.44-2.65-6.78l-2-7.71a.42.42,0,0,0-.82.23q1.2,4.67,2.39,9.33a12.64,12.64,0,0,0,2.45,5.53C142.83,106.67,143.43,106.07,143.07,105.67Z" transform="translate(-101.87 -14.05)"/><path class="cls-17" d="M139.64,83.43c-.23-.49-1-.06-.73.43a44.76,44.76,0,0,1,4.25,16.45c0,.54.88.55.85,0A45.92,45.92,0,0,0,139.64,83.43Z" transform="translate(-101.87 -14.05)"/><path class="cls-17" d="M236.72,109.21c-.55-1.9-1.11-3.79-1.71-5.68A107,107,0,0,0,231.13,93c-2.83-6.48-6.39-13.66-13.19-16.6-7.87-3.4-16-6.26-24-9.36a.33.33,0,0,0-.34,0,.5.5,0,0,0-.13.11c0,1.21-.1,2.43-.11,3.64a.38.38,0,0,1-.23.36.42.42,0,0,1-.16.16c.06,0-.06,0-.12.1l-.17.16-.25.24,0,0h0c-2.91,2.93-9.42,3.13-12.91,3.14-4.15,0-11.57-.21-13.58-4.44a.37.37,0,0,1-.17-.25,15.89,15.89,0,0,1-.32-2l.54-.41c.51-.38,0-1.25-.5-.86l-.07.05s0-.07,0-.11a.39.39,0,0,0-.33,0Q153.18,73.3,140.85,78.5l0-.13c-.2-.5-1-.28-.82.23l0,.09c-8.68,11.33-10.18,25.85-10.47,39.66a.43.43,0,0,0,.81.18,52.71,52.71,0,0,0,17.3,4.2l-1.48,14.39c-.51,4.94-.83,9.95-2,14.78-1.11,4.53-2.44,9-3.27,13.56-.9,5-1.73,9.92-2.6,14.88a.43.43,0,0,0,.24.47.4.4,0,0,0,.29.41,65.69,65.69,0,0,0,12.16,2c4.14.45,8.3.77,12.46,1,8.72.49,17.46.6,26.19.58,8,0,16.11-.27,23.9-2.27,1.28-.33,2.56-.32,3.18-1.5a8.24,8.24,0,0,0,.72-3.71,10.08,10.08,0,0,0-2.91-7l-.7.49a10.08,10.08,0,0,1,2.89,7.29.35.35,0,0,0-.53-.11c-2.46,1.75-5.73,2.1-8.65,2.55a80.41,80.41,0,0,1-9.5.86c-6.55.22-13.1-.16-19.64-.42-6.38-.25-12.77-.51-19.15-.82s-13-.47-19.32-2.32a.38.38,0,0,0-.34.05c.7-4.06,1.4-8.13,2.13-12.18.88-4.86,2.35-9.52,3.45-14.33a94.47,94.47,0,0,0,1.63-11.94.38.38,0,0,0,.58-.13q1.46-2.82,2.67-5.75a.4.4,0,0,0,.55-.39c0-.28,0-.56-.05-.83a74.6,74.6,0,0,0,5.21-28.39.42.42,0,0,0-.85,0,73.76,73.76,0,0,1-4.55,26.52,76.52,76.52,0,0,0-1.8-8.24v0a.35.35,0,0,0-.08-.27c-.08-.34-.16-.69-.24-1a.37.37,0,0,0,0-.21c0-.19-.09-.37-.13-.56a24.66,24.66,0,0,1-.73-7.15c.08-1.05.46-2.13.49-3.18a7.5,7.5,0,0,0-.79-2.71c-.78-2.31-.71-4.84-.94-7.24q-.32-3.33-.93-6.62a77.17,77.17,0,0,0-4-13.91q11.74-5,23-10.87c0,.18,0,.36,0,.54A5.25,5.25,0,0,0,166.71,74l.41.25c3.06,2.33,7.94,2.82,11.82,2.8a32.12,32.12,0,0,0,11.29-1.8,8,8,0,0,0,3.36-2.22,6.41,6.41,0,0,0,1-1.79,23.86,23.86,0,0,1,.64-2.42h0l.07,0a.39.39,0,0,0,.17-.21q10,3.88,20,7.78c3.65,1.43,6.49,3,8.82,6.26a54.73,54.73,0,0,1,5.13,8.82,126.87,126.87,0,0,1,6.82,19.41c.13.45.28.84.38,1.2a169.56,169.56,0,0,1-19.9,6.83l-1.69-5.11a.44.44,0,0,0,.52-.61,15.28,15.28,0,0,0-6.28-6.41c-.48-.26-.91.47-.43.73a14.56,14.56,0,0,1,3.57,2.74.39.39,0,0,0-.14.21L211.08,115a.42.42,0,0,0,.82.23l1.2-4.35a14.62,14.62,0,0,1,1.17,1.64.38.38,0,0,0-.3.5l.2.59a.43.43,0,0,0-.14.09c-.61.58-.33,2.07-.36,2.82l-.19,5a.41.41,0,0,0,0,.15l-.84,10.07c0,.54.8.54.85,0l.92-11a.36.36,0,0,0-.06-.24l.1-2.58a23.09,23.09,0,0,1,0-3.3l1.53,4.62a.39.39,0,0,0-.12.29q0,22.57-2.12,45.07s0,0,0,0q.43-.22.88-.4,2-21.4,2.08-42.92a.42.42,0,0,0,.44.14q6.31-1.69,12.5-3.8,3.09-1.06,6.14-2.22c1-.37,2-.61,2.05-1.8C238,112.3,237.1,110.52,236.72,109.21Zm-97,69.42c6.21,1.83,12.7,2,19.13,2.33,6.8.33,13.6.6,20.4.87s13.66.66,20.48.32a79.72,79.72,0,0,0,8.83-.94c2.78-.45,5.74-.84,8.08-2.51l0,0a5.23,5.23,0,0,1-.48,1.46c-.8,1.56-3.22,1.69-4.77,2-2,.45-4.1.78-6.16,1a169.46,169.46,0,0,1-21.33.73c-7.37,0-14.74-.2-22.1-.66-3.61-.22-7.21-.52-10.8-.91a64.83,64.83,0,0,1-11.86-1.92l.34-2A.39.39,0,0,0,139.7,178.63Zm8.6-53.94a43.48,43.48,0,0,1,1.38,7.5c-.83,2.08-1.76,4.13-2.78,6.14l0-.38Zm-.85-3.43.15.62a51.49,51.49,0,0,1-17.15-4.22h0c0-.46,0-.93,0-1.39a.41.41,0,0,0,.08.12c1.89,1.74,4.47,2.15,6.89,2.73C140.76,119.9,144.1,120.62,147.46,121.26Zm-3.26-28.6a74.51,74.51,0,0,1,1.12,7.93,34,34,0,0,0,.7,6,11.4,11.4,0,0,1,.83,3.86c-.06.82-.31,1.63-.37,2.46a23.25,23.25,0,0,0,.47,6c.09.47.19.94.29,1.41-2.68-.52-5.35-1.08-8-1.7s-6-1-8.09-2.88a.43.43,0,0,0-.67.12c.42-12.72,2.15-25.79,9.91-36.26A77.16,77.16,0,0,1,144.2,92.67Zm91.39,22a10.91,10.91,0,0,1-2.29.86q-2.68,1-5.4,1.88c-3.49,1.16-7,2.2-10.56,3.16l-.28-.85a169.53,169.53,0,0,0,19.78-6.79C236.83,113.47,236.53,114,235.59,114.64Z" transform="translate(-101.87 -14.05)"/><path class="cls-17" d="M217.73,82.24c-2.22,3.49-3,7.51-3.4,11.56-.55,5.09-.81,10.21-.87,15.33a.42.42,0,0,0,.85,0c.06-4.61.28-9.22.72-13.82.42-4.41,1-8.84,3.44-12.64C218.76,82.21,218,81.78,217.73,82.24Z" transform="translate(-101.87 -14.05)"/><path class="cls-17" d="M222.71,92.79c-.07-.54-.89-.31-.82.23a49.84,49.84,0,0,1-1.26,19.83.42.42,0,0,0,.82.23A50.89,50.89,0,0,0,222.71,92.79Z" transform="translate(-101.87 -14.05)"/><path class="cls-17" d="M218.15,93.5l-1.42,13.22c-.06.54.79.54.85,0L219,93.5C219.06,93,218.21,93,218.15,93.5Z" transform="translate(-101.87 -14.05)"/><path class="cls-17" d="M213.06,171.49a.41.41,0,0,0,0-.08l-.7.54.59,2a.38.38,0,0,0-.11.53l.55.9a.43.43,0,0,0,.77-.33Z" transform="translate(-101.87 -14.05)"/><path class="cls-17" d="M168,152.55a64.1,64.1,0,0,1-17.72,17.16c-.46.3,0,1,.43.73a65.19,65.19,0,0,0,18-17.47C169.07,152.53,168.34,152.11,168,152.55Z" transform="translate(-101.87 -14.05)"/><path class="cls-17" d="M198.84,162.22A46.36,46.36,0,0,0,186,144.89c-.41-.35-1,.25-.6.6a45.84,45.84,0,0,1,12.72,17.16C198.32,163.15,199,162.72,198.84,162.22Z" transform="translate(-101.87 -14.05)"/><path class="cls-17" d="M213.73,177.59a26.82,26.82,0,0,1-8.53-.5c-2.48-.71-4-2.9-5.56-4.82-2.57-3.21-5.11-6.49-8.9-8.3-.49-.23-.92.5-.43.73,4.55,2.18,7.17,6.49,10.38,10.17a8.72,8.72,0,0,0,4.94,3.19,32.28,32.28,0,0,0,8.1.38C214.27,178.41,214.28,177.57,213.73,177.59Z" transform="translate(-101.87 -14.05)"/><path class="cls-14" d="M209.47,94.37a.43.43,0,0,0-.41-.31q-6.17-.5-12.36-.6a.41.41,0,0,0-.35.63.42.42,0,0,0,0,.14l0,1.84a.43.43,0,0,0,.42.42,19.64,19.64,0,0,1,5.68,1.13,5.34,5.34,0,0,0,3.5,0C208.12,97.06,210,97,209.47,94.37Z" transform="translate(-101.87 -14.05)"/><path class="cls-14" d="M170.25,114.24a2.71,2.71,0,0,0-2.76-1.93,65.53,65.53,0,0,0-7.84.43c-.54,0-.55.88,0,.85s1.28-.14,2.26-.24l-.64,4.41a2.92,2.92,0,0,0-.83.25c-.49.23-.06,1,.43.73a1.84,1.84,0,0,1,.27-.1l-.82,5.69-2.47.06c-.54,0-.55.87,0,.85l2.37-.06c.07.43.74.57.81.08v-.09h2.16c1.51,0,3.4.38,4.89,0,1.16-.28,1.83-1.25,1.22-2.35-.26-.48-1-.05-.73.43.8,1.46-5.14,1.06-5.38,1.06h-2l.83-5.79a4.37,4.37,0,0,0,1.86-.18l.08,0-.15,1.83c0,.54.8.54.85,0l.27-3.3a.42.42,0,0,0-.85,0c.06.89-1.18.9-1.78.88h-.15l.64-4.46c2.76-.26,6.21-.35,6.66,1.2A.42.42,0,0,0,170.25,114.24Z" transform="translate(-101.87 -14.05)"/><path class="cls-14" d="M176,118.78a19.75,19.75,0,0,1-4.1.13c-.54,0-.54.81,0,.85a20.78,20.78,0,0,0,4.32-.16C176.72,119.52,176.49,118.7,176,118.78Z" transform="translate(-101.87 -14.05)"/><path class="cls-14" d="M176.28,121.24a29.84,29.84,0,0,1-4.22.07c-.54,0-.54.82,0,.85a29.84,29.84,0,0,0,4.22-.07C176.81,122,176.82,121.19,176.28,121.24Z" transform="translate(-101.87 -14.05)"/><path class="cls-14" d="M189.5,124.76a2.1,2.1,0,0,1-.46-2.1q.05-.39.08-.79a3.69,3.69,0,0,0-.17-2,1.05,1.05,0,0,0-1.15-.45,3.67,3.67,0,0,0-2.39,1.88c0-1-.33-1.83-1.23-1.93a2,2,0,0,0-1.78.95,2,2,0,0,0-.55-1.59.45.45,0,0,0-.51-.07,2.68,2.68,0,0,0-1.32,2c-.11.53.71.76.82.23q-.08-.65.6-.58-.07.91-.21,1.81c-.09.59-.22,1.17-.36,1.75-.08.29-.14.56-.19.76a.42.42,0,0,0,.82.23c.11-.43.34-1.16.54-2a2.49,2.49,0,0,1,1.62-1.71c1.11-.28.84.06.79,1a15.28,15.28,0,0,1-.33,2.34c-.11.53.7.76.82.23.19-.93,1-3.76,2.19-4,2.22-.44.58,2.9.93,4a1.21,1.21,0,0,0,2.19.45C190.54,124.74,189.81,124.32,189.5,124.76Z" transform="translate(-101.87 -14.05)"/><path class="cls-14" d="M195.28,124.36c-.54.47-1.46,1.3-2.26,1-1.16-.42-.5-2-.24-2.77a4.46,4.46,0,0,1,1-1.69c.16-.16.66-.61.95-.56l.76.74a3.12,3.12,0,0,1-.35.81c-.26.48.47.91.73.43.53-1,.88-2.62-.66-2.84s-2.5,1.18-3,2.33-1.28,3-.11,4,2.81,0,3.81-.87C196.3,124.61,195.7,124,195.28,124.36Z" transform="translate(-101.87 -14.05)"/><path class="cls-14" d="M202.17,119.81c-.66.61-1.7-.17-2.38-.35h-.07c1-1,2-2.37,1.71-3.63a1,1,0,0,0-1.28-.87,2.58,2.58,0,0,0-1.72,1.86.42.42,0,0,0,.82.23,2.25,2.25,0,0,1,.28-.64c.18-.26.82-.56,1.08-.25s-.42,1.22-.5,1.37a6.7,6.7,0,0,1-1.9,2.13c-.43.32-.05,1,.43.73.83-.5,1.82.37,2.67.47a1.69,1.69,0,0,0,1.46-.44C203.17,120,202.57,119.44,202.17,119.81Z" transform="translate(-101.87 -14.05)"/></g></svg>