<?xml version="1.0" encoding="utf-8"?>
<!-- Generator: Adobe Illustrator 21.1.0, SVG Export Plug-In . SVG Version: 6.00 Build 0)  -->
<svg version="1.1" id="Layer_1" xmlns="http://www.w3.org/2000/svg" xmlns:xlink="http://www.w3.org/1999/xlink" x="0px" y="0px"
	 viewBox="0 0 162 162" style="enable-background:new 0 0 162 162;" xml:space="preserve">
<style type="text/css">
	.st0{fill:none;stroke:#102773;stroke-width:2.6945;stroke-miterlimit:10;}
	.st1{fill:#102773;stroke:#102773;stroke-width:2.1118;stroke-miterlimit:10;}
	.st2{fill:#102773;stroke:#102773;stroke-width:2.6945;stroke-miterlimit:10;}
	.st3{fill:#F9F9F9;}
	.st4{fill:#102773;}
	.st5{fill:#FCFCFC;}
	.st6{fill:#FFFFFF;}
</style>
<line class="st0" x1="11" y1="132" x2="152" y2="132"/>
<path class="st1" d="M85.2,131.5c0-22.1,12.4-40,27.7-40s27.7,17.9,27.7,40"/>
<path class="st2" d="M19.4,131.1c0-30.2,14.7-54.7,32.9-54.7s32.9,24.5,32.9,54.7"/>
<path class="st3" d="M28.6,118.2c-0.6,1.2-1,2.5-1.4,3.9c-0.1-1.7-0.1-3.5-0.1-5.2c0-1.8-1.5-1.8-1.5,0c0,1,0,1.9,0.1,2.9
	c-0.2-0.3-0.4-0.6-0.5-0.9c-0.3-0.5-0.7-0.6-1,0c-0.3,0.5-0.3,1.5,0,2c0.5,0.7,0.9,1.5,1.4,2.2c0.1,0.2,0.2,0.3,0.4,0.3
	c0,0.8,0.1,1.6,0.2,2.4c-0.6-1.4-1.4-2.5-2.3-3.3c-0.9-0.7-1.6,1.7-0.7,2.4c1.4,1.2,2.5,3.3,3.1,6c0.2,0.8,0.6,1.1,1,0.9
	c0.4,0.2,1-0.2,0.9-1.3c-0.2-3.9,0.4-7.6,1.8-10.5C30.2,118.8,29.2,116.9,28.6,118.2z"/>
<g>
	<g>
		<rect x="24.9" y="72.9" class="st4" width="1.4" height="28.1"/>
		<ellipse class="st4" cx="25.2" cy="77.6" rx="3.5" ry="11.7"/>
		<ellipse class="st4" cx="24" cy="83.9" rx="3.8" ry="7"/>
		<ellipse class="st4" cx="28" cy="81.1" rx="2.6" ry="5.9"/>
		<ellipse class="st4" cx="21.6" cy="76.8" rx="1.9" ry="4.7"/>
	</g>
	<g>
		<rect x="35.6" y="53.3" class="st4" width="1.7" height="34.3"/>
		<ellipse class="st4" cx="35.9" cy="59.1" rx="4.3" ry="14.3"/>
		<ellipse class="st4" cx="34.5" cy="66.7" rx="4.6" ry="8.6"/>
		<ellipse class="st4" cx="39.4" cy="63.4" rx="3.2" ry="7.2"/>
		<ellipse class="st4" cx="31.6" cy="58.1" rx="2.3" ry="5.7"/>
	</g>
	<g>
		<rect x="49.8" y="45.6" class="st4" width="2" height="40.6"/>
		<ellipse class="st4" cx="50.1" cy="52.3" rx="5.1" ry="16.9"/>
		<ellipse class="st4" cx="48.4" cy="61.3" rx="5.4" ry="10.1"/>
		<ellipse class="st4" cx="54.2" cy="57.4" rx="3.7" ry="8.5"/>
		<ellipse class="st4" cx="45" cy="51.2" rx="2.7" ry="6.8"/>
	</g>
	<g>
		<rect x="65.9" y="53.3" class="st4" width="1.7" height="34.3"/>
		<ellipse class="st4" cx="66.2" cy="59.1" rx="4.3" ry="14.3"/>
		<ellipse class="st4" cx="64.8" cy="66.7" rx="4.6" ry="8.6"/>
		<ellipse class="st4" cx="69.7" cy="63.4" rx="3.2" ry="7.2"/>
		<ellipse class="st4" cx="61.9" cy="58.1" rx="2.3" ry="5.7"/>
	</g>
	<g>
		<rect x="78.2" y="69.4" class="st4" width="1.4" height="28.1"/>
		<ellipse class="st4" cx="78.4" cy="74.1" rx="3.5" ry="11.7"/>
		<ellipse class="st4" cx="77.2" cy="80.4" rx="3.8" ry="7"/>
		<ellipse class="st4" cx="81.2" cy="77.6" rx="2.6" ry="5.9"/>
		<ellipse class="st4" cx="74.9" cy="73.4" rx="1.9" ry="4.7"/>
	</g>
</g>
<g>
	<g>
		<rect x="91.6" y="84.4" class="st4" width="1.1" height="21.8"/>
		<ellipse class="st4" cx="91.8" cy="88.1" rx="2.7" ry="9.1"/>
		<ellipse class="st4" cx="90.9" cy="92.9" rx="2.9" ry="5.5"/>
		<ellipse class="st4" cx="94" cy="90.8" rx="2" ry="4.5"/>
		<ellipse class="st4" cx="89.1" cy="87.5" rx="1.5" ry="3.6"/>
	</g>
	<g>
		<rect x="100" y="69.2" class="st4" width="1.3" height="26.7"/>
		<ellipse class="st4" cx="100.2" cy="73.7" rx="3.3" ry="11.1"/>
		<ellipse class="st4" cx="99.1" cy="79.6" rx="3.6" ry="6.7"/>
		<ellipse class="st4" cx="102.9" cy="77" rx="2.5" ry="5.6"/>
		<ellipse class="st4" cx="96.8" cy="72.9" rx="1.8" ry="4.4"/>
	</g>
	<g>
		<rect x="111" y="63.2" class="st4" width="1.6" height="31.5"/>
		<ellipse class="st4" cx="111.2" cy="68.5" rx="4" ry="13.1"/>
		<ellipse class="st4" cx="109.9" cy="75.4" rx="4.2" ry="7.9"/>
		<ellipse class="st4" cx="114.4" cy="72.4" rx="2.9" ry="6.6"/>
		<ellipse class="st4" cx="107.3" cy="67.6" rx="2.1" ry="5.2"/>
	</g>
	<g>
		<rect x="123.5" y="69.2" class="st4" width="1.3" height="26.7"/>
		<ellipse class="st4" cx="123.7" cy="73.7" rx="3.3" ry="11.1"/>
		<ellipse class="st4" cx="122.6" cy="79.6" rx="3.6" ry="6.7"/>
		<ellipse class="st4" cx="126.4" cy="77" rx="2.5" ry="5.6"/>
		<ellipse class="st4" cx="120.3" cy="72.9" rx="1.8" ry="4.4"/>
	</g>
	<g>
		<rect x="133" y="81.7" class="st4" width="1.1" height="21.8"/>
		<ellipse class="st4" cx="133.2" cy="85.4" rx="2.7" ry="9.1"/>
		<ellipse class="st4" cx="132.3" cy="90.2" rx="2.9" ry="5.5"/>
		<ellipse class="st4" cx="135.4" cy="88.1" rx="2" ry="4.5"/>
		<ellipse class="st4" cx="130.4" cy="84.8" rx="1.5" ry="3.6"/>
	</g>
</g>
<path class="st5" d="M45.3,118.2c-0.6,1.2-1,2.5-1.4,3.9c-0.1-1.7-0.1-3.5-0.1-5.2c0-1.8-1.5-1.8-1.5,0c0,1,0,1.9,0.1,2.9
	c-0.2-0.3-0.4-0.6-0.5-0.9c-0.3-0.5-0.7-0.6-1,0c-0.3,0.5-0.3,1.5,0,2c0.5,0.7,0.9,1.5,1.4,2.2c0.1,0.2,0.2,0.3,0.4,0.3
	c0,0.8,0.1,1.6,0.2,2.4c-0.6-1.4-1.4-2.5-2.3-3.3c-0.9-0.7-1.6,1.7-0.7,2.4c1.4,1.2,2.5,3.3,3.1,6c0.2,0.8,0.6,1.1,1,0.9
	c0.4,0.2,1-0.2,0.9-1.3c-0.2-3.9,0.4-7.6,1.8-10.5C47,118.8,45.9,116.9,45.3,118.2z"/>
<path class="st5" d="M62,118.2c-0.6,1.2-1,2.5-1.4,3.9c-0.1-1.7-0.1-3.5-0.1-5.2c0-1.8-1.5-1.8-1.5,0c0,1,0,1.9,0.1,2.9
	c-0.2-0.3-0.4-0.6-0.5-0.9c-0.3-0.5-0.7-0.6-1,0c-0.3,0.5-0.3,1.5,0,2c0.5,0.7,0.9,1.5,1.4,2.2c0.1,0.2,0.2,0.3,0.4,0.3
	c0,0.8,0.1,1.6,0.2,2.4c-0.6-1.4-1.4-2.5-2.3-3.3c-0.9-0.7-1.6,1.7-0.7,2.4c1.4,1.2,2.5,3.3,3.1,6c0.2,0.8,0.6,1.1,1,0.9
	c0.4,0.2,1-0.2,0.9-1.3c-0.2-3.9,0.4-7.6,1.8-10.5C63.7,118.8,62.6,116.9,62,118.2z"/>
<path class="st3" d="M77.7,118.2c-0.6,1.2-1,2.5-1.4,3.9c-0.1-1.7-0.1-3.5-0.1-5.2c0-1.8-1.5-1.8-1.5,0c0,1,0,1.9,0.1,2.9
	c-0.2-0.3-0.4-0.6-0.5-0.9c-0.3-0.5-0.7-0.6-1,0c-0.3,0.5-0.3,1.5,0,2c0.5,0.7,0.9,1.5,1.4,2.2c0.1,0.2,0.2,0.3,0.4,0.3
	c0,0.8,0.1,1.6,0.2,2.4c-0.6-1.4-1.4-2.5-2.3-3.3c-0.9-0.7-1.6,1.7-0.7,2.4c1.4,1.2,2.5,3.3,3.1,6c0.2,0.8,0.6,1.1,1,0.9
	c0.4,0.2,1-0.2,0.9-1.3c-0.2-3.9,0.4-7.6,1.8-10.5C79.3,118.8,78.3,116.9,77.7,118.2z"/>
<path class="st5" d="M96.5,118.2c-0.6,1.2-1,2.5-1.4,3.9c-0.1-1.7-0.1-3.5-0.1-5.2c0-1.8-1.5-1.8-1.5,0c0,1,0,1.9,0.1,2.9
	c-0.2-0.3-0.4-0.6-0.5-0.9c-0.3-0.5-0.7-0.6-1,0c-0.3,0.5-0.3,1.5,0,2c0.5,0.7,0.9,1.5,1.4,2.2c0.1,0.2,0.2,0.3,0.4,0.3
	c0,0.8,0.1,1.6,0.2,2.4c-0.6-1.4-1.4-2.5-2.3-3.3c-0.9-0.7-1.6,1.7-0.7,2.4c1.4,1.2,2.5,3.3,3.1,6c0.2,0.8,0.6,1.1,1,0.9
	c0.4,0.2,1-0.2,0.9-1.3c-0.2-3.9,0.4-7.6,1.8-10.5C98.1,118.8,97.1,116.9,96.5,118.2z"/>
<path class="st5" d="M110,118.2c-0.6,1.2-1,2.5-1.4,3.9c-0.1-1.7-0.1-3.5-0.1-5.2c0-1.8-1.5-1.8-1.5,0c0,1,0,1.9,0.1,2.9
	c-0.2-0.3-0.4-0.6-0.5-0.9c-0.3-0.5-0.7-0.6-1,0c-0.3,0.5-0.3,1.5,0,2c0.5,0.7,0.9,1.5,1.4,2.2c0.1,0.2,0.2,0.3,0.4,0.3
	c0,0.8,0.1,1.6,0.2,2.4c-0.6-1.4-1.4-2.5-2.3-3.3c-0.9-0.7-1.6,1.7-0.7,2.4c1.4,1.2,2.5,3.3,3.1,6c0.2,0.8,0.6,1.1,1,0.9
	c0.4,0.2,1-0.2,0.9-1.3c-0.2-3.9,0.4-7.6,1.8-10.5C111.7,118.8,110.7,116.9,110,118.2z"/>
<path class="st5" d="M122.6,118.2c-0.6,1.2-1,2.5-1.4,3.9c-0.1-1.7-0.1-3.5-0.1-5.2c0-1.8-1.5-1.8-1.5,0c0,1,0,1.9,0.1,2.9
	c-0.2-0.3-0.4-0.6-0.5-0.9c-0.3-0.5-0.7-0.6-1,0c-0.3,0.5-0.3,1.5,0,2c0.5,0.7,0.9,1.5,1.4,2.2c0.1,0.2,0.2,0.3,0.4,0.3
	c0,0.8,0.1,1.6,0.2,2.4c-0.6-1.4-1.4-2.5-2.3-3.3c-0.9-0.7-1.6,1.7-0.7,2.4c1.4,1.2,2.5,3.3,3.1,6c0.2,0.8,0.6,1.1,1,0.9
	c0.4,0.2,1-0.2,0.9-1.3c-0.2-3.9,0.4-7.6,1.8-10.5C124.2,118.8,123.2,116.9,122.6,118.2z"/>
<path class="st6" d="M136.1,118.2c-0.6,1.2-1,2.5-1.4,3.9c-0.1-1.7-0.1-3.5-0.1-5.2c0-1.8-1.5-1.8-1.5,0c0,1,0,1.9,0.1,2.9
	c-0.2-0.3-0.4-0.6-0.5-0.9c-0.3-0.5-0.7-0.6-1,0c-0.3,0.5-0.3,1.5,0,2c0.5,0.7,0.9,1.5,1.4,2.2c0.1,0.2,0.2,0.3,0.4,0.3
	c0,0.8,0.1,1.6,0.2,2.4c-0.6-1.4-1.4-2.5-2.3-3.3c-0.9-0.7-1.6,1.7-0.7,2.4c1.4,1.2,2.5,3.3,3.1,6c0.2,0.8,0.6,1.1,1,0.9
	c0.4,0.2,1-0.2,0.9-1.3c-0.2-3.9,0.4-7.6,1.8-10.5C137.8,118.8,136.8,116.9,136.1,118.2z"/>
</svg>
