<?xml version="1.0" encoding="utf-8"?>
<!-- Generator: Adobe Illustrator 21.1.0, SVG Export Plug-In . SVG Version: 6.00 Build 0)  -->
<svg version="1.1" id="Layer_1" xmlns="http://www.w3.org/2000/svg" xmlns:xlink="http://www.w3.org/1999/xlink" x="0px" y="0px"
	 viewBox="0 0 162 162" style="enable-background:new 0 0 162 162;" xml:space="preserve">
<style type="text/css">
	.st0{fill:none;stroke:#102773;stroke-miterlimit:10;}
	.st1{fill:none;stroke:#102773;stroke-width:1.298;stroke-miterlimit:10;}
	.st2{fill:#102773;}
	.st3{fill:#FFFFFF;}
	.st4{fill:#F7F9F9;}
	.st5{font-family:'Arial-Black';}
	.st6{font-size:2.1686px;}
	.st7{fill:none;stroke:#102773;stroke-width:0.5519;stroke-miterlimit:10;}
	.st8{fill:none;stroke:#FFFFFF;stroke-width:0.184;stroke-miterlimit:10;}
	.st9{fill:none;stroke:#102773;stroke-width:0.5;stroke-miterlimit:10;}
</style>
<line class="st0" x1="0.5" y1="69.5" x2="161.5" y2="70.5"/>
<path class="st1" d="M161.7,161.7C72.4,161.7,0,145.2,0,124.9S72.4,88,161.7,88"/>
<polygon class="st2" points="52.6,140.3 51.9,139.3 61.4,118.4 64.5,116.4 66.5,114.8 68.1,112.5 69,110.3 69.7,107.9 69.7,106.1 
	69.7,104.1 69.7,102.4 69.7,100.9 69.7,98.3 67.9,98.3 69.1,96.9 69.7,95.5 71.2,93 73.5,90.6 76.8,89.2 79.3,88.5 83.9,88.5 
	88.8,87.9 106.1,88.5 108.6,87.9 112.3,85.7 111.8,81.8 109.9,80.9 108,80.9 106,81.8 104.4,80.9 103,79.6 103,77.9 103.4,76.7 
	105.8,75.4 107.7,73.6 108.6,72 105.6,69.4 104.8,67 107.9,67 109.6,67.5 111,69.4 111.8,67.8 109.9,66.2 104,65.3 98.5,64 
	95.4,60.4 95,57.8 99.2,63 102.2,63.4 98.8,56.8 98.2,53.6 99.8,48.8 100,55.2 104,62.6 107.1,64.3 109.2,63.6 109.5,61.1 
	109.7,58.8 109.7,56.1 107.9,53.5 106.5,49.5 110.3,54 112.3,55.9 111.4,61 111.5,64.4 112.3,65.6 113.6,66.6 113.6,68 115.6,68 
	117.6,66 119.9,64.3 122.9,61.9 121.6,60.1 121.3,57.5 119,51.7 117.7,49.5 117.1,45.6 120.3,50.9 122.9,58 124.4,60.5 125.7,60 
	129,54.7 129,50.9 129,48.1 124.2,42.6 129,45.7 130.3,49.6 130.3,52 130.3,55 129,58.1 127.2,60.1 130.3,59.4 133,53.7 131.6,61 
	125.1,62 118.1,68.2 119.6,69 121.2,68.4 123.3,65.4 127.6,65.4 125.9,69.7 123.1,71.6 122.4,73.4 124.5,76.4 125.8,79.3 
	126.6,82.6 126.7,85.1 127.2,87.7 127.3,89.9 127.3,92.3 126.7,95.5 126.8,97.7 126.8,101.1 124.6,106.3 122.6,108.3 120.5,112.1 
	116,126.3 115.6,128.6 115.5,136.4 116.7,140.3 118.3,141.6 118.8,143.6 115.5,143.1 113.7,139.5 113.1,137.3 113.2,128.3 
	113.5,124.2 113.8,113.4 111.5,113.4 111.7,124.2 112.4,126.8 112.2,128.9 112.5,139.4 113.8,143.6 112.8,145 110.4,143.8 
	110.2,141.6 109.8,134.7 109.2,128.9 108.5,126.8 108.6,124.7 105.8,113.8 101.2,114.1 96,112.6 92.2,110.2 91,109.7 89,114.8 
	86,118.4 83,121 80.5,122.8 80,125.8 84.5,137.5 87,139.5 87.7,141.3 84.6,141.3 83,140.4 82,138.1 80.7,137.3 73.9,121.5 74,120.1 
	78.1,117.3 80.2,111.6 74.8,115.3 67.2,121.5 63.2,124.8 59.8,130.3 57.3,136.2 55.9,139.7 56.2,142.9 54.7,144 52.6,142.5 "/>
<g>
	<g>
		<rect x="45" y="35.1" class="st2" width="6" height="30.4"/>
		<rect x="45.5" y="36.6" class="st3" width="1.2" height="2.6"/>
		<rect x="47.3" y="36.6" class="st3" width="1.2" height="2.6"/>
		<rect x="49.2" y="36.6" class="st3" width="1.2" height="2.6"/>
		<rect x="45.5" y="41.1" class="st3" width="1.2" height="2.6"/>
		<rect x="47.3" y="41.1" class="st3" width="1.2" height="2.6"/>
		<rect x="49.2" y="41.1" class="st3" width="1.2" height="2.6"/>
		<rect x="45.5" y="45.6" class="st3" width="1.2" height="2.6"/>
		<rect x="47.3" y="45.6" class="st3" width="1.2" height="2.6"/>
		<rect x="49.2" y="45.6" class="st3" width="1.2" height="2.6"/>
		<rect x="45.5" y="50.1" class="st3" width="1.2" height="2.6"/>
		<rect x="47.3" y="50.1" class="st3" width="1.2" height="2.6"/>
		<rect x="49.2" y="50.1" class="st3" width="1.2" height="2.6"/>
		<rect x="45.5" y="54.6" class="st3" width="1.2" height="2.6"/>
		<rect x="47.3" y="54.6" class="st3" width="1.2" height="2.6"/>
		<rect x="49.2" y="54.6" class="st3" width="1.2" height="2.6"/>
		<rect x="47" y="59.9" class="st3" width="1.8" height="5.2"/>
	</g>
	<g>
		<rect x="82" y="34" class="st2" width="6" height="32.6"/>
		<rect x="82.5" y="35.6" class="st3" width="1.2" height="2.8"/>
		<rect x="84.3" y="35.6" class="st3" width="1.2" height="2.8"/>
		<rect x="86.2" y="35.6" class="st3" width="1.2" height="2.8"/>
		<rect x="82.5" y="40.4" class="st3" width="1.2" height="2.8"/>
		<rect x="84.3" y="40.4" class="st3" width="1.2" height="2.8"/>
		<rect x="86.2" y="40.4" class="st3" width="1.2" height="2.8"/>
		<rect x="82.5" y="45.3" class="st3" width="1.2" height="2.8"/>
		<rect x="84.3" y="45.3" class="st3" width="1.2" height="2.8"/>
		<rect x="86.2" y="45.3" class="st3" width="1.2" height="2.8"/>
		<rect x="82.5" y="50.1" class="st3" width="1.2" height="2.8"/>
		<rect x="84.3" y="50.1" class="st3" width="1.2" height="2.8"/>
		<rect x="86.2" y="50.1" class="st3" width="1.2" height="2.8"/>
		<rect x="82.5" y="54.9" class="st3" width="1.2" height="2.8"/>
		<rect x="84.3" y="54.9" class="st3" width="1.2" height="2.8"/>
		<rect x="86.2" y="54.9" class="st3" width="1.2" height="2.8"/>
		<rect x="84" y="60.6" class="st3" width="1.8" height="5.6"/>
	</g>
	<g>
		<rect x="88" y="44.1" class="st2" width="8" height="20.2"/>
		<rect x="88.7" y="45.1" class="st3" width="1.6" height="1.8"/>
		<rect x="91.1" y="45.1" class="st3" width="1.6" height="1.8"/>
		<rect x="93.6" y="45.1" class="st3" width="1.6" height="1.8"/>
		<rect x="88.7" y="48.1" class="st3" width="1.6" height="1.8"/>
		<rect x="91.1" y="48.1" class="st3" width="1.6" height="1.8"/>
		<rect x="93.6" y="48.1" class="st3" width="1.6" height="1.8"/>
		<rect x="88.7" y="51.1" class="st3" width="1.6" height="1.8"/>
		<rect x="91.1" y="51.1" class="st3" width="1.6" height="1.8"/>
		<rect x="93.6" y="51.1" class="st3" width="1.6" height="1.8"/>
		<rect x="88.7" y="54.1" class="st3" width="1.6" height="1.8"/>
		<rect x="91.1" y="54.1" class="st3" width="1.6" height="1.8"/>
		<rect x="93.6" y="54.1" class="st3" width="1.6" height="1.8"/>
		<rect x="88.7" y="57.1" class="st3" width="1.6" height="1.8"/>
		<rect x="91.1" y="57.1" class="st3" width="1.6" height="1.8"/>
		<rect x="93.6" y="57.1" class="st3" width="1.6" height="1.8"/>
		<rect x="90.7" y="60.6" class="st3" width="2.4" height="3.5"/>
	</g>
	<g>
		<rect x="52" y="44.1" class="st2" width="8" height="20.2"/>
		<rect x="52.7" y="45.1" class="st3" width="1.6" height="1.8"/>
		<rect x="55.1" y="45.1" class="st3" width="1.6" height="1.8"/>
		<rect x="57.6" y="45.1" class="st3" width="1.6" height="1.8"/>
		<rect x="52.7" y="48.1" class="st3" width="1.6" height="1.8"/>
		<rect x="55.1" y="48.1" class="st3" width="1.6" height="1.8"/>
		<rect x="57.6" y="48.1" class="st3" width="1.6" height="1.8"/>
		<rect x="52.7" y="51.1" class="st3" width="1.6" height="1.8"/>
		<rect x="55.1" y="51.1" class="st3" width="1.6" height="1.8"/>
		<rect x="57.6" y="51.1" class="st3" width="1.6" height="1.8"/>
		<rect x="52.7" y="54.1" class="st3" width="1.6" height="1.8"/>
		<rect x="55.1" y="54.1" class="st3" width="1.6" height="1.8"/>
		<rect x="57.6" y="54.1" class="st3" width="1.6" height="1.8"/>
		<rect x="52.7" y="57.1" class="st3" width="1.6" height="1.8"/>
		<rect x="55.1" y="57.1" class="st3" width="1.6" height="1.8"/>
		<rect x="57.6" y="57.1" class="st3" width="1.6" height="1.8"/>
		<rect x="54.7" y="60.6" class="st3" width="2.4" height="3.5"/>
	</g>
	<g>
		<rect x="72" y="44.1" class="st2" width="8" height="20.2"/>
		<rect x="72.7" y="45.1" class="st3" width="1.6" height="1.8"/>
		<rect x="75.1" y="45.1" class="st3" width="1.6" height="1.8"/>
		<rect x="77.6" y="45.1" class="st3" width="1.6" height="1.8"/>
		<rect x="72.7" y="48.1" class="st3" width="1.6" height="1.8"/>
		<rect x="75.1" y="48.1" class="st3" width="1.6" height="1.8"/>
		<rect x="77.6" y="48.1" class="st3" width="1.6" height="1.8"/>
		<rect x="72.7" y="51.1" class="st3" width="1.6" height="1.8"/>
		<rect x="75.1" y="51.1" class="st3" width="1.6" height="1.8"/>
		<rect x="77.6" y="51.1" class="st3" width="1.6" height="1.8"/>
		<rect x="72.7" y="54.1" class="st3" width="1.6" height="1.8"/>
		<rect x="75.1" y="54.1" class="st3" width="1.6" height="1.8"/>
		<rect x="77.6" y="54.1" class="st3" width="1.6" height="1.8"/>
		<rect x="72.7" y="57.1" class="st3" width="1.6" height="1.8"/>
		<rect x="75.1" y="57.1" class="st3" width="1.6" height="1.8"/>
		<rect x="77.6" y="57.1" class="st3" width="1.6" height="1.8"/>
		<rect x="74.7" y="60.6" class="st3" width="2.4" height="3.5"/>
	</g>
	<g>
		<rect x="63" y="44.1" class="st2" width="8" height="20.2"/>
		<rect x="63.7" y="45.1" class="st3" width="1.6" height="1.8"/>
		<rect x="66.1" y="45.1" class="st3" width="1.6" height="1.8"/>
		<rect x="68.6" y="45.1" class="st3" width="1.6" height="1.8"/>
		<rect x="63.7" y="48.1" class="st3" width="1.6" height="1.8"/>
		<rect x="66.1" y="48.1" class="st3" width="1.6" height="1.8"/>
		<rect x="68.6" y="48.1" class="st3" width="1.6" height="1.8"/>
		<rect x="63.7" y="51.1" class="st3" width="1.6" height="1.8"/>
		<rect x="66.1" y="51.1" class="st3" width="1.6" height="1.8"/>
		<rect x="68.6" y="51.1" class="st3" width="1.6" height="1.8"/>
		<rect x="63.7" y="54.1" class="st3" width="1.6" height="1.8"/>
		<rect x="66.1" y="54.1" class="st3" width="1.6" height="1.8"/>
		<rect x="68.6" y="54.1" class="st3" width="1.6" height="1.8"/>
		<rect x="63.7" y="57.1" class="st3" width="1.6" height="1.8"/>
		<rect x="66.1" y="57.1" class="st3" width="1.6" height="1.8"/>
		<rect x="68.6" y="57.1" class="st3" width="1.6" height="1.8"/>
		<rect x="65.7" y="60.6" class="st3" width="2.4" height="3.5"/>
	</g>
	<g>
		<rect x="53.1" y="58.1" class="st2" width="12.2" height="11.9"/>
		<polygon class="st2" points="52,57.9 66,57.9 62.8,53.6 55.3,53.6 		"/>
		<rect x="58.2" y="67.3" class="st4" width="2.1" height="2.7"/>
		<rect x="54.1" y="61.1" class="st4" width="1" height="5.4"/>
		<rect x="55.8" y="61.1" class="st4" width="1" height="5.4"/>
		<rect x="57.7" y="61.1" class="st4" width="1" height="5.4"/>
		<rect x="59.8" y="61.1" class="st4" width="1" height="5.4"/>
		<rect x="61.7" y="61.1" class="st4" width="1" height="5.4"/>
		<rect x="63.5" y="61.1" class="st4" width="1" height="5.4"/>
		<text transform="matrix(0.8804 0 0 1 54.4678 60.3936)" class="st3 st5 st6">LIBRARY</text>
	</g>
	<g>
		<path class="st2" d="M27.9,54.6c-0.8,0.2-1.5,0.3-2.3,0.3c0,0,0,0,0,0c0-0.1,0-0.1,0.1-0.2c0-0.1,0-0.1-0.1-0.1
			c-0.1,0-0.1,0-0.2,0.1c0,0-0.1,0.1-0.1,0.1c0,0,0,0,0,0.1c0,0,0,0,0,0c0,0,0-0.1-0.1-0.1c0-0.1,0-0.2-0.1-0.2c0,0,0,0-0.1,0
			c0-0.1-0.1-0.1-0.1-0.1c-0.1,0-0.2,0.2-0.2,0.4c0,0-0.1,0-0.2-0.1c-0.4,0-0.8,0-1.2,0c0,0,0,0,0,0c-0.9,0-1.9,0-2.8,0.1
			c-0.2,0-0.3,0.1-0.3,0.3c-0.1,0-0.2,0.1-0.3,0.2c-0.8,1.2-1.6,2.3-2.6,3.3c-0.3,0.3-0.1,0.8,0.3,0.8c2.2,0,4.6,0.1,6.9-0.2
			c0.3,0.1,0.7,0.1,1,0.1c0.3,0,0.5-0.3,0.4-0.6c0,0,0-0.1,0-0.1c1.1-0.8,1.9-2.4,2.5-3.5C28.6,54.9,28.3,54.5,27.9,54.6z"/>
		<g>
			<polygon class="st7" points="17.1,59.5 25.7,59.5 28.8,54.6 20.4,54.6 			"/>
			<polyline class="st7" points="28.8,54.6 31,59.5 31,68.8 17.1,68.8 17.1,59.5 			"/>
			<line class="st7" x1="25.7" y1="59.5" x2="25.7" y2="68.8"/>
		</g>
		<rect x="27.8" y="65.6" class="st2" width="1.6" height="3.2"/>
		<rect x="18.6" y="65.1" class="st2" width="1.9" height="2.5"/>
		<rect x="21.6" y="65.1" class="st2" width="1.9" height="2.5"/>
		<rect x="18.6" y="61.3" class="st2" width="1.9" height="2.5"/>
		<rect x="21.6" y="61.3" class="st2" width="1.9" height="2.5"/>
		<rect x="27.1" y="61.3" class="st2" width="1.3" height="2.5"/>
		<rect x="29" y="61.3" class="st2" width="1.3" height="2.5"/>
		<line class="st8" x1="23.3" y1="59.7" x2="26.4" y2="54.5"/>
		<line class="st8" x1="21.4" y1="59.5" x2="24.4" y2="54.6"/>
		<line class="st8" x1="19.3" y1="59.5" x2="22.7" y2="54.6"/>
		<line class="st8" x1="18.7" y1="56.9" x2="27.3" y2="56.9"/>
	</g>
	<g>
		<rect x="66" y="49.8" class="st2" width="8" height="20.2"/>
		<rect x="66.7" y="50.8" class="st3" width="1.6" height="1.8"/>
		<rect x="69.1" y="50.8" class="st3" width="1.6" height="1.8"/>
		<rect x="71.6" y="50.8" class="st3" width="1.6" height="1.8"/>
		<rect x="66.7" y="53.8" class="st3" width="1.6" height="1.8"/>
		<rect x="69.1" y="53.8" class="st3" width="1.6" height="1.8"/>
		<rect x="71.6" y="53.8" class="st3" width="1.6" height="1.8"/>
		<rect x="66.7" y="56.8" class="st3" width="1.6" height="1.8"/>
		<rect x="69.1" y="56.8" class="st3" width="1.6" height="1.8"/>
		<rect x="71.6" y="56.8" class="st3" width="1.6" height="1.8"/>
		<rect x="66.7" y="59.8" class="st3" width="1.6" height="1.8"/>
		<rect x="69.1" y="59.8" class="st3" width="1.6" height="1.8"/>
		<rect x="71.6" y="59.8" class="st3" width="1.6" height="1.8"/>
		<rect x="66.7" y="62.8" class="st3" width="1.6" height="1.8"/>
		<rect x="69.1" y="62.8" class="st3" width="1.6" height="1.8"/>
		<rect x="71.6" y="62.8" class="st3" width="1.6" height="1.8"/>
		<rect x="68.7" y="66.2" class="st3" width="2.4" height="3.5"/>
	</g>
	<g>
		<rect x="75" y="49.8" class="st2" width="8" height="20.2"/>
		<rect x="75.7" y="50.8" class="st3" width="1.6" height="1.8"/>
		<rect x="78.1" y="50.8" class="st3" width="1.6" height="1.8"/>
		<rect x="80.6" y="50.8" class="st3" width="1.6" height="1.8"/>
		<rect x="75.7" y="53.8" class="st3" width="1.6" height="1.8"/>
		<rect x="78.1" y="53.8" class="st3" width="1.6" height="1.8"/>
		<rect x="80.6" y="53.8" class="st3" width="1.6" height="1.8"/>
		<rect x="75.7" y="56.8" class="st3" width="1.6" height="1.8"/>
		<rect x="78.1" y="56.8" class="st3" width="1.6" height="1.8"/>
		<rect x="80.6" y="56.8" class="st3" width="1.6" height="1.8"/>
		<rect x="75.7" y="59.8" class="st3" width="1.6" height="1.8"/>
		<rect x="78.1" y="59.8" class="st3" width="1.6" height="1.8"/>
		<rect x="80.6" y="59.8" class="st3" width="1.6" height="1.8"/>
		<rect x="75.7" y="62.8" class="st3" width="1.6" height="1.8"/>
		<rect x="78.1" y="62.8" class="st3" width="1.6" height="1.8"/>
		<rect x="80.6" y="62.8" class="st3" width="1.6" height="1.8"/>
		<rect x="77.7" y="66.2" class="st3" width="2.4" height="3.5"/>
	</g>
	<g>
		<rect x="84" y="56.5" class="st2" width="8" height="13.5"/>
		<rect x="84.7" y="57.2" class="st3" width="1.6" height="1.2"/>
		<rect x="87.1" y="57.2" class="st3" width="1.6" height="1.2"/>
		<rect x="89.6" y="57.2" class="st3" width="1.6" height="1.2"/>
		<rect x="84.7" y="59.2" class="st3" width="1.6" height="1.2"/>
		<rect x="87.1" y="59.2" class="st3" width="1.6" height="1.2"/>
		<rect x="89.6" y="59.2" class="st3" width="1.6" height="1.2"/>
		<rect x="84.7" y="61.2" class="st3" width="1.6" height="1.2"/>
		<rect x="87.1" y="61.2" class="st3" width="1.6" height="1.2"/>
		<rect x="89.6" y="61.2" class="st3" width="1.6" height="1.2"/>
		<rect x="84.7" y="63.2" class="st3" width="1.6" height="1.2"/>
		<rect x="87.1" y="63.2" class="st3" width="1.6" height="1.2"/>
		<rect x="89.6" y="63.2" class="st3" width="1.6" height="1.2"/>
		<rect x="84.7" y="65.2" class="st3" width="1.6" height="1.2"/>
		<rect x="87.1" y="65.2" class="st3" width="1.6" height="1.2"/>
		<rect x="89.6" y="65.2" class="st3" width="1.6" height="1.2"/>
		<rect x="86.7" y="67.5" class="st3" width="2.4" height="2.3"/>
	</g>
	<g>
		<rect x="45" y="56.5" class="st2" width="8" height="13.5"/>
		<rect x="45.7" y="57.2" class="st3" width="1.6" height="1.2"/>
		<rect x="48.1" y="57.2" class="st3" width="1.6" height="1.2"/>
		<rect x="50.6" y="57.2" class="st3" width="1.6" height="1.2"/>
		<rect x="45.7" y="59.2" class="st3" width="1.6" height="1.2"/>
		<rect x="48.1" y="59.2" class="st3" width="1.6" height="1.2"/>
		<rect x="50.6" y="59.2" class="st3" width="1.6" height="1.2"/>
		<rect x="45.7" y="61.2" class="st3" width="1.6" height="1.2"/>
		<rect x="48.1" y="61.2" class="st3" width="1.6" height="1.2"/>
		<rect x="50.6" y="61.2" class="st3" width="1.6" height="1.2"/>
		<rect x="45.7" y="63.2" class="st3" width="1.6" height="1.2"/>
		<rect x="48.1" y="63.2" class="st3" width="1.6" height="1.2"/>
		<rect x="50.6" y="63.2" class="st3" width="1.6" height="1.2"/>
		<rect x="45.7" y="65.2" class="st3" width="1.6" height="1.2"/>
		<rect x="48.1" y="65.2" class="st3" width="1.6" height="1.2"/>
		<rect x="50.6" y="65.2" class="st3" width="1.6" height="1.2"/>
		<rect x="47.7" y="67.5" class="st3" width="2.4" height="2.3"/>
	</g>
	<g>
		<path class="st2" d="M41.9,49.1c-0.8,0.2-1.5,0.3-2.3,0.3c0,0,0,0,0,0c0-0.1,0-0.1,0.1-0.2c0-0.1,0-0.1-0.1-0.1
			c-0.1,0-0.1,0-0.2,0.1c0,0-0.1,0.1-0.1,0.1c0,0,0,0,0,0.1c0,0,0,0,0,0c0,0,0-0.1-0.1-0.1c0-0.1,0-0.2-0.1-0.2c0,0,0,0-0.1,0
			C39,49,39,49,38.9,49c-0.1,0-0.2,0.2-0.2,0.4c0,0-0.1,0-0.2-0.1c-0.4,0-0.8,0-1.2,0c0,0,0,0,0,0c-0.9,0-1.9,0-2.8,0.1
			c-0.2,0-0.3,0.1-0.3,0.3c-0.1,0-0.2,0.1-0.3,0.2c-0.8,1.2-1.6,2.3-2.6,3.3c-0.3,0.3-0.1,0.8,0.3,0.8c2.2,0,4.6,0.1,6.9-0.2
			c0.3,0.1,0.7,0.1,1,0.1c0.3,0,0.5-0.3,0.4-0.6c0,0,0-0.1,0-0.1c1.1-0.8,1.9-2.4,2.5-3.5C42.6,49.4,42.3,49,41.9,49.1z"/>
		<g>
			<polygon class="st7" points="31.1,54 39.7,54 42.8,49.1 34.4,49.1 			"/>
			<polyline class="st7" points="42.8,49.1 45,54 45,63.2 31.1,63.2 31.1,54 			"/>
			<line class="st7" x1="39.7" y1="54" x2="39.7" y2="63.2"/>
		</g>
		<rect x="41.8" y="60.1" class="st2" width="1.6" height="3.2"/>
		<rect x="32.6" y="59.6" class="st2" width="1.9" height="2.5"/>
		<rect x="35.6" y="59.6" class="st2" width="1.9" height="2.5"/>
		<rect x="32.6" y="55.8" class="st2" width="1.9" height="2.5"/>
		<rect x="35.6" y="55.8" class="st2" width="1.9" height="2.5"/>
		<rect x="41.1" y="55.8" class="st2" width="1.3" height="2.5"/>
		<rect x="43" y="55.8" class="st2" width="1.3" height="2.5"/>
		<line class="st8" x1="37.3" y1="54.2" x2="40.4" y2="49"/>
		<line class="st8" x1="35.4" y1="54" x2="38.4" y2="49.1"/>
		<line class="st8" x1="33.3" y1="54" x2="36.7" y2="49.1"/>
		<line class="st8" x1="32.7" y1="51.4" x2="41.3" y2="51.4"/>
	</g>
	<g>
		<rect x="32" y="56.5" class="st2" width="13" height="13.5"/>
		<rect x="33.1" y="57.2" class="st3" width="2.5" height="1.2"/>
		<rect x="37.1" y="57.2" class="st3" width="2.5" height="1.2"/>
		<rect x="41" y="57.2" class="st3" width="2.5" height="1.2"/>
		<rect x="33.1" y="59.2" class="st3" width="2.5" height="1.2"/>
		<rect x="37.1" y="59.2" class="st3" width="2.5" height="1.2"/>
		<rect x="41" y="59.2" class="st3" width="2.5" height="1.2"/>
		<rect x="33.1" y="61.2" class="st3" width="2.5" height="1.2"/>
		<rect x="37.1" y="61.2" class="st3" width="2.5" height="1.2"/>
		<rect x="41" y="61.2" class="st3" width="2.5" height="1.2"/>
		<rect x="33.1" y="63.2" class="st3" width="2.5" height="1.2"/>
		<rect x="37.1" y="63.2" class="st3" width="2.5" height="1.2"/>
		<rect x="41" y="63.2" class="st3" width="2.5" height="1.2"/>
		<rect x="33.1" y="65.2" class="st3" width="2.5" height="1.2"/>
		<rect x="37.1" y="65.2" class="st3" width="2.5" height="1.2"/>
		<rect x="41" y="65.2" class="st3" width="2.5" height="1.2"/>
		<rect x="36.3" y="67.5" class="st3" width="4" height="2.3"/>
	</g>
	<rect x="91.5" y="63.5" class="st0" width="16" height="6"/>
	<rect x="92.5" y="64.5" class="st9" width="4" height="4"/>
	<rect x="102.5" y="64.5" class="st9" width="4" height="4"/>
	<rect x="98.5" y="66.5" class="st9" width="2" height="3"/>
</g>
<g>
	<path class="st2" d="M162,0c0,13.7-13.7,24.8-30.5,24.8S101,13.7,101,0"/>
	<path class="st2" d="M162,62c-13.5,0-24.4-13.9-24.4-31S148.5,0,162,0"/>
	<ellipse class="st2" cx="133.5" cy="26.2" rx="17.6" ry="17.9"/>
</g>
<path class="st2" d="M162,143.4V58h-7v74.5c-1.9-3.2-4.4-6.1-6.7-8.9c-2-2.5-5.5,1-3.5,3.5c2.3,2.9,5.7,6.3,7.2,10.1
	c-3.7-3.3-8.5-5.5-12.9-7.4c-2.9-1.3-5.5,3-2.5,4.3c3.6,1.6,7.8,3.3,11,5.9c-2.4-0.4-4.9-0.5-7.4-0.4c-3.2,0.2-3.2,5.2,0,5
	c4.3-0.2,8.4,0.4,12.4,1.8c0.2,0.1,0.4,0.1,0.6,0.1c0.7,1,2.2,1.4,3.3,0.7c0.4-0.3,0.8-0.4,1.1-0.5c0.5-0.1,0.9,0,1.1,0.2
	c1.2,0.6,2.7,0.3,3.4-0.9C162.6,145.3,162.5,144.2,162,143.4z"/>
</svg>
