<?xml version="1.0" encoding="utf-8"?>
<!-- Generator: Adobe Illustrator 21.1.0, SVG Export Plug-In . SVG Version: 6.00 Build 0)  -->
<svg version="1.1" id="Layer_1" xmlns="http://www.w3.org/2000/svg" xmlns:xlink="http://www.w3.org/1999/xlink" x="0px" y="0px"
	 viewBox="0 0 162 162" style="enable-background:new 0 0 162 162;" xml:space="preserve">
<style type="text/css">
	.st0{fill:#102773;}
	.st1{fill:#FFFFFF;}
	.st2{fill:none;stroke:#102773;stroke-width:2;stroke-miterlimit:10;}
</style>
<g>
	<path class="st0" d="M152.1,62.1c0-0.2-0.2-0.4-0.5-0.4c-0.5,0-1-0.2-1.4-0.5l0.6-0.6l1.8-4.8l1.9-4.8v-2.2l-3.6-1.5h-5.5l-5.2,3.1
		l-2.5,4.3l-3.8-1.5c-0.1,0-0.1,0-0.2,0c-0.2-0.1-0.3-0.1-0.5-0.2h0.5l1.8-1.6v-4.4c-0.1-0.1-0.1-0.2-0.2-0.3
		c-0.5-1.3-1.7-2.6-3.2-2.4c-0.3,0-0.5,0.1-0.7,0.2c-0.4,1.7-0.6,3.4-0.6,5.2c0,1-1,1.2-1.7,0.9l0,0c0,0-0.1-0.1-0.1-0.1
		c0,0,0,0-0.1-0.1c-1.1-1-2.5-1.2-4-1.5c-1.8-0.4-3.3-1.7-5.1-1.8c-1.9-0.1-4.2,0.8-6,1.5c-1.4,0.5-2.6,1.5-2.5,3.2h-1.3l-3.7-1.9
		l-1.4-1c-1.1,0-2.1,0.6-2.6,2c-0.5,1.4-0.3,2.6,0.5,3.4l1.7,0.9c0.1,0,0.2,0.1,0.4,0.1c0.4,0.1,0.6,0.2,0.7,0.5l0.9,0.5
		c-1.6,1.7-2.8,3.8-4.8,5.1c0,0-0.1,0-0.1,0.1l-8.2-1.8l-4.5,0.6l-3.3,1.2l1.5,4.6l1.3,3l3.3,1.9l2.2,0.3l2.5,1.9l0.7,2.1l1,2.8
		c0,0,0,0,0,0c0,3.5-2.3,7-4,10c-1.8,3.1-3.8,6-6,8.8c-0.1,0.1-0.1,0.3-0.1,0.5l-0.9,0.4l-2.8,4L86,105v4.6l2.6,2.2l2.5-1l4,0.1h4.8
		l2.5-0.9l-3.4,2.4h-7.1l2.3,1.5l3.8,1l4.5-0.6l2.5-2c2.8,0.5,5.8,1.2,8.5,0.5c0.5-0.1,1-0.3,1.4-0.4c-0.1,0.3,0.1,0.6,0.4,0.6
		c5-0.1,10-0.8,14.9-2.2c1-0.3,1.9-0.6,2.8-1c0,0,0,0,0,0c4.6,2.3,8.1,6.7,10.7,11.1c0.1,0.1,0.2,0.2,0.3,0.2l-0.1,0.3l0.2-0.2
		c0.3,0,0.5-0.2,0.5-0.5l2-2.1l2.1-6.8l1.6-7.1V86.3l0.7-8.6l1.2-7.7l3.7-7L152.1,62.1z M148,65.6l-3,5.2l0.3,4.3l1.8,3.4l0.9,4.2
		l-0.1,5.5v6.7l-0.4,7.3l-0.4,6.1l-1.2,5.9l-1.4,5.9c-2.5-4.2-5.9-8.3-10.3-10.7c0.5-0.3,1-0.7,1.5-1.1c1.5-1.4,2.5-3.1,3.6-4.8
		c0.3-0.5-0.5-1-0.8-0.5c-1,1.6-2,3.3-3.4,4.6c-1.7,1.6-3.8,2.2-6,2.7c-4.3,1.1-8.7,1.7-13.1,1.8c0.5-0.2,1-0.5,1.5-0.7
		c0.6-0.3,1.2-0.7,1.8-1.1c0.2-0.1,0.4-0.3,0.7-0.5c-0.3,0-0.5-0.1-0.8-0.1c-0.2,0-0.4-0.1-0.6-0.2c-1,0.6-2,1.2-3.1,1.7
		c-3.1,1.4-6.3,0.8-9.6,0.3l0.7-2.8c0.1,0,0.3,0,0.4,0v-1c-0.1,0-0.3,0-0.4,0l-0.5-3l-3-3.9l-2.2-3.1l-3.3-1.9h-3.3l-3.8,0.7
		l-0.7,0.3c2.2-2.8,4.1-5.7,5.8-8.8c1.7-3,3.8-6.5,3.9-10c0-0.2-0.1-0.4-0.3-0.4l1.2-2.1l0.7-2.2V72L99.2,70l-0.6-3.7v-2.4l2.4-1.2
		l0.9-0.7c0.1,0.2,0.4,0.3,0.6,0.1c2.5-1.5,3.7-4.2,5.8-6c0.2-0.1,0.2-0.3,0.1-0.5l1.6-1l2-2.4c0.3,0.1,0.6-0.1,0.6-0.4
		c-0.2-2.2,2.9-2.6,4.5-3.1c1.9-0.6,3.3-0.8,5.1,0.1c1,0.5,1.9,0.9,3.1,1.1c1.3,0.3,2.6,0.4,3.5,1.4l0,0l2.6,1.6h0.3
		c0.8,0.6,1.7,1,2.7,1.4c0.1,0,0.1,0,0.2,0l3,1.2l0,0.1l-1.2,3.9l-1.8-0.6l-1.5-2.1l-2.8-1.2l-3.3-0.4l-2.7-0.9l-4.8,3.4l-4.5,4.6
		l-3.4,5.4l0.6,9.1l-4,12.3l3.4,3.4l1.2,1.8l1.8,3.3l3.9-0.7l3.3-3.5l2.5-0.8l3.7,0.1l4.6,1.3h2.8l3.1-0.7l1.5-5l0-0.2
		c0.8,3.4,1.4,6.9-0.5,9.9c0.3,0,0.7,0,1.1,0.1c2.3-4.1,0.5-9-0.4-13.4c-0.7,0-1-0.6-1-1.1c0,0-0.1,0-0.1,0.1l-1.7-2.8v-1.8l1-2.4
		l-0.3-3.9v-3.9l8-3.9l3.4-3.2c0.3,0.2,0.6,0.4,1,0.5L148,65.6z"/>
	<polygon class="st1" points="117.8,71.2 119,69.2 121,68 123.1,68 124.6,68.9 124.6,71.2 122.1,73.6 119.7,72.9 	"/>
	<polygon class="st1" points="93.5,104.3 93.5,102.5 95.6,101.4 97.7,101.4 99.2,102.2 98.4,104.3 96.4,105.6 	"/>
	<circle class="st0" cx="121.2" cy="69.8" r="1.9"/>
</g>
<line class="st2" x1="77" y1="26" x2="77" y2="133"/>
<g>
	<polygon class="st0" points="37.1,119.3 37.2,116.4 37.2,113.5 37.2,110.7 35.7,107.6 32.6,104.8 28.2,102.4 23.1,100.4 19.3,98.6 
		17.3,94.3 25,97.6 28.8,98.7 33.2,101.1 35.3,102.3 33.4,98.5 37.1,100.4 39.5,101.9 42.6,100.1 45.1,97.1 46.2,99.1 45,102.9 
		47.8,100.6 51.1,98.9 54.4,98.2 57.4,96.7 60.2,94.3 63.7,87.5 61.4,94.7 59.5,97.7 56.7,100 52.7,102.4 48.8,104.3 47.2,106.1 
		45.4,109.1 44.8,112.4 44.8,115.9 44.9,118.3 45.1,121 	"/>
	<polygon class="st0" points="15.8,94.2 11.8,90.7 9.2,86.8 7.3,80.5 13.6,84.8 18.2,87.4 21.3,89.1 21.3,91.2 19.1,93.4 	"/>
	<polygon class="st0" points="20.7,94.2 22.9,90.9 24.7,89.4 27.1,93 28.4,96.4 25.4,96.4 	"/>
	<polygon class="st0" points="32,98.6 29.5,96.4 28.4,92.9 28.4,88.8 30.2,84.4 33,80.5 35.6,77.4 39.2,80.5 41.9,86 43.2,90.5 
		43.2,93.8 42,96.4 39.9,98.6 37.2,99.1 34.7,98.5 	"/>
	<polygon class="st0" points="44.9,93.6 47.1,90.5 50.2,92 51.3,95.2 50.4,97.5 48.1,98.6 46.4,97.5 44.9,95.7 	"/>
	<polygon class="st0" points="52.2,94.2 52.2,96.4 53.1,97.2 56,95.7 58.2,94.5 59.6,92.9 60.7,90.5 62.2,87.4 55.2,92.3 52.6,92.9 
			"/>
	<polygon class="st0" points="22.8,89.4 20.7,87.4 19.4,85.6 19.4,81.6 19.4,75.6 19.9,70.5 21.3,67.8 24.1,67.2 26,69.1 28.4,75.7 
		29.7,81 29.7,83.5 28.4,86.4 27.3,89.4 24.6,88.3 	"/>
	<polygon class="st0" points="17.9,85.7 13.2,83.6 9.6,80.5 7.3,78.3 6.3,73.1 6.3,67.2 6.3,61.7 7.3,57.7 8.5,57.7 11,59.7 
		12.9,65.1 14.3,70.5 17.3,74.6 17.9,76.7 17.9,80.8 	"/>
	<polygon class="st0" points="44.9,91.2 43.2,88.3 41.9,86 43.4,81.2 46.4,75.9 49.3,70.7 53.3,74.7 55.3,79.7 56.3,83.8 56.7,87.4 
		55.2,90.5 52.6,92.9 51.3,92.3 49.9,90.5 47.1,90.5 	"/>
	<polygon class="st0" points="57.7,88.3 57.7,84.2 59.6,79.5 62.2,75.1 64.6,71.7 65.4,70.7 66.8,67.2 68,70 68,74.1 68,78.3 
		67,81.8 65.2,85.7 63.7,87.5 	"/>
	<polygon class="st0" points="17.3,70.7 14.8,67.8 13.2,63.9 11,59.7 10.4,57.2 10.4,53.1 10.4,48.9 12.1,45.5 13.8,43.6 15.6,44.9 
		16.7,48 18.6,50.4 20.7,53.5 22,57.2 20.7,60.7 19.8,65.8 19.4,68.1 18.3,72.6 	"/>
	<polygon class="st0" points="20.7,66.1 22,60.3 23.5,57.2 25.4,54.3 26.9,52.5 29.7,53.4 32.3,55.6 34,57.1 34.8,58.6 35.3,61.4 
		33.1,65.5 31.1,70.7 30.3,72.6 28.4,71.7 27.1,69.5 26.3,67.8 24.1,67.2 23.6,66.2 22,66.6 	"/>
	<polygon class="st0" points="31.5,80.5 29.7,77.7 31.5,72.6 33.5,67.2 35.3,63.3 37.1,61.1 38.6,61.1 41.4,63.6 43.2,65.9 
		44.9,68.3 45.6,70.7 46.6,73.5 43.8,78.3 41.4,81.8 39.2,80.5 38.2,78.7 36.7,77.4 35.6,77.4 33.5,78.3 	"/>
	<polygon class="st0" points="47.5,70.7 44.9,66.1 41.9,62.5 43.2,59.2 45.4,54.3 48.1,52.5 50.6,54.8 52.2,57.7 53.6,61.1 
		52.2,65.7 51.3,70.3 49.3,69.4 	"/>
	<polygon class="st0" points="52.8,72.6 55,75.6 56.7,78.7 57.2,81.8 59,77.7 61.6,73.7 64,70.7 63.7,66.4 62.2,63.2 61.4,59.9 
		59.8,58.1 56.7,57.7 54.6,61.1 52.8,66.7 52.8,70.7 	"/>
	<polygon class="st0" points="65.2,67.6 61.4,59.9 63.7,56.8 65.2,52.9 66.2,57.7 66.9,61.1 67.4,63.8 66.8,67.2 	"/>
	<polygon class="st0" points="20,50.6 17.9,47.4 15.6,44.9 16.6,41.7 18.8,37.6 21.3,35.2 24.6,33.6 24.6,40.5 23.9,43.6 22.4,48.9 
		22,52.5 	"/>
	<polygon class="st0" points="23.5,54.8 23.5,50.5 23.5,47.8 23.9,43.6 26.7,40.7 29.7,37.7 31.4,41.8 32.8,45 33.3,46.3 32.4,49.4 
		31.6,52.9 29.7,52.5 26.9,52.5 25.2,52.9 	"/>
	<polygon class="st0" points="37.1,61.1 35.8,57.7 34.1,56 33.3,54.8 33.3,52.1 33.9,47.9 35.8,44.3 38.2,41 41.9,43 43.9,46.3 
		45.7,48.5 46.6,50.5 48.1,52.5 45.4,54.3 43.2,56.3 41.9,58.7 40.7,60.2 	"/>
	<polygon class="st0" points="52.2,56.3 49.7,52.9 48.1,51 46.6,48.7 45.3,45.4 46.2,41 47.8,39.5 51.3,40.3 53.6,42 55.2,46.8 
		55.5,51 55.5,54.5 54,58.1 	"/>
	<polygon class="st0" points="55.5,56.4 58.4,56.4 60.2,56.8 61.4,56.8 63.7,54.5 63.7,51.5 62.9,47.8 60.9,43 58.9,40.5 56.7,39 
		55.1,39 53.6,37 54.9,42.4 56.2,45.7 56.7,48.8 56.2,52.9 	"/>
	<polygon class="st0" points="25.3,36.2 28,33.6 30.2,32.3 32.6,35.1 33.8,37.7 34.3,42.6 33.3,43 31.5,39.5 29.7,37.7 26.9,39 
		24.6,40.5 	"/>
	<polygon class="st0" points="32.5,33.6 33.8,30.5 36.6,30.5 38.2,32.3 39.4,33.6 38.2,37.7 38.5,39.5 36.7,41.9 35.3,41 33.8,37.7 
		32.6,35.1 	"/>
	<polygon class="st0" points="39.4,40 41.3,41 43.2,40 43.6,37 43.6,34.3 43.2,32.8 41.9,31.9 40.1,32.3 39.4,35.8 38.5,39.5 	"/>
	<polygon class="st0" points="43.2,42.3 44.4,44.7 46.1,39.5 47.8,38.7 49.3,38.7 51.3,40.3 52.8,39.9 52.8,37.7 50.4,34.7 
		48.1,32.8 46.6,31.2 44.9,30.5 	"/>
	<polygon class="st0" points="28.4,31 30.8,28.1 32.5,27 34.7,27 38.2,29 40.5,29 43.2,31 41.1,30.5 38.5,31 35.3,29.8 32.5,31 
		32.5,33.6 30.2,32.3 28,32.3 	"/>
</g>
</svg>
