<?xml version="1.0" encoding="utf-8"?>
<!-- Generator: Adobe Illustrator 21.1.0, SVG Export Plug-In . SVG Version: 6.00 Build 0)  -->
<svg version="1.1" id="Layer_1" xmlns="http://www.w3.org/2000/svg" xmlns:xlink="http://www.w3.org/1999/xlink" x="0px" y="0px"
	 viewBox="0 0 162 162" style="enable-background:new 0 0 162 162;" xml:space="preserve">
<style type="text/css">
	.st0{fill:#102773;stroke:#102773;stroke-miterlimit:10;}
	.st1{fill:none;stroke:#102773;stroke-width:2;stroke-miterlimit:10;}
	.st2{fill:#102773;}
	.st3{fill:none;stroke:#102773;stroke-width:6.1429;stroke-miterlimit:10;}
	.st4{fill:#FFFFFF;}
</style>
<polygon class="st0" points="71.5,152.5 80.5,137.5 90.5,152.5 "/>
<line class="st1" x1="13" y1="136" x2="149" y2="136"/>
<g>
	<circle class="st2" cx="26.8" cy="62.6" r="4.6"/>
	<line class="st3" x1="26.8" y1="67.2" x2="26.8" y2="83.3"/>
	<path class="st2" d="M24.9,101L24.9,101c-0.6,0-1.2-0.5-1.2-1.2V83c0-0.6,0.5-1.2,1.2-1.2h0c0.6,0,1.2,0.5,1.2,1.2v16.9
		C26.1,100.5,25.5,101,24.9,101z"/>
	<path class="st2" d="M28.7,101L28.7,101c-0.6,0-1.2-0.5-1.2-1.2V83c0-0.6,0.5-1.2,1.2-1.2h0c0.6,0,1.2,0.5,1.2,1.2v16.9
		C29.9,100.5,29.4,101,28.7,101z"/>
	<path class="st2" d="M42.2,62.1l-12,6.9c-0.5,0.3-1.3,0.1-1.6-0.4h0c-0.3-0.5-0.1-1.3,0.4-1.6l12-6.9c0.5-0.3,1.3-0.1,1.6,0.4l0,0
		C43,61,42.8,61.8,42.2,62.1z"/>
	<path class="st2" d="M11.4,62.1l12,6.9c0.5,0.3,1.3,0.1,1.6-0.4h0c0.3-0.5,0.1-1.3-0.4-1.6l-12-6.9c-0.5-0.3-1.3-0.1-1.6,0.4l0,0
		C10.7,61,10.9,61.8,11.4,62.1z"/>
</g>
<g>
	<circle class="st2" cx="80.8" cy="92.6" r="4.6"/>
	<line class="st3" x1="80.8" y1="97.2" x2="80.8" y2="113.3"/>
	<path class="st2" d="M78.9,131L78.9,131c-0.6,0-1.2-0.5-1.2-1.2V113c0-0.6,0.5-1.2,1.2-1.2l0,0c0.6,0,1.2,0.5,1.2,1.2v16.9
		C80.1,130.5,79.5,131,78.9,131z"/>
	<path class="st2" d="M82.7,131L82.7,131c-0.6,0-1.2-0.5-1.2-1.2V113c0-0.6,0.5-1.2,1.2-1.2l0,0c0.6,0,1.2,0.5,1.2,1.2v16.9
		C83.9,130.5,83.4,131,82.7,131z"/>
	<path class="st2" d="M96.2,92.1l-12,6.9c-0.5,0.3-1.3,0.1-1.6-0.4l0,0c-0.3-0.5-0.1-1.3,0.4-1.6l12-6.9c0.5-0.3,1.3-0.1,1.6,0.4
		l0,0C97,91,96.8,91.8,96.2,92.1z"/>
	<path class="st2" d="M65.4,92.1l12,6.9c0.5,0.3,1.3,0.1,1.6-0.4l0,0c0.3-0.5,0.1-1.3-0.4-1.6l-12-6.9c-0.5-0.3-1.3-0.1-1.6,0.4l0,0
		C64.7,91,64.9,91.8,65.4,92.1z"/>
</g>
<g>
	<circle class="st2" cx="49.8" cy="82.6" r="4.6"/>
	<line class="st3" x1="49.8" y1="87.2" x2="49.8" y2="103.3"/>
	<path class="st2" d="M47.9,121L47.9,121c-0.6,0-1.2-0.5-1.2-1.2V103c0-0.6,0.5-1.2,1.2-1.2h0c0.6,0,1.2,0.5,1.2,1.2v16.9
		C49.1,120.5,48.5,121,47.9,121z"/>
	<path class="st2" d="M51.7,121L51.7,121c-0.6,0-1.2-0.5-1.2-1.2V103c0-0.6,0.5-1.2,1.2-1.2h0c0.6,0,1.2,0.5,1.2,1.2v16.9
		C52.9,120.5,52.4,121,51.7,121z"/>
	<path class="st2" d="M65.2,82.1l-12,6.9c-0.5,0.3-1.3,0.1-1.6-0.4l0,0c-0.3-0.5-0.1-1.3,0.4-1.6l12-6.9c0.5-0.3,1.3-0.1,1.6,0.4
		l0,0C66,81,65.8,81.8,65.2,82.1z"/>
	<path class="st2" d="M34.4,82.1l12,6.9c0.5,0.3,1.3,0.1,1.6-0.4l0,0c0.3-0.5,0.1-1.3-0.4-1.6l-12-6.9c-0.5-0.3-1.3-0.1-1.6,0.4h0
		C33.7,81,33.9,81.8,34.4,82.1z"/>
</g>
<g>
	<circle class="st2" cx="112.8" cy="82.6" r="4.6"/>
	<line class="st3" x1="112.8" y1="87.2" x2="112.8" y2="103.3"/>
	<path class="st2" d="M110.9,121L110.9,121c-0.6,0-1.2-0.5-1.2-1.2V103c0-0.6,0.5-1.2,1.2-1.2l0,0c0.6,0,1.2,0.5,1.2,1.2v16.9
		C112.1,120.5,111.5,121,110.9,121z"/>
	<path class="st2" d="M114.7,121L114.7,121c-0.6,0-1.2-0.5-1.2-1.2V103c0-0.6,0.5-1.2,1.2-1.2l0,0c0.6,0,1.2,0.5,1.2,1.2v16.9
		C115.9,120.5,115.4,121,114.7,121z"/>
	<path class="st2" d="M128.2,82.1l-12,6.9c-0.5,0.3-1.3,0.1-1.6-0.4l0,0c-0.3-0.5-0.1-1.3,0.4-1.6l12-6.9c0.5-0.3,1.3-0.1,1.6,0.4
		l0,0C129,81,128.8,81.8,128.2,82.1z"/>
	<path class="st2" d="M97.4,82.1l12,6.9c0.5,0.3,1.3,0.1,1.6-0.4l0,0c0.3-0.5,0.1-1.3-0.4-1.6l-12-6.9c-0.5-0.3-1.3-0.1-1.6,0.4l0,0
		C96.7,81,96.9,81.8,97.4,82.1z"/>
</g>
<g>
	<circle class="st2" cx="136.8" cy="62.6" r="4.6"/>
	<line class="st3" x1="136.8" y1="67.2" x2="136.8" y2="83.3"/>
	<path class="st2" d="M134.9,101L134.9,101c-0.6,0-1.2-0.5-1.2-1.2V83c0-0.6,0.5-1.2,1.2-1.2l0,0c0.6,0,1.2,0.5,1.2,1.2v16.9
		C136.1,100.5,135.5,101,134.9,101z"/>
	<path class="st2" d="M138.7,101L138.7,101c-0.6,0-1.2-0.5-1.2-1.2V83c0-0.6,0.5-1.2,1.2-1.2h0c0.6,0,1.2,0.5,1.2,1.2v16.9
		C139.9,100.5,139.4,101,138.7,101z"/>
	<path class="st2" d="M152.2,62.1l-12,6.9c-0.5,0.3-1.3,0.1-1.6-0.4l0,0c-0.3-0.5-0.1-1.3,0.4-1.6l12-6.9c0.5-0.3,1.3-0.1,1.6,0.4v0
		C153,61,152.8,61.8,152.2,62.1z"/>
	<path class="st2" d="M121.4,62.1l12,6.9c0.5,0.3,1.3,0.1,1.6-0.4h0c0.3-0.5,0.1-1.3-0.4-1.6l-12-6.9c-0.5-0.3-1.3-0.1-1.6,0.4v0
		C120.7,61,120.9,61.8,121.4,62.1z"/>
</g>
<g>
	<circle class="st2" cx="49.8" cy="26.6" r="4.6"/>
	<line class="st3" x1="49.8" y1="31.2" x2="49.8" y2="47.3"/>
	<path class="st2" d="M47.9,65L47.9,65c-0.6,0-1.2-0.5-1.2-1.2V47c0-0.6,0.5-1.2,1.2-1.2h0c0.6,0,1.2,0.5,1.2,1.2v16.9
		C49.1,64.5,48.5,65,47.9,65z"/>
	<path class="st2" d="M51.7,65L51.7,65c-0.6,0-1.2-0.5-1.2-1.2V47c0-0.6,0.5-1.2,1.2-1.2h0c0.6,0,1.2,0.5,1.2,1.2v16.9
		C52.9,64.5,52.4,65,51.7,65z"/>
	<path class="st2" d="M65.2,26.1l-12,6.9c-0.5,0.3-1.3,0.1-1.6-0.4v0c-0.3-0.5-0.1-1.3,0.4-1.6l12-6.9c0.5-0.3,1.3-0.1,1.6,0.4v0
		C66,25,65.8,25.8,65.2,26.1z"/>
	<path class="st2" d="M34.4,26.1l12,6.9c0.5,0.3,1.3,0.1,1.6-0.4v0c0.3-0.5,0.1-1.3-0.4-1.6l-12-6.9c-0.5-0.3-1.3-0.1-1.6,0.4l0,0
		C33.7,25,33.9,25.8,34.4,26.1z"/>
</g>
<g>
	<circle class="st2" cx="112.8" cy="27.6" r="4.6"/>
	<line class="st3" x1="112.8" y1="32.2" x2="112.8" y2="48.3"/>
	<path class="st2" d="M110.9,66L110.9,66c-0.6,0-1.2-0.5-1.2-1.2V48c0-0.6,0.5-1.2,1.2-1.2l0,0c0.6,0,1.2,0.5,1.2,1.2v16.9
		C112.1,65.5,111.5,66,110.9,66z"/>
	<path class="st2" d="M114.7,66L114.7,66c-0.6,0-1.2-0.5-1.2-1.2V48c0-0.6,0.5-1.2,1.2-1.2l0,0c0.6,0,1.2,0.5,1.2,1.2v16.9
		C115.9,65.5,115.4,66,114.7,66z"/>
	<path class="st2" d="M128.2,27.1l-12,6.9c-0.5,0.3-1.3,0.1-1.6-0.4v0c-0.3-0.5-0.1-1.3,0.4-1.6l12-6.9c0.5-0.3,1.3-0.1,1.6,0.4v0
		C129,26,128.8,26.8,128.2,27.1z"/>
	<path class="st2" d="M97.4,27.1l12,6.9c0.5,0.3,1.3,0.1,1.6-0.4v0c0.3-0.5,0.1-1.3-0.4-1.6l-12-6.9c-0.5-0.3-1.3-0.1-1.6,0.4v0
		C96.7,26,96.9,26.8,97.4,27.1z"/>
</g>
<g>
	<circle class="st2" cx="80.8" cy="14.6" r="4.6"/>
	<line class="st3" x1="80.8" y1="19.2" x2="80.8" y2="35.3"/>
	<path class="st2" d="M78.9,53L78.9,53c-0.6,0-1.2-0.5-1.2-1.2V35c0-0.6,0.5-1.2,1.2-1.2l0,0c0.6,0,1.2,0.5,1.2,1.2v16.9
		C80.1,52.5,79.5,53,78.9,53z"/>
	<path class="st2" d="M82.7,53L82.7,53c-0.6,0-1.2-0.5-1.2-1.2V35c0-0.6,0.5-1.2,1.2-1.2l0,0c0.6,0,1.2,0.5,1.2,1.2v16.9
		C83.9,52.5,83.4,53,82.7,53z"/>
	<path class="st2" d="M96.2,14.1l-12,6.9c-0.5,0.3-1.3,0.1-1.6-0.4v0c-0.3-0.5-0.1-1.3,0.4-1.6l12-6.9c0.5-0.3,1.3-0.1,1.6,0.4v0
		C97,13,96.8,13.8,96.2,14.1z"/>
	<path class="st2" d="M65.4,14.1l12,6.9c0.5,0.3,1.3,0.1,1.6-0.4v0c0.3-0.5,0.1-1.3-0.4-1.6l-12-6.9c-0.5-0.3-1.3-0.1-1.6,0.4v0
		C64.7,13,64.9,13.8,65.4,14.1z"/>
</g>
<g>
	<ellipse class="st2" cx="68" cy="74.3" rx="2.3" ry="1.4"/>
	<ellipse class="st2" cx="70.7" cy="75.4" rx="2.3" ry="1.4"/>
	<ellipse class="st2" cx="75.3" cy="75.4" rx="2.3" ry="1.4"/>
	<ellipse class="st2" cx="77.9" cy="74.3" rx="2.3" ry="1.4"/>
	<ellipse class="st2" cx="73.1" cy="76.6" rx="2.3" ry="1.4"/>
	<path class="st2" d="M81.4,57.7C81.4,57.7,81.4,57.7,81.4,57.7C81.4,57.7,81.4,57.6,81.4,57.7c0-0.1,0-0.1-0.1-0.1
		c0-0.1-0.2-0.1-0.2,0c0,0.2-0.1,0.4-0.3,0.6c0,0-0.1,0-0.1,0.1c-1,0.8-2.1,0.6-3.3,0.9c-0.8,0.2-1.5,0.7-1.9,1.4
		c-0.1,0.1-0.1,0.2-0.2,0.3c-0.5,1-0.4,2.2-0.1,3.2c0,0.1,0.1,0.1,0.1,0.1c-1.5,2.4-2.4,5.1-2.6,8c-0.4-0.2-0.9-0.3-1.4-0.3
		c-1.3,0-2.3,0.6-2.3,1.4c0,0.8,1,1.4,2.3,1.4c0.6,0,1.2-0.1,1.6-0.4c0.4,0.2,1,0.4,1.6,0.4c1.3,0,2.3-0.6,2.3-1.4
		c0-0.8-1-1.4-2.3-1.4c-0.3,0-0.7,0-1,0.1c0.3-2.6,1.2-5,2.4-7.3c0,0,0,0,0.1,0c1.9,0.5,3.9-0.3,4.8-1.9c0.5-0.8,0.8-1.8,1-2.8
		C82,59.2,82,58.3,81.4,57.7z"/>
	<ellipse class="st2" cx="72.9" cy="74.8" rx="2.3" ry="1.4"/>
	<path class="st4" d="M81.5,58.6c0.1-0.1-0.2-0.2-0.2-0.1c-0.5,1.2-1.8,1.9-2.9,2.6c0-0.6,0.2-1.1,0.6-1.6c0.1-0.1-0.1-0.2-0.2-0.1
		c-0.4,0.5-0.6,1.2-0.7,1.8c0,0,0,0,0,0.1c-0.5,0.4-0.9,0.8-1.3,1.3c-0.1-0.7-0.2-1.4-0.1-2.1c0-0.1-0.2-0.2-0.2-0.1
		c-0.1,0.8,0,1.6,0.1,2.3c0,0,0,0.1,0.1,0.1c-0.2,0.3-0.3,0.6-0.5,0.9c-0.1,0.1,0.2,0.2,0.2,0.1c0.1-0.3,0.3-0.6,0.5-0.9
		c0,0,0,0,0.1,0c1,0,1.9-0.3,2.7-0.8c0.1-0.1,0-0.3-0.1-0.2c-0.7,0.5-1.6,0.8-2.5,0.8c0.5-0.6,1.1-1.2,1.8-1.6c0,0,0,0,0.1,0
		c1,0,1.8-0.4,2.4-1.1c0.1-0.1-0.1-0.2-0.2-0.1c-0.4,0.6-1.1,0.9-1.9,1c0.1,0,0.1-0.1,0.2-0.1C80.2,60.2,81,59.6,81.5,58.6z"/>
	<path class="st2" d="M64.6,57.7C64.6,57.7,64.6,57.7,64.6,57.7C64.6,57.7,64.6,57.6,64.6,57.7c0-0.1,0-0.1,0.1-0.1
		c0-0.1,0.2-0.1,0.2,0c0,0.2,0.1,0.4,0.3,0.6c0,0,0.1,0,0.1,0.1c1,0.8,2.1,0.6,3.3,0.9c0.8,0.2,1.5,0.7,1.9,1.4
		c0.1,0.1,0.1,0.2,0.2,0.3c0.5,1,0.4,2.2,0.1,3.2c0,0.1-0.1,0.1-0.1,0.1c1.5,2.4,2.4,5.1,2.6,8c0.4-0.2,0.9-0.3,1.4-0.3
		c1.3,0,2.3,0.6,2.3,1.4c0,0.8-1,1.4-2.3,1.4c-0.6,0-1.2-0.1-1.6-0.4c-0.4,0.2-1,0.4-1.6,0.4c-1.3,0-2.3-0.6-2.3-1.4
		c0-0.8,1-1.4,2.3-1.4c0.3,0,0.7,0,1,0.1c-0.3-2.6-1.2-5-2.4-7.3c0,0,0,0-0.1,0c-1.9,0.5-3.9-0.3-4.8-1.9c-0.5-0.8-0.8-1.8-1-2.8
		C63.9,59.2,64,58.3,64.6,57.7z"/>
	<path class="st4" d="M64.5,58.6c-0.1-0.1,0.2-0.2,0.2-0.1c0.5,1.2,1.8,1.9,2.9,2.6c0-0.6-0.2-1.1-0.6-1.6c-0.1-0.1,0.1-0.2,0.2-0.1
		c0.4,0.5,0.6,1.2,0.7,1.8c0,0,0,0,0,0.1c0.5,0.4,0.9,0.8,1.3,1.3c0.1-0.7,0.2-1.4,0.1-2.1c0-0.1,0.2-0.2,0.2-0.1
		c0.1,0.8,0,1.6-0.1,2.3c0,0,0,0.1-0.1,0.1c0.2,0.3,0.3,0.6,0.5,0.9c0.1,0.1-0.2,0.2-0.2,0.1c-0.1-0.3-0.3-0.6-0.5-0.9
		c0,0,0,0-0.1,0c-1,0-1.9-0.3-2.7-0.8c-0.1-0.1,0-0.3,0.1-0.2c0.7,0.5,1.6,0.8,2.5,0.8c-0.5-0.6-1.1-1.2-1.8-1.6c0,0,0,0-0.1,0
		c-1,0-1.8-0.4-2.4-1.1c-0.1-0.1,0.1-0.2,0.2-0.1c0.4,0.6,1.1,0.9,1.9,1c-0.1,0-0.1-0.1-0.2-0.1C65.8,60.2,64.9,59.6,64.5,58.6z"/>
</g>
<g>
	<ellipse class="st2" cx="76" cy="72.3" rx="2.3" ry="1.4"/>
	<ellipse class="st2" cx="78.7" cy="73.4" rx="2.3" ry="1.4"/>
	<ellipse class="st2" cx="83.3" cy="73.4" rx="2.3" ry="1.4"/>
	<ellipse class="st2" cx="85.9" cy="72.3" rx="2.3" ry="1.4"/>
	<ellipse class="st2" cx="81.1" cy="74.6" rx="2.3" ry="1.4"/>
	<path class="st2" d="M89.4,55.7C89.4,55.7,89.4,55.7,89.4,55.7C89.4,55.7,89.4,55.6,89.4,55.7c0-0.1,0-0.1-0.1-0.1
		c0-0.1-0.2-0.1-0.2,0c0,0.2-0.1,0.4-0.3,0.6c0,0-0.1,0-0.1,0.1c-1,0.8-2.1,0.6-3.3,0.9c-0.8,0.2-1.5,0.7-1.9,1.4
		c-0.1,0.1-0.1,0.2-0.2,0.3c-0.5,1-0.4,2.2-0.1,3.2c0,0.1,0.1,0.1,0.1,0.1c-1.5,2.4-2.4,5.1-2.6,8c-0.4-0.2-0.9-0.3-1.4-0.3
		c-1.3,0-2.3,0.6-2.3,1.4c0,0.8,1,1.4,2.3,1.4c0.6,0,1.2-0.1,1.6-0.4c0.4,0.2,1,0.4,1.6,0.4c1.3,0,2.3-0.6,2.3-1.4
		c0-0.8-1-1.4-2.3-1.4c-0.3,0-0.7,0-1,0.1c0.3-2.6,1.2-5,2.4-7.3c0,0,0,0,0.1,0c1.9,0.5,3.9-0.3,4.8-1.9c0.5-0.8,0.8-1.8,1-2.8
		C90,57.2,90,56.3,89.4,55.7z"/>
	<ellipse class="st2" cx="80.9" cy="72.8" rx="2.3" ry="1.4"/>
	<path class="st4" d="M89.5,56.6c0.1-0.1-0.2-0.2-0.2-0.1c-0.5,1.2-1.8,1.9-2.9,2.6c0-0.6,0.2-1.1,0.6-1.6c0.1-0.1-0.1-0.2-0.2-0.1
		c-0.4,0.5-0.6,1.2-0.7,1.8c0,0,0,0,0,0.1c-0.5,0.4-0.9,0.8-1.3,1.3c-0.1-0.7-0.2-1.4-0.1-2.1c0-0.1-0.2-0.2-0.2-0.1
		c-0.1,0.8,0,1.6,0.1,2.3c0,0,0,0.1,0.1,0.1c-0.2,0.3-0.3,0.6-0.5,0.9c-0.1,0.1,0.2,0.2,0.2,0.1c0.1-0.3,0.3-0.6,0.5-0.9
		c0,0,0,0,0.1,0c1,0,1.9-0.3,2.7-0.8c0.1-0.1,0-0.3-0.1-0.2c-0.7,0.5-1.6,0.8-2.5,0.8c0.5-0.6,1.1-1.2,1.8-1.6c0,0,0,0,0.1,0
		c1,0,1.8-0.4,2.4-1.1c0.1-0.1-0.1-0.2-0.2-0.1c-0.4,0.6-1.1,0.9-1.9,1c0.1,0,0.1-0.1,0.2-0.1C88.2,58.2,89,57.6,89.5,56.6z"/>
	<path class="st2" d="M72.6,55.7C72.6,55.7,72.6,55.7,72.6,55.7C72.6,55.7,72.6,55.6,72.6,55.7c0-0.1,0-0.1,0.1-0.1
		c0-0.1,0.2-0.1,0.2,0c0,0.2,0.1,0.4,0.3,0.6c0,0,0.1,0,0.1,0.1c1,0.8,2.1,0.6,3.3,0.9c0.8,0.2,1.5,0.7,1.9,1.4
		c0.1,0.1,0.1,0.2,0.2,0.3c0.5,1,0.4,2.2,0.1,3.2c0,0.1-0.1,0.1-0.1,0.1c1.5,2.4,2.4,5.1,2.6,8c0.4-0.2,0.9-0.3,1.4-0.3
		c1.3,0,2.3,0.6,2.3,1.4c0,0.8-1,1.4-2.3,1.4c-0.6,0-1.2-0.1-1.6-0.4c-0.4,0.2-1,0.4-1.6,0.4c-1.3,0-2.3-0.6-2.3-1.4
		c0-0.8,1-1.4,2.3-1.4c0.3,0,0.7,0,1,0.1c-0.3-2.6-1.2-5-2.4-7.3c0,0,0,0-0.1,0c-1.9,0.5-3.9-0.3-4.8-1.9c-0.5-0.8-0.8-1.8-1-2.8
		C71.9,57.2,72,56.3,72.6,55.7z"/>
	<path class="st4" d="M72.5,56.6c-0.1-0.1,0.2-0.2,0.2-0.1c0.5,1.2,1.8,1.9,2.9,2.6c0-0.6-0.2-1.1-0.6-1.6c-0.1-0.1,0.1-0.2,0.2-0.1
		c0.4,0.5,0.6,1.2,0.7,1.8c0,0,0,0,0,0.1c0.5,0.4,0.9,0.8,1.3,1.3c0.1-0.7,0.2-1.4,0.1-2.1c0-0.1,0.2-0.2,0.2-0.1
		c0.1,0.8,0,1.6-0.1,2.3c0,0,0,0.1-0.1,0.1c0.2,0.3,0.3,0.6,0.5,0.9c0.1,0.1-0.2,0.2-0.2,0.1c-0.1-0.3-0.3-0.6-0.5-0.9
		c0,0,0,0-0.1,0c-1,0-1.9-0.3-2.7-0.8c-0.1-0.1,0-0.3,0.1-0.2c0.7,0.5,1.6,0.8,2.5,0.8c-0.5-0.6-1.1-1.2-1.8-1.6c0,0,0,0-0.1,0
		c-1,0-1.8-0.4-2.4-1.1c-0.1-0.1,0.1-0.2,0.2-0.1c0.4,0.6,1.1,0.9,1.9,1c-0.1,0-0.1-0.1-0.2-0.1C73.8,58.2,72.9,57.6,72.5,56.6z"/>
</g>
<g>
	<ellipse class="st2" cx="84" cy="74.3" rx="2.3" ry="1.4"/>
	<ellipse class="st2" cx="86.7" cy="75.4" rx="2.3" ry="1.4"/>
	<ellipse class="st2" cx="91.3" cy="75.4" rx="2.3" ry="1.4"/>
	<ellipse class="st2" cx="93.9" cy="74.3" rx="2.3" ry="1.4"/>
	<ellipse class="st2" cx="89.1" cy="76.6" rx="2.3" ry="1.4"/>
	<path class="st2" d="M97.4,57.7C97.4,57.7,97.4,57.7,97.4,57.7C97.4,57.7,97.4,57.6,97.4,57.7c0-0.1,0-0.1-0.1-0.1
		c0-0.1-0.2-0.1-0.2,0c0,0.2-0.1,0.4-0.3,0.6c0,0-0.1,0-0.1,0.1c-1,0.8-2.1,0.6-3.3,0.9c-0.8,0.2-1.5,0.7-1.9,1.4
		c-0.1,0.1-0.1,0.2-0.2,0.3c-0.5,1-0.4,2.2-0.1,3.2c0,0.1,0.1,0.1,0.1,0.1c-1.5,2.4-2.4,5.1-2.6,8c-0.4-0.2-0.9-0.3-1.4-0.3
		c-1.3,0-2.3,0.6-2.3,1.4c0,0.8,1,1.4,2.3,1.4c0.6,0,1.2-0.1,1.6-0.4c0.4,0.2,1,0.4,1.6,0.4c1.3,0,2.3-0.6,2.3-1.4
		c0-0.8-1-1.4-2.3-1.4c-0.3,0-0.7,0-1,0.1c0.3-2.6,1.2-5,2.4-7.3c0,0,0,0,0.1,0c1.9,0.5,3.9-0.3,4.8-1.9c0.5-0.8,0.8-1.8,1-2.8
		C98,59.2,98,58.3,97.4,57.7z"/>
	<ellipse class="st2" cx="88.9" cy="74.8" rx="2.3" ry="1.4"/>
	<path class="st4" d="M97.5,58.6c0.1-0.1-0.2-0.2-0.2-0.1c-0.5,1.2-1.8,1.9-2.9,2.6c0-0.6,0.2-1.1,0.6-1.6c0.1-0.1-0.1-0.2-0.2-0.1
		c-0.4,0.5-0.6,1.2-0.7,1.8c0,0,0,0,0,0.1c-0.5,0.4-0.9,0.8-1.3,1.3c-0.1-0.7-0.2-1.4-0.1-2.1c0-0.1-0.2-0.2-0.2-0.1
		c-0.1,0.8,0,1.6,0.1,2.3c0,0,0,0.1,0.1,0.1c-0.2,0.3-0.3,0.6-0.5,0.9c-0.1,0.1,0.2,0.2,0.2,0.1c0.1-0.3,0.3-0.6,0.5-0.9
		c0,0,0,0,0.1,0c1,0,1.9-0.3,2.7-0.8c0.1-0.1,0-0.3-0.1-0.2c-0.7,0.5-1.6,0.8-2.5,0.8c0.5-0.6,1.1-1.2,1.8-1.6c0,0,0,0,0.1,0
		c1,0,1.8-0.4,2.4-1.1c0.1-0.1-0.1-0.2-0.2-0.1c-0.4,0.6-1.1,0.9-1.9,1c0.1,0,0.1-0.1,0.2-0.1C96.2,60.2,97,59.6,97.5,58.6z"/>
	<path class="st2" d="M80.6,57.7C80.6,57.7,80.6,57.7,80.6,57.7C80.6,57.7,80.6,57.6,80.6,57.7c0-0.1,0-0.1,0.1-0.1
		c0-0.1,0.2-0.1,0.2,0c0,0.2,0.1,0.4,0.3,0.6c0,0,0.1,0,0.1,0.1c1,0.8,2.1,0.6,3.3,0.9c0.8,0.2,1.5,0.7,1.9,1.4
		c0.1,0.1,0.1,0.2,0.2,0.3c0.5,1,0.4,2.2,0.1,3.2c0,0.1-0.1,0.1-0.1,0.1c1.5,2.4,2.4,5.1,2.6,8c0.4-0.2,0.9-0.3,1.4-0.3
		c1.3,0,2.3,0.6,2.3,1.4c0,0.8-1,1.4-2.3,1.4c-0.6,0-1.2-0.1-1.6-0.4c-0.4,0.2-1,0.4-1.6,0.4c-1.3,0-2.3-0.6-2.3-1.4
		c0-0.8,1-1.4,2.3-1.4c0.3,0,0.7,0,1,0.1c-0.3-2.6-1.2-5-2.4-7.3c0,0,0,0-0.1,0c-1.9,0.5-3.9-0.3-4.8-1.9c-0.5-0.8-0.8-1.8-1-2.8
		C79.9,59.2,80,58.3,80.6,57.7z"/>
	<path class="st4" d="M80.5,58.6c-0.1-0.1,0.2-0.2,0.2-0.1c0.5,1.2,1.8,1.9,2.9,2.6c0-0.6-0.2-1.1-0.6-1.6c-0.1-0.1,0.1-0.2,0.2-0.1
		c0.4,0.5,0.6,1.2,0.7,1.8c0,0,0,0,0,0.1c0.5,0.4,0.9,0.8,1.3,1.3c0.1-0.7,0.2-1.4,0.1-2.1c0-0.1,0.2-0.2,0.2-0.1
		c0.1,0.8,0,1.6-0.1,2.3c0,0,0,0.1-0.1,0.1c0.2,0.3,0.3,0.6,0.5,0.9c0.1,0.1-0.2,0.2-0.2,0.1c-0.1-0.3-0.3-0.6-0.5-0.9
		c0,0,0,0-0.1,0c-1,0-1.9-0.3-2.7-0.8c-0.1-0.1,0-0.3,0.1-0.2c0.7,0.5,1.6,0.8,2.5,0.8c-0.5-0.6-1.1-1.2-1.8-1.6c0,0,0,0-0.1,0
		c-1,0-1.8-0.4-2.4-1.1c-0.1-0.1,0.1-0.2,0.2-0.1c0.4,0.6,1.1,0.9,1.9,1c-0.1,0-0.1-0.1-0.2-0.1C81.8,60.2,80.9,59.6,80.5,58.6z"/>
</g>
</svg>
