<?xml version="1.0" encoding="utf-8"?>
<!-- Generator: Adobe Illustrator 21.1.0, SVG Export Plug-In . SVG Version: 6.00 Build 0)  -->
<svg version="1.1" xmlns="http://www.w3.org/2000/svg" xmlns:xlink="http://www.w3.org/1999/xlink" x="0px" y="0px"
	 viewBox="0 0 162 162" style="enable-background:new 0 0 162 162;" xml:space="preserve">
<style type="text/css">
	.st0{fill:#102773;}
	.st1{fill:none;stroke:#102773;stroke-width:0.9839;stroke-miterlimit:10;}
	.st2{fill:none;stroke:#102773;stroke-width:1.2697;stroke-miterlimit:10;}
	.st3{fill:none;stroke:#102773;stroke-width:1.0387;stroke-miterlimit:10;}
	.st4{fill:#FFFFFF;}
	.st5{font-family:'ArialMT';}
	.st6{font-size:6px;}
	.st7{fill:none;stroke:#102773;stroke-width:0.8;stroke-miterlimit:10;}
	.st8{font-size:5px;}
</style>
<g id="Layer_1">
	<g>
		<path class="st0" d="M52.5,93.1c-3.1-8-12.7-11.4-21.5-7.9l0,0c-0.1,0-0.2,0.1-0.3,0.1c-0.1,0-0.2,0.1-0.2,0.1l0,0
			c-8.6,4-13,13.6-9.9,21.6c3.1,8,12.6,11.5,21.4,8.1c0,0,0,0,0,0c-0.2,0.2-0.2,0.5,0,0.7c0.2,0.2,0.4,0.2,0.6,0
			c0.2-0.3,0.4-0.6,0.5-0.9h1.4c0.5,0,0.5-0.9,0-0.9H44C51.7,109.6,55.5,100.7,52.5,93.1z"/>
		<path class="st0" d="M32.3,82.2c-1-1.5-5.1-2.8-7.5-3.3c-2.5-0.4-6.4-0.6-6.3,1c0.1,1.6,4.2,4.3,7.6,5.1
			C30.5,86.1,33.5,84,32.3,82.2z"/>
		<path class="st0" d="M31.9,84.6c1.6-0.7,3.6-4.7,4.5-7.1c0.9-2.4,1.8-6.5,0.3-6.6c-1.5-0.1-4.9,3.5-6.3,6.9
			C28.6,81.9,30,85.5,31.9,84.6z"/>
	</g>
	<g>
		<path class="st0" d="M73.7,83.6c-3.1-8-12.7-11.4-21.5-7.9l0,0c-0.1,0-0.2,0.1-0.3,0.1c-0.1,0-0.2,0.1-0.2,0.1l0,0
			c-8.6,4-13,13.6-9.9,21.6c3.1,8,12.6,11.5,21.4,8.1c0,0,0,0,0,0c-0.2,0.2-0.2,0.5,0,0.7c0.2,0.2,0.4,0.2,0.6,0
			c0.2-0.3,0.4-0.6,0.5-0.9h1.4c0.5,0,0.5-0.9,0-0.9h-0.5C72.9,100.1,76.7,91.2,73.7,83.6z"/>
		<path class="st0" d="M53.5,72.7c-1-1.5-5.1-2.8-7.5-3.3c-2.5-0.4-6.4-0.6-6.3,1c0.1,1.6,4.2,4.3,7.6,5.1
			C51.7,76.6,54.7,74.5,53.5,72.7z"/>
		<path class="st0" d="M53.1,75.1c1.6-0.7,3.6-4.7,4.5-7.1c0.9-2.4,1.8-6.5,0.3-6.6c-1.5-0.1-4.9,3.5-6.3,6.9
			C49.8,72.4,51.2,75.9,53.1,75.1z"/>
	</g>
	<g>
		<path class="st0" d="M93.9,74.1c-3.1-8-12.7-11.4-21.5-7.9l0,0c-0.1,0-0.2,0.1-0.3,0.1c-0.1,0-0.2,0.1-0.2,0.1l0,0
			c-8.6,4-13,13.6-9.9,21.6c3.1,8,12.6,11.5,21.4,8.1c0,0,0,0,0,0c-0.2,0.2-0.2,0.5,0,0.7c0.2,0.2,0.4,0.2,0.6,0
			c0.2-0.3,0.4-0.6,0.5-0.9h1.4c0.5,0,0.5-0.9,0-0.9h-0.5C93,90.6,96.8,81.7,93.9,74.1z"/>
		<path class="st0" d="M73.7,63.2c-1-1.5-5.1-2.8-7.5-3.3c-2.5-0.4-6.4-0.6-6.3,1c0.1,1.6,4.2,4.3,7.6,5.1
			C71.8,67.1,74.8,65,73.7,63.2z"/>
		<path class="st0" d="M73.3,65.6c1.6-0.7,3.6-4.7,4.5-7.1c0.9-2.4,1.8-6.5,0.3-6.6c-1.5-0.1-4.9,3.5-6.3,6.9
			C70,62.9,71.4,66.4,73.3,65.6z"/>
	</g>
	<g>
		<path class="st0" d="M115.1,64.6c-3.1-8-12.7-11.4-21.5-7.9l0,0c-0.1,0-0.2,0.1-0.3,0.1c-0.1,0-0.2,0.1-0.2,0.1l0,0
			c-8.6,4-13,13.6-9.9,21.6c3.1,8,12.6,11.5,21.4,8.1c0,0,0,0,0,0c-0.2,0.2-0.2,0.5,0,0.7c0.2,0.2,0.4,0.2,0.6,0
			c0.2-0.3,0.4-0.6,0.5-0.9h1.4c0.5,0,0.5-0.9,0-0.9h-0.5C114.2,81.1,118,72.1,115.1,64.6z"/>
		<path class="st0" d="M94.9,53.7c-1-1.5-5.1-2.8-7.5-3.3c-2.5-0.4-6.4-0.6-6.3,1c0.1,1.6,4.2,4.3,7.6,5.1
			C93,57.5,96,55.4,94.9,53.7z"/>
		<path class="st0" d="M94.5,56c1.6-0.7,3.6-4.7,4.5-7.1c0.9-2.4,1.8-6.5,0.3-6.6c-1.5-0.1-4.9,3.5-6.3,6.9
			C91.2,53.4,92.6,56.9,94.5,56z"/>
	</g>
	<path class="st1" d="M117,88.2l-83.3,38.6c-6.5,3-13.9-0.5-16.6-7.7L7.8,93.8c-2.7-7.3,0.4-15.6,6.9-18.6L98,36.5
		c6.5-3,13.9,0.5,16.6,7.7l9.3,25.3C126.6,76.8,123.5,85.2,117,88.2z"/>
	<path class="st2" d="M149.6,88.3L37.7,141c-6.6,3.1-14.7-1.2-17.8-9.7L6.2,94.8c-3.2-8.4-0.3-17.9,6.3-21l111.9-52.7
		c6.6-3.1,14.7,1.2,17.8,9.7L156,67.3C159.1,75.7,156.3,85.2,149.6,88.3z"/>
	<line class="st3" x1="119.4" y1="45.5" x2="138.6" y2="37.6"/>
	<line class="st3" x1="120.6" y1="48.5" x2="139.9" y2="40.6"/>
	<line class="st3" x1="121.9" y1="51.5" x2="141.1" y2="43.6"/>
	<line class="st3" x1="123.1" y1="54.6" x2="142.4" y2="46.6"/>
	<line class="st3" x1="124.4" y1="57.6" x2="143.6" y2="49.6"/>
	<line class="st3" x1="125.6" y1="60.6" x2="144.8" y2="52.7"/>
	<line class="st3" x1="126.8" y1="63.6" x2="146.1" y2="55.7"/>
	<line class="st3" x1="128.1" y1="66.6" x2="147.3" y2="58.7"/>
	<line class="st3" x1="115.2" y1="36.6" x2="134.4" y2="28.7"/>
	<line class="st3" x1="116.4" y1="39.7" x2="135.7" y2="31.7"/>
	<line class="st3" x1="117.7" y1="42.7" x2="136.9" y2="34.7"/>
	<g>
		<path class="st0" d="M145.3,85.3L145.3,85.3c-2,0.9-4.4,0-5.3-2l-3.3-7.3c-0.9-2,0-4.4,2-5.3v0c2-0.9,4.4,0,5.3,2l3.3,7.3
			C148.2,82,147.3,84.4,145.3,85.3z"/>
		<ellipse transform="matrix(0.9087 -0.4174 0.4174 0.9087 -18.7428 65.7463)" class="st4" cx="141" cy="75.7" rx="3" ry="4.5"/>
	</g>
	<g>
		<path class="st0" d="M153.3,81.3L153.3,81.3c-2,0.9-4.4,0-5.3-2l-3.3-7.3c-0.9-2,0-4.4,2-5.3v0c2-0.9,4.4,0,5.3,2l3.3,7.3
			C156.2,78,155.3,80.4,153.3,81.3z"/>
		<ellipse transform="matrix(0.9087 -0.4174 0.4174 0.9087 -16.343 68.7203)" class="st4" cx="149" cy="71.7" rx="3" ry="4.5"/>
	</g>
	<g>
		<path class="st0" d="M137.3,89.3L137.3,89.3c-2,0.9-4.4,0-5.3-2l-3.3-7.3c-0.9-2,0-4.4,2-5.3v0c2-0.9,4.4,0,5.3,2l3.3,7.3
			C140.2,86,139.3,88.4,137.3,89.3z"/>
		<ellipse transform="matrix(0.9087 -0.4174 0.4174 0.9087 -21.1425 62.7722)" class="st4" cx="133" cy="79.7" rx="3" ry="4.5"/>
	</g>
	<text transform="matrix(0.5506 -0.2208 0.3723 0.9281 131.6359 82.3975)" class="st0 st5 st6">5%</text>
	<text transform="matrix(0.5506 -0.2208 0.3723 0.9281 139.6359 78.3975)" class="st0 st5 st6">8%</text>
	<text transform="matrix(0.4684 -0.1879 0.3723 0.9281 147.6359 75.3974)" class="st0 st5 st6">12%</text>
	<line class="st3" x1="129.1" y1="69.6" x2="148.3" y2="61.7"/>
	<line class="st7" x1="43.5" y1="126.5" x2="105.6" y2="97.8"/>
	<line class="st7" x1="29.4" y1="135.2" x2="106.6" y2="99.8"/>
	<line class="st7" x1="30.4" y1="137.2" x2="107.6" y2="101.8"/>
	<line class="st7" x1="31.4" y1="139.2" x2="87.5" y2="113.5"/>
	<line class="st7" x1="28.5" y1="133.5" x2="39.5" y2="128.5"/>
	<text transform="matrix(0.922 -0.3872 0.3872 0.922 118.0611 32.8195)" class="st0 st5 st8">INFO</text>
</g>
<g id="label">
</g>
</svg>
