<?xml version="1.0" encoding="utf-8"?>
<!-- Generator: Adobe Illustrator 21.1.0, SVG Export Plug-In . SVG Version: 6.00 Build 0)  -->
<svg version="1.1" xmlns="http://www.w3.org/2000/svg" xmlns:xlink="http://www.w3.org/1999/xlink" x="0px" y="0px"
	 viewBox="0 0 162 162" style="enable-background:new 0 0 162 162;" xml:space="preserve">
<style type="text/css">
	.st0{fill:#102773;}
	.st1{fill:#FFFFFF;}
	.st2{fill:none;stroke:#FFFFFF;stroke-width:0.9442;stroke-miterlimit:10;}
</style>
<g id="Layer_1">
	<polygon class="st0" points="67.6,6.9 36.3,76.8 29.2,73.9 60.5,4 	"/>
	<path class="st0" d="M35.6,20.3c-0.5,0.9-1.1,1.7-1.6,2.5c-1.4,2.6-2.6,5.2-4,7.8c0.2,0.3,0.2,0.7,0.2,1c-0.2,1.2-0.3,1.4-0.9,2.4
		c-0.3,0.5-0.7,0.7-1.1,0.8c-1.4,3.1-2,6.4-3.2,9.6c-0.1,0.3-0.3,0.6-0.6,0.8c-2.5,11.6-0.7,21.2,5.2,23.6L57,7.7
		C51.1,5.3,42.6,10.6,35.6,20.3z"/>
	<path class="st0" d="M41.3,35.1c-0.7-2.8-5.3-4.7-11.1-4.9c-0.1,0.2-0.2,0.3-0.3,0.5c0.2,0.3,0.2,0.7,0.2,1
		c-0.2,1.2-0.3,1.4-0.9,2.4c-0.3,0.5-0.7,0.7-1.1,0.8c-1.3,2.9-1.9,6-3,9.1c1,0,2.1-0.1,3.1-0.3C36.4,42.6,42.2,38.7,41.3,35.1z"/>
	<path class="st0" d="M38.4,25.1c-0.7-1.9-1.6-3.6-2.6-5.1c-0.6,1-1.2,2-1.8,2.9c-1.4,2.6-2.6,5.2-4,7.8c0.2,0.3,0.2,0.7,0.2,1
		c-0.2,1.2-0.3,1.4-0.9,2.4c-0.3,0.5-0.7,0.7-1.1,0.8c-0.1,0.1-0.1,0.3-0.2,0.4c2.6,3.2,5.6,5,8.1,4.4C40,38.8,41,32.3,38.4,25.1z"
		/>
	<path class="st1" d="M30,32c-0.2,0.9-0.3,1.1-0.8,2c-0.3,0.5-0.7,0.7-1.1,0.8c-1,2.2-1.6,4.5-2.3,6.8c2.7,0.4,6,0.3,9.4-0.1
		l-2.6-10C31.8,31.7,30.9,31.9,30,32z"/>
	<path class="st1" d="M35.1,23.2c-0.2,0.3-0.4,0.6-0.5,0.8c-1.3,2.3-2.3,4.6-3.6,6.9c0,0.1,0,0.1,0.1,0.2l7.2-1.9
		C37.4,26.9,36.2,24.9,35.1,23.2z"/>
	<path class="st0" d="M40.8,29.1c-0.9,1.8-1.7,3.7-2.5,5.6c-0.3-0.2-0.7-0.4-1-0.6c0.7-1.7,1.4-3.4,2.1-5.1c0.2-0.4-0.4-0.8-0.8-0.6
		c0.2-0.4,0.3-0.7,0.5-1.1c0.1-0.3-0.1-0.5-0.4-0.6c-0.2-0.2-0.6-0.3-0.8,0c0.1-0.3,0.1-0.5,0.2-0.8c0.1-0.4-0.4-0.6-0.7-0.5l0-0.1
		c0.1-0.3-0.1-0.5-0.3-0.6c-0.2-0.1-0.5-0.2-0.7,0.1c-0.2,0.2-0.3,0.4-0.5,0.6h0c0,0,0,0,0,0c0,0,0-0.1,0.1-0.1
		c0.5-0.8,1.1-1.6,1.7-2.4c0,0,0-0.1,0.1-0.1c0.2,0,0.3,0,0.5,0.1c0.7,0.2,1.1-0.7,0.4-0.9c-0.7-0.2-1.4-0.2-1.9,0.1
		c0.7-0.8,1.4-1.7,2.2-2.4c0.4-0.4-0.4-1.1-0.9-0.6C37,20,36,21.2,35,22.4c-0.1-0.3-0.2-0.5-0.3-0.8c-0.3,0.4-0.5,0.8-0.8,1.3
		c-0.3,0.6-0.6,1.1-0.9,1.7c0,0,0,0,0,0.1c0,0.3-0.1,0.6-0.1,0.9c-0.8,1.3-1.4,2.6-2.1,3.9c-0.1,0-0.2-0.1-0.3-0.1
		c-0.2,0.4-0.5,0.9-0.7,1.3c0.2,0.3,0.2,0.7,0.2,1c-0.2,1.2-0.3,1.4-0.9,2.4c-0.1,0.2-0.2,0.3-0.4,0.5c0,0.1,0,0.1,0,0.2
		c-0.2,0.7-0.5,1.3-0.7,2c-0.3,0.7-0.8,1.4-1.4,2c-0.4,1.2-0.7,2.4-1.1,3.6c0.1,0.3,0.5,0.5,0.8,0.4c0,0.1,0.1,0.1,0.2,0.2
		c0,0.3,0.4,0.6,0.7,0.5c0,0,0,0,0,0.1c-0.1,0.6,1,0.8,1.1,0.2c0,0,0,0,0-0.1c0.2,0.2,0.6,0.2,0.8-0.1c0-0.1,0.1-0.1,0.1-0.2
		c0.2,0.1,0.5,0,0.7-0.2c0,0,0-0.1,0.1-0.1c0.2,0.4,0.8,0.6,1,0.1c0-0.1,0-0.1,0.1-0.2c0.2,0.6,0.4,1.1,0.6,1.7
		c-0.1,0.2-0.2,0.5-0.3,0.7c-0.2,0.4,0.4,0.8,0.8,0.6c0.2,0.4,0.3,0.8,0.5,1.2c0.2,0.4,0.7,0.4,0.9,0.2c0.6-0.6,1-1.3,1.2-2.1
		c0.1-0.1,0.1-0.2,0.2-0.2c-0.4,1.4-0.7,2.8-1,4.1c-0.1,0.6,0.9,0.8,1.1,0.2c0.5-2.6,1.2-5.2,2-7.7c0.2,0.1,0.5,0.1,0.6-0.2
		c0,0,0-0.1,0-0.1c0,0,0,0,0,0c0,0,0-0.1,0-0.1c0.1-0.5,0.3-1.1,0.3-1.6c0-0.2,0.1-0.3,0.1-0.5c0.1-0.2,0.2-0.3,0.2-0.5
		c0.4-0.6,0.7-1.3,1-2c0.1,2.4,0.3,4.8,0.6,7.2c0.1,0.4,0.8,0.5,0.8,0c0.1-2.2,0.8-5.7-0.6-7.8c0-0.2,0-0.4,0-0.5
		c0.3,0.3,1.1,0.2,0.9-0.3c-0.2-0.8-0.4-1.6-0.5-2.3c0.4-1.2,0.9-2.3,1.3-3.4C42,29,41.1,28.6,40.8,29.1z M33.9,32.3
		c-0.2-0.1-0.4-0.2-0.6-0.3c0,0,0-0.1,0-0.1c0.1-0.2,0.1-0.3,0.2-0.5c0.1-0.3-0.1-0.5-0.3-0.6c0.3,0,0.5,0,0.8,0
		c0.3,0,0.4-0.2,0.4-0.4c0,0,0,0,0.1,0C34.3,31.1,34.1,31.7,33.9,32.3z M35.3,32.7c0,0.1-0.1,0.2-0.1,0.3c-0.1-0.1-0.2-0.1-0.3-0.2
		c0.3-1,0.6-2,0.9-2.9c0.2,0.2,0.4,0.3,0.7,0.2c0.1,0.1,0.2,0.1,0.3,0.1c-0.3,0.8-0.6,1.5-0.8,2.3C35.7,32.5,35.4,32.5,35.3,32.7z
		 M37.5,36.9c-0.1,0-0.2,0.1-0.3,0.2c0.1-0.3,0.1-0.5,0.2-0.8c0.1-0.4-0.4-0.7-0.7-0.7c0.1-0.3,0.2-0.5,0.3-0.8
		c0.3,0.2,0.7,0.4,1,0.6C37.8,35.9,37.6,36.4,37.5,36.9z"/>
	<g>
		<g>
			<path class="st0" d="M107.6,76.8H36.2c0,0,2.4,80.2,5.6,80.2h65.1c3.2,0,5.6-80.2,5.6-80.2H40.9"/>
		</g>
		<line class="st2" x1="43.6" y1="84.8" x2="46.6" y2="150.4"/>
		<line class="st2" x1="50.3" y1="84.8" x2="53.3" y2="150.4"/>
		<line class="st2" x1="104.9" y1="84.8" x2="101.9" y2="150.4"/>
		<line class="st2" x1="98.1" y1="84.8" x2="95.1" y2="150.4"/>
		<line class="st2" x1="75" y1="85.9" x2="75" y2="149.2"/>
		<line class="st2" x1="66.8" y1="86.5" x2="66.8" y2="149.8"/>
		<line class="st2" x1="83.2" y1="86.5" x2="83.2" y2="149.8"/>
		<line class="st2" x1="57.8" y1="85.9" x2="60.1" y2="149.2"/>
		<line class="st2" x1="91.4" y1="85.9" x2="88.4" y2="149.2"/>
	</g>
	<path class="st0" d="M77,72.1c-8-3.2-12.2-11.2-9.3-17.9s11.8-9.6,19.8-6.4"/>
	<path class="st0" d="M76.6,71.7c8,3.2,16.9,0.3,19.7-6.4c2.9-6.7-1.3-14.7-9.3-17.8"/>
	<path class="st0" d="M86.3,45.3c0.9-1.3,4.6-2.3,6.7-2.7c2.2-0.4,5.7-0.5,5.6,0.8c-0.1,1.3-3.8,3.5-6.8,4.2
		C88,48.5,85.3,46.8,86.3,45.3z"/>
	<path class="st0" d="M86.7,47.3c-1.5-0.6-3.2-3.9-4-5.8c-0.8-2-1.6-5.3-0.2-5.4c1.3-0.1,4.4,2.9,5.6,5.6
		C89.6,45.1,88.4,48,86.7,47.3z"/>
	<path class="st0" d="M72.3,23.9c1.2,1.2,2.7,1.5,4.2,1.4c0.1,0.6,0.6,1.2,1.5,1.3c1.3,0.2,2.5,0.2,3.8,0.1c0.3,0.5,0.9,1,1.8,1
		c3.7,0,7.2-0.8,10.5-2.2c2.2,0.9,4.4,1.9,6.5,3c4.1,2.2,7.7,5.2,12.1,6.7c3.8,1.3,7.8,0.9,11.7,0.2c5.1-0.9,10.2-1.9,15.3-2.8
		c1.6-0.3,1.9-1.8,1.3-2.7c0.2-0.3,0.4-0.6,0.3-1.1c-0.2-3-0.3-6-0.5-9.1c-0.1-1.6-2.3-1.8-3.3-0.9c-4.1,3.8-10.5,4.1-15.9,2.8
		c-6.3-1.5-11.2-5.8-17.4-7.2c-5.2-1.2-10.9,0.2-15.9,1.5c-2.8,0.8-5.6,1.7-8.4,2.6c-2.5,0.8-5.1,1.6-7.1,3.2
		C72,22.1,71.5,23.1,72.3,23.9z"/>
	<path class="st0" d="M71.6,22.9c-0.1,2.3,1.8,3,4.4,2.9c0,0.1,0.1,0.1,0.1,0.2c1.3,1.5,3.1,1.6,5,1.3c0.1,0,0.2,0,0.3,0
		c0,0.1,0.1,0.2,0.2,0.3c1.5,1.1,3.3,0.9,5.1,0.6c2.2-0.3,4.4-0.8,6.6-1.4c0.2-0.1,0.3-0.2,0.4-0.3c3.1,1.3,6.3,2.3,9.2,3.9
		c2.9,1.6,5.5,3.7,8.6,5c6.5,2.6,14,0.2,20.6-1.1c0.1,0,0.2,0,0.3,0c2.9-0.8,6.1-0.8,9.1-1.2c0.5-0.1,0.6-0.5,0.5-0.8
		c0-0.1,0-0.1,0-0.2c-0.6-4.8-1-9.6-1.1-14.5c0-0.5-0.7-0.6-1.1-0.3c-0.1,0-0.1,0-0.2,0c-4,1.4-7.8,3.8-12.2,4.3
		c-4.9,0.5-9.5-1.6-13.6-3.7c-3.5-1.8-7.1-3.8-11.1-4.5c-3.7-0.7-7.4,0-11.1,0.8c-4.4,1-8.7,2.4-12.9,4
		C76.5,19.1,71.7,20.3,71.6,22.9z M77.5,25.7c4.1-0.5,9.2-2.3,10.6-2.8c0.1,0,0.1-0.1,0.1-0.1c0.3,0.6,0.8,1.1,1.4,1.6
		c-2,0.5-4.1,1-6.2,1.4C81.7,26.1,79,26.9,77.5,25.7z M90.7,20.4c1,0.3,4.3,1.4,3.7,2.1c-0.5,0.6-1.8,0.3-3-0.1
		c-0.8-0.1-1.8-0.6-1.7-1.4c0-0.3,0.3-0.6,0.6-0.6C90.5,20.4,90.6,20.4,90.7,20.4C90.7,20.4,90.7,20.4,90.7,20.4z M87.9,26.8
		c-1.5,0.2-3.4,0.7-4.9,0.1c2.4-0.4,4.7-1,7-1.6c0.3-0.1,0.4-0.3,0.4-0.5c0.3,0.2,0.7,0.4,1,0.5c0.3,0.1,0.5,0.3,0.8,0.4
		C90.9,26.3,89.4,26.6,87.9,26.8z M75.6,20.7c0.1-0.1,0.3-0.1,0.4-0.2c0.8-0.4,1.7-0.7,2.5-1c1.5-0.6,3-1.1,4.6-1.7
		c7.2-2.4,15.3-5,22.8-2.3c5.9,2.2,11,6.2,17.4,7.1c6,0.9,11-2.1,16.3-4.1c0.2,4.5,0.6,9,1.1,13.5c-2.8,0.3-5.6,0.4-8.3,1
		c-0.1,0-0.1,0-0.2,0c-5.1,1-11,2.8-16.2,2.3c-5.6-0.6-9.7-4.7-14.4-7c-2.5-1.2-5.1-2.1-7.6-3.1c-0.9-0.4-2.6-0.9-3.2-1.6
		c0-0.2-0.1-0.3-0.1-0.5c0.8,0.3,1.6,0.6,2.4,0.7c0.9,0.1,2.3-0.2,2.7-1c0.9-1.6-2.4-2.8-4.1-3.4c0.4-0.1,0.9-0.1,1.6,0
		c1,0.2,2.1,0.5,3,0.8c4.5,1.6,8.2,4.1,13.1,5c0.8,0.1,1-1,0.2-1.1c-4-0.7-7.2-2.4-10.7-4.1c-2.3-1.1-5.6-2.4-8.3-1.8
		c-1.7,0.4-2.8,1.6-2.7,3.2c0,0.1,0,0.2,0,0.3c-0.1,0-0.2,0-0.3,0c-2.7,1-6.6,2.6-9.7,2.7c0,0.1-0.1,0.1-0.2,0.1
		c-1.2,0-2.6,0.4-3.7-0.1c-0.7-0.3-1.3-1.2-1.2-1.9C73,21.6,74.4,21.1,75.6,20.7z"/>
	<path class="st1" d="M88.6,21.6c0.1,0.3,0.2,0.5,0.4,0.8c0,0.1,0,0.2,0.1,0.3c1.3,0.7,4.5,1.9,5.8,0.6c1.5-1.5-2-3-3.1-3.3
		C90.4,19.5,88.2,19.9,88.6,21.6z M89.7,20.5c0.7-0.5,1.7-0.2,2.4,0.1c0.5,0.2,1.3,0.5,1.7,0.9c0.6,0.3,0.7,0.8,0.3,1.4
		c-1,0.1-2.1,0.1-3.1-0.2C90.1,22.5,88.2,21.6,89.7,20.5z"/>
	<path class="st1" d="M75.2,25.6c4.4-0.2,8.7-1.3,12.7-3c0,0,0,0,0,0c0.4,0.9,1.1,1.6,2,2.1c-3.1,0.9-6.5,2-9.8,1.9
		c-0.4,0-0.5,0.5-0.1,0.6c3.5,0.1,7.2-1.1,10.5-2.1c0,0,0,0,0,0c1.4,0.8,3,1.3,4.4,1.6c0.4,0.1,0.6-0.4,0.3-0.5
		c-2.3-0.6-6.4-1.9-6.9-4.3c-0.3-1.5,1.4-2.6,2.9-2.8c1.4-0.2,2.9,0.2,4.2,0.7c4.8,1.6,8.9,4.3,13.9,5.4c0.4,0.1,0.5-0.5,0.1-0.6
		c-3.8-0.8-7.1-2.6-10.6-4.1c-2.4-1-5.5-2.5-8.3-1.9c-1.8,0.4-3.2,1.8-2.9,3.4c-4,1.7-8.2,2.7-12.6,3C74.7,25.1,74.8,25.6,75.2,25.6
		z"/>
	<polygon class="st0" points="38.4,18.2 24.3,46.1 20,44.1 34,16.2 	"/>
</g>
<g id="circle">
</g>
</svg>
