<?xml version="1.0" encoding="utf-8"?>
<!-- Generator: Adobe Illustrator 21.1.0, SVG Export Plug-In . SVG Version: 6.00 Build 0)  -->
<svg version="1.1" id="Layer_1" xmlns="http://www.w3.org/2000/svg" xmlns:xlink="http://www.w3.org/1999/xlink" x="0px" y="0px"
	 viewBox="0 0 162 162" style="enable-background:new 0 0 162 162;" xml:space="preserve">
<style type="text/css">
	.st0{fill:#102773;}
	.st1{fill:#FFFFFF;}
	.st2{font-family:'Calibri';}
	.st3{font-size:39.5674px;}
	.st4{fill:#F2F2F2;}
	.st5{fill:none;stroke:#102773;stroke-width:2.1124;stroke-miterlimit:10;}
	.st6{fill:#F9F9F9;stroke:#F9F9F9;stroke-width:8.932425e-02;stroke-miterlimit:10;}
	.st7{fill:#F9F9F9;}
	.st8{fill:none;stroke:#102773;stroke-width:1.9162;stroke-miterlimit:10;}
	.st9{fill:none;stroke:#79BBCE;stroke-width:1.9162;stroke-miterlimit:10;}
</style>
<g>
	
		<ellipse transform="matrix(5.296302e-02 -0.9986 0.9986 5.296302e-02 -41.8605 175.9443)" class="st0" cx="71.8" cy="110" rx="21.5" ry="22.6"/>
	
		<ellipse transform="matrix(5.296302e-02 -0.9986 0.9986 5.296302e-02 -16.7238 154.5164)" class="st0" cx="73.1" cy="86.1" rx="8.8" ry="5.1"/>
	<path class="st0" d="M81.6,90.5c-2.8,3-6.9,4.2-9.1,2.6s-1.7-5.3,1.2-8.3c2.8-3,6.9-4.2,9.1-2.6S84.5,87.5,81.6,90.5z"/>
	<path class="st0" d="M64.7,89.6c2.5,3.3,6.4,4.9,8.8,3.6c2.3-1.3,2.2-5.1-0.3-8.4c-2.5-3.3-6.4-4.9-8.8-3.6
		C62.1,82.6,62.2,86.3,64.7,89.6z"/>
	<text transform="matrix(1.1507 6.079847e-02 -4.672299e-02 0.9989 60.1497 120.7075)" class="st1 st2 st3">£</text>
</g>
<g>
	<path class="st0" d="M3.4,155.4c0.3,0.2,0.6,0.3,1,0.3c18.4,0.7,35.8-5.3,53.1-9.6c0.4-0.1,0.7-0.3,0.9-0.5
		c2.3-0.4,4.6-0.9,6.9-1.3c1.3-0.3,2.5-0.6,3.6-0.9c0.9,0,1.7-0.1,2.6-0.3c0.8-0.2,1.4-0.6,1.6-1.3c0.4-0.2,0.7-0.3,1.1-0.5
		c2.6-1.2,7.2-0.2,8.5-2.9c0.4-0.8,0-1.5-0.6-1.9c-0.2-0.2-0.4-0.4-0.8-0.6c-2-0.8-4.2-0.7-6.4-0.3c0.1,0,0.2-0.1,0.3-0.2
		c0,0,0,0,0.1,0c0,0,0,0,0.1,0c0,0,0.1,0,0.1,0c0,0,0,0,0,0c0.3,0,0.6-0.2,0.5-0.5c0-0.2,0-0.4-0.1-0.6c-0.1-0.1-0.1-0.2-0.3-0.2
		c0,0,0,0,0,0c-0.1-0.1-0.1-0.1-0.2-0.1c0,0-0.1-0.1-0.2-0.1c-0.1,0-0.1,0-0.2-0.1c0-0.1-0.1-0.2-0.2-0.3c-0.2-0.1-0.4-0.2-0.7-0.3
		c-0.1-0.1-0.1-0.1-0.3-0.1c-1-0.2-1.9-0.2-2.8,0c-0.3,0-0.6,0-0.8,0c-1.1,0-2.2,0.1-3.2,0.4c-1.4,0.4-2.6,1.4-4.1,1.7
		c-0.2,0-0.3,0.2-0.3,0.3c-0.9,0.3-1.8,0.6-2.7,0.9c-0.3,0.1-0.7,0.2-1,0.3c-1.1,0.1-2.3,0.3-3.4,0.5c2.3-3.1,5.8-5.7,8.7-8.4
		c1.2-1.1-0.3-2.9-1.8-2.7c-0.7,0.1-1.4,0.3-2,0.4c-0.4-0.1-0.8-0.1-1.3,0.1c-2.1,0.8-3.6,2-5.1,3.3c-0.5,0.5-1,0.9-1.4,1.5
		c-0.1,0.1-0.1,0.2-0.2,0.3c-0.4,0.4-0.7,0.8-0.9,1.3c-0.1,0.2-0.1,0.3-0.1,0.5c-0.9,0.1-1.8,0.2-2.7,0.4c-0.6-0.7-1.4-1.2-2.2-1.8
		c0.2-0.1,0.3-0.3,0.5-0.4c0.2-0.1,0.4-0.3,0.6-0.6c0.1-0.2,0.2-0.3,0.3-0.5c6.3-4.3,13.6-7.3,19.3-12.3c0.6-0.6,0.7-1.3,0.4-1.9
		c0-0.1,0-0.2-0.1-0.3c0-0.5-0.2-1-0.7-1.4c-5.5-4.2-14.3,1.8-18.7,4.4c-2.6,1.5-5.3,2.8-7.9,4.3c-0.5,0.2-1,0.3-1.5,0.5
		c-0.9,0.3-1.7,0.6-2.5,1c-7,0-12.9,3.7-17.8,7.9c-3,0.1-5.3,1.2-7.8,2c-2.5,0.1-5-0.2-7.5-0.6C3.5,141.4,3.5,148.4,3.4,155.4z
		 M74.7,135.6c-0.9,0.2-1.8,0.4-2.6,0.7c-0.1,0-0.1,0-0.2,0l-1,0.2c0-0.1-0.1-0.1-0.1-0.2C72.1,136.1,73.4,135.9,74.7,135.6z"/>
	<path class="st0" d="M59.2,138.6c6.1-0.1,12-1.1,17.7-2.9c0.6-0.2,0.2-1-0.4-0.8c-5.6,1.8-11.5,2.7-17.5,2.8
		C58.5,137.8,58.6,138.6,59.2,138.6z"/>
	<g>
		<path class="st0" d="M3.1,134.7c0.9,0.2,1.8,0.3,2.7,0.4c2,0.2,3.9,0,5.8-0.5c2.2-0.6,4.3-1.4,6.7-1.6c-2.4,1.5-4.9,2.7-7.9,2.9
			c-0.3,0-0.3,0.5,0,0.5c10-0.9,14.9-11.6,25.1-11.4c-1.7,0.9-3,2.2-3.4,4c-0.1,0.3,0.4,0.4,0.5,0.1c0.6-2.5,3.2-3.9,5.7-4.8
			c2.2-0.8,4.4-1.4,6.4-2.5c4-2,7.4-4.7,11.6-6.5c2-0.8,4.2-1.5,6.5-1.5c2.4,0,5.7,1.4,4.4,4c-1,2-3.8,3.1-5.7,4.3
			c-2.3,1.4-4.7,2.8-7,4.2c-2.2,1.3-4.7,2.6-6.6,4.3c-1.8,1.7-2.6,3.9-4,5.9c-0.2,0.2,0.3,0.5,0.5,0.2c0.9-1.3,1.6-2.7,2.5-4
			c3,2.1,4.6,5.8,8.6,6.7c0.3,0.1,0.4-0.4,0.1-0.5c-1.5-0.3-2.7-1.1-3.7-2.1c4.1,1,8.4,1.3,12.6,0.9c2-0.2,4.1-0.5,6-1
			c2.1-0.5,4.1-1.2,6.3-1.4c1-0.1,2.1-0.1,3.1,0.2c1.6,0.4,3.7,1.7,2.2,3.3c-1.6,1.7-4.5,0.9-6.6,1.6c-1.9,0.6-3.3,1.9-5.3,2.4
			c-2.2,0.6-4.5,0.8-6.7,1.3c-18.2,3.6-35.5,11.4-54.7,11c-1.8,0-3.5-0.2-5.2-0.4c0,0.2,0,0.3,0,0.5c1.5,0.2,3,0.3,4.6,0.4
			c9.8,0.4,19.5-1.6,28.7-4c9.7-2.5,19.2-5.7,29.2-7.4c2.1-0.4,4.2-0.6,6.1-1.5c0.9-0.4,1.7-1,2.7-1.4c1.4-0.6,2.8-0.6,4.3-0.7
			c1.6-0.1,3.3-0.6,3.9-2c0.6-1.2-0.4-2.3-1.7-2.8c-4.1-1.9-8.8,0.4-12.8,1.2c-5.6,1.1-11.5,0.9-17-0.4c-0.1,0-0.1,0-0.2,0
			c-0.8-0.8-1.5-1.6-2.2-2.4c0,0,0,0,0,0c1.5-0.3,3.1-0.4,4.7-0.4c0.3,0,0.3-0.4,0-0.5c-0.8-0.1-1.8,0.1-1.3-0.9
			c0.2-0.4,0.7-0.9,1.1-1.2c0.6-0.7,1.3-1.4,2-2c1.8-1.5,4.1-2.6,6.6-2.6c0.8,0,2.6,0,2.4,1.3c-0.1,0.6-0.8,1.2-1.3,1.6
			c-0.8,0.8-1.6,1.5-2.4,2.3c-1.7,1.6-3.4,3.3-5.2,4.9c-0.2,0.2,0.2,0.5,0.4,0.3l4.1-4c1.3-1.3,2.8-2.5,4-3.9
			c0.6-0.6,1.2-1.5,0.6-2.3c-0.6-0.8-1.9-0.9-2.8-0.9c-3.1,0-5.8,1.6-7.8,3.5c-0.6,0.6-1.1,1.1-1.7,1.7c-0.3,0.3-0.9,0.8-1,1.3
			c0,0.3,0.1,0.5,0.2,0.6c-0.9,0.1-1.8,0.2-2.8,0.3c-0.1,0-0.2,0.1-0.2,0.2c-0.5-0.5-1-1-1.6-1.3c0.6-0.8,1.3-1.6,2.1-2.2
			c2.3-1.7,4.9-3,7.3-4.5c2.7-1.6,5.5-3.2,8.1-4.9c1.4-0.9,3.2-2.2,3.2-3.9c0-4.1-6.6-3.5-9.3-2.8c-4.8,1.3-8.6,4.4-12.8,6.7
			c-1.3,0.7-2.7,1.4-4.1,2c-1.6,0.6-3.3,1-4.9,1.7c-0.2,0.1-0.4,0.2-0.6,0.3c0,0-0.1-0.1-0.2-0.1c-7.3-0.4-11.9,4.7-17.4,8.2
			c0-0.1-0.1-0.2-0.3-0.2c-3.9,0.2-7.2,2.3-11.2,2.1c-1.4,0-2.8-0.3-4.1-0.5C3,134.4,3,134.5,3.1,134.7z"/>
		<path class="st0" d="M56.8,137.3c1.5-0.3,3-0.6,4.5-1.1c1.3-0.4,2.5-1,3.7-1.7c1.5-0.8,3.1-1.1,4.8-1.3c1.6-0.2,5.2-0.8,5.7,1.2
			c0.1,0.3,0.6,0.3,0.5,0c-0.2-1.1-1.3-1.7-2.6-1.8c-1.8-0.2-3.8,0.1-5.5,0.4c-2.1,0.4-3.5,1.4-5.4,2.2c-1.9,0.8-3.9,1.2-5.9,1.6
			C56.3,137,56.5,137.4,56.8,137.3z"/>
		<path class="st0" d="M60.7,119.6c-0.1,0-0.2,0.2-0.1,0.3c0.1,0.1,0.2,0.2,0.3,0.2c0,0.1,0.1,0.3,0.3,0.2c0.1,0,0.2,0,0.3,0
			c0,0,0,0,0.1,0c0.1,0,0.1,0,0.1,0c1.5-0.2,3-0.5,3.8-1.8c0.7-1.2,0.1-2.4-1.3-3.1c-1.2-0.6-3.5-0.8-4.5,0.1
			C58.6,116.5,60,118.6,60.7,119.6z M60.2,115.8c0.9-0.7,2.7-0.4,3.6,0c1.4,0.6,1.9,2,0.7,3c-0.8,0.7-2,0.9-3.1,1.1
			c-0.1,0-0.2,0-0.3-0.1c0.1-0.1,0.2-0.2,0.1-0.3C60.7,118.8,59.1,116.6,60.2,115.8z"/>
		<path class="st0" d="M52.4,118.8c0.7,0.6,1.5,1.1,2.1,1.8c0.3,0.3,0.6,0.6,0.8,0.9c0.2,0.2,0.3,0.5,0.4,0.7
			c0.1,0.2,0.2,0.5,0.2,0.7c-0.2-0.2-0.6,0-0.4,0.3c0.2,0.2,0.5,0.3,0.8,0.1c0.4-0.3,0.1-0.9-0.1-1.2c-0.7-1.5-2.1-2.6-3.5-3.7
			C52.5,118.3,52.2,118.6,52.4,118.8z"/>
		<path class="st0" d="M51.8,121.3c0.7,1,1.5,1.9,2.4,2.7c0.2,0.2,0.6-0.1,0.3-0.3c-0.9-0.8-1.6-1.7-2.3-2.6
			C52,120.8,51.6,121.1,51.8,121.3z"/>
		<path class="st0" d="M53.3,126.1c0.2,0.1,0.6-0.1,0.4-0.3c-0.2-0.2-0.4-0.5-0.7-0.7c-0.1-0.1-0.2-0.1-0.3-0.1
			c-1.1-1-1.7-2.3-1.7-3.8c0-0.3-0.5-0.3-0.5,0C50.4,123.2,51.5,125,53.3,126.1z"/>
	</g>
	<path class="st4" d="M44.2,136.8c0.9-1.1,1.6-2.3,2.3-3.5c3,2.4,5.2,5.8,9.2,6.7c0.6,0.1,0.7-0.7,0.1-0.8c-1.3-0.3-2.4-0.9-3.4-1.6
		c8.1,2.5,16.4-0.1,24.2-2c0.1,0,0.2-0.1,0.2-0.1c0.7-0.1,1.4-0.2,2.2-0.3c0.6-0.1,0.5-0.9-0.2-0.8c-0.9,0.1-1.9,0.3-2.8,0.4
		c-0.2,0-0.3,0.1-0.3,0.2c-7.9,2-16.4,4.6-24.5,1.4c-0.1-0.1-0.3,0-0.4,0c-0.7-0.6-1.3-1.3-1.9-1.9c1.3-0.2,2.6-0.4,3.9-0.5
		c0.2,0,0.5,0.1,0.8,0.1c0.1,0,0.2,0,0.2-0.1c0.3-0.1,0.5-0.6,0-0.7c-0.1,0-0.2-0.1-0.4-0.1c-0.1,0-0.1,0-0.2,0
		c-0.3-0.1-0.6-0.1-0.8-0.2c-0.1,0-0.2-0.1-0.2-0.2c-0.2-0.2-0.6-0.2-0.8,0c-0.5-0.1-1-0.1-1.5-0.1c-0.5,0-0.7,0.6-0.3,0.8
		c-0.2,0-0.5,0.1-0.7,0.1c-0.4-0.4-0.8-0.7-1.2-0.9c-0.1-0.1-0.2-0.1-0.3-0.1c0.7-0.7,1.6-1.3,2.7-1.7c0.6-0.2,0.2-1-0.4-0.8
		c-1.3,0.5-2.4,1.3-3.3,2.2c-0.2,0-0.4,0.1-0.5,0.2c-0.7,1.4-1.5,2.6-2.4,3.9C43.1,136.8,43.9,137.3,44.2,136.8z"/>
	<path class="st4" d="M59.9,119.5c0,0.1,0,0.1,0.1,0.2l0.3,0.4c0.1,0.1,0.1,0.1,0.2,0.2l0,0.1c0,0.2,0.3,0.4,0.5,0.4
		c0.6,0,1.2-0.1,1.7-0.4c0.1,0,0.1-0.1,0.2-0.2c1-0.2,1.9-0.6,2.3-1.5c0.6-1.3-0.1-2.8-1.5-3.4c-1.2-0.6-3.1-0.5-4.2,0.3
		C58.3,116.6,59.2,118.2,59.9,119.5z"/>
	<path class="st4" d="M52.2,119.5c0.9,0.4,1.6,0.9,2.2,1.6c0.3,0.4,1.5,1.9,1.1,2.3c-0.4,0.4,0.4,0.9,0.8,0.5
		c0.7-0.8-0.1-2.1-0.6-2.8c-0.7-1.1-1.8-1.9-3-2.4C52,118.5,51.7,119.2,52.2,119.5z"/>
	<path class="st4" d="M51.3,121.5c1,1.1,2.1,2.2,3.2,3.2c0.4,0.4,1.2-0.1,0.8-0.5c-1.1-1.1-2.1-2.1-3.2-3.2
		C51.6,120.6,50.9,121.1,51.3,121.5z"/>
	<path class="st4" d="M49.9,121.2c0.3,1.1,0.8,2.2,1.5,3.2c0.4,0.6,1.3,2,2.3,1.8c0.5-0.1,0.3-0.8-0.2-0.8c-0.7-0.5-1.2-1.3-1.6-2
		c-0.5-0.7-0.8-1.5-1-2.4C50.7,120.6,49.8,120.7,49.9,121.2z"/>
	<path class="st4" d="M31.6,129.1c-0.1,0.3,0.1,0.5,0.3,0.6c0.2,0.1,0.4,0.1,0.5-0.1c0.9-1.1,1.9-2.2,3-3.3c0.2,0,0.3-0.1,0.4-0.3
		c0-0.1,0.1-0.1,0.1-0.2c1.7-1.5,3.6-2.7,6.1-3.2c0.6-0.1,0.4-0.9-0.2-0.8c-2.7,0.5-4.8,1.9-6.7,3.5
		C33.5,126.1,32.3,127.4,31.6,129.1z"/>
	<path class="st4" d="M9.9,136.8c1.6,0.1,3.1-0.5,4.6-1c1.6-0.5,2.9-1.2,4.2-2.1c0.1-0.1,0.1-0.1,0.2-0.2c0.4-0.7,0.9-1.4,1.4-2
		c0.4-0.4-0.4-0.9-0.8-0.5c-0.6,0.7-1.1,1.4-1.5,2.1c-1.1,0.8-2.2,1.4-3.5,1.8c-1.4,0.4-3,1.1-4.5,1C9.4,135.9,9.3,136.7,9.9,136.8z
		"/>
</g>
<line class="st5" x1="124.3" y1="115.7" x2="87" y2="115.7"/>
<line class="st5" x1="106" y1="116" x2="106" y2="88.4"/>
<path class="st0" d="M88.8,90.8c1.7,0.1,2.9,1,4.2,2c0.1,0.1,0.2,0.2,0.4,0.3c1.5,1.2,2.9,2.5,5,2.7c2.5,0.2,4.9-1.2,5.6-3.5
	c0-0.1,0.1-0.2,0.1-0.2c1.4,1,3.5,0.8,4.7-0.6c1.3-1.4,1.1-3.5-0.3-4.7s-3.6-0.9-4.8,0.5c-0.5,0.5-0.7,1.1-0.8,1.8
	c-4.4-2.1-9.9-1.6-14,1.3C88.5,90.6,88.6,90.8,88.8,90.8z M97.3,93.6c0.5,0.1,1,0.2,1.5,0.2c0.4,0,0.9,0,1.4-0.1
	C99.3,93.9,98.2,93.9,97.3,93.6z"/>
<path class="st6" d="M92,89.7c2.6-0.4,5.4-0.3,8.3,0.2c0.8,0.1,0.9,1.1,0.1,1c-2.8-0.5-5.4-0.5-8-0.2C91.8,90.7,91.3,89.8,92,89.7z"
	/>
<path class="st0" d="M122.9,90.1c-1.7-0.3-2.8-1.4-3.9-2.5c-0.1-0.1-0.2-0.2-0.3-0.4c-1.3-1.4-2.5-2.9-4.6-3.3
	c-2.4-0.5-5.1,0.6-6,2.8c0,0.1-0.1,0.2-0.1,0.2c-1.3-1.2-3.3-1.2-4.7,0.1c-1.4,1.3-1.6,3.4-0.3,4.7c1.3,1.3,3.4,1.3,4.9,0.1
	c0.5-0.5,0.9-1,1-1.7c4.1,2.6,9.6,2.7,14.1,0.3C123.1,90.4,123.1,90.1,122.9,90.1z M114.8,86.3c-0.5-0.2-1-0.3-1.5-0.4
	c-0.4-0.1-0.9-0.1-1.4-0.1C112.8,85.7,113.9,85.9,114.8,86.3z"/>
<path class="st7" d="M109.9,86.2c2.6-2.2,5.6,0.2,7.4,2.1c0.3,0.3-0.2,0.8-0.5,0.5c-1.5-1.6-4.1-4.1-6.4-2.1
	C110.1,87,109.6,86.5,109.9,86.2z"/>
<path class="st0" d="M102.8,87.6c0.1,0,0.2,0.1,0.3,0.1c-1,1.4-0.7,3.4,0.7,4.5c1.5,1.2,3.7,1,4.9-0.4s0.9-3.5-0.6-4.6
	c-0.6-0.4-1.2-0.7-1.9-0.8c2.1-4.2,1.5-9.5-1.6-13.4c-0.1-0.1-0.4-0.1-0.4,0.1c-0.1,1.6-1,2.9-2,4c-0.1,0.1-0.2,0.2-0.3,0.4
	c-1.3,1.4-2.6,2.8-2.8,4.8C98.9,84.7,100.4,87,102.8,87.6z M101.5,81.3c-0.1,0.5-0.2,1-0.2,1.5c0,0.4,0,0.9,0.1,1.4
	C101.1,83.3,101.2,82.2,101.5,81.3z"/>
<path class="st1" d="M104,85.1c0.9-2.6,0.9-5.3,0.1-7.9c-0.1-0.4,0.6-0.6,0.7-0.2c0.8,2.8,0.8,5.5-0.1,8.3
	C104.6,85.7,103.9,85.5,104,85.1z"/>
<path class="st0" d="M139.7,67.7L139.7,67.7c3.9,0.1,7.1-2.4,7-5.5l-0.8-28.3c-0.1-3.2-3.4-5.8-7.3-6h0c-3.9-0.1-7.1,2.4-7,5.5
	l0.8,28.3C132.5,64.9,135.8,67.6,139.7,67.7z"/>
<rect x="140.8" y="63.7" transform="matrix(-1 -4.305146e-11 4.305146e-11 -1 287.4034 169.5473)" class="st0" width="5.7" height="42.2"/>
<rect x="112.1" y="81.9" transform="matrix(0.115 -0.9934 0.9934 0.115 33.647 207.3126)" class="st0" width="42.2" height="5.7"/>
<ellipse class="st0" cx="138" cy="17.5" rx="10.5" ry="10.5"/>
<rect x="148.5" y="31" transform="matrix(0.8842 -0.4671 0.4671 0.8842 -3.9136 75.5506)" class="st0" width="3.9" height="29.4"/>
<rect x="110.7" y="42.9" transform="matrix(0.5996 -0.8003 0.8003 0.5996 14.3557 118.4098)" class="st0" width="29.7" height="3.8"/>
<rect x="115" y="28.1" transform="matrix(-1 -4.305146e-11 4.305146e-11 -1 232.8146 129.9736)" class="st0" width="2.9" height="73.8"/>
<rect x="104.4" y="101.1" transform="matrix(-1 -4.315316e-11 4.315316e-11 -1 232.8146 205.0103)" class="st0" width="23.9" height="2.9"/>
<line class="st8" x1="105.4" y1="101.9" x2="105.4" y2="105.7"/>
<line class="st8" x1="128.4" y1="103" x2="128.4" y2="106.8"/>
<line class="st9" x1="116.9" y1="101.9" x2="116.9" y2="105.7"/>
<line class="st8" x1="113.1" y1="101.9" x2="113.1" y2="105.7"/>
<line class="st8" x1="109.2" y1="101.9" x2="109.2" y2="105.7"/>
<line class="st8" x1="124.5" y1="103" x2="124.5" y2="106.8"/>
<line class="st8" x1="120.7" y1="101.9" x2="120.7" y2="105.7"/>
<line class="st8" x1="116.9" y1="101.9" x2="116.9" y2="105.7"/>
<path class="st1" d="M68.5,115c-2-4.3-9.9-1.5-13-0.4c-2.8,1-5.5,2.3-8,3.8c-3,1.8-5.8,4.3-9.3,4.8c-0.6,0.1-0.4,1.1,0.3,1
	c4.4-0.7,8-4.2,11.8-6.2c2.4-1.3,4.9-2.4,7.5-3.1c2.6-0.7,6.5-1.9,8.8-0.2c3.9,2.7-1.8,6.2-4.1,7.1c-1.9,0.8-3.8,1.6-5.5,2.7
	c-4.1,2.5-7.7,5.7-12,7.9c-0.6,0.3-0.1,1.2,0.5,0.9c5.9-2.9,10.5-7.8,16.6-10.3C65.1,121.8,70.5,119.3,68.5,115z"/>
</svg>
