<?xml version="1.0" encoding="utf-8"?>
<!-- Generator: Adobe Illustrator 21.1.0, SVG Export Plug-In . SVG Version: 6.00 Build 0)  -->
<svg version="1.1" xmlns="http://www.w3.org/2000/svg" xmlns:xlink="http://www.w3.org/1999/xlink" x="0px" y="0px"
	 viewBox="0 0 162 162" style="enable-background:new 0 0 162 162;" xml:space="preserve">
<style type="text/css">
	.st0{fill:#102773;}
	.st1{fill:#FFFFFF;}
	.st2{fill:#F7F9F9;}
	.st3{font-family:'Arial-Black';}
	.st4{font-size:2.6424px;}
	.st5{fill:none;stroke:#102773;stroke-width:0.5542;stroke-miterlimit:10;}
	.st6{fill:none;stroke:#FFFFFF;stroke-width:0.1847;stroke-miterlimit:10;}
	.st7{fill:none;stroke:#102773;stroke-width:1.0043;stroke-miterlimit:10;}
	.st8{fill:none;stroke:#102773;stroke-width:0.5021;stroke-miterlimit:10;}
	.st9{fill:none;stroke:#102773;stroke-width:3;stroke-miterlimit:10;}
</style>
<g id="Layer_1">
	<g>
		<path class="st0" d="M101.9,51.2c-6.2-2.5-9.4-8.8-7.2-14c2.2-5.3,9.1-7.5,15.3-5"/>
		<path class="st0" d="M101.6,51c6.2,2.5,13.1,0.3,15.3-5s-1-11.5-7.2-14"/>
		<path class="st0" d="M109.1,30.3c0.7-1,3.6-1.8,5.2-2.1c1.7-0.3,4.4-0.4,4.3,0.6c-0.1,1-2.9,2.8-5.3,3.3
			C110.4,32.8,108.3,31.5,109.1,30.3z"/>
		<path class="st0" d="M109.4,31.8c-1.1-0.5-2.5-3-3.1-4.5c-0.6-1.6-1.2-4.1-0.2-4.2c1-0.1,3.4,2.3,4.3,4.4
			C111.7,30.1,110.7,32.4,109.4,31.8z"/>
	</g>
	<path class="st1" d="M88.6,21.6c0.1,0.3,0.2,0.5,0.4,0.8c0,0.1,0,0.2,0.1,0.3c1.3,0.7,4.5,1.9,5.8,0.6c1.5-1.5-2-3-3.1-3.3
		C90.4,19.5,88.2,19.9,88.6,21.6z M89.7,20.5c0.7-0.5,1.7-0.2,2.4,0.1c0.5,0.2,1.3,0.5,1.7,0.9c0.6,0.3,0.7,0.8,0.3,1.4
		c-1,0.1-2.1,0.1-3.1-0.2C90.1,22.5,88.2,21.6,89.7,20.5z"/>
	<g>
		<polygon class="st0" points="139.5,54.4 139.5,53.5 139.5,52.6 139.5,51.7 139,50.7 137.9,49.8 136.5,49.1 134.7,48.4 133.4,47.9 
			132.7,46.5 135.4,47.5 136.6,47.9 138.1,48.6 138.9,49 138.2,47.8 139.5,48.4 140.3,48.9 141.3,48.3 142.2,47.4 142.6,48 
			142.2,49.2 143.1,48.5 144.2,48 145.4,47.7 146.4,47.2 147.3,46.5 148.5,44.3 147.8,46.6 147.1,47.6 146.1,48.3 144.8,49.1 
			143.5,49.7 142.9,50.2 142.3,51.2 142.1,52.3 142.1,53.4 142.1,54.1 142.2,55 		"/>
		<polygon class="st0" points="132.2,46.4 130.8,45.3 130,44.1 129.3,42.1 131.5,43.5 133.1,44.3 134.1,44.8 134.1,45.5 133.3,46.2 
					"/>
		<polygon class="st0" points="133.9,46.4 134.6,45.4 135.3,44.9 136.1,46 136.5,47.2 135.5,47.2 		"/>
		<polygon class="st0" points="137.8,47.9 136.9,47.2 136.5,46 136.5,44.7 137.1,43.3 138.1,42.1 139,41.1 140.2,42.1 141.1,43.8 
			141.5,45.3 141.5,46.3 141.2,47.2 140.4,47.9 139.5,48 138.7,47.8 		"/>
		<polygon class="st0" points="142.1,46.2 142.9,45.3 143.9,45.8 144.3,46.8 144,47.5 143.2,47.9 142.6,47.5 142.1,46.9 		"/>
		<polygon class="st0" points="144.6,46.4 144.6,47.2 144.9,47.4 145.9,46.9 146.7,46.6 147.1,46 147.5,45.3 148,44.3 145.7,45.8 
			144.8,46 		"/>
		<polygon class="st0" points="134.6,44.9 133.9,44.3 133.4,43.7 133.4,42.4 133.4,40.5 133.6,38.9 134.1,38 135.1,37.8 135.7,38.4 
			136.5,40.5 137,42.2 137,43 136.5,44 136.1,44.9 135.2,44.6 		"/>
		<polygon class="st0" points="133,43.7 131.3,43.1 130.1,42.1 129.3,41.4 129,39.7 129,37.8 129,36.1 129.3,34.8 129.7,34.8 
			130.6,35.4 131.2,37.2 131.7,38.9 132.7,40.2 133,40.9 133,42.2 		"/>
		<polygon class="st0" points="142.1,45.5 141.5,44.6 141.1,43.8 141.6,42.3 142.6,40.6 143.6,38.9 145,40.2 145.7,41.8 146,43.1 
			146.1,44.3 145.7,45.3 144.8,46 144.3,45.8 143.8,45.3 142.9,45.3 		"/>
		<polygon class="st0" points="146.5,44.6 146.5,43.3 147.1,41.8 148,40.3 148.8,39.3 149.1,38.9 149.6,37.8 150,38.7 150,40 
			150,41.4 149.7,42.5 149.1,43.7 148.5,44.3 		"/>
		<polygon class="st0" points="132.7,38.9 131.9,38 131.3,36.8 130.6,35.4 130.4,34.6 130.4,33.3 130.4,32 131,30.9 131.6,30.3 
			132.1,30.7 132.5,31.7 133.2,32.5 133.9,33.5 134.3,34.6 133.9,35.8 133.6,37.4 133.4,38.1 133.1,39.6 		"/>
		<polygon class="st0" points="133.9,37.5 134.3,35.6 134.8,34.6 135.5,33.7 136,33.1 137,33.4 137.8,34.1 138.4,34.6 138.7,35.1 
			138.9,36 138.1,37.3 137.4,38.9 137.2,39.6 136.5,39.3 136.1,38.6 135.8,38 135.1,37.8 134.9,37.5 134.3,37.6 		"/>
		<polygon class="st0" points="137.6,42.1 137,41.2 137.6,39.6 138.3,37.8 138.9,36.6 139.5,35.9 140,35.9 140.9,36.7 141.5,37.4 
			142.1,38.2 142.4,38.9 142.7,39.9 141.8,41.4 140.9,42.5 140.2,42.1 139.8,41.5 139.3,41.1 139,41.1 138.3,41.4 		"/>
		<polygon class="st0" points="143,38.9 142.1,37.5 141.1,36.3 141.5,35.3 142.3,33.7 143.2,33.1 144.1,33.9 144.6,34.8 145.1,35.9 
			144.6,37.4 144.3,38.8 143.6,38.5 		"/>
		<polygon class="st0" points="144.8,39.6 145.6,40.5 146.1,41.5 146.3,42.5 146.9,41.2 147.8,39.9 148.6,38.9 148.5,37.6 148,36.5 
			147.8,35.5 147.2,34.9 146.1,34.8 145.4,35.9 144.8,37.7 144.8,38.9 		"/>
		<polygon class="st0" points="149.1,38 147.8,35.5 148.5,34.5 149.1,33.3 149.4,34.8 149.6,35.9 149.8,36.7 149.6,37.8 		"/>
		<polygon class="st0" points="133.7,32.5 133,31.5 132.1,30.7 132.5,29.7 133.2,28.4 134.1,27.6 135.2,27.1 135.2,29.3 135,30.3 
			134.5,32 134.3,33.1 		"/>
		<polygon class="st0" points="134.8,33.9 134.8,32.5 134.8,31.6 135,30.3 135.9,29.4 137,28.4 137.5,29.7 138,30.7 138.2,31.1 
			137.9,32.1 137.6,33.3 137,33.1 136,33.1 135.4,33.3 		"/>
		<polygon class="st0" points="139.5,35.9 139,34.8 138.5,34.2 138.2,33.9 138.2,33 138.4,31.7 139,30.5 139.8,29.5 141.1,30.1 
			141.8,31.1 142.4,31.9 142.7,32.5 143.2,33.1 142.3,33.7 141.5,34.3 141.1,35.1 140.7,35.6 		"/>
		<polygon class="st0" points="144.6,34.3 143.8,33.3 143.2,32.7 142.7,31.9 142.3,30.9 142.6,29.5 143.1,29 144.3,29.2 145.1,29.8 
			145.6,31.3 145.8,32.7 145.8,33.8 145.2,34.9 		"/>
		<polygon class="st0" points="145.8,34.4 146.7,34.4 147.3,34.5 147.8,34.5 148.5,33.8 148.5,32.8 148.2,31.6 147.6,30.1 
			146.9,29.3 146.1,28.8 145.6,28.8 145.1,28.2 145.5,29.9 146,31 146.1,32 146,33.3 		"/>
		<polygon class="st0" points="135.4,28 136.4,27.1 137.1,26.7 137.9,27.6 138.4,28.4 138.5,30 138.2,30.1 137.6,29 137,28.4 
			136,28.8 135.2,29.3 		"/>
		<polygon class="st0" points="137.9,27.1 138.4,26.1 139.3,26.1 139.8,26.7 140.2,27.1 139.8,28.4 140,29 139.3,29.8 138.9,29.5 
			138.4,28.4 137.9,27.6 		"/>
		<polygon class="st0" points="140.2,29.2 140.9,29.5 141.5,29.2 141.7,28.2 141.7,27.3 141.5,26.8 141.1,26.6 140.5,26.7 
			140.2,27.8 140,29 		"/>
		<polygon class="st0" points="141.5,29.9 142,30.6 142.5,29 143.1,28.7 143.6,28.7 144.3,29.2 144.8,29.1 144.8,28.4 144,27.5 
			143.2,26.8 142.7,26.3 142.1,26.1 		"/>
		<polygon class="st0" points="136.5,26.3 137.3,25.4 137.9,25 138.7,25 139.8,25.6 140.6,25.6 141.5,26.3 140.8,26.1 140,26.3 
			138.9,25.9 137.9,26.3 137.9,27.1 137.1,26.7 136.4,26.7 		"/>
	</g>
	<path class="st0" d="M132.9,20.2c-0.9-1.8-2.8-1-3.9-0.3c-0.9,0.6-1.7,1.4-2.4,2.4c0-0.9,0-1.8-0.2-2.7c-0.2-1.2-0.5-4.6-1.9-4.8
		c-1.1-0.2-1.6,1.7-1.7,2.8c-0.2,2.9,1.4,5.6,1.8,8.5c-2,0.1-3.6,1.6-4.6,3.7c-1.5,3.1-1.9,7.1-2.5,10.6c-0.8,4.4-1.4,8.9-2,13.4
		c0,0.1,0,0.2,0.1,0.3c0,1.5,0.3,3.1,1.8,3c0.9-0.1,1.5-1.2,2.1-2c1-1.5,2-3,2.9-4.6c1.8-3.1,3.3-6.4,4.7-9.9
		c1.1-2.7,2.9-6.4,2.5-9.7c-0.3-2-1.4-3.6-2.9-4.3c0,0,0,0,0,0c0-0.2,0.1-0.4,0.2-0.5c1.7-0.1,3.2-0.7,4.6-1.9
		C132.3,23.4,133.7,21.9,132.9,20.2z M127.5,28.5c1.7,2,1.2,4.6,0.5,6.9c-2.1-1.6-4.7-4-7-2.5c-0.4,0.3,0,1.2,0.4,0.9
		c2-1.3,4.5,1.2,6.3,2.5c-0.2,0.7-0.5,1.3-0.7,1.9c-0.4,1.1-0.8,2.2-1.3,3.2c-1.5-1.5-3.2-2.9-5.1-1.9c-0.5,0.2,0,1.1,0.4,0.9
		c1.5-0.8,3.1,0.7,4.2,1.9c-0.4,0.8-0.7,1.7-1.1,2.5c-0.5,1-1,2-1.5,2.9c-1-1.7-2.9-2.2-4.2-1.2c-0.4,0.3,0,1.2,0.4,0.9
		c1-0.8,2.4-0.4,3.1,0.8c0.1,0.1,0.1,0.2,0.2,0.2c-0.5,0.9-1,1.9-1.5,2.8c-0.6,1.1-1.3,2.1-2,3.2c-0.2,0.3-0.5,1-0.8,1.2
		c-2.2,1.2-1.7-1.6-1.6-2.5c0-0.1,0-0.2,0-0.3c0.7-4.9,1.4-9.9,2.3-14.7c0.4-2.4,0.8-4.9,1.7-7.1C121.6,27.8,124.9,25.4,127.5,28.5z
		"/>
	<g>
		<g>
			<rect x="40.1" y="87.4" class="st0" width="5" height="37"/>
			<rect x="40.5" y="89.2" class="st1" width="1" height="3.2"/>
			<rect x="42.1" y="89.2" class="st1" width="1" height="3.2"/>
			<rect x="43.6" y="89.2" class="st1" width="1" height="3.2"/>
			<rect x="40.5" y="94.7" class="st1" width="1" height="3.2"/>
			<rect x="42.1" y="94.7" class="st1" width="1" height="3.2"/>
			<rect x="43.6" y="94.7" class="st1" width="1" height="3.2"/>
			<rect x="40.5" y="100.2" class="st1" width="1" height="3.2"/>
			<rect x="42.1" y="100.2" class="st1" width="1" height="3.2"/>
			<rect x="43.6" y="100.2" class="st1" width="1" height="3.2"/>
			<rect x="40.5" y="105.6" class="st1" width="1" height="3.2"/>
			<rect x="42.1" y="105.6" class="st1" width="1" height="3.2"/>
			<rect x="43.6" y="105.6" class="st1" width="1" height="3.2"/>
			<rect x="40.5" y="111.1" class="st1" width="1" height="3.2"/>
			<rect x="42.1" y="111.1" class="st1" width="1" height="3.2"/>
			<rect x="43.6" y="111.1" class="st1" width="1" height="3.2"/>
			<rect x="41.8" y="117.5" class="st1" width="1.5" height="6.4"/>
		</g>
		<g>
			<rect x="70.8" y="86" class="st0" width="5" height="39.8"/>
			<rect x="71.2" y="88" class="st1" width="1" height="3.4"/>
			<rect x="72.7" y="88" class="st1" width="1" height="3.4"/>
			<rect x="74.2" y="88" class="st1" width="1" height="3.4"/>
			<rect x="71.2" y="93.9" class="st1" width="1" height="3.4"/>
			<rect x="72.7" y="93.9" class="st1" width="1" height="3.4"/>
			<rect x="74.2" y="93.9" class="st1" width="1" height="3.4"/>
			<rect x="71.2" y="99.7" class="st1" width="1" height="3.4"/>
			<rect x="72.7" y="99.7" class="st1" width="1" height="3.4"/>
			<rect x="74.2" y="99.7" class="st1" width="1" height="3.4"/>
			<rect x="71.2" y="105.6" class="st1" width="1" height="3.4"/>
			<rect x="72.7" y="105.6" class="st1" width="1" height="3.4"/>
			<rect x="74.2" y="105.6" class="st1" width="1" height="3.4"/>
			<rect x="71.2" y="111.5" class="st1" width="1" height="3.4"/>
			<rect x="72.7" y="111.5" class="st1" width="1" height="3.4"/>
			<rect x="74.2" y="111.5" class="st1" width="1" height="3.4"/>
			<rect x="72.4" y="118.4" class="st1" width="1.5" height="6.9"/>
		</g>
		<g>
			<rect x="75.7" y="98.3" class="st0" width="6.6" height="24.7"/>
			<rect x="76.3" y="99.6" class="st1" width="1.3" height="2.1"/>
			<rect x="78.3" y="99.6" class="st1" width="1.3" height="2.1"/>
			<rect x="80.3" y="99.6" class="st1" width="1.3" height="2.1"/>
			<rect x="76.3" y="103.2" class="st1" width="1.3" height="2.1"/>
			<rect x="78.3" y="103.2" class="st1" width="1.3" height="2.1"/>
			<rect x="80.3" y="103.2" class="st1" width="1.3" height="2.1"/>
			<rect x="76.3" y="106.9" class="st1" width="1.3" height="2.1"/>
			<rect x="78.3" y="106.9" class="st1" width="1.3" height="2.1"/>
			<rect x="80.3" y="106.9" class="st1" width="1.3" height="2.1"/>
			<rect x="76.3" y="110.5" class="st1" width="1.3" height="2.1"/>
			<rect x="78.3" y="110.5" class="st1" width="1.3" height="2.1"/>
			<rect x="80.3" y="110.5" class="st1" width="1.3" height="2.1"/>
			<rect x="76.3" y="114.2" class="st1" width="1.3" height="2.1"/>
			<rect x="78.3" y="114.2" class="st1" width="1.3" height="2.1"/>
			<rect x="80.3" y="114.2" class="st1" width="1.3" height="2.1"/>
			<rect x="77.9" y="118.4" class="st1" width="2" height="4.3"/>
		</g>
		<g>
			<rect x="45.9" y="98.3" class="st0" width="6.6" height="24.7"/>
			<rect x="46.5" y="99.6" class="st1" width="1.3" height="2.1"/>
			<rect x="48.5" y="99.6" class="st1" width="1.3" height="2.1"/>
			<rect x="50.5" y="99.6" class="st1" width="1.3" height="2.1"/>
			<rect x="46.5" y="103.2" class="st1" width="1.3" height="2.1"/>
			<rect x="48.5" y="103.2" class="st1" width="1.3" height="2.1"/>
			<rect x="50.5" y="103.2" class="st1" width="1.3" height="2.1"/>
			<rect x="46.5" y="106.9" class="st1" width="1.3" height="2.1"/>
			<rect x="48.5" y="106.9" class="st1" width="1.3" height="2.1"/>
			<rect x="50.5" y="106.9" class="st1" width="1.3" height="2.1"/>
			<rect x="46.5" y="110.5" class="st1" width="1.3" height="2.1"/>
			<rect x="48.5" y="110.5" class="st1" width="1.3" height="2.1"/>
			<rect x="50.5" y="110.5" class="st1" width="1.3" height="2.1"/>
			<rect x="46.5" y="114.2" class="st1" width="1.3" height="2.1"/>
			<rect x="48.5" y="114.2" class="st1" width="1.3" height="2.1"/>
			<rect x="50.5" y="114.2" class="st1" width="1.3" height="2.1"/>
			<rect x="48.1" y="118.4" class="st1" width="2" height="4.3"/>
		</g>
		<g>
			<rect x="62.5" y="98.3" class="st0" width="6.6" height="24.7"/>
			<rect x="63" y="99.6" class="st1" width="1.3" height="2.1"/>
			<rect x="65.1" y="99.6" class="st1" width="1.3" height="2.1"/>
			<rect x="67.1" y="99.6" class="st1" width="1.3" height="2.1"/>
			<rect x="63" y="103.2" class="st1" width="1.3" height="2.1"/>
			<rect x="65.1" y="103.2" class="st1" width="1.3" height="2.1"/>
			<rect x="67.1" y="103.2" class="st1" width="1.3" height="2.1"/>
			<rect x="63" y="106.9" class="st1" width="1.3" height="2.1"/>
			<rect x="65.1" y="106.9" class="st1" width="1.3" height="2.1"/>
			<rect x="67.1" y="106.9" class="st1" width="1.3" height="2.1"/>
			<rect x="63" y="110.5" class="st1" width="1.3" height="2.1"/>
			<rect x="65.1" y="110.5" class="st1" width="1.3" height="2.1"/>
			<rect x="67.1" y="110.5" class="st1" width="1.3" height="2.1"/>
			<rect x="63" y="114.2" class="st1" width="1.3" height="2.1"/>
			<rect x="65.1" y="114.2" class="st1" width="1.3" height="2.1"/>
			<rect x="67.1" y="114.2" class="st1" width="1.3" height="2.1"/>
			<rect x="64.7" y="118.4" class="st1" width="2" height="4.3"/>
		</g>
		<g>
			<rect x="55" y="98.3" class="st0" width="6.6" height="24.7"/>
			<rect x="55.6" y="99.6" class="st1" width="1.3" height="2.1"/>
			<rect x="57.6" y="99.6" class="st1" width="1.3" height="2.1"/>
			<rect x="59.6" y="99.6" class="st1" width="1.3" height="2.1"/>
			<rect x="55.6" y="103.2" class="st1" width="1.3" height="2.1"/>
			<rect x="57.6" y="103.2" class="st1" width="1.3" height="2.1"/>
			<rect x="59.6" y="103.2" class="st1" width="1.3" height="2.1"/>
			<rect x="55.6" y="106.9" class="st1" width="1.3" height="2.1"/>
			<rect x="57.6" y="106.9" class="st1" width="1.3" height="2.1"/>
			<rect x="59.6" y="106.9" class="st1" width="1.3" height="2.1"/>
			<rect x="55.6" y="110.5" class="st1" width="1.3" height="2.1"/>
			<rect x="57.6" y="110.5" class="st1" width="1.3" height="2.1"/>
			<rect x="59.6" y="110.5" class="st1" width="1.3" height="2.1"/>
			<rect x="55.6" y="114.2" class="st1" width="1.3" height="2.1"/>
			<rect x="57.6" y="114.2" class="st1" width="1.3" height="2.1"/>
			<rect x="59.6" y="114.2" class="st1" width="1.3" height="2.1"/>
			<rect x="57.2" y="118.4" class="st1" width="2" height="4.3"/>
		</g>
		<g>
			<rect x="46.8" y="115.3" class="st0" width="10.1" height="14.5"/>
			<polygon class="st0" points="45.9,115.1 57.5,115.1 54.9,109.8 48.7,109.8 			"/>
			<rect x="51.1" y="126.6" class="st2" width="1.7" height="3.3"/>
			<rect x="47.6" y="119.1" class="st2" width="0.8" height="6.6"/>
			<rect x="49.1" y="119.1" class="st2" width="0.8" height="6.6"/>
			<rect x="50.7" y="119.1" class="st2" width="0.8" height="6.6"/>
			<rect x="52.4" y="119.1" class="st2" width="0.8" height="6.6"/>
			<rect x="54" y="119.1" class="st2" width="0.8" height="6.6"/>
			<rect x="55.4" y="119.1" class="st2" width="0.8" height="6.6"/>
			<text transform="matrix(0.598 0 0 1 47.9658 118.1602)" class="st1 st3 st4">LIBRARY</text>
		</g>
		<g>
			<path class="st0" d="M26,111.1c-0.6,0.2-1.3,0.4-1.9,0.4c0,0,0,0,0,0c0-0.1,0-0.2,0.1-0.2c0-0.1,0-0.2-0.1-0.2
				c-0.1,0-0.1,0-0.2,0.1c0,0,0,0.1-0.1,0.1c0,0,0,0,0,0.1c0,0,0,0,0,0c0,0,0-0.1,0-0.1c0-0.1,0-0.3-0.1-0.2c0,0,0,0-0.1,0
				c0-0.1,0-0.1-0.1-0.1c-0.1,0-0.2,0.3-0.1,0.4c0,0-0.1-0.1-0.1-0.1c-0.3,0-0.7,0-1,0c0,0,0,0,0,0c-0.8,0-1.5,0-2.3,0.1
				c-0.1,0-0.2,0.2-0.3,0.3c-0.1,0-0.2,0.1-0.2,0.2c-0.6,1.5-1.4,2.8-2.2,4.1c-0.2,0.3,0,0.9,0.2,0.9c1.9,0,3.8,0.2,5.7-0.2
				c0.3,0.1,0.6,0.1,0.9,0.2c0.2,0,0.4-0.4,0.3-0.7c0,0,0-0.1,0-0.1c0.9-1,1.6-2.9,2-4.3C26.5,111.4,26.3,111,26,111.1z"/>
			<g>
				<polygon class="st5" points="17,117 24.2,117 26.7,111.1 19.8,111.1 				"/>
				<polyline class="st5" points="26.7,111.1 28.5,117 28.5,128.3 17,128.3 17,117 				"/>
				<line class="st5" x1="24.2" y1="117" x2="24.2" y2="128.3"/>
			</g>
			<rect x="25.9" y="124.5" class="st0" width="1.3" height="3.9"/>
			<rect x="18.3" y="123.8" class="st0" width="1.6" height="3.1"/>
			<rect x="20.8" y="123.8" class="st0" width="1.6" height="3.1"/>
			<rect x="18.3" y="119.2" class="st0" width="1.6" height="3.1"/>
			<rect x="20.8" y="119.2" class="st0" width="1.6" height="3.1"/>
			<rect x="25.3" y="119.2" class="st0" width="1.1" height="3.1"/>
			<rect x="26.9" y="119.2" class="st0" width="1.1" height="3.1"/>
			<line class="st6" x1="22.2" y1="117.3" x2="24.7" y2="111"/>
			<line class="st6" x1="20.6" y1="117" x2="23.1" y2="111.1"/>
			<line class="st6" x1="18.9" y1="117" x2="21.6" y2="111.1"/>
			<line class="st6" x1="18.3" y1="113.9" x2="25.5" y2="113.9"/>
		</g>
		<g>
			<rect x="57.5" y="105.2" class="st0" width="6.6" height="24.7"/>
			<rect x="58.1" y="106.4" class="st1" width="1.3" height="2.1"/>
			<rect x="60.1" y="106.4" class="st1" width="1.3" height="2.1"/>
			<rect x="62.1" y="106.4" class="st1" width="1.3" height="2.1"/>
			<rect x="58.1" y="110.1" class="st1" width="1.3" height="2.1"/>
			<rect x="60.1" y="110.1" class="st1" width="1.3" height="2.1"/>
			<rect x="62.1" y="110.1" class="st1" width="1.3" height="2.1"/>
			<rect x="58.1" y="113.7" class="st1" width="1.3" height="2.1"/>
			<rect x="60.1" y="113.7" class="st1" width="1.3" height="2.1"/>
			<rect x="62.1" y="113.7" class="st1" width="1.3" height="2.1"/>
			<rect x="58.1" y="117.4" class="st1" width="1.3" height="2.1"/>
			<rect x="60.1" y="117.4" class="st1" width="1.3" height="2.1"/>
			<rect x="62.1" y="117.4" class="st1" width="1.3" height="2.1"/>
			<rect x="58.1" y="121" class="st1" width="1.3" height="2.1"/>
			<rect x="60.1" y="121" class="st1" width="1.3" height="2.1"/>
			<rect x="62.1" y="121" class="st1" width="1.3" height="2.1"/>
			<rect x="59.7" y="125.3" class="st1" width="2" height="4.3"/>
		</g>
		<g>
			<rect x="65" y="105.2" class="st0" width="6.6" height="24.7"/>
			<rect x="65.5" y="106.4" class="st1" width="1.3" height="2.1"/>
			<rect x="67.5" y="106.4" class="st1" width="1.3" height="2.1"/>
			<rect x="69.6" y="106.4" class="st1" width="1.3" height="2.1"/>
			<rect x="65.5" y="110.1" class="st1" width="1.3" height="2.1"/>
			<rect x="67.5" y="110.1" class="st1" width="1.3" height="2.1"/>
			<rect x="69.6" y="110.1" class="st1" width="1.3" height="2.1"/>
			<rect x="65.5" y="113.7" class="st1" width="1.3" height="2.1"/>
			<rect x="67.5" y="113.7" class="st1" width="1.3" height="2.1"/>
			<rect x="69.6" y="113.7" class="st1" width="1.3" height="2.1"/>
			<rect x="65.5" y="117.4" class="st1" width="1.3" height="2.1"/>
			<rect x="67.5" y="117.4" class="st1" width="1.3" height="2.1"/>
			<rect x="69.6" y="117.4" class="st1" width="1.3" height="2.1"/>
			<rect x="65.5" y="121" class="st1" width="1.3" height="2.1"/>
			<rect x="67.5" y="121" class="st1" width="1.3" height="2.1"/>
			<rect x="69.6" y="121" class="st1" width="1.3" height="2.1"/>
			<rect x="67.2" y="125.3" class="st1" width="2" height="4.3"/>
		</g>
		<g>
			<rect x="72.4" y="113.4" class="st0" width="6.6" height="16.4"/>
			<rect x="73" y="114.2" class="st1" width="1.3" height="1.4"/>
			<rect x="75" y="114.2" class="st1" width="1.3" height="1.4"/>
			<rect x="77" y="114.2" class="st1" width="1.3" height="1.4"/>
			<rect x="73" y="116.7" class="st1" width="1.3" height="1.4"/>
			<rect x="75" y="116.7" class="st1" width="1.3" height="1.4"/>
			<rect x="77" y="116.7" class="st1" width="1.3" height="1.4"/>
			<rect x="73" y="119.1" class="st1" width="1.3" height="1.4"/>
			<rect x="75" y="119.1" class="st1" width="1.3" height="1.4"/>
			<rect x="77" y="119.1" class="st1" width="1.3" height="1.4"/>
			<rect x="73" y="121.5" class="st1" width="1.3" height="1.4"/>
			<rect x="75" y="121.5" class="st1" width="1.3" height="1.4"/>
			<rect x="77" y="121.5" class="st1" width="1.3" height="1.4"/>
			<rect x="73" y="124" class="st1" width="1.3" height="1.4"/>
			<rect x="75" y="124" class="st1" width="1.3" height="1.4"/>
			<rect x="77" y="124" class="st1" width="1.3" height="1.4"/>
			<rect x="74.6" y="126.8" class="st1" width="2" height="2.8"/>
		</g>
		<g>
			<rect x="40.1" y="113.4" class="st0" width="6.6" height="16.4"/>
			<rect x="40.7" y="114.2" class="st1" width="1.3" height="1.4"/>
			<rect x="42.7" y="114.2" class="st1" width="1.3" height="1.4"/>
			<rect x="44.7" y="114.2" class="st1" width="1.3" height="1.4"/>
			<rect x="40.7" y="116.7" class="st1" width="1.3" height="1.4"/>
			<rect x="42.7" y="116.7" class="st1" width="1.3" height="1.4"/>
			<rect x="44.7" y="116.7" class="st1" width="1.3" height="1.4"/>
			<rect x="40.7" y="119.1" class="st1" width="1.3" height="1.4"/>
			<rect x="42.7" y="119.1" class="st1" width="1.3" height="1.4"/>
			<rect x="44.7" y="119.1" class="st1" width="1.3" height="1.4"/>
			<rect x="40.7" y="121.5" class="st1" width="1.3" height="1.4"/>
			<rect x="42.7" y="121.5" class="st1" width="1.3" height="1.4"/>
			<rect x="44.7" y="121.5" class="st1" width="1.3" height="1.4"/>
			<rect x="40.7" y="124" class="st1" width="1.3" height="1.4"/>
			<rect x="42.7" y="124" class="st1" width="1.3" height="1.4"/>
			<rect x="44.7" y="124" class="st1" width="1.3" height="1.4"/>
			<rect x="42.3" y="126.8" class="st1" width="2" height="2.8"/>
		</g>
		<g>
			<path class="st0" d="M37.6,104.4c-0.6,0.2-1.3,0.4-1.9,0.4c0,0,0,0,0,0c0-0.1,0-0.2,0.1-0.2c0-0.1,0-0.2-0.1-0.2
				c-0.1,0-0.1,0-0.2,0.1c0,0,0,0.1-0.1,0.1c0,0,0,0,0,0.1c0,0,0,0,0,0c0,0,0-0.1,0-0.1c0-0.1,0-0.3-0.1-0.2c0,0,0,0-0.1,0
				c0-0.1,0-0.1-0.1-0.1c-0.1,0-0.2,0.3-0.1,0.4c0,0-0.1-0.1-0.1-0.1c-0.3,0-0.7,0-1,0c0,0,0,0,0,0c-0.8,0-1.5,0-2.3,0.1
				c-0.1,0-0.2,0.2-0.3,0.3c-0.1,0-0.2,0.1-0.2,0.2c-0.6,1.5-1.4,2.8-2.2,4.1c-0.2,0.3,0,0.9,0.2,0.9c1.9,0,3.8,0.2,5.7-0.2
				c0.3,0.1,0.6,0.1,0.9,0.2c0.2,0,0.4-0.4,0.3-0.7c0,0,0-0.1,0-0.1c0.9-1,1.6-2.9,2-4.3C38.1,104.7,37.9,104.3,37.6,104.4z"/>
			<g>
				<polygon class="st5" points="28.6,110.3 35.8,110.3 38.3,104.4 31.4,104.4 				"/>
				<polyline class="st5" points="38.3,104.4 40.1,110.3 40.1,121.6 28.6,121.6 28.6,110.3 				"/>
				<line class="st5" x1="35.8" y1="110.3" x2="35.8" y2="121.6"/>
			</g>
			<rect x="37.5" y="117.8" class="st0" width="1.3" height="3.9"/>
			<rect x="29.8" y="117.1" class="st0" width="1.6" height="3.1"/>
			<rect x="32.4" y="117.1" class="st0" width="1.6" height="3.1"/>
			<rect x="29.8" y="112.5" class="st0" width="1.6" height="3.1"/>
			<rect x="32.4" y="112.5" class="st0" width="1.6" height="3.1"/>
			<rect x="36.9" y="112.5" class="st0" width="1.1" height="3.1"/>
			<rect x="38.5" y="112.5" class="st0" width="1.1" height="3.1"/>
			<line class="st6" x1="33.8" y1="110.6" x2="36.3" y2="104.3"/>
			<line class="st6" x1="32.2" y1="110.3" x2="34.7" y2="104.4"/>
			<line class="st6" x1="30.4" y1="110.3" x2="33.2" y2="104.4"/>
			<line class="st6" x1="29.9" y1="107.2" x2="37.1" y2="107.2"/>
		</g>
		<g>
			<rect x="29.4" y="113.4" class="st0" width="10.8" height="16.4"/>
			<rect x="30.3" y="114.2" class="st1" width="2.1" height="1.4"/>
			<rect x="33.6" y="114.2" class="st1" width="2.1" height="1.4"/>
			<rect x="36.8" y="114.2" class="st1" width="2.1" height="1.4"/>
			<rect x="30.3" y="116.7" class="st1" width="2.1" height="1.4"/>
			<rect x="33.6" y="116.7" class="st1" width="2.1" height="1.4"/>
			<rect x="36.8" y="116.7" class="st1" width="2.1" height="1.4"/>
			<rect x="30.3" y="119.1" class="st1" width="2.1" height="1.4"/>
			<rect x="33.6" y="119.1" class="st1" width="2.1" height="1.4"/>
			<rect x="36.8" y="119.1" class="st1" width="2.1" height="1.4"/>
			<rect x="30.3" y="121.5" class="st1" width="2.1" height="1.4"/>
			<rect x="33.6" y="121.5" class="st1" width="2.1" height="1.4"/>
			<rect x="36.8" y="121.5" class="st1" width="2.1" height="1.4"/>
			<rect x="30.3" y="124" class="st1" width="2.1" height="1.4"/>
			<rect x="33.6" y="124" class="st1" width="2.1" height="1.4"/>
			<rect x="36.8" y="124" class="st1" width="2.1" height="1.4"/>
			<rect x="33" y="126.8" class="st1" width="3.3" height="2.8"/>
		</g>
		<rect x="78.6" y="121.9" class="st7" width="13.2" height="7.3"/>
		<rect x="79.4" y="123.2" class="st8" width="3.3" height="4.9"/>
		<rect x="87.7" y="123.2" class="st8" width="3.3" height="4.9"/>
		<rect x="84.4" y="125.6" class="st8" width="1.7" height="3.7"/>
	</g>
	<circle class="st9" cx="54.5" cy="108.5" r="44.5"/>
	<circle class="st9" cx="122.5" cy="39.5" r="31"/>
	<line class="st9" x1="104" y1="65" x2="89" y2="80"/>
	<polygon class="st0" points="89.5,72.5 85.5,83.5 95.5,80.5 	"/>
</g>
<g id="circle">
</g>
</svg>
