<?xml version="1.0" encoding="utf-8"?>
<!-- Generator: Adobe Illustrator 21.1.0, SVG Export Plug-In . SVG Version: 6.00 Build 0)  -->
<svg version="1.1" id="Layer_1" xmlns="http://www.w3.org/2000/svg" xmlns:xlink="http://www.w3.org/1999/xlink" x="0px" y="0px"
	 viewBox="0 0 162 162" style="enable-background:new 0 0 162 162;" xml:space="preserve">
<style type="text/css">
	.st0{fill:#FFFFFF;stroke:#102773;stroke-width:1.0258;stroke-miterlimit:10;}
	.st1{fill:none;stroke:#102773;stroke-width:1.0258;stroke-miterlimit:10;}
	.st2{fill:#102773;}
	.st3{fill:#FFFFFF;}
</style>
<polygon class="st0" points="5.5,136 47.5,46.5 156.5,46.5 131.5,136 "/>
<line class="st1" x1="31.5" y1="86.5" x2="141.5" y2="86.5"/>
<line class="st1" x1="100.5" y1="48.7" x2="67.5" y2="132.8"/>
<g>
	<ellipse class="st2" cx="34.2" cy="113.1" rx="4.7" ry="3.4"/>
	<ellipse class="st2" cx="39.7" cy="115.7" rx="4.7" ry="3.4"/>
	<ellipse class="st2" cx="49.2" cy="115.7" rx="4.7" ry="3.4"/>
	<ellipse class="st2" cx="54.7" cy="113.1" rx="4.7" ry="3.4"/>
	<ellipse class="st2" cx="44.7" cy="118.4" rx="4.7" ry="3.4"/>
	<path class="st2" d="M61.8,73.3C61.8,73.3,61.8,73.3,61.8,73.3c0-0.1,0-0.1,0-0.2c0-0.1,0-0.2-0.1-0.2c-0.1-0.2-0.4-0.2-0.5,0
		c-0.1,0.6-0.3,1-0.6,1.4c-0.1,0-0.1,0.1-0.2,0.1c-2,1.8-4.4,1.4-6.7,2.2c-1.7,0.5-3.1,1.7-4,3.4c-0.1,0.2-0.2,0.5-0.3,0.7
		c-1,2.3-0.8,5.2-0.3,7.6c0,0.1,0.1,0.2,0.3,0.2c-3.1,5.8-5,12.3-5.3,19c-0.8-0.4-1.8-0.7-2.9-0.7c-2.6,0-4.7,1.5-4.7,3.4
		c0,1.9,2.1,3.4,4.7,3.4c1.3,0,2.4-0.4,3.2-0.9c0.8,0.6,2,0.9,3.2,0.9c2.6,0,4.7-1.5,4.7-3.4c0-1.9-2.1-3.4-4.7-3.4
		c-0.7,0-1.4,0.1-2,0.3c0.7-6.1,2.4-12,5-17.5c0,0,0.1,0.1,0.1,0.1c3.9,1.1,7.9-0.7,9.9-4.5c1-2,1.7-4.4,2-6.6
		C63.1,76.9,63,74.9,61.8,73.3z"/>
	<ellipse class="st2" cx="44.2" cy="114.1" rx="4.7" ry="3.4"/>
	<path class="st3" d="M62,75.6c0.1-0.3-0.4-0.5-0.5-0.1c-1.1,2.9-3.8,4.5-6,6.3c0.1-1.4,0.5-2.7,1.3-3.8c0.2-0.3-0.2-0.5-0.4-0.3
		C55.5,78.9,55,80.4,55,82c0,0,0,0.1,0,0.1c-1,0.9-2,2-2.7,3.1c-0.2-1.7-0.4-3.4-0.1-5c0-0.3-0.4-0.5-0.5-0.1
		c-0.3,1.9-0.1,3.7,0.2,5.6c0,0.1,0.1,0.1,0.1,0.2c-0.4,0.7-0.7,1.3-1,2.1c-0.1,0.3,0.4,0.5,0.5,0.1c0.3-0.7,0.6-1.4,1-2.1
		c0,0.1,0.1,0.1,0.2,0.1c2,0,3.9-0.7,5.5-1.9c0.3-0.2,0-0.7-0.3-0.5c-1.5,1.2-3.3,1.8-5.1,1.8c1-1.5,2.3-2.8,3.7-3.9
		c0,0,0.1,0,0.1,0c2,0,3.8-0.9,4.9-2.7c0.2-0.3-0.2-0.5-0.4-0.3c-0.9,1.4-2.3,2.2-3.9,2.4c0.1-0.1,0.2-0.2,0.4-0.3
		C59.3,79.4,61.1,77.8,62,75.6z"/>
	<path class="st2" d="M27.1,73.3C27.2,73.3,27.2,73.3,27.1,73.3c0-0.1,0-0.1,0-0.2c0-0.1,0-0.2,0.1-0.2c0.1-0.2,0.4-0.2,0.5,0
		c0.1,0.6,0.3,1,0.6,1.4c0.1,0,0.1,0.1,0.2,0.1c2,1.8,4.4,1.4,6.7,2.2c1.7,0.5,3.1,1.7,4,3.4c0.1,0.2,0.2,0.5,0.3,0.7
		c1,2.3,0.8,5.2,0.3,7.6c0,0.1-0.1,0.2-0.3,0.2c3.1,5.8,5,12.3,5.3,19c0.8-0.4,1.8-0.7,2.9-0.7c2.6,0,4.7,1.5,4.7,3.4
		c0,1.9-2.1,3.4-4.7,3.4c-1.3,0-2.4-0.4-3.2-0.9c-0.8,0.6-2,0.9-3.2,0.9c-2.6,0-4.7-1.5-4.7-3.4c0-1.9,2.1-3.4,4.7-3.4
		c0.7,0,1.4,0.1,2,0.3c-0.7-6.1-2.4-12-5-17.5c0,0-0.1,0.1-0.1,0.1c-3.9,1.1-7.9-0.7-9.9-4.5c-1-2-1.7-4.4-2-6.6
		C25.9,76.9,25.9,74.9,27.1,73.3z"/>
	<path class="st3" d="M27,75.6c-0.1-0.3,0.4-0.5,0.5-0.1c1.1,2.9,3.8,4.5,6,6.3c-0.1-1.4-0.5-2.7-1.3-3.8c-0.2-0.3,0.2-0.5,0.4-0.3
		c0.9,1.3,1.3,2.8,1.4,4.4c0,0,0,0.1,0,0.1c1,0.9,2,2,2.7,3.1c0.2-1.7,0.4-3.4,0.1-5c0-0.3,0.4-0.5,0.5-0.1c0.3,1.9,0.1,3.7-0.2,5.6
		c0,0.1-0.1,0.1-0.1,0.2c0.4,0.7,0.7,1.3,1,2.1c0.1,0.3-0.4,0.5-0.5,0.1c-0.3-0.7-0.6-1.4-1-2.1c0,0.1-0.1,0.1-0.2,0.1
		c-2,0-3.9-0.7-5.5-1.9c-0.3-0.2,0-0.7,0.3-0.5c1.5,1.2,3.3,1.8,5.1,1.8c-1-1.5-2.3-2.8-3.7-3.9c0,0-0.1,0-0.1,0
		c-2,0-3.8-0.9-4.9-2.7c-0.2-0.3,0.2-0.5,0.4-0.3c0.9,1.4,2.3,2.2,3.9,2.4c-0.1-0.1-0.2-0.2-0.4-0.3C29.6,79.4,27.9,77.8,27,75.6z"
		/>
</g>
<g>
	<ellipse class="st2" cx="112.2" cy="65.7" rx="4.7" ry="3.4"/>
	<ellipse class="st2" cx="117.7" cy="68.4" rx="4.7" ry="3.4"/>
	<ellipse class="st2" cx="127.2" cy="68.4" rx="4.7" ry="3.4"/>
	<ellipse class="st2" cx="132.7" cy="65.7" rx="4.7" ry="3.4"/>
	<ellipse class="st2" cx="122.7" cy="71" rx="4.7" ry="3.4"/>
	<path class="st2" d="M139.8,26C139.8,26,139.8,26,139.8,26c0-0.1,0-0.1,0-0.2c0-0.1,0-0.2-0.1-0.2c-0.1-0.2-0.4-0.2-0.5,0
		c-0.1,0.6-0.3,1-0.6,1.4c-0.1,0-0.1,0.1-0.2,0.1c-2,1.8-4.4,1.4-6.7,2.2c-1.7,0.5-3.1,1.7-4,3.4c-0.1,0.2-0.2,0.5-0.3,0.7
		c-1,2.3-0.8,5.2-0.3,7.6c0,0.1,0.1,0.2,0.3,0.2c-3.1,5.8-5,12.3-5.3,19c-0.8-0.4-1.8-0.7-2.9-0.7c-2.6,0-4.7,1.5-4.7,3.4
		c0,1.9,2.1,3.4,4.7,3.4c1.3,0,2.4-0.4,3.2-0.9c0.8,0.6,2,0.9,3.2,0.9c2.6,0,4.7-1.5,4.7-3.4c0-1.9-2.1-3.4-4.7-3.4
		c-0.7,0-1.4,0.1-2,0.3c0.7-6.1,2.4-12,5-17.5c0,0,0.1,0.1,0.1,0.1c3.9,1.1,7.9-0.7,9.9-4.5c1-2,1.7-4.4,2-6.6
		C141.1,29.5,141,27.6,139.8,26z"/>
	<ellipse class="st2" cx="122.2" cy="66.8" rx="4.7" ry="3.4"/>
	<path class="st3" d="M140,28.2c0.1-0.3-0.4-0.5-0.5-0.1c-1.1,2.9-3.8,4.5-6,6.3c0.1-1.4,0.5-2.7,1.3-3.8c0.2-0.3-0.2-0.5-0.4-0.3
		c-0.9,1.3-1.3,2.8-1.4,4.4c0,0,0,0.1,0,0.1c-1,0.9-2,2-2.7,3.1c-0.2-1.7-0.4-3.4-0.1-5c0-0.3-0.4-0.5-0.5-0.1
		c-0.3,1.9-0.1,3.7,0.2,5.6c0,0.1,0.1,0.1,0.1,0.2c-0.4,0.7-0.7,1.3-1,2.1c-0.1,0.3,0.4,0.5,0.5,0.1c0.3-0.7,0.6-1.4,1-2.1
		c0,0.1,0.1,0.1,0.2,0.1c2,0,3.9-0.7,5.5-1.9c0.3-0.2,0-0.7-0.3-0.5c-1.5,1.2-3.3,1.8-5.1,1.8c1-1.5,2.3-2.8,3.7-3.9
		c0,0,0.1,0,0.1,0c2,0,3.8-0.9,4.9-2.7c0.2-0.3-0.2-0.5-0.4-0.3c-0.9,1.4-2.3,2.2-3.9,2.4c0.1-0.1,0.2-0.2,0.4-0.3
		C137.3,32,139.1,30.5,140,28.2z"/>
	<path class="st2" d="M105.1,26C105.2,26,105.2,26,105.1,26c0-0.1,0-0.1,0-0.2c0-0.1,0-0.2,0.1-0.2c0.1-0.2,0.4-0.2,0.5,0
		c0.1,0.6,0.3,1,0.6,1.4c0.1,0,0.1,0.1,0.2,0.1c2,1.8,4.4,1.4,6.7,2.2c1.7,0.5,3.1,1.7,4,3.4c0.1,0.2,0.2,0.5,0.3,0.7
		c1,2.3,0.8,5.2,0.3,7.6c0,0.1-0.1,0.2-0.3,0.2c3.1,5.8,5,12.3,5.3,19c0.8-0.4,1.8-0.7,2.9-0.7c2.6,0,4.7,1.5,4.7,3.4
		c0,1.9-2.1,3.4-4.7,3.4c-1.3,0-2.4-0.4-3.2-0.9c-0.8,0.6-2,0.9-3.2,0.9c-2.6,0-4.7-1.5-4.7-3.4c0-1.9,2.1-3.4,4.7-3.4
		c0.7,0,1.4,0.1,2,0.3c-0.7-6.1-2.4-12-5-17.5c0,0-0.1,0.1-0.1,0.1c-3.9,1.1-7.9-0.7-9.9-4.5c-1-2-1.7-4.4-2-6.6
		C103.9,29.5,103.9,27.6,105.1,26z"/>
	<path class="st3" d="M105,28.2c-0.1-0.3,0.4-0.5,0.5-0.1c1.1,2.9,3.8,4.5,6,6.3c-0.1-1.4-0.5-2.7-1.3-3.8c-0.2-0.3,0.2-0.5,0.4-0.3
		c0.9,1.3,1.3,2.8,1.4,4.4c0,0,0,0.1,0,0.1c1,0.9,2,2,2.7,3.1c0.2-1.7,0.4-3.4,0.1-5c0-0.3,0.4-0.5,0.5-0.1c0.3,1.9,0.1,3.7-0.2,5.6
		c0,0.1-0.1,0.1-0.1,0.2c0.4,0.7,0.7,1.3,1,2.1c0.1,0.3-0.4,0.5-0.5,0.1c-0.3-0.7-0.6-1.4-1-2.1c0,0.1-0.1,0.1-0.2,0.1
		c-2,0-3.9-0.7-5.5-1.9c-0.3-0.2,0-0.7,0.3-0.5c1.5,1.2,3.3,1.8,5.1,1.8c-1-1.5-2.3-2.8-3.7-3.9c0,0-0.1,0-0.1,0
		c-2,0-3.8-0.9-4.9-2.7c-0.2-0.3,0.2-0.5,0.4-0.3c0.9,1.4,2.3,2.2,3.9,2.4c-0.1-0.1-0.2-0.2-0.4-0.3C107.6,32,105.9,30.5,105,28.2z"
		/>
</g>
<g>
	<ellipse class="st2" cx="53.2" cy="65.7" rx="4.7" ry="3.4"/>
	<ellipse class="st2" cx="58.7" cy="68.4" rx="4.7" ry="3.4"/>
	<ellipse class="st2" cx="68.2" cy="68.4" rx="4.7" ry="3.4"/>
	<ellipse class="st2" cx="73.7" cy="65.7" rx="4.7" ry="3.4"/>
	<ellipse class="st2" cx="63.7" cy="71" rx="4.7" ry="3.4"/>
	<path class="st2" d="M80.8,26C80.8,26,80.8,26,80.8,26c0-0.1,0-0.1,0-0.2c0-0.1,0-0.2-0.1-0.2c-0.1-0.2-0.4-0.2-0.5,0
		c-0.1,0.6-0.3,1-0.6,1.4c-0.1,0-0.1,0.1-0.2,0.1c-2,1.8-4.4,1.4-6.7,2.2c-1.7,0.5-3.1,1.7-4,3.4c-0.1,0.2-0.2,0.5-0.3,0.7
		c-1,2.3-0.8,5.2-0.3,7.6c0,0.1,0.1,0.2,0.3,0.2c-3.1,5.8-5,12.3-5.3,19c-0.8-0.4-1.8-0.7-2.9-0.7c-2.6,0-4.7,1.5-4.7,3.4
		c0,1.9,2.1,3.4,4.7,3.4c1.3,0,2.4-0.4,3.2-0.9c0.8,0.6,2,0.9,3.2,0.9c2.6,0,4.7-1.5,4.7-3.4c0-1.9-2.1-3.4-4.7-3.4
		c-0.7,0-1.4,0.1-2,0.3c0.7-6.1,2.4-12,5-17.5c0,0,0.1,0.1,0.1,0.1c3.9,1.1,7.9-0.7,9.9-4.5c1-2,1.7-4.4,2-6.6
		C82.1,29.5,82,27.6,80.8,26z"/>
	<ellipse class="st2" cx="63.2" cy="66.8" rx="4.7" ry="3.4"/>
	<path class="st3" d="M81,28.2c0.1-0.3-0.4-0.5-0.5-0.1c-1.1,2.9-3.8,4.5-6,6.3c0.1-1.4,0.5-2.7,1.3-3.8c0.2-0.3-0.2-0.5-0.4-0.3
		c-0.9,1.3-1.3,2.8-1.4,4.4c0,0,0,0.1,0,0.1c-1,0.9-2,2-2.7,3.1c-0.2-1.7-0.4-3.4-0.1-5c0-0.3-0.4-0.5-0.5-0.1
		c-0.3,1.9-0.1,3.7,0.2,5.6c0,0.1,0.1,0.1,0.1,0.2c-0.4,0.7-0.7,1.3-1,2.1c-0.1,0.3,0.4,0.5,0.5,0.1c0.3-0.7,0.6-1.4,1-2.1
		c0,0.1,0.1,0.1,0.2,0.1c2,0,3.9-0.7,5.5-1.9c0.3-0.2,0-0.7-0.3-0.5c-1.5,1.2-3.3,1.8-5.1,1.8c1-1.5,2.3-2.8,3.7-3.9
		c0,0,0.1,0,0.1,0c2,0,3.8-0.9,4.9-2.7c0.2-0.3-0.2-0.5-0.4-0.3c-0.9,1.4-2.3,2.2-3.9,2.4c0.1-0.1,0.2-0.2,0.4-0.3
		C78.3,32,80.1,30.5,81,28.2z"/>
	<path class="st2" d="M46.1,26C46.2,26,46.2,26,46.1,26c0-0.1,0-0.1,0-0.2c0-0.1,0-0.2,0.1-0.2c0.1-0.2,0.4-0.2,0.5,0
		c0.1,0.6,0.3,1,0.6,1.4c0.1,0,0.1,0.1,0.2,0.1c2,1.8,4.4,1.4,6.7,2.2c1.7,0.5,3.1,1.7,4,3.4c0.1,0.2,0.2,0.5,0.3,0.7
		c1,2.3,0.8,5.2,0.3,7.6c0,0.1-0.1,0.2-0.3,0.2c3.1,5.8,5,12.3,5.3,19c0.8-0.4,1.8-0.7,2.9-0.7c2.6,0,4.7,1.5,4.7,3.4
		c0,1.9-2.1,3.4-4.7,3.4c-1.3,0-2.4-0.4-3.2-0.9c-0.8,0.6-2,0.9-3.2,0.9c-2.6,0-4.7-1.5-4.7-3.4c0-1.9,2.1-3.4,4.7-3.4
		c0.7,0,1.4,0.1,2,0.3c-0.7-6.1-2.4-12-5-17.5c0,0-0.1,0.1-0.1,0.1c-3.9,1.1-7.9-0.7-9.9-4.5c-1-2-1.7-4.4-2-6.6
		C44.9,29.5,44.9,27.6,46.1,26z"/>
	<path class="st3" d="M46,28.2c-0.1-0.3,0.4-0.5,0.5-0.1c1.1,2.9,3.8,4.5,6,6.3c-0.1-1.4-0.5-2.7-1.3-3.8c-0.2-0.3,0.2-0.5,0.4-0.3
		c0.9,1.3,1.3,2.8,1.4,4.4c0,0,0,0.1,0,0.1c1,0.9,2,2,2.7,3.1c0.2-1.7,0.4-3.4,0.1-5c0-0.3,0.4-0.5,0.5-0.1c0.3,1.9,0.1,3.7-0.2,5.6
		c0,0.1-0.1,0.1-0.1,0.2c0.4,0.7,0.7,1.3,1,2.1c0.1,0.3-0.4,0.5-0.5,0.1c-0.3-0.7-0.6-1.4-1-2.1c0,0.1-0.1,0.1-0.2,0.1
		c-2,0-3.9-0.7-5.5-1.9c-0.3-0.2,0-0.7,0.3-0.5c1.5,1.2,3.3,1.8,5.1,1.8c-1-1.5-2.3-2.8-3.7-3.9c0,0-0.1,0-0.1,0
		c-2,0-3.8-0.9-4.9-2.7c-0.2-0.3,0.2-0.5,0.4-0.3c0.9,1.4,2.3,2.2,3.9,2.4c-0.1-0.1-0.2-0.2-0.4-0.3C48.6,32,46.9,30.5,46,28.2z"/>
</g>
<g>
	<path class="st2" d="M120.4,102.5c0-0.1-0.1-0.2-0.2-0.2c-0.2,0-0.4-0.1-0.6-0.2l0.3-0.2l0.8-2l0.8-2v-0.9l-1.5-0.6h-2.3l-2.2,1.3
		l-1,1.8c-0.5-0.2-1.1-0.4-1.6-0.6c0,0,0,0-0.1,0c-0.1,0-0.1-0.1-0.2-0.1h0.2l0.8-0.7v-2.1l-0.8-1.4L112,93l-0.9-1.6l-0.6-1.5V88
		l-0.8,1.9l0.2,1.8l0.2,2l0.4,1.2l0.2,1l0.1,0.8v0.8l-0.2,0.2c-0.5-0.5-1.1-0.6-1.7-0.7c-0.7-0.2-1.4-0.7-2.2-0.7
		c-0.8,0-1.8,0.3-2.5,0.6c-0.6,0.2-1.1,0.6-1.1,1.3h-0.6l-1.6-0.8l-1.8-1.3l-1.8-5.1l-0.5,2v1.5l0.6,2.5l1.7,2.1l1.8,1
		c-0.7,0.7-1.2,1.6-2,2.1c0,0,0,0,0,0l-3.4-0.7l-1.9,0.2l-1.4,0.5l0.6,1.9l0.6,1.3l1.4,0.8l0.9,0.1l1,0.8l0.3,0.9l0.4,1.1
		c0,0,0,0,0,0c0,1.4-1,2.9-1.7,4.1c-0.7,1.3-1.6,2.5-2.5,3.6c-0.1,0.1-0.1,0.1,0,0.2l-0.4,0.1l-1.2,1.7l0.6,1.4v1.9l1.1,0.9l1.1-0.4
		l1.7,0.1h2l1.1-0.4l-1.4,1h-3l1,0.6l1.6,0.4l1.9-0.2l1.1-0.8c1.2,0.2,2.4,0.5,3.6,0.2c0.2,0,0.4-0.1,0.6-0.2c0,0.1,0,0.3,0.2,0.3
		c2.1-0.1,4.2-0.3,6.3-0.9c0.4-0.1,0.8-0.2,1.2-0.4c0,0,0,0,0,0c1.9,1,3.4,2.8,4.5,4.6c0,0,0.1,0.1,0.1,0.1l0,0.1l0.1-0.1
		c0.1,0,0.2-0.1,0.2-0.2l0.8-0.9l0.9-2.8l0.7-2.9v-7.6l0.3-3.6l0.5-3.2l1.6-2.9L120.4,102.5z M118.6,104l-1.2,2.1l0.1,1.8l0.8,1.4
		l0.4,1.7l-0.1,2.3v2.8l-0.2,3l-0.2,2.5l-0.5,2.5l-0.6,2.4c-1.1-1.7-2.5-3.4-4.3-4.4c0.2-0.1,0.4-0.3,0.6-0.5c0.6-0.6,1.1-1.3,1.5-2
		c0.1-0.2-0.2-0.4-0.3-0.2c-0.4,0.7-0.8,1.4-1.4,1.9c-0.7,0.6-1.6,0.9-2.5,1.1c-1.8,0.5-3.6,0.7-5.5,0.8c0.2-0.1,0.4-0.2,0.6-0.3
		c0.3-0.1,0.5-0.3,0.8-0.4c0.3-0.2,0.8-0.6,1.1-0.5c0.3,0.1,0.4-0.3,0.1-0.4c-0.4-0.1-0.8,0.2-1.1,0.4c-0.5,0.3-1.1,0.7-1.7,0.9
		c-1.3,0.6-2.7,0.3-4,0.1l0.3-1.2c0.9,0,1.6-0.6,2.2-1.2c0,0,0,0.1,0.1,0.1c0.1,0.2,0.5,0.1,0.4-0.1c-0.1-0.3-0.4-0.6-0.7-0.6
		c-0.3,0-0.4,0.3-0.1,0.4c0,0,0,0,0,0c-0.5,0.5-1.1,1.1-1.9,1.1l-0.2-1.2l-1.3-1.6l-0.9-1.3l-1.4-0.8H96l-1.6,0.3l-0.3,0.1
		c0.9-1.1,1.7-2.4,2.5-3.6c0.7-1.2,1.6-2.7,1.6-4.1c0-0.1-0.1-0.2-0.1-0.2l0.5-0.9l0.3-0.9v-0.6l-0.8-0.8l-0.2-1.5v-1l1-0.5l0.4-0.3
		c0.1,0.1,0.2,0.1,0.3,0.1c1-0.6,1.5-1.7,2.5-2.5c0.1-0.1,0.1-0.1,0.1-0.2l0.7-0.4l0.8-1c0.1,0,0.2,0,0.2-0.2
		c-0.1-0.9,1.2-1.1,1.9-1.3c0.8-0.2,1.4-0.3,2.2,0c0.4,0.2,0.8,0.4,1.3,0.5c0.5,0.1,1.1,0.2,1.5,0.6l0,0l1.1,0.7h0.1
		c0.3,0.2,0.7,0.4,1.1,0.6c0,0,0.1,0,0.1,0c0.4,0.2,0.8,0.3,1.3,0.5l0,0l-0.5,1.6l-0.8-0.2l-0.6-0.9l-1.2-0.5l-1.4-0.2l-1.1-0.4
		l-2,1.4l-1.9,1.9l-1.4,2.2l0.2,3.7l-1.7,5.1l1.4,1.4l0.5,0.7l0.8,1.4l1.6-0.3l1.4-1.4l1.1-0.3l1.6,0.1l1.9,0.6h1.2l1.3-0.3l0.6-2.1
		l0-0.1c0.4,1.5,0.6,3.1-0.4,4.3c-0.2,0.2,0.2,0.4,0.3,0.2c1.5-1.9,0.4-4.3,0-6.3c0-0.2-0.3-0.2-0.4,0l-0.7-1.2v-0.7l0.4-1l-0.1-1.6
		v-1.6l3.4-1.6l1.4-1.3c0.1,0.1,0.3,0.2,0.4,0.2L118.6,104z"/>
	<path class="st2" d="M117.6,115.3c-0.3-1.8-1.3-3.4-1.3-5.3c0-0.3-0.4-0.3-0.4,0c0,1.6,0.7,2.9,1.1,4.4c0.2,0.8,0.3,1.7,0.3,2.5
		c0,0.8,0.1,1.8-0.5,2.4c-0.2,0.2,0.1,0.5,0.3,0.3c0.4-0.5,0.6-1,0.6-1.7C117.8,117.1,117.7,116.2,117.6,115.3z"/>
	<polygon class="st3" points="105.9,106.3 106.4,105.5 107.3,105 108.2,105 108.8,105.3 108.8,106.3 107.8,107.3 106.8,107 	"/>
	<polygon class="st3" points="95.8,119.9 95.8,119.2 96.6,118.8 97.5,118.8 98.1,119.1 97.8,119.9 96.9,120.5 	"/>
	<ellipse class="st2" cx="107.4" cy="105.7" rx="0.8" ry="0.8"/>
</g>
<path class="st3" d="M102.6,95.7c-0.5-0.1-1-0.2-1.6-0.2c0-0.1-0.1-0.3-0.2-0.3c-0.5-0.3-0.9,0-1.3,0.2c-0.1,0-0.1,0.1-0.2,0.1
	c0,0-0.1,0-0.1-0.1c0,0,0,0,0,0c0.1-0.1,0.1-0.2,0.1-0.2c0.2-0.1,0.3-0.2,0.5-0.3c0.5-0.3,0.1-1-0.4-0.9c0-0.2-0.2-0.4-0.4-0.4
	c0-0.1,0-0.2-0.1-0.3c0-0.1,0.1-0.1,0.1-0.2c0.1-0.2,0-0.4-0.2-0.6c-0.1-0.1-0.3-0.1-0.5-0.2c0,0,0,0,0-0.1c0.4-0.4,0.7-0.8,0.8-1.3
	c0.1-0.4-0.2-0.7-0.6-0.6c-0.7,0.2-1.2,0.5-1.7,1c-0.2,0.2-0.2,0.5,0,0.7c-0.1,0.1-0.1,0.2-0.1,0.3c-0.3,0.2-0.7,0.5-0.9,0.6
	c-0.4,0.3,0,0.9,0.4,0.8c-0.1,0.3,0.1,0.6,0.4,0.6c-0.2,0.1-0.3,0.3-0.5,0.5c-0.2,0.3,0,0.6,0.3,0.7c-0.1,0.3,0.1,0.6,0.3,0.6
	c0.1,0.1,0.2,0.1,0.4,0.1c0,0,0.1,0,0.1,0c-0.2,0.2-0.3,0.4-0.5,0.6c0,0,0,0,0,0c0,0,0,0,0,0c0,0-0.1,0.1-0.1,0.1
	c-0.1,0.2-0.1,0.4,0,0.5c-0.1,0.3-0.3,0.6-0.4,0.9c-0.2,0.6,0.6,0.8,0.9,0.4c0.1-0.1,0.2-0.2,0.2-0.3c0,0.1,0.1,0.1,0.1,0.2
	c0.1,0.8,0.5,1.6,1.2,1.7c0.1,0.1,0.2,0.2,0.2,0.3c0.5,0.5,1.2-0.2,0.7-0.7c-1.5-1.6,1.4-2.5,2.5-2.4c0.4,0,0.5-0.3,0.5-0.6
	C103.1,96.5,103.1,95.8,102.6,95.7z"/>
<path class="st3" d="M115,96c-0.2-0.9-0.9-1.4-1.8-1.5c0-0.2-0.2-0.5-0.5-0.5c0,0-0.1,0-0.1,0c0.5-0.3,1.1-0.5,1.6-0.8
	c0.5-0.3,0.2-1.1-0.4-0.9c-0.2,0.1-0.4,0.1-0.6,0.2c-0.1-0.2-0.3-0.3-0.5-0.2c-0.1,0-0.3,0.1-0.4,0.1c0-0.2-0.2-0.4-0.5-0.5
	c0-0.1-0.1-0.3-0.3-0.3c0,0,0,0,0,0c0.3-0.3,0-0.9-0.4-0.8c-0.1-0.1-0.1-0.2-0.3-0.2c0-0.3-0.1-0.5-0.1-0.8c0-0.1,0-0.1-0.1-0.2
	c0.2-0.1,0.4-0.3,0.6-0.5c0.2-0.2,0.2-0.5,0-0.7c-0.2-0.2-0.4-0.3-0.6-0.5c-0.3-0.2-0.7-0.2-0.8,0.2c-0.1,0.3-0.1,0.6-0.2,0.9
	c-0.1,0-0.1,0.1-0.1,0.1c-0.3,0.2-0.6,0.4-0.9,0.6c-0.3,0.2-0.1,0.6,0.1,0.8c0,0-0.1,0.1-0.1,0.1c-0.4,0.3-0.3,0.9,0.2,0.9
	c-0.2,0.3,0.1,0.9,0.6,0.7c0.1,0,0.2-0.1,0.3-0.1c0,0,0,0.1,0,0.1c-0.2,0.1-0.5,0.2-0.7,0.4c-0.4,0.2-0.2,0.9,0.2,0.9
	c0,0.3,0.3,0.5,0.5,0.5c-0.2,0.1-0.4,0.2-0.5,0.2c-0.6,0.2-0.4,1.1,0.3,1c0.3-0.1,0.6-0.1,1-0.1c-0.5,0.4-0.8,0.9-0.8,1.5
	c0,0.6,1,0.6,1,0c0-1.3,2.8-1.7,3-0.4C114.1,96.9,115.1,96.6,115,96z"/>
<path class="st3" d="M108.6,121.2c-1.3,0-3,0.6-4.3,0.2c-0.3-0.1-0.5-0.3-0.7-0.5c0.4-0.1,0.6-0.6,0.3-0.9c-0.3-0.2-0.6-0.4-0.9-0.4
	c-0.1,0-0.2,0-0.3,0c-0.1,0-0.2,0-0.2,0.1c-0.3,0.2-0.4,0.5-0.4,0.8c-0.2,0-0.4,0.1-0.5,0.3c-0.1,0.3-0.1,0.5-0.1,0.8
	c0,0.2,0.1,0.3,0.2,0.4c0,0,0,0,0,0.1c0.1,0.4,0.7,0.5,0.9,0.1c0,0,0,0,0,0c0.1,0,0.2-0.1,0.3-0.2c0.3,0.3,0.9,0.4,1.3,0.5
	c1.5,0.2,3-0.2,4.4-0.2C109.2,122.2,109.3,121.2,108.6,121.2z"/>
<path class="st3" d="M117.9,115.6c-0.5-2-1.1-4-1.6-6c-0.2-0.6-1.1-0.4-1,0.3c0.1,0.4,0.2,0.9,0.4,1.3c-0.1-0.1-0.2-0.2-0.4-0.2
	c-0.6,0-0.6,1,0,1c0.3,0,0.5-0.2,0.5-0.5c0.2,0.7,0.3,1.3,0.5,2c-0.2,0.1-0.3,0.3-0.2,0.5c0.6,1.8,1.2,3.7,0.4,5.6
	c-0.3,0.6,0.6,1.1,0.9,0.5c0.6-1.3,0.6-2.6,0.3-3.9C117.8,116,117.9,115.9,117.9,115.6z"/>
</svg>
