<svg id="Layer_1" data-name="Layer 1" xmlns="http://www.w3.org/2000/svg" viewBox="0 0 162.45 162.45"><defs><style>.cls-1,.cls-2{fill:#f2f2f2;}.cls-1,.cls-4{stroke:#102773;stroke-miterlimit:10;}.cls-1{stroke-width:6.45px;}.cls-3{fill:#102773;}.cls-4{fill:none;stroke-width:7.05px;}</style></defs><title>Electric_car_ownership</title><rect class="cls-1" x="3.22" y="3.22" width="156" height="156"/><rect class="cls-2" x="40.22" y="115.22" width="4" height="10"/><rect class="cls-2" x="56.22" y="115.22" width="4" height="10"/><rect class="cls-2" x="104.22" y="115.22" width="4" height="10"/><rect class="cls-2" x="120.22" y="115.22" width="4" height="10"/><rect class="cls-3" x="80.95" y="100.47" width="18.19" height="23.6" rx="7" ry="7"/><rect class="cls-3" x="19.87" y="72.94" width="88.36" height="35.18" rx="11.5" ry="11.5"/><ellipse class="cls-2" cx="39.37" cy="91.29" rx="7.8" ry="9.18"/><ellipse class="cls-2" cx="90.04" cy="91.29" rx="7.8" ry="9.18"/><polyline class="cls-4" points="100.44 87.16 82.41 36.23 46.35 36.23 28.32 87.16"/><ellipse class="cls-3" cx="101.74" cy="71.41" rx="5.85" ry="3.82"/><ellipse class="cls-3" cx="25.4" cy="71.02" rx="6.17" ry="4.21"/><rect class="cls-3" x="30.27" y="100.47" width="18.19" height="23.6" rx="7" ry="7"/><rect class="cls-3" x="104.34" y="80.58" width="24.69" height="3.06"/><path class="cls-3" d="M128.8,88c-5,0-9.1-2.74-9.1-6.12s4.07-6.12,9.1-6.12" transform="translate(0.22 0.22)"/><rect class="cls-3" x="127.73" y="77.52" width="6.5" height="3.06"/><rect class="cls-3" x="127.73" y="83.64" width="6.5" height="3.06"/><rect class="cls-3" x="135.22" y="67.22" width="13" height="53"/><rect class="cls-3" x="129.22" y="121.22" width="25" height="8"/></svg>