<svg xmlns="http://www.w3.org/2000/svg" xmlns:xlink="http://www.w3.org/1999/xlink" viewBox="0 0 1091.02 1921"><defs><style>.cls-1{fill:url(#linear-gradient);}.cls-2{fill:#748e4f;}.cls-10,.cls-3{fill:#102773;}.cls-11,.cls-13,.cls-15,.cls-16,.cls-3,.cls-4,.cls-5,.cls-6,.cls-7,.cls-8,.cls-9{opacity:0.5;}.cls-4{fill:#1b3d9e;}.cls-5{fill:#04a5bf;}.cls-6{fill:#06a2f9;}.cls-7{fill:#0470bf;}.cls-8{fill:#2ccdff;}.cls-9{fill:none;stroke:#102773;stroke-miterlimit:10;stroke-width:3.95px;}.cls-10{opacity:0.8;}.cls-12,.cls-13{fill:#edc25b;}.cls-14,.cls-15{fill:#fff;}.cls-16,.cls-17{fill:#a9ecfc;}.cls-18{fill:#f9f278;opacity:0.6;}</style><linearGradient id="linear-gradient" x1="570.69" y1="938.86" x2="1661.2" y2="938.86" gradientUnits="userSpaceOnUse"><stop offset="0.4" stop-color="#79bbce"/><stop offset="0.64" stop-color="#78b9cd"/><stop offset="0.73" stop-color="#73b2c9"/><stop offset="0.79" stop-color="#6aa6c1"/><stop offset="0.85" stop-color="#5e95b6"/><stop offset="0.9" stop-color="#4e7ea9"/><stop offset="0.94" stop-color="#3a6298"/><stop offset="0.97" stop-color="#234284"/><stop offset="1" stop-color="#102773"/></linearGradient></defs><title>Game_1_Final_screen_background</title><g id="illustration"><path class="cls-1" d="M1087,1492.92c-1-41.1-1.2-99.59-1.31-109-1.43-120.78-1.49-241.58-1.54-362.36-.05-117.17.21-234.37,1.44-351.54-1.31-117.36-1.38-234.74-1.44-352.11q-.07-158.92,1.1-317.87H.42q.5,108.67.41,217.35Q.89,348.29.15,479.26C.74,568,.79,656.69.83,745.4Q.9,915-.49,1084.62q0,5.35,0,10.69,0,98.72-.33,197.46.21,55.11.26,110.22C.7,1518.43.77,1633.89.83,1749.34q0,20.4,0,40.81c15-5.8,31.46-8.22,47.46-9.67,10.55-1,21.13-1.25,31.72-1.32a23.18,23.18,0,0,1,16.86-7c21.86.75,43.65-1,65.45-2.3a428.49,428.49,0,0,1,48.21.1c4.58-.48,9.2-.79,13.88-.83a23.06,23.06,0,0,1,7.28,1.1h4.7c.57,0,1.15-.08,1.73-.08,20,0,40-1,60.08-1a23.18,23.18,0,0,1,10.72,2.56c6.23,0,12.46.07,18.68.22,10.22-.48,20.44-.75,30.68-.77a23,23,0,0,1,12.65,3.68c7,.84,14,1.87,20.95,3.17,12.55,2.35,18.65,15.86,16.4,26.8a23.28,23.28,0,0,1,1.26,2.14c9.62.47,19,2.29,28,7.61,7,4.18,11.53,11.22,11.53,19.25,0,7.09-4.26,16.26-11.53,19.25-15.46,6.34-31.37,8.92-47.69,10.94a23.54,23.54,0,0,1,7.32,13.76H617a45.68,45.68,0,0,1,7.21-.07c12.46-.14,36.2-.17,45,0,9.09-.15,29.9-.17,42.2-.06,4.27-.48,23.16-.15,37.72.1h337.41c-.15-9-.17-29.08-.05-40.92-.13-13.91-.1-38.15.14-43.7-.23-6.53-.28-33.75-.12-46.58-.08-8.84-.13-20.7-.1-29.62l-1,0c-.27,0-.57-54.76,0-54.77l1,0c0-9.1,0-20.08,0-27.92h-1c-.36,0-.41-39.32-.16-51.32-.22-12.86-.24-50.52.16-50.52h1c-.08-16.2,0-39.43.29-39.43Z" transform="translate(4.02 0)"/><path class="cls-2" d="M1086,1521.78c-1-42.69-1.2-103.43-1.31-113.25-1.42-125.44-1.49-250.9-1.54-376.35q0-2.82,0-5.65l-8.42-24.42-18.56-53.81-27.23-78.9-5.35-15.51v0l-16.13-46.76s0,0,0,0l-.29-.85h0L994,768.11l-10.7-31-1.58-4.57-.52-1.52-30.13.2-9.23.06-28.94.2h-1.71l-35.48.24h0l-21.27.14-2.82,0-5.64,0h-.88l-2.94,0h-2.34s0,0,0,0l-2.29,0-5.38,0h-.26l-8.45.06-5.64,0-8.46.06-5.64,0-8.45.06-5.64,0-8.46.06-5.63,0-8.46.06-5.64,0-8.46.06-3.67,0-153.92,1.06H593l-31.9.21-104.68.72h-1.87l-20.75.14-51.47.36-23.13.15-13.32.09-11.09.08-105,.71-22.58.15h0l-25.06.17h0l-49.33.35-16.49.11H114l-25,.17L81.56,758l-2.86,8.13L39,878.42,24.86,918.6,1.15,985.74q-.29,56-.83,112.07,0,5.51,0,11,0,102.53-.33,205.08.21,57.23.26,114.47c1.25,119.9,1.32,239.81,1.37,359.72q0,18.9,0,37.81c15.57-6.69,32.83-9.39,49.59-11,10.54-1,21.1-1.3,31.67-1.37,4.4-4.58,10.54-7.52,16.84-7.3,21.83.78,43.59-1.08,65.36-2.39a411.46,411.46,0,0,1,48.15.11c4.57-.5,9.18-.82,13.86-.86a22.21,22.21,0,0,1,7.27,1.14h4.69c.57,0,1.15-.08,1.72-.08,20,0,40-1,60-1a22.43,22.43,0,0,1,10.71,2.66c6.22,0,12.44.07,18.66.23,10.2-.49,20.41-.78,30.63-.8a22.38,22.38,0,0,1,12.63,3.82c7,.87,14,1.94,20.92,3.29,12.53,2.44,18.63,16.48,16.37,27.83a24.41,24.41,0,0,1,1.26,2.22c9.6.49,19,2.38,27.92,7.91a23.49,23.49,0,0,1,11.52,20c0,7.37-4.26,16.89-11.52,20-15.44,6.58-31.33,9.26-47.63,11.36a24.86,24.86,0,0,1,7.56,16.85,19.35,19.35,0,0,1-.06,2.52h6.68c26.17-3.09,52.53-3.64,79,0l135-.08,114.77-.07,350.41-.2c-.14-9.71-.15-29.71,0-41.66-.13-14.44-.1-39.62.14-45.39-.23-6.78-.28-35.05-.12-48.38-.08-9.19-.13-21.5-.1-30.77l-1,0c-.27,0-.57-56.88,0-56.88l1,0c0-9.45,0-20.85,0-29h-1c-.36,0-.41-40.84-.16-53.31-.22-13.36-.24-52.47.16-52.47h1c-.08-16.83,0-41,.29-41Z" transform="translate(4.02 0)"/><path class="cls-3" d="M381.79,643.37a5.31,5.31,0,0,0,.83-3q-1.1-32.7-.82-65.42.15-16.11.65-32.22c.29-9.4,1.54-19.43-2.26-28.34a7.35,7.35,0,0,0-.85-1.47c.76-5.55,1.7-11.08,2.47-16.58.38-2.67-.46-5.29-2.78-6.61,0-.32,0-.64.06-1,.67-11.44,1.88-23.08.15-34.45,2.13-2.05,1.68-4.86.07-6.91.05-.36.1-.71.15-1.07a6.34,6.34,0,0,0,0-1.88c3.16-3.19,1.8-10.09-4.12-10.14l-54.15-.49c-3.08-3.32-10.44-2-10.66,3.87a510.21,510.21,0,0,0,1.13,58.13,5.48,5.48,0,0,0-.92,2.34c-1.55,9.46-.71,18.74.5,28,0,.08,0,.16,0,.25a126,126,0,0,0,.49,14.45c0,.86,0,1.71,0,2.57a6.29,6.29,0,0,0-1,3.1,50.8,50.8,0,0,0,.45,9.88c.09,7.23-.26,14.4-.57,21.7-.43,10.26,9.92,9.13,17.64,8.45l1.84,29a5.53,5.53,0,0,0-1.93,4.14c-.39,17.4-.28,35.72,2.71,53.31a6.44,6.44,0,0,0-.2,1.76l1,58.28a6,6,0,0,0,6,5.87l15.65-.15a5.7,5.7,0,0,0,4.47-2,6.64,6.64,0,0,0,4.09.78,6.27,6.27,0,0,0,8.3.18c3.59-3,2.65-8.36,2.66-12.51q0-8.68-.1-17.36-.1-8.2-.31-16.39c-.12-4.81.22-10-1.69-14.52a6.42,6.42,0,0,0-1-1.64l1-22.71c2.15.07,4.3.18,6.45.37,3.23.29,6-2.9,6-5.87A5.43,5.43,0,0,0,381.79,643.37Z" transform="translate(4.02 0)"/><path class="cls-3" d="M276.49,452a7,7,0,0,0-.42-2.11,414.56,414.56,0,0,0,2.95-78,5.59,5.59,0,0,0-1.32-3.3c1-4.33.67-9.57,1-13.79a5.74,5.74,0,0,0-2.52-4.78,6.45,6.45,0,0,0,2-6.16l-.57-2.91c-.49-2.48-3.3-4.34-5.78-4.31q-52.16.64-104.32.59c-4.2,0-6.2,3.56-5.81,7.16a6.11,6.11,0,0,0,.33,4,36.87,36.87,0,0,1-.36,6.7,7.17,7.17,0,0,0,1,4.94c-5.7,5-.26,11.65,5.81,12.3,16.51,1.79,33.57,1.59,50.17,1.61q13.11,0,26.23-.4c5,.84,10,1.66,15,2q.07,14.27.14,28.53a6.31,6.31,0,0,0-.45,2.11q-1.91,42.21-2,84.46a5.73,5.73,0,0,0,.08.94L257,535.73c-.23,13.37-1.66,27.42.55,40.74a5.72,5.72,0,0,0-1,3.19V580a6,6,0,0,0,1.76,4.15,6.16,6.16,0,0,0,4.24,1.72,7.57,7.57,0,0,0,2-.37,6.84,6.84,0,0,0,6.28-.47c3.52.79,7.44-1,6.87-5.39q-.64-4.91-1.1-9.82a5.42,5.42,0,0,0,1.5-3.9l.17-81.36a6,6,0,0,0-1.47-3.74Q277.17,466.46,276.49,452Z" transform="translate(4.02 0)"/><path class="cls-3" d="M1074.66,333.61l-.09-.08q0-.38,0-.75l.06-1.56q0-4,0-8,0-15,0-30a5.71,5.71,0,0,0-.68-.65q.37-2.12.68-4.25,0-10.77,0-21.55c-2.16-2.14-6.15-2.17-8.69,0l-38.61-.74a143.42,143.42,0,0,0-20.68-.39,6.52,6.52,0,0,0-2.66.69q-6.5-.29-13-.68l-18.19-1.27a5.42,5.42,0,0,0-3.66.94,122.27,122.27,0,0,0-19.47-2.69,5.63,5.63,0,0,0-1.84.19l-2.1-.9c-2.74-1.17-5.81-1-7.73,1.51a6,6,0,0,0-.7,6.13,5.84,5.84,0,0,0,.88,4.58,4.66,4.66,0,0,0-2.28,4.65c.48,4.14.33,10,1.5,15,.11,1.5.24,3,.38,4.49-3.6,2.93-2.35,10.37,3.78,10.56q18.91.6,37.83.42c0,.09,0,.17.05.26,2.68,10.51,1.4,21.37.89,32.07q-.85,17.94-.48,35.92c.11,5.33-.52,11.55.87,16.73s6.24,5.57,10.83,5.72l35.81,1.23a6,6,0,0,0,6-5.87l2-50.48q8.52-.63,17-1.63c5,.71,10.89,1.72,15.8.78.21,0,.4-.1.6-.15a6.26,6.26,0,0,0,2.33.43,5.76,5.76,0,0,0,3.55-1.11Q1074.66,338.37,1074.66,333.61Z" transform="translate(4.02 0)"/><path class="cls-3" d="M894.81,721.56a23.84,23.84,0,0,0-1.9-5.4,5.3,5.3,0,0,0,1.66-4,28.79,28.79,0,0,1,.23-5.92,6,6,0,0,0-3.64-6.93q-.2-29.91,2.28-59.74a5,5,0,0,0-1.09-3.78,6,6,0,0,0-5.86-6.05l-17.2-1.35a29.05,29.05,0,0,0-4.2-.1c-.13-2.48-.25-5-.36-7.45A272.33,272.33,0,0,1,866,579.46a4.64,4.64,0,0,0-2.22-4.8c-.58-3.52-4.21-6.39-7.47-5.21a5.05,5.05,0,0,0-1.93-.31,7.06,7.06,0,0,0-2.39.51,6.76,6.76,0,0,0-4.2-.69c-.29-25.62-1.76-51.25,0-76.84.31-4.52-3.87-6.32-7.39-5.41a6.91,6.91,0,0,0-5.69-.18l.19-44.9.12-26.92c0-8.8-.7-18,.49-26.77.43-3.17-3.06-5.84-6-5.87a5.78,5.78,0,0,0-2.37.45c.18-18.63.33-37.26-.26-55.89a5.6,5.6,0,0,0,.24-1.52q0-4.43-.11-8.87a6.08,6.08,0,0,0-.72-2.67,6,6,0,0,0-5.9-5.14,6.17,6.17,0,0,0-3.31,1,6.65,6.65,0,0,0-4,1.07,630.78,630.78,0,0,1-15.26-1.05,6.7,6.7,0,0,0-8.13,0,6.78,6.78,0,0,0-7.45,0c-3-4.43-11.8-1.21-10.72,5.32.67,4,1.13,8.1,1.43,12.16a5.92,5.92,0,0,0-.56,2.62q.21,75.71-1.17,151.42-8.28-.13-16.55-.64a5.62,5.62,0,0,0-4.08-1.56c-5.4,0-7,5.74-4.86,9.19,0,.05,0,.1-.06.16a5.83,5.83,0,0,0,.6,4.52l.15.19a6.46,6.46,0,0,0,.43,6.73c-.35,3.16,1.55,6.62,5.74,6.64l69.13.37c-1.17,4.34-1,8.88-.92,13.37q.13,8.73.4,17.46.28,9.59.64,19.17a6.38,6.38,0,0,0-.48,1.27c-7.24,27.61-.39,55.94-2.1,83.94a5,5,0,0,0,1.87,4.44c-.64,28.64-1.17,57.29-2.12,85.93-.2,6,7.22,7.21,10.48,3.76,1.58,2.18,4.48,2.42,6.88,1.33.22.1.44.21.68.3,3.4,1.16,7,.93,10.48.59a111.48,111.48,0,0,1,11.42-.33c9.93.07,19.83-1.24,29.74-1.74a6,6,0,0,0,4.85-9.3A5.78,5.78,0,0,0,894.81,721.56Z" transform="translate(4.02 0)"/><path class="cls-4" d="M259.54,382.35a5.8,5.8,0,0,0-.89-3,5.3,5.3,0,0,0-.84-1.09,1.89,1.89,0,0,0-.13-.24,6,6,0,0,0-3.58-2.7,6.16,6.16,0,0,0-4.61.59,6.42,6.42,0,0,0-1.19,1,60.8,60.8,0,0,0-10-.67c-.12,0-.21,0-.32,0s-.47-.06-.72-.07q-3.36-.15-6.71-.19a7.7,7.7,0,0,0-1.56.16l-4.9-.43c-3.95-.33-9.1-1.68-13-.16a54,54,0,0,0-7.68-1.57h-.61a93.59,93.59,0,0,0-10.16-.79c-7.18-.22-14.36-.37-21.55-.53h0l-9.72-.22a5.53,5.53,0,0,0-3.78,1.2,123.5,123.5,0,0,1-16.9-2.26c-2.25-.49-4.47-1.07-6.66-1.77a5.91,5.91,0,0,0-2.23-.3,5.16,5.16,0,0,0-.68.08c-.25-14,.32-27.92.68-41.88.19-7.32.33-14.62.26-21.93,0-3.59-.11-7.18-.26-10.77-.26-6.43-.73-12.84-1.51-19.25a6.29,6.29,0,0,0-.34-1.42c.63-6.31,1.3-12.63,1.85-18.94.71-8.07,1.22-16.15,1.19-24.24a5.45,5.45,0,0,0-1.19-3.53,6.58,6.58,0,0,0-8.28-1.19,6.16,6.16,0,0,0-2.08.13,5.06,5.06,0,0,0-3-2,5.81,5.81,0,0,0-1.57-.12l-1.65.12q-2.76.21-5.48.53c0-10.66-.28-21.32-1.16-31.94a4.77,4.77,0,0,0,.7-.57l.47-.46a6.17,6.17,0,0,0,1.07-1.44,5.67,5.67,0,0,0,0-5.42,4.79,4.79,0,0,0-1.07-1.44,7.9,7.9,0,0,0-1-.74q1.56-37.86,1.77-75.75a5.46,5.46,0,0,0-1.44-3.86q.48-5.6.84-11.22a4.9,4.9,0,0,0-2.76-5h0a6.67,6.67,0,0,0-4.37-.47h0a4.33,4.33,0,0,0-.59.15c0-.07,0-.15,0-.22.42-5.76.81-11.52,1.09-17.28a9.11,9.11,0,0,0-1.48-6,7.9,7.9,0,0,0-3.3-2.61C95,59,89.94,59,85.48,59h0c-1.27,0-2.49,0-3.62-.07a5.49,5.49,0,0,0-3.61,1,5.33,5.33,0,0,0-2,3.13,5.53,5.53,0,0,0-.39,1.06c-.06.22-.11.44-.17.66s-.13.19-.19.29a43.14,43.14,0,0,0-5.62,17.21h0a92.31,92.31,0,0,0-.64,12c0,12.09.32,24.19.49,36.27l.18,12.35a6.1,6.1,0,0,0-2.1,2V145a5.93,5.93,0,0,0-.63,2.7q-.06,9.46-.14,18.92a6.17,6.17,0,0,0,.64,2.88c0,1.41.06,2.81.08,4.22q1.06,53.72.9,107.46c0,.24,0,.47,0,.69a8.06,8.06,0,0,0-1.15,1.1c-1.51,1.76-2,4.06-.22,7.06l.2.32v0l.14.18-.14.12a5.32,5.32,0,0,0-1.79,5.82A12.62,12.62,0,0,0,67,299.25c-1.65,2.13-1.15,5.28.49,7.3l.21.25a6.06,6.06,0,0,0,2.77,1.68,24.74,24.74,0,0,0,6.85.6h.45a101.27,101.27,0,0,0,11-.35l.94-.08a6.53,6.53,0,0,0,1.08-.18,6.93,6.93,0,0,0,2.76-1.29s0,0,0,0,0,0,0,0l.33-.28c.61.08,1.2.14,1.81.22a2.26,2.26,0,0,1,.37,0h0l1.11.13h0L107,308.4q.09,46.71-.44,93.43a7.21,7.21,0,0,0-.3,1.44,97.19,97.19,0,0,0,1.19,25.87,5.22,5.22,0,0,0,2.19,3.13,3.28,3.28,0,0,0,.38.26,5.47,5.47,0,0,0,3.22.92l1-.07a1.17,1.17,0,0,1,.26,0h0c.76-.07,1.52-.12,2.28-.17l.27,0q2.71-.18,5.42-.29h.09q4-.21,8-.29h1.45c2.5-.09,5-.15,7.51-.19h.12c9.09-.12,18.19-.09,27.28-.27h0l3.46-.09a21.81,21.81,0,0,0-.16,2.92h0c0,.88,0,1.77.09,2.63.07,1.18.14,2.32.16,3.35q.19,11.88.4,23.75c0,2.27.07,4.55.11,6.82a5.08,5.08,0,0,0-1,3.29c0,.37,0,.75,0,1.12q.55,17.43.68,34.86v0q.09,12.59,0,25.16-.15,15.18-.66,30.36v0c0,1.52-.1,3-.15,4.54a6,6,0,0,0,2.13,4.5,4.78,4.78,0,0,0,.91.65,4.31,4.31,0,0,0,1.36.51l.46.08a55.32,55.32,0,0,0,8,.92c.67,0,1.33.06,2,.06h1c.51,0,1,0,1.53,0v.79c0,.32,0,.66,0,1q-.06,22-.13,44c0,.76,0,1.52,0,2.28a6.05,6.05,0,0,0,2.25,4.57,5.71,5.71,0,0,0,1.44.88,5,5,0,0,0,2.31.42c3-.18,6.08-.31,9.12-.4q8.92-.26,17.82,0c2.46.06,4.92.15,7.38.27l.26,0,.54,0v.2c.07,7.62.13,15.26.19,22.87h0c0,1.51,0,3,0,4.53,0,2.64,0,5.29.07,7.93l.3,36.06c0,1.71,0,3.41,0,5.12h0c0,.39,0,.77,0,1.16q0,4.09.07,8.19c0,2.74,0,5.47.07,8.21v1.06s0,0,0,0c0,.62,0,1.24,0,1.86a6,6,0,0,0,.16,1.37,5,5,0,0,0,.39,1.12,4.62,4.62,0,0,0,.5.83.69.69,0,0,0,.13.17,6.61,6.61,0,0,0,8.7,1,6.75,6.75,0,0,0,6.41-.89c2.67,4,10.35,3.31,11-2.21a6.53,6.53,0,0,0,0-.9q-.4-31.07-.82-62.14c0-1,0-2,0-3,0-1.73,0-3.47-.08-5.2v-.44l0-2.94c0-2.72-.08-5.43-.11-8.15a0,0,0,0,1,0,0q-.1-8.27-.22-16.54l0-2v0q-.15-12-.31-24c0-3.16-.09-6.33-.13-9.49a5.84,5.84,0,0,0-.57-2.51l.63-14.21q.64-14.63,1.3-29.26c.29-6.41.63-12.81.91-19.23v-.3c0-1.12.09-2.25.14-3.36a.88.88,0,0,1,0-.17c.39-9.55.66-19.09.49-28.63v0h0q-.06-3.58-.2-7.16v-.15c-.1-2.17-.21-4.31-.37-6.48,0-.52-.06-1-.1-1.55a5.86,5.86,0,0,0-1.11-3.09c.11-1,.21-2,.31-3.07q.55-5.6.91-11.23a215.46,215.46,0,0,0,.18-26.65,5.74,5.74,0,0,0-1.28-3.39c.13-1.77.25-3.53.37-5.3l0-.49c.78-11.55,1.44-23.12,2.13-34.68v-.09c.07-1.32.15-2.63.23-4a6.9,6.9,0,0,0,0-4.23l0-.08a5.75,5.75,0,0,0,.9-3ZM119.36,414.21l-.46.09a6,6,0,0,0-1,.26c0-.13,0-.26,0-.39Z" transform="translate(4.02 0)"/><path class="cls-4" d="M1075.4,600.67q0-6.19-.08-12.38c-.09-1-.18-2-.29-3a1.56,1.56,0,0,0-.36-.85l-.09-1.18a1.63,1.63,0,0,0-1.23-1.37c0-.72,0-1.44,0-2.16q0-1.63,0-3.25.19-14,0-28c.06-1.1.11-2.19.17-3.29a1.4,1.4,0,0,0-.1-.63c.49-14.36.65-28.74.78-43.11a1.31,1.31,0,0,0-.69-1.22c.1-1.63.19-3.27.29-4.9a1.26,1.26,0,0,0,.64-1.22q-.17-3.79-.06-7.56.19-2.84.39-5.67,0-1.37,0-2.75a1.37,1.37,0,0,0-1.39-.65c0-.54-.09-1.07-.14-1.61a1.59,1.59,0,0,0,.07-.37,229.91,229.91,0,0,0,.46-25.22,1.36,1.36,0,0,0-.2-.66q.14-9.83-.26-19.64.85-4.16,1.35-8.37-.05-38.32-.06-76.65a5,5,0,0,0-4-1.47,169.81,169.81,0,0,1-21.2,1.07,6.15,6.15,0,0,0-3.43.88c-3.5-2.78-10.15-.1-9.66,4.67q.43,4.24.5,8.47a4.29,4.29,0,0,0-.82,1.95,331,331,0,0,0-3.46,36.4c-.13,3.37,2.86,5.6,6,5.87,8.25.71,16.5,1.5,24.76,2.12.54,0,1.05.05,1.56.05-.24,3.44-.39,6.89-.41,10.34a5.36,5.36,0,0,0,4.29,5.47c.06,1.05.12,2.11.18,3.16-.94,15.78-.71,31.57-.37,47.37a1.42,1.42,0,0,0-.85,1.27c-.16,2.91-.21,5.82-.16,8.72a45.13,45.13,0,0,0,.71,11.5,1.22,1.22,0,0,0,.17.43l.09,2.63a1.3,1.3,0,0,0-1.43,1.41l1.46,32.39a1.38,1.38,0,0,0-1,1.34,293.44,293.44,0,0,0,1.08,40.31,235.15,235.15,0,0,0-.15,29.59,73.35,73.35,0,0,0-.42,14q-.23,11.88.17,23.76a1.62,1.62,0,0,0-1.64,1.39c-1.24,10.17.15,20.22,1.82,30.26a198.93,198.93,0,0,0-1.28,23.1c0,8.41,1.19,16.85,1.73,25.28a1.4,1.4,0,0,0-.78,1.22l-.21,11.91a1.3,1.3,0,0,0,.86,1.3l.07.61a1.49,1.49,0,0,0,2.85.52c3.21-.81,3-4.57,2.66-7.26l-.49-3.61a1.59,1.59,0,0,0,0-.31l-.58-65.52c.15-.83.28-1.67.44-2.5a1.44,1.44,0,0,0-.22-1.1h0c.77-4.34,1.16-8.48.07-12.73l.14-7.51q.49-7.61.28-15.26a1.39,1.39,0,0,0-.42-1q.7-8.26,1-16.53A1.44,1.44,0,0,0,1075.4,600.67Z" transform="translate(4.02 0)"/><path class="cls-4" d="M981.53,390.59a4.94,4.94,0,0,0-1.87-1.06q1.88-27.25,1.68-54.56a4,4,0,0,0-2.25-3.71c.15-1.39.3-2.78.47-4.17a3.39,3.39,0,0,0-.33-2,4.15,4.15,0,0,0,0-.43l0-6.2a4.64,4.64,0,0,0,1.35-5.63v-.42a4.49,4.49,0,0,0-1.32-3.11,4.62,4.62,0,0,0-3.18-1.29,12.76,12.76,0,0,0-5.58,2.55q-18.24-.13-36.46-1.14a3.82,3.82,0,0,0-3,1.15l-17.9-.72a1.55,1.55,0,0,0-.54.07,4.56,4.56,0,0,0-7.6,3.17q-1.63,64.13-.39,128.28a4.53,4.53,0,0,0,.28,1.51q.42,9.89.79,19.78a4.44,4.44,0,0,0-.72,2.12c-2.12,26.94-1,53.9,1,80.8a4.32,4.32,0,0,0-1,2.59,355.7,355.7,0,0,0,1.09,52.65c-1.14,4-1,8-.8,12.32q.46,8.78.94,17.56l-7.51.15a4.35,4.35,0,0,0-4.37,4.89,4.25,4.25,0,0,0-.9,2.58Q892,685.18,894.68,732c.26,4.49,6,5.41,8.17,2.74,4.08,2,10.21,1.16,14.24,1.24,8.11.17,16.22.05,24.33-.28,4.2-.17,5.34-4.89,3.41-7.35a6.22,6.22,0,0,0,.25-2.27,5.24,5.24,0,0,0-1.89-4c1.92-1.39,2.86-3.55,1.65-7a7.22,7.22,0,0,0-2.71-3.65,4.65,4.65,0,0,0,2.52-2.76,8,8,0,0,0-1.85-8.72c-.12-.11-.25-.22-.37-.32a4.61,4.61,0,0,0,.24-1.25q2.42-57.52,2.7-115.1a3.89,3.89,0,0,0-2.6-4c3.05-53.83,5.06-107.74,2.45-161.63a4.34,4.34,0,0,0-.7-2.18c.06-1,.13-2.07.21-3.11a4.76,4.76,0,0,0,.11-.51l1.51-13.33a3.66,3.66,0,0,0,0-.49c2.89.17,5.78.37,8.74.46,6.64.19,13.43-.86,20-1.44a4.59,4.59,0,0,0,2.76,1h.45a4.69,4.69,0,0,0,3.18-1.29,4.34,4.34,0,0,0,0-6.22Z" transform="translate(4.02 0)"/><path class="cls-4" d="M748.89,301.5a4.74,4.74,0,0,0-.78-5.59,5.07,5.07,0,0,0,1.92-3.58l.42-4.16c.25-2.45-2.26-4.3-4.5-4.4q-57.31-2.63-114.69-1.88a4.51,4.51,0,0,0-4.5,4.4c.11,3.9-.91,10.29,1.51,13.72a6.26,6.26,0,0,0,2.52,2.1,4.74,4.74,0,0,0,1,5.56,4.69,4.69,0,0,0-.72,4.58,4,4,0,0,0-.49,2,5.14,5.14,0,0,0,.29,1.48,4.68,4.68,0,0,0-.19,1.14q-.8,23.69.61,47.36a5.1,5.1,0,0,0-.4,1.71l-.72,12.29c-.21,3.6,3.32,4.9,6,3.9a4.24,4.24,0,0,0,4.57-1.73c1.82,1.82,5.09,2.24,6.68.42,2.15,2.61,7.11,2.24,7.9-1.17a69.38,69.38,0,0,0,14.34,2.74c-.51,18.09-.24,36.2-.2,54.3,0,21.16.12,42.33,1.17,63.47.2,4.09,5,5.22,7.48,3.36a4.43,4.43,0,0,0,2.91,1.06,4.74,4.74,0,0,0,3.16-1.27,4.56,4.56,0,0,0,6.34,0c.1-.11.18-.23.27-.34a4.62,4.62,0,0,0,1.11-.36,4.34,4.34,0,0,0,1.3.22h.45a4.56,4.56,0,0,0,1.85-.43c1.35,1.72,4,1.61,5.92.29a5,5,0,0,0,4.89-.24,4.31,4.31,0,0,0,4.5.35,5,5,0,0,0,5.8-.35,5.32,5.32,0,0,0,2.89,0,4.94,4.94,0,0,0,6.84.28,58.49,58.49,0,0,1,8.36,0c.14.06.29.09.44.13-.18,5.6,8.74,5.57,9-.06,0-.71.06-1.42.1-2.12a4.39,4.39,0,0,0,.37-1.82v-6.22c1.9-40.13,4.55-80.37,4.41-120.52a4.09,4.09,0,0,0-1-2.7,8,8,0,0,0,.21-5.79,9,9,0,0,0-1.18-2.27c1.1-1.17,1.46-2.78.55-5a5.09,5.09,0,0,0,1.51-3.18A6,6,0,0,0,747,347.2c2.52-1.39,4-3.8,2.93-7.84a7.91,7.91,0,0,0-2.75-4.29,4.74,4.74,0,0,0,1.81-3.48,25.26,25.26,0,0,0-.87-8.08,4.23,4.23,0,0,0-1.2-1.95c2.79-1.21,3.27-5.06,1.42-7.11a4.9,4.9,0,0,0,.25-4.33C753.27,309.47,753.37,302.51,748.89,301.5Z" transform="translate(4.02 0)"/><path class="cls-4" d="M615.47,653.79a5.21,5.21,0,0,0-.16-.66,3.48,3.48,0,0,0-1.08-1.72,8.39,8.39,0,0,0-1-.69l.06-.61q.51-5.12,1-10.24.24-2.42.51-4.84a4.27,4.27,0,0,0-2-3.69,3.79,3.79,0,0,0-2.49-.71l-3.57.39-2.44.26c.16-4.67.3-9.33.43-14h0l0-.86q.54-19,.83-38,.12-7.06.18-14.12.15-13.19.17-26.37,0-7.42,0-14.85t-.08-14.67a4,4,0,0,0-1.49-3.23,142.09,142.09,0,0,0,.14-20.31,4.79,4.79,0,0,0-.23-1.12c.26-1.52.51-3,.77-4.53a4,4,0,0,0,1.21-1.52,4.89,4.89,0,0,0,0-4.13,4.1,4.1,0,0,0-3.89-2.32,4.62,4.62,0,0,0-1.62.29l-7.26.25c.3-3.37.55-6.77.68-10.16.1-2.48.12-5,.08-7.43-.1-8.18-.73-16.32-.61-24.5,0-1.8.08-3.59.15-5.39h0c.27-6.84.83-13.65,1.48-20.46.27-2.91.57-5.83.86-8.74a3.63,3.63,0,0,0-.86-2.92,3.85,3.85,0,0,0-1.76-1.07c1.28-12-.26-24.16,1.46-36.16.07-.49.18-1,.3-1.57.91-4.07,2.88-9.54,0-12.65a5.53,5.53,0,0,0-1.3-1c-2.58-1.53-6-1.06-8.87-1.08l-10.71-.07a68.76,68.76,0,0,0-.64-9.48,4,4,0,0,0-.14-.52q.78-11.52,1.6-23c0-.36.06-.71.08-1.07q.93-12.89,1.89-25.79a3.6,3.6,0,0,0-1.89-3.65l-.29-.15a9.37,9.37,0,0,0,.29-.94,12.53,12.53,0,0,0,.42-2.39,3.38,3.38,0,0,0-.42-1.95,5.12,5.12,0,0,0-4.08-2.45q-12.08-.72-24.15-.42l-.09-.32q-1.74-6.34-3.47-12.67c-.62-2.28-1.15-4.36-2.61-5.79a6.28,6.28,0,0,0-2.73-1.54c-4.7-1.38-10.64-.83-15.54-1q-8.3-.32-16.6-.45l-3.39,0q-6.82-.07-13.66,0-7.58.07-15.18.33c-11,.36-22.15,1.88-33.1,1.14a3.78,3.78,0,0,0-4.26,3.32,5.2,5.2,0,0,0,.52,3.13,4.32,4.32,0,0,0-.45,2q.15,12,.31,23.92a4.19,4.19,0,0,0,.8,2.49,5,5,0,0,0,3.26,5.71,4.77,4.77,0,0,0,2.26.16l1-.16a170.84,170.84,0,0,1,21.28-1.87,4.17,4.17,0,0,0,3.59,1.72c12.25,0,24.49.1,36.74-.06h0c4.23-.06,8.43-.14,12.66-.25h0l6-.18a64,64,0,0,0-.81,6.6h0c-.21,2.78-.27,5.55-.23,8.34,0,1.42.06,2.85.12,4.26.37,9.45,1.43,18.94.79,28.36-.21,3.16-.84,6.6-1,9.9,0,.87,0,1.73,0,2.57,0,.29,0,.58.06.86.25,2.59,1.06,4.59,3.71,5.62.19.08.39.15.58.21h0a13.44,13.44,0,0,0,1.59.41h0a51.6,51.6,0,0,0,6.87.72h0c.75.06,1.48.12,2.18.21l1.53.2h0l5.33.67c.19,1.63.45,3.25.77,4.85.15,1.46.25,2.92.32,4.39a1.38,1.38,0,0,0-.08.22v0a2.29,2.29,0,0,0-.17.56c-.24,1.42-.44,2.83-.58,4.23h0c0,.27-.06.54-.09.81h0c-.07.79-.12,1.58-.16,2.38-.08,1.66-.08,3.33,0,5,0,.83.1,1.67.19,2.52a3.76,3.76,0,0,0,.47,1.44v.07a4.85,4.85,0,0,0,1.32,1.58c0,2.46,0,4.93,0,7.4a4,4,0,0,0-1.91,3.53c0,3.46,0,6.91,0,10.38q0,9.11,0,18.22,0,11.46,0,22.9v.92c0,2.74,0,5.51-.1,8.27l0,1.28c-.13,6.33-.29,12.7-.22,19.05v.14c0,3.61.15,7.21.39,10.79.22,3.36.55,6.71,1,10a4.13,4.13,0,0,0,.51,1.52,3.65,3.65,0,0,0,4.09,1.56,5.89,5.89,0,0,0,1.49-.54,4.45,4.45,0,0,0,2.78,1.89,5,5,0,0,0,3.78-.57,4.07,4.07,0,0,0,5.11,2.61c.08.34.16.67.27,1a4.38,4.38,0,0,0,.31.76,4,4,0,0,0-.33,1.66c0,.32,0,.65,0,1q.18,14.85.89,29.67-.52,13.72-.74,27.43-.1,7.06-.15,14.12-.15,30.37,1.2,60.71l.06,1.49A4.53,4.53,0,0,0,566,642a3.77,3.77,0,0,0,.6,1.11,5.26,5.26,0,0,0,2.42,1.72l6.8,2.59h0l2.55,1,2.06.78c-.79,14-1.43,28-1.67,42q-.06,3.54-.09,7.07-.09,8.86.06,17.72c0,2.21,0,4.41.16,6.54v0c0,.11,0,.21,0,.3a1.16,1.16,0,0,1,0,.19,20.22,20.22,0,0,0,1.67,7,14.91,14.91,0,0,0,1.3,2.23c.13.18.26.36.4.54l.43.52a3.84,3.84,0,0,0,4,1.19,5,5,0,0,0,2.19-1.16,4.14,4.14,0,0,0,.51-.51,1.5,1.5,0,0,0,.16-.22h0a4,4,0,0,0,.72-1.52,12.08,12.08,0,0,0,2.88,1.43h.13a16.65,16.65,0,0,0,3.34.86h0a28.46,28.46,0,0,0,4.11.31h0a66,66,0,0,0,10.31-.84,3.31,3.31,0,0,0,1.66-.82,4.93,4.93,0,0,0,1.45-2,2.92,2.92,0,0,0,.2-1.41c-.52-4-.81-8-1-12,0-.19,0-.37,0-.56a3.68,3.68,0,0,0,1-2.89c-.16-2.3-.41-4.56-.78-6.8-.09-.63-.2-1.25-.32-1.88.07-3.67.2-7.34.34-11,.13-3.24.26-6.47.36-9.71,0-.12,0-.22,0-.34,0-.5,0-1,0-1.5a196.69,196.69,0,0,0-.46-23.77c.08-.07.18-.13.25-.2l.14-.16s.12-.09.17-.15a5.21,5.21,0,0,0,1.08-1.7,2.2,2.2,0,0,0,.12-.36v0a3.22,3.22,0,0,0,.12-1A6.31,6.31,0,0,0,615.47,653.79Zm-18.8-75.39c0,1.63,0,3.27-.09,4.89-.06,3.91-.14,7.82-.22,11.74L596.3,598c0-1,0-1.95,0-2.92q0-5.87.19-11.74c0-1.63.1-3.26.17-4.89,0-.07,0-.14,0-.21Z" transform="translate(4.02 0)"/><path class="cls-5" d="M53.45,730a6.21,6.21,0,0,0-1-2.94l-.09-.14a0,0,0,0,1,0,0,7.22,7.22,0,0,0-.51-.59,5.18,5.18,0,0,0-.9-.75l-.54-13.65h0l-.72-18.29a5.5,5.5,0,0,0,.56-1.52,7.26,7.26,0,0,0,.16-1.27q.36-10.27.18-20.52-.1-6.12-.41-12.23-.28-5.72-.73-11.43a1.06,1.06,0,0,1,0-.16c.46-4.27.3-8.73.54-12.18.15-2.12.29-4.23.42-6.36q.87-13.33,1.39-26.68c.12-3.22.92-7.4-.19-10.69a5.32,5.32,0,0,0,.18-.9c.16-1.3.29-2.61.4-3.92.28-3.46.4-6.92.4-10.4,0-1,0-1.95,0-2.91,0-.67,0-1.33,0-2-.48-17.69-3.21-35.45-.57-53l.12-.71s0,0,0,0,0,0,0,0,0,0,0,0,0,0,0,0,0,0,0,0,0,0,0,0,0,0,0,0,0,0,0,0,0,0,0,0,0,0,0,0,0,0,0,0,0,0,0,0,0,0,0,0,0,0,0,0v0a4.09,4.09,0,0,1,.16-.68c0-.24.08-.5.12-.74a7,7,0,0,0-.27-3.6,5.78,5.78,0,0,0-5.5-3.82h-.13L29,507.09,3.9,506.42a5.82,5.82,0,0,0-3.12.73,5.52,5.52,0,0,0-2.68,2.37q0,6.94.08,13.89c.22,4.23.42,8.45.54,12.67.49,16.14.38,32.27.29,48.44,0,.24,0,.5,0,.74v.26a5.63,5.63,0,0,0,.22,1.68c0,.13.07.25.11.37l-.12.15A5.66,5.66,0,0,0-1.58,589q.2,73.48.2,147a5.49,5.49,0,0,0,1.09.84,4.94,4.94,0,0,0,1.31.53,5.05,5.05,0,0,0,1.6.14l1.92-.14q6.92-.5,13.86-.77l1.81-.07h.28c2.54-.1,5.06-.17,7.6-.22,2.88,0,5.74-.08,8.62-.08h.12c.58,0,1.14,0,1.72,0h.29c1.34,0,2.69,0,4,0l4.83.09a6,6,0,0,0,2-.28h.08a5,5,0,0,0,2.63-1.94,5.44,5.44,0,0,0,.73-1.49h0A6.36,6.36,0,0,0,53.45,730ZM17.82,587.51c0-.34,0-.67.08-1a6.57,6.57,0,0,0,6.41-1l.14-.11.31-.25a4.07,4.07,0,0,0,.26.36,10.3,10.3,0,0,0,2.16,2.29A90.65,90.65,0,0,1,17.82,587.51Zm20.94-1.89,0-.06s0,0,0,.06l.21,1-.43.08c-.2,0-.4,0-.59.09A6.35,6.35,0,0,0,38.76,585.62Zm.74,21.46c0,.26,0,.53,0,.78l-.45-.19c.18-.48.35-1,.52-1.44Zm.32-7.77c0,.34,0,.68,0,1a5.11,5.11,0,0,0-1.41-1.51,1.71,1.71,0,0,0-.31-.23l.31,0,1.49-.21C39.84,598.67,39.83,599,39.82,599.3Z" transform="translate(4.02 0)"/><path class="cls-5" d="M331.94,726.23a7.51,7.51,0,0,0-.75-.58c-.1-.93-.26-1.85-.39-2.76-.44-3.19-.71-6.39-.83-9.61-.24-6.34,0-12.69.32-19a593.11,593.11,0,0,0-1-75.76,6,6,0,0,0-1-3c.3-3.76.23-7.56-3.21-9.67,4.77-3.45,3.76-10.9,2.89-16-.4-2.35-3.37-4.5-5.78-4.31a394.54,394.54,0,0,1-58.32.26c-3.21-.22-6,2.87-6,5.87q.14,11.7-.36,23.38a5.82,5.82,0,0,0,.3,2.16,6.38,6.38,0,0,0-2.06,4.27A133.26,133.26,0,0,0,257,660c0,.18.07.35.12.52s0,.11,0,.17l-.23,57.74c0,3.64-.69,7.93,1.43,11.17,2.59,4,7.56,3.62,11.75,3.57,8.1-.09,16.19-.38,24.27-.81a6,6,0,0,0,3.69,1.28l12.88-.22a6.32,6.32,0,0,0,2.74-.71q2.59.59,5.19,1.15a22.34,22.34,0,0,0,3.93.51l.17.18a6.3,6.3,0,0,0,4.24,1.72h.51a6.25,6.25,0,0,0,4.24-1.72,5.78,5.78,0,0,0,0-8.3Z" transform="translate(4.02 0)"/><path class="cls-5" d="M453.76,671.49a5.55,5.55,0,0,0,1.48-2.49,23,23,0,0,0,.17-11.87,6,6,0,0,0-5.78-4.31L384.08,654A5.87,5.87,0,0,0,374,657.14a5.23,5.23,0,0,0-.74.71,8.47,8.47,0,0,0-1.64,9q.78,32.77-.18,65.55a6,6,0,0,0,6,5.87q36.13-2.07,72.32-3.17c3.06-.09,6.23-2.62,6-5.87Q453.61,700.42,453.76,671.49Z" transform="translate(4.02 0)"/><path class="cls-5" d="M228.13,724.54a6.5,6.5,0,0,0,0-6.31,4.53,4.53,0,0,0,.87-.74,6.33,6.33,0,0,0-.07-8.19,5.29,5.29,0,0,0-.4-.42,6.59,6.59,0,0,0,.39-.74h0a6.52,6.52,0,0,0,0-5.12,5.61,5.61,0,0,0-1.14-1.71,5.28,5.28,0,0,0-1.53-1.11c0-.24,0-.49,0-.73a112.92,112.92,0,0,1,0-15.6c.34-5.49.9-11,1.31-16.47l0-.44c.07-1,.14-1.91.2-2.87.1-1.66.19-3.33.24-5,0-1.11,0-2.24.06-3.35,0-.48,0-1,0-1.44h0c0-2.18-.1-4.34-.29-6.51q-.12-1.58-.33-3.17c-.09-.78-.2-1.56-.33-2.34a.28.28,0,0,0,0-.09,6.28,6.28,0,0,0,.52-.85,3.6,3.6,0,0,0,.16-.34,6,6,0,0,0,.11-4.63c0-.09-.07-.17-.11-.25a5.22,5.22,0,0,0-1.82-2.11,6.24,6.24,0,0,0-1.94-.87,34.64,34.64,0,0,0-8.22-1c-1.32,0-2.66,0-4,0-2.93.08-5.85.26-8.65.28l-12.46.13h0l-4.32,0c0-.07,0-.15,0-.22,0-.7-.11-1.41-.16-2.12,0-.52-.08-1-.11-1.56-.1-1.46-.19-2.92-.27-4.38,0-.3,0-.6,0-.9q-.34-6.84-.34-13.69,0-7.2.38-14.4c0-.83.08-1.66.13-2.49.21-3.46,1.21-7.83,0-11.3a3.89,3.89,0,0,0-.16-.44,7.08,7.08,0,0,0-1-1.7.05.05,0,0,0,0,0,6.5,6.5,0,0,0-.88-.94l-.36-.3c-.24-.19-.5-.36-.76-.53a12,12,0,0,0-5.3-1.48,34.61,34.61,0,0,0-4.51,0c-1.52.06-3,.15-4.3.15l-8.77,0h-2.17l-6.94,0h-.44l-9.41,0-8.79,0-9,0L115,576l-.12,0a4.49,4.49,0,0,0-.78-.24.55.55,0,0,0-.21,0,6.75,6.75,0,0,0-3.51.08,5.24,5.24,0,0,0-1.73.84,4.36,4.36,0,0,0-1.43,1.8,5.38,5.38,0,0,0-.37,2.7c.25,2.55.56,5.08.86,7.6a5.51,5.51,0,0,0-1.51,3.88q-.15,17,1.36,33.93a5.91,5.91,0,0,0,.16,1.77,6.12,6.12,0,0,0,.34,1.4l-1.55.08-.64,0c-1.28.06-2.56.13-3.84.22s-2.26.14-3.39.23c-1.78.13-3.56.29-5.32.47-.59.06-1.18.14-1.79.22-1.18.16-2.4.35-3.63.56h0c-5.5.88-11.31,1.92-16.54.79L71,632.2c-.3-.08-.61-.16-.91-.25h0a5.58,5.58,0,0,1-.54-.16,6.46,6.46,0,0,0-1.57-.31h0c-5.64-.39-7.94,7.83-3.11,10.91a6.29,6.29,0,0,0-2.76,4.23h0a6.77,6.77,0,0,0,0,2.29l.09.43a6,6,0,0,0,.09,1.32s0,0,0,.06a6.28,6.28,0,0,0-.13,1.26q-.1,25.31,1.22,50.59c0,.68.06,1.36.1,2a6.75,6.75,0,0,0-.69,5.43,4.55,4.55,0,0,0-.74.7,5.37,5.37,0,0,0-1,1.56.69.69,0,0,0-.08.18,6.51,6.51,0,0,0,0,5.22l.15.3a4.64,4.64,0,0,0,1,1.23l.12.12-.12.22a6.49,6.49,0,0,0,0,5.93,5,5,0,0,0,1.89,2A6,6,0,0,0,63,730a6.1,6.1,0,0,0,1.26,5,4.85,4.85,0,0,0,1,.9,5.6,5.6,0,0,0,3.38.84q11.48-.47,23-.84,9.38-.31,18.75-.55l2.53-.06,12.64-.29q26.72-.53,53.43-.54h2.72q8.44,0,16.87.08,12.83.07,25.64.29a6.23,6.23,0,0,0,1.76-.21,5.2,5.2,0,0,0,1.78-.83,5.1,5.1,0,0,0,1.54-1.81,5.15,5.15,0,0,0,.37-.83,6.32,6.32,0,0,0,.26-1.12,5.15,5.15,0,0,0,.07-.67,6.38,6.38,0,0,0-.9-3.62A5.51,5.51,0,0,0,228.13,724.54Zm-46.87-51.45v.38l-4.27-.19Z" transform="translate(4.02 0)"/><path class="cls-5" d="M819.62,514.33a7.47,7.47,0,0,0-.12-2.9h0a5.5,5.5,0,0,0-5.66-4.52l-8.05.27a5.62,5.62,0,0,0-2.53.65h-.1a5,5,0,0,0-1,.67l-25-.85-5.75-.2h-.18l-29.33-1h0l-4.92-.17-54.86-1.87H682l-2.21-.08h0l-1.8-.06a5.64,5.64,0,0,0-1.35.14c-3.2-.28-6.58,1.58-6.5,5.63l.06,3.28c.09,5.45.13,10.88.12,16.32h0q0,8.17-.17,16.34c0,2.45-.1,4.91-.17,7.36l-2.63-.21c-3.61-.26-7.19-.39-10.79-.39-3,0-5.92.09-8.89.26h0c-1,0-1.93.12-2.9.2-2.32.18-4.64.41-7,.7a5.09,5.09,0,0,0-.52-.61,6.17,6.17,0,0,0-2.12-1.32,5.32,5.32,0,0,0-2.13-.39,7.16,7.16,0,0,0-2.12.39,5,5,0,0,0-2.12,1.32,6.36,6.36,0,0,0-1.22,1.79,2.87,2.87,0,0,0-.2.48,1.3,1.3,0,0,0-.07.18,3.9,3.9,0,0,0-.12.46c0,.12,0,.22-.07.34a3.33,3.33,0,0,0,0,.35,5.22,5.22,0,0,0,0,.56v.33a5.48,5.48,0,0,0,.38,2v0a4.61,4.61,0,0,0,.48,1,.2.2,0,0,0,.06.1,5.28,5.28,0,0,0,.83,1,4.37,4.37,0,0,0,.39.34c.39,3.19.77,6.4,1.16,9.58,0,.21,0,.4.07.61.09,2,.18,3.91.23,5.87v0q.09,3.08.14,6.16c0,.21,0,.41,0,.62q0,2.26.06,4.52c.07,6.88,0,13.77,0,20.66l0,2.55-.09,6.17c0,.4,0,.8,0,1.2v.31c0,2.52-.09,5.06-.13,7.58q-.06,4.33-.11,8.66l0,3.49q-.07,9.12,0,18.24h0c0,3.93,0,7.86.11,11.79s.12,7.78.21,11.69a2.88,2.88,0,0,0,0,.29c0,.73,0,1.47,0,2.21q.15,6.84.39,13.67-.49,6.06-.73,12.14v.06c-.2,5.11-.26,10.23-.19,15.34,0,.65,0,1.29,0,1.93s0,1.24,0,1.86a3,3,0,0,0,0,.43,5,5,0,0,0,.19,1,6.08,6.08,0,0,0,7.07,4.22l.29,0a5.41,5.41,0,0,0,1.13.62l.49.17a6.48,6.48,0,0,0,2,.22l.84,0h0l5.6-.19,3.45-.11h.84l4.14-.17,5.61-.18,8.41-.26,5.61-.17,3-.09h.44l5-.15,5.61-.15,8.41-.2,5.61-.13,8.42-.17,5.61-.09,8.41-.11,5.61-.06,8.42,0h5.6l8.42,0,5.61,0c2.81,0,5.61.06,8.42.11,1.87,0,3.74.06,5.6.11q4.21.07,8.42.2c1.88,0,3.75.1,5.61.17q4.21.13,8.41.3l5.61.23,4.5.21h.1l1.56.07a8.14,8.14,0,0,0,1.25,1.29h.24a5.78,5.78,0,0,0,.78.39,6.89,6.89,0,0,0,5.61-.19l.33-.18a5.15,5.15,0,0,0,2.51-3.37,2.58,2.58,0,0,0,.07-.4h0a5.41,5.41,0,0,0,.09-1v-.26h0c0-.59,0-1.17,0-1.76v-2c0-1,0-2,0-3.07q0-16.62.1-33.22,0-10.52.06-21c0-1.34,0-2.67,0-4s0-2.71,0-4.06v0l0-9,0-10.06h0c0-1.48,0-3,0-4.42v0q0-6.84,0-13.67v0c0-1.31,0-2.61,0-3.92a4.87,4.87,0,0,0,0-.77,4.45,4.45,0,0,0-.13-.74l0-.12a4,4,0,0,0-.13-.41,5.09,5.09,0,0,0-1.28-2c0-1.48,0-3,.06-4.43,0-.85,0-1.7,0-2.55q.1-7,.18-14.07v-.13q.09-9.1.15-18.19c0-4.64.06-9.28.09-13.92,0-.34,0-.69,0-1v-1.3l0-5.34c0-.35,0-.7,0-1.06q.07-13.55.16-27.11l0-4a6.07,6.07,0,0,0-.31-2c.28-1.74.57-3.48.84-5.22C819.35,516.07,819.48,515.2,819.62,514.33ZM686.1,536.77c-.52.27-1,.57-1.55.85,0-.57,0-1.13,0-1.7a5.77,5.77,0,0,0,1.41.39A3.66,3.66,0,0,0,686.1,536.77Z" transform="translate(4.02 0)"/><path class="cls-5" d="M1064.39,718.46c2.45-16.55-.22-33,.51-49.59S1068,636,1066,619.45c0-.11,0-.21,0-.32a13.22,13.22,0,0,0,.13-1.8q.15-53.34.76-106.67c0-.32,0-.65.05-1v-4a11.35,11.35,0,0,0-1.58-6,37.41,37.41,0,0,1,.07-9.57c1-6.86,2-13.68,2.42-20.6.83-13.12.34-26.27-.15-39.39a11.65,11.65,0,0,0-1.65-5.71l.1-.73a8,8,0,0,0-.43-3.74,11.38,11.38,0,0,0,1.57-10.54c-2.2-6-8.16-10-14.75-8.2a11.22,11.22,0,0,0-2.84,1.23,14.52,14.52,0,0,1-2,.17l-5.87-.13q-5.87-.14-11.74-.33-11.74-.39-23.48-1Q984,400,961.53,398a12.42,12.42,0,0,0-5-1c-9.51,0-13.16,8.92-10.94,15.76a14.82,14.82,0,0,0,.24,3.11c1.79,9.57-.2,19.62-.62,29.24-.46,10.36,1,20.67.07,31a87.29,87.29,0,0,0-.43,15.15c.45,5.26,1.48,10.47,1.9,15.73.7,8.75-.44,17.33.21,26a9.46,9.46,0,0,0-1.53,5.85c4.93,60-4.73,120.1.67,180.06,0,.24.06.48.09.72a6.2,6.2,0,0,0-1.75,8.35c-4.33,2.79-3.3,11,3.16,10.82L1062,736.34c4.68-.1,6.52-4.48,5.51-7.86C1070.52,725.43,1069.47,719.15,1064.39,718.46Z" transform="translate(4.02 0)"/><path class="cls-6" d="M107,513.46c0-5.51-.1-10.62-1.38-15.68a9,9,0,0,0,0-1l-1.29-17.52c0-1.17,0-2.34.06-3.51,0-4.21,0-8.41-.11-12.61a16.11,16.11,0,0,0,.82-6.68c2.17-20.77-.51-42-.13-62.86.16-2.43.29-4.86.36-7.29.28-3.43.66-6.85,1.09-10.3.75-6.09-.45-11.49-1.54-17.45-.89-4.87.5-9.79.67-14.69a32.84,32.84,0,0,0-.78-8.46c.19-.7.39-1.41.61-2.11a10.39,10.39,0,0,0-.44-8.14c4.06-6.93.77-18.1-9.89-18.1a11.66,11.66,0,0,0-6.76,2q-31.64.24-63.28-.41-5.9-.45-11.81-.54a9.25,9.25,0,0,0-.92-.36,9.19,9.19,0,0,0-4.62-1l-3.19.42a12,12,0,0,0-5.29,3l-.57.72q0,7.8,0,15.59c.16.18.32.36.5.52a11,11,0,0,0-.5,1.4q0,16.93-.07,33.85l.39,16.47A9.9,9.9,0,0,0-1,380c-.2.25-.38.5-.55.76q0,6.89,0,13.78A11,11,0,0,0,8,399.36a11.37,11.37,0,0,0,7.66-2.67l44.77,1.08c3.94,53.06,2.82,106.37,2.94,159.57a14,14,0,0,0-1.95,10c1.56,10.3.42,20,0,30.36a59.39,59.39,0,0,0,1,15.67C57.83,620.26,61,632.06,72,632.06c.26,0,.5,0,.75,0s.66,0,1,0a12,12,0,0,0,5.78-1.37,9.17,9.17,0,0,0,4.26-.93,11.43,11.43,0,0,0,5.85,1.93l.12,0a9.19,9.19,0,0,0,4.62,1l3.19-.42a12,12,0,0,0,5.29-3l1.87-2.38a11.49,11.49,0,0,0,1.64-5.92v-.34a8.74,8.74,0,0,0-.54-3.44A225,225,0,0,0,104.49,581c3.61-6.17,2.21-15.06,2.25-21.87l.13-22.81Z" transform="translate(4.02 0)"/><path class="cls-6" d="M578.45,719.53a11.62,11.62,0,0,0-2.08-4.07q-.36-30.34,2.12-60.6c.52-6.33-5.88-11.74-12-11.74a12.13,12.13,0,0,0-3.61.53c0-14.14-.27-28.29-.42-42.44-.15-14.84-.16-29.7.44-44.53.31-7.61.91-15.2,1.42-22.8.5-7.26-.75-14.26-.61-21.46.15-8-6.42-11.72-12.72-11.3a13.7,13.7,0,0,0-6.29-2.22l1.06-91.1a11.45,11.45,0,0,0-1.13-5.26c.79-9.53,1.63-19.1,1.47-28.64a12.22,12.22,0,0,0-.68-3.89c3.37-7.07-2.4-17.12-11-16.75l-12.05.52-.25-14.07c-.05-2.88-1.17-8.36.1-11a12.94,12.94,0,0,0,.49-10.75c1-3.43.67-7.24.19-11.19a16.38,16.38,0,0,0-.74-3.27l.55-.7a11.5,11.5,0,0,0,1.64-5.92v-.34a8.69,8.69,0,0,0-1-4.52,8.78,8.78,0,0,0-2.48-3.78,9,9,0,0,0-3.86-2.43,9.19,9.19,0,0,0-4.62-1l-3.19.42a12.07,12.07,0,0,0-4.12,2l-53,.37-25.85.18c-7.95.05-16.83,1.18-24.65-.25a15,15,0,0,0-5-.08,11.52,11.52,0,0,0-7.23-2.31c-10.07,0-13.57,10-10.5,16.94a11.67,11.67,0,0,0,2.46,4.84,11.34,11.34,0,0,0-1.15,5.41l.12,5.58a9.7,9.7,0,0,0-1.24,5.88,195.07,195.07,0,0,1,.38,22.06,12,12,0,0,0-.56,4l1,41.67a69.17,69.17,0,0,0,.66,8.31,8.45,8.45,0,0,0-.92,4.9q1.68,13.49,2.5,27a10.57,10.57,0,0,0-.64,3.85c.69,36.89,1.65,73.8,1.31,110.7a12.69,12.69,0,0,0,.2,2.39l-.21,36.76c-.07,12.95,0,25.76,2,38.56a72.67,72.67,0,0,0-1.09,10.37c-4.71,6.85-1.57,18.79,9.46,18.79a12,12,0,0,0,6-1.47,9,9,0,0,0,3.57-2.31l.13-.16A10.92,10.92,0,0,0,408.9,651q23.56-.89,47.13-1.31c-.38,22.88-1.3,45.85,1.39,68.6a11.62,11.62,0,0,0-2,4l-.43,3.12a11.5,11.5,0,0,0,1.64,5.92l.35.68a8.94,8.94,0,0,0,3.09,3.29,9.09,9.09,0,0,0,4.08,2.1,9.27,9.27,0,0,0,4.78.21,9,9,0,0,0,4-1.14l30.5-3a12.64,12.64,0,0,0,4.8,1q26.21.72,52.43.83a12.35,12.35,0,0,0,5.07-1c.29,0,.58.06.88.06h.35a9.19,9.19,0,0,0,4.62-1,9,9,0,0,0,3.86-2.43,8.78,8.78,0,0,0,2.48-3.78,8.69,8.69,0,0,0,1-4.52Z" transform="translate(4.02 0)"/><path class="cls-6" d="M669.44,402.85a4.93,4.93,0,0,0,0-2.61,3.11,3.11,0,0,0-.2-.56,4,4,0,0,0-.82-1.28,4.52,4.52,0,0,0,.82-1.3,4.84,4.84,0,0,0,.23-.64,5.79,5.79,0,0,0,.2-2.46l-.15-1.12s0,0,0,0v-.16c-.1-.64-.18-1.2-.28-1.81-.72-4.83-1.91-8.73-8.28-8.56-5.1.15-10.19.36-15.29.47h0c-3.15.08-6.29.11-9.44.07q-5.95-.07-11.88-.34c-3.55-.16-7.36-.89-10.88-.58-6.71.6-6.07,6.19-5.13,11.08a10.3,10.3,0,0,0-2,5.52,18.77,18.77,0,0,0,0,3.09c0,.28,0,.57.08.84a5,5,0,0,0,2.22,3.78l0,.81q-.85,23.54-1.16,47.12-.4,31.35.16,62.71a4.33,4.33,0,0,0,.35,1.65,16.63,16.63,0,0,0-.58,5.23c0,1.63.12,3.23.11,4.6,0,3.71,0,7.4.14,11.11q.07,2.64.21,5.28c-.55,6.49-.78,13-.85,19.5-.06,4.7,0,9.42,0,14.12.13,10.77.38,21.54,0,32.3,0,.75,0,1.52-.07,2.28-.14,3.55-.34,7.1-.65,10.65-.12,1.46-.26,2.92-.42,4.38a3.62,3.62,0,0,0,.91,3,5,5,0,0,0,6.05.32,4.22,4.22,0,0,0,1.18-1.11,4.47,4.47,0,0,0,.85-2.22c0-.18,0-.34,0-.52,0,.13,0,.25,0,.38a4.28,4.28,0,0,0,1.12,2.7c-.1,3.11-.19,6.23-.28,9.34-.09,3.48-.18,7-.26,10.45,0,1.14,0,2.28-.07,3.42,0,.59,0,1.17,0,1.76v0c0,2.22-.09,4.45-.12,6.67q-.16,9.54-.23,19.08-.06,6-.06,12,0,6.53,0,13.06c0,3.41,0,6.83.06,10.24q.06,6.31.16,12.62a4.18,4.18,0,0,0,0,.63.39.39,0,0,0,0,.15c.56,3.23,4.31,4.21,6.76,2.94a5,5,0,0,0,7.17,1.24,3,3,0,0,0,.6-.67h0a3.83,3.83,0,0,0,.6-2.46V731c0-.32,0-.66-.08-1l-.18-2.29c0-.6-.1-1.18-.14-1.77,0,0,0,0,0,0-.27-3.41-.52-6.84-.76-10.25-.1-1.38-.19-2.76-.28-4.14v-.21c-.1-1.55-.2-3.1-.29-4.65q-.6-9.51-1-19l-.15-3.18c0-.39,0-.78,0-1.17q-.22-5.15-.4-10.3-.31-9-.49-18c-.1-4.5-.16-9-.21-13.51a3.75,3.75,0,0,0,1.36-1.31,2.67,2.67,0,0,0,.48-1v-.32a4.59,4.59,0,0,0,.06-.93c0-.91-.07-1.82-.1-2.73v-.1c0-.2,0-.39,0-.6q-.27-6.88-.51-13.74s0,0,0,0v-.18c0-.47,0-.94,0-1.41-.24-6.66-.45-13.3-.65-20,0,0,0,0,0,0l-.09-3a0,0,0,0,1,0,0c0-.45,0-.88,0-1.32v-.09c0-1.64-.1-3.28-.14-4.92v0q-.16-5.72-.3-11.44c0-.73,0-1.48,0-2.21-.09-3.21-.16-6.42-.23-9.61q0-.75,0-1.5h0c-.09-3.69-.17-7.36-.24-11.05,0-1.24,0-2.49-.07-3.74q8.12.07,16.22-.13,9.23-.22,18.45-.81a4.86,4.86,0,0,0,.51,1,4.22,4.22,0,0,0,3.66,2,4.37,4.37,0,0,0,1.83-.42,4.72,4.72,0,0,0,.69-.38,3.91,3.91,0,0,0,2-3.6l-.15-1.51a70.74,70.74,0,0,1-.22-9.2,3.9,3.9,0,0,0-.65-2.46h0a4.89,4.89,0,0,0-.46-.54,75.21,75.21,0,0,0,0-13.91,2.23,2.23,0,0,0,0-.27,4.19,4.19,0,0,0,.14-1.14q-.39-32.39.25-64.77.4-21.58,1.29-43.14c0-1.51.11-3,.18-4.53v-1.25c0-.15,0-.27.07-.42a4.16,4.16,0,0,0-.06-.88v-.33c0-.1-.09-.17-.16-.32s.11-.25.16-.4Zm-17.64,3.36,1.35,0a4,4,0,0,0-.61.46A5.05,5.05,0,0,0,651.8,406.22Zm7.15,49.55-.06-1.57q-.13-4.08-.28-8.15l.53-.07c-.07,2.74-.11,5.48-.16,8.22Z" transform="translate(4.02 0)"/><path class="cls-7" d="M61.8,565c-3.62-20.41.09-41.16-1-61.72a4.27,4.27,0,0,0,.28-1.8l-1.57-32.56a4.64,4.64,0,0,0,.43-1.76q1.32-26.43,1.1-52.89a4,4,0,0,0-1.71-3.23,6.54,6.54,0,0,0,2.87-5.88c-.12-3.89-3.3-6-6.92-6.5-5.65-.82-11.91-.07-17.62,0l-17.76.1c-5.16,0-10.72.6-15.94.26-1.76-1-4.06-1.15-5.55.53h0Q-1.77,441.77-2,484q.06,9,.1,17.94c.83,3.39,5.25,4.13,7.51,2.21,1.92,1.86,5.45,1.79,7-.23a5,5,0,0,0,6.18-.1,5.29,5.29,0,0,0,4.46.53,5.11,5.11,0,0,0,5.39.62,4.94,4.94,0,0,0,6.73.43,5.05,5.05,0,0,0,5.43-.42,5.25,5.25,0,0,0,5.57.72,5.06,5.06,0,0,0,5.07-.3,4.91,4.91,0,0,0,.53.24c.79,19.65-2.1,39.32.79,58.88a4.49,4.49,0,0,0-.22,1.35c0,23.23,1,46.75-.33,70a3.42,3.42,0,0,0-1.89,3.72c3.57,30.17.69,60.55,2.23,90.82.29,5.64,9.28,5.67,9,0-1.44-28.16,1-56.42-1.59-84.52a4.48,4.48,0,0,0,.68-2c2.13-25.21,1-50.84.89-76.14A4.44,4.44,0,0,0,61.8,565Z" transform="translate(4.02 0)"/><path class="cls-7" d="M170.64,506.52c-.76-22.24-.74-44.5-.72-66.75a4.73,4.73,0,0,0-.08-.84c1.61-2.59.4-6.88-3.65-6.87q-25.43,0-50.82,1.19a5.08,5.08,0,0,0-1.05.16,10.61,10.61,0,0,0-1-.78c-2.67-1.73-7.12.51-6.76,3.8,1.15,10.63.63,21.39.43,32.06-.22,11.7-.51,23.4-.76,35.11-.49,23.07-.77,46.15,0,69.22.15,4.49,5.83,5.41,8.08,2.77a5.08,5.08,0,0,0,1.22,0c16.13-2.16,32.12.34,48.22-.65,2.37.85,5.27.18,5.69-2.79C172.46,550.32,171.39,528.45,170.64,506.52Z" transform="translate(4.02 0)"/><path class="cls-8" d="M52,516.07c0-.12.11-.22.16-.34.23-.47.48-.95.75-1.41l0,0a4.18,4.18,0,0,0,0-4.38,4.31,4.31,0,0,0-.94-1.1,4.75,4.75,0,0,0-2.92-1.14l-2.55-.1h-.13c-5.81-.25-11.64-.42-17.44-.47q-12.53-.13-25,.35A4.41,4.41,0,0,0-.43,512a4.2,4.2,0,0,0-.94,2.79q0,10.64.09,21.25.1,23.72.19,47.44a4.45,4.45,0,0,0,.1,1,2.92,2.92,0,0,0,.21.74.18.18,0,0,0,0,.07c0,.63,0,1.25,0,1.88,0,.18,0,.34,0,.52q-.34,26.43-.68,52.85.07,46.92.09,93.83a4.93,4.93,0,0,0,4.52,1,3.82,3.82,0,0,0,2.24,1.32h0a4.68,4.68,0,0,0,1.07.09l11.93-.24,9.37-.19h.39l8.55-.18h.12l6-.12h0L48,736c1.9,0,4.11-1.5,4.47-3.44a3.07,3.07,0,0,0,0-1l0-.23c-.06-.44-.11-.89-.17-1.33-.15-1.23-.3-2.46-.44-3.7Q51,719,50.52,711.75c0-.22,0-.46,0-.68a3.93,3.93,0,0,0,.59-2.44q-.51-8.27-.84-16.55-.42-10.53-.58-21.09a4.36,4.36,0,0,0,2.21-3.53c0-.68.1-1.37.13-2.05v-.16c.19-2.88.29-5.74.31-8.62a169.31,169.31,0,0,0-1-20.12q-.37-3.51-.9-7c0-.52,0-1,0-1.56q0-13.47-.29-26.92a4.69,4.69,0,0,0,.39-1.45q.66-6.91,1.15-13.83.54-7.64.86-15.3c0-.23,0-.47,0-.7v-1c.08-1.35.14-2.71.19-4.06h0a.64.64,0,0,0,0-.2v0c.16-4.59.24-9.19.26-13.78,0-2.57,0-5.14,0-7.72q-.09-12-.72-24.06A4.16,4.16,0,0,0,52,517.7a1.66,1.66,0,0,0-.11-.28,3.17,3.17,0,0,0-.24-.53,2.79,2.79,0,0,1,.37-.55Zm-30.9,38.78c-.06.22-.11.45-.17.67a5.3,5.3,0,0,0-3.19-.53c.29-.7.6-1.41.92-2.1A4.12,4.12,0,0,0,23.75,551a6,6,0,0,1,.67-.93c0,.58,0,1.15.07,1.73A4,4,0,0,0,21.12,554.84Z" transform="translate(4.02 0)"/><path class="cls-8" d="M228.38,659a27.78,27.78,0,0,0-.35-3.29c-.09-.48-.18-1-.3-1.45a.38.38,0,0,0,0-.14,23.47,23.47,0,0,0-.64-2.28c.11-2.43.22-4.84.34-7.27.06-1.1.11-2.18.17-3.28s.11-2,.16-3.06c0-.64.08-1.27.11-1.91,0-.88.11-1.75.16-2.63a4.14,4.14,0,0,0-.2-1.65,1.29,1.29,0,0,0-.07-.18,2.07,2.07,0,0,0-.26-.54,3.42,3.42,0,0,0-1.09-1.13,5.09,5.09,0,0,0-5.26,0,3.92,3.92,0,0,0-1,.86,3.79,3.79,0,0,0-.65,1c-1.23,0-2.46,0-3.69,0s-2.66,0-4,0l-5.45.06a29.15,29.15,0,0,0-4-1,31.17,31.17,0,0,0-11.43,0c-.51.1-1,.21-1.53.33a24.56,24.56,0,0,0-3,.91,8.82,8.82,0,0,0-.85.31l-.87,0c-.07-1.82-.13-3.64-.17-5.47,0-1.27-.07-2.55-.09-3.83-.26-13.35,0-26.69.84-40a4.54,4.54,0,0,0,.6-1.2,4.69,4.69,0,0,0,.16-.65,4.84,4.84,0,0,0-.07-2.14,1.56,1.56,0,0,0-.09-.28,3.91,3.91,0,0,0-.28-.67v0a6.38,6.38,0,0,0,0-.76,3.6,3.6,0,0,0-.7-1.75,3.26,3.26,0,0,0-.39-.43,5,5,0,0,0-6.25,0,3.76,3.76,0,0,0-.66.66,3.37,3.37,0,0,0-.35.49c-.78,0-1.56.06-2.34.07-3.87.14-7.72.24-11.59.31a29.85,29.85,0,0,0-3.3-.78c-.72-.14-1.45-.24-2.18-.31a25.88,25.88,0,0,0-7.37.27,23.53,23.53,0,0,0-2.58.63c-.42.13-.83.22-1.25.34h-1.46c-.35-.1-.7-.18-1.06-.28a27.06,27.06,0,0,0-15.29,0l-5.56-.16q-3.57-.1-7.13-.25a4.66,4.66,0,0,0-.84,0,3.47,3.47,0,0,0-.32-.52,3.85,3.85,0,0,0-.33-.37.81.81,0,0,0-.19-.18,1.43,1.43,0,0,0-.27-.22,1.28,1.28,0,0,0-.21-.14,4.86,4.86,0,0,0-3.5-.64,4.67,4.67,0,0,0-1.91.75,2.92,2.92,0,0,0-.36.27,3.41,3.41,0,0,0-.5.5,4.18,4.18,0,0,0-1,2.44,1.05,1.05,0,0,0,0,.18q-.87,20.05-.45,40.12v0c0,1.11,0,2.23.08,3.34v0c.06,2.56.15,5.11.25,7.67,0,.85.06,1.71.1,2.56l-8-.12-.33-.1a27.38,27.38,0,0,0-6.7-1.18c-.53,0-1.06,0-1.6,0a25.68,25.68,0,0,0-3.47.23,27.07,27.07,0,0,0-3.85.79l-6-.14h0l-2.81-.08a4.52,4.52,0,0,0-2,.37h0c-.14.07-.23.14-.36.22a2.84,2.84,0,0,0-.28.2,1.19,1.19,0,0,0,0-.26,1,1,0,0,0,0-.18,3.91,3.91,0,0,0-.71-1.79,4.89,4.89,0,0,0-6.3-1.08,4,4,0,0,0-1.17,1.08,4.18,4.18,0,0,0-.75,2.47v19.63a22.79,22.79,0,0,0-.62,6.41,29,29,0,0,0,.61,4.78l0,39.83v27.89A4,4,0,0,0,64.22,735a4.84,4.84,0,0,0,6.15-1.45,4.9,4.9,0,0,0,1.3.17q19.34-.23,38.7-.21h2.57l12.26.06q26.9.18,53.77.89l2.7.07,4.29.12a22.61,22.61,0,0,0,3.3,1l1.63.22,5.94.78c.8,0,1.58,0,2.36-.11a27.77,27.77,0,0,0,4.34-.67c.74-.18,1.47-.38,2.2-.62q7.3.26,14.59.55c.23,0,.44,0,.65,0l.35.1a5.39,5.39,0,0,0,2.5,0,4.17,4.17,0,0,0,2.16-1.27,3.93,3.93,0,0,0,.92-2.83c0-.59,0-1.18-.06-1.77-.09-2.27-.17-4.55-.23-6.82q-.37-11.85-.43-23.72,0-7.79,0-15.6.06-6.51.22-13a30,30,0,0,0,1.09-3.45c0-.15.08-.29.11-.44a5.21,5.21,0,0,0,.12-.54A27.59,27.59,0,0,0,228.38,659ZM71.84,724.87h-.17A6.41,6.41,0,0,0,71,725v-.88C71.29,724.35,71.56,724.61,71.84,724.87Z" transform="translate(4.02 0)"/><path class="cls-8" d="M330.38,725.55a5.86,5.86,0,0,0-.26-3.07,16.32,16.32,0,0,1-1.1-7,7.9,7.9,0,0,0-.19-2.2,23.15,23.15,0,0,0,.78-7.08,30.12,30.12,0,0,0-2.41-10.48,27.26,27.26,0,0,0,1.88-9.94v-.51a20.66,20.66,0,0,0-1.73-9.25A27.78,27.78,0,0,0,328,670v-.51a21.69,21.69,0,0,0-.18-3.7c.27-.71.51-1.43.73-2.17l1-7.41a27.4,27.4,0,0,0-1.35-8.47,27.26,27.26,0,0,0,1.87-9.92v-4.08a20.82,20.82,0,0,0-1.08-7.57A27.9,27.9,0,0,0,326.48,616q0-.74,0-1.5l0-.15A149.3,149.3,0,0,0,327.89,592c-.06-4.3-3.41-6.88-7.49-7.33a108.29,108.29,0,0,0-21.4-.28,8.87,8.87,0,0,0-5.25,2.21q-.59.08-1.17.18a7,7,0,0,0-5-1.8q-12,.09-24-.08a7.41,7.41,0,0,0-6.47,11c.31.54-.2,2.9-.3,3.89a20.11,20.11,0,0,0,.2,6,16.63,16.63,0,0,0,.44,1.69,27.58,27.58,0,0,0-1,7.25v.51A20.63,20.63,0,0,0,259,626.08c.1.3.21.58.32.87a26.66,26.66,0,0,0-1.73,9.52v.32a25.44,25.44,0,0,0,.72,5.92A27.21,27.21,0,0,0,256,653.64l1,7.41a28.66,28.66,0,0,0,1.05,3,23,23,0,0,0-.51,5.92,30.24,30.24,0,0,0,1.51,8.15,20.7,20.7,0,0,0-1.51,8.7l.93,6.77a23,23,0,0,0-.41,5.48,30.28,30.28,0,0,0,1,6.6v0a21.4,21.4,0,0,0,.34,4.71l-1.34,14.7c-.35,3.83,3.72,7.5,7.49,7.33a103.83,103.83,0,0,0,11.31-1.13,21.82,21.82,0,0,0,10.67,2.26l5.31-.7a28.44,28.44,0,0,0,8.25,1.21,27.49,27.49,0,0,0,8.16-1.27q4.23.6,8.5.89a7.33,7.33,0,0,0,1.52,2.2,5.63,5.63,0,0,0,2.41,1.52,5.74,5.74,0,0,0,2.89.63,7.65,7.65,0,0,0,5.3-2.15,7.54,7.54,0,0,0,2.19-5.19v-.51A7.5,7.5,0,0,0,330.38,725.55Z" transform="translate(4.02 0)"/><path class="cls-8" d="M457.14,726.28a8.47,8.47,0,0,0,.15-1.75c-.06-3.6-1.86-7.47-3-10.93a7.27,7.27,0,0,0,1.66-4.29,112.18,112.18,0,0,0-1.73-27.46c0-.1,0-.19-.07-.29l0-.29c1.11-6.8,3.08-14,3.35-20.85.3-7.76-6.74-9.2-13-9.7a117.2,117.2,0,0,0-20.78.28,9.4,9.4,0,0,0-4.49,1.62,6.68,6.68,0,0,0-4.94-1.55,259.06,259.06,0,0,1-35.56-.5c-6.68-.55-9.07,7.54-5.69,12,0,.2,0,.46.07.8l-.06,1.26c-.1,1.67-.34,3.34-.48,5q-.49,5.66-.62,11.34a186.29,186.29,0,0,0,.91,22.68,7.85,7.85,0,0,0,.63,2.42c-.09.88-.15,1.77-.15,2.68v.51a21.34,21.34,0,0,0,.39,5c-.31,4.69-.78,9.37-1.49,14-.6,3.91,1,7.88,5.23,9a8.4,8.4,0,0,0,7.57-2.05,9.07,9.07,0,0,0,2.7.6c2.07.14,4.13.2,6.19.2a22.1,22.1,0,0,0,7.87,1.11l7.57-1c.4-.11.78-.24,1.17-.36a22.78,22.78,0,0,0,4.82.33h.43l7.57-1h0c.46,0,.92,0,1.39,0a22.8,22.8,0,0,0,4.76-.32c5.18.68,10.43,1.11,15.53.13a5.63,5.63,0,0,0,2.38,1.48,5.74,5.74,0,0,0,2.89.63,7.65,7.65,0,0,0,5.3-2.15,7.54,7.54,0,0,0,2.19-5.19v-.51A7.28,7.28,0,0,0,457.14,726.28Z" transform="translate(4.02 0)"/><path class="cls-8" d="M818.44,707.77q2-77.27,1.52-154.57a29.2,29.2,0,0,0,1-8.73,47.21,47.21,0,0,0-1.17-8.53q-.09-8.46-.19-16.92c2.27-4.32.16-11-6.35-11.09l-22.9-.27a23.83,23.83,0,0,0-7.35-.36l-2.26.24-97.46-1.15,0-.08c-4.17-8.51-17.09-1.08-12.94,7.4.73,1.49.25,3.92.22,5.53-.06,2.89-.12,5.78-.18,8.66l0,1.58a30.83,30.83,0,0,0-3.7,15.9c.17,2.89.44,5.78.77,8.66-9.48,0-19.13-1.12-28.36-1.6-4.4-3.09-12.24-1.23-12.08,5.63l.58,25.82a36.57,36.57,0,0,0,.4,17.84l.46,20.66A51.22,51.22,0,0,0,628,628a56,56,0,0,0,.69,8.67l.17,7.49.9,40.08-.1.72a36.67,36.67,0,0,0,0,19.76c.18.64.39,1.26.6,1.88l0,1.52.24,10.66.13,5.81v.47a6.93,6.93,0,0,0-1.72,4.55c-.06,7.4,9,11.13,14.11,5.9a8.39,8.39,0,0,0,1.76.14q62-1.29,124-.76a29.54,29.54,0,0,0,10,1.33l8.54-1.12q12.68.16,25.36.4c7.57.14,9.19-8.85,4.89-12.82a7.89,7.89,0,0,0,.47-2.31Q818.47,714.07,818.44,707.77Z" transform="translate(4.02 0)"/><path class="cls-8" d="M1065.12,687.05c0-1.86-.07-3.71-.11-5.57,5.35-21-.81-42.38.78-63.69a6.32,6.32,0,0,0-.56-3.27q1.51-42.82,1-85.68c-.24-19.8-.85-39.58-1.7-59.36q-.21-4.92-.24-9.8c.17-2.79.21-5.57.14-8.36.13-3.2.34-6.41.68-9.64,1-9.17,1.77-18,.86-27.14,4.69-3.16,2-12.23-4.51-12.46l-108.27-3.78c-3.9-.14-6.83,3.25-7,6.85-.24,5.14-.2,10.26.07,15.36-1.65,15.53-1.21,31.25-1.3,46.83l-.3,51.34-.6,101.71a6.9,6.9,0,0,0,.45,2.56q-1.56,23.05-1,46.15a7.39,7.39,0,0,0-.3,1.76,376.13,376.13,0,0,0,1.73,58.31c.4,3.71,2.93,6.8,7,6.85a7.18,7.18,0,0,0,3.93-1.24,7.65,7.65,0,0,0,2.64.48l17.32.2a33.07,33.07,0,0,0,12.59,1.94,42.83,42.83,0,0,0,11.71-2.17c7.19,2.33,15.56,2.88,22.34.73.79-.25,1.57-.52,2.35-.81a39.62,39.62,0,0,0,6.4-.73,6.72,6.72,0,0,0,4.19,1.31l14,0a11,11,0,0,1,7-.82c4.73,3.39,13.26-.25,11-7.11C1063.21,714.89,1065.29,700.4,1065.12,687.05Z" transform="translate(4.02 0)"/><path class="cls-4" d="M1074.73,424.43c-2.91-1.21-7.15.22-7.3,4.29-.93,26.47,1,53-.45,79.43-.7,12.68-1.66,25.28-1.6,38,.06,13.3.76,26.59,1.46,39.88.24,4.62,5.74,5.84,8.47,3.64Q1074.78,507,1074.73,424.43Z" transform="translate(4.02 0)"/><path class="cls-4" d="M1075.88,656.66q-.11-11.11-.22-22.22c-2-3.78-9.32-3-9.45,2.38q-.86,34.07.24,68.14c.17,5.21,7.08,6.11,9.31,2.66q.1-11.11.22-22.22Q1075.75,671,1075.88,656.66Z" transform="translate(4.02 0)"/><path class="cls-4" d="M1075.55,734q0-2.49,0-5-1.17-5.09-1.95-10.26c-.39-2.62-3.78-4.05-6.14-3.42-2.87.77-3.88,3.39-3.49,6q.88,6,2.31,11.81C1067.48,738,1073.66,737.39,1075.55,734Z" transform="translate(4.02 0)"/><path class="cls-9" d="M-1.59,585.26q.22,76,.21,152.06H52.43V585.74Z" transform="translate(4.02 0)"/><path class="cls-9" d="M.72,506h52.2v79.22" transform="translate(4.02 0)"/><path class="cls-9" d="M-1.61,398.45q-.15,43-.44,86.07c.55,84.09.62,168.19.66,252.28l62.3-1V398.45Z" transform="translate(4.02 0)"/><path class="cls-9" d="M-1.4,308.48q-.05,45-.21,90H60.92V630.23h45V308.48Z" transform="translate(4.02 0)"/><polygon class="cls-9" points="64.94 735.86 64.94 630.24 109.89 630.24 109.89 575.17 189.8 575.47 189.8 630.24 231.76 630.24 231.76 735.86 64.94 735.86"/><polygon class="cls-9" points="109.89 432.52 173.82 432.68 173.82 575.17 109.89 575.47 109.89 432.52"/><polyline class="cls-9" points="71.53 308.48 71.93 87.46 82.92 58.12 105.89 61.05 105.89 86.48 114.89 87.46 114.89 224.37 135.86 224.37 135.86 371.07 262.72 374.98 258.73 731.94 231.76 731.94"/><polygon class="cls-9" points="260.37 585.25 331.65 585.25 335.64 735.86 260.72 731.94 260.37 585.25"/><polyline class="cls-9" points="167.12 372.03 166.83 336.84 281.7 336.84 281.7 585.25"/><polyline class="cls-9" points="382.59 432.68 313.67 432.68 314.09 585.25"/><polygon class="cls-9" points="375.6 736.83 375.6 651.75 459.5 651.75 459.5 735.86 375.6 736.83"/><line class="cls-9" x1="335.64" y1="735.86" x2="382.59" y2="737.32"/><polyline class="cls-9" points="386.52 651.75 382.59 286.96 440.53 286.96 440.53 244.91 544.41 244.91 548.41 266.43 579.37 266.43 579.37 336.84 599.35 336.84 599.35 469.85 610.34 469.85 610.34 630.24 619.33 630.24 619.33 731.94 459.5 735.86"/><polyline class="cls-9" points="610.34 469.85 610.34 381.83 673.27 381.83 673.27 552 631.32 552 633.31 735.86 582.37 731.94 582.37 646.86 567.39 640.99 567.39 504.07 549.41 497.23 549.41 355.42 527.43 352.49 527.43 286.96 440.53 286.96"/><polyline class="cls-9" points="633.3 381.83 633.31 282.07 754.18 282.07 750.18 504.07"/><polyline class="cls-9" points="673.27 503.99 824.1 506.03 824.1 736.83 633.31 735.86"/><polyline class="cls-9" points="754.18 480.6 775.16 480.6 775.16 308.48 831.1 308.48 831.1 381.83 840.09 381.83 840.09 485.49 851.07 485.49 851.07 567.64 869.05 570.58 869.05 630.24 897.02 630.24 897.02 735.86 824.1 736.83"/><polyline class="cls-9" points="897.02 630.24 908.01 630.24 908.01 308.48 984.93 308.48 984.93 398.45 949.97 398.45 947.97 735.86 897.02 735.86"/><polyline class="cls-9" points="984.93 398.45 1070.83 402.37 1070.83 735.86 947.97 735.86"/><path class="cls-9" d="M1072.59,735.86H1063" transform="translate(4.02 0)"/><path class="cls-9" d="M1031.85,400.77c1-18.95,3-37.53,4-56.11h35.45" transform="translate(4.02 0)"/><path class="cls-9" d="M937,308.48v-46c3.74.11,0,1.9,0,0,45,1,89.9,2,134.39,3.79" transform="translate(4.02 0)"/><path class="cls-10" d="M-1.39,730q0,6.36,0,12.71H1075.48q0-6.36.1-12.71Z" transform="translate(4.02 0)"/><g class="cls-11"><rect class="cls-12" x="77.93" y="106.04" width="9.99" height="17.66"/><rect class="cls-12" x="95.91" y="106.04" width="9.99" height="17.66"/><rect class="cls-12" x="77.93" y="130.43" width="9.99" height="17.66"/><rect class="cls-12" x="95.91" y="130.43" width="9.99" height="17.66"/><rect class="cls-12" x="77.93" y="155.92" width="9.99" height="17.66"/><rect class="cls-12" x="95.91" y="155.92" width="9.99" height="17.66"/><rect class="cls-12" x="77.93" y="180.31" width="9.99" height="17.66"/><rect class="cls-12" x="95.91" y="180.31" width="9.99" height="17.66"/><rect class="cls-12" x="77.93" y="206.77" width="9.99" height="17.66"/><rect class="cls-12" x="95.91" y="206.77" width="9.99" height="17.66"/></g><rect class="cls-13" x="77.93" y="231.16" width="9.99" height="17.66"/><rect class="cls-13" x="95.91" y="231.16" width="9.99" height="17.66"/><rect class="cls-13" x="77.93" y="257.63" width="9.99" height="17.66"/><rect class="cls-13" x="95.91" y="257.63" width="9.99" height="17.66"/><rect class="cls-13" x="77.93" y="282.02" width="9.99" height="17.66"/><rect class="cls-13" x="95.91" y="282.02" width="9.99" height="17.66"/><g class="cls-11"><rect class="cls-12" x="114.88" y="232.2" width="9.99" height="17.66"/><rect class="cls-12" x="114.88" y="256.59" width="9.99" height="17.66"/><rect class="cls-12" x="114.88" y="283.05" width="9.99" height="17.66"/><rect class="cls-12" x="114.88" y="307.44" width="9.99" height="17.66"/></g><g class="cls-11"><rect class="cls-12" x="114.88" y="335.86" width="9.99" height="17.66"/><rect class="cls-12" x="114.88" y="360.25" width="9.99" height="17.66"/><rect class="cls-12" x="114.88" y="386.72" width="9.99" height="17.66"/><rect class="cls-12" x="114.88" y="411.11" width="9.99" height="17.66"/></g><g class="cls-11"><rect class="cls-12" x="134.86" y="386.72" width="9.99" height="17.66"/><rect class="cls-12" x="152.84" y="386.72" width="9.99" height="17.66"/><rect class="cls-12" x="134.86" y="411.11" width="9.99" height="17.66"/><rect class="cls-12" x="152.84" y="411.11" width="9.99" height="17.66"/></g><rect class="cls-13" x="171.82" y="386.72" width="9.99" height="17.66"/><rect class="cls-13" x="171.82" y="411.11" width="9.99" height="17.66"/><g class="cls-11"><rect class="cls-12" x="189.8" y="386.72" width="9.99" height="17.66"/><rect class="cls-12" x="189.8" y="411.11" width="9.99" height="17.66"/><rect class="cls-12" x="209.78" y="386.72" width="9.99" height="17.66"/><rect class="cls-12" x="227.76" y="386.72" width="9.99" height="17.66"/><rect class="cls-12" x="209.78" y="411.11" width="9.99" height="17.66"/><rect class="cls-12" x="227.76" y="411.11" width="9.99" height="17.66"/></g><g class="cls-11"><rect class="cls-12" x="189.8" y="436.59" width="9.99" height="17.66"/><rect class="cls-12" x="189.8" y="460.99" width="9.99" height="17.66"/><rect class="cls-12" x="209.78" y="436.59" width="9.99" height="17.66"/><rect class="cls-12" x="227.76" y="436.59" width="9.99" height="17.66"/><rect class="cls-12" x="209.78" y="460.99" width="9.99" height="17.66"/><rect class="cls-12" x="227.76" y="460.99" width="9.99" height="17.66"/></g><g class="cls-11"><rect class="cls-12" x="188.8" y="486.47" width="9.99" height="17.66"/><rect class="cls-12" x="188.8" y="510.86" width="9.99" height="17.66"/><rect class="cls-12" x="208.78" y="486.47" width="9.99" height="17.66"/><rect class="cls-12" x="226.76" y="486.47" width="9.99" height="17.66"/><rect class="cls-12" x="208.78" y="510.86" width="9.99" height="17.66"/><rect class="cls-12" x="226.76" y="510.86" width="9.99" height="17.66"/></g><rect class="cls-13" x="188.8" y="537.33" width="9.99" height="17.66"/><rect class="cls-13" x="188.8" y="561.72" width="9.99" height="17.66"/><g class="cls-11"><rect class="cls-12" x="208.78" y="537.33" width="9.99" height="17.66"/><rect class="cls-12" x="226.76" y="537.33" width="9.99" height="17.66"/><rect class="cls-12" x="208.78" y="561.72" width="9.99" height="17.66"/><rect class="cls-12" x="226.76" y="561.72" width="9.99" height="17.66"/></g><rect class="cls-13" x="681.26" y="428.77" width="13.1" height="17.66"/><rect class="cls-13" x="681.26" y="453.16" width="13.1" height="17.66"/><rect class="cls-13" x="681.26" y="479.63" width="13.1" height="17.66"/><rect class="cls-13" x="681.26" y="378.89" width="13.1" height="17.66"/><rect class="cls-13" x="681.26" y="403.29" width="13.1" height="17.66"/><rect class="cls-13" x="635.31" y="355.36" width="13.1" height="17.66"/><rect class="cls-13" x="658.89" y="355.36" width="13.1" height="17.66"/><rect class="cls-13" x="681.15" y="355.36" width="13.1" height="17.66"/><rect class="cls-13" x="635.31" y="330.97" width="13.1" height="17.66"/><rect class="cls-13" x="658.89" y="330.97" width="13.1" height="17.66"/><rect class="cls-13" x="681.15" y="330.97" width="13.1" height="17.66"/><rect class="cls-13" x="635.31" y="306.52" width="13.1" height="17.66"/><rect class="cls-13" x="658.89" y="306.52" width="13.1" height="17.66"/><rect class="cls-13" x="681.15" y="306.52" width="13.1" height="17.66"/><g class="cls-11"><rect class="cls-12" x="704.83" y="428.77" width="13.1" height="17.66"/><rect class="cls-12" x="704.83" y="453.16" width="13.1" height="17.66"/><rect class="cls-12" x="704.83" y="479.63" width="13.1" height="17.66"/><rect class="cls-12" x="704.83" y="378.89" width="13.1" height="17.66"/><rect class="cls-12" x="704.83" y="403.29" width="13.1" height="17.66"/><rect class="cls-12" x="727.1" y="378.89" width="13.1" height="17.66"/><rect class="cls-12" x="727.1" y="403.29" width="13.1" height="17.66"/><rect class="cls-12" x="727.1" y="428.77" width="13.1" height="17.66"/><rect class="cls-12" x="727.1" y="453.16" width="13.1" height="17.66"/><rect class="cls-12" x="727.1" y="479.63" width="13.1" height="17.66"/><rect class="cls-12" x="704.12" y="354.39" width="13.1" height="17.66"/><rect class="cls-12" x="704.12" y="330" width="13.1" height="17.66"/><rect class="cls-12" x="726.1" y="330" width="13.1" height="17.66"/><rect class="cls-12" x="726.1" y="354.39" width="13.1" height="17.66"/><rect class="cls-12" x="704.12" y="305.55" width="13.1" height="17.66"/><rect class="cls-12" x="726.1" y="305.55" width="13.1" height="17.66"/></g><rect class="cls-13" x="914.45" y="444.42" width="10.2" height="17.66"/><rect class="cls-13" x="914.45" y="468.81" width="10.2" height="17.66"/><rect class="cls-13" x="914.45" y="495.27" width="10.2" height="17.66"/><rect class="cls-13" x="914.45" y="394.54" width="10.2" height="17.66"/><rect class="cls-13" x="914.45" y="418.93" width="10.2" height="17.66"/><rect class="cls-13" x="931.78" y="394.54" width="10.2" height="17.66"/><rect class="cls-13" x="931.78" y="418.93" width="10.2" height="17.66"/><rect class="cls-13" x="931.78" y="444.42" width="10.2" height="17.66"/><rect class="cls-13" x="931.78" y="468.81" width="10.2" height="17.66"/><rect class="cls-13" x="931.78" y="495.27" width="10.2" height="17.66"/><rect class="cls-13" x="913.89" y="370.03" width="10.2" height="17.66"/><rect class="cls-13" x="913.89" y="345.64" width="10.2" height="17.66"/><rect class="cls-13" x="913.89" y="321.19" width="10.2" height="17.66"/><g class="cls-11"><rect class="cls-12" x="931" y="345.64" width="10.2" height="17.66"/><rect class="cls-12" x="931" y="370.03" width="10.2" height="17.66"/><rect class="cls-12" x="931" y="321.19" width="10.2" height="17.66"/></g><g class="cls-11"><rect class="cls-12" x="914.45" y="642.95" width="10.2" height="17.66"/><rect class="cls-12" x="914.45" y="667.34" width="10.2" height="17.66"/><rect class="cls-12" x="914.45" y="693.8" width="10.2" height="17.66"/><rect class="cls-12" x="914.45" y="593.07" width="10.2" height="17.66"/><rect class="cls-12" x="914.45" y="617.46" width="10.2" height="17.66"/><rect class="cls-12" x="931.78" y="593.07" width="10.2" height="17.66"/><rect class="cls-12" x="931.78" y="617.46" width="10.2" height="17.66"/><rect class="cls-12" x="931.78" y="642.95" width="10.2" height="17.66"/><rect class="cls-12" x="931.78" y="667.34" width="10.2" height="17.66"/><rect class="cls-12" x="931.78" y="693.8" width="10.2" height="17.66"/><rect class="cls-12" x="913.89" y="568.56" width="10.2" height="17.66"/><rect class="cls-12" x="913.89" y="544.17" width="10.2" height="17.66"/><rect class="cls-12" x="931" y="544.17" width="10.2" height="17.66"/><rect class="cls-12" x="931" y="568.56" width="10.2" height="17.66"/><rect class="cls-12" x="913.89" y="519.72" width="10.2" height="17.66"/><rect class="cls-12" x="931" y="519.72" width="10.2" height="17.66"/></g><g class="cls-11"><rect class="cls-12" x="946.98" y="345.64" width="10.2" height="17.66"/><rect class="cls-12" x="946.98" y="370.03" width="10.2" height="17.66"/><rect class="cls-12" x="946.98" y="321.19" width="10.2" height="17.66"/></g><g class="cls-11"><rect class="cls-12" x="962.97" y="345.64" width="10.2" height="17.66"/><rect class="cls-12" x="962.97" y="370.03" width="10.2" height="17.66"/><rect class="cls-12" x="962.97" y="321.19" width="10.2" height="17.66"/></g><g class="cls-11"><rect class="cls-12" x="195.8" y="587.2" width="17.48" height="13.97"/><rect class="cls-12" x="227.26" y="587.2" width="17.48" height="13.97"/><rect class="cls-12" x="195.8" y="606.49" width="17.48" height="13.97"/><rect class="cls-12" x="227.26" y="606.49" width="17.48" height="13.97"/></g><g class="cls-11"><rect class="cls-12" x="449.52" y="253.71" width="11.99" height="11.74"/><rect class="cls-12" x="449.52" y="270.34" width="11.99" height="11.74"/></g><g class="cls-11"><rect class="cls-12" x="469.49" y="253.71" width="11.99" height="11.74"/><rect class="cls-12" x="469.49" y="270.34" width="11.99" height="11.74"/></g><g class="cls-11"><rect class="cls-12" x="491.47" y="253.71" width="11.99" height="11.74"/><rect class="cls-12" x="491.47" y="270.34" width="11.99" height="11.74"/></g><g class="cls-11"><rect class="cls-12" x="511.45" y="253.71" width="11.99" height="11.74"/><rect class="cls-12" x="511.45" y="270.34" width="11.99" height="11.74"/></g><g class="cls-11"><rect class="cls-12" x="531.43" y="253.71" width="11.99" height="11.74"/><rect class="cls-12" x="531.43" y="270.34" width="11.99" height="11.74"/></g><g class="cls-11"><rect class="cls-12" x="527.4" y="285.99" width="12.99" height="11.74" transform="translate(1071.81 583.71) rotate(180)"/><rect class="cls-12" x="527.4" y="302.61" width="12.99" height="11.74" transform="translate(1071.81 616.96) rotate(180)"/></g><g class="cls-11"><rect class="cls-12" x="531.43" y="319.24" width="11.99" height="11.74"/><rect class="cls-12" x="531.43" y="335.86" width="11.99" height="11.74"/></g><g class="cls-11"><rect class="cls-12" x="553.4" y="270.34" width="11.99" height="11.74"/><rect class="cls-12" x="553.4" y="286.96" width="11.99" height="11.74"/></g><g class="cls-11"><rect class="cls-12" x="549.38" y="302.61" width="12.99" height="11.74" transform="translate(1115.77 616.96) rotate(180)"/><rect class="cls-12" x="549.38" y="319.24" width="12.99" height="11.74" transform="translate(1115.77 650.21) rotate(180)"/></g><g class="cls-11"><rect class="cls-12" x="553.4" y="335.86" width="11.99" height="11.74"/><rect class="cls-12" x="553.4" y="352.49" width="11.99" height="11.74"/></g><g class="cls-11"><rect class="cls-12" x="554.4" y="369.11" width="11.99" height="11.74"/><rect class="cls-12" x="554.4" y="385.74" width="11.99" height="11.74"/></g><g class="cls-11"><rect class="cls-12" x="550.38" y="401.39" width="12.99" height="11.74" transform="translate(1117.76 814.51) rotate(180)"/><rect class="cls-12" x="550.38" y="418.01" width="12.99" height="11.74" transform="translate(1117.76 847.76) rotate(180)"/></g><g class="cls-11"><rect class="cls-12" x="554.4" y="434.64" width="11.99" height="11.74"/><rect class="cls-12" x="554.4" y="451.26" width="11.99" height="11.74"/></g><g class="cls-11"><rect class="cls-12" x="573.38" y="352.49" width="11.99" height="11.74"/><rect class="cls-12" x="573.38" y="369.11" width="11.99" height="11.74"/><rect class="cls-12" x="573.38" y="385.74" width="11.99" height="11.74"/><rect class="cls-12" x="569.36" y="401.39" width="12.99" height="11.74" transform="translate(1155.72 814.51) rotate(180)"/><rect class="cls-12" x="569.36" y="418.01" width="12.99" height="11.74" transform="translate(1155.72 847.76) rotate(180)"/><rect class="cls-12" x="573.38" y="434.64" width="11.99" height="11.74"/><rect class="cls-12" x="573.38" y="451.26" width="11.99" height="11.74"/></g><rect class="cls-13" x="554.4" y="467.89" width="11.99" height="11.74"/><rect class="cls-13" x="573.38" y="467.89" width="11.99" height="11.74"/><rect class="cls-13" x="573.38" y="484.52" width="11.99" height="11.74"/><rect class="cls-13" x="573.38" y="501.14" width="11.99" height="11.74"/><rect class="cls-13" x="569.36" y="516.79" width="12.99" height="11.74" transform="translate(1155.72 1045.31) rotate(180)"/><g class="cls-11"><rect class="cls-12" x="569.36" y="533.41" width="12.99" height="11.74" transform="translate(1155.72 1078.57) rotate(180)"/><rect class="cls-12" x="573.38" y="550.04" width="11.99" height="11.74"/><rect class="cls-12" x="573.38" y="566.67" width="11.99" height="11.74"/></g><g class="cls-11"><rect class="cls-12" x="591.36" y="484.52" width="11.99" height="11.74"/><rect class="cls-12" x="591.36" y="501.14" width="11.99" height="11.74"/><rect class="cls-12" x="591.36" y="517.77" width="11.99" height="11.74"/><rect class="cls-12" x="587.34" y="533.41" width="12.99" height="11.74" transform="translate(1191.68 1078.57) rotate(180)"/><rect class="cls-12" x="587.34" y="550.04" width="12.99" height="11.74" transform="translate(1191.68 1111.82) rotate(180)"/><rect class="cls-12" x="591.36" y="566.67" width="11.99" height="11.74"/><rect class="cls-12" x="591.36" y="583.29" width="11.99" height="11.74"/></g><g class="cls-11"><rect class="cls-12" x="569.36" y="583.29" width="12.99" height="11.74" transform="translate(1155.72 1178.32) rotate(180)"/><rect class="cls-12" x="573.38" y="599.92" width="11.99" height="11.74"/><rect class="cls-12" x="573.38" y="616.54" width="11.99" height="11.74"/></g><g class="cls-11"><rect class="cls-12" x="591.36" y="599.92" width="11.99" height="11.74"/><rect class="cls-12" x="591.36" y="616.54" width="11.99" height="11.74"/><rect class="cls-12" x="591.36" y="633.17" width="11.99" height="11.74"/><rect class="cls-12" x="587.34" y="648.82" width="12.99" height="11.74" transform="translate(1191.68 1309.37) rotate(180)"/><rect class="cls-12" x="587.34" y="665.44" width="12.99" height="11.74" transform="translate(1191.68 1342.62) rotate(180)"/><rect class="cls-12" x="591.36" y="682.07" width="11.99" height="11.74"/><rect class="cls-12" x="591.36" y="698.69" width="11.99" height="11.74"/></g><g class="cls-11"><rect class="cls-14" x="391.58" y="295.77" width="36.36" height="21.52"/><rect class="cls-14" x="437.26" y="295.77" width="36.36" height="21.52"/><rect class="cls-14" x="481.08" y="295.77" width="36.36" height="21.52"/><rect class="cls-14" x="392.58" y="323.15" width="36.36" height="21.52"/><rect class="cls-14" x="438.26" y="323.15" width="36.36" height="21.52"/><rect class="cls-14" x="482.08" y="323.15" width="36.36" height="21.52"/><rect class="cls-14" x="393.58" y="351.51" width="36.36" height="21.52"/><rect class="cls-14" x="439.26" y="351.51" width="36.36" height="21.52"/><rect class="cls-14" x="483.08" y="351.51" width="36.36" height="21.52"/></g><g class="cls-11"><rect class="cls-14" x="393.58" y="379.87" width="36.36" height="21.52"/><rect class="cls-14" x="439.26" y="379.87" width="36.36" height="21.52"/><rect class="cls-14" x="483.08" y="379.87" width="36.36" height="21.52"/><rect class="cls-14" x="394.58" y="407.26" width="36.36" height="21.52"/><rect class="cls-14" x="440.26" y="407.26" width="36.36" height="21.52"/><rect class="cls-14" x="484.08" y="407.26" width="36.36" height="21.52"/><rect class="cls-14" x="395.58" y="435.62" width="36.36" height="21.52"/><rect class="cls-14" x="441.26" y="435.62" width="36.36" height="21.52"/><rect class="cls-14" x="485.08" y="435.62" width="36.36" height="21.52"/></g><g class="cls-11"><rect class="cls-14" x="393.58" y="465.93" width="36.36" height="21.52"/><rect class="cls-14" x="439.26" y="465.93" width="36.36" height="21.52"/><rect class="cls-14" x="483.08" y="465.93" width="36.36" height="21.52"/><rect class="cls-14" x="394.58" y="493.32" width="36.36" height="21.52"/><rect class="cls-14" x="440.26" y="493.32" width="36.36" height="21.52"/><rect class="cls-14" x="484.08" y="493.32" width="36.36" height="21.52"/><rect class="cls-14" x="395.58" y="521.68" width="36.36" height="21.52"/><rect class="cls-14" x="441.26" y="521.68" width="36.36" height="21.52"/><rect class="cls-14" x="485.08" y="521.68" width="36.36" height="21.52"/></g><rect class="cls-15" x="395.58" y="552" width="36.36" height="21.52"/><rect class="cls-15" x="441.26" y="552" width="36.36" height="21.52"/><rect class="cls-15" x="485.08" y="552" width="36.36" height="21.52"/><rect class="cls-15" x="396.57" y="579.38" width="36.36" height="21.52"/><rect class="cls-15" x="442.26" y="579.38" width="36.36" height="21.52"/><rect class="cls-15" x="486.08" y="579.38" width="36.36" height="21.52"/><rect class="cls-15" x="397.57" y="607.74" width="36.36" height="21.52"/><rect class="cls-15" x="443.26" y="607.74" width="36.36" height="21.52"/><rect class="cls-15" x="487.07" y="607.74" width="36.36" height="21.52"/><g class="cls-11"><rect class="cls-14" x="534.42" y="510.92" width="15.98" height="16.63"/><rect class="cls-14" x="534.42" y="538.3" width="15.98" height="16.63"/><rect class="cls-14" x="534.42" y="567.64" width="15.98" height="16.63"/><rect class="cls-14" x="534.42" y="595.03" width="15.98" height="16.63"/><rect class="cls-14" x="534.42" y="624.37" width="15.98" height="16.63"/><rect class="cls-14" x="534.42" y="651.75" width="15.98" height="16.63"/><rect class="cls-14" x="535.42" y="680.11" width="15.98" height="16.63"/></g><g class="cls-11"><rect class="cls-14" x="616.33" y="391.61" width="15.98" height="13.39"/><rect class="cls-14" x="616.33" y="413.66" width="15.98" height="13.39"/><rect class="cls-14" x="616.33" y="437.28" width="15.98" height="13.39"/><rect class="cls-14" x="616.33" y="459.34" width="15.98" height="13.39"/><rect class="cls-14" x="616.33" y="482.96" width="15.98" height="13.39"/><rect class="cls-14" x="616.33" y="505.01" width="15.98" height="13.39"/><rect class="cls-14" x="617.33" y="527.85" width="15.98" height="13.39"/><rect class="cls-14" x="645.3" y="391.61" width="15.98" height="13.39"/><rect class="cls-14" x="645.3" y="413.66" width="15.98" height="13.39"/><rect class="cls-14" x="645.3" y="437.28" width="15.98" height="13.39"/><rect class="cls-14" x="645.3" y="459.34" width="15.98" height="13.39"/><rect class="cls-14" x="645.3" y="482.96" width="15.98" height="13.39"/><rect class="cls-14" x="645.3" y="505.01" width="15.98" height="13.39"/><rect class="cls-14" x="646.3" y="527.85" width="15.98" height="13.39"/></g><g class="cls-11"><rect class="cls-14" x="963.95" y="416.06" width="15.98" height="13.39"/><rect class="cls-14" x="963.95" y="438.11" width="15.98" height="13.39"/><rect class="cls-14" x="963.95" y="461.73" width="15.98" height="13.39"/><rect class="cls-14" x="963.95" y="483.78" width="15.98" height="13.39"/><rect class="cls-14" x="963.95" y="507.41" width="15.98" height="13.39"/><rect class="cls-14" x="963.95" y="529.46" width="15.98" height="13.39"/><rect class="cls-14" x="964.95" y="552.3" width="15.98" height="13.39"/><rect class="cls-14" x="992.92" y="416.06" width="15.98" height="13.39"/><rect class="cls-14" x="992.92" y="438.11" width="15.98" height="13.39"/><rect class="cls-14" x="992.92" y="461.73" width="15.98" height="13.39"/><rect class="cls-14" x="992.92" y="483.78" width="15.98" height="13.39"/><rect class="cls-14" x="992.92" y="507.41" width="15.98" height="13.39"/><rect class="cls-14" x="992.92" y="529.46" width="15.98" height="13.39"/><rect class="cls-14" x="993.92" y="552.3" width="15.98" height="13.39"/></g><g class="cls-11"><rect class="cls-14" x="965.95" y="574.49" width="15.98" height="13.39"/><rect class="cls-14" x="965.95" y="596.54" width="15.98" height="13.39"/><rect class="cls-14" x="965.95" y="620.17" width="15.98" height="13.39"/><rect class="cls-14" x="965.95" y="642.22" width="15.98" height="13.39"/><rect class="cls-14" x="965.95" y="665.84" width="15.98" height="13.39"/><rect class="cls-14" x="965.95" y="687.89" width="15.98" height="13.39"/><rect class="cls-14" x="966.95" y="710.73" width="15.98" height="13.39"/><rect class="cls-14" x="994.92" y="574.49" width="15.98" height="13.39"/><rect class="cls-14" x="994.92" y="596.54" width="15.98" height="13.39"/><rect class="cls-14" x="994.92" y="620.17" width="15.98" height="13.39"/><rect class="cls-14" x="994.92" y="642.22" width="15.98" height="13.39"/><rect class="cls-14" x="994.92" y="665.84" width="15.98" height="13.39"/><rect class="cls-14" x="994.92" y="687.89" width="15.98" height="13.39"/><rect class="cls-14" x="995.91" y="710.73" width="15.98" height="13.39"/></g><g class="cls-11"><rect class="cls-14" x="1016.89" y="415.08" width="15.98" height="13.39"/><rect class="cls-14" x="1016.89" y="437.13" width="15.98" height="13.39"/><rect class="cls-14" x="1016.89" y="460.76" width="15.98" height="13.39"/><rect class="cls-14" x="1016.89" y="482.81" width="15.98" height="13.39"/><rect class="cls-14" x="1016.89" y="506.43" width="15.98" height="13.39"/><rect class="cls-14" x="1016.89" y="528.48" width="15.98" height="13.39"/><rect class="cls-14" x="1017.89" y="551.32" width="15.98" height="13.39"/><rect class="cls-14" x="1045.86" y="415.08" width="15.98" height="13.39"/><rect class="cls-14" x="1045.86" y="437.13" width="15.98" height="13.39"/><rect class="cls-14" x="1045.86" y="460.76" width="15.98" height="13.39"/><rect class="cls-14" x="1045.86" y="482.81" width="15.98" height="13.39"/><rect class="cls-14" x="1045.86" y="506.43" width="15.98" height="13.39"/><rect class="cls-14" x="1045.86" y="528.48" width="15.98" height="13.39"/><rect class="cls-14" x="1046.86" y="551.32" width="15.98" height="13.39"/></g><g class="cls-11"><rect class="cls-14" x="1018.89" y="573.51" width="15.98" height="13.39"/><rect class="cls-14" x="1018.89" y="595.56" width="15.98" height="13.39"/><rect class="cls-14" x="1018.89" y="619.19" width="15.98" height="13.39"/><rect class="cls-14" x="1018.89" y="641.24" width="15.98" height="13.39"/><rect class="cls-14" x="1018.89" y="664.87" width="15.98" height="13.39"/><rect class="cls-14" x="1018.89" y="686.92" width="15.98" height="13.39"/><rect class="cls-14" x="1019.89" y="709.75" width="15.98" height="13.39"/><rect class="cls-14" x="1047.86" y="573.51" width="15.98" height="13.39"/><rect class="cls-14" x="1047.86" y="595.56" width="15.98" height="13.39"/><rect class="cls-14" x="1047.86" y="619.19" width="15.98" height="13.39"/><rect class="cls-14" x="1047.86" y="641.24" width="15.98" height="13.39"/><rect class="cls-14" x="1047.86" y="664.87" width="15.98" height="13.39"/><rect class="cls-14" x="1047.86" y="686.92" width="15.98" height="13.39"/><rect class="cls-14" x="1048.86" y="709.75" width="15.98" height="13.39"/></g><rect class="cls-16" x="8" y="330" width="21.98" height="21.52"/><rect class="cls-16" x="39.97" y="330" width="21.98" height="21.52"/><rect class="cls-16" x="8" y="364.22" width="21.98" height="21.52"/><rect class="cls-16" x="39.97" y="364.22" width="21.98" height="21.52"/><g class="cls-11"><rect class="cls-17" x="71.93" y="330" width="21.98" height="21.52"/><rect class="cls-17" x="71.93" y="364.22" width="21.98" height="21.52"/><rect class="cls-17" x="71.93" y="399.43" width="21.98" height="21.52"/><rect class="cls-17" x="71.93" y="433.66" width="21.98" height="21.52"/><rect class="cls-17" x="72.93" y="465.93" width="21.98" height="21.52"/><rect class="cls-17" x="72.93" y="500.16" width="21.98" height="21.52"/><rect class="cls-17" x="72.93" y="535.37" width="21.98" height="21.52"/><rect class="cls-17" x="72.93" y="568.62" width="21.98" height="21.52"/><rect class="cls-17" x="72.93" y="602.85" width="21.98" height="21.52"/></g><rect class="cls-16" x="791.13" y="525.59" width="20.08" height="20.31"/><rect class="cls-16" x="791.13" y="557.9" width="20.08" height="20.31"/><rect class="cls-16" x="791.13" y="591.13" width="20.08" height="20.31"/><rect class="cls-16" x="791.13" y="623.44" width="20.08" height="20.31"/><rect class="cls-16" x="792.04" y="653.9" width="20.08" height="20.31"/><rect class="cls-16" x="792.04" y="686.21" width="20.08" height="20.31"/><rect class="cls-16" x="756.44" y="525.59" width="20.08" height="20.31"/><rect class="cls-16" x="756.44" y="557.9" width="20.08" height="20.31"/><rect class="cls-16" x="756.44" y="591.13" width="20.08" height="20.31"/><rect class="cls-16" x="756.44" y="623.44" width="20.08" height="20.31"/><rect class="cls-16" x="757.36" y="653.9" width="20.08" height="20.31"/><rect class="cls-16" x="757.36" y="686.21" width="20.08" height="20.31"/><rect class="cls-16" x="719.94" y="525.59" width="20.08" height="20.31"/><rect class="cls-16" x="719.94" y="557.9" width="20.08" height="20.31"/><rect class="cls-16" x="719.94" y="591.13" width="20.08" height="20.31"/><rect class="cls-16" x="719.94" y="623.44" width="20.08" height="20.31"/><rect class="cls-16" x="720.85" y="653.9" width="20.08" height="20.31"/><rect class="cls-16" x="720.85" y="686.21" width="20.08" height="20.31"/><rect class="cls-16" x="685.26" y="525.59" width="20.08" height="20.31"/><rect class="cls-16" x="685.26" y="557.9" width="20.08" height="20.31"/><rect class="cls-16" x="685.26" y="591.13" width="20.08" height="20.31"/><rect class="cls-16" x="685.26" y="623.44" width="20.08" height="20.31"/><rect class="cls-16" x="686.17" y="653.9" width="20.08" height="20.31"/><rect class="cls-16" x="686.17" y="686.21" width="20.08" height="20.31"/><rect class="cls-16" x="650.29" y="557.9" width="20.08" height="20.31"/><rect class="cls-16" x="650.29" y="591.13" width="20.08" height="20.31"/><rect class="cls-16" x="650.29" y="623.44" width="20.08" height="20.31"/><rect class="cls-16" x="651.21" y="653.9" width="20.08" height="20.31"/><rect class="cls-16" x="651.21" y="686.21" width="20.08" height="20.31"/><rect class="cls-16" x="302.66" y="597.98" width="20.08" height="20.31"/><rect class="cls-16" x="302.66" y="630.28" width="20.08" height="20.31"/><rect class="cls-16" x="303.58" y="660.75" width="20.08" height="20.31"/><rect class="cls-16" x="303.58" y="693.05" width="20.08" height="20.31"/><rect class="cls-16" x="267.98" y="597.98" width="20.08" height="20.31"/><rect class="cls-16" x="267.98" y="630.28" width="20.08" height="20.31"/><rect class="cls-16" x="268.89" y="660.75" width="20.08" height="20.31"/><rect class="cls-16" x="268.89" y="693.05" width="20.08" height="20.31"/><rect class="cls-16" x="425.53" y="663.5" width="20.08" height="20.31"/><rect class="cls-16" x="425.53" y="695.81" width="20.08" height="20.31"/><rect class="cls-16" x="390.85" y="663.5" width="20.08" height="20.31"/><rect class="cls-16" x="390.85" y="695.81" width="20.08" height="20.31"/><rect class="cls-16" x="155.83" y="605.8" width="20.08" height="20.31"/><rect class="cls-16" x="155.83" y="638.11" width="20.08" height="20.31"/><rect class="cls-16" x="156.74" y="668.57" width="20.08" height="20.31"/><rect class="cls-16" x="156.74" y="700.88" width="20.08" height="20.31"/><rect class="cls-16" x="121.14" y="605.8" width="20.08" height="20.31"/><rect class="cls-16" x="121.14" y="638.11" width="20.08" height="20.31"/><rect class="cls-16" x="122.06" y="668.57" width="20.08" height="20.31"/><rect class="cls-16" x="122.06" y="700.88" width="20.08" height="20.31"/><rect class="cls-16" x="86.84" y="638.11" width="21.02" height="20.31" transform="translate(198.73 1296.52) rotate(180)"/><rect class="cls-16" x="85.89" y="668.57" width="21.02" height="20.31" transform="translate(196.82 1357.45) rotate(180)"/><rect class="cls-16" x="85.89" y="700.88" width="21.02" height="20.31" transform="translate(196.82 1422.06) rotate(180)"/><rect class="cls-16" x="189.07" y="639.09" width="20.08" height="20.31"/><rect class="cls-16" x="189.98" y="669.55" width="20.08" height="20.31"/><rect class="cls-16" x="189.98" y="701.86" width="20.08" height="20.31"/><rect class="cls-16" x="29.88" y="596.02" width="12.51" height="20.31"/><rect class="cls-16" x="29.88" y="628.33" width="12.51" height="20.31"/><rect class="cls-16" x="30.45" y="658.79" width="12.51" height="20.31"/><rect class="cls-16" x="30.45" y="691.1" width="12.51" height="20.31"/><rect class="cls-16" x="8.27" y="596.02" width="12.51" height="20.31"/><rect class="cls-16" x="8.27" y="628.33" width="12.51" height="20.31"/><rect class="cls-16" x="8.84" y="658.79" width="12.51" height="20.31"/><rect class="cls-16" x="8.84" y="691.1" width="12.51" height="20.31"/><rect class="cls-16" x="30.45" y="556.1" width="12.51" height="20.31"/><rect class="cls-16" x="30.45" y="525.82" width="12.51" height="20.31"/><rect class="cls-16" x="8.84" y="555.12" width="12.51" height="20.31"/><rect class="cls-16" x="8.84" y="525.82" width="12.51" height="20.31"/><rect class="cls-16" x="9.27" y="411.22" width="36.05" height="20.31"/><rect class="cls-16" x="10.91" y="441.68" width="36.05" height="20.31"/><rect class="cls-16" x="10.91" y="473.99" width="36.05" height="20.31"/><rect class="cls-16" x="121.14" y="448.38" width="36.05" height="20.31"/><rect class="cls-16" x="122.78" y="478.84" width="36.05" height="20.31"/><rect class="cls-16" x="122.78" y="511.15" width="36.05" height="20.31"/><rect class="cls-16" x="122.78" y="541.47" width="36.05" height="20.31"/><ellipse class="cls-18" cx="957.32" cy="155.14" rx="90.34" ry="87.03"/></g><g id="ajustes"><rect class="cls-2" x="5.02" y="1750" width="1079" height="171"/></g></svg>