<?xml version="1.0" encoding="utf-8"?>
<!-- Generator: Adobe Illustrator 21.1.0, SVG Export Plug-In . SVG Version: 6.00 Build 0)  -->
<svg version="1.1" id="Layer_1" xmlns="http://www.w3.org/2000/svg" xmlns:xlink="http://www.w3.org/1999/xlink" x="0px" y="0px"
	 viewBox="0 0 1082.9 1920" style="enable-background:new 0 0 1082.9 1920;" xml:space="preserve">
<style type="text/css">
	.st0{fill:#79BBCE;}
	.st1{fill:#343435;}
	.st2{opacity:0.5;fill:#102773;enable-background:new    ;}
	.st3{opacity:0.5;fill:#1B3D9E;enable-background:new    ;}
	.st4{opacity:0.5;fill:#04A5BF;enable-background:new    ;}
	.st5{opacity:0.5;fill:#06A2F9;enable-background:new    ;}
	.st6{opacity:0.5;fill:#0470BF;enable-background:new    ;}
	.st7{opacity:0.5;fill:#2CCDFF;enable-background:new    ;}
	.st8{opacity:0.5;fill:none;stroke:#102773;stroke-width:3.9929;stroke-miterlimit:10;enable-background:new    ;}
	.st9{opacity:0.8;fill:#102773;enable-background:new    ;}
	.st10{opacity:0.5;}
	.st11{fill:#EDC25B;}
	.st12{opacity:0.5;fill:#EDC25B;enable-background:new    ;}
	.st13{fill:#FFFFFF;}
	.st14{opacity:0.5;fill:#FFFFFF;enable-background:new    ;}
	.st15{opacity:0.5;fill:#A9ECFC;enable-background:new    ;}
	.st16{fill:#A9ECFC;}
	.st17{fill:none;stroke:#B03B39;stroke-width:50.1664;stroke-miterlimit:10;}
	.st18{fill:#AD5050;}
	.st19{fill:#B03B39;}
	.st20{opacity:0.6;fill:#A2C9E2;enable-background:new    ;}
</style>
<title>Game_1_screen 4 to the left</title>
<g id="illustration">
	<path class="st0" d="M1081.5,1522.4c-1-41.9-1.2-101.6-1.3-111.2c-1.4-123.2-1.5-246.3-1.5-369.5c-0.1-119.5,0.2-239,1.4-358.5
		c-1.3-119.7-1.4-239.4-1.4-359.1c0-108,0.3-216.1,1.1-324.1H2.5c0.3,73.9,0.5,147.8,0.4,221.6c0,89-0.2,178.1-0.7,267.1
		c0.6,90.5,0.6,180.9,0.7,271.4C2.9,875.4,2.5,990.7,1.6,1106c0,3.6,0,7.3,0,10.9c0,67.1-0.1,134.2-0.3,201.3
		c0.1,37.5,0.2,74.9,0.3,112.4c1.2,117.7,1.3,235.5,1.4,353.2c0,43.6,0,87.3-0.1,130.9h612.1c2.4-0.2,4.8-0.2,7.2-0.1
		c12.4-0.1,36-0.2,44.7,0c9-0.2,29.7-0.2,41.9-0.1c4.2-0.5,23-0.2,37.5,0.1h335.1c-0.2-9.2-0.2-29.7-0.1-41.7
		c-0.1-14.2-0.1-38.9,0.1-44.6c-0.2-6.7-0.3-34.4-0.1-47.5c-0.1-9-0.1-21.1-0.1-30.2h-1c-0.3,0-0.6-55.8,0-55.8h1
		c0-9.3,0-20.5,0-28.5h-1c-0.4,0-0.4-40.1-0.2-52.3c-0.2-13.1-0.2-51.5,0.2-51.5h1c-0.1-16.5,0-40.2,0.3-40.2L1081.5,1522.4z"/>
	<path class="st1" d="M1082.4,1786.4c-0.1-9-0.1-21.1-0.1-30.2h-1c-0.3,0-0.6-55.8,0-55.8h1c0-9.3,0-20.5,0-28.5h-1
		c-0.4,0-0.4-40.1-0.2-52.3c-0.2-13.1-0.2-51.5,0.2-51.5h1c-0.1-16.5,0-40.2,0.3-40.2h0.2c-1-41.9-1.2-101.6-1.3-111.2
		c-1.4-123.2-1.5-246.3-1.5-369.5c0-1.8,0-3.7,0-5.6l-8.4-24l-18.5-52.8l-27.1-77.5l-5.3-15.2l0,0l-16-45.9l0,0l-0.3-0.8l0,0
		l-13.1-37.4l-10.7-30.5l-1.6-4.5l-0.5-1.5l-30,0.2l-9.2,0.1l-28.8,0.2h-1.7l-35.3,0.2l0,0l-21.2,0.1h-2.8h-5.6h-0.9h-2.9h-2.3h-2.3
		h-5.4h-0.3l-8.4,0.1h-5.6l-8.4,0.1h-5.6l-8.4,0.1h-5.6l-8.4,0.1h-5.6l-8.4,0.1h-5.6l-8.4,0.1h-3.7L594.1,754h-2.3l-31.8,0.2
		l-104.3,0.7H454l-20.7,0.1l-51.3,0.3l-23,0.2l-13.3,0.1l-11,0.1l-104.6,0.7l-22.5,0.2l0,0l-25,0.2l0,0l-49.1,0.3l-16.4,0.1h-2.3
		l-24.9,0.2l-7.4,20.6l-2.9,8L40.2,896.1L26,935.6l-23.6,65.9c-0.2,36.7-0.5,73.3-0.8,110c0,3.6,0,7.2,0,10.8
		c0,67.1-0.1,134.3-0.3,201.4c0.1,37.5,0.2,74.9,0.3,112.4c1.2,117.7,1.3,235.5,1.4,353.2c0,43.6,0,87.1-0.1,130.7h40.1l576.3-0.3
		l114.3-0.1l349-0.2c-0.1-9.5-0.2-29.2,0-40.9c-0.1-14.2-0.1-38.9,0.1-44.6C1082.3,1827.2,1082.3,1799.5,1082.4,1786.4z"/>
	<path class="st2" d="M383.7,656.1c0.6-0.9,0.8-1.9,0.8-3c-0.7-22.2-1-44.5-0.8-66.7c0.1-11,0.3-21.9,0.7-32.9
		c0.3-9.6,1.5-19.8-2.3-28.9c-0.2-0.5-0.5-1-0.9-1.5c0.8-5.7,1.7-11.3,2.5-16.9c0.4-2.7-0.5-5.4-2.8-6.7c0-0.3,0-0.6,0.1-1
		c0.7-11.7,1.9-23.5,0.2-35.1c2.1-2.1,1.7-5,0.1-7c0.1-0.4,0.1-0.7,0.2-1.1c0.1-0.6,0.1-1.3,0-1.9c3.2-3.2,1.8-10.3-4.1-10.3
		l-54.1-0.5c-3.1-3.4-10.4-2.1-10.7,4c-0.7,19.8-0.3,39.6,1.1,59.3c-0.5,0.7-0.8,1.5-0.9,2.4c-1.6,9.6-0.7,19.1,0.5,28.6
		c0,0.1,0,0.2,0,0.2c-0.1,4.9,0.1,9.8,0.5,14.7c0,0.9,0,1.7,0,2.6c-0.6,0.9-0.9,2-1,3.2c-0.2,3.4,0,6.7,0.5,10.1
		c0.1,7.4-0.3,14.7-0.6,22.1c-0.4,10.5,9.9,9.3,17.6,8.6l1.8,29.6c-1.2,1.1-1.9,2.6-1.9,4.2c-0.4,17.7-0.3,36.4,2.7,54.4
		c-0.1,0.6-0.2,1.2-0.2,1.8l1,59.4c0,3.3,2.7,6,6,6l15.6-0.2c1.7,0,3.4-0.7,4.5-2.1c1.2,0.7,2.7,1,4.1,0.8c2.3,2.2,5.9,2.3,8.3,0.2
		c3.6-3.1,2.7-8.5,2.7-12.8c0-5.9,0-11.8-0.1-17.7c-0.1-5.6-0.2-11.1-0.3-16.7c-0.1-4.9,0.2-10.2-1.7-14.8c-0.2-0.6-0.6-1.2-1-1.7
		l1-23.2c2.2,0.1,4.3,0.2,6.4,0.4c3.2,0.3,6-3,6-6C385.1,658.5,384.6,657.1,383.7,656.1z"/>
	<path class="st2" d="M278.4,461c0-0.7-0.2-1.5-0.4-2.1c3.4-26.4,4.4-53,2.9-79.6c-0.1-1.2-0.5-2.4-1.3-3.4c1-4.4,0.7-9.8,1-14.1
		c0-1.9-0.9-3.8-2.5-4.9c1.7-1.6,2.5-4,2-6.3l-0.6-3c-0.5-2.5-3.3-4.4-5.8-4.4c-34.8,0.4-69.5,0.6-104.3,0.6c-4.2,0-6.2,3.6-5.8,7.3
		c-0.3,1.4-0.2,2.8,0.3,4.1c0.1,2.3,0,4.6-0.4,6.8c-0.3,1.7,0.1,3.5,1,5c-5.7,5.1-0.3,11.9,5.8,12.5c16.5,1.8,33.6,1.6,50.2,1.6
		c8.7,0,17.5-0.1,26.2-0.4c5,0.9,10,1.7,15,2c0,9.7,0.1,19.4,0.1,29.1c-0.3,0.7-0.4,1.4-0.5,2.1c-1.3,28.7-1.9,57.4-2,86.1
		c0,0.3,0,0.7,0.1,1l-0.8,45c-0.2,13.6-1.7,28,0.6,41.5c-0.6,1-1,2.1-1,3.2v0.4c0,1.6,0.6,3.1,1.8,4.2c1.1,1.1,2.6,1.7,4.2,1.8
		c0.7,0,1.4-0.2,2-0.4c2,0.9,4.4,0.7,6.3-0.5c3.5,0.8,7.4-1,6.9-5.5c-0.4-3.3-0.8-6.7-1.1-10c1-1.1,1.6-2.5,1.5-4l0.2-83
		c0-1.4-0.6-2.7-1.5-3.8C278.9,480.5,278.9,470.8,278.4,461z"/>
	<path class="st2" d="M1076.2,340.2L1076.2,340.2c-0.1-0.3-0.1-0.6-0.1-0.8l0.1-1.6c0-2.7,0-5.5,0-8.2c0-10.2,0-20.4,0-30.6
		c-0.2-0.2-0.4-0.5-0.7-0.7c0.2-1.4,0.5-2.9,0.7-4.3c0-7.3,0-14.7,0-22c-2.5-2.2-6.2-2.2-8.7,0l-38.6-0.8
		c-6.9-0.6-13.8-0.8-20.7-0.4c-0.9,0-1.8,0.3-2.7,0.7c-4.3-0.2-8.7-0.4-13-0.7l-18.2-1.3c-1.3-0.1-2.6,0.2-3.7,1
		c-6.4-1.4-12.9-2.4-19.5-2.7c-0.6,0-1.2,0-1.8,0.2l-2.1-0.9c-2.7-1.2-5.8-1-7.7,1.5c-1.3,1.8-1.6,4.2-0.7,6.2
		c-0.4,1.6,0,3.3,0.9,4.7c-1.6,1-2.5,2.9-2.3,4.8c0.5,4.2,0.3,10.2,1.5,15.3c0.1,1.5,0.2,3,0.4,4.6c-3.6,3-2.3,10.6,3.8,10.8
		c12.6,0.4,25.2,0.5,37.8,0.4c0,0.1,0,0.2,0.1,0.3c2.7,10.7,1.4,21.8,0.9,32.7c-0.6,12.2-0.7,24.4-0.5,36.6
		c0.1,5.4-0.5,11.8,0.9,17.1s6.2,5.7,10.8,5.8l35.8,1.2c3.3,0.1,5.9-2.8,6-6l2-51.5c5.7-0.4,11.3-1,17-1.7c5,0.7,10.9,1.8,15.8,0.8
		c0.2,0,0.4-0.1,0.6-0.1c0.7,0.3,1.5,0.4,2.3,0.4c1.3,0,2.5-0.4,3.5-1.1C1076.2,346.7,1076.2,343.4,1076.2,340.2z"/>
	<path class="st2" d="M896.4,735.8c-0.4-1.9-1.1-3.8-1.9-5.5c1.1-1.1,1.7-2.6,1.7-4.1c-0.1-2,0-4,0.2-6c0.5-3.3-1-6.1-3.6-7.1
		c-0.1-20.3,0.6-40.6,2.3-60.9c0.2-1.4-0.2-2.8-1.1-3.9c0.1-3.3-2.5-6.1-5.9-6.2l-17.2-1.4c-1.4-0.1-2.8-0.2-4.2-0.1
		c-0.1-2.5-0.3-5.1-0.4-7.6c-0.6-14.1-0.2-28.2,1.3-42.2c0.3-1.9-0.5-3.9-2.2-4.9c-0.6-3.6-4.2-6.5-7.5-5.3
		c-0.6-0.2-1.3-0.3-1.9-0.3c-0.8,0-1.6,0.2-2.4,0.5c-1.3-0.7-2.8-0.9-4.2-0.7c-0.3-26.1-1.8-52.3,0-78.4c0.3-4.6-3.9-6.4-7.4-5.5
		c-1.8-0.9-3.9-1-5.7-0.2l0.2-45.8l0.1-27.5c0-9-0.7-18.4,0.5-27.3c0.4-3.2-3.1-6-6-6c-0.8,0-1.6,0.1-2.4,0.5c0.2-19,0.3-38-0.3-57
		c0.1-0.5,0.2-1,0.2-1.5c0-3,0-6-0.1-9c0-1-0.3-1.9-0.7-2.7c-0.4-3.2-3.3-5.6-6.5-5.2c-1,0.1-1.9,0.5-2.7,1c-1.4-0.1-2.8,0.3-4,1.1
		c-5.1-0.3-10.2-0.7-15.3-1.1c-2.4-1.9-5.7-1.9-8.1,0c-2.3-1.5-5.2-1.5-7.5,0c-3-4.5-11.8-1.2-10.7,5.4c0.7,4.1,1.1,8.3,1.4,12.4
		c-0.4,0.8-0.6,1.8-0.6,2.7c0.1,51.5-0.3,102.9-1.2,154.4c-5.5-0.1-11-0.3-16.5-0.6c-1.1-1.1-2.6-1.6-4.1-1.6c-5.4,0-7,5.9-4.9,9.4
		c0,0,0,0.1-0.1,0.2c-0.4,1.6-0.2,3.2,0.6,4.6l0.2,0.2c-1.1,2.2-1,4.8,0.4,6.9c-0.4,3.2,1.6,6.7,5.7,6.8l69.1,0.4
		c-1.2,4.4-1,9-0.9,13.6c0.1,5.9,0.2,11.9,0.4,17.8c0.2,6.5,0.4,13,0.6,19.5c-0.2,0.4-0.4,0.8-0.5,1.3c-7.2,28.2-0.4,57-2.1,85.6
		c-0.2,1.7,0.5,3.4,1.9,4.5c-0.6,29.2-1.2,58.4-2.1,87.6c-0.2,6.1,7.2,7.3,10.5,3.8c1.6,2.2,4.5,2.5,6.9,1.3
		c0.2,0.1,0.4,0.2,0.7,0.3c3.4,1.2,7,1,10.5,0.6c3.8-0.3,7.6-0.4,11.4-0.3c9.9,0.1,19.8-1.3,29.7-1.8c5.4-0.3,7-6.1,4.8-9.5
		C896.5,739.7,896.9,737.7,896.4,735.8z"/>
	<path class="st3" d="M261.5,389.9c0-1.1-0.3-2.2-0.9-3.1c-0.2-0.4-0.5-0.8-0.8-1.1c0-0.1-0.1-0.2-0.1-0.2c-1.7-2.8-5.3-3.8-8.2-2.1
		c-0.4,0.3-0.8,0.6-1.2,1c-3.3-0.5-6.7-0.7-10-0.7c-0.1,0-0.2,0-0.3,0c-0.1,0-0.5-0.1-0.7-0.1c-2.2-0.1-4.5-0.2-6.7-0.2
		c-0.5,0-1,0.1-1.6,0.2l-4.9-0.4c-3.9-0.3-9.1-1.7-12.9-0.2c-2.5-0.7-5.1-1.3-7.7-1.6h-0.6c-3.4-0.5-6.8-0.7-10.2-0.8
		c-7.2-0.2-14.4-0.4-21.5-0.5l0,0l-9.7-0.2c-1.4-0.1-2.7,0.4-3.8,1.2c-5.7-0.4-11.3-1.1-16.9-2.3c-2.2-0.5-4.5-1.1-6.7-1.8
		c-0.7-0.2-1.5-0.4-2.2-0.3c-0.2,0-0.5,0-0.7,0.1c-0.3-14.2,0.3-28.5,0.7-42.7c0.2-7.5,0.3-14.9,0.3-22.4c0-3.7-0.1-7.3-0.3-11
		c-0.3-6.5-0.7-13.1-1.5-19.6c-0.1-0.5-0.2-1-0.3-1.5c0.6-6.4,1.3-12.9,1.8-19.3c0.7-8.2,1.2-16.5,1.2-24.7c0-1.3-0.4-2.6-1.2-3.6
		c-2.1-2.4-5.6-2.9-8.3-1.2c-0.7-0.1-1.4,0-2.1,0.1c-0.7-1-1.8-1.7-3-2c-0.5-0.1-1-0.2-1.6-0.1c-0.5,0-1.1,0-1.7,0.1
		c-1.8,0.1-3.7,0.3-5.5,0.5c0-10.9-0.3-21.7-1.2-32.6c0.3-0.2,0.5-0.4,0.7-0.6l0.5-0.5c0.4-0.4,0.8-0.9,1.1-1.5
		c0.9-1.7,0.9-3.8,0-5.5c-0.3-0.6-0.6-1.1-1.1-1.5c-0.3-0.3-0.6-0.5-1-0.8c1-25.7,1.6-51.5,1.8-77.2c0-1.4-0.5-2.9-1.4-3.9
		c0.3-3.8,0.6-7.6,0.8-11.4c0.3-2.1-0.8-4.2-2.8-5.1l0,0c-1.4-0.7-2.9-0.8-4.4-0.5l0,0c-0.2,0-0.4,0.1-0.6,0.2c0-0.1,0-0.2,0-0.2
		c0.4-5.9,0.8-11.8,1.1-17.6c0.2-2.1-0.3-4.3-1.5-6.1c-0.8-1.2-2-2.1-3.3-2.7c-3.6-1.7-8.6-1.7-13.1-1.7l0,0c-1.3,0-2.5,0-3.6-0.1
		c-1.3-0.1-2.6,0.2-3.6,1c-1,0.8-1.7,1.9-2,3.2c-0.2,0.3-0.3,0.7-0.4,1.1c-0.1,0.2-0.1,0.4-0.2,0.7c-0.1,0.2-0.1,0.2-0.2,0.3
		c-3.1,5.4-4.9,11.4-5.5,17.6l0,0c-0.5,4.1-0.7,8.2-0.6,12.2c0,12.3,0.3,24.7,0.5,37l0.2,12.6c-0.8,0.5-1.6,1.2-2.1,2v0.2
		c-0.4,0.9-0.6,1.8-0.6,2.8c0,6.4-0.1,12.9-0.1,19.3c0,1,0.2,2,0.6,2.9c0,1.4,0.1,2.9,0.1,4.3c0.7,36.5,1,73,0.9,109.6
		c0,0.2,0,0.5,0,0.7c-0.4,0.3-0.8,0.7-1.2,1.1c-1.5,1.8-2,4.1-0.2,7.2l0.2,0.3l0,0l0.1,0.2l-0.1,0.1c-1.8,1.4-2.5,3.8-1.8,5.9
		c0.3,1,0.7,1.9,1.3,2.8c-1.6,2.2-1.2,5.4,0.5,7.4l0.2,0.3c0.7,0.8,1.7,1.4,2.8,1.7c2.2,0.5,4.5,0.7,6.8,0.6h0.5
		c3.7,0.1,7.4,0,11-0.4l0.9-0.1c0.4,0,0.7-0.1,1.1-0.2c1-0.2,1.9-0.7,2.8-1.3l0,0l0,0l0.3-0.3c0.6,0.1,1.2,0.1,1.8,0.2
		c0.1,0,0.2,0,0.4,0l0,0l1.1,0.1l0,0l9.8,1.1c0.1,31.8-0.1,63.5-0.4,95.3c-0.1,0.5-0.2,1-0.3,1.5c-0.7,8.8-0.3,17.7,1.3,26.5
		c0.3,1.3,1.1,2.4,2.2,3.2c0.1,0.1,0.2,0.2,0.4,0.3c0.9,0.6,2.1,1,3.2,0.9l1-0.1c0.1,0,0.2,0,0.3,0l0,0c0.8-0.1,1.5-0.1,2.3-0.2h0.3
		c1.8-0.1,3.6-0.2,5.4-0.3h0.1c2.7-0.1,5.3-0.2,8-0.3h1.5c2.5-0.1,5-0.1,7.5-0.2h0.1c9.1-0.1,18.2-0.1,27.3-0.3l0,0l3.5-0.1
		c-0.1,1-0.2,2-0.2,3l0,0c0,0.9,0,1.8,0.1,2.7c0.1,1.2,0.1,2.4,0.2,3.4c0.1,8.1,0.3,16.1,0.4,24.2c0,2.3,0.1,4.6,0.1,7
		c-0.7,1-1.1,2.2-1,3.4c0,0.4,0,0.8,0,1.1c0.4,11.8,0.6,23.7,0.7,35.6l0,0c0.1,8.6,0.1,17.1,0,25.7c-0.1,10.3-0.3,20.7-0.7,31l0,0
		c0,1.5-0.1,3.1-0.2,4.6c0,1.8,0.8,3.4,2.1,4.6c0.3,0.3,0.6,0.5,0.9,0.7c0.4,0.3,0.9,0.4,1.4,0.5l0.5,0.1c2.6,0.5,5.3,0.8,8,0.9
		c0.7,0,1.3,0.1,2,0.1h1c0.5,0,1,0,1.5,0v0.8c0,0.3,0,0.7,0,1c0,15-0.1,29.9-0.1,44.9c0,0.8,0,1.5,0,2.3c0,1.8,0.9,3.5,2.2,4.7
		c0.4,0.4,0.9,0.7,1.4,0.9c0.7,0.3,1.5,0.5,2.3,0.4c3-0.2,6.1-0.3,9.1-0.4c5.9-0.2,11.9-0.2,17.8,0c2.5,0.1,4.9,0.2,7.4,0.3h0.3h0.5
		v0.2c0.1,7.8,0.1,15.6,0.2,23.3l0,0c0,1.5,0,3.1,0,4.6c0,2.7,0,5.4,0.1,8.1l0.3,36.8c0,1.8,0,3.5,0,5.2l0,0c0,0.4,0,0.8,0,1.2
		c0,2.8,0,5.6,0.1,8.3c0,2.8,0,5.6,0.1,8.4v1.1l0,0c0,0.6,0,1.3,0,1.9c0,0.5,0.1,0.9,0.2,1.4c0.1,0.4,0.2,0.8,0.4,1.2
		c0.1,0.3,0.3,0.6,0.5,0.8c0,0.1,0.1,0.1,0.1,0.2c2.2,2.5,6,3,8.7,1c2.1,0.8,4.6,0.5,6.4-0.9c2.7,4.1,10.3,3.4,11-2.2
		c0-0.3,0-0.6,0-0.9c-0.3-21.1-0.5-42.2-0.8-63.4c0-1,0-2,0-3c0-1.8,0-3.5-0.1-5.3v-0.5v-3c0-2.8-0.1-5.5-0.1-8.3l0,0
		c-0.1-5.6-0.1-11.2-0.2-16.9v-2l0,0c-0.1-8.2-0.2-16.3-0.3-24.5c0-3.2-0.1-6.5-0.1-9.7c0-0.9-0.2-1.8-0.6-2.6l0.6-14.5
		c0.4-9.9,0.9-19.9,1.3-29.8c0.3-6.5,0.6-13.1,0.9-19.6v-0.3c0-1.2,0.1-2.3,0.1-3.4c0-0.1,0-0.1,0-0.2c0.4-9.7,0.7-19.5,0.5-29.2
		l0,0l0,0c0-2.4-0.1-4.9-0.2-7.3v-0.1c-0.1-2.2-0.2-4.4-0.4-6.6c0-0.5-0.1-1-0.1-1.6c-0.1-1.1-0.5-2.2-1.1-3.1
		c0.1-1,0.2-2.1,0.3-3.1c0.4-3.8,0.7-7.6,0.9-11.5c0.6-9,0.7-18.1,0.2-27.2c0-1.3-0.5-2.5-1.3-3.5c0.1-1.8,0.3-3.6,0.4-5.4v-0.5
		c0.8-11.8,1.4-23.6,2.1-35.4v-0.1c0.1-1.4,0.2-2.7,0.2-4c0.4-1.4,0.4-2.9,0-4.3v-0.1c0.6-0.9,0.9-2,0.9-3.1L261.5,389.9z
		 M121.4,422.4l-0.5,0.1c-0.3,0.1-0.7,0.2-1,0.3c0-0.1,0-0.3,0-0.4L121.4,422.4z"/>
	<path class="st3" d="M1076.9,612.5c0-4.2,0-8.4-0.1-12.6c-0.1-1-0.2-2-0.3-3c0-0.3-0.2-0.6-0.4-0.9l-0.1-1.2
		c-0.1-0.7-0.6-1.2-1.2-1.4c0-0.7,0-1.5,0-2.2c0-1.1,0-2.2,0-3.3c0.1-9.5,0.1-19.1,0-28.6c0.1-1.1,0.1-2.2,0.2-3.3
		c0-0.2,0-0.4-0.1-0.6c0.5-14.7,0.7-29.3,0.8-44c0-0.5-0.2-1-0.7-1.2c0.1-1.7,0.2-3.3,0.3-5c0.4-0.3,0.7-0.7,0.6-1.2
		c-0.1-2.6-0.1-5.1-0.1-7.7c0.1-1.9,0.3-3.9,0.4-5.8c0-0.9,0-1.9,0-2.8c-0.3-0.5-0.8-0.7-1.4-0.7c0-0.5-0.1-1.1-0.1-1.6
		c0-0.1,0.1-0.3,0.1-0.4c0.6-8.6,0.8-17.1,0.5-25.7c0-0.2-0.1-0.5-0.2-0.7c0.1-6.7,0-13.3-0.3-20c0.6-2.8,1-5.7,1.4-8.5
		c0-26.1-0.1-52.1-0.1-78.2c-1-1.1-2.5-1.6-4-1.5c-7,0.8-14.1,1.2-21.2,1.1c-1.2-0.1-2.4,0.3-3.4,0.9c-3.5-2.8-10.1-0.1-9.7,4.8
		c0.3,2.9,0.5,5.8,0.5,8.6c-0.4,0.6-0.7,1.3-0.8,2c-1.8,12.3-3,24.7-3.5,37.1c-0.1,3.4,2.9,5.7,6,6c8.2,0.7,16.5,1.5,24.7,2.2
		c0.5,0,1.1,0,1.6,0c-0.2,3.5-0.4,7-0.4,10.5c-0.1,2.7,1.7,5,4.3,5.6c0.1,1.1,0.1,2.1,0.2,3.2c-0.9,16.1-0.7,32.2-0.4,48.3
		c-0.5,0.2-0.8,0.7-0.9,1.3c-0.2,3-0.2,5.9-0.2,8.9c-0.3,3.9,0,7.9,0.7,11.7c0,0.2,0.1,0.3,0.2,0.4l0.1,2.7
		c-0.7-0.1-1.4,0.5-1.4,1.2c0,0.1,0,0.2,0,0.3l1.5,33c-0.6,0.2-1,0.7-1,1.4c-0.6,13.7-0.2,27.4,1.1,41.1c-0.7,10-0.7,20.1-0.2,30.2
		c-0.6,4.7-0.7,9.5-0.4,14.3c-0.2,8.1-0.1,16.2,0.2,24.2c-0.8,0-1.5,0.6-1.6,1.4c-1.2,10.4,0.2,20.6,1.8,30.8
		c-0.9,7.8-1.3,15.7-1.3,23.6c0,8.6,1.2,17.2,1.7,25.8c-0.5,0.2-0.8,0.7-0.8,1.2l-0.2,12.1c0,0.6,0.3,1.1,0.9,1.3l0.1,0.6
		c0,0.8,0.7,1.5,1.5,1.5c0.6,0,1.1-0.4,1.3-0.9c3.2-0.8,3-4.7,2.7-7.4l-0.5-3.7c0-0.1,0-0.2,0-0.3l-0.6-66.8
		c0.2-0.8,0.3-1.7,0.4-2.5c0.1-0.4,0-0.8-0.2-1.1l0,0c0.8-4.4,1.2-8.7,0.1-13l0.1-7.7c0.3-5.2,0.4-10.4,0.3-15.6
		c0-0.4-0.2-0.7-0.4-1c0.5-5.6,0.8-11.2,1-16.8C1076.4,612.8,1076.7,612.7,1076.9,612.5z"/>
	<path class="st3" d="M983.1,398.3c-0.5-0.5-1.2-0.9-1.9-1.1c1.3-18.5,1.8-37.1,1.7-55.6c0-1.6-0.8-3.1-2.3-3.8
		c0.2-1.4,0.3-2.8,0.5-4.2c0.1-0.7,0-1.4-0.3-2c0-0.1,0-0.3,0-0.4v-6.3c1.7-1.4,2.3-3.7,1.4-5.7v-0.4c0-1.2-0.5-2.3-1.3-3.2
		c-0.8-0.8-2-1.3-3.2-1.3c-2,0.4-4,1.3-5.6,2.6c-12.2-0.1-24.3-0.5-36.4-1.2c-1.1-0.1-2.2,0.4-3,1.2l-17.9-0.7c-0.2,0-0.4,0-0.5,0.1
		c-1.9-1.7-4.7-1.6-6.4,0.3c-0.7,0.8-1.2,1.8-1.2,2.9c-1.1,43.6-1.2,87.2-0.4,130.8c0,0.5,0.1,1,0.3,1.5c0.3,6.7,0.5,13.4,0.8,20.2
		c-0.4,0.7-0.6,1.4-0.7,2.2c-2.1,27.5-1,55,1,82.4c-0.6,0.7-1,1.7-1,2.6c-0.9,17.9-0.6,35.8,1.1,53.7c-1.1,4-1,8.2-0.8,12.6
		c0.3,6,0.6,12,0.9,17.9l-7.5,0.2c-2.7,1.7-4.6,4.5-5.3,7.6c-1,31.8-0.5,63.7,1.3,95.5c0.3,4.6,6,5.5,8.2,2.8
		c4.1,2,10.2,1.2,14.2,1.3c8.1,0.2,16.2,0,24.3-0.3c4.2-0.2,5.3-5,3.4-7.5c0.2-0.8,0.3-1.5,0.3-2.3c0-1.5-0.7-3-1.9-4
		c1.9-1.4,2.9-3.6,1.6-7.1c-0.5-1.5-1.4-2.8-2.7-3.7c1.2-0.5,2.1-1.6,2.5-2.8c1.2-3.1,0.5-6.6-1.8-8.9c-0.1-0.1-0.3-0.2-0.4-0.3
		c0.1-0.4,0.2-0.8,0.2-1.3c1.6-39.1,2.5-78.2,2.7-117.4c0.1-1.8-0.9-3.4-2.6-4c3-54.9,5.1-109.9,2.4-164.8c0-0.8-0.3-1.6-0.7-2.2
		c0.1-1.1,0.1-2.1,0.2-3.2c0-0.2,0.1-0.3,0.1-0.5l1.5-13.6c0-0.2,0-0.3,0-0.5c2.9,0.2,5.8,0.4,8.7,0.5c6.6,0.2,13.4-0.9,20-1.5
		c0.8,0.6,1.8,1,2.8,1h0.5c1.2,0,2.3-0.5,3.2-1.3C984.9,402.9,984.9,400.1,983.1,398.3C983.1,398.3,983.1,398.3,983.1,398.3
		L983.1,398.3z"/>
	<path class="st3" d="M750.6,307.5c1-1.9,0.7-4.2-0.8-5.7c1.1-0.9,1.8-2.2,1.9-3.6l0.4-4.2c0.2-2.5-2.3-4.4-4.5-4.5
		c-38.2-1.8-76.4-2.4-114.6-1.9c-2.5,0-4.5,2-4.5,4.5c0.1,4-0.9,10.5,1.5,14c0.6,0.9,1.5,1.7,2.5,2.1c-0.9,1.9-0.5,4.2,1,5.7
		c-1,1.3-1.3,3.1-0.7,4.7c-0.3,0.6-0.5,1.3-0.5,2c0,0.5,0.1,1,0.3,1.5c-0.1,0.4-0.2,0.8-0.2,1.2c-0.5,16.1-0.3,32.2,0.6,48.3
		c-0.2,0.6-0.4,1.1-0.4,1.7l-0.7,12.5c-0.2,3.7,3.3,5,6,4c1.7,0.5,3.6-0.3,4.6-1.8c1.8,1.9,5.1,2.3,6.7,0.4c2.2,2.7,7.1,2.3,7.9-1.2
		c4.7,1.4,9.5,2.4,14.3,2.8c-0.5,18.5-0.2,36.9-0.2,55.4c0,21.6,0.1,43.2,1.2,64.7c0.2,4.2,5,5.3,7.5,3.4c0.8,0.7,1.8,1.1,2.9,1.1
		c1.2,0,2.3-0.5,3.2-1.3c1.8,1.7,4.6,1.7,6.3,0c0.1-0.1,0.2-0.2,0.3-0.3c0.4-0.1,0.8-0.2,1.1-0.4c0.4,0.1,0.9,0.2,1.3,0.2h0.5
		c0.6,0,1.3-0.2,1.9-0.4c1.4,1.8,4,1.7,5.9,0.3c1.6,0.8,3.4,0.7,4.9-0.2c1.3,1,3.1,1.1,4.5,0.3c1.8,1.1,4.1,1,5.8-0.4
		c0.9,0.3,1.9,0.3,2.9,0c1.8,1.9,4.9,2.1,6.8,0.3c2.8-0.2,5.6-0.2,8.4,0c0.1,0.1,0.3,0.1,0.4,0.1c-0.2,5.7,8.7,5.7,9-0.1
		c0-0.7,0.1-1.4,0.1-2.2c0.3-0.6,0.4-1.2,0.4-1.9v-6.4c1.9-40.9,4.5-82,4.4-122.9c0-1-0.3-2-1-2.8c0.8-1.9,0.9-4,0.2-5.9
		c-0.3-0.8-0.7-1.6-1.2-2.3c1.1-1.2,1.5-2.8,0.6-5.1c0.9-0.9,1.4-2,1.5-3.2c0.4-2.2-0.4-4.5-2.2-6c2.5-1.4,4-3.9,2.9-8
		c-0.4-1.7-1.4-3.3-2.7-4.4c1.1-0.9,1.7-2.2,1.8-3.5c0.1-2.8-0.1-5.6-0.9-8.2c-0.2-0.8-0.6-1.5-1.2-2c2.8-1.2,3.3-5.2,1.4-7.2
		c0.8-1.4,0.8-3,0.3-4.4C755,315.6,755.1,308.5,750.6,307.5z"/>
	<path class="st3" d="M617.2,666.7c0-0.2-0.1-0.5-0.2-0.7c-0.2-0.7-0.6-1.3-1.1-1.8c-0.3-0.3-0.7-0.5-1-0.7l0.1-0.6
		c0.3-3.5,0.7-7,1-10.4c0.2-1.6,0.3-3.3,0.5-4.9c0-1.5-0.7-2.9-2-3.8c-0.7-0.5-1.6-0.8-2.5-0.7l-3.6,0.4l-2.4,0.3
		c0.2-4.8,0.3-9.5,0.4-14.3l0,0v-0.9c0.4-12.9,0.6-25.8,0.8-38.8c0.1-4.8,0.1-9.6,0.2-14.4c0.1-9,0.2-17.9,0.2-26.9
		c0-5,0-10.1,0-15.1c0-5,0-10-0.1-15c0-1.3-0.5-2.5-1.5-3.3c0.5-6.9,0.6-13.8,0.1-20.7c0-0.4-0.1-0.8-0.2-1.1
		c0.3-1.5,0.5-3.1,0.8-4.6c0.5-0.4,0.9-0.9,1.2-1.5c0.6-1.3,0.6-2.9,0-4.2c-0.7-1.5-2.2-2.4-3.9-2.4c-0.6,0-1.1,0.1-1.6,0.3
		l-7.3,0.3c0.3-3.4,0.6-6.9,0.7-10.4c0.1-2.5,0.1-5.1,0.1-7.6c-0.1-8.3-0.7-16.6-0.6-25c0-1.8,0.1-3.7,0.2-5.5l0,0
		c0.3-7,0.8-13.9,1.5-20.9c0.3-3,0.6-5.9,0.9-8.9c0.2-1.1-0.2-2.2-0.9-3c-0.5-0.5-1.1-0.9-1.8-1.1c1.3-12.2-0.3-24.6,1.5-36.9
		c0.1-0.5,0.2-1,0.3-1.6c0.9-4.1,2.9-9.7,0-12.9c-0.4-0.4-0.8-0.8-1.3-1.1c-2.6-1.6-6-1.1-8.9-1.1l-10.7-0.1c0-3.2-0.2-6.5-0.6-9.7
		c0-0.2-0.1-0.4-0.1-0.5c0.5-7.8,1.1-15.6,1.6-23.5c0-0.4,0.1-0.7,0.1-1.1c0.6-8.8,1.2-17.5,1.9-26.3c0.2-1.5-0.5-3-1.9-3.7
		l-0.3-0.1c0.1-0.3,0.2-0.7,0.3-1c0.2-0.8,0.4-1.6,0.4-2.4c0.1-0.7-0.1-1.4-0.4-2c-0.9-1.5-2.4-2.4-4.1-2.5
		c-8-0.5-16.1-0.6-24.1-0.4l-0.1-0.3c-1.2-4.3-2.3-8.6-3.5-12.9c-0.6-2.3-1.2-4.4-2.6-5.9c-0.8-0.7-1.7-1.3-2.7-1.6
		c-4.7-1.4-10.6-0.9-15.5-1c-5.5-0.2-11.1-0.4-16.6-0.5h-3.4c-4.5,0-9.1,0-13.6,0c-5.1,0-10.1,0.2-15.2,0.3c-11,0.4-22.1,1.9-33,1.2
		c-2.1-0.3-4,1.2-4.2,3.3c0,0,0,0.1,0,0.1c-0.2,1.1,0,2.2,0.5,3.2c-0.3,0.6-0.5,1.3-0.5,2c0.1,8.1,0.2,16.3,0.3,24.4
		c0,0.9,0.3,1.8,0.8,2.5c-0.5,2.5,0.9,5,3.3,5.8c0.7,0.2,1.5,0.3,2.3,0.2l1-0.2c7-1.1,14.1-1.7,21.3-1.9c0.8,1.2,2.2,1.8,3.6,1.8
		c12.2,0,24.5,0.1,36.7-0.1l0,0c4.2-0.1,8.4-0.1,12.6-0.3l0,0c2,0,4-0.1,6-0.2c-0.4,2.2-0.7,4.5-0.8,6.7l0,0
		c-0.2,2.8-0.3,5.7-0.2,8.5c0,1.5,0.1,2.9,0.1,4.4c0.4,9.6,1.4,19.3,0.8,28.9c-0.2,3.2-0.8,6.7-1,10.1c0,0.9,0,1.8,0,2.6
		c0,0.3,0,0.6,0.1,0.9c0.3,2.6,1.1,4.7,3.7,5.7c0.2,0.1,0.4,0.1,0.6,0.2l0,0c0.5,0.2,1.1,0.3,1.6,0.4l0,0c2.3,0.4,4.6,0.7,6.9,0.7
		l0,0c0.8,0.1,1.5,0.1,2.2,0.2l1.5,0.2l0,0l5.3,0.7c0.2,1.7,0.5,3.3,0.8,5c0.2,1.5,0.3,3,0.3,4.5c0,0.1-0.1,0.1-0.1,0.2l0,0
		c-0.1,0.2-0.1,0.4-0.2,0.6c-0.2,1.5-0.4,2.9-0.6,4.3l0,0c0,0.3-0.1,0.5-0.1,0.8l0,0c-0.1,0.8-0.1,1.6-0.2,2.4
		c-0.1,1.7-0.1,3.4,0,5.1c0,0.9,0.1,1.7,0.2,2.6c0.1,0.5,0.2,1,0.5,1.5v0.1c0.3,0.6,0.8,1.2,1.3,1.6c0,2.5,0,5,0,7.5
		c-1.2,0.8-2,2.1-1.9,3.6c0,3.5,0,7,0,10.6c0,6.2,0,12.4,0,18.6c0,7.8,0,15.6,0,23.4v0.9c0,2.8,0,5.6-0.1,8.4v1.3
		c-0.1,6.5-0.3,13-0.2,19.4v0.1c0,3.7,0.2,7.4,0.4,11c0.2,3.4,0.6,6.8,1,10.2c0.1,0.5,0.2,1.1,0.5,1.5c0.8,1.4,2.5,2,4.1,1.6
		c0.5-0.1,1-0.3,1.5-0.5c0.6,1.1,1.7,1.8,2.9,2c1.3,0.3,2.6,0.1,3.8-0.6c0.6,2.1,2.9,3.3,5,2.7c0,0,0.1,0,0.1,0
		c0.1,0.3,0.2,0.7,0.3,1c0.1,0.3,0.2,0.5,0.3,0.8c-0.2,0.5-0.3,1.1-0.3,1.7c0,0.3,0,0.7,0,1c0.1,10.1,0.4,20.2,0.9,30.3
		c-0.3,9.3-0.6,18.7-0.7,28c-0.1,4.8-0.1,9.6-0.2,14.4c-0.1,20.7,0.3,41.3,1.2,61.9l0.1,1.5c0,0.5,0.1,1,0.3,1.4
		c0.1,0.4,0.3,0.8,0.6,1.1c0.6,0.8,1.5,1.4,2.4,1.8l6.8,2.6l0,0l2.5,1l2.1,0.8c-0.8,14.2-1.4,28.5-1.7,42.8c0,2.4-0.1,4.8-0.1,7.2
		c-0.1,6,0,12,0.1,18.1c0,2.2,0,4.5,0.2,6.7l0,0c0,0.1,0,0.2,0,0.3c0,0.1,0,0.1,0,0.2c0.1,2.5,0.7,4.9,1.7,7.1
		c0.4,0.8,0.8,1.6,1.3,2.3c0.1,0.2,0.3,0.4,0.4,0.5l0.4,0.5c1,1.2,2.5,1.7,4,1.2c0.8-0.2,1.6-0.6,2.2-1.2c0.2-0.2,0.4-0.3,0.5-0.5
		c0.1-0.1,0.1-0.1,0.2-0.2l0,0c0.3-0.5,0.6-1,0.7-1.5c0.9,0.6,1.9,1.1,2.9,1.5h0.1c1.1,0.4,2.2,0.7,3.3,0.9l0,0
		c1.4,0.2,2.7,0.3,4.1,0.3l0,0c3.5,0,6.9-0.3,10.3-0.9c0.6-0.1,1.2-0.4,1.7-0.8c0.7-0.5,1.2-1.3,1.5-2c0.2-0.4,0.3-0.9,0.3-1.4
		c-0.5-4.1-0.8-8.1-1-12.2c0-0.2,0-0.4,0-0.6c0.7-0.8,1.1-1.9,1-2.9c-0.2-2.3-0.4-4.7-0.8-6.9c-0.1-0.6-0.2-1.3-0.3-1.9
		c0.1-3.7,0.2-7.5,0.3-11.2c0.1-3.3,0.3-6.6,0.4-9.9c0-0.1,0-0.2,0-0.3c0-0.5,0-1,0-1.5c0.3-8.1,0.2-16.2-0.5-24.2
		c0.1-0.1,0.2-0.1,0.3-0.2l0.1-0.2c0,0,0.1-0.1,0.2-0.2c0.5-0.5,0.8-1.1,1.1-1.7c0.1-0.1,0.1-0.2,0.1-0.4l0,0c0.1-0.3,0.1-0.7,0.1-1
		C617.2,667.3,617.2,667,617.2,666.7z M598.4,589.8c0,1.7,0,3.3-0.1,5c-0.1,4-0.1,8-0.2,12l-0.1,3c0-1,0-2,0-3c0-4,0.1-8,0.2-12
		C598.2,593.2,598.3,591.5,598.4,589.8c0-0.1,0-0.1,0-0.2L598.4,589.8z"/>
	<path class="st4" d="M56.5,744.4c-0.1-1.1-0.4-2.1-1-3l-0.1-0.1l0,0c-0.2-0.2-0.3-0.4-0.5-0.6c-0.3-0.3-0.6-0.5-0.9-0.8l-0.6-14
		l0,0l-0.7-18.7c0.3-0.5,0.5-1,0.6-1.5c0.1-0.4,0.1-0.9,0.2-1.3c0.2-7,0.3-14,0.2-20.9c-0.1-4.2-0.2-8.3-0.4-12.5
		c-0.2-3.9-0.4-7.8-0.7-11.7c0-0.1,0-0.1,0-0.2c0.5-4.4,0.3-8.9,0.5-12.4c0.2-2.2,0.3-4.3,0.4-6.5c0.6-9.1,1-18.1,1.4-27.2
		c0.1-3.3,0.9-7.5-0.2-10.9c0.1-0.3,0.1-0.6,0.2-0.9c0.2-1.3,0.3-2.7,0.4-4c0.3-3.5,0.4-7.1,0.4-10.6c0-1,0-2,0-3c0-0.7,0-1.4,0-2
		c-0.5-18-3.2-36.2-0.6-54.1l0.1-0.7l0,0l0,0l0,0l0,0l0,0l0,0l0,0l0,0l0,0l0,0l0,0l0,0l0,0l0,0l0,0c0-0.2,0.1-0.5,0.2-0.7
		c0-0.2,0.1-0.5,0.1-0.8c0.2-1.2,0.1-2.5-0.3-3.7c-0.8-2.3-3-3.9-5.5-3.9h-0.1L32,517.4l-25-0.7c-1.1-0.1-2.2,0.2-3.1,0.8
		c-1.1,0.5-2.1,1.3-2.7,2.4c0,4.7,0,9.4,0.1,14.2c0.2,4.3,0.4,8.6,0.5,12.9c0.5,16.5,0.4,32.9,0.3,49.4c0,0.2,0,0.5,0,0.8v0.3
		c0,0.5,0.1,1,0.2,1.4c0,0.1,0.1,0.3,0.1,0.4l-0.1,0.2c-0.3,0.4-0.6,0.8-0.8,1.3c0.1,50,0.2,99.9,0.2,149.8c0.3,0.3,0.7,0.6,1.1,0.8
		c0.4,0.2,0.9,0.4,1.3,0.5c0.5,0.1,1.1,0.2,1.6,0.1l1.9-0.1c4.6-0.3,9.2-0.6,13.9-0.8l1.8-0.1h0.3c2.5-0.1,5.1-0.2,7.6-0.2
		c2.9,0,5.7-0.1,8.6-0.1h0.1c0.6,0,1.1,0,1.7,0h0.3c1.3,0,2.7,0,4,0c1.6,0,3.2,0,4.8,0.1c0.7,0,1.4-0.1,2-0.3h0.1
		c1.1-0.4,2-1.1,2.6-2c0.3-0.5,0.6-1,0.7-1.5l0,0C56.4,746.2,56.5,745.3,56.5,744.4z M20.9,599.1c0-0.3,0-0.7,0.1-1
		c2.2,0.8,4.6,0.5,6.4-1l0.1-0.1l0.3-0.3c0.1,0.1,0.2,0.3,0.3,0.4c0.6,0.9,1.3,1.7,2.2,2.3C27.1,599.5,24,599.4,20.9,599.1z
		 M41.8,597.2L41.8,597.2C41.8,597.1,41.8,597.1,41.8,597.2l0.2,1.1l-0.4,0.1c-0.2,0-0.4,0-0.6,0.1C41.3,598,41.6,597.6,41.8,597.2z
		 M42.5,619.1c0,0.3,0,0.5,0,0.8l-0.5-0.2c0.2-0.5,0.4-1,0.5-1.5L42.5,619.1z M42.9,611.1c0,0.3,0,0.7,0,1c-0.4-0.6-0.8-1.1-1.4-1.5
		c-0.1-0.1-0.2-0.2-0.3-0.2h0.3l1.5-0.2C42.9,610.5,42.9,610.8,42.9,611.1z"/>
	<path class="st4" d="M333.8,740.6c-0.2-0.2-0.5-0.4-0.7-0.6c-0.1-1-0.3-1.9-0.4-2.8c-0.4-3.3-0.7-6.5-0.8-9.8
		c-0.2-6.5,0-12.9,0.3-19.4c1.3-25.7,0.9-51.6-1-77.3c-0.1-1.1-0.4-2.1-1-3c0.3-3.8,0.2-7.7-3.2-9.9c4.8-3.5,3.8-11.1,2.9-16.3
		c-0.7-2.6-3.1-4.4-5.8-4.4c-19.4,1.6-38.9,1.6-58.3,0.3c-3.2-0.2-6,2.9-6,6c0.1,8,0,15.9-0.4,23.8c0,0.7,0.1,1.5,0.3,2.2
		c-1.2,1.1-2,2.7-2.1,4.3c-1.4,13.1-1,26.2,1.3,39.2c0,0.2,0.1,0.3,0.1,0.5c0.1,0.2,0,0.1,0,0.2l-0.2,58.9c0,3.7-0.7,8.1,1.4,11.4
		c2.6,4,7.6,3.7,11.7,3.6c8.1-0.1,16.2-0.4,24.3-0.8c1,0.8,2.3,1.3,3.7,1.3l12.9-0.2c1,0,1.9-0.3,2.7-0.7c1.7,0.4,3.5,0.8,5.2,1.2
		c1.3,0.3,2.6,0.5,3.9,0.5l0.2,0.2c1.1,1.1,2.7,1.7,4.2,1.8h0.5c1.6,0,3.1-0.6,4.2-1.8C336.2,746.7,336.2,742.9,333.8,740.6
		L333.8,740.6z"/>
	<path class="st4" d="M455.6,684.7c0.7-0.7,1.2-1.6,1.5-2.5c1.1-4,1.2-8.1,0.2-12.1c-0.7-2.6-3.1-4.4-5.8-4.4l-65.5,1.2
		c-1.1-1.3-2.7-1.9-4.4-1.9c-3-0.1-5.5,2.2-5.7,5.1c-0.3,0.2-0.5,0.5-0.7,0.7c-2.3,2.5-2.9,6.1-1.6,9.2c0.5,22.3,0.5,44.6-0.2,66.8
		c0,3.3,2.7,6,6,6c24.1-1.4,48.2-2.5,72.3-3.2c3.1-0.1,6.2-2.7,6-6C456.2,724,455.5,704.4,455.6,684.7z"/>
	<path class="st4" d="M230.1,738.8c1.1-2,1.1-4.4,0-6.4c0.3-0.2,0.6-0.5,0.9-0.8c2-2.4,2-5.9-0.1-8.3c-0.1-0.2-0.3-0.3-0.4-0.4
		c0.1-0.2,0.3-0.5,0.4-0.8l0,0c0.7-1.7,0.7-3.6,0-5.2c-0.3-0.6-0.7-1.2-1.1-1.8c-0.4-0.5-1-0.8-1.5-1.1c0-0.2,0-0.5,0-0.8
		c-0.4-5.3-0.4-10.6,0-15.9c0.3-5.6,0.9-11.2,1.3-16.8v-0.5c0.1-1,0.1-1.9,0.2-2.9c0.1-1.7,0.2-3.4,0.2-5.1c0-1.1,0-2.3,0.1-3.4
		c0-0.5,0-1,0-1.5l0,0c0-2.2-0.1-4.4-0.3-6.6c-0.1-1.1-0.2-2.2-0.3-3.2c-0.1-0.8-0.2-1.6-0.3-2.4c0,0,0-0.1,0-0.1
		c0.2-0.3,0.4-0.6,0.5-0.9c0.1-0.1,0.1-0.2,0.2-0.3c0.6-1.5,0.7-3.2,0.1-4.7c0-0.1-0.1-0.2-0.1-0.3c-0.4-0.9-1-1.6-1.8-2.2
		c-0.6-0.4-1.2-0.7-1.9-0.9c-2.7-0.7-5.5-1-8.2-1c-1.3,0-2.7,0-4,0c-2.9,0.1-5.8,0.3-8.6,0.3l-12.4,0.1l0,0h-4.3c0-0.1,0-0.2,0-0.2
		c0-0.7-0.1-1.4-0.2-2.2c0-0.5-0.1-1.1-0.1-1.6c-0.1-1.5-0.2-3-0.3-4.5c0-0.3,0-0.6,0-0.9c-0.2-4.7-0.3-9.3-0.3-14
		c0-4.9,0.1-9.8,0.4-14.7c0-0.8,0.1-1.7,0.1-2.5c0.2-3.5,1.2-8,0-11.5c0-0.2-0.1-0.3-0.2-0.5c-0.3-0.6-0.6-1.2-1-1.7l0,0
		c-0.3-0.4-0.6-0.7-0.9-1l-0.4-0.3c-0.2-0.2-0.5-0.4-0.8-0.5c-1.6-0.9-3.4-1.4-5.3-1.5c-1.5-0.1-3-0.1-4.5,0c-1.5,0.1-3,0.2-4.3,0.2
		H162h-2.2h-6.9h-0.4h-9.4h-8.8h-9H117h-0.1c-0.3-0.1-0.5-0.2-0.8-0.2c-0.1,0-0.1,0-0.2,0c-1.2-0.3-2.4-0.3-3.5,0.1
		c-0.6,0.2-1.2,0.5-1.7,0.9c-0.6,0.5-1.1,1.1-1.4,1.8c-0.4,0.9-0.5,1.8-0.4,2.8c0.3,2.6,0.6,5.2,0.9,7.8c-1,1.1-1.5,2.5-1.5,4
		c-0.1,11.5,0.4,23.1,1.4,34.6c0,0.6,0,1.2,0.2,1.8c0.1,0.5,0.2,1,0.3,1.4l-1.6,0.1h-0.6c-1.3,0.1-2.6,0.1-3.8,0.2
		c-1.3,0.1-2.3,0.1-3.4,0.2c-1.8,0.1-3.6,0.3-5.3,0.5c-0.6,0.1-1.2,0.1-1.8,0.2c-1.2,0.2-2.4,0.4-3.6,0.6l0,0
		c-5.5,0.9-11.3,2-16.5,0.8L73,645c-0.3-0.1-0.6-0.2-0.9-0.3l0,0c-0.2,0-0.4-0.1-0.5-0.2c-0.5-0.2-1-0.3-1.6-0.3l0,0
		c-5.6-0.4-7.9,8-3.1,11.1c-1.5,1-2.5,2.6-2.8,4.3l0,0c-0.1,0.8-0.1,1.6,0,2.3l0.1,0.4c0,0.5,0,0.9,0.1,1.3c0,0,0,0,0,0.1
		c-0.1,0.4-0.1,0.9-0.1,1.3c-0.1,17.2,0.3,34.4,1.2,51.6c0,0.7,0.1,1.4,0.1,2.1c-1,1.7-1.2,3.7-0.7,5.5c-0.3,0.2-0.5,0.5-0.7,0.7
		c-0.4,0.5-0.8,1-1,1.6c0,0.1-0.1,0.1-0.1,0.2c-0.7,1.7-0.7,3.6,0,5.3l0.2,0.3c0.3,0.5,0.6,0.9,1,1.3l0.1,0.1l-0.1,0.2
		c-0.9,1.9-0.9,4.1,0,6c0.4,0.8,1.1,1.5,1.9,2c-0.5,0.8-0.8,1.6-1,2.5c-0.3,1.8,0.1,3.6,1.3,5.1c0.3,0.4,0.6,0.7,1,0.9
		c1,0.6,2.2,0.9,3.4,0.9c7.7-0.3,15.3-0.6,23-0.9c6.2-0.2,12.5-0.4,18.7-0.6l2.5-0.1c4.2-0.1,8.4-0.2,12.6-0.3
		c17.8-0.4,35.6-0.5,53.4-0.5h2.7c5.6,0,11.2,0,16.9,0.1c8.5,0,17.1,0.1,25.6,0.3c0.6,0,1.2-0.1,1.8-0.2c1.4-0.4,2.7-1.4,3.3-2.7
		c0.1-0.3,0.3-0.6,0.4-0.8c0.1-0.4,0.2-0.8,0.3-1.2c0-0.2,0.1-0.5,0.1-0.7c0.1-1.3-0.2-2.6-0.9-3.7
		C230.8,739.7,230.5,739.2,230.1,738.8z M183.2,686.4v0.4l-4.3-0.2L183.2,686.4z"/>
	<path class="st4" d="M821.3,524.5c0.2-1,0.1-2-0.1-3l0,0c-0.5-2.7-2.9-4.7-5.7-4.6l-8,0.3c-0.9,0-1.7,0.2-2.5,0.7h-0.1
		c-0.4,0.2-0.7,0.4-1,0.7l-25-0.9l-5.7-0.2H773l-29.3-1l0,0l-4.9-0.2l-54.8-1.9h-0.1l-2.2-0.1l0,0l-1.8-0.1c-0.5,0-0.9,0-1.4,0.1
		c-3.2-0.3-6.6,1.6-6.5,5.7l0.1,3.3c0.1,5.5,0.1,11.1,0.1,16.6l0,0c0,5.6-0.1,11.1-0.2,16.7c0,2.5-0.1,5-0.2,7.5l-2.6-0.2
		c-3.6-0.3-7.2-0.4-10.8-0.4c-3,0-5.9,0.1-8.9,0.3l0,0c-1,0-1.9,0.1-2.9,0.2c-2.3,0.2-4.6,0.4-7,0.7c-0.2-0.2-0.3-0.4-0.5-0.6
		c-0.6-0.6-1.3-1-2.1-1.3c-0.7-0.3-1.4-0.4-2.1-0.4c-0.7,0-1.4,0.2-2.1,0.4c-0.8,0.3-1.5,0.7-2.1,1.3c-0.5,0.5-0.9,1.2-1.2,1.8
		c-0.1,0.2-0.1,0.3-0.2,0.5c0,0.1-0.1,0.1-0.1,0.2c0,0.2-0.1,0.3-0.1,0.5c0,0.1,0,0.2-0.1,0.3c0,0.1,0,0.2,0,0.4c0,0.2,0,0.4,0,0.6
		v0.3c0,0.7,0.1,1.4,0.4,2l0,0c0.1,0.4,0.3,0.7,0.5,1c0,0,0,0.1,0.1,0.1c0.2,0.4,0.5,0.7,0.8,1.1c0.1,0.1,0.3,0.2,0.4,0.3
		c0.4,3.2,0.8,6.5,1.2,9.8c0,0.2,0,0.4,0.1,0.6c0.1,2,0.2,4,0.2,6l0,0c0.1,2.1,0.1,4.2,0.1,6.3c0,0.2,0,0.4,0,0.6
		c0,1.5,0,3.1,0.1,4.6c0.1,7,0,14,0,21.1v2.6l-0.1,6.3c0,0.4,0,0.8,0,1.2v0.3c0,2.6-0.1,5.2-0.1,7.7c0,2.9-0.1,5.9-0.1,8.8v3.6
		c0,6.2,0,12.4,0,18.6l0,0c0,4,0,8,0.1,12c0.1,4,0.1,8,0.2,11.9c0,0.1,0,0.2,0,0.3c0,0.8,0,1.5,0,2.2c0.1,4.7,0.2,9.3,0.4,13.9
		c-0.3,4.1-0.6,8.2-0.7,12.4v0.1c-0.2,5.2-0.3,10.4-0.2,15.7c0,0.7,0,1.3,0,2s0,1.3,0,1.9c0,0.1,0,0.3,0,0.4c0,0.4,0.1,0.7,0.2,1.1
		c0.9,3.1,3.9,5,7.1,4.3h0.3c0.4,0.3,0.7,0.5,1.1,0.6l0.5,0.2c0.7,0.2,1.3,0.3,2,0.2h0.8l0,0l5.6-0.2l3.4-0.1h0.8l4.1-0.2l5.6-0.2
		l8.4-0.3l5.6-0.2l3-0.1h0.4l5-0.2l5.6-0.2l8.4-0.2l5.6-0.1l8.4-0.2l5.6-0.1l8.4-0.1l5.6-0.1h8.4h5.6h8.4h5.6c2.8,0,5.6,0.1,8.4,0.1
		c1.9,0,3.7,0.1,5.6,0.1c2.8,0,5.6,0.1,8.4,0.2c1.9,0,3.7,0.1,5.6,0.2c2.8,0.1,5.6,0.2,8.4,0.3c1.9,0.1,3.7,0.2,5.6,0.2l4.5,0.2h0.1
		l1.6,0.1c0.4,0.5,0.8,0.9,1.3,1.3h0c0.2,0.2,0.5,0.3,0.8,0.4c1.8,0.8,3.9,0.7,5.6-0.2l0.3-0.2c1.3-0.7,2.2-2,2.5-3.4
		c0-0.1,0.1-0.3,0.1-0.4l0,0c0.1-0.3,0.1-0.7,0.1-1v-0.3l0,0c0-0.6,0-1.2,0-1.8v-2c0-1,0-2.1,0-3.1c0-11.3,0-22.6,0.1-33.9
		c0-7.2,0-14.3,0.1-21.4c0-1.4,0-2.7,0-4.1s0-2.8,0-4.1l0,0v-9.2v-10.3l0,0c0-1.5,0-3,0-4.5l0,0c0-4.7,0-9.3,0-13.9l0,0
		c0-1.3,0-2.7,0-4c0-0.3,0-0.5,0-0.8c0-0.3-0.1-0.5-0.1-0.8v-0.1c0-0.1-0.1-0.3-0.1-0.4c-0.3-0.8-0.7-1.4-1.3-2c0-1.5,0-3,0.1-4.5
		c0-0.9,0-1.7,0-2.6c0.1-4.8,0.1-9.6,0.2-14.3v-0.1c0.1-6.2,0.1-12.4,0.2-18.5c0-4.7,0.1-9.5,0.1-14.2c0-0.3,0-0.7,0-1.1v-1.5v-5.5
		c0-0.4,0-0.7,0-1.1c0-9.2,0.1-18.4,0.2-27.6v-4.1c0-0.7-0.1-1.4-0.3-2c0.3-1.8,0.6-3.5,0.8-5.3C821,526.2,821.1,525.4,821.3,524.5z
		 M687.8,547.4c-0.5,0.3-1,0.6-1.6,0.9c0-0.6,0-1.2,0-1.7c0.5,0.2,0.9,0.3,1.4,0.4C687.7,547,687.8,547.2,687.8,547.4z"/>
	<path class="st4" d="M1065.9,732.6c2.5-16.9-0.2-33.6,0.5-50.6c0.7-17,3.1-33.6,1.1-50.4c0-0.1,0-0.2,0-0.3
		c0.1-0.6,0.1-1.2,0.1-1.8c0.1-36.3,0.4-72.5,0.8-108.8c0-0.3,0-0.7,0.1-1v-4.1c0-2.1-0.5-4.3-1.6-6.1c-0.4-3.2-0.4-6.5,0.1-9.8
		c1-7,2-14,2.4-21c0.8-13.4,0.3-26.8-0.2-40.2c0-2-0.6-4.1-1.7-5.8l0.1-0.8c0.2-1.3,0-2.6-0.4-3.8c2.2-3.1,2.8-7.1,1.6-10.7
		c-2.2-6.1-8.2-10.2-14.7-8.4c-1,0.3-2,0.7-2.8,1.3c-0.7,0.1-1.3,0.2-2,0.2l-5.9-0.1c-3.9-0.1-7.8-0.2-11.7-0.3
		c-7.8-0.3-15.6-0.6-23.5-1c-15-0.8-30.1-1.8-45.1-3.1c-1.6-0.7-3.2-1-4.9-1c-9.5,0-13.1,9.1-10.9,16.1c0,1.1,0.1,2.1,0.2,3.2
		c1.8,9.8-0.2,20-0.6,29.8c-0.5,10.6,1,21.1,0.1,31.6c-0.6,5.1-0.7,10.3-0.4,15.5c0.5,5.4,1.5,10.7,1.9,16
		c0.7,8.9-0.4,17.7,0.2,26.5c-1.1,1.8-1.7,3.9-1.5,6c4.9,61.2-4.7,122.5,0.7,183.6c0,0.2,0.1,0.5,0.1,0.7c-2.8,1.8-3.4,5.8-1.7,8.5
		c-4.3,2.8-3.3,11.2,3.2,11l114.3-2.6c4.7-0.1,6.5-4.6,5.5-8C1072.1,739.8,1071,733.3,1065.9,732.6z"/>
	<path class="st5" d="M109,523.6c0-5.6-0.1-10.8-1.4-16c0-0.3,0-0.7,0-1l-1.3-17.9c0-1.2,0-2.4,0.1-3.6c0-4.3,0-8.6-0.1-12.9
		c0.7-2.2,1-4.5,0.8-6.8c2.2-21.2-0.5-42.9-0.1-64.1c0.2-2.5,0.3-4.9,0.4-7.4c0.3-3.5,0.7-7,1.1-10.5c0.8-6.2-0.5-11.7-1.5-17.8
		c-0.9-5,0.5-10,0.7-15c0.1-2.9-0.2-5.8-0.8-8.6c0.2-0.7,0.4-1.4,0.6-2.1c1-2.7,0.8-5.7-0.4-8.3c4-7.1,0.8-18.5-9.9-18.5
		c-2.4-0.1-4.8,0.6-6.8,2c-21.1,0.2-42.2,0-63.3-0.4c-3.9-0.3-7.9-0.5-11.8-0.5c-0.3-0.1-0.6-0.3-0.9-0.4c-1.4-0.7-3-1.1-4.6-1
		l-3.2,0.4c-2,0.6-3.8,1.6-5.3,3.1L0.7,317c0,5.3,0,10.6,0,15.9c0.2,0.2,0.3,0.4,0.5,0.5c-0.2,0.5-0.4,0.9-0.5,1.4
		c0,11.5,0,23-0.1,34.5L1,386.2c0,0.4,0,0.8,0.1,1.2c-0.2,0.2-0.4,0.5-0.6,0.8c0,4.7,0,9.3,0,14c2.1,3.2,5.7,5.1,9.6,5
		c2.8,0.1,5.5-0.9,7.7-2.7l44.8,1.1c3.8,54.1,2.7,108.5,2.8,162.8c-1.9,3-2.6,6.7-1.9,10.2c1.6,10.5,0.4,20.4,0,31
		c-0.4,5.4,0,10.7,1,16c-4.6,7-1.4,19,9.5,19c0.3,0,0.5,0,0.8,0c0.3,0,0.7,0,1,0c2,0,4-0.4,5.8-1.4c1.5,0,2.9-0.3,4.3-1
		c1.7,1.2,3.8,1.9,5.8,2h0.1c1.4,0.7,3,1.1,4.6,1l3.2-0.4c2-0.6,3.8-1.6,5.3-3.1l1.9-2.4c1.1-1.8,1.6-3.9,1.6-6v-0.3
		c0.1-1.2-0.1-2.4-0.5-3.5c0.6-12.3,0.1-24.7-1.3-37c3.6-6.3,2.2-15.4,2.2-22.3l0.1-23.3L109,523.6z"/>
	<path class="st5" d="M580.2,733.7c-0.4-1.5-1.1-2.9-2.1-4.2c-0.2-20.6,0.5-41.2,2.1-61.8c0.5-6.5-5.9-12-12-12
		c-1.2,0-2.4,0.2-3.6,0.5c0-14.4-0.3-28.8-0.4-43.3c-0.2-15.1-0.2-30.3,0.4-45.4c0.3-7.8,0.9-15.5,1.4-23.2
		c0.5-7.4-0.7-14.5-0.6-21.9c0.2-8.1-6.4-12-12.7-11.5c-1.9-1.3-4-2-6.3-2.3l1.1-92.9c0-1.9-0.3-3.7-1.1-5.4
		c0.8-9.7,1.6-19.5,1.5-29.2c0-1.4-0.2-2.7-0.7-4c3.4-7.2-2.4-17.5-11-17.1l-12,0.5l-0.3-14.3c-0.1-2.9-1.2-8.5,0.1-11.2
		c1.7-3.4,1.9-7.4,0.5-11c1-3.5,0.7-7.4,0.2-11.4c-0.1-1.1-0.4-2.3-0.7-3.3l0.6-0.7c1.1-1.8,1.6-3.9,1.6-6v-0.4
		c-0.2-6.6-5.4-11.8-12-12l-3.2,0.4c-1.5,0.4-2.9,1.1-4.1,2.1l-53,0.4l-25.8,0.2c-7.9,0.1-16.8,1.2-24.6-0.3c-1.7-0.3-3.3-0.3-5-0.1
		c-2.1-1.6-4.6-2.4-7.2-2.4c-10,0-13.6,10.2-10.5,17.3c0.4,1.8,1.3,3.5,2.5,4.9c-0.8,1.7-1.2,3.6-1.2,5.5l0.1,5.7
		c-1,1.8-1.5,3.9-1.2,6c0.5,7.5,0.7,15,0.4,22.5c-0.4,1.3-0.6,2.7-0.6,4.1l1,42.5c0.1,2.8,0.3,5.7,0.7,8.5c-0.8,1.5-1.1,3.3-0.9,5
		c1.1,9.2,2,18.4,2.5,27.6c-0.5,1.3-0.7,2.6-0.6,3.9c0.7,37.6,1.7,75.3,1.3,112.9c0,0.8,0.1,1.6,0.2,2.4l-0.2,37.5
		c-0.1,13.2,0,26.3,2,39.3c-0.5,3.5-0.8,7.1-0.9,10.7c-4.7,7-1.6,19.2,9.5,19.2c2.1,0,4.1-0.5,5.9-1.5c1.4-0.5,2.6-1.3,3.6-2.4
		l0.1-0.2c1.8,1.1,3.9,1.7,6.1,1.7c15.7-0.6,31.4-1.1,47.1-1.3c-0.4,23.3-1.3,46.8,1.4,70c-0.9,1.2-1.6,2.6-2,4.1l-0.4,3.2
		c0,2.1,0.6,4.2,1.6,6l0.4,0.7c2.4,4.2,7.2,6.5,11.9,5.7c1.4-0.1,2.8-0.5,4-1.2l30.5-3.1c1.5,0.7,3.2,1.1,4.8,1.1
		c17.5,0.5,34.9,0.8,52.4,0.8c1.7,0,3.5-0.3,5.1-1c0.3,0,0.6,0.1,0.9,0.1h0.4c6.6-0.2,11.9-5.4,12-12L580.2,733.7z"/>
	<path class="st5" d="M671.2,410.8c0.2-0.9,0.2-1.8,0-2.7c0-0.2-0.1-0.4-0.2-0.6c-0.2-0.5-0.5-0.9-0.8-1.3c0.3-0.4,0.6-0.8,0.8-1.3
		c0.1-0.2,0.2-0.4,0.2-0.6c0.2-0.8,0.3-1.7,0.2-2.5l-0.2-1.1l0,0v-0.2c-0.1-0.6-0.2-1.2-0.3-1.9c-0.7-4.9-1.9-8.9-8.3-8.7
		c-5.1,0.1-10.2,0.4-15.3,0.5l0,0c-3.1,0.1-6.3,0.1-9.4,0.1c-4,0-7.9-0.2-11.9-0.4c-3.5-0.2-7.4-0.9-10.9-0.6
		c-6.7,0.6-6.1,6.3-5.1,11.3c-1.2,1.6-1.9,3.6-2,5.6c-0.1,1-0.1,2.1,0,3.1c0,0.3,0,0.6,0.1,0.9c0.1,1.6,0.9,3,2.2,3.9v0.8
		c-0.6,16-1,32-1.2,48c-0.3,21.3-0.2,42.6,0.2,64c0,0.6,0.1,1.2,0.4,1.7c-0.5,1.7-0.7,3.5-0.6,5.3c0,1.7,0.1,3.3,0.1,4.7
		c0,3.8,0,7.5,0.1,11.3c0,1.8,0.1,3.6,0.2,5.4c-0.6,6.6-0.8,13.2-0.9,19.9c-0.1,4.8,0,9.6,0,14.4c0.1,11,0.4,22,0,32.9
		c0,0.8,0,1.5-0.1,2.3c-0.1,3.6-0.3,7.2-0.7,10.9c-0.1,1.5-0.3,3-0.4,4.5c-0.2,1.1,0.2,2.2,0.9,3.1c1.7,1.5,4.2,1.6,6,0.3
		c0.5-0.3,0.9-0.7,1.2-1.1c0.5-0.7,0.8-1.4,0.9-2.3c0-0.2,0-0.3,0-0.5c0,0.1,0,0.3,0,0.4c0,1,0.4,2,1.1,2.8
		c-0.1,3.2-0.2,6.3-0.3,9.5c-0.1,3.5-0.2,7.1-0.3,10.7c0,1.2,0,2.3-0.1,3.5c0,0.6,0,1.2,0,1.8l0,0c0,2.3-0.1,4.5-0.1,6.8
		c-0.1,6.5-0.2,13-0.2,19.5c0,4.1-0.1,8.1-0.1,12.2c0,4.4,0,8.9,0,13.3c0,3.5,0,7,0.1,10.4c0,4.3,0.1,8.6,0.2,12.9
		c0,0.2,0,0.4,0,0.6c0,0,0,0.1,0,0.2c0.6,3.3,4.3,4.3,6.8,3c1.5,2.3,4.5,3,6.8,1.5c0.1-0.1,0.3-0.2,0.4-0.3c0.2-0.2,0.4-0.4,0.6-0.7
		l0,0c0.5-0.7,0.7-1.6,0.6-2.5v-0.1c0-0.3,0-0.7-0.1-1l-0.2-2.3c0-0.6-0.1-1.2-0.1-1.8l0,0c-0.3-3.5-0.5-7-0.8-10.5
		c-0.1-1.4-0.2-2.8-0.3-4.2v-0.2c-0.1-1.6-0.2-3.2-0.3-4.7c-0.4-6.5-0.7-12.9-1-19.4l-0.2-3.2c0-0.4,0-0.8,0-1.2
		c-0.1-3.5-0.3-7-0.4-10.5c-0.2-6.1-0.4-12.2-0.5-18.3c-0.1-4.6-0.2-9.2-0.2-13.8c0.6-0.3,1-0.8,1.4-1.3c0.2-0.3,0.4-0.7,0.5-1.1
		v-0.3c0.1-0.3,0.1-0.6,0.1-1c0-0.9-0.1-1.8-0.1-2.8v-0.1c0-0.2,0-0.4,0-0.6c-0.2-4.7-0.4-9.3-0.5-14c-0.2-7,0,0,0,0v-0.2
		c0-0.5,0-1,0-1.4c-0.2-6.8-0.5-13.6-0.7-20.3l0,0l-0.1-3l0,0c0-0.5,0-0.9,0-1.3v-0.1c0-1.7-0.1-3.3-0.1-5l0,0
		c-0.1-3.9-0.2-7.8-0.3-11.7c0-0.8,0-1.5,0-2.2c-0.1-3.3-0.2-6.5-0.2-9.8c0-0.5,0-1,0-1.5l0,0c-0.1-3.8-0.2-7.5-0.2-11.3
		c0-1.3,0-2.5-0.1-3.8c5.4,0,10.8,0,16.2-0.1c6.1-0.1,12.3-0.4,18.4-0.8c0.1,0.4,0.3,0.7,0.5,1.1c0.4,0.7,1,1.3,1.8,1.6
		c0.6,0.3,1.2,0.4,1.9,0.4c0.6,0,1.3-0.2,1.8-0.4c0.2-0.1,0.5-0.2,0.7-0.4c1.3-0.8,2.1-2.2,2-3.7l-0.2-1.5c-0.3-3.1-0.3-6.3-0.2-9.4
		c0.1-0.9-0.2-1.8-0.7-2.5l0,0c-0.1-0.2-0.3-0.4-0.5-0.5c0.4-4.7,0.4-9.5,0-14.2c0-0.1,0-0.2,0-0.3c0.1-0.4,0.1-0.8,0.1-1.2
		c-0.3-22-0.2-44,0.3-66c0.3-14.7,0.7-29.3,1.3-44c0-1.5,0.1-3.1,0.2-4.6v-1.3c0-0.1,0-0.3,0.1-0.4c0-0.3,0-0.6-0.1-0.9v-0.3
		c0-0.1-0.1-0.2-0.2-0.3s0.1-0.3,0.2-0.4L671.2,410.8z M653.5,414.2h1.4c-0.2,0.1-0.4,0.3-0.6,0.5
		C654,414.5,653.8,414.4,653.5,414.2z M660.7,464.8l-0.1-1.6c-0.1-2.8-0.2-5.5-0.3-8.3l0.5-0.1c-0.1,2.8-0.1,5.6-0.2,8.4
		L660.7,464.8z"/>
	<path class="st6" d="M63.8,576.2c-3.6-20.8,0.1-42-1-62.9c0.2-0.6,0.3-1.2,0.3-1.8l-1.6-33.2c0.3-0.6,0.4-1.2,0.4-1.8
		c0.9-18,1.2-35.9,1.1-53.9c0-1.3-0.6-2.5-1.7-3.3c2-1.4,3-3.6,2.9-6c-0.1-4-3.3-6.1-6.9-6.6c-5.6-0.8-11.9-0.1-17.6,0l-17.8,0.1
		c-5.2,0-10.7,0.6-15.9,0.3c-1.8-1-4.1-1.2-5.5,0.5l0,0c-0.1,28.7-0.2,57.4-0.4,86.2c0,6.1,0.1,12.2,0.1,18.3
		c0.8,3.4,5.2,4.2,7.5,2.2c1.9,1.9,5.4,1.8,7-0.2c1.8,1.4,4.4,1.4,6.2-0.1c1.3,0.8,3,1,4.5,0.5c1.5,1.3,3.6,1.5,5.4,0.6
		c1.8,1.9,4.7,2.1,6.7,0.4c1.7,0.9,3.9,0.8,5.4-0.4c1.5,1.3,3.7,1.6,5.6,0.7c1.6,0.8,3.6,0.7,5.1-0.3c0.2,0.1,0.3,0.2,0.5,0.2
		c0.8,20-2.1,40.1,0.8,60c-0.1,0.4-0.2,0.9-0.2,1.4c0,23.7,1,47.7-0.3,71.4c-1.4,0.7-2.2,2.2-1.9,3.8c3.6,30.8,0.7,61.8,2.2,92.6
		c0.3,5.8,9.3,5.8,9,0c-1.4-28.7,1-57.5-1.6-86.2c0.4-0.6,0.6-1.3,0.7-2.1c2.1-25.7,1-51.8,0.9-77.6C63.9,578.1,64,577.1,63.8,576.2
		z"/>
	<path class="st6" d="M172.6,516.5c-0.8-22.7-0.7-45.4-0.7-68.1c0-0.3,0-0.6-0.1-0.9c1.6-2.6,0.4-7-3.6-7c-16.9,0-33.9,0.4-50.8,1.2
		c-0.3,0-0.7,0.1-1,0.2c-0.3-0.3-0.7-0.6-1-0.8c-2.7-1.8-7.1,0.5-6.8,3.9c1.2,10.8,0.6,21.8,0.4,32.7c-0.2,11.9-0.5,23.9-0.8,35.8
		c-0.5,23.5-0.8,47.1,0,70.6c0.2,4.6,5.8,5.5,8.1,2.8c0.4,0,0.8,0,1.2,0c16.1-2.2,32.1,0.3,48.2-0.7c2.4,0.9,5.3,0.2,5.7-2.8
		C174.4,561.2,173.4,538.9,172.6,516.5z"/>
	<path class="st7" d="M55,526.2c0-0.1,0.1-0.2,0.2-0.3c0.2-0.5,0.5-1,0.8-1.4l0,0c1.1-1.9,0.6-4.2-1-5.6c-0.8-0.7-1.8-1.1-2.9-1.2
		l-2.5-0.1h-0.1c-5.8-0.3-11.6-0.4-17.4-0.5c-8.3-0.1-16.7,0-25,0.4c-2.5,0.1-4.4,2.1-4.3,4.6c0,0,0,0.1,0,0.1
		C1.9,523,1.6,524,1.7,525c0,7.2,0,14.5,0.1,21.7C1.8,562.8,1.9,578.9,2,595c0,0.3,0,0.7,0.1,1c0,0.3,0.1,0.5,0.2,0.8c0,0,0,0,0,0.1
		c0,0.6,0,1.3,0,1.9c0,0.2,0,0.3,0,0.5c-0.2,18-0.5,36-0.7,54c0,31.9,0.1,63.8,0.1,95.7c1.2,1.1,2.9,1.5,4.5,1
		c0.6,0.7,1.4,1.2,2.2,1.3l0,0c0.4,0.1,0.7,0.1,1.1,0.1l11.9-0.2l9.4-0.2h0.4l8.5-0.2h0.1l5.9-0.1l0,0l5.2-0.1
		c2.1-0.1,3.9-1.5,4.5-3.5c0.1-0.3,0.1-0.7,0-1v-0.2c-0.1-0.5-0.1-0.9-0.2-1.4c-0.2-1.3-0.3-2.5-0.4-3.8c-0.5-4.9-1-9.9-1.3-14.8
		c0-0.2,0-0.5,0-0.7c0.5-0.7,0.7-1.6,0.6-2.5c-0.3-5.6-0.6-11.2-0.8-16.9c-0.3-7.2-0.5-14.3-0.6-21.5c0.3-0.2,0.6-0.4,0.9-0.7
		c0.8-0.8,1.2-1.8,1.3-2.9c0-0.7,0.1-1.4,0.1-2.1v-0.2c0.2-2.9,0.3-5.8,0.3-8.8c0.1-6.9-0.3-13.7-1-20.5c-0.2-2.4-0.5-4.8-0.9-7.2
		c0-0.5,0-1.1,0-1.6c0-9.2-0.1-18.3-0.3-27.5c0.2-0.5,0.3-1,0.4-1.5c0.4-4.7,0.8-9.4,1.2-14.1c0.4-5.2,0.6-10.4,0.9-15.6
		c0-0.2,0-0.5,0-0.7v-1.1c0.1-1.4,0.1-2.8,0.2-4.1l0,0c0-0.1,0-0.1,0-0.2l0,0c0.2-4.7,0.2-9.4,0.3-14c0-2.6,0-5.2,0-7.9
		c-0.1-8.2-0.3-16.4-0.7-24.5c0-0.4-0.1-0.8-0.2-1.2c0-0.1-0.1-0.2-0.1-0.3c-0.1-0.2-0.1-0.4-0.2-0.5c0.1-0.2,0.2-0.4,0.4-0.6
		L55,526.2z M24.2,565.8c-0.1,0.2-0.1,0.5-0.2,0.7c-1-0.5-2.1-0.7-3.2-0.5c0.3-0.7,0.6-1.4,0.9-2.1c1.9,0.7,4.1-0.1,5.1-2
		c0.2-0.3,0.4-0.7,0.7-1c0,0.6,0,1.2,0.1,1.8C25.8,562.9,24.5,564.1,24.2,565.8z"/>
	<path class="st7" d="M230.3,672c-0.1-1.1-0.2-2.2-0.4-3.3c-0.1-0.5-0.2-1-0.3-1.5c0,0,0-0.1,0-0.1c-0.2-0.8-0.4-1.6-0.6-2.3
		c0.1-2.5,0.2-4.9,0.3-7.4c0.1-1.1,0.1-2.2,0.2-3.3s0.1-2.1,0.2-3.1c0-0.7,0.1-1.3,0.1-1.9c0-0.9,0.1-1.8,0.2-2.7
		c0-0.6,0-1.1-0.2-1.7c0-0.1,0-0.1-0.1-0.2c-0.1-0.2-0.1-0.4-0.3-0.5c-0.3-0.5-0.6-0.9-1.1-1.2c-1.6-1-3.6-1-5.3,0
		c-0.4,0.2-0.7,0.5-1,0.9c-0.3,0.3-0.5,0.6-0.7,1c-1.2,0-2.5,0-3.7,0s-2.7,0-4,0l-5.4,0.1c-1.3-0.5-2.6-0.8-4-1.1
		c-3.8-0.7-7.7-0.7-11.4,0c-0.5,0.1-1,0.2-1.5,0.3c-1,0.2-2,0.6-3,0.9c-0.3,0.1-0.6,0.2-0.9,0.3h-0.9c-0.1-1.8-0.1-3.7-0.2-5.6
		c0-1.3-0.1-2.6-0.1-3.9c-0.3-13.6,0-27.2,0.8-40.8c0.3-0.4,0.5-0.8,0.6-1.2c0.1-0.2,0.1-0.4,0.2-0.7c0.1-0.7,0.1-1.5-0.1-2.2
		c0-0.1-0.1-0.2-0.1-0.3c-0.1-0.2-0.2-0.5-0.3-0.7l0,0c0-0.3,0-0.5,0-0.8c-0.1-0.6-0.3-1.3-0.7-1.8c-0.1-0.2-0.2-0.3-0.4-0.4
		c-1.8-1.5-4.4-1.5-6.2,0c-0.2,0.2-0.5,0.4-0.7,0.7c-0.1,0.2-0.2,0.3-0.4,0.5c-0.8,0-1.6,0.1-2.3,0.1c-3.9,0.1-7.7,0.2-11.6,0.3
		c-1.1-0.3-2.2-0.6-3.3-0.8c-0.7-0.1-1.5-0.2-2.2-0.3c-2.5-0.3-4.9-0.2-7.4,0.3c-0.9,0.2-1.7,0.4-2.6,0.6c-0.4,0.1-0.8,0.2-1.3,0.3
		h-1.5c-0.4-0.1-0.7-0.2-1.1-0.3c-5-1.5-10.3-1.5-15.3,0l-5.6-0.2c-2.4-0.1-4.8-0.2-7.1-0.3c-0.3,0-0.6,0-0.8,0
		c-0.1-0.2-0.2-0.4-0.3-0.5c-0.1-0.1-0.2-0.3-0.3-0.4c-0.1-0.1-0.1-0.1-0.2-0.2c-0.1-0.1-0.2-0.2-0.3-0.2c-0.1-0.1-0.1-0.1-0.2-0.1
		c-1-0.7-2.3-0.9-3.5-0.7c-0.7,0.1-1.3,0.4-1.9,0.8c-0.1,0.1-0.2,0.2-0.4,0.3c-0.2,0.2-0.4,0.3-0.5,0.5c-0.6,0.7-0.9,1.6-1,2.5
		c0,0.1,0,0.1,0,0.2c-0.6,13.6-0.7,27.3-0.5,40.9l0,0c0,1.1,0,2.3,0.1,3.4l0,0c0.1,2.6,0.2,5.2,0.3,7.8c0,0.9,0.1,1.8,0.1,2.6
		l-8-0.1l-0.3-0.1c-2.2-0.7-4.4-1.1-6.7-1.2c-0.5,0-1.1,0-1.6,0c-1.2,0-2.3,0.1-3.5,0.2c-1.3,0.2-2.6,0.4-3.8,0.8l-6-0.1l0,0
		l-2.8-0.1c-0.7,0-1.4,0.1-2,0.4l0,0c-0.1,0.1-0.2,0.1-0.4,0.2c-0.1,0.1-0.2,0.1-0.3,0.2c0-0.1,0-0.2,0-0.3c0-0.1,0-0.1,0-0.2
		c-0.1-0.7-0.3-1.3-0.7-1.8c-1.5-1.9-4.2-2.4-6.3-1.1c-0.5,0.3-0.9,0.7-1.2,1.1c-0.5,0.7-0.8,1.6-0.8,2.5v20
		c-0.5,2.1-0.7,4.3-0.6,6.5c0.1,1.6,0.3,3.3,0.6,4.9v40.6v28.4c-0.1,1.6,0.8,3.1,2.2,3.8c2,1,4.5,0.5,5.9-1.3
		c0.4,0.1,0.9,0.2,1.3,0.2c12.9-0.2,25.8-0.2,38.7-0.2h2.6c4.1,0,8.2,0,12.2,0.1c17.9,0.1,35.8,0.4,53.7,0.9l2.7,0.1l4.3,0.1
		c1.1,0.4,2.2,0.8,3.3,1.1l1.6,0.2l5.9,0.8c0.8,0,1.6,0,2.4-0.1c1.5-0.1,2.9-0.3,4.3-0.7c0.7-0.2,1.5-0.4,2.2-0.6
		c4.9,0.2,9.7,0.4,14.6,0.6c0.2,0,0.4,0,0.7,0l0.4,0.1c0.8,0.2,1.7,0.2,2.5,0c0.8-0.2,1.6-0.7,2.2-1.3c0.7-0.8,1-1.8,0.9-2.9
		c0-0.6,0-1.2-0.1-1.8c-0.1-2.3-0.2-4.6-0.2-7c-0.2-8.1-0.4-16.1-0.4-24.2c0-5.3,0-10.6,0-15.9c0-4.4,0.1-8.8,0.2-13.3
		c0.4-1.2,0.8-2.3,1.1-3.5c0-0.2,0.1-0.3,0.1-0.5c0-0.2,0.1-0.4,0.1-0.5C230.2,677.1,230.4,674.5,230.3,672z M73.9,739.2h-0.2
		c-0.2,0-0.4,0-0.7,0.1v-0.9C73.3,738.6,73.6,738.9,73.9,739.2z"/>
	<path class="st7" d="M332.3,739.9c0.2-1,0.1-2.1-0.3-3.1c-0.9-2.3-1.2-4.7-1.1-7.1c0-0.8,0-1.5-0.2-2.2c0.6-2.4,0.9-4.8,0.8-7.2
		c-0.2-3.7-1-7.3-2.4-10.7c1.2-3.2,1.9-6.7,1.9-10.1v-0.5c0.1-3.2-0.5-6.5-1.7-9.4c0.5-2,0.7-4.1,0.7-6.2v-0.5c0-1.3,0-2.5-0.2-3.8
		c0.3-0.7,0.5-1.5,0.7-2.2l1-7.6c0-2.9-0.5-5.8-1.4-8.6c1.2-3.2,1.9-6.7,1.9-10.1v-4.2c0.1-2.6-0.3-5.2-1.1-7.7
		c-0.2-3.6-1.1-7.1-2.6-10.4c0-0.5,0-1,0-1.5c0,0,0-0.1,0-0.2c1-7.5,1.5-15.1,1.4-22.8c-0.1-4.4-3.4-7-7.5-7.5
		c-7.1-0.8-14.3-0.9-21.4-0.3c-2,0.1-3.8,0.9-5.2,2.3c-0.4,0.1-0.8,0.1-1.2,0.2c-1.4-1.3-3.2-1.9-5-1.8c-8,0.1-16,0-24-0.1
		c-5.8-0.1-9.2,6.4-6.5,11.2c0.3,0.5-0.2,3-0.3,4c-0.2,2-0.2,4.1,0.2,6.1c0.1,0.6,0.3,1.2,0.4,1.7c-0.7,2.4-1,4.9-1,7.4v0.5
		c-0.2,3.8,0.7,7.6,2.5,11c0.1,0.3,0.2,0.6,0.3,0.9c-1.2,3.1-1.7,6.4-1.7,9.7v0.3c0,2,0.3,4,0.7,6c-1.5,3.5-2.3,7.3-2.3,11.1l1,7.6
		c0.3,1,0.6,2.1,1.1,3.1c-0.4,2-0.6,4-0.5,6c0.1,2.8,0.6,5.6,1.5,8.3c-1.1,2.8-1.6,5.8-1.5,8.9l0.9,6.9c-0.4,1.8-0.5,3.7-0.4,5.6
		c0.1,2.3,0.4,4.5,1,6.7l0,0c-0.1,1.6,0.1,3.2,0.3,4.8l-1.3,15c-0.4,3.9,3.7,7.7,7.5,7.5c3.8-0.2,7.6-0.6,11.3-1.2
		c3.3,1.7,7,2.5,10.7,2.3l5.3-0.7c2.7,0.8,5.5,1.2,8.3,1.2c2.8,0,5.5-0.4,8.2-1.3c2.8,0.4,5.7,0.7,8.5,0.9c0.4,0.8,0.9,1.6,1.5,2.2
		c1.5,1.3,3.3,2.1,5.3,2.2c2,0,3.9-0.8,5.3-2.2c1.4-1.4,2.2-3.3,2.2-5.3v-0.5C333.9,742.9,333.3,741.2,332.3,739.9z"/>
	<path class="st7" d="M458.9,740.6c0.1-0.6,0.2-1.2,0.2-1.8c-0.1-3.7-1.9-7.6-3-11.1c1-1.2,1.6-2.8,1.7-4.4c0.6-9.4,0-18.8-1.7-28
		c0-0.1,0-0.2-0.1-0.3v-0.3c1.1-6.9,3.1-14.2,3.3-21.3c0.3-7.9-6.7-9.4-13-9.9c-6.9-0.5-13.9-0.4-20.8,0.3c-1.6,0.1-3.2,0.7-4.5,1.7
		c-1.4-1.2-3.1-1.7-4.9-1.6c-11.8,0.7-23.7,0.5-35.5-0.5c-6.7-0.6-9,7.7-5.7,12.3c0,0.2,0,0.5,0.1,0.8l-0.1,1.3
		c-0.1,1.7-0.3,3.4-0.5,5.1c-0.3,3.8-0.5,7.7-0.6,11.6c-0.2,7.7,0.1,15.4,0.9,23.1c0.1,0.9,0.3,1.7,0.6,2.5
		c-0.1,0.9-0.1,1.8-0.2,2.7v0.5c-0.1,1.7,0.1,3.4,0.4,5.1c-0.3,4.8-0.8,9.5-1.5,14.3c-0.6,4,1,8,5.2,9.2c2.7,0.6,5.6-0.2,7.6-2.1
		c0.9,0.3,1.8,0.6,2.7,0.6c2.1,0.1,4.1,0.2,6.2,0.2c2.5,0.9,5.2,1.2,7.9,1.1l7.6-1c0.4-0.1,0.8-0.2,1.2-0.4c1.6,0.3,3.2,0.4,4.8,0.3
		h0.4l7.6-1l0,0c0.5,0,0.9,0,1.4,0c1.6,0.1,3.2-0.1,4.8-0.3c5.2,0.7,10.4,1.1,15.5,0.1c1.4,1.3,3.3,2.1,5.3,2.2c2,0,3.9-0.8,5.3-2.2
		c1.4-1.4,2.2-3.3,2.2-5.3v-0.5C459.6,742.6,459.4,741.6,458.9,740.6z"/>
	<path class="st7" d="M820.1,721.7c1.3-52.5,1.8-105.1,1.5-157.6c0.8-2.9,1.1-5.9,1-8.9c-0.1-2.9-0.5-5.8-1.2-8.7
		c-0.1-5.8-0.1-11.5-0.2-17.2c2.3-4.4,0.2-11.2-6.3-11.3l-22.9-0.3c-2.4-0.5-4.9-0.6-7.3-0.4l-2.3,0.2l-97.4-1.2v-0.1
		c-4.2-8.7-17.1-1.1-12.9,7.5c0.7,1.5,0.3,4,0.2,5.6c-0.1,2.9-0.1,5.9-0.2,8.8v1.6c-2.6,5-3.9,10.6-3.7,16.2c0.2,3,0.4,5.9,0.8,8.8
		c-9.5,0-19.1-1.1-28.3-1.6c-4.4-3.2-12.2-1.2-12.1,5.8l0.6,26.3c-1.3,6-1.2,12.2,0.4,18.2l0.5,21.1c-0.2,1.9-0.4,3.8-0.4,5.7
		c0,3,0.2,5.9,0.7,8.8l0.2,7.6l0.9,40.9l-0.1,0.7c-1.8,6.6-1.8,13.6,0,20.2c0.2,0.7,0.4,1.3,0.6,1.9v1.5l0.2,10.9l0.1,5.9v0.5
		c-1.1,1.3-1.7,2.9-1.7,4.6c-0.1,7.5,9,11.3,14.1,6c0.6,0.1,1.2,0.2,1.8,0.2c41.3-0.9,82.6-1.1,123.9-0.8c3.2,1,6.6,1.5,10,1.3
		l8.5-1.2c8.5,0.1,16.9,0.2,25.3,0.4c7.6,0.2,9.2-9,4.9-13.1c0.3-0.8,0.4-1.6,0.5-2.4C820,730.3,820.1,726,820.1,721.7z"/>
	<path class="st7" d="M1066.7,700.6c0-1.9-0.1-3.8-0.1-5.7c5.3-21.4-0.8-43.2,0.8-64.9c0.1-1.1-0.1-2.3-0.6-3.3
		c1-29.1,1.3-58.2,1-87.4c-0.2-20.2-0.9-40.4-1.7-60.5c-0.1-3.3-0.2-6.7-0.2-10c0.2-2.9,0.2-5.7,0.1-8.5c0.1-3.3,0.3-6.5,0.7-9.8
		c1-9.4,1.8-18.4,0.9-27.7c4.7-3.2,2-12.5-4.5-12.7l-108.2-3.9c-3.9-0.1-6.8,3.3-7,7c-0.2,5.2-0.2,10.5,0.1,15.7
		c-1.7,15.8-1.2,31.9-1.3,47.8l-0.3,52.3l-0.6,103.7c0,0.9,0.1,1.8,0.5,2.6c-1,15.7-1.4,31.4-1,47.1c-0.2,0.6-0.3,1.2-0.3,1.8
		c-0.9,19.8-0.4,39.7,1.7,59.5c0.4,3.8,2.9,6.9,7,7c1.4,0,2.8-0.5,3.9-1.3c0.8,0.3,1.7,0.5,2.6,0.5l17.3,0.2c4,1.5,8.3,2.2,12.6,2
		c4-0.2,7.9-0.9,11.7-2.2c7.2,2.4,15.6,2.9,22.3,0.7c0.8-0.2,1.6-0.5,2.3-0.8c2.2-0.1,4.3-0.3,6.4-0.8c1.2,0.9,2.7,1.4,4.2,1.3h14
		c1.3,0,2.7-0.3,3.8-1c1,0.3,2.1,0.4,3.2,0.2c4.7,3.5,13.2-0.3,11-7.2C1064.7,729,1066.8,714.2,1066.7,700.6z"/>
	<path class="st3" d="M1076.3,432.8c-2.9-1.2-7.2,0.2-7.3,4.4c-0.9,27,1,54-0.4,81c-0.7,12.9-1.7,25.8-1.6,38.7
		c0.1,13.6,0.8,27.1,1.5,40.7c0.2,4.7,5.7,6,8.5,3.7C1076.5,545.1,1076.3,488.9,1076.3,432.8z"/>
	<path class="st3" d="M1077.4,669.6c-0.1-7.6-0.1-15.1-0.2-22.7c-2-3.8-9.3-3-9.5,2.4c-0.6,23.2-0.5,46.3,0.2,69.5
		c0.2,5.3,7.1,6.2,9.3,2.7c0.1-7.6,0.1-15.1,0.2-22.7C1077.4,689.2,1077.3,679.4,1077.4,669.6z"/>
	<path class="st3" d="M1077.1,748.5c0-1.7,0-3.4,0-5.1c-0.8-3.5-1.4-6.9-1.9-10.5c-0.4-2.7-3.8-4.1-6.1-3.5
		c-2.9,0.8-3.9,3.5-3.5,6.1c0.6,4,1.4,8,2.3,12C1069,752.5,1075.2,752,1077.1,748.5z"/>
	<path class="st8" d="M2.5,596.8c0.1,51.7,0.2,103.4,0.2,155.1h53.8V597.3L2.5,596.8z"/>
	<path class="st8" d="M2.8,516h52.2v80.8"/>
	<path class="st8" d="M2.4,406.3c-0.1,29.3-0.3,58.5-0.4,87.8c0.6,85.7,0.6,171.5,0.7,257.3l62.3-1v-344H2.4z"/>
	<path class="st8" d="M0.6,314.6c0,30.6-0.1,61.2-0.2,91.8h62.5v236.3h44.9V314.6H0.6z"/>
	<polygon class="st8" points="62.9,750.4 62.9,642.7 107.9,642.7 107.9,586.5 187.7,586.8 187.7,642.7 229.7,642.7 229.7,750.4 	"/>
	<polygon class="st8" points="107.9,441.1 171.8,441.2 171.8,586.5 107.9,586.8 	"/>
	<polyline class="st8" points="69.5,314.6 69.9,89.2 80.9,59.3 103.9,62.3 103.9,88.2 112.9,89.2 112.9,228.8 133.8,228.8 
		133.8,378.4 260.6,382.4 256.6,746.4 229.7,746.4 	"/>
	<polygon class="st8" points="258.3,596.8 329.5,596.8 333.5,750.4 258.6,746.4 	"/>
	<polyline class="st8" points="165.1,379.4 164.8,343.5 279.6,343.5 279.6,596.8 	"/>
	<polyline class="st8" points="380.4,441.2 311.5,441.2 312,596.8 	"/>
	<polygon class="st8" points="373.4,751.4 373.4,664.6 457.3,664.6 457.3,750.4 	"/>
	<line class="st8" x1="333.5" y1="750.4" x2="380.4" y2="751.9"/>
	<polyline class="st8" points="384.4,664.6 380.4,292.6 438.3,292.6 438.3,249.8 542.2,249.8 546.2,271.7 577.1,271.7 577.1,343.5 
		597.1,343.5 597.1,479.1 608.1,479.1 608.1,642.7 617.1,642.7 617.1,746.4 457.3,750.4 	"/>
	<polyline class="st8" points="608.1,479.1 608.1,389.4 671,389.4 671,562.9 629,562.9 631,750.4 580.1,746.4 580.1,659.6 
		565.1,653.6 565.1,514 547.2,507 547.2,362.4 525.2,359.5 525.2,292.6 438.3,292.6 	"/>
	<polyline class="st8" points="631,389.4 631,287.6 751.8,287.6 747.8,514 	"/>
	<polyline class="st8" points="671,513.9 821.7,516 821.7,751.4 631,750.4 	"/>
	<polyline class="st8" points="751.8,490.1 772.8,490.1 772.8,314.6 828.7,314.6 828.7,389.4 837.7,389.4 837.7,495.1 848.7,495.1 
		848.7,578.8 866.7,581.8 866.7,642.7 894.6,642.7 894.6,750.4 821.7,751.4 	"/>
	<polyline class="st8" points="894.6,642.7 905.6,642.7 905.6,314.6 982.5,314.6 982.5,406.3 947.5,406.3 945.5,750.4 894.6,750.4 	
		"/>
	<polyline class="st8" points="982.5,406.3 1068.3,410.3 1068.3,750.4 945.5,750.4 	"/>
	<path class="st8" d="M1074.1,750.4h-9.6"/>
	<path class="st8" d="M1033.4,408.7c1-19.3,3-38.3,4-57.2h35.4"/>
	<path class="st8" d="M938.6,314.6v-46.9c3.7,0.1,0,1.9,0,0c44.9,1,89.9,2,134.3,3.9"/>
	<path class="st9" d="M0.7,744.4c0,4.3,0,8.7,0,13h1082.1c0-4.3,0-8.7,0.1-13H0.7z"/>
	<g class="st10">
		<rect x="75.9" y="108.1" class="st11" width="10" height="18"/>
		<rect x="93.9" y="108.1" class="st11" width="10" height="18"/>
		<rect x="75.9" y="133" class="st11" width="10" height="18"/>
		<rect x="93.9" y="133" class="st11" width="10" height="18"/>
		<rect x="75.9" y="159" class="st11" width="10" height="18"/>
		<rect x="93.9" y="159" class="st11" width="10" height="18"/>
		<rect x="75.9" y="183.9" class="st11" width="10" height="18"/>
		<rect x="93.9" y="183.9" class="st11" width="10" height="18"/>
		<rect x="75.9" y="210.9" class="st11" width="10" height="18"/>
		<rect x="93.9" y="210.9" class="st11" width="10" height="18"/>
	</g>
	<rect x="75.9" y="235.7" class="st12" width="10" height="18"/>
	<rect x="93.9" y="235.7" class="st12" width="10" height="18"/>
	<rect x="75.9" y="262.7" class="st12" width="10" height="18"/>
	<rect x="93.9" y="262.7" class="st12" width="10" height="18"/>
	<rect x="75.9" y="287.6" class="st12" width="10" height="18"/>
	<rect x="93.9" y="287.6" class="st12" width="10" height="18"/>
	<g class="st10">
		<rect x="112.9" y="236.8" class="st11" width="10" height="18"/>
		<rect x="112.9" y="261.6" class="st11" width="10" height="18"/>
		<rect x="112.9" y="288.6" class="st11" width="10" height="18"/>
		<rect x="112.9" y="313.5" class="st11" width="10" height="18"/>
	</g>
	<g class="st10">
		<rect x="112.9" y="342.5" class="st11" width="10" height="18"/>
		<rect x="112.9" y="367.4" class="st11" width="10" height="18"/>
		<rect x="112.9" y="394.4" class="st11" width="10" height="18"/>
		<rect x="112.9" y="419.2" class="st11" width="10" height="18"/>
	</g>
	<g class="st10">
		<rect x="132.8" y="394.4" class="st11" width="10" height="18"/>
		<rect x="150.8" y="394.4" class="st11" width="10" height="18"/>
		<rect x="132.8" y="419.2" class="st11" width="10" height="18"/>
		<rect x="150.8" y="419.2" class="st11" width="10" height="18"/>
	</g>
	<rect x="169.8" y="394.4" class="st12" width="10" height="18"/>
	<rect x="169.8" y="419.2" class="st12" width="10" height="18"/>
	<g class="st10">
		<rect x="187.7" y="394.4" class="st11" width="10" height="18"/>
		<rect x="187.7" y="419.2" class="st11" width="10" height="18"/>
		<rect x="207.7" y="394.4" class="st11" width="10" height="18"/>
		<rect x="225.7" y="394.4" class="st11" width="10" height="18"/>
		<rect x="207.7" y="419.2" class="st11" width="10" height="18"/>
		<rect x="225.7" y="419.2" class="st11" width="10" height="18"/>
	</g>
	<g class="st10">
		<rect x="187.7" y="445.2" class="st11" width="10" height="18"/>
		<rect x="187.7" y="470.1" class="st11" width="10" height="18"/>
		<rect x="207.7" y="445.2" class="st11" width="10" height="18"/>
		<rect x="225.7" y="445.2" class="st11" width="10" height="18"/>
		<rect x="207.7" y="470.1" class="st11" width="10" height="18"/>
		<rect x="225.7" y="470.1" class="st11" width="10" height="18"/>
	</g>
	<g class="st10">
		<rect x="186.7" y="496.1" class="st11" width="10" height="18"/>
		<rect x="186.7" y="521" class="st11" width="10" height="18"/>
		<rect x="206.7" y="496.1" class="st11" width="10" height="18"/>
		<rect x="224.7" y="496.1" class="st11" width="10" height="18"/>
		<rect x="206.7" y="521" class="st11" width="10" height="18"/>
		<rect x="224.7" y="521" class="st11" width="10" height="18"/>
	</g>
	<rect x="186.7" y="547.9" class="st12" width="10" height="18"/>
	<rect x="186.7" y="572.8" class="st12" width="10" height="18"/>
	<g class="st10">
		<rect x="206.7" y="547.9" class="st11" width="10" height="18"/>
		<rect x="224.7" y="547.9" class="st11" width="10" height="18"/>
		<rect x="206.7" y="572.8" class="st11" width="10" height="18"/>
		<rect x="224.7" y="572.8" class="st11" width="10" height="18"/>
	</g>
	<rect x="679" y="437.2" class="st12" width="13.1" height="18"/>
	<rect x="679" y="462.1" class="st12" width="13.1" height="18"/>
	<rect x="679" y="489.1" class="st12" width="13.1" height="18"/>
	<rect x="679" y="386.4" class="st12" width="13.1" height="18"/>
	<rect x="679" y="411.2" class="st12" width="13.1" height="18"/>
	<rect x="633" y="362.4" class="st12" width="13.1" height="18"/>
	<rect x="656.6" y="362.4" class="st12" width="13.1" height="18"/>
	<rect x="678.8" y="362.4" class="st12" width="13.1" height="18"/>
	<rect x="633" y="337.5" class="st12" width="13.1" height="18"/>
	<rect x="656.6" y="337.5" class="st12" width="13.1" height="18"/>
	<rect x="678.8" y="337.5" class="st12" width="13.1" height="18"/>
	<rect x="633" y="312.6" class="st12" width="13.1" height="18"/>
	<rect x="656.6" y="312.6" class="st12" width="13.1" height="18"/>
	<rect x="678.8" y="312.6" class="st12" width="13.1" height="18"/>
	<g class="st10">
		<rect x="702.5" y="437.2" class="st11" width="13.1" height="18"/>
		<rect x="702.5" y="462.1" class="st11" width="13.1" height="18"/>
		<rect x="702.5" y="489.1" class="st11" width="13.1" height="18"/>
		<rect x="702.5" y="386.4" class="st11" width="13.1" height="18"/>
		<rect x="702.5" y="411.2" class="st11" width="13.1" height="18"/>
		<rect x="724.8" y="386.4" class="st11" width="13.1" height="18"/>
		<rect x="724.8" y="411.2" class="st11" width="13.1" height="18"/>
		<rect x="724.8" y="437.2" class="st11" width="13.1" height="18"/>
		<rect x="724.8" y="462.1" class="st11" width="13.1" height="18"/>
		<rect x="724.8" y="489.1" class="st11" width="13.1" height="18"/>
		<rect x="701.8" y="361.4" class="st11" width="13.1" height="18"/>
		<rect x="701.8" y="336.5" class="st11" width="13.1" height="18"/>
		<rect x="723.8" y="336.5" class="st11" width="13.1" height="18"/>
		<rect x="723.8" y="361.4" class="st11" width="13.1" height="18"/>
		<rect x="701.8" y="311.6" class="st11" width="13.1" height="18"/>
		<rect x="723.8" y="311.6" class="st11" width="13.1" height="18"/>
	</g>
	<rect x="912" y="453.2" class="st12" width="10.2" height="18"/>
	<rect x="912" y="478.1" class="st12" width="10.2" height="18"/>
	<rect x="912" y="505" class="st12" width="10.2" height="18"/>
	<rect x="912" y="402.3" class="st12" width="10.2" height="18"/>
	<rect x="912" y="427.2" class="st12" width="10.2" height="18"/>
	<rect x="929.4" y="402.3" class="st12" width="10.2" height="18"/>
	<rect x="929.4" y="427.2" class="st12" width="10.2" height="18"/>
	<rect x="929.4" y="453.2" class="st12" width="10.2" height="18"/>
	<rect x="929.4" y="478.1" class="st12" width="10.2" height="18"/>
	<rect x="929.4" y="505" class="st12" width="10.2" height="18"/>
	<rect x="911.5" y="377.3" class="st12" width="10.2" height="18"/>
	<rect x="911.5" y="352.5" class="st12" width="10.2" height="18"/>
	<rect x="911.5" y="327.5" class="st12" width="10.2" height="18"/>
	<g class="st10">
		<rect x="928.6" y="352.5" class="st11" width="10.2" height="18"/>
		<rect x="928.6" y="377.3" class="st11" width="10.2" height="18"/>
		<rect x="928.6" y="327.5" class="st11" width="10.2" height="18"/>
	</g>
	<g class="st10">
		<rect x="912" y="655.6" class="st11" width="10.2" height="18"/>
		<rect x="912" y="680.5" class="st11" width="10.2" height="18"/>
		<rect x="912" y="707.5" class="st11" width="10.2" height="18"/>
		<rect x="912" y="604.8" class="st11" width="10.2" height="18"/>
		<rect x="912" y="629.7" class="st11" width="10.2" height="18"/>
		<rect x="929.4" y="604.8" class="st11" width="10.2" height="18"/>
		<rect x="929.4" y="629.7" class="st11" width="10.2" height="18"/>
		<rect x="929.4" y="655.6" class="st11" width="10.2" height="18"/>
		<rect x="929.4" y="680.5" class="st11" width="10.2" height="18"/>
		<rect x="929.4" y="707.5" class="st11" width="10.2" height="18"/>
		<rect x="911.5" y="579.8" class="st11" width="10.2" height="18"/>
		<rect x="911.5" y="554.9" class="st11" width="10.2" height="18"/>
		<rect x="928.6" y="554.9" class="st11" width="10.2" height="18"/>
		<rect x="928.6" y="579.8" class="st11" width="10.2" height="18"/>
		<rect x="911.5" y="530" class="st11" width="10.2" height="18"/>
		<rect x="928.6" y="530" class="st11" width="10.2" height="18"/>
	</g>
	<g class="st10">
		<rect x="944.5" y="352.5" class="st11" width="10.2" height="18"/>
		<rect x="944.5" y="377.3" class="st11" width="10.2" height="18"/>
		<rect x="944.5" y="327.5" class="st11" width="10.2" height="18"/>
	</g>
	<g class="st10">
		<rect x="960.5" y="352.5" class="st11" width="10.2" height="18"/>
		<rect x="960.5" y="377.3" class="st11" width="10.2" height="18"/>
		<rect x="960.5" y="327.5" class="st11" width="10.2" height="18"/>
	</g>
	<g class="st10">
		<rect x="193.7" y="598.8" class="st11" width="17.5" height="14.2"/>
		<rect x="225.2" y="598.8" class="st11" width="17.5" height="14.2"/>
		<rect x="193.7" y="618.5" class="st11" width="17.5" height="14.2"/>
		<rect x="225.2" y="618.5" class="st11" width="17.5" height="14.2"/>
	</g>
	<g class="st10">
		<rect x="447.3" y="258.7" class="st11" width="12" height="12"/>
		<rect x="447.3" y="275.7" class="st11" width="12" height="12"/>
	</g>
	<g class="st10">
		<rect x="467.3" y="258.7" class="st11" width="12" height="12"/>
		<rect x="467.3" y="275.7" class="st11" width="12" height="12"/>
	</g>
	<g class="st10">
		<rect x="489.3" y="258.7" class="st11" width="12" height="12"/>
		<rect x="489.3" y="275.7" class="st11" width="12" height="12"/>
	</g>
	<g class="st10">
		<rect x="509.2" y="258.7" class="st11" width="12" height="12"/>
		<rect x="509.2" y="275.7" class="st11" width="12" height="12"/>
	</g>
	<g class="st10">
		<rect x="529.2" y="258.7" class="st11" width="12" height="12"/>
		<rect x="529.2" y="275.7" class="st11" width="12" height="12"/>
	</g>
	<g class="st10">
		<rect x="529.2" y="291.6" class="st11" width="13" height="12"/>
		<rect x="529.2" y="308.6" class="st11" width="13" height="12"/>
	</g>
	<g class="st10">
		<rect x="529.2" y="325.5" class="st11" width="12" height="12"/>
		<rect x="529.2" y="342.5" class="st11" width="12" height="12"/>
	</g>
	<g class="st10">
		<rect x="551.2" y="275.7" class="st11" width="12" height="12"/>
		<rect x="551.2" y="292.6" class="st11" width="12" height="12"/>
	</g>
	<g class="st10">
		<rect x="551.2" y="308.6" class="st11" width="13" height="12"/>
		<rect x="551.2" y="325.5" class="st11" width="13" height="12"/>
	</g>
	<g class="st10">
		<rect x="551.2" y="342.5" class="st11" width="12" height="12"/>
		<rect x="551.2" y="359.5" class="st11" width="12" height="12"/>
	</g>
	<g class="st10">
		<rect x="552.2" y="376.4" class="st11" width="12" height="12"/>
		<rect x="552.2" y="393.4" class="st11" width="12" height="12"/>
	</g>
	<g class="st10">
		<rect x="552.2" y="409.3" class="st11" width="13" height="12"/>
		<rect x="552.2" y="426.3" class="st11" width="13" height="12"/>
	</g>
	<g class="st10">
		<rect x="552.2" y="443.2" class="st11" width="12" height="12"/>
		<rect x="552.2" y="460.2" class="st11" width="12" height="12"/>
	</g>
	<g class="st10">
		<rect x="571.1" y="359.5" class="st11" width="12" height="12"/>
		<rect x="571.1" y="376.4" class="st11" width="12" height="12"/>
		<rect x="571.1" y="393.4" class="st11" width="12" height="12"/>
		<rect x="571.1" y="409.3" class="st11" width="13" height="12"/>
		<rect x="571.1" y="426.3" class="st11" width="13" height="12"/>
		<rect x="571.1" y="443.2" class="st11" width="12" height="12"/>
		<rect x="571.1" y="460.2" class="st11" width="12" height="12"/>
	</g>
	<rect x="552.2" y="477.1" class="st12" width="12" height="12"/>
	<rect x="571.1" y="477.1" class="st12" width="12" height="12"/>
	<rect x="571.1" y="494.1" class="st12" width="12" height="12"/>
	<rect x="571.1" y="511" class="st12" width="12" height="12"/>
	<rect x="571.1" y="527" class="st12" width="13" height="12"/>
	<g class="st10">
		<rect x="571.1" y="543.9" class="st11" width="13" height="12"/>
		<rect x="571.1" y="560.9" class="st11" width="12" height="12"/>
		<rect x="571.1" y="577.8" class="st11" width="12" height="12"/>
	</g>
	<g class="st10">
		<rect x="589.1" y="494.1" class="st11" width="12" height="12"/>
		<rect x="589.1" y="511" class="st11" width="12" height="12"/>
		<rect x="589.1" y="528" class="st11" width="12" height="12"/>
		<rect x="589.1" y="543.9" class="st11" width="13" height="12"/>
		<rect x="589.1" y="560.9" class="st11" width="13" height="12"/>
		<rect x="589.1" y="577.8" class="st11" width="12" height="12"/>
		<rect x="589.1" y="594.8" class="st11" width="12" height="12"/>
	</g>
	<g class="st10">
		<rect x="571.1" y="594.8" class="st11" width="13" height="12"/>
		<rect x="571.1" y="611.8" class="st11" width="12" height="12"/>
		<rect x="571.1" y="628.7" class="st11" width="12" height="12"/>
	</g>
	<g class="st10">
		<rect x="589.1" y="611.8" class="st11" width="12" height="12"/>
		<rect x="589.1" y="628.7" class="st11" width="12" height="12"/>
		<rect x="589.1" y="645.7" class="st11" width="12" height="12"/>
		<rect x="589.1" y="661.6" class="st11" width="13" height="12"/>
		<rect x="589.1" y="678.6" class="st11" width="13" height="12"/>
		<rect x="589.1" y="695.5" class="st11" width="12" height="12"/>
		<rect x="589.1" y="712.5" class="st11" width="12" height="12"/>
	</g>
	<g class="st10">
		<rect x="389.4" y="301.6" class="st13" width="36.3" height="21.9"/>
		<rect x="435.1" y="301.6" class="st13" width="36.3" height="21.9"/>
		<rect x="478.9" y="301.6" class="st13" width="36.3" height="21.9"/>
		<rect x="390.4" y="329.5" class="st13" width="36.3" height="21.9"/>
		<rect x="436.1" y="329.5" class="st13" width="36.3" height="21.9"/>
		<rect x="479.9" y="329.5" class="st13" width="36.3" height="21.9"/>
		<rect x="391.4" y="358.5" class="st13" width="36.3" height="21.9"/>
		<rect x="437.1" y="358.5" class="st13" width="36.3" height="21.9"/>
		<rect x="480.9" y="358.5" class="st13" width="36.3" height="21.9"/>
	</g>
	<g class="st10">
		<rect x="391.4" y="387.4" class="st13" width="36.3" height="21.9"/>
		<rect x="437.1" y="387.4" class="st13" width="36.3" height="21.9"/>
		<rect x="480.9" y="387.4" class="st13" width="36.3" height="21.9"/>
		<rect x="392.4" y="415.3" class="st13" width="36.3" height="21.9"/>
		<rect x="438.1" y="415.3" class="st13" width="36.3" height="21.9"/>
		<rect x="481.9" y="415.3" class="st13" width="36.3" height="21.9"/>
		<rect x="393.4" y="444.2" class="st13" width="36.3" height="21.9"/>
		<rect x="439.1" y="444.2" class="st13" width="36.3" height="21.9"/>
		<rect x="482.9" y="444.2" class="st13" width="36.3" height="21.9"/>
	</g>
	<g class="st10">
		<rect x="391.4" y="475.1" class="st13" width="36.3" height="21.9"/>
		<rect x="437.1" y="475.1" class="st13" width="36.3" height="21.9"/>
		<rect x="480.9" y="475.1" class="st13" width="36.3" height="21.9"/>
		<rect x="392.4" y="503" class="st13" width="36.3" height="21.9"/>
		<rect x="438.1" y="503" class="st13" width="36.3" height="21.9"/>
		<rect x="481.9" y="503" class="st13" width="36.3" height="21.9"/>
		<rect x="393.4" y="532" class="st13" width="36.3" height="21.9"/>
		<rect x="439.1" y="532" class="st13" width="36.3" height="21.9"/>
		<rect x="482.9" y="532" class="st13" width="36.3" height="21.9"/>
	</g>
	<rect x="393.4" y="562.9" class="st14" width="36.3" height="21.9"/>
	<rect x="439.1" y="562.9" class="st14" width="36.3" height="21.9"/>
	<rect x="482.9" y="562.9" class="st14" width="36.3" height="21.9"/>
	<rect x="394.4" y="590.8" class="st14" width="36.3" height="21.9"/>
	<rect x="440.1" y="590.8" class="st14" width="36.3" height="21.9"/>
	<rect x="483.9" y="590.8" class="st14" width="36.3" height="21.9"/>
	<rect x="395.4" y="619.7" class="st14" width="36.3" height="21.9"/>
	<rect x="441.1" y="619.7" class="st14" width="36.3" height="21.9"/>
	<rect x="484.9" y="619.7" class="st14" width="36.3" height="21.9"/>
	<g class="st10">
		<rect x="532.2" y="521" class="st13" width="16" height="17"/>
		<rect x="532.2" y="548.9" class="st13" width="16" height="17"/>
		<rect x="532.2" y="578.8" class="st13" width="16" height="17"/>
		<rect x="532.2" y="606.8" class="st13" width="16" height="17"/>
		<rect x="532.2" y="636.7" class="st13" width="16" height="17"/>
		<rect x="532.2" y="664.6" class="st13" width="16" height="17"/>
		<rect x="533.2" y="693.5" class="st13" width="16" height="17"/>
	</g>
	<g class="st10">
		<rect x="614.1" y="399.3" class="st13" width="16" height="13.6"/>
		<rect x="614.1" y="421.8" class="st13" width="16" height="13.6"/>
		<rect x="614.1" y="445.9" class="st13" width="16" height="13.6"/>
		<rect x="614.1" y="468.4" class="st13" width="16" height="13.6"/>
		<rect x="614.1" y="492.5" class="st13" width="16" height="13.6"/>
		<rect x="614.1" y="515" class="st13" width="16" height="13.7"/>
		<rect x="615.1" y="538.3" class="st13" width="16" height="13.7"/>
		<rect x="643" y="399.3" class="st13" width="16" height="13.6"/>
		<rect x="643" y="421.8" class="st13" width="16" height="13.6"/>
		<rect x="643" y="445.9" class="st13" width="16" height="13.6"/>
		<rect x="643" y="468.4" class="st13" width="16" height="13.6"/>
		<rect x="643" y="492.5" class="st13" width="16" height="13.6"/>
		<rect x="643" y="515" class="st13" width="16" height="13.7"/>
		<rect x="644" y="538.3" class="st13" width="16" height="13.7"/>
	</g>
	<g class="st10">
		<rect x="961.5" y="424.3" class="st13" width="16" height="13.6"/>
		<rect x="961.5" y="446.8" class="st13" width="16" height="13.6"/>
		<rect x="961.5" y="470.9" class="st13" width="16" height="13.6"/>
		<rect x="961.5" y="493.3" class="st13" width="16" height="13.6"/>
		<rect x="961.5" y="517.4" class="st13" width="16" height="13.7"/>
		<rect x="961.5" y="539.9" class="st13" width="16" height="13.7"/>
		<rect x="962.5" y="563.2" class="st13" width="16" height="13.7"/>
		<rect x="990.5" y="424.3" class="st13" width="16" height="13.6"/>
		<rect x="990.5" y="446.8" class="st13" width="16" height="13.6"/>
		<rect x="990.5" y="470.9" class="st13" width="16" height="13.6"/>
		<rect x="990.5" y="493.3" class="st13" width="16" height="13.6"/>
		<rect x="990.5" y="517.4" class="st13" width="16" height="13.7"/>
		<rect x="990.5" y="539.9" class="st13" width="16" height="13.7"/>
		<rect x="991.5" y="563.2" class="st13" width="16" height="13.7"/>
	</g>
	<g class="st10">
		<rect x="963.5" y="585.8" class="st13" width="16" height="13.7"/>
		<rect x="963.5" y="608.3" class="st13" width="16" height="13.7"/>
		<rect x="963.5" y="632.4" class="st13" width="16" height="13.7"/>
		<rect x="963.5" y="654.9" class="st13" width="16" height="13.7"/>
		<rect x="963.5" y="679" class="st13" width="16" height="13.7"/>
		<rect x="963.5" y="701.5" class="st13" width="16" height="13.7"/>
		<rect x="964.5" y="724.8" class="st13" width="16" height="13.7"/>
		<rect x="992.5" y="585.8" class="st13" width="16" height="13.7"/>
		<rect x="992.5" y="608.3" class="st13" width="16" height="13.7"/>
		<rect x="992.5" y="632.4" class="st13" width="16" height="13.7"/>
		<rect x="992.5" y="654.9" class="st13" width="16" height="13.7"/>
		<rect x="992.5" y="679" class="st13" width="16" height="13.7"/>
		<rect x="992.5" y="701.5" class="st13" width="16" height="13.7"/>
		<rect x="993.5" y="724.8" class="st13" width="16" height="13.7"/>
	</g>
	<g class="st10">
		<rect x="1014.4" y="423.3" class="st13" width="16" height="13.6"/>
		<rect x="1014.4" y="445.8" class="st13" width="16" height="13.6"/>
		<rect x="1014.4" y="469.9" class="st13" width="16" height="13.6"/>
		<rect x="1014.4" y="492.3" class="st13" width="16" height="13.6"/>
		<rect x="1014.4" y="516.4" class="st13" width="16" height="13.7"/>
		<rect x="1014.4" y="538.9" class="st13" width="16" height="13.7"/>
		<rect x="1015.4" y="562.2" class="st13" width="16" height="13.7"/>
		<rect x="1043.4" y="423.3" class="st13" width="16" height="13.6"/>
		<rect x="1043.4" y="445.8" class="st13" width="16" height="13.6"/>
		<rect x="1043.4" y="469.9" class="st13" width="16" height="13.6"/>
		<rect x="1043.4" y="492.3" class="st13" width="16" height="13.6"/>
		<rect x="1043.4" y="516.4" class="st13" width="16" height="13.7"/>
		<rect x="1043.4" y="538.9" class="st13" width="16" height="13.7"/>
		<rect x="1044.4" y="562.2" class="st13" width="16" height="13.7"/>
	</g>
	<g class="st10">
		<rect x="1016.4" y="584.8" class="st13" width="16" height="13.7"/>
		<rect x="1016.4" y="607.3" class="st13" width="16" height="13.7"/>
		<rect x="1016.4" y="631.4" class="st13" width="16" height="13.7"/>
		<rect x="1016.4" y="653.9" class="st13" width="16" height="13.7"/>
		<rect x="1016.4" y="678" class="st13" width="16" height="13.7"/>
		<rect x="1016.4" y="700.5" class="st13" width="16" height="13.7"/>
		<rect x="1017.4" y="723.8" class="st13" width="16" height="13.7"/>
		<rect x="1045.4" y="584.8" class="st13" width="16" height="13.7"/>
		<rect x="1045.4" y="607.3" class="st13" width="16" height="13.7"/>
		<rect x="1045.4" y="631.4" class="st13" width="16" height="13.7"/>
		<rect x="1045.4" y="653.9" class="st13" width="16" height="13.7"/>
		<rect x="1045.4" y="678" class="st13" width="16" height="13.7"/>
		<rect x="1045.4" y="700.5" class="st13" width="16" height="13.7"/>
		<rect x="1046.4" y="723.8" class="st13" width="16" height="13.7"/>
	</g>
	<rect x="6" y="336.5" class="st15" width="22" height="21.9"/>
	<rect x="38" y="336.5" class="st15" width="22" height="21.9"/>
	<rect x="6" y="371.4" class="st15" width="22" height="21.9"/>
	<rect x="38" y="371.4" class="st15" width="22" height="21.9"/>
	<g class="st10">
		<rect x="69.9" y="336.5" class="st16" width="22" height="21.9"/>
		<rect x="69.9" y="371.4" class="st16" width="22" height="21.9"/>
		<rect x="69.9" y="407.3" class="st16" width="22" height="21.9"/>
		<rect x="69.9" y="442.2" class="st16" width="22" height="21.9"/>
		<rect x="70.9" y="475.1" class="st16" width="22" height="21.9"/>
		<rect x="70.9" y="510" class="st16" width="22" height="21.9"/>
		<rect x="70.9" y="545.9" class="st16" width="22" height="21.9"/>
		<rect x="70.9" y="579.8" class="st16" width="22" height="21.9"/>
		<rect x="70.9" y="614.8" class="st16" width="22" height="21.9"/>
	</g>
	<rect x="788.8" y="536" class="st15" width="20.1" height="20.7"/>
	<rect x="788.8" y="568.9" class="st15" width="20.1" height="20.7"/>
	<rect x="788.8" y="602.8" class="st15" width="20.1" height="20.7"/>
	<rect x="788.8" y="635.7" class="st15" width="20.1" height="20.7"/>
	<rect x="789.7" y="666.8" class="st15" width="20.1" height="20.7"/>
	<rect x="789.7" y="699.8" class="st15" width="20.1" height="20.7"/>
	<rect x="754.1" y="536" class="st15" width="20.1" height="20.7"/>
	<rect x="754.1" y="568.9" class="st15" width="20.1" height="20.7"/>
	<rect x="754.1" y="602.8" class="st15" width="20.1" height="20.7"/>
	<rect x="754.1" y="635.7" class="st15" width="20.1" height="20.7"/>
	<rect x="755" y="666.8" class="st15" width="20.1" height="20.7"/>
	<rect x="755" y="699.8" class="st15" width="20.1" height="20.7"/>
	<rect x="717.6" y="536" class="st15" width="20.1" height="20.7"/>
	<rect x="717.6" y="568.9" class="st15" width="20.1" height="20.7"/>
	<rect x="717.6" y="602.8" class="st15" width="20.1" height="20.7"/>
	<rect x="717.6" y="635.7" class="st15" width="20.1" height="20.7"/>
	<rect x="718.5" y="666.8" class="st15" width="20.1" height="20.7"/>
	<rect x="718.5" y="699.8" class="st15" width="20.1" height="20.7"/>
	<rect x="683" y="536" class="st15" width="20.1" height="20.7"/>
	<rect x="683" y="568.9" class="st15" width="20.1" height="20.7"/>
	<rect x="683" y="602.8" class="st15" width="20.1" height="20.7"/>
	<rect x="683" y="635.7" class="st15" width="20.1" height="20.7"/>
	<rect x="683.9" y="666.8" class="st15" width="20.1" height="20.7"/>
	<rect x="683.9" y="699.8" class="st15" width="20.1" height="20.7"/>
	<rect x="648" y="568.9" class="st15" width="20.1" height="20.7"/>
	<rect x="648" y="602.8" class="st15" width="20.1" height="20.7"/>
	<rect x="648" y="635.7" class="st15" width="20.1" height="20.7"/>
	<rect x="648.9" y="666.8" class="st15" width="20.1" height="20.7"/>
	<rect x="648.9" y="699.8" class="st15" width="20.1" height="20.7"/>
	<rect x="300.5" y="609.8" class="st15" width="20.1" height="20.7"/>
	<rect x="300.5" y="642.7" class="st15" width="20.1" height="20.7"/>
	<rect x="301.4" y="673.8" class="st15" width="20.1" height="20.7"/>
	<rect x="301.4" y="706.7" class="st15" width="20.1" height="20.7"/>
	<rect x="265.9" y="609.8" class="st15" width="20.1" height="20.7"/>
	<rect x="265.9" y="642.7" class="st15" width="20.1" height="20.7"/>
	<rect x="266.8" y="673.8" class="st15" width="20.1" height="20.7"/>
	<rect x="266.8" y="706.7" class="st15" width="20.1" height="20.7"/>
	<rect x="423.3" y="676.6" class="st15" width="20.1" height="20.7"/>
	<rect x="423.3" y="709.5" class="st15" width="20.1" height="20.7"/>
	<rect x="388.7" y="676.6" class="st15" width="20.1" height="20.7"/>
	<rect x="388.7" y="709.5" class="st15" width="20.1" height="20.7"/>
	<rect x="153.8" y="617.8" class="st15" width="20.1" height="20.7"/>
	<rect x="153.8" y="650.7" class="st15" width="20.1" height="20.7"/>
	<rect x="154.7" y="681.8" class="st15" width="20.1" height="20.7"/>
	<rect x="154.7" y="714.7" class="st15" width="20.1" height="20.7"/>
	<rect x="119.1" y="617.8" class="st15" width="20.1" height="20.7"/>
	<rect x="119.1" y="650.7" class="st15" width="20.1" height="20.7"/>
	<rect x="120" y="681.8" class="st15" width="20.1" height="20.7"/>
	<rect x="120" y="714.7" class="st15" width="20.1" height="20.7"/>
	<rect x="88.8" y="650.7" class="st15" width="21" height="20.7"/>
	<rect x="87.9" y="681.8" class="st15" width="21" height="20.7"/>
	<rect x="87.9" y="714.7" class="st15" width="21" height="20.7"/>
	<rect x="187" y="651.7" class="st15" width="20.1" height="20.7"/>
	<rect x="187.9" y="682.8" class="st15" width="20.1" height="20.7"/>
	<rect x="187.9" y="715.7" class="st15" width="20.1" height="20.7"/>
	<rect x="27.9" y="607.8" class="st15" width="12.5" height="20.7"/>
	<rect x="27.9" y="640.7" class="st15" width="12.5" height="20.7"/>
	<rect x="28.5" y="671.8" class="st15" width="12.5" height="20.7"/>
	<rect x="28.5" y="704.7" class="st15" width="12.5" height="20.7"/>
	<rect x="6.3" y="607.8" class="st15" width="12.5" height="20.7"/>
	<rect x="6.3" y="640.7" class="st15" width="12.5" height="20.7"/>
	<rect x="6.8" y="671.8" class="st15" width="12.5" height="20.7"/>
	<rect x="6.8" y="704.7" class="st15" width="12.5" height="20.7"/>
	<rect x="28.5" y="567.1" class="st15" width="12.5" height="20.7"/>
	<rect x="28.5" y="536.2" class="st15" width="12.5" height="20.7"/>
	<rect x="6.8" y="566.1" class="st15" width="12.5" height="20.7"/>
	<rect x="6.8" y="536.2" class="st15" width="12.5" height="20.7"/>
	<rect x="7.3" y="419.3" class="st15" width="36" height="20.7"/>
	<rect x="8.9" y="450.4" class="st15" width="36" height="20.7"/>
	<rect x="8.9" y="483.3" class="st15" width="36" height="20.7"/>
	<rect x="119.1" y="457.2" class="st15" width="36" height="20.7"/>
	<rect x="120.7" y="488.3" class="st15" width="36" height="20.7"/>
	<rect x="120.7" y="521.2" class="st15" width="36" height="20.7"/>
	<rect x="120.7" y="552.2" class="st15" width="36" height="20.7"/>
	<path class="st17" d="M1059.8,637.8c-0.7-1.3-1.5-2.4-2.5-3.4c-3-5.4-3-10.8-7-16.2c-3-5.4-4-11.9-6-17.3
		c-14-35.7-32-68.2-46-103.9c-4-8.7-8-16.2-12-24.9l-3-3.2c-6-13-14-23.8-22-34.6c-8-8.7-14-17.3-23-24.9c-3-1.1-6-3.2-9-5.4
		c-6-5.4-14-10.8-21-16.2c-3.7-2.1-7.8-3.2-12-3.2c-9,0-17,0-26,1.1h-33c-123-1.1-247,0-370,1.1c-83,1.1-165,4.3-248.1,4.5
		c7.6,0,15.2,0.2,22.9-0.2c-7.6-0.3-15.2,0-22.9,0.2C446,392,674,392,901.2,391l-12.3-0.2l12.3,0.2C675,385.5,449,377.9,222,386.6
		c-7,1.1-14,5.4-20,10.8c-10.6,9.2-21.6,17.9-33,26l-6,6.5c-12,18.4-20,34.6-32,53c-5,8.7-8,16.2-13,24.9
		c-35.6,67.1-58.6,136.4-89.5,203.5"/>
	<path class="st18" d="M1081.2,781.8c-0.5-5.9-1.4-11.8-2.7-17.6c-1.7-7.4-3.7-11.7-6-11.7H1.3c0.1,259.7,0.1,519.4,0.1,779.2
		c0,91.6,0,183.2,0,274.8h1071.2c5.6,0,10.1-26.8,10.1-59.5V812.1C1082.7,802,1082.2,791.9,1081.2,781.8z"/>
	<rect x="1047.8" y="753" class="st18" width="35.1" height="1054"/>
	<rect x="1.3" y="1805" class="st1" width="1081.6" height="115"/>
	<rect x="1077.8" y="1" class="st0" width="5" height="743"/>
	<rect x="1.3" class="st0" width="8" height="313"/>
	<polygon class="st19" points="1023.8,617 1068.3,750.4 1082.8,753 1055.6,615.1 	"/>
	<polygon class="st19" points="1068.3,753 1067.8,747.6 1082.6,747.6 1082.8,753 	"/>
	<polygon class="st19" points="51.3,720 41,752.6 32.1,753 46.3,711 	"/>
</g>
<g id="glass">
	<polygon class="st20" points="42.8,753 82.9,643.1 131.8,532 171.1,460.8 179.8,444 218.8,412 905.8,411.2 922.8,427 947,454 
		970.7,492.3 1016.8,598 1055.6,707.5 1072.5,752.6 	"/>
</g>
<g id="Layer_4">
	<polygon class="st19" points="1042.7,644.6 1082.8,753 1082.6,626.5 1065.8,589 	"/>
	<polygon class="st19" points="7.8,700 2.8,711.3 2.8,753 36.8,752.7 49.7,715.7 	"/>
</g>
</svg>
