<svg xmlns="http://www.w3.org/2000/svg" xmlns:xlink="http://www.w3.org/1999/xlink" viewBox="0 0 136 201.25"><defs><style>.cls-1{fill:url(#linear-gradient);}.cls-2{fill:#fff;}.cls-3{fill:url(#linear-gradient-2);}.cls-4{fill:#102773;}.cls-5{fill:url(#linear-gradient-3);}.cls-6,.cls-7,.cls-8{fill:none;stroke:#fff;stroke-miterlimit:10;}.cls-6{stroke-width:3.23px;}.cls-7{stroke-width:2.07px;}.cls-8{stroke-width:0.73px;}</style><linearGradient id="linear-gradient" x1="140.93" y1="236.79" x2="215.55" y2="242.24" gradientTransform="matrix(0.86, -0.08, 0.09, 1, -115.5, -77.28)" gradientUnits="userSpaceOnUse"><stop offset="0.75" stop-color="#010277"/><stop offset="1" stop-color="#fff"/></linearGradient><linearGradient id="linear-gradient-2" x1="-69.53" y1="250.64" x2="-1.3" y2="241.2" gradientTransform="matrix(-0.88, 0.3, 0.28, 0.95, -9.81, -93.12)" gradientUnits="userSpaceOnUse"><stop offset="0" stop-color="#fff"/><stop offset="0.04" stop-color="#ebebf4"/><stop offset="0.22" stop-color="#9999c8"/><stop offset="0.39" stop-color="#5858a5"/><stop offset="0.52" stop-color="#292a8c"/><stop offset="0.62" stop-color="#0c0d7d"/><stop offset="0.68" stop-color="#010277"/></linearGradient><linearGradient id="linear-gradient-3" x1="122.13" y1="23.05" x2="39.13" y2="90.58" gradientUnits="userSpaceOnUse"><stop offset="0" stop-color="#fff"/><stop offset="0.07" stop-color="#e0e1ef"/><stop offset="0.21" stop-color="#a6a6cf"/><stop offset="0.36" stop-color="#7474b4"/><stop offset="0.5" stop-color="#4a4b9e"/><stop offset="0.64" stop-color="#2a2b8d"/><stop offset="0.77" stop-color="#131481"/><stop offset="0.89" stop-color="#06077a"/><stop offset="1" stop-color="#010277"/></linearGradient></defs><title>Game_1_Bagde</title><g id="laces"><polygon class="cls-1" points="28 198.86 31.05 92.53 89.52 93.87 89.11 201.25 58.38 186.01 28 198.86"/><polygon class="cls-2" points="34.94 92.57 32.09 197.21 34.33 196.24 37.48 92.43 34.94 92.57"/><polygon class="cls-2" points="87.74 93.51 87.14 200.35 85.29 199.35 85.6 93.36 87.74 93.51"/><polygon class="cls-3" points="70.86 178.12 94.13 161.74 121 168.13 106.06 84.71 57.06 95.92 70.86 178.12"/><polygon class="cls-2" points="73.34 176.68 60.14 95.31 62.32 94.81 75.33 175.27 73.34 176.68"/><polygon class="cls-2" points="119.63 168.22 103.47 84.33 101.1 84.29 117.12 167.24 119.63 168.22"/></g><g id="Back_circle" data-name="Back circle"><circle class="cls-4" cx="68" cy="68" r="68"/></g><g id="Front_circle" data-name="Front circle"><circle class="cls-5" cx="67.5" cy="67.5" r="53.5"/></g><g id="white_circle" data-name="white circle"><ellipse class="cls-6" cx="68" cy="67.5" rx="53.5" ry="53"/><ellipse class="cls-2" cx="79" cy="29" rx="6" ry="3"/><circle class="cls-2" cx="87" cy="46" r="2"/><circle class="cls-2" cx="90" cy="40" r="2"/><circle class="cls-2" cx="89" cy="33" r="2"/><ellipse class="cls-7" cx="68" cy="67.25" rx="65" ry="65.25"/></g><g id="car"><path class="cls-2" d="M192.14,159.78a1.68,1.68,0,0,0,0-1.84,1.72,1.72,0,0,0,0-1.56,1.71,1.71,0,0,0,.06-1.66c1-1.17.17-2.49-.85-3.29-.59-.46-.89-1.13-1.45-1.64a4.65,4.65,0,0,0-1.92-1,6.74,6.74,0,0,0-.84-.16,1.61,1.61,0,0,0-.29-.71c0-.12,0-.24,0-.36a2.45,2.45,0,0,0-.35-1,1.21,1.21,0,0,0-.11-1.25L183,140.68c-.81-1.13-1.63-2.75-2.79-3.59a1.32,1.32,0,0,0-.69-1.38c-1.65-.94-3.74-.67-5.56-.71l-6-.12c-4.23-.09-8.47-.28-12.7-.18-1.84,0-4,0-5.67.75s-2.58,2.3-3.57,3.75a74.74,74.74,0,0,0-5.55,9.65,1.25,1.25,0,0,0-.84.26,20.51,20.51,0,0,0-3.56,2.67c-.76.87-1.3,2.83-.57,3.87l.14.17a1.66,1.66,0,0,0,.1.47c0,.86.11,1.73.19,2.59a1.41,1.41,0,0,0-.22.86l.17,4.05c0,.62,0,1.25.08,1.89a1.57,1.57,0,0,0,.65,2.52c.81,1.45,2.44,2.62,4.07,2.07a1.69,1.69,0,0,0,.28-.13l4.54-.13a1.41,1.41,0,0,0,1.12.67,21.78,21.78,0,0,0,6.1-.39h0q9.81.24,19.63.07a1.43,1.43,0,0,0,.6-.14l4.22.19c2.11.11,4.22.24,6.33.37a11.73,11.73,0,0,0,5.1-.49,5.86,5.86,0,0,0,3.52-3.61c.66-2,.35-4.16.24-6.18A1.53,1.53,0,0,0,192.14,159.78Z" transform="translate(-95 -85)"/><rect class="cls-2" x="86.54" y="81.61" width="7.4" height="8.6" rx="3.7" ry="3.7"/><rect class="cls-2" x="43.78" y="82.35" width="7.4" height="8.6" rx="3.7" ry="3.7"/><path class="cls-8" d="M187.75,170.43H139.26s-3.82-2-3.58-3.44-.48-14.26-.48-14.26,3.34-4.18,5-3.69l1.43-3.44,5.73-8.6s2.15-2,3.58-2,26.75.25,26.75.25H150.25S175.56,135,177,135s3.58,2,3.58,2l5.73,8.6,1.43,3.44c1.67-.49,5,3.69,5,3.69s-.72,12.78-.48,14.26-3.58,3.44-3.58,3.44H140.22" transform="translate(-95 -85)"/><ellipse class="cls-2" cx="95.37" cy="61.7" rx="2.63" ry="1.72"/><rect class="cls-2" x="91.55" y="61.21" width="2.39" height="1.23"/><rect class="cls-2" x="42.59" y="78.91" width="53.02" height="6.39" rx="3.2" ry="3.2"/><polyline class="cls-4" points="55.49 68.99 58.59 74.73 79.37 74.73 82.47 68.99 55.73 68.99"/><path class="cls-4" d="M137.67,154c0,.24.08,5.58.08,5.58l10.76-.16-4.87-5.24Z" transform="translate(-95 -85)"/><path class="cls-4" d="M190.3,154.07c0,.25-.08,5.66-.08,5.66l-10.76-.17,4.87-5.31Z" transform="translate(-95 -85)"/><polygon class="cls-4" points="47.96 60.96 90.47 60.96 84.82 52.85 82.12 51.87 55.08 51.87 52.38 53.09 47.96 60.96"/><ellipse class="cls-2" cx="42.03" cy="61.55" rx="3.03" ry="2.08"/><rect class="cls-2" x="43.68" y="60.78" width="2.76" height="1.49"/><path class="cls-2" d="M135.88,155.36c0-.22-.38-.23-.35,0,.17,1.31.3,2.62.37,3.93q.05.94.06,1.89,0,.52,0,1c0,.1.11.84-.17.65a8.64,8.64,0,0,1,0-1.88q0-.94-.06-1.88c-.07-1.37-.19-2.73-.36-4.09,0-.22-.38-.23-.35,0,.22,1.81.36,3.63.41,5.46q0,.68,0,1.37a4.75,4.75,0,0,0,0,1.24c.06.2.14.43.4.43C137,163.52,136,156.27,135.88,155.36Z" transform="translate(-95 -85)"/><path class="cls-2" d="M189.11,150.24l-1.12-.42c-.21-.08-.31.26-.09.34l1.12.42C189.23,150.66,189.32,150.32,189.11,150.24Z" transform="translate(-95 -85)"/><rect class="cls-4" x="42.71" y="81" width="52.64" height="3"/></g></svg>