<svg id="Layer_1" data-name="Layer 1" xmlns="http://www.w3.org/2000/svg" viewBox="0 0 162.45 162.45"><defs><style>.cls-1,.cls-2{fill:#f2f2f2;}.cls-1,.cls-10,.cls-3,.cls-4,.cls-6,.cls-7,.cls-8,.cls-9{stroke:#102773;stroke-miterlimit:10;}.cls-1{stroke-width:6.45px;}.cls-10,.cls-3,.cls-4,.cls-6,.cls-7,.cls-8,.cls-9{fill:none;}.cls-3{stroke-width:2.32px;}.cls-4{stroke-width:0.82px;}.cls-5{fill:#102773;}.cls-6{stroke-width:1.77px;}.cls-7{stroke-width:0.44px;}.cls-8{stroke-width:0.88px;}.cls-9{stroke-width:1.13px;}.cls-10{stroke-width:1.21px;}</style></defs><title>Mass_Transit</title><rect class="cls-1" x="3.22" y="3.22" width="156" height="156"/><rect class="cls-2" x="98.01" y="65.17" width="1.63" height="4.08"/><rect class="cls-2" x="104.53" y="65.17" width="1.63" height="4.08"/><rect class="cls-2" x="124.1" y="65.17" width="1.63" height="4.08"/><rect class="cls-2" x="130.62" y="65.17" width="1.63" height="4.08"/><path class="cls-3" d="M88.54,59.91A31.91,31.91,0,0,1,88,54.05C88,38,99.86,25,114.5,25S141,38,141,54.05a32,32,0,0,1-.45,5.37" transform="translate(0.22 0.22)"/><rect class="cls-3" x="98.64" y="36.35" width="31.04" height="30.95" rx="12" ry="12"/><line class="cls-3" x1="98.64" y1="51.83" x2="129.68" y2="51.83"/><line class="cls-3" x1="114.16" y1="36.35" x2="114.16" y2="51.83"/><ellipse class="cls-3" cx="105.45" cy="60.89" rx="4.35" ry="4.34"/><ellipse class="cls-3" cx="122.83" cy="60.86" rx="4.35" ry="4.34"/><line class="cls-3" x1="103.37" y1="67.12" x2="98.82" y2="76.18"/><line class="cls-3" x1="125.32" y1="67.12" x2="129.87" y2="76.02"/><line class="cls-4" x1="114.52" y1="35.42" x2="114.52" y2="25.21"/><rect class="cls-2" x="62.44" y="129.94" width="1.8" height="4.33"/><rect class="cls-2" x="69.65" y="129.94" width="1.8" height="4.33"/><rect class="cls-2" x="91.29" y="129.94" width="1.8" height="4.33"/><rect class="cls-2" x="98.5" y="129.94" width="1.8" height="4.33"/><rect class="cls-5" x="66.5" y="136.43" width="5.86" height="7.79" rx="2.72" ry="2.72"/><rect class="cls-5" x="91.29" y="136.43" width="5.86" height="7.79" rx="2.72" ry="2.72"/><rect class="cls-5" x="59.51" y="102.8" width="4.36" height="7.64" rx="2.02" ry="2.02" transform="translate(123.61 213.47) rotate(180)"/><polygon class="cls-5" points="64.69 101.84 61.52 101.84 61.52 106.32 63.1 106.32 63.1 102.37 64.69 102.37 64.69 101.84"/><path class="cls-6" d="M65.67,101.45H97.73v32.68s-.31,3.43-2.44,3.16" transform="translate(0.22 0.22)"/><path class="cls-6" d="M97.43,101.45H65.36v32.68s.31,3.43,2.44,3.16H95.29" transform="translate(0.22 0.22)"/><path class="cls-6" d="M97.39,132.58l-32.07-.07,0-14.76,0-17.92s.31-3.43,2.45-3.16" transform="translate(0.22 0.22)"/><path class="cls-6" d="M65.63,132.51l32.07.07,0-14.76,0-17.92s-.3-3.43-2.44-3.17l-27.49-.06" transform="translate(0.22 0.22)"/><path class="cls-5" d="M97,125.82a4.59,4.59,0,0,0,.52-1.79q1-11.92,1-23.89c0-2.25-1.87-3.7-4.06-3.9A116.07,116.07,0,0,0,76.71,96c-2.6.16-5.92,0-8.35,1-3.27,1.26-2.9,4.65-2.89,7.44a3.59,3.59,0,0,0,.21,1.15,3.72,3.72,0,0,0-.1,1q.24,6.49.18,13c0,4.33-.43,8.74-.23,13.06.1,2.17,1.13,4.36,3.5,5,2,.52,4.38-.07,6.36-.29,1-.11,2-.21,2.91-.35l.27,0q3.64.11,7.29.14a43.29,43.29,0,0,0,6.47-.06l.31.12a3.81,3.81,0,0,0,3.13,0,3.06,3.06,0,0,0,1.31-.81,3.84,3.84,0,0,0,1.19-2.75,4.08,4.08,0,0,0-.84-2.36A32.94,32.94,0,0,0,97,125.82Z" transform="translate(0.22 0.22)"/><rect class="cls-2" x="66.5" y="100.94" width="30.66" height="16.88"/><ellipse class="cls-2" cx="69.88" cy="127.99" rx="3.83" ry="3.68"/><ellipse class="cls-2" cx="93.32" cy="127.99" rx="3.83" ry="3.68"/><path class="cls-2" d="M70.94,136.41a2,2,0,0,1-2.78-.37,1.85,1.85,0,0,1,.39-2.67,2,2,0,0,1,2.78.37A1.85,1.85,0,0,1,70.94,136.41Z" transform="translate(0.22 0.22)"/><path class="cls-2" d="M94.38,136.41A2,2,0,0,1,91.6,136a1.85,1.85,0,0,1,.39-2.67,2,2,0,0,1,2.78.37A1.85,1.85,0,0,1,94.38,136.41Z" transform="translate(0.22 0.22)"/><rect class="cls-5" x="99.55" y="103.02" width="4.36" height="7.64" rx="2.02" ry="2.02"/><polygon class="cls-5" points="98.95 101.84 102.13 101.84 102.13 106.32 100.54 106.32 100.54 102.37 98.95 102.37 98.95 101.84"/><line class="cls-7" x1="90.02" y1="118.33" x2="82.99" y2="111.22"/><line class="cls-7" x1="82.99" y1="106.47" x2="82.99" y2="116.49"/><line class="cls-7" x1="73.53" y1="118.33" x2="80.55" y2="111.22"/><line class="cls-7" x1="80.55" y1="106.47" x2="80.55" y2="116.49"/><rect class="cls-7" x="72.91" y="118.07" width="1.53" height="0.53" rx="0.25" ry="0.25"/><rect class="cls-7" x="89.1" y="118.07" width="1.53" height="0.53" rx="0.25" ry="0.25"/><line class="cls-8" x1="98.5" y1="126.91" x2="110.22" y2="126.91"/><line class="cls-8" x1="109.77" y1="126.91" x2="109.77" y2="90.55"/><line class="cls-8" x1="110.22" y1="90.12" x2="63.34" y2="90.12"/><rect class="cls-5" x="59.28" y="86.22" width="9.92" height="7.79" rx="3.76" ry="3.76"/><rect class="cls-5" x="55.22" y="87.52" width="6.31" height="1.3"/><rect class="cls-5" x="55.22" y="90.99" width="6.31" height="1.3"/><rect class="cls-5" x="59.28" y="86.22" width="3.16" height="7.79"/><path class="cls-9" d="M17.54,60.29A32.59,32.59,0,0,1,17,54.37C17,38.15,28.86,25,43.5,25S70,38.15,70,54.37a32.64,32.64,0,0,1-.45,5.43" transform="translate(0.22 0.22)"/><ellipse class="cls-10" cx="30.08" cy="64.58" rx="9.69" ry="10.1"/><ellipse class="cls-10" cx="57.77" cy="64.99" rx="9.69" ry="10.1"/><line class="cls-10" x1="30.08" y1="65.4" x2="34.83" y2="44.39"/><line class="cls-10" x1="57.37" y1="66.22" x2="56.58" y2="52.21"/><line class="cls-10" x1="32.45" y1="52.63" x2="65.68" y2="52.63"/><line class="cls-10" x1="57.37" y1="65.4" x2="45.11" y2="65.4"/><line class="cls-10" x1="45.5" y1="65.4" x2="56.97" y2="50.15"/><line class="cls-10" x1="51.83" y1="50.15" x2="62.12" y2="50.15"/><line class="cls-10" x1="34.43" y1="44.8" x2="39.97" y2="44.8"/></svg>