<svg xmlns="http://www.w3.org/2000/svg" viewBox="0 0 162.45 162.45"><defs><style>.cls-1,.cls-2{fill:#f2f2f2;}.cls-1{stroke:#102773;stroke-miterlimit:10;stroke-width:6.45px;}.cls-3{fill:#102773;}.cls-4{font-size:60.46px;fill:#fff;font-family:Calibri, Calibri;}</style></defs><title>Purchase_grants</title><g id="Layer_1" data-name="Layer 1"><rect class="cls-1" x="3.22" y="3.22" width="156" height="156"/><rect class="cls-2" x="40.22" y="115.22" width="4" height="10"/><rect class="cls-2" x="56.22" y="115.22" width="4" height="10"/><rect class="cls-2" x="104.22" y="115.22" width="4" height="10"/><rect class="cls-2" x="120.22" y="115.22" width="4" height="10"/><ellipse class="cls-3" cx="74.72" cy="120.41" rx="34.5" ry="32.81"/><ellipse class="cls-3" cx="74.72" cy="83.74" rx="7.79" ry="13.51"/><path class="cls-3" d="M87.89,89.63c-4.1,4.84-10.24,7-13.7,4.78s-3-7.92,1.14-12.77,10.24-7,13.7-4.78S92,84.78,87.89,89.63Z" transform="translate(0.22 0.22)"/><path class="cls-3" d="M62,89.63c4.1,4.84,10.24,7,13.7,4.78s3-7.92-1.14-12.77-10.24-7-13.7-4.78S57.87,84.78,62,89.63Z" transform="translate(0.22 0.22)"/><text class="cls-4" transform="matrix(1.15, 0, 0.01, 1, 57.74, 137.62)">£</text></g><g id="light"><path class="cls-3" d="M158.18,16.82a1.92,1.92,0,0,0-.35-2c.19-.13.39-.24.57-.39,1.44-1.13.2-3.41-1.45-3.41h-.41l.57-.25c1.56-.69,1.18-2.55,0-3.34l.12-.05c2.12-.87.6-4.46-1.58-3.66L152.18,5a1.85,1.85,0,0,0-2.48-1.61c-1.06.34-2.1.71-3.15,1.07a2,2,0,0,0-1.93-.5l-.08,0A2,2,0,0,0,142,1.77a74.44,74.44,0,0,0-10.2,3.41,1.71,1.71,0,0,0-2.28-.94C111.1,10.9,96.67,24.64,81.6,36.48a1.74,1.74,0,0,0-.66,1c-2,1.42-4.08,2.86-6.16,4.29a30.81,30.81,0,0,0-3.14,2.46,14.9,14.9,0,0,0-2.41,1.42,2.18,2.18,0,0,0-1,2l-.9,1c-2.07,2.37-7,3.11-7.11,6.69a1.78,1.78,0,0,0,1.4,1.84,2,2,0,0,0,1.05.33,10.47,10.47,0,0,0,6.41-2.28.49.49,0,0,0-.2.36h-.28a.47.47,0,0,0-.31.75,2,2,0,0,0,.37.56.46.46,0,0,0,.35.14l0,0a.38.38,0,0,0,.29.07.53.53,0,0,0,.21,0h.18a.48.48,0,0,0,.29.22,1.89,1.89,0,0,0,.79.06.52.52,0,0,0,.3,0,7.88,7.88,0,0,0,2.78-1.13l.8-.38a13,13,0,0,0,2.94-1.77c1.25-1,1.93-2.57,3.23-3.54a.51.51,0,0,0,.21-.45l2.21-2.1.88-.74c1.07-.62,2.11-1.27,3.14-1.93-.91,4.39-3.19,8.72-4.86,12.83-.67,1.65,1.59,3.14,3,2.26a17.71,17.71,0,0,0,1.81-1.3,1.92,1.92,0,0,0,1.24-.59A15.6,15.6,0,0,0,92,52.87a16,16,0,0,0,.72-2.18,2.24,2.24,0,0,0,.06-.4,6.87,6.87,0,0,0,.31-1.86,2,2,0,0,0-.1-.62,17.81,17.81,0,0,0,2.49-1.52,16.41,16.41,0,0,0,2.93,1.1c-.1.22-.17.45-.25.68a2.08,2.08,0,0,0-.3.88l-.08.69C93.58,57,87.74,63.32,84.35,71.12a2.08,2.08,0,0,0,.4,2.29,1.67,1.67,0,0,0,.18.3A2,2,0,0,0,86.23,75c7.25,2.4,13.28-7.78,16.46-12.48,1.86-2.74,4-5.31,5.87-8l1.24-1.13a19.74,19.74,0,0,0,2-2.08c6.83-2.88,11.1-9.34,14-16.06,2.85-1.37,4.71-3.44,6.82-5.38,4.36-2,9.11-2.78,13.87-3.59a36.85,36.85,0,0,0,11.1-1.47A1.88,1.88,0,0,0,159,22.85a2.25,2.25,0,0,0,.1-2.67C160.3,19.27,159.68,17.29,158.18,16.82ZM69.27,55.1c.8-.58,1.56-1.21,2.28-1.85a.42.42,0,0,0,.19-.08l.86-.62.2.19C71.63,53.53,70.44,54.31,69.27,55.1Z" transform="translate(0.22 0.22)"/><path class="cls-3" d="M83.13,45.52A61.17,61.17,0,0,0,66.95,55.9c-.49.43.24,1.14.72.71a60.32,60.32,0,0,1,16-10.23C84.25,46.12,83.72,45.25,83.13,45.52Z" transform="translate(0.22 0.22)"/><path class="cls-3" d="M157.05,1.87l-.6-.44a1.38,1.38,0,0,1-.19.09h0a.24.24,0,0,0-.38.1l-.17,0c-.62.09-1.29.08-1.92.12L149.39,2c-2.8.18-5.6.33-8.39.56a57.13,57.13,0,0,0-15,3.21c-9.81,3.59-18.44,9.64-26.47,16.09C91.1,28.67,83.12,36,74.09,42c-1.87,1.24-3.89,2.37-5.33,4.12-.71.86-1.25,1.84-2,2.69a11.8,11.8,0,0,1-3.87,2.56c-1.49.79-2.93,2-2.92,3.83,0,1.61,1.43,2.35,2.9,2.49,4.86.46,8.53-4,12.07-6.5a37,37,0,0,1,17-6.44.24.24,0,0,0,.15-.07c1.09.54,2.16,1.18,3.25,1.73h0a30,30,0,0,1-4.41,2.35.28.28,0,0,0,.18.51c.81-.2,1.68-.84,1.69.48a7,7,0,0,1-.51,1.77,22.94,22.94,0,0,1-1.13,3,10.66,10.66,0,0,1-5.31,5.52c-.78.32-2.57,1-3-.51a4.21,4.21,0,0,1,.51-2.34c.44-1.18.9-2.36,1.35-3.54l2.89-7.6c.13-.33-.4-.51-.53-.18L84.73,52c-.75,2-1.65,3.93-2.25,5.95-.27.91-.47,2.16.44,2.81s2.22.2,3.14-.18c3.06-1.27,5-4.15,6.13-7.1.33-.86.61-1.73.86-2.62A4.43,4.43,0,0,0,93.48,49,.72.72,0,0,0,93,48.4c.88-.45,1.74-.94,2.58-1.48a.28.28,0,0,0,.12-.32,13.3,13.3,0,0,0,2.16.86,11.56,11.56,0,0,1-1.12,3.33c-1.48,2.78-3.45,5.35-5.2,8-1.94,2.91-3.95,5.78-5.82,8.73-1,1.61-2.17,3.74-1.4,5.68,1.79,4.53,8,1.26,10.41-.7,4.13-3.43,6.57-8.35,9.64-12.63A32.13,32.13,0,0,1,107.5,56c1.3-1.33,2.77-2.49,4-3.86l.46-.53a.29.29,0,0,0,.23,0c7.37-2.57,9.64-10.09,13.42-16.21a.27.27,0,0,0,.37.14c3.74-1.79,6.09-5.45,10-6.92,4.21-1.57,9-1.42,13.38-2q3.21-.41,6.39-1,1.65-.32,3.29-.7c.63-.14,1.5-.23,1.92-.79a1.73,1.73,0,0,0,.22-1.18c0-1.06-.2-2.13-.31-3.19q-.34-3.25-.8-6.48c-.34-2.38-.62-4.82-1.2-7.17A8.25,8.25,0,0,0,156.83,2,.8.8,0,0,0,157.05,1.87ZM158.92,9q.6,3.61,1.05,7.24.26,2.07.48,4.15c.05.52.11,1,.15,1.56s.08.88.11,1.32a1.76,1.76,0,0,1-1.47,1.06,40.5,40.5,0,0,1-7.37,1.42c-4.81.74-9.93.6-14.62,1.91a15,15,0,0,0-5.48,2.86c-1.92,1.55-3.62,3.34-5.86,4.46a17.85,17.85,0,0,1,6.48-6.47c.31-.17.06-.66-.25-.49-9.38,5.05-9.53,18.89-19.63,22.91A7.7,7.7,0,0,0,114.13,45a.28.28,0,0,0-.55.1c.54,3.08-1.39,5.64-3.5,7.67a51.54,51.54,0,0,0-5.21,5.36c-3,3.85-5.19,8.29-8.5,11.9a16.09,16.09,0,0,1-5.71,4.24c-2.37.94-6.22.7-6.06-2.68.12-2.58,2.31-5,3.68-7.06l5-7.52c1.59-2.39,3.5-4.76,4.56-7.45s.81-5.43,1.32-8.13c.07-.35-.49-.38-.56,0-.35,1.83-.41,3.68-.7,5.47-3.87-1.14-7.08-4.58-11.38-3.91-.35.06-.24.59.11.54a8.1,8.1,0,0,1,4.59.77A37.59,37.59,0,0,0,78.46,48.4,36.84,36.84,0,0,0,73,52a39,39,0,0,1-5.54,4.08,8.74,8.74,0,0,1-3.13,1.07c-1.79.2-4.4-.34-3.66-2.73s4-2.85,5.77-4.43c1.6-1.42,2.43-3.45,4.09-4.84,1.86-1.56,4.06-2.77,6.06-4.17,16.32-11.41,29.87-27.12,48.94-34.39A59,59,0,0,1,142.45,3c2.9-.21,5.8-.38,8.69-.56l4.38-.28.65,0C158.17,3.84,158.52,6.57,158.92,9Z" transform="translate(0.22 0.22)"/><path class="cls-3" d="M86.1,45.94a39.09,39.09,0,0,0-4,3,23.5,23.5,0,0,0-2.88,3.33,12.82,12.82,0,0,1-4.15,3.39c-1.5.82-4.78,3-6.11,1-.19-.3-.69-.06-.5.24a2.76,2.76,0,0,0,3.33,1A20,20,0,0,0,77,55.14c1.85-1.27,2.84-3,4.31-4.64a29.22,29.22,0,0,1,5.13-4.15C86.77,46.15,86.39,45.74,86.1,45.94Z" transform="translate(0.22 0.22)"/><path class="cls-3" d="M90.1,67.28a.27.27,0,0,0,0-.43,1.16,1.16,0,0,0-.37-.16.25.25,0,0,0-.37-.15l-.31.18-.08,0a.25.25,0,0,0-.11.09c-1.37.82-2.76,1.84-2.93,3.52a2.63,2.63,0,0,0,2.59,2.89c1.49.16,3.76-.49,4.41-2S91.24,68.1,90.1,67.28Zm2.19,4c-.58,1.08-2.43,1.56-3.56,1.48a2.16,2.16,0,0,1-2.07-3.05,5.53,5.53,0,0,1,2.62-2.45.54.54,0,0,1,.31,0,.27.27,0,0,0,.05.4C90.43,68.19,93,70,92.29,71.25Z" transform="translate(0.22 0.22)"/><path class="cls-3" d="M98.59,64.72a20,20,0,0,1-2.9-1.14,8.12,8.12,0,0,1-1.18-.73,5.54,5.54,0,0,1-.71-.64,4.19,4.19,0,0,1-.56-.73c.31.17.62-.29.3-.46a.53.53,0,0,0-.79.2c-.23.47.35,1,.63,1.35a11.78,11.78,0,0,0,5,2.67A.27.27,0,0,0,98.59,64.72Z" transform="translate(0.22 0.22)"/><path class="cls-3" d="M98.1,61.7a18.52,18.52,0,0,0-3.56-2.06c-.33-.14-.5.37-.17.52a17.88,17.88,0,0,1,3.43,2C98.08,62.37,98.38,61.91,98.1,61.7Z" transform="translate(0.22 0.22)"/><path class="cls-3" d="M94.46,57c-.28-.06-.54.33-.24.49l1,.51a.29.29,0,0,0,.36-.07,6.31,6.31,0,0,1,3.39,3.5c.13.33.63.09.5-.24A6.88,6.88,0,0,0,94.46,57Z" transform="translate(0.22 0.22)"/><path class="cls-2" d="M98.67,41.38A28.24,28.24,0,0,0,98,46.22c-4-1.44-7.63-4.32-12-3.7-.65.09-.37,1.06.27,1a9.12,9.12,0,0,1,4.06.44c-9.06.52-16.09,6.79-22.94,12.09a.41.41,0,0,0-.16.26l-2,1.26c-.55.35,0,1.22.52.86l2.58-1.65a.47.47,0,0,0,.23-.39C75.46,51,82.62,44.65,92.05,44.9a.46.46,0,0,0,.36-.14c.92.41,1.84.88,2.75,1.32a27.85,27.85,0,0,1-3.67,2.12,3,3,0,0,0-.78.24.46.46,0,0,0-.19.16c-.28.3-.17.89.33.82l.39-.06a.53.53,0,0,0,.19,0l.89-.16a1.53,1.53,0,0,1,.29.08.56.56,0,0,0,.74-.33c.51-.14,1-.3,1.53-.49a.52.52,0,0,0,0-1l.68-.44a6.9,6.9,0,0,0,1.62.54.51.51,0,0,0,.34-.05,8.07,8.07,0,0,1-1.88,3,.51.51,0,0,0,.72.71,9.11,9.11,0,0,0,2.26-3.84.53.53,0,0,0,.34-.46,27.09,27.09,0,0,1,.68-5.28C99.8,41,98.81,40.75,98.67,41.38Z" transform="translate(0.22 0.22)"/><path class="cls-2" d="M90.93,67.06a.46.46,0,0,0-.14-.18l-.45-.36a.52.52,0,0,0-.32-.11L90,66.3a.53.53,0,0,0-.7-.18,4.2,4.2,0,0,0-1.47,1.1.5.5,0,0,0-.11.24,3.08,3.08,0,0,0,1.39,5.79,4.13,4.13,0,0,0,4-2C93.78,69.57,92.17,68.16,90.93,67.06Z" transform="translate(0.22 0.22)"/><path class="cls-2" d="M98.5,63.91a7,7,0,0,1-2.87-.9c-.49-.28-2.31-1.45-2.09-2.17s-.8-.88-1-.27c-.35,1.14,1.06,2.25,1.88,2.85a8.06,8.06,0,0,0,4.07,1.49C99.16,65,99.15,64,98.5,63.91Z" transform="translate(0.22 0.22)"/><path class="cls-2" d="M98.54,61.31Q96.3,60.1,94,59c-.59-.28-1.11.58-.52.86q2.3,1.1,4.54,2.3C98.6,62.48,99.12,61.62,98.54,61.31Z" transform="translate(0.22 0.22)"/><path class="cls-2" d="M100,61.08a11.86,11.86,0,0,0-2.88-3c-.71-.51-2.15-1.72-3-1-.46.37.09,1,.57.78a7.41,7.41,0,0,1,2.45,1.51,10.77,10.77,0,0,1,2,2.23C99.48,62.12,100.36,61.62,100,61.08Z" transform="translate(0.22 0.22)"/><path class="cls-2" d="M114.5,44.9a.51.51,0,0,0-.59-.47.46.46,0,0,0-.47.35c-.44,1.6-.89,3.26-1.5,4.86a.43.43,0,0,0-.3.45v.27a13.18,13.18,0,0,1-4.53,6c-.53.37,0,1.24.52.86a14.43,14.43,0,0,0,5-6.65A8.2,8.2,0,0,0,114.5,44.9Z" transform="translate(0.22 0.22)"/><path class="cls-2" d="M132.46,27.53a13.92,13.92,0,0,0-4.09,2.94,14.57,14.57,0,0,0-3.16,4.08.46.46,0,0,0-.05.32,16.1,16.1,0,0,1-.53,2.79.51.51,0,0,0,1,.27,17.48,17.48,0,0,0,.56-3,13.09,13.09,0,0,1,2.62-3.47c1.16-1,2.45-2.41,3.94-2.95C133.34,28.27,133.08,27.31,132.46,27.53Z" transform="translate(0.22 0.22)"/></g></svg>