<svg id="Layer_1" data-name="Layer 1" xmlns="http://www.w3.org/2000/svg" viewBox="0 0 162.45 162.45"><defs><style>.cls-1,.cls-2,.cls-5{fill:#f2f2f2;}.cls-1,.cls-4,.cls-5,.cls-6{stroke:#102773;stroke-miterlimit:10;}.cls-1{stroke-width:6.45px;}.cls-3,.cls-7{fill:#102773;}.cls-4,.cls-6{fill:none;}.cls-4{stroke-width:5.32px;}.cls-5,.cls-6{stroke-width:2.22px;}.cls-7{font-size:25.34px;font-family:Calibri-Bold, Calibri;font-weight:700;}.cls-8{letter-spacing:-0.05em;}.cls-9{letter-spacing:-0.08em;}</style></defs><title>Tax_benefits</title><rect class="cls-1" x="3.22" y="3.22" width="156" height="156"/><rect class="cls-2" x="40.22" y="115.22" width="4" height="10"/><rect class="cls-2" x="56.22" y="115.22" width="4" height="10"/><rect class="cls-2" x="104.22" y="115.22" width="4" height="10"/><rect class="cls-2" x="120.22" y="115.22" width="4" height="10"/><rect class="cls-3" x="54.38" y="97.22" width="13.6" height="18" rx="6.13" ry="6.13"/><rect class="cls-3" x="8.71" y="76.22" width="66.08" height="26.83" rx="11.5" ry="11.5"/><ellipse class="cls-2" cx="23.29" cy="90.22" rx="5.83" ry="7"/><ellipse class="cls-2" cx="61.19" cy="90.22" rx="5.83" ry="7"/><polyline class="cls-4" points="68.96 87.08 55.48 48.23 28.51 48.23 15.03 87.08"/><ellipse class="cls-3" cx="69.93" cy="75.06" rx="4.37" ry="2.92"/><ellipse class="cls-3" cx="12.84" cy="74.77" rx="4.62" ry="3.21"/><rect class="cls-3" x="16.48" y="97.22" width="13.6" height="18" rx="6.13" ry="6.13"/><rect class="cls-3" x="71.87" y="82.06" width="18.46" height="2.33"/><path class="cls-3" d="M90.11,87.67c-3.76,0-6.8-2.09-6.8-4.67s3-4.67,6.8-4.67" transform="translate(0.22 0.22)"/><rect class="cls-3" x="89.37" y="79.72" width="4.86" height="2.33"/><rect class="cls-3" x="89.37" y="84.39" width="4.86" height="2.33"/><rect class="cls-5" x="93.22" y="38.22" width="58" height="77"/><line class="cls-6" x1="98.22" y1="68.22" x2="145.22" y2="68.22"/><line class="cls-6" x1="98.22" y1="74.22" x2="145.22" y2="74.22"/><line class="cls-6" x1="98.22" y1="80.22" x2="145.22" y2="80.22"/><line class="cls-6" x1="98.22" y1="86.22" x2="145.22" y2="86.22"/><line class="cls-6" x1="98.22" y1="92.22" x2="145.22" y2="92.22"/><line class="cls-6" x1="98.22" y1="98.22" x2="145.22" y2="98.22"/><line class="cls-6" x1="98.22" y1="104.22" x2="145.22" y2="104.22"/><text class="cls-7" transform="translate(98.22 61.31) scale(1.19 1)"><tspan class="cls-8">V</tspan><tspan class="cls-9" x="13.63" y="0">A</tspan><tspan x="27.01" y="0">T</tspan></text></svg>