<svg xmlns="http://www.w3.org/2000/svg" viewBox="0 0 99.02 302"><defs><style>.cls-1{fill:#727272;}.cls-2{fill:#aaa;}.cls-3{fill:#494949;}.cls-4{fill:#154289;}.cls-5{fill:#102773;}.cls-6{fill:#a5641c;}.cls-7{fill:#7f4913;}.cls-8{fill:#aa6831;}.cls-9{fill:#f2f2f2;}.cls-10{fill:none;stroke:#7f4913;stroke-miterlimit:10;}.cls-11{fill:#160704;}.cls-12{fill:#79bbce;}.cls-13{fill:#f9773a;}.cls-14{fill:#629ccc;}.cls-15{fill:#fffffd;}.cls-16{fill:#af472b;}.cls-17{fill:#ffedd7;}.cls-18{fill:#3d210a;}.cls-19{fill:#fffdfa;}.cls-20{fill:#965a2d;}</style></defs><title>Character 4</title><g id="shoes_colour" data-name="shoes colour"><path class="cls-1" d="M218.24,323.23a2.54,2.54,0,0,0-.32-1.6.48.48,0,0,0-.1-.12c0-.08,0-.17,0-.25a.51.51,0,0,0-.12-.26,2.94,2.94,0,0,0-.5-1,.47.47,0,0,0,0-.23c-1.19-3.65-3.73-6.65-5.91-9.75a.54.54,0,0,0-.94.14.46.46,0,0,0-.6.48l-4,1.07c-1.07.24-2.13.52-3.19.85a.49.49,0,0,0-.28.73.48.48,0,0,0-.19.44c-.34.17-.68.34-1,.49a7.45,7.45,0,0,0-2.18,1.11.5.5,0,0,0-.08.61,1.13,1.13,0,0,0,.36.3.43.43,0,0,0,.06.22,14.14,14.14,0,0,0,1.25,1.75h0q.6,1.75,1.27,3.47a.39.39,0,0,0,0,0,.48.48,0,0,0,0,.31c.43,1.9,1,3.79,2.9,4.7a8,8,0,0,0,1.25.47,3.33,3.33,0,0,0,1.75.38,4.57,4.57,0,0,0,1.35.1.49.49,0,0,0,.51-.09l0,0a1.66,1.66,0,0,0,.77-.55,5.78,5.78,0,0,1,2.78-.85.47.47,0,0,0,.47.45.48.48,0,0,0,.41.27l.26,0a.53.53,0,0,0,.44.47.4.4,0,0,0,.43.24,2.33,2.33,0,0,0,1.39-.58.42.42,0,0,0,.16-.33A3,3,0,0,0,218.24,323.23Zm-4.86-5.17-.48,0a.49.49,0,0,0-.48-.52l-.3,0a.43.43,0,0,0,0-.44,1.43,1.43,0,0,0-.57-.42l.79-.19c.43.53.85,1.06,1.23,1.61A.53.53,0,0,0,213.38,318.07Zm2.73,5.63a2.88,2.88,0,0,1-1,.69,3,3,0,0,1-.6.2l-.22,0a.45.45,0,0,0-.13-.08,11.42,11.42,0,0,0-3.13-.72l-.07,0c-2.34-.31-4.4.72-6.72-.24a.39.39,0,0,0-.23,0,3.16,3.16,0,0,1-.69-2,.45.45,0,0,0-.18-.38,12.38,12.38,0,0,1,.79-1.25c.47-.28.93-.58,1.39-.88a3.41,3.41,0,0,1,.87.14.42.42,0,0,0,.54-.22.4.4,0,0,0,.22,0l.4,0a16.75,16.75,0,0,0,7.23.57.57.57,0,0,0,.48-.09c.78.56,1.53.91,1.72,2.24A2.9,2.9,0,0,1,216.11,323.7Z" transform="translate(-122.97 -33.85)"/><path class="cls-1" d="M154,316.6a.5.5,0,0,0-.35-.62c-3.07-.43-6.15-.81-9.23-1.11-1.25-.12-4.59-1.2-5.33.24a.47.47,0,0,0,0,.48.52.52,0,0,0-.06.61l-.26.22a10.1,10.1,0,0,0-1.45,2.29l-1.93,3c-.22.34.15.9.56.73,2.25-.92,4.24-1.28,5.51-3a.33.33,0,0,1,.43.4l-.28,0a.53.53,0,0,0-.45.72l-.25,0a.43.43,0,0,0-.35.48.56.56,0,0,0-.07.46l-.31,0a.52.52,0,0,0-.45.41,5.72,5.72,0,0,0-3.73.67.45.45,0,0,0-.23.49.46.46,0,0,0-.36.23c-1.53,2.56-.69,4.45,1,5.69a3.84,3.84,0,0,0,2.4,1.68,7,7,0,0,0,2.85.92,11,11,0,0,0,3.77-.21.43.43,0,0,0,.48.12,6.75,6.75,0,0,0,3.27-2,7.3,7.3,0,0,0,1.92-2.08.46.46,0,0,0-.06-.56c.1-.18.21-.35.3-.55a.53.53,0,0,0,0-.42,9.48,9.48,0,0,0,.19-2.55.44.44,0,0,0,.07-.41l-.09-.3a.5.5,0,0,0-1,.13,9.13,9.13,0,0,1,0,1.79,3.47,3.47,0,0,1-1.41,1.74,9.37,9.37,0,0,1-3.64.55,10.92,10.92,0,0,0-2.27,0c-1.66.1-3.48.48-4.82-.25a4.28,4.28,0,0,1-1.13-1.4.5.5,0,0,0-.31-.3l0-.05a.51.51,0,0,0-.23-.26,6.67,6.67,0,0,1,.31-1.16.43.43,0,0,0,0-.22c2.11-.87,4.17.14,6.41-.06s4.38-1.37,6.75-1.32a.5.5,0,0,0,.2,0,4.22,4.22,0,0,0,.94,0h0s0,0,0,0h0s0,.09,0,.13c-.06.56.85.67,1,.13,0,0,0-.09,0-.13h0c0-.29.08-.57.12-.86a8,8,0,0,0,.53-1.82.45.45,0,0,0,0-.3h.06a.49.49,0,0,0,.23-.92.52.52,0,0,0,.2-.24Zm-12.35,14a9.35,9.35,0,0,1,1.7-.23.48.48,0,0,0,.49.15l.39-.1h.09l.19,0a.44.44,0,0,0,.19.07.53.53,0,0,0,0,.07,10.36,10.36,0,0,1-2.36.13,7.36,7.36,0,0,1-.75-.08Zm5.78-11.05c-.39.05-.43.49-.25.76a.44.44,0,0,0-.16.24H147s0,0,0,0v-1a.45.45,0,0,0-.31-.45l.62,0a.47.47,0,0,0,.15.39.56.56,0,0,0,0,.07Z" transform="translate(-122.97 -33.85)"/><path class="cls-2" d="M150.31,324.33a1.43,1.43,0,0,0-1.35-1.57l-.09,0h-.15a2.43,2.43,0,0,0-.7.07.49.49,0,0,0-.15.08,43.38,43.38,0,0,1-9.83.84,1.31,1.31,0,0,0-.39,1.19,3,3,0,0,0,1.55,1.42s0,0,0,0l.2.06.24.08h.06a4.36,4.36,0,0,0,.71.13c2.24.18,4.51-.41,6.79-.23a.41.41,0,0,0,.39-.16,2.27,2.27,0,0,0,.34,0l.08,0c1.11.16,2.48-.2,2.49-1.56A.48.48,0,0,0,150.31,324.33Z" transform="translate(-122.97 -33.85)"/><path class="cls-2" d="M154.95,317.67c0-.64-1-.64-1,0a8.21,8.21,0,0,1-.79,3.59,7.48,7.48,0,0,1-.48.72c-.38.5.28,1.2.71.71a5.23,5.23,0,0,0,.56-.81,8.65,8.65,0,0,0,.63-1.16.51.51,0,0,0,0-.39A11.61,11.61,0,0,0,154.95,317.67Z" transform="translate(-122.97 -33.85)"/><path class="cls-2" d="M152.52,328.83l-.08,0a.49.49,0,0,0,.28-.41l0-.3c0-.61-.78-.6-1-.13a9.22,9.22,0,0,1-4.45,3.68.5.5,0,0,0,.12,1,.38.38,0,0,0,.43.24c1.84-.25,4.94-1.18,4.91-3.58A.5.5,0,0,0,152.52,328.83Z" transform="translate(-122.97 -33.85)"/><path class="cls-2" d="M138.75,331.42l-.4,0h0a7.17,7.17,0,0,1-3.07-2.85.49.49,0,0,0-.58-.2.5.5,0,0,0-.79.39,3.26,3.26,0,0,0,1.25,3c1.12.85,2.31.54,3.61.69C139.39,332.49,139.38,331.49,138.75,331.42Z" transform="translate(-122.97 -33.85)"/><path class="cls-2" d="M215.69,320.93c-.39-1-2.23-.94-3.16-.79a8.84,8.84,0,0,1-3.67,0,13.07,13.07,0,0,0-2.14-.48,3.6,3.6,0,0,0-2.64.83.39.39,0,0,0-.08.57.43.43,0,0,0,0,.2s0,.07.06.12h0l0,.08a2.63,2.63,0,0,0,1.53,1.48c1.16.89,3.16.6,5,.11h.25a6.09,6.09,0,0,1,.67.12,11,11,0,0,0,1.11.22C214.84,324.26,217,322.27,215.69,320.93Z" transform="translate(-122.97 -33.85)"/><path class="cls-2" d="M218,326.17a4.16,4.16,0,0,1-1.51,1.4.51.51,0,0,0-.18.68c.49.84,1.6-.18,2.11-.51a.53.53,0,0,0,.16-.67c.1-.13.2-.26.29-.4C219.2,326.13,218.34,325.63,218,326.17Z" transform="translate(-122.97 -33.85)"/><path class="cls-2" d="M208,328.26a5.53,5.53,0,0,1-6.19-4.84c-.06-.4-.45-.44-.72-.26a.53.53,0,0,0-.52.32s0,.06,0,.1a.41.41,0,0,0-.4.25,3.25,3.25,0,0,0,.49,3.52,5.93,5.93,0,0,0,1.38,1.36,7.31,7.31,0,0,0,2.27.71.47.47,0,0,0,.37-.06,5.06,5.06,0,0,0,2.33,0,.46.46,0,0,0,.21-.11,6.89,6.89,0,0,0,.8,0C208.67,329.2,208.68,328.2,208,328.26Z" transform="translate(-122.97 -33.85)"/><path class="cls-2" d="M200.9,320a4.79,4.79,0,0,0-.73-1c-1-1.46-2-3-2.86-4.51a.49.49,0,0,0-.84,0c-.34-.13-.79.09-.68.49a.4.4,0,0,0-.38.47,4.84,4.84,0,0,0,1.29,2.81,9.46,9.46,0,0,0,1.27,1.14c.55.43,1.51.9,1.85,1.52a.5.5,0,0,0,.92-.25A.49.49,0,0,0,200.9,320Z" transform="translate(-122.97 -33.85)"/></g><g id="shoes_drawing" data-name="shoes drawing"><path class="cls-3" d="M153,323.77a15.69,15.69,0,0,0,2.47-3.44,4.48,4.48,0,0,0,.19-1.65c0-.55-.29-1.39-.25-2h0a.51.51,0,0,0-.18-.68l-.05,0a.5.5,0,0,0-.73.3,2.56,2.56,0,0,0,0,.44c0-.53-.87-.72-1-.13-.32,2.07-1.15,4-1.58,6A4.25,4.25,0,0,0,149,320.9c-.23,0-.94.11-1.12,0a.72.72,0,0,1-.38-.69,13.22,13.22,0,0,1,1.38.48c.59.25.85-.72.27-1a13.55,13.55,0,0,0-1.43-.5v0l.2-.65a4.25,4.25,0,0,1,.76.5c.49.41,1.2-.29.71-.71a5.76,5.76,0,0,0-1.17-.74l.17-.54c.29.12.57.25.85.41.57.31,1.07-.55.5-.86a10.55,10.55,0,0,0-1.06-.5l.13-.44c.19-.62-.77-.88-1-.27l-.12.38a9.64,9.64,0,0,0-4.1-.3l0-.19c.13-.63-.83-.9-1-.27,0,.22-.1.45-.16.67a10.62,10.62,0,0,0-1.67.56c-.59.26-.08,1.12.5.86a9.21,9.21,0,0,1,.87-.32c0,.11-.08.23-.11.34a8.76,8.76,0,0,0-1.8.63c-.58.29-.07,1.15.5.86a6.57,6.57,0,0,1,.9-.36c-.09.24-.2.48-.3.72a13.73,13.73,0,0,0-1.59.42c-.61.2-.35,1.17.27,1l.59-.17a4.27,4.27,0,0,1-2.58,1.06,5.65,5.65,0,0,0-2.42,1c1-2.43,2.83-4.43,3.75-6.91.22-.6-.74-.87-1-.27-1.13,3.07-3.66,5.65-4.34,8.82l-.06.08a.42.42,0,0,0,0,.44,7.3,7.3,0,0,0-.05,1.71.47.47,0,0,0-.15.23,11.8,11.8,0,0,0-.4,4.28.37.37,0,0,0,0,.05h0c0,.16.05.33.08.49v0l0,0c.2.19.42.38.63.56,4.71,5.38,12.44,5.11,17.48.58a6.66,6.66,0,0,0,1.86-2,.44.44,0,0,0,0-.42.45.45,0,0,0,0-.07,8.62,8.62,0,0,0-.87-3.55.42.42,0,0,0-.3-.25c.1-.69.13-1.39.2-2.13A.51.51,0,0,0,153,323.77Zm1.4-6.89c0,1.09.56,2.2,0,3.31a10.63,10.63,0,0,1-1.53,2.13C153.34,320.5,154.1,318.77,154.39,316.89Zm-4.4,8.53a2.33,2.33,0,0,1-2.45.78c-.28.29-.76-.14-2-.25a6.41,6.41,0,0,0-1.63,0c-2.34.3-5.11,2-6.21-1.46,0,0,0,0,0,0-.05-.75,4.43-.37,5.23-.47a19.06,19.06,0,0,0,2.41-.58q.8-.24,1.62-.42a3.78,3.78,0,0,1,.63-.19,1.72,1.72,0,0,1,2,.13A2.07,2.07,0,0,1,150,325.42Zm-6.61-8.92a8.64,8.64,0,0,1,4,.23l-.15.5a9.38,9.38,0,0,0-4-.31ZM143,318a8.9,8.9,0,0,1,4,.21l-.25.81a12.82,12.82,0,0,0-4-.2C142.83,318.52,142.92,318.25,143,318Zm-8.17,13.11-.38-.45a11.13,11.13,0,0,1,.07-2.45,7.26,7.26,0,0,0,4.43,3.66C137.46,332.61,136.07,332.1,134.83,331.09Zm10.36-.22c-.81-.67-1.5-1.53-2.65-1.56a2,2,0,0,0-1.55.54,9.81,9.81,0,0,0-1.06,1.29c-3.44-1-5.32-3.51-4.81-6.82a4.92,4.92,0,0,1,3.91-2.13,2.82,2.82,0,0,0,2-.44,5.27,5.27,0,0,0,1.31-1.9,11.92,11.92,0,0,1,4.15.13,1.89,1.89,0,0,0,.19,1.55c.37.46.84.38,1.37.38a4.72,4.72,0,0,1,1.38.18,8.44,8.44,0,0,0-3.92.23,11.64,11.64,0,0,1-5.07.56,7.52,7.52,0,0,0-2-.26c-1.09.13-1.75.7-1.67,1.82h0a.48.48,0,0,0,0,.23c1.07,3.5,3.82,3.07,6.69,2.37,2.26-.55,7.21,1.6,7.64-2.45a2.18,2.18,0,0,0-.69-2.07,3.51,3.51,0,0,1,1.16,1.42.47.47,0,0,0,.1.13c0,.06,0,.12,0,.18-.25,3.6-2.12,6.57-5.9,7C145.53,331.12,145.36,331,145.19,330.87Zm7.39-1a.47.47,0,0,0,0,.06,12.85,12.85,0,0,1-1.28,1.43,4.38,4.38,0,0,1-4.18.58,7.41,7.41,0,0,0,4.74-3.95,5.6,5.6,0,0,0,.23-.56A7.44,7.44,0,0,1,152.57,329.9Z" transform="translate(-122.97 -33.85)"/><path class="cls-3" d="M219.33,324.6a.47.47,0,0,0-.38-.33,7.5,7.5,0,0,0-.44-3.62,23.59,23.59,0,0,0-2.84-4.81c-1.36-2-2.59-4.15-3.86-6.23-.33-.55-1.2,0-.86.5,1.54,2.54,3.08,5.06,4.75,7.52,1.9,2.81,4.2,7.75-.13,9.69a.41.41,0,0,0-.24.27c-1.16-.8-2.24-2.07-3.91-1.35a6,6,0,0,0-1.75,1.31h0c-4,.75-6.91-1.66-7.77-5.32L202,322a.48.48,0,0,0-.32-.72,16.57,16.57,0,0,0-2.79-5.63c-.35-.54-1.21,0-.86.5.58.9,1.24,1.78,1.75,2.72a7.81,7.81,0,0,1,.68,1.82,13.76,13.76,0,0,1-2.73-1.52,5.27,5.27,0,0,1-1.42-1.49c-.08-.12-1.06-2.06-.86-2.28.43-.48-.28-1.19-.71-.71-.9,1,.54,3.42,1.26,4.26a11.81,11.81,0,0,0,4.73,2.92l0,.2c-1,1.52-2,2.87-1.44,4.7a.49.49,0,0,0,0,.33,4.29,4.29,0,0,0,.46.73c1.12,1.86,3.4,3,5.35,3.65a13.09,13.09,0,0,0,14.06-3.41,1.23,1.23,0,0,1,.15-.53A5.07,5.07,0,0,0,219.33,324.6Zm-18.81-.24a5.7,5.7,0,0,1,.57-1,7.46,7.46,0,0,0,1.36,2.65,7.29,7.29,0,0,0,5.89,2.64,3.71,3.71,0,0,1-1,.45,7.34,7.34,0,0,1-6.42-1.5A3.22,3.22,0,0,1,200.51,324.36Zm17.91,3a.49.49,0,0,0,0,.18,2.22,2.22,0,0,1-2.12.58,4.71,4.71,0,0,0,2.25-2.36A4.07,4.07,0,0,1,218.42,327.32Z" transform="translate(-122.97 -33.85)"/><path class="cls-3" d="M214.48,319.22a.49.49,0,0,0-.13-.38c-.4-.45-.78-.87-1.14-1.3a3.64,3.64,0,0,1,.7.41c.5.39,1.21-.31.71-.71a5.7,5.7,0,0,0-2.51-1.1c-.17-.24-.34-.47-.5-.73l-.05-.09a4.71,4.71,0,0,1,1.06.39c.57.3,1.07-.56.5-.86a6.44,6.44,0,0,0-2.26-.66l-.4-.65a2.2,2.2,0,0,1,.5.26c.52.38,1-.49.5-.86a3.48,3.48,0,0,0-1.66-.59c-.18-.33-.37-.66-.54-1-.29-.58-1.15-.07-.86.5.08.16.17.31.25.47a14.08,14.08,0,0,0-2.84.55l-.84.23,0-.05c-.24-.59-1.21-.33-1,.27l0,.1c-.86.34-1.62.84-1.45,1.62s1.1.36,1-.27c0-.06.37-.22.88-.39l.39,1a8.7,8.7,0,0,0-1.36.81c-.51.38,0,1.25.5.86a8,8,0,0,1,1.24-.74l.23.56a3.69,3.69,0,0,0-.94.69c-.45.46.26,1.17.71.71a3.1,3.1,0,0,1,.67-.51c.05.08.09.17.15.25s.73.72.75.6a.49.49,0,0,0,.07.37c-1.62-.12-3.07.12-3.76,1.73a.43.43,0,0,0-.3.58,4.53,4.53,0,0,0,2.21,3c1.57.68,3.21-.23,4.79-.33,2.19-.15,6.22,2.27,7-1.23C217.32,320.23,216.09,319.38,214.48,319.22Zm-8.8-4.29-.33-.86c.72-.22,1.41-.41,1.58-.44a11.38,11.38,0,0,1,2.28-.29l.47.81A11.66,11.66,0,0,0,205.68,314.94Zm.65,1.51c-.09-.19-.18-.37-.26-.57a10.62,10.62,0,0,1,4.2-.72l.53.85q-.58,0-1.17,0A13.4,13.4,0,0,0,206.33,316.45Zm.49.84a10.17,10.17,0,0,1,4.66-.26,26.5,26.5,0,0,0,1.85,2.19,10.82,10.82,0,0,0-1.32.18,15.62,15.62,0,0,1-4.37-.37.48.48,0,0,0,.08-.19C207.87,318.11,207.27,317.77,206.83,317.29Zm8.91,5.61c-.68.82-1.82.63-2.93.29-.34,0-.69-.13-1.36-.23a8.14,8.14,0,0,0-1.67-.08c-2.21.12-4.71,1.16-5.89-1.54.91-2.87,4.86-.66,6.71-.7a7.6,7.6,0,0,0,1.3-.19q.58-.12,1.15-.28l.34.1a2.6,2.6,0,0,1,2,.35A1.62,1.62,0,0,1,215.74,322.9Z" transform="translate(-122.97 -33.85)"/></g><g id="trousers_colour" data-name="trousers colour"><path class="cls-4" d="M212.51,305.65a23,23,0,0,0-3-8.64,2.39,2.39,0,0,0-.78-.89c-.19-.74-.39-1.47-.58-2.21a2.2,2.2,0,0,0-1.33-1.6c.6-3.18,1.15-6.38,1.64-9.58a2.57,2.57,0,0,0-.35-1.76c.19-.57.38-1.14.58-1.71a2.17,2.17,0,0,0,0-1.68c1.46-4.4,1.63-9.11,1.33-14.06-.57-9.6-1.64-19.19-2.83-28.73a2.69,2.69,0,0,0-.33-1c.62-13.29-1.77-26.38-3.88-39.46a2.05,2.05,0,0,0-.94-1.51c-.21-1-.41-2-.63-3-.61-2.74-4.36-2.08-4.84.23-2.65.46-5.3.79-8,1l-5.13.33c-4.09.19-8.19.21-12.3.17s-8.32-.11-12.48-.08c-4.36,0-8.94.69-13.23-.28a2.6,2.6,0,0,0-2.6,4.08,106.24,106.24,0,0,0-.23,12.92c-.4,2.79-.78,5.53.1,8.32,0,8,1.05,16,1.21,23.86,0,.89,0,1.78,0,2.68a68.53,68.53,0,0,0-4.5,19.21c-.43,5.19-.76,11.16,1.27,16.12l-.3,6.46a24.36,24.36,0,0,0-.09,3c0,.05,0,.1,0,.16-.35,3-2.08,5.72-1.09,8.81a24.2,24.2,0,0,0,2.32,4.23c-.76,2.41-1.52,4.81-2.24,7.23a2.47,2.47,0,0,0-.1.65H139a2.49,2.49,0,0,0-.21,5l.18,0a2.22,2.22,0,0,0,1.56.45c4.11-.24,8.23.61,12.29,1.18a2.82,2.82,0,0,0,.52,0,2.48,2.48,0,0,0,3.22-3.49,2.29,2.29,0,0,0,.65-1.66,2.75,2.75,0,0,0-.09-.57c1.67-3.6,1.51-7.87.43-11.77l2.73-6.84a2.42,2.42,0,0,0,.17-.85,72.81,72.81,0,0,0,5.76-12.67c1.56-5,.43-10.32-.05-15.39a2.55,2.55,0,0,0-.64-1.49q.08-2.65.09-5.32a2.36,2.36,0,0,0,.75-1.71,156.34,156.34,0,0,1,6.1-38.58,16.31,16.31,0,0,0,1.11-2.34l.21-.27.33.55a2.71,2.71,0,0,0,.12.49c4.43,12.27,8.78,24.7,9.39,37.73a2.6,2.6,0,0,0-.12.85c.26,4.6-1.06,9.14-.26,13.72a50.07,50.07,0,0,0,2.71,8.52,2.62,2.62,0,0,0-.24,1.58c1.43,9.84,5.78,18.87,8.14,28.46-1.05,3-2.92,10,1.75,10.93,2.71.57,5.33-1.55,7.79-3.4a20.52,20.52,0,0,1,8.5-1.49C214.9,310.65,215.1,306.31,212.51,305.65Z" transform="translate(-122.97 -33.85)"/></g><g id="trousers_drawing" data-name="trousers drawing"><path class="cls-5" d="M149.46,311.11c-1.07-.78-2.22-1.92-3.56-2.18-1.7-.33-3.77.52-5.37,1-.61.19-.35,1.15.27,1a14.55,14.55,0,0,1,4.47-1c1.39.09,2.63,1.34,3.69,2.11C149.47,312.35,150,311.48,149.46,311.11Z" transform="translate(-122.97 -33.85)"/><path class="cls-5" d="M195.41,209.59c-6.07.72-12-1.44-18.1-.67-.63.08-.64,1.08,0,1,6.07-.78,12,1.39,18.1.67C196,210.52,196.05,209.52,195.41,209.59Z" transform="translate(-122.97 -33.85)"/><path class="cls-5" d="M213.92,306.43c-1.36-2.25-1.5-4.9-2.85-7.17a22.83,22.83,0,0,1-3.24-8.13.39.39,0,0,0-.31-.34,28.29,28.29,0,0,0,.65-2.9c.5-3.11.36-6.21,1.06-9.32A.48.48,0,0,0,209,278a34.82,34.82,0,0,0,1.25-5,.52.52,0,0,0,0-.2.5.5,0,0,0,0-.19v-.44a.45.45,0,0,0,.14-.35,5.47,5.47,0,0,0-.16-1.16c.28-8.32-.64-16.61-1.4-24.88-.74-8.09-2-16.32-2.12-24.45a.47.47,0,0,0,.12-.3c.2-5-1.17-10.46-1.83-15.46-.31-2.35-.61-4.7-.93-7-.37-2.67-1.3-5.17-1.42-7.88a.48.48,0,0,0-.17-.36c-.05-.3-.09-.61-.16-.91-.12-.56-.89-.41-1,.07a.4.4,0,0,0-.05.41,3.28,3.28,0,0,1,.22,1.25.45.45,0,0,0,.14.34c0,.08,0,.15,0,.23a.46.46,0,0,0,.06.17c.22,1.72.69,3.32,1.05,5.06.59,2.83.8,5.79,1.18,8.66.64,4.85,1.93,10.08,1.83,15a.45.45,0,0,0-.13.34c.11,8.27,1.38,16.65,2.14,24.88.78,8.49,1.73,17,1.38,25.53a.48.48,0,0,0,0,.21v1.1a.47.47,0,0,0,0,.08l0,0c-.65,3.55-1.62,8-4.72,10.2-2.93,2.1-6.82,2.38-10.12,3.62-.6.22-.34,1.19.27,1,3.63-1.36,8-1.63,11-4.23a9.69,9.69,0,0,0,2.18-2.78c-.28,2.1-.34,4.2-.58,6.35-.35,3.22-1.59,6.39-2.52,9.48a.5.5,0,0,0,1,.27c.41-1.39.88-2.78,1.31-4.19a30.37,30.37,0,0,0,3.54,8.05c.94,1.71,1,3.64,1.84,5.39.32.69,1.07,1.42,1.31,2.11.64,1.88-1,1.92-2.47,2a23.88,23.88,0,0,0-9.18,2.87c-1.85,1-3.27,2.37-5.55,1.82a4.28,4.28,0,0,1-3.24-2.93,7.52,7.52,0,0,1,.19-2.87,26.81,26.81,0,0,0,1.47,3.48c.28.58,1.14.07.86-.5A16,16,0,0,1,194,305.4a16.94,16.94,0,0,0-.57-4.34c-1-3.34-2.24-6.62-3.24-10s-2.07-6.92-3-10.41-1-6.92-2.1-10.18a.48.48,0,0,0-.31-.31,21.34,21.34,0,0,1-1.37-5.94c-.11-2.12.25-4.24.28-6.36a120.87,120.87,0,0,0-.23-12.57c-.75-8.17-3.49-16.47-6.12-24.21a.47.47,0,0,0,0-.19q-1.4-3.74-2.74-7.49a.49.49,0,0,0-.28-.3,10.06,10.06,0,0,0,.27-2.57.52.52,0,0,0,.64-.46c.13-1.75.4-2.8,2.29-3.53a12.63,12.63,0,0,1,1.53-.38l5-1.2c3.33-.8,6.61-1.65,10.06-1.39.64,0,.64-1,0-1-4.72-.36-9.39,1.2-13.93,2.29-3.14.76-5.2,1.21-5.77,4.2a4.48,4.48,0,0,0-.48-1.09,12.28,12.28,0,0,1-1.24-2c2.08-.23,4.19-.67,5-2.85,1.34-3.63-.85-7.77,0-11.53.13-.63-.83-.9-1-.27a18.32,18.32,0,0,0,.07,6.36,13,13,0,0,1,.19,4.17c-.48,2.33-2.24,2.91-4.32,3.13a.53.53,0,0,0-.19.06,40.89,40.89,0,0,1-.5-4.11l-.88-7.67c-.07-.63-1.07-.64-1,0,.46,4,.49,8.38,1.47,12.3a5.89,5.89,0,0,0,.7,1.57c-5.32.11-10.66-2.1-15.84-.05-.59.23-.33,1.2.27,1,5-2,10.12.09,15.23.09a.47.47,0,0,0,.26.08.46.46,0,0,0,.26-.08h0a.47.47,0,0,0,.31-.13,6,6,0,0,1,.74,1.62h-.13a111.63,111.63,0,0,0-15.6,5.73c-.59.27-.08,1.13.5.86a109.9,109.9,0,0,1,15.36-5.63h0a12.86,12.86,0,0,1-1.47,5.84.45.45,0,0,0-.27.31c-5,18.1-8,36.94-5.55,55.7a.51.51,0,0,0,0,.11c-.72,8-5.39,15.49-8.75,22.72l-.2.43a.38.38,0,0,0-.3.45l0,.15c-.71,1.56-1.41,3.12-2.2,4.64-.66,1.28-1.63,2.45-2.21,3.77-1.18,2.64.06,5.89,1.52,8.16a.49.49,0,0,0,.09.09.46.46,0,0,0,.48.46.5.5,0,0,0,.37-.83.47.47,0,0,0-.08-.23c-1.16-1.81-2.36-4.51-1.7-6.71.52-1.72,2-3.41,2.81-5,.4-.82.78-1.65,1.17-2.48.3,2.13.61,4.27.79,6.4.23,2.79-1,5.21-2,7.76a.39.39,0,0,0,.11.48.48.48,0,0,0,0,.14c.77,2.68-1.55,2.51-3.41,2.34s-3.86-.56-5.78-.85c-1.26-.19-2.51-.36-3.78-.42-2-.1-4.23.39-5.85-1a3.74,3.74,0,0,1,.7-3.73l-.51,1.83a.5.5,0,0,0,1,.27q1.49-5.3,2.95-10.62l.21.2a4.2,4.2,0,0,1,1.33,4c-.25.81-1.5,1.72-2.09,2.25s.23,1.14.71.71c1.56-1.41,3.37-3.07,2.5-5.33a7.88,7.88,0,0,0-2.4-2.93.5.5,0,0,0-.46-.4c-1.34-1.19-2.52-2.42-2.09-4.47,1.43-6.79,2.44-13.33,1.54-20.27a.46.46,0,0,0,0-.27c-1.6-5.51-.8-11.1.17-16.64a110,110,0,0,1,2.77-12.51l.14,2c.27,3.74.45,7.18-1.41,10.58-.31.56.55,1.07.86.5,3.1-5.66,1.43-12.73,1-18.86l-1.6-21.7a.43.43,0,0,0,.14-.36,211.45,211.45,0,0,1,.13-24.5c0-.64-1-.64-1,0a211.42,211.42,0,0,0-.16,23.81.41.41,0,0,0-.16.38l1.5,20.42.38,5.16a.5.5,0,0,0-.08.13,103.39,103.39,0,0,0-3.78,16.54c-.84,5.07-1.31,10.18.11,15.19a.5.5,0,0,0,0,.07c1,6.86-.08,13.38-1.5,20.08-.34,1.59-.37,2.81.79,4a17.39,17.39,0,0,0,1.63,1.45q-1.05,3.83-2.13,7.66a.4.4,0,0,0-.28.09,4.84,4.84,0,0,0-1.84,5.5.43.43,0,0,0,.15.38c1.55,1.4,3.3,1.3,5.29,1.31a68.52,68.52,0,0,1,9.05,1.08c3.22.45,7.61,1.29,6.26-3.38a.5.5,0,0,0-.09-.17c.91-2.32,2.22-4.74,2.11-7.28-.13-2.9-.69-5.83-1.07-8.71.95-2,1.88-4.1,2.83-6.15,2.81-6.05,6-11.67,6.42-18.44a.41.41,0,0,0-.2-.4c-2.2-18.22.7-36.48,5.51-54.08a.49.49,0,0,0,.13-.17,20.72,20.72,0,0,0,1.12-2.75q1.14,3.19,2.33,6.36a.47.47,0,0,0,0,.12c1.43,4.2,2.72,8.44,3.82,12.74s2.36,8.83,2.49,13.32c.12,4.17.3,8.49.06,12.66a26.79,26.79,0,0,0,1.47,11.52.49.49,0,0,0,.26.29c.88,3,1.06,6.33,1.87,9.41,1,3.79,2.12,7.56,3.25,11.31,1,3.38,2.55,6.77,3.28,10.23a35.71,35.71,0,0,1,.31,4.19.4.4,0,0,0-.21.32c-.56,4-1.25,7.48,3.45,8.62,2,.48,3.32,0,5-1.1a25.87,25.87,0,0,1,7.87-3.21c1.85-.43,4.48.36,5.72-1.58C215.72,308.4,214.61,307.58,213.92,306.43Z" transform="translate(-122.97 -33.85)"/><path class="cls-5" d="M205.34,291.05a24.22,24.22,0,0,0-4.34,2.7c-.51.39.2,1.1.71.71a23.08,23.08,0,0,1,4.14-2.54C206.43,291.64,205.92,290.77,205.34,291.05Z" transform="translate(-122.97 -33.85)"/><path class="cls-5" d="M211.2,304.07c-2.5-.58-5.62-1.33-8.18-.84-2.32.44-4.1,2.77-5.66,4.37-.45.46.26,1.17.71.71,1.61-1.64,3.27-3.74,5.62-4.1a16.08,16.08,0,0,1,5.68.47,12.26,12.26,0,0,1-1.93.43c-.63.09-.36,1.05.27,1a12.61,12.61,0,0,0,3.62-1.08A.5.5,0,0,0,211.2,304.07Z" transform="translate(-122.97 -33.85)"/></g><g id="hands_colour" data-name="hands colour"><path class="cls-6" d="M142.83,214.06c-1-.5-2.23-.69-3.11-1.47a.51.51,0,0,0-.59-.07c-.25-.32-.51-.64-.73-1-.76-1.69-1.45-3.4-2-5.15l0-.15a.45.45,0,0,0,0-.11,15.15,15.15,0,0,0,1.3-3.8q1.37,2.53,2.64,5.11a26.93,26.93,0,0,0,.93,2.68.51.51,0,0,0,.51.34l.16.28a.44.44,0,0,0,.37.24l.2.44c.25.53,1,.14.91-.39l0-.19a2.43,2.43,0,0,0,.53-.89l-.16-.56a.4.4,0,0,0,.06-.42c-.41-1-.79-2.08-1.17-3.12a37.49,37.49,0,0,0-1.11-3.78.47.47,0,0,0,0-.21,14.85,14.85,0,0,0-1.61-5.2.48.48,0,0,0-.86,0,5.41,5.41,0,0,0-1-1,.49.49,0,0,0-.23-.09l-.21-.43a.48.48,0,0,0-.87.06l-.2-.4a.44.44,0,0,0-.21-.21l-.86-1.6-.31-6.49a.52.52,0,0,0-.07-.24c.07-2.74.18-5.47.48-8.19.16-.71.33-1.42.5-2.13h0l1.36-5.18a.49.49,0,0,0-.57-.61.53.53,0,0,0-.51-.18.42.42,0,0,0-.69,0l-.61.76a.58.58,0,0,0-.45-.33.48.48,0,0,0-.39-.27c0-.17.07-.34.1-.52.08-.51-.66-.94-.91-.39l-.3.65a.6.6,0,0,0-.33-.11c0-.06,0-.11,0-.18,0-.46-.7-.72-.93-.25-.08.17-.15.34-.22.52a.53.53,0,0,0-.31-.06.51.51,0,0,0-.87,0l-.05.11c-.17-.3-.72-.39-.88,0s-.19.48-.28.73a.51.51,0,0,0-.56-.18c0-.18,0-.35,0-.53a.5.5,0,0,0-.93-.25,4.72,4.72,0,0,0-.26.54c-.19-.48-1-.44-1,.14v0a.51.51,0,0,0-.25.54c0,.14,0,.27.06.41,0,1.8.05,3.59.16,5.39a.39.39,0,0,0-.13.37c.16,1.37.35,2.74.54,4.11a.37.37,0,0,0,0,.22l.72,5.58a.46.46,0,0,0,.12.25c0,.67,0,1.34.06,2a.48.48,0,0,0,.27.41c0,.23,0,.47.09.7a.41.41,0,0,0,.25.32q.37,2.28.72,4.56c.5,3.27.27,6.42.5,9.67a.46.46,0,0,0-.23.4,5.34,5.34,0,0,0,1.28,3.54c.2.38.42.75.66,1.11a.49.49,0,0,0,.52.22c.29.41.59.83.89,1.27a.53.53,0,0,0,.83,0c.2.32.39.65.61,1a.54.54,0,0,0,.82.06c.14.2.28.4.43.59l0,.07h0l.08.1a.4.4,0,0,0,.43.13,5.87,5.87,0,0,0,1.13,1.23.51.51,0,0,0,.38.12l.14.17a.41.41,0,0,0,.53.11l.25.17a.46.46,0,0,0,.32.06c.14.09.26.19.41.27a.52.52,0,0,0,.74-.34,5.25,5.25,0,0,0,1.72.76c1.35.6,2.75.93,2.88-.15C144.48,215,143.41,214.35,142.83,214.06Z" transform="translate(-122.97 -33.85)"/><path class="cls-6" d="M220.28,162.71a.48.48,0,0,0-.11-.88,33.17,33.17,0,0,0-12.18-.1.45.45,0,0,0-.27.71.45.45,0,0,0-.08.42c.06.23.11.46.18.7a.6.6,0,0,0,0,.14l1.86,11.59a.44.44,0,0,0,.09.21c0,4.14-.44,8.34-.38,12.46a.42.42,0,0,0,0,.09l0,.33a14.7,14.7,0,0,0-2.63,2.39,9.66,9.66,0,0,0-.75,1.11.4.4,0,0,0-.58.2,56.11,56.11,0,0,0-3.53,10.68l0,0a4.38,4.38,0,0,0-.65,2.75.91.91,0,0,0,1.34.54,3.87,3.87,0,0,0,1.42-1.25.53.53,0,0,0,.77-.24l1.47-3.61a.45.45,0,0,0,0-.14c.3-.61.58-1.24.83-1.88s.48-1.17.74-1.75a3.72,3.72,0,0,0,.83,1l.51.9a1.58,1.58,0,0,0,.79,1.05,4.19,4.19,0,0,0,.19,3.5c-.59,1.15-.74,2.46-1.43,3.57A13.86,13.86,0,0,1,205.2,211a.54.54,0,0,0-.14.71h0c-.52.37,0,1.23.5.86h0a.4.4,0,0,0,.34,0,13.94,13.94,0,0,0,7.18-6.69,15.73,15.73,0,0,1-1,1.91l-.71,1c-.13.16-.26.33-.4.49a14.68,14.68,0,0,1-5,3.82.51.51,0,0,0-.75-.08l-.76.66c-.39.34,0,1,.49.84a11.73,11.73,0,0,0,4.15-2.11.5.5,0,0,0,.71.25,13.33,13.33,0,0,0,3.59-3.74.51.51,0,0,0,.62.48.46.46,0,0,0,.68-.16,21.53,21.53,0,0,0,2.16-5.79.59.59,0,0,1,0-.83c0-.28,0-.55,0-.83a.45.45,0,0,0,.46-.48c-.08-1.92-.22-3.81-.15-5.73a.44.44,0,0,0,0-.23l0-.13a.53.53,0,0,0-.51-.48q-.06-3.17,0-6.33a.45.45,0,0,0,.07-.14q.51-1.88.87-3.78a.52.52,0,0,0-.44-.61,123.49,123.49,0,0,0,3-20.41.45.45,0,0,0,0-.07A.5.5,0,0,0,220.28,162.71Z" transform="translate(-122.97 -33.85)"/></g><g id="hands_drawing" data-name="hands drawing"><path class="cls-7" d="M141.79,212.84l0-.06a1.43,1.43,0,0,0,.15-.58,2.37,2.37,0,0,0,2.26.18c1.2-.47.77-1.38.48-2.38-.88-3-1.81-5.95-2.72-8.92-.51-1.68-.77-3.82-2.2-5-1.17-1-2.43-1-3.21-2.43s-.56-3-.58-4.58c-.05-6.27.16-12.55,2.21-18.54.21-.61-.76-.87-1-.27a46.32,46.32,0,0,0-2.22,13.83c-.07,2.37-.09,4.76,0,7.14a5.63,5.63,0,0,0,1.23,3.92,8.29,8.29,0,0,0,1.82,1.11,5.23,5.23,0,0,1,2.4,3.32q1.09,3.57,2.18,7.14c.25.83.67,1.76.91,2.66l-.1,0a.86.86,0,0,0-1,.58.39.39,0,0,0,0,.4.51.51,0,0,0,0,.19l.12.51a.46.46,0,0,0,0,.1,1.91,1.91,0,0,1-1.1-.95,6.16,6.16,0,0,1-1-2,13.66,13.66,0,0,0-1.89-4.32.48.48,0,0,0,.07-.24v-.16s0,0,0,0a.43.43,0,0,0,0-.17.4.4,0,0,0-.06-.09.47.47,0,0,0,0-.07l-.16-.16a.46.46,0,0,0-.25-.13c0-.15,0-.3,0-.46,0-.64-1-.64-1,0,.2,2.64-2,3.87-.78,6.2.2.37.38.75.57,1.13a1.1,1.1,0,0,0-.16.13.5.5,0,0,0,.62.77,6,6,0,0,0,1.82,2.24V213a.5.5,0,0,0,.94.24c1.11.44,2.5.75,3.27,1.6q1.07.48.41,1.76l-1.46-.31c-.8-.25-1.56-.65-2.36-.93a9.23,9.23,0,0,1-4.5-2.64c-1.07-1.23-1.89-2.66-2.95-3.9-.42-.49-1.12.22-.71.71s.64.8.94,1.22l-1.1-.91c-2.06-1.72-2.17-3.57-2-6a34.38,34.38,0,0,0-.76-10.09c-1.83-7.85-2.39-15.82-2.82-23.84,0-.64-1-.64-1,0a144.45,144.45,0,0,0,3,24.89,25.87,25.87,0,0,1,.66,6.75c-.06,1.87-.53,4-.16,5.83.58,2.92,4.58,5,6.67,6.78a.51.51,0,0,0,.24.11c.13.13.27.26.41.37a11.25,11.25,0,0,0,3.8,1.73c1.08.38,5.31,2.62,5.79.3C145.88,214.73,143.54,213.56,141.79,212.84Zm-3.22-3.13a.45.45,0,0,0-.51.17,5.35,5.35,0,0,1-1.19-3c.05-.55.9-1.51,1.07-2.16,0,0,0-.07,0-.1.71,1.07,1.34,3.71,2.39,5.67A15.14,15.14,0,0,0,138.58,209.71Z" transform="translate(-122.97 -33.85)"/><path class="cls-7" d="M220.11,161.37a113.24,113.24,0,0,1-1,11.83c-.49,2.82-1.27,5.55-1.7,8.37a.42.42,0,0,0-.16.38c0,.26,0,.51,0,.76s-.06.47-.08.71a.44.44,0,0,0,0,.25c-.12,1.89-.53,3.68-.76,5.61a30.59,30.59,0,0,0,.25,6.69c.38,3.72.56,10.15-2.54,13.1a28.83,28.83,0,0,0,2-5.09.49.49,0,0,1-.46-.1c-.08-.07-.29-.07-.39-.11l-.11-.06c-.86,2.39-1.53,4.88-3.44,6.68a21.63,21.63,0,0,1-2.95,2.16c-.53.35-1.06.69-1.62,1-.28.16-2.71.94-2.45.64a.48.48,0,0,0,.11-.45,5.65,5.65,0,0,0,1.65-.46,13.58,13.58,0,0,0,6.88-6.88c.42-.94.84-1.9,1.25-2.86a1.74,1.74,0,0,1-.93-.31c-.35.73-.7,1.43-.94,2a12.86,12.86,0,0,1-5.13,6.3,5.65,5.65,0,0,1-1.6.83c-1.06.21-1.14-.29-.63-1.19a9.7,9.7,0,0,1,2.46-2.28c1.75-1.42,1.68-2.7,2.53-4.61a2.77,2.77,0,0,0,.34.23c.57.31,1.07-.56.5-.86a2.3,2.3,0,0,1-1-2.62.5.5,0,0,0,0-.11,5.91,5.91,0,0,0,1-.06c.63-.09.36-1.05-.27-1a3.33,3.33,0,0,1-.74,0s0,0,0,0a1.7,1.7,0,0,1-.92-.74,1.72,1.72,0,0,1-.19-.15,2.42,2.42,0,0,1-.66-1.16.59.59,0,0,1,0-.11s0,0-.07,0a9.08,9.08,0,0,0,.69-2.38c.08-.64-.92-.63-1,0-.19,1.51-1,2.33-1.58,3.6s-.58,2.83-1.38,4.17c-.09.16-.2.29-.31.44s-.39.58-.6.85a5.47,5.47,0,0,1-1.17,1.18.48.48,0,0,0,.13-.24.5.5,0,0,0-.17-1h0a.45.45,0,0,0-.37-.17h-.06a.47.47,0,0,0-.26-.09.46.46,0,0,0-.32-.12h0a.47.47,0,0,0-.45.62.55.55,0,0,0-.08.45.49.49,0,0,0,0,.21.53.53,0,0,0,0,.14.57.57,0,0,0,0,.28c-.39-.63.16-2.16.49-2.86s.54-1.37.75-1.93c.81-2.18,1.29-4.33,1.93-6.54.7-2.44,3.43-4.09,5-6a.53.53,0,0,0-.15-.8,68.41,68.41,0,0,0,.33-12c-.43-4.5-1.72-8.87-2.2-13.36-.07-.63-1.07-.64-1,0,.48,4.5,1.77,8.86,2.2,13.36a72.54,72.54,0,0,1-.38,12.63.43.43,0,0,0,0,.05,46.08,46.08,0,0,0-3.91,3.79,8.31,8.31,0,0,0-1.17,3.5,70.92,70.92,0,0,1-2.28,6.87c-.34,1.05-1.11,2.79-.52,3.89,1.06,2,3.83-.55,4.67-1.58a11.59,11.59,0,0,0,1.84-3.9,17.56,17.56,0,0,1,.69-1.7,4.1,4.1,0,0,0,1.24,1.57,1.91,1.91,0,0,0,.26.13.44.44,0,0,0,0,.06,4,4,0,0,0,.36,2.72c-.92,1.88-1.1,3.54-2.81,4.94-1.14.94-2.66,2.08-3.17,3.55-.33.93-.16,1.42.25,1.64a1.1,1.1,0,0,0,.26,1.7c1.27.81,3.5-.88,4.48-1.49a22.72,22.72,0,0,0,4.16-3.07.48.48,0,0,0,.58.08c3.68-1.92,4.53-7.53,4.5-11.28,0-2.84-.65-5.65-.6-8.5s.88-5.44.89-8.27c.4-3.51,1.49-6.87,2-10.36.53-3.64.62-7.37.87-11C221.15,160.73,220.15,160.73,220.11,161.37Z" transform="translate(-122.97 -33.85)"/></g><g id="facde_colour" data-name="facde colour"><path class="cls-8" d="M177.47,65.58a12.06,12.06,0,0,0-.81-2.36.5.5,0,0,0-.14-.39l-.07-.08c-.38-.82-.78-1.63-1.1-2.47a.48.48,0,0,0,0-.09l0,0,0-.12a.51.51,0,0,0-.09-.16.39.39,0,0,0-.08-.22l-.2-.27a.54.54,0,0,0-.19-.16l-.32-.33a.48.48,0,0,0-.12-.08.44.44,0,0,0-.06-.6l-.41-.39a.53.53,0,0,0,.17-.94l-.09-.05a.55.55,0,0,0-.45-.38,4.32,4.32,0,0,0-1.17.06.47.47,0,0,0-.16.06h0a.5.5,0,0,0,0-.82l.06,0c.48-.17.46-1-.09-1a.52.52,0,0,0-.05-.24.53.53,0,0,0,0-.8.56.56,0,0,0-.14-.21.52.52,0,0,0-.58-.7l-.9.13a.47.47,0,0,0-.48-.45h-.32a.53.53,0,0,0-.05-.63.45.45,0,0,0,0-.07,1.4,1.4,0,0,0-.55-.73.42.42,0,0,0-.33-.27c.12-.3,0-.7-.43-.67H168v0a.53.53,0,0,0-.35-.87,17.63,17.63,0,0,0-8.36,1.63c-.5.23-.16,1,.35.92l-.15,0a.49.49,0,0,0,.15,1l-.95.16c-.55.09-.43,1,.13,1h0l-.21,0c-.44.07-.45.66-.15.89h-.06a.41.41,0,0,0-.34.55l-.21.06c-.51.17-.46,1,.13,1s1.14-.12,1.7-.19a.52.52,0,0,0,.6.41l1-.14a.49.49,0,0,0,.36.85.51.51,0,0,0,.14.41,37.94,37.94,0,0,0-5,1.22.55.55,0,0,0-.26.8l-.27.1a.52.52,0,0,0-.33.57h0c-.41.17-.26.77.09.9-.47,2.37-1.67,4.5-2.12,6.89a.53.53,0,0,0,.55.62,2.27,2.27,0,0,0,.2,1.81.43.43,0,0,0,.23.2c.07.33.13.66.22,1a.47.47,0,0,0,.19.27c0,.14,0,.27,0,.41a.58.58,0,0,0,.32.44,4.11,4.11,0,0,0,0,.48.52.52,0,0,0,.72.44,2.21,2.21,0,0,0,.23.77.42.42,0,0,0,.4.23,3.47,3.47,0,0,0,.29.6.48.48,0,0,0,.79.07.47.47,0,0,0,.48-.48,6.71,6.71,0,0,1,1.81-4.33.59.59,0,0,0,.05.16l-.13.06c-.57.29-.07,1.16.5.86a10,10,0,0,1,2-.77.44.44,0,0,0,.34-.35,19.4,19.4,0,0,1,8.18.53l0,.05c-.1.17-.22.33-.33.5a.52.52,0,0,0-.58.33,13.68,13.68,0,0,1-1.13,2.23c-1.4.8-3.29.82-5.12.85a.51.51,0,0,0-.75-.48l-.07,0a.5.5,0,0,0-.28-.17.55.55,0,0,0-.31-.37,9.47,9.47,0,0,0-.94-1.15,1.36,1.36,0,0,0-.3,0,.55.55,0,0,0-.4-.31l.09-.15a.5.5,0,0,0-.68-.68,3.89,3.89,0,0,0-1.45,1.34.47.47,0,0,0,.08.59.55.55,0,0,0,.14.6.53.53,0,0,0,.51.69.56.56,0,0,0,.31.42.52.52,0,0,0,.72.59.45.45,0,0,0,.68.37,3.81,3.81,0,0,0,.8,1.21l.39.11a.52.52,0,0,0,.39.24l.55.07a.44.44,0,0,0,.23,0l.12,0a.51.51,0,0,0,.43-.13c.45.08.87-.48.47-.84a2.34,2.34,0,0,0-.82-.5,5,5,0,0,0-.57-.15l-.17,0a.48.48,0,0,0,.46-.3c1.78,0,3.71.17,5.37-.58l.11,0a.45.45,0,0,0-.08.43c-.29.18-.58.35-.86.54-.44.3-.18,1.12.39.91l.09,0a.5.5,0,0,0,.35.06c2.61-.48,4.48-1.82,3.61-4.69a.49.49,0,0,0-.44-.34c0-.09-.05-.17-.08-.26a.56.56,0,0,0-.15-.22c0-.13.09-.26.12-.39a.5.5,0,0,0-.15-.48.51.51,0,0,0-.19-.85,20.72,20.72,0,0,0-3.45-.8.51.51,0,0,0-.33.07,20.59,20.59,0,0,0-7,.5,7.16,7.16,0,0,1,1.56-1,.4.4,0,0,0,.46.37l6.44-.82a.44.44,0,0,0,.32.26c.24.06.48.11.71.15a.41.41,0,0,0,.28.15l.13,0h0l.6.07a.38.38,0,0,0,.13.1c.24.11.49.21.74.3v0a4.67,4.67,0,0,0,.42.6.4.4,0,0,0-.06.27l0,.13h0v0a23.68,23.68,0,0,0,.57,3,.53.53,0,0,0,.56.35,1,1,0,0,1-.27.4l-.18.17c-.43.36.14,1.11.61.79l.1-.08h0l.06-.06.17-.17a8.33,8.33,0,0,0,2.59-7.69.45.45,0,0,0-.1-.21c0-.32,0-.64-.09-1a.47.47,0,0,0,.53-.52A.49.49,0,0,0,177.47,65.58Z" transform="translate(-122.97 -33.85)"/><path class="cls-8" d="M178.49,84.1l-.3.07a.55.55,0,0,0-.36,0c-.11-.78-.23-1.55-.31-2.33a.5.5,0,0,0-.23-.37q-.1-1.53-.11-3.07a.5.5,0,0,0-1-.13,8,8,0,0,1-3.55,4,26.19,26.19,0,0,1-3.51,1.3,14.08,14.08,0,0,1-6.8-.33l0-.16c-.09-.49-.67-.44-.89-.1l-.07-.45c-.07-.41-.5-.44-.76-.23a.52.52,0,0,0-.62-.44v-.06a.5.5,0,0,0-.64-.46c0-.1,0-.2,0-.29a.49.49,0,0,0-.63-.46c0-.16,0-.32,0-.48-.06-.63-1.07-.64-1,0,.2,2,.35,4,.44,6-.35-.13-.82.13-.67.57,0,0,0,.08.05.12h0v0a2.59,2.59,0,0,0,.85,1.16.56.56,0,0,0,.12.28,2.57,2.57,0,0,0,.53.44c0,.24.07.47.11.71.11.61,1,.38,1-.19a16.3,16.3,0,0,0,3,.63,18.64,18.64,0,0,0,5.81-.16c.61-.11,1.32-.23,2.09-.39a.47.47,0,0,0,.45.12c2.51-.56,7.79-1.61,7.69-4.93A.51.51,0,0,0,178.49,84.1Z" transform="translate(-122.97 -33.85)"/><path class="cls-9" d="M170.14,72c-.73-.53-2-.18-2.82-.14l-4.13.21c-.64,0-.64,1,0,1h0a7.88,7.88,0,0,0,6.91-.21A.51.51,0,0,0,170.14,72Z" transform="translate(-122.97 -33.85)"/></g><g id="face_drawing" data-name="face drawing"><path class="cls-7" d="M178.78,83.87a.46.46,0,0,0-.25-.2,78.5,78.5,0,0,1-.73-8v0a41.89,41.89,0,0,0,.2-5.78.5.5,0,0,0-1,0c0,3,.12,6.23-1.3,8.9-1.28,2.39-4.58,3.85-7.17,4.3-4.43.77-8.44-1.53-11.06-4.9-.12-.59-.25-1.18-.36-1.77a.4.4,0,0,0-.39-.36c-.06-.29-.12-.57-.17-.86-.09-.52-.73-.43-.92,0a14.12,14.12,0,0,1-.75-1.87c-.19-.61-1.15-.35-1,.27A16.53,16.53,0,0,0,156,77.88l.38,1.32s0,0,0,0a18.13,18.13,0,0,1,.83,6.3h0s0,0,0,0c0,.2,0,.4,0,.59a.45.45,0,0,0,0,.24,14.62,14.62,0,0,0,.29,2.51c.13.63,1.1.36,1-.27a13.27,13.27,0,0,1-.28-3,18.77,18.77,0,0,0-.36-4.57.5.5,0,0,0,.05-.32c0-.15-.06-.31-.09-.46a.48.48,0,0,0,0-.13,12.28,12.28,0,0,0,10.15,4c2.86-.3,6.56-1.81,8.31-4.21a6.66,6.66,0,0,0,.69-1.22c.14,1.83.34,3.65.61,5.46a.39.39,0,0,0,.41.36,2.24,2.24,0,0,1,.09,1.88c-.23.6.73.86,1,.27A3.19,3.19,0,0,0,178.78,83.87Z" transform="translate(-122.97 -33.85)"/><path class="cls-10" d="M133.77,67.8" transform="translate(-122.97 -33.85)"/><path class="cls-10" d="M133.77,67.8" transform="translate(-122.97 -33.85)"/><path class="cls-7" d="M169.42,66.77a2.19,2.19,0,0,0-1,0l-.1,0h0c.06-.64-.94-.64-1,0s-.83.64-1.22.66A1.29,1.29,0,0,1,165,67a.42.42,0,0,0-.09-.07.47.47,0,0,0,0-.11.44.44,0,0,0-.44-.31h0a.47.47,0,0,0-.48.47,2.36,2.36,0,0,0-1.14.1c-.6.22-.34,1.19.27,1a1.44,1.44,0,0,1,.81-.09.5.5,0,0,0,.51-.2,2.56,2.56,0,0,0,3.75-.38.5.5,0,0,0,.56.29,1,1,0,0,1,.48,0A.5.5,0,0,0,169.42,66.77Z" transform="translate(-122.97 -33.85)"/><path class="cls-7" d="M172.71,71.31c-3.79-1.5-7.71-1.09-11.55.06a.53.53,0,0,0-.31.23c-.36.1-.62.51-.27.82l.05,0,.05,0a.61.61,0,0,0,.49.14.4.4,0,0,0,.24.56l.18.08c2.16,3.7,8.78,3.15,10.22-.74a.4.4,0,0,0,0-.26l.52,0a.45.45,0,0,0,.51-.3A.4.4,0,0,0,172.71,71.31Zm-2.79.86a3,3,0,0,1-.13.5c-1.32,1-3.71,1-5.29.73-.8-.29-1.55-.62-2.13-.88A46.3,46.3,0,0,1,169.92,72.17Z" transform="translate(-122.97 -33.85)"/><path class="cls-7" d="M170.73,86.15a4,4,0,0,1-4,.6c-.6-.23-.86.74-.27,1a4.91,4.91,0,0,0,4.74-.7C171.73,86.63,171.24,85.76,170.73,86.15Z" transform="translate(-122.97 -33.85)"/></g><g id="beard"><path class="cls-11" d="M177.92,65.88a.49.49,0,0,0-.23-.38c-.23-.42-1-.36-.94.21.29,3.44.28,7.42-2.63,9.65-.18-2.67-.13-5.27-3-6.35a7.52,7.52,0,0,0-3.72-.56,5.44,5.44,0,0,0-.74.3c-.53.2-.39.26-1,.07l-.09,0a1.16,1.16,0,0,0-.89-.24,13.43,13.43,0,0,0-3.86,1.31c-2,.92-2.32,3.37-2.61,5.43A8.11,8.11,0,0,1,155,70.69c-.07-.3-.14-.6-.19-.91l0-.12c-.07-.48-.12-1-.15-1.45a.49.49,0,0,0-.37-.46.51.51,0,0,0-.85.36c0,.14,0,.28,0,.43a.43.43,0,0,0-.11.33,19.77,19.77,0,0,0,.55,3.6.44.44,0,0,0-.13.47c1.55,5.23,6.07,11.12,11.95,11.52,5.39.37,11.34-2.78,12-8.33A35.89,35.89,0,0,0,177.92,65.88ZM171.76,76.5a5,5,0,0,1-2.34.79,9,9,0,0,0,1.48-1,.44.44,0,0,0-.08-.73.53.53,0,0,0-.6-.41,10.11,10.11,0,0,0-1.93.49.53.53,0,0,0-.19.11,12.23,12.23,0,0,1-4.71-.07.54.54,0,0,0-.62.54.47.47,0,0,0,.17.67l0,0a.41.41,0,0,0,.06.1,2.56,2.56,0,0,0,1.53.61c-1.07.77-2.67-.32-3.16-1.29a4.55,4.55,0,0,0-1.59-1.81,4.16,4.16,0,0,1,1-2.68,37.22,37.22,0,0,1,4.34-1.69l.4-.05c.05,0,.08,0,.13-.06a1,1,0,0,0,.74.1,1.8,1.8,0,0,0,.41-.17h0c1.39.26,3.81.48,4.82,1.52a5.73,5.73,0,0,1,1,3.19A2.16,2.16,0,0,1,171.76,76.5Z" transform="translate(-122.97 -33.85)"/><path class="cls-11" d="M172.95,56.08h-.19a.51.51,0,0,0-.33-.87h-.15a.41.41,0,0,0-.37-.15,30.31,30.31,0,0,0-3.16.43.43.43,0,0,0-.25.14s-.06,0-.09,0c-.66.45-2,2.08-.61,2.55.64.22,1.44-.34,2-.56a8.43,8.43,0,0,1,3.13-.59A.5.5,0,0,0,172.95,56.08Z" transform="translate(-122.97 -33.85)"/><path class="cls-11" d="M162.42,56.65a.39.39,0,0,0-.46,0,5.14,5.14,0,0,0-2.46-.67,3.91,3.91,0,0,0-2.93,1,.47.47,0,0,0,.2.8l-.07,0a.42.42,0,0,0-.13.69.51.51,0,0,0,.74.5,7.37,7.37,0,0,1,4.63-.51.51.51,0,0,0,.46-.16.41.41,0,0,0,.37-.24A1,1,0,0,0,162.42,56.65Z" transform="translate(-122.97 -33.85)"/></g><g id="sweater_colour" data-name="sweater colour"><path class="cls-12" d="M219.72,151.6c0-.13.06-.26.1-.4a.9.9,0,0,0,.41-.3,4.46,4.46,0,0,0,1.28-2.71,3.88,3.88,0,0,0-1.28-2.61,1,1,0,0,0-.24-.17,50.7,50.7,0,0,0-2.52-11.09.92.92,0,0,0,.48-1.09l-.75-2.84a.9.9,0,0,0-.43-.57.94.94,0,0,0,.2-.85,22.77,22.77,0,0,0-1.07-3.71,9,9,0,0,1-1-3.75.91.91,0,0,0,0-.13,1,1,0,0,0,0-.25,48.31,48.31,0,0,0-1.86-8.72.82.82,0,0,0,.23-.71,31.52,31.52,0,0,0-1.93-8.85c-.89-2.18-1.52-5.17-3.92-6.09a.93.93,0,0,0-.32-.05A7,7,0,0,0,205,95L205,95a41.2,41.2,0,0,0-5.53-3.44,53.44,53.44,0,0,0-12.33-4.86,1,1,0,0,0-.43,0,7.4,7.4,0,0,1-.91-.33,6.93,6.93,0,0,0-1.67-.69,1,1,0,0,0-.57.08,3.85,3.85,0,0,0-1.76-2.18c-1.1-.68-2.1,1-1,1.73a2.78,2.78,0,0,1,.5.4.93.93,0,0,0-.17.4c-1,6.06-8.3,8.83-14.1,10.34a18.26,18.26,0,0,1-4.89-.91,15.23,15.23,0,0,1-4.45-2.42,5.47,5.47,0,0,0-1.55-1.63,5.46,5.46,0,0,1-.46-.77,2.06,2.06,0,0,0-.39-1.49,3.91,3.91,0,0,1,.06-1.08c.25-1.26-1.67-1.79-1.93-.53,0,.16,0,.31-.07.46a2.52,2.52,0,0,0-1.48.23l-1.87.93a2.41,2.41,0,0,0-.86.69l-1.52.75q-2.34,1.18-4.64,2.43c-3.07,1.67-6.07,3.46-9,5.32a2.34,2.34,0,0,0-1.13,2.4c-3,4.25-4.89,10.06-3.68,15.23-.21,1.72-.34,3.44-.45,5.15a2.46,2.46,0,0,0-.49,2.22,14.85,14.85,0,0,0-.68,3.25,2.35,2.35,0,0,0-.39.77,23.34,23.34,0,0,0-.93,5.77,40.9,40.9,0,0,0-.78,4.75c-.29,3.35-.86,6.67-1.19,10-.23,2.36-.95,7.27.18,10.36a2.27,2.27,0,0,0-.3,2c0,.14.1.26.16.38-.1.22-.2.45-.29.68a8.21,8.21,0,0,0-.31,1.94,27,27,0,0,1-.28,4.37,2.53,2.53,0,0,0,3.08,3.08,12.2,12.2,0,0,1,6-.57,9.24,9.24,0,0,0,4.41,0c2.7-.85,2.84-3.92,2.76-6.63a7.79,7.79,0,0,0,.27-1.17.47.47,0,0,1-.19-.38c0-1.57-1.21-4.25.36-5.41a.4.4,0,0,1,.19-.07.53.53,0,0,1-.31-.56,14.45,14.45,0,0,1,.27-2.08.46.46,0,0,1,.27-.31c.15-2.21.3-4.42.5-6.63,0,0,0-.06,0-.09a61.37,61.37,0,0,1,1.91-6.57,51.07,51.07,0,0,1,.17,5.11c-.14,4.84-.56,9.77-.36,14.62a2.46,2.46,0,0,0-1.36,2.06c-.4,4.92-2.28,9.46-1.39,14.45a34.21,34.21,0,0,1,.87,8.33c-.1,1.88-.49,3.87-.1,5.73a2.48,2.48,0,0,0,1.75,1.75,16.8,16.8,0,0,0,7.57.54,8,8,0,0,0,1.2.14c2.65.09,5.32.12,8,.06a260.17,260.17,0,0,0,30.8-2,1,1,0,0,0,1,.1c.31-.14.63-.25.95-.36a1,1,0,0,0,1.48-.24c.55-.82,5.49-.51,6.84-.82,1-.23,1.69-.34,2.07-1.27.51-1.26-1.15-4.45-1.49-5.65-.14-.5-.27-1-.39-1.49a4.2,4.2,0,0,0-.41-1.76c-.11-.52-.21-1-.31-1.56-.07-1,0-2-.2-3a1,1,0,0,0,.4-.7l.15-1.32v0a5.11,5.11,0,0,1,.18-.94,1,1,0,0,0,0-.44.93.93,0,0,0,.28-.65,27.05,27.05,0,0,0-.07-3.45,1,1,0,0,0-.06-.23c.06-.94,0-1.91,0-2.86a68.14,68.14,0,0,0-.66-7.83.85.85,0,0,0,0-.09c.85-5-.35-10.49-.18-15.58a61.53,61.53,0,0,0-.35-8c-.1-1.1-.09-2.15-.1-3.24,0-.19,0-.35,0-.49.44,1.6,1,3.2,1.53,4.82h0a8.27,8.27,0,0,0,.38,5.91,4.36,4.36,0,0,0,1.55,1.91,2.48,2.48,0,0,0,.34.18l0,.05a.92.92,0,0,0-.17.56,4.45,4.45,0,0,0-.13,2.11c.2.92,1.07,1.09,1.95,1.08a7.18,7.18,0,0,0,1.34,4,1.14,1.14,0,0,0,.11.11c0,.13,0,.25,0,.38a6.18,6.18,0,0,0,.8,3.93c-.56,1.93,0,4.28-.29,6.25a1,1,0,0,0,1,1c2.15-.09,4.16-.79,6.35-.75,1.69,0,4.11.67,5.71,0,2.62-1.14,1.63-6.17,1.13-8.28A1,1,0,0,0,219.72,151.6Z" transform="translate(-122.97 -33.85)"/><path class="cls-13" d="M199.21,116.81a1,1,0,0,0,0-.73.56.56,0,0,0,0-.83.46.46,0,0,0-.45-.35c-18.83-.41-37.76-1.35-56.57,0a.48.48,0,0,0-.34,0,5.92,5.92,0,0,1-2,.09c-.57-.07-.62.72-.17.94a.49.49,0,0,0,0,.1c0,.13.08.24.12.36a.5.5,0,0,0,.06.19,5.12,5.12,0,0,0,.46.93.46.46,0,0,0,.38.52l.1.13a.46.46,0,0,0,.77-.13c11.44-.31,22.89-.61,34.34-.55,5.77,0,11.54.16,17.3.42a17.2,17.2,0,0,0,4.74-.23l1,.1C199.53,117.78,199.6,117.05,199.21,116.81Z" transform="translate(-122.97 -33.85)"/><path class="cls-13" d="M180,85.89a2.37,2.37,0,0,0-.37-1.9v0a.49.49,0,0,0,.22-.46.4.4,0,0,0-.35-.51L179,82.9a.54.54,0,0,0-.62.61.52.52,0,0,0,.1.53c3.24,3.76-8.86,5.32-10.38,5.49-2.64.3-11,.64-10.8-3.78a.49.49,0,0,0-.43-.73.43.43,0,0,0-.36.19.55.55,0,0,0-.4.45.36.36,0,0,0-.21.29s0,.09,0,.13h0v.05c0,.07,0,.14,0,.21a.51.51,0,0,0-.15.2,7.16,7.16,0,0,0,.19,4,6.21,6.21,0,0,0,2.51,2.92.38.38,0,0,0,.48,0,10.94,10.94,0,0,0,7.14,2.32,19.18,19.18,0,0,0,9.37-3.25c2.4-1.49,4.7-3.25,4.74-6.3A.45.45,0,0,0,180,85.89Z" transform="translate(-122.97 -33.85)"/></g><g id="sweater_drawing" data-name="sweater drawing"><path class="cls-14" d="M222,157.88a24.1,24.1,0,0,0-1-7.1.48.48,0,0,0,.19-.25c.39-1.13,1-2.26.74-3.47-.11-.46-.56-.73-.74-1.27a5.64,5.64,0,0,1-.07-1.93c-.07-2.36-1.25-4.11-1.73-6.26-.52-2.33-1-4.78-1.43-7.11-.09-.56-.08-1.57-.25-2.2s-.74-1.36-1-2.14a30.84,30.84,0,0,0-1.38-4.54,3.94,3.94,0,0,0,.16-.51c.5-2.21-.73-4.44-1.23-6.55-1.2-5.14-1-10.68-3.91-15.28-2.53-4-6.55-6.62-10.74-8.57a122.58,122.58,0,0,0-15.71-5.79h-.12c-.57-1.1-1.82-1.33-3.18-1.91a.55.55,0,0,0-.76.53.52.52,0,0,0-.2.66c2.77,5.92-8,10.71-12.29,11.16-5.24.55-12.94-2.51-11.18-9h0a4.65,4.65,0,0,1,.13-1.1.48.48,0,0,0-.28,0l-.35.18a.46.46,0,0,0-.3.16q-4.91,2.53-9.76,5.16c-2.51,1.36-5.8,2.61-8,4.57h0c-3.2,1.72-5.56,4.84-7.28,8-2,3.67-2.15,7.81-2.21,11.9,0,1.1,0,2.16,0,3.2a.51.51,0,0,0-.4.45c-.45,4.37-1.07,8.71-1.9,13a8.41,8.41,0,0,0-.38,3c0,.06,0,.12.06.18a.38.38,0,0,0-.2.41c.2,1.78-1,3.21-1,4.95a.5.5,0,0,0,0,.53c0,1.3-.29,2.55-.3,3.83a49.56,49.56,0,0,1-.91,5.58c-.13,1,.17,1.19.11,2.12,0,0,0,.08,0,.12a11.06,11.06,0,0,0,.16,1.16,16.55,16.55,0,0,1,.41,1.94,2.9,2.9,0,0,1,0,.51c.1-.07.12.13-.14,1.43,0,.23-.34.48-.33.74a1.51,1.51,0,0,0,.84,1.32c-.72.2-.82.77-.93,1.85a34.69,34.69,0,0,0,.29,8.6.39.39,0,0,0,.37.36.38.38,0,0,0,.41.21,53.16,53.16,0,0,1,9.07-.32c1.57.09,4.35,1.06,5.55-.41,1.06-1.31.88-4.31.92-5.83,0-1,.42-3-.32-4a.49.49,0,0,0,0-.14v-.83a.44.44,0,0,0,.08-.28,5,5,0,0,1,0-1.84c.1-.22.51-.29.62-.51a2.92,2.92,0,0,0,.59-1.42c0-.62-.43-.94-.44-1.47a2,2,0,0,1,.18-.78.54.54,0,0,0,.32-.76c0-.08.07-.16.09-.24a19.07,19.07,0,0,0,.24-2.11c.2-1.08.88-1.88,1.08-2.92s0-2.25.25-3.36c0-.12.06-.24.09-.36L142,153a.52.52,0,0,0-.5.47,109.37,109.37,0,0,1-1.88,14.7c-1,4.31-.4,7.78,1,11.75a.49.49,0,0,0-.1.26,93.56,93.56,0,0,0-.67,9.76c.06,2.11.32,2.45,2,2.76a.5.5,0,0,0,.38.25A175.13,175.13,0,0,0,166,194a.57.57,0,0,0,.34,0,176,176,0,0,0,29.27-3.19.56.56,0,0,0,.26-.05l1.05-.21a.32.32,0,0,0,.14.11,6.79,6.79,0,0,1,.67-.19.44.44,0,0,0,.06-.09c1.68-.34,3.36-.7,5-1.1l.13,0a.46.46,0,0,0,.27-.09.41.41,0,0,0,.37-.57.56.56,0,0,0-.1-.26c-1.46-3.64-1.9-7.57-2.73-11.37.07-3.54.81-7,.62-10.57s-.54-7.37-1-11a68.82,68.82,0,0,1-.12-10.31c0-1.76,0-3.53,0-5.29a3,3,0,0,0,.45,1c.32.46,1.25.89,1.45,1.35.37.84-.28,1.23-.17,2a4.06,4.06,0,0,0,1.35,2.29c.94,1.09.84,2,1.22,3.31.32,1.13.88,1.27,1.86,1.68l0,0a.47.47,0,0,0-.22.39,77.56,77.56,0,0,0,.13,9.64.51.51,0,0,0,.63.48,36.88,36.88,0,0,1,8.4-.78c1.59,0,3.25.48,4.81.46.43,0,.71.11,1.1-.12C222.24,160.93,222,158.94,222,157.88Zm-39.47-73a1.77,1.77,0,0,1,.49.85,5.06,5.06,0,0,0-1.49-.52.5.5,0,0,0-.5.2,5.55,5.55,0,0,0-.35-1.37A6.62,6.62,0,0,1,182.51,84.91Zm.55,2.06c0,.16,0,.32-.06.48a16.22,16.22,0,0,0-2-.67h0a5.18,5.18,0,0,0,0-.65.47.47,0,0,0,.2.08A4.4,4.4,0,0,1,183.06,87Zm-2.29.77h0a15.29,15.29,0,0,1,2,.68q-.11.35-.25.69l-1.69-.78a.5.5,0,0,0-.27,0C180.64,88.11,180.71,87.93,180.77,87.74Zm-.61,1.34a.48.48,0,0,0,.16.12l1.76.81a9.09,9.09,0,0,1-.61.93,19.73,19.73,0,0,0-1.68-1.08l-.12,0A8.45,8.45,0,0,0,180.16,89.08Zm-1.06,1.44a.46.46,0,0,0,.19.2c.53.3,1,.64,1.54,1-.2.22-.4.43-.62.64a.48.48,0,0,0-.1-.09,3.61,3.61,0,0,1-1.19-1,.5.5,0,0,0-.31-.2C178.78,90.88,178.94,90.7,179.1,90.52ZM178,91.62a.46.46,0,0,0,.06.13A4.79,4.79,0,0,0,179.44,93c-.26.22-.51.43-.79.64a15.45,15.45,0,0,1-1.17-1.23.42.42,0,0,0-.29-.16C177.47,92.06,177.74,91.84,178,91.62Zm-1.3,1a.49.49,0,0,0,.09.5c.33.39.69.75,1,1.1-.26.17-.5.36-.77.52L176,93.42a.44.44,0,0,0-.21-.14C176.07,93.07,176.39,92.86,176.7,92.64Zm-1.54,1a.5.5,0,0,0,.09.5l1,1.16c-.41.23-.82.45-1.24.66a9.28,9.28,0,0,1-.94-1.63l0-.05C174.39,94.06,174.78,93.84,175.16,93.62Zm-2,1a.52.52,0,0,0,0,.15,9.28,9.28,0,0,0,.88,1.55c-.43.19-.86.39-1.3.55a.49.49,0,0,0,0-.14,5.4,5.4,0,0,1-.57-1.47.49.49,0,0,0-.08-.18C172.42,95,172.78,94.83,173.14,94.66Zm-2,.79a.49.49,0,0,0,0,.11,6.32,6.32,0,0,0,.65,1.67c-.47.15-.95.29-1.42.41l-.13,0a8.62,8.62,0,0,1-.39-1.61.46.46,0,0,0-.06-.17C170.25,95.77,170.71,95.62,171.17,95.46Zm-2.25.65a.54.54,0,0,0,0,.21,8.62,8.62,0,0,0,.37,1.55c-.41.07-.83.13-1.25.17a.45.45,0,0,0,0-.13,3,3,0,0,1-.24-1.38.49.49,0,0,0,0-.21C168.11,96.28,168.51,96.2,168.92,96.11Zm-2.12.29a.5.5,0,0,0,0,.13,3.68,3.68,0,0,0,.26,1.58c-.49,0-1,0-1.47,0l-.24-1.74A12.8,12.8,0,0,0,166.8,96.4ZM163,96c.45.1.9.18,1.36.24a.52.52,0,0,0,0,.25l.21,1.55a16.13,16.13,0,0,1-1.68-.24,11,11,0,0,1,.14-1.73A.49.49,0,0,0,163,96Zm-1.81-.53c.29.11.58.18.88.27a.43.43,0,0,0,0,.07,13,13,0,0,0-.17,1.77c-.35-.1-.69-.2-1-.32A16.41,16.41,0,0,1,161.19,95.51Zm-2.27.94.65-1.66c.23.12.47.23.71.34a.47.47,0,0,0-.05.11c-.14.56-.24,1.12-.33,1.68-.28-.13-.57-.24-.85-.39l-.13-.08Zm-.9-2.63c.22.17.45.31.69.46a.49.49,0,0,0,0,.07l-.61,1.56a8.6,8.6,0,0,1-.93-.77l.07-.07Zm-1.52-1.41a8.4,8.4,0,0,0,.75.77l-.81,1.23a9.37,9.37,0,0,1-.64-.87,7.57,7.57,0,0,1,.59-.8A.49.49,0,0,0,156.51,92.41Zm-1-1.69a6.85,6.85,0,0,0,.65,1.16.4.4,0,0,0-.43.14c-.15.18-.28.38-.42.57a11.86,11.86,0,0,1-.52-1.16l.08-.06Zm-.46-1-.61.62c-.13-.44-.24-.89-.33-1.35a.45.45,0,0,0,.12-.06l.75-.57a6.51,6.51,0,0,0,.19,1.28A.48.48,0,0,0,155,89.76Zm0-2.82c0,.07,0,.13,0,.19a.45.45,0,0,0-.11.05l-1,.77c0-.13,0-.26-.06-.39Zm-30.67,82.84A33.92,33.92,0,0,1,124,164a6.45,6.45,0,0,1,.15-2.35,2,2,0,0,1,.35-.45q.15,4.26.48,8.5a.47.47,0,0,0,0,0Zm1.59-.15q-.34-4.45-.49-8.9a4.12,4.12,0,0,1,.79,0l.64,8.81Zm2.39-.15-.46,0-.62-8.64.87.06a7.91,7.91,0,0,0,0,2.07c0,2.07.11,4.15.22,6.22a.51.51,0,0,0,0,.26Zm1,0c-.07-1.36-.14-2.72-.18-4.07a38.44,38.44,0,0,0-.27-4.16.5.5,0,0,0,.25-.22l.8,0q0,4.21.16,8.42Zm1.77,0q-.18-4.19-.16-8.37h.79q-.07,4.2.23,8.38Zm1.87,0h0q-.3-4.21-.23-8.43l.85-.09q.13,4.28.1,8.57Zm2.31.14-.59,0q0-4.33-.1-8.66a.47.47,0,0,0,0-.09l1-.09C135.25,163.65,135.36,166.68,135.31,169.61Zm1.74-.17a2.9,2.9,0,0,1-.74.17c.06-2.94-.06-6,.25-8.9h.27a3,3,0,0,1,.53.09Zm1.68-4.73c0,.77,0,3.19-.37,3.68a3.41,3.41,0,0,1-.28.32l.26-7.31C138.94,162.19,138.78,163.49,138.73,164.71Zm3.06,17-.33,9.95c-.44-.14-.53-.49-.57-1.7a27.24,27.24,0,0,1,.15-3q.21-2.72.42-5.44l.35.11A.47.47,0,0,0,141.79,181.68ZM143.33,192l-.17,0a.41.41,0,0,0-.29-.18l-.42-.06.33-9.87.73.19a.54.54,0,0,0,0,.06A96,96,0,0,0,143.33,192Zm1,.1a95.92,95.92,0,0,1,.16-9.77l.64.14q-.17,4.85,0,9.7Zm1.83.17a.46.46,0,0,0,0-.07q-.21-4.75,0-9.5l.81.14.21,9.52Zm2.88.22-.89-.06-.21-9.43c.4.06.79.1,1.19.16A79.73,79.73,0,0,0,149,192.53Zm1,.07a79.75,79.75,0,0,1,.08-9.27l1,.09h0a74.91,74.91,0,0,0,.27,9.26Zm2.36.14a74.4,74.4,0,0,1-.28-9.23l.66,0q0,4.62.44,9.23Zm1.83.09q-.39-4.6-.44-9.21l1,0q.07,4.62.59,9.21Zm2.14.06q-.52-4.59-.59-9.2h.86q.19,4.61.62,9.21Zm3,0h-1.07q-.43-4.6-.62-9.22h1.18q.25,4.55.56,9.09A.52.52,0,0,0,159.33,192.92Zm1.07,0q-.32-4.63-.57-9.26l1.07,0a49.86,49.86,0,0,0,.5,9.29Zm2,0a48.64,48.64,0,0,1-.5-9.31l1,0a79.86,79.86,0,0,0,.63,9.34Zm2.11,0a79.86,79.86,0,0,1-.63-9.37l.94-.05a93.28,93.28,0,0,0,.66,9.4Zm2,0a93.25,93.25,0,0,1-.66-9.44l1.4-.08a41.25,41.25,0,0,0,.35,9.48Zm2.09-.07a40.19,40.19,0,0,1-.34-9.5l.87-.05a54.42,54.42,0,0,0,1.14,9.48Zm2.67-.12a53.05,53.05,0,0,1-1.15-9.49l.42,0,1-.07q.45,4.77,1.12,9.5Zm2.36-.14q-.67-4.75-1.12-9.52l1.42-.11q.08,4.79.39,9.57Zm1.69-.12q-.3-4.78-.38-9.58l.83-.07q.24,4.78.6,9.56Zm2-.16q-.36-4.78-.6-9.56l.51,0a75.54,75.54,0,0,0,1.12,9.51Zm2-.18a73.64,73.64,0,0,1-1.12-9.5l1.05-.09q.52,4.75,1.13,9.48Zm2-.22q-.6-4.73-1.12-9.46l1-.09c-.25,1.19.24,3,.34,4.13l.48,5.34Zm1.68-.2-.4-4.49-.2-2.22a11.38,11.38,0,0,1-.22-2.39v0l0,0a.64.64,0,0,0,.05-.29l.9-.1a7.55,7.55,0,0,0,.35,2.44q.54,3.46,1.12,6.91Zm2.62-.33q-.37-2.25-.74-4.5c-.05-.33-.82-4.46-.8-4.47a.42.42,0,0,0,.24-.38l.8-.09q.52,4.69,1.38,9.32Zm1.86-.26q-.86-4.63-1.38-9.3l.85-.11q.49,4.67,1.32,9.29Zm1.78-.26q-.83-4.61-1.32-9.27l1-.13q.48,4.65,1.23,9.26Zm1.84-.29q-.75-4.6-1.22-9.24l.64-.09,1.27,9.22Zm1.66-.27-1.27-9.2.92-.15q.52,4.61,1.13,9.21Zm1.77-.32q-.61-4.58-1.13-9.18h0l.75-.13c.17,3.09.48,6.16.9,9.22Zm1.49-.28q-.62-4.54-.88-9.11a.48.48,0,0,0,0-.09l.62-.11a68.62,68.62,0,0,0,.86,9.2Zm1.55-.3a67,67,0,0,1-.84-9.19l.31-.06q.44,4.58,1.24,9.11Zm1.69-.34q-.81-4.53-1.24-9.11l.49-.1a.5.5,0,0,0,0,.1q.72,4.48,1.71,8.9Zm3-.65-1.08.23q-1-4.45-1.72-9v0l.55-.11,0,.15A45.88,45.88,0,0,0,202.36,188.33Zm4.83-27.4a77.54,77.54,0,0,1-.11-8.73l.39-.06q-.13,4.37.11,8.73Zm1.39-.22q-.24-4.36-.11-8.73l.63-.08.61,8.66Zm2.13-.28-.61-8.66.93-.1q.49,4.33.8,8.67Zm2.11-.16q-.31-4.37-.8-8.72l.94-.08,1.08,8.77C213.62,160.26,213.21,160.25,212.81,160.28Zm2.21,0-1.09-8.83,1.11,0a.45.45,0,0,0,0,.12q.42,4.41,1,8.79Zm2.49.12-.44,0q-.61-4.41-1-8.85a.51.51,0,0,0,0-.16l1.36,0q.19,4.56.49,9.11Zm1.93.23a2.52,2.52,0,0,1-.6,0q-.3-4.64-.5-9.28l.94,0c.08,1.52.18,3,.29,4.56q.09,1.16.19,2.31.05.58.1,1.15a1.23,1.23,0,0,0,.28,1A2.25,2.25,0,0,1,219.44,160.57Zm.73-10.27a59.4,59.4,0,0,0-12.8.84.39.39,0,0,0-.25-.45,2.53,2.53,0,0,1-1.08-.83l3.15-.48c.63-.1.36-1.06-.27-1l-3.31.5a8.12,8.12,0,0,0-.75-2.36,4,4,0,0,0-.23-.34l5-.27c.64,0,.64-1,0-1l-5.52.29a.48.48,0,0,0-.36.17c-.34-.3-.54-.69-.55-2.29a3.07,3.07,0,0,1,0-.38.49.49,0,0,0,.19,0c2-.11,4.12.43,5.79-1,.49-.42-.22-1.13-.71-.71-1.38,1.2-3.43.63-5.08.72a.48.48,0,0,0-.29.12c-.23-.44-.8-.65-1.1-1-.88-1.09-.48-2.19-.63-3.27-.11-.74,0-1.74-.14-2.49a13.51,13.51,0,0,0,3.41.94c.63.08.9-.88.27-1a12.86,12.86,0,0,1-3.82-1.11.5.5,0,0,0-.26,0l-.12-.24a4.23,4.23,0,0,1,.22-4.07c.38-.51,1-.91,1.37-1.42s-.3-1.21-.71-.71c-.71.89-1.51,1.59-2.09,2.31-1.18-4.46-.18-10,.29-14.48a131.22,131.22,0,0,1,2.68-15.82c.14-.63-.82-.89-1-.27a133.44,133.44,0,0,0-2.71,16.08c-.5,4.81-1.57,10.64-.09,15.33a.47.47,0,0,0,.16.23,3,3,0,0,0,.22,2.35.42.42,0,0,0-.22.41c.18,3.81.36,7.62.28,11.43a68.71,68.71,0,0,0,.12,10.31c.46,3.66.81,7.34,1,11a50,50,0,0,1-.43,7.44c-.22-.71-.48-1.42-.77-2.11-1-2.36-3.19-4.21-4.74-6.23-1.9-2.48-4-5.18-4.89-8.21a.5.5,0,0,0-1,.27c1.45,4.88,5.34,8.72,8.44,12.6,1.55,1.94,2.24,4.63,2.73,7.19,0,.17,0,.34,0,.5a.47.47,0,0,0,.17.36l0,.24c-9.67,2.16-19.54,2.95-29.4,3.64-9.52.67-19.3,1.46-28.53-1.51-1-2.49-2-5.11-2.06-7.82,0-2.41.81-4.68,1.25-7,.34-1.85.56-3.72.74-5.6a21.3,21.3,0,0,0,2.07,5.36,39.27,39.27,0,0,1,3.43,10.26c.12.63,1.08.36,1-.27a38.42,38.42,0,0,0-2.4-8.09c-1.26-2.93-3.18-5.65-3.26-8.95a.5.5,0,0,0,0-.16l1.43-24.56c.18-3.16,1.1-7.18,0-10.24a21.21,21.21,0,0,0-2.36-3.81,20.3,20.3,0,0,1-2.55-6.37.44.44,0,0,0-.16-.25,40.9,40.9,0,0,0-3.77-9.78c-.31-.57-1.17-.06-.86.5a39.9,39.9,0,0,1,3.76,9.87.45.45,0,0,0,.15.24c.8,3.22,2.34,5.61,4.06,8.44,2.09,3.44.9,8.51.68,12.37l-.24,4.11a.46.46,0,0,0-.17.25c-.41,1.49-.88,3-1.24,4.5a4.71,4.71,0,0,0-2.54-.7.5.5,0,0,0,0,1,3.75,3.75,0,0,1,2.14.63.49.49,0,0,0,.18.07c-.08.39-.16.78-.21,1.17a22.82,22.82,0,0,1-.47,2.53,1.76,1.76,0,0,1-.08.21,11.58,11.58,0,0,1-6.45-.38c-.61-.21-.87.75-.27,1a12.53,12.53,0,0,0,6.41.49c-.14.81-.16,1.51-.36,2.23l-5.14-1c-.63-.12-.9.84-.27,1l5,1a5.06,5.06,0,0,1-.34.56.5.5,0,0,0,.08.61c-.08-.08-.16.14-.23.52l-4.2-.54c-.64-.08-.63.92,0,1l4.07.52c0,.46-.09,1-.13,1.45a23.42,23.42,0,0,0-4.37-.14c-.64,0-.64,1,0,1a22.39,22.39,0,0,1,4.31.13c0,.5,0,.9,0,1a.46.46,0,0,0-.08.27v.46c-1.47-.36-3.75.32-5,.39-2.76.15-5.48-.33-8.22-.35a.4.4,0,0,0-.22-.55c-.78-.35,0-1.69.09-2.45a.46.46,0,0,0,.21,0l5-.62c.63-.08.64-1.08,0-1l-5,.62a.53.53,0,0,0-.46.45c-.11-.07-.22-.14-.25-.23a5.74,5.74,0,0,1-.19-1.12c0-.15,0-.54,0-.76a3.48,3.48,0,0,0-.43-.48.88.88,0,0,1,.29-.88,12.79,12.79,0,0,1-.11-1.73,4,4,0,0,1,.23-.94.42.42,0,0,0,.36.39,36.53,36.53,0,0,0,7.79.75.5.5,0,0,0,0-1,35.26,35.26,0,0,1-7.52-.72.49.49,0,0,0-.5.18,4.16,4.16,0,0,0,.26-1.12,37.53,37.53,0,0,0,.14-3.93c0-1.3.31-1,.39-1.9a5.41,5.41,0,0,0,0-1,20.21,20.21,0,0,0,8.35,2.4c.64,0,.64-1,0-1a19.05,19.05,0,0,1-8.41-2.59s0,0,0-.07c.08-1.41.86-2.55,1.06-3.88.11.17.22.35.31.52a23.54,23.54,0,0,1,1.5,3.52c.21.61,1.17.35,1-.27a25.13,25.13,0,0,0-1.6-3.76,5.47,5.47,0,0,1-.85-3.45,31.66,31.66,0,0,1,.61-3.27c.46-2.61.82-5.23,1.14-7.86a24.62,24.62,0,0,0,1.46,6.09c.8,2.1,1.62,4.19,2.44,6.28a10.09,10.09,0,0,0,2.23,4c.47.44,1.18-.26.71-.71-1.47-1.39-2-3.49-2.67-5.33-.63-1.63-1.27-3.26-1.9-4.89-1.41-3.71-1.53-7.28-1.51-11.21s0-8,1.68-11.57a19.54,19.54,0,0,1,6.48-7.88.43.43,0,0,0,.47-.12c1.2-1.28,3-2,4.52-2.85S145.4,92,147,91.18c2-1.06,3.94-2.09,5.92-3.12.54,3.71,1.93,7.25,5.34,9.17a17.33,17.33,0,0,0,13.25,1.16c3.94-1.15,8.27-3.48,10.78-6.81A8.15,8.15,0,0,0,184.08,86a131.67,131.67,0,0,1,13.86,5c4.44,2,8.85,4.55,11.53,8.73s2.66,9.1,3.55,13.77c.51,2.68,2.27,5.82,1,8.49-.93,2-2,3.21-2.33,5.47-.09.63.88.9,1,.27a10.35,10.35,0,0,1,1.67-4.38l.41-.64c.58,1.49.82,3,1.29,4.56a17.41,17.41,0,0,1,.47,2.54c-.92.63-1.84,1.25-2.78,1.85a.48.48,0,0,0-.18.2,30.78,30.78,0,0,1-4.2,2c-.59.23-.34,1.2.27,1a32.36,32.36,0,0,0,6.47-3.36.49.49,0,0,0,.22-.33l.4-.26c.42,2,1.12,4.1,1.46,6.21a10.32,10.32,0,0,1-5.43,2c-.63.09-.36,1.06.27,1a11.87,11.87,0,0,0,5.31-1.85,2.5,2.5,0,0,0,.29,1.07,15.89,15.89,0,0,1-7,2.25c-.64,0-.64,1,0,1a17,17,0,0,0,7.49-2.35,8.12,8.12,0,0,1,.54,2.28c-2,.49-3.9,1.05-5.81,1.73-.6.21-.34,1.18.27,1,1.86-.66,3.76-1.22,5.67-1.7.06.62.07,1.44.17,2a2.47,2.47,0,0,1,0,.4,46.31,46.31,0,0,0-6.48,1.16.5.5,0,0,0,.27,1,44.74,44.74,0,0,1,6.74-1.18,1,1,0,0,1,.26.31c.5,1.06-.14,2.09-.48,3.08C220.17,150.28,220.18,150.29,220.17,150.3Zm.8,8.76c-.11-.85-.28-1.72-.34-2.44-.11-1.36-.19-2.71-.27-4.07a22,22,0,0,1,.61,4.88A14.29,14.29,0,0,1,221,159.06Z" transform="translate(-122.97 -33.85)"/><path class="cls-14" d="M130.54,153.27l-5.91-.29c-.64,0-.64,1,0,1l5.91.29C131.19,154.3,131.19,153.3,130.54,153.27Z" transform="translate(-122.97 -33.85)"/><path class="cls-14" d="M130.46,146.22l-4.57-1.63c-.61-.22-.87.75-.27,1l4.57,1.63C130.81,147.4,131.07,146.44,130.46,146.22Z" transform="translate(-122.97 -33.85)"/></g><g id="hat_colours" data-name="hat colours"><path class="cls-15" d="M165.66,49.32a.5.5,0,0,1,.27-.83h-.12a11.15,11.15,0,0,0-1.24,0,.46.46,0,0,0-.47-.55c-.15,0-.29,0-.43,0,.07-.29-.07-.63-.46-.59l-.17,0a.48.48,0,0,0-.26,0l-.43.12a.48.48,0,0,0-.24-.06.45.45,0,0,0-.46.37l-.12.05a.45.45,0,0,0-.2.59.52.52,0,0,0-.15.52.44.44,0,0,0-.25.23c-.22.08-.44.15-.65.25-.59.26-.08,1.12.5.86a10,10,0,0,1,3.3-.83l.71,0H165l.74,0Z" transform="translate(-122.97 -33.85)"/><path class="cls-13" d="M181,50.69a2.14,2.14,0,0,0,0-.61A15.2,15.2,0,0,0,179.46,46s-.05-.06-.08-.1,0-.17,0-.26a3.84,3.84,0,0,0-1.11-2.44l-.11-.09a1.83,1.83,0,0,0-.58-1.14A98.39,98.39,0,0,0,170,35,4.66,4.66,0,0,0,167.3,34a.48.48,0,0,1-.92.07,5.88,5.88,0,0,0-1.77.62,1.54,1.54,0,0,0-1.35.23l-.18,0c-13,3.79-17.84,18.19-13.92,30.47a2,2,0,0,0,.54.86,2.46,2.46,0,0,0,.57.91.43.43,0,0,0,0,.27l.64,1.59a.54.54,0,0,0,.1.16c.21.46.44.92.67,1.37a.41.41,0,0,0,.15.3c.16.3.3.6.46.89.3.53,1,.14.91-.39a20.67,20.67,0,0,1-.12-4.25,2.28,2.28,0,0,0,.14-.28c.07-.16.13-.32.19-.48h0V66.3c.27-.65.52-1.29.76-1.95a2.15,2.15,0,0,0,.26-.51,5.08,5.08,0,0,0,.38-1.43c0-.06,0-.12,0-.17.22-.51.44-1,.63-1.55A42.87,42.87,0,0,0,157,55.4l1.8-3.67a2.25,2.25,0,0,0,.3-.35,47,47,0,0,0,2.64-4.33c1.36.72,2.68,1.49,3.93,2.3v0a.5.5,0,0,1,.71-.71,1.75,1.75,0,0,1,.56,1.14A8.62,8.62,0,0,1,171.63,54a.47.47,0,0,1,0,.33A24.38,24.38,0,0,1,177,63a2,2,0,0,0,.88,1,10.18,10.18,0,0,1,.76,3.53.5.5,0,0,0,1,.13A18.64,18.64,0,0,0,181,61.92a.42.42,0,0,0-.07-.25c0-.06,0-.12,0-.18a1.89,1.89,0,0,0,1.16-1.73C182.27,56.17,182.18,53.38,181,50.69Z" transform="translate(-122.97 -33.85)"/><path class="cls-15" d="M166,48.57q-1.06-.06-2.12,0c-.64,0-.64,1,0,1s1.41,0,2.12,0S166.65,48.61,166,48.57Z" transform="translate(-122.97 -33.85)"/></g><g id="hat_drawing" data-name="hat drawing"><path class="cls-16" d="M181.54,49.85a24.29,24.29,0,0,0-11.09-14.61.45.45,0,0,0-.19-.2c-.74-.39-2.1-1.37-3-1.16a1.42,1.42,0,0,0-.41.18.48.48,0,0,0-.22,0,19.36,19.36,0,0,0-18,13.6,27.65,27.65,0,0,0-.9,13.43c.74,4.42,2.11,9.47,5.5,12.62a.5.5,0,0,0,.76-.1.42.42,0,0,0,.35-.59c-1.29-3.31,0-6.41,1.21-9.53s1.59-6,3.11-8.93c1.16-2.21,2.35-4.48,3.48-6.79a.43.43,0,0,0,.32.25c4.57,1,8.15,5.15,10.57,8.93,2.22,3.47,5.08,8.29,4.88,12.52a.5.5,0,0,0,.85.35C183.24,65,183.14,55.8,181.54,49.85Zm-3.24-5.09a.48.48,0,0,0,.15.11,23.38,23.38,0,0,1,1.88,4.38c.11.35.21.71.3,1.06-3.06-5.74-9.16-9.54-15.93-8.42q.32-.84.61-1.69C170.19,40.23,174.87,40.88,178.29,44.76ZM156.44,56.68a37.43,37.43,0,0,0-1,4.11c-.41,1.5-1.05,2.92-1.59,4.38A12.15,12.15,0,0,0,153,72c-2.39-2.82-3.46-6.72-4.14-10.28a27.26,27.26,0,0,1,.49-13c2.32-7.66,8.37-12.85,16.22-13.55l-2,1.53c-.5.39,0,1.25.5.86l2.8-2.14c.64-.49.65-.52,1.44-.17.37.17.73.36,1.1.54a.5.5,0,0,0,.16.14,23.08,23.08,0,0,1,6.88,6c-3.14-2.07-6.92-2.57-10.81-2.62.08-.27.18-.53.26-.8a.5.5,0,0,0-1-.27C163,44.71,158.94,50.37,156.44,56.68Zm22.42,11.37c-.37-4.26-3.17-9-5.4-12.3C170.93,52,167.3,48,162.71,47a.5.5,0,0,0-.24,0l.22-.49c10.46,1.23,14.79,11.85,16.28,20.94a.45.45,0,0,0,.09.21C179,67.81,178.93,67.94,178.85,68.05Zm2.52-9.16V59a24,24,0,0,0-5.8-11.11.47.47,0,0,0-.14-.37A9.92,9.92,0,0,0,171.55,45c-.61-.22-.87.75-.27,1a8.81,8.81,0,0,1,3.31,2.16l-.08.06c3.81,4.35,6.66,9.47,6,15.52a.44.44,0,0,0,0,.24,15.89,15.89,0,0,1-.81,2.37c-1.7-9.26-6.39-19.25-16.66-20.72.12-.27.25-.53.36-.8h.06a11.18,11.18,0,0,1,4.33.17c.63.15.89-.82.27-1a12.42,12.42,0,0,0-4.21-.24c.13-.3.26-.6.38-.9a.5.5,0,0,0,.27,0c8.09-1.56,15.1,4.55,16.77,12.21a.48.48,0,0,0,.07.16A26.68,26.68,0,0,1,181.37,58.89Z" transform="translate(-122.97 -33.85)"/><path class="cls-16" d="M163.09,40.44c.18-.48-.57-.88-.91-.39l-9.72,14.1c-.37.53.5,1,.86.5L161,43.5a117.42,117.42,0,0,0-9,20.14c-.21.61.76.87,1,.27a116.13,116.13,0,0,1,10.6-22.73A.49.49,0,0,0,163.09,40.44Z" transform="translate(-122.97 -33.85)"/><path class="cls-16" d="M160.38,40.54q-3.82,4.07-7.53,8.25c-.43.48.28,1.19.71.71q3.7-4.18,7.53-8.25C161.52,40.77,160.82,40.07,160.38,40.54Z" transform="translate(-122.97 -33.85)"/></g><g id="eyes"><ellipse class="cls-17" cx="159.99" cy="62.23" rx="2.5" ry="1.27" transform="translate(-125.48 -26.98) rotate(-2.44)"/><circle class="cls-18" cx="37.03" cy="28.15" r="1"/><circle class="cls-19" cx="36.53" cy="27.65" r="0.5"/><ellipse class="cls-17" cx="170.99" cy="61.23" rx="2.5" ry="1.27" transform="translate(-129.46 -11.2) rotate(-7.44)"/><circle class="cls-18" cx="170.94" cy="61.01" r="1" transform="matrix(0.99, -0.17, 0.17, 0.99, -130.9, -3.63)"/><circle class="cls-19" cx="171.34" cy="60.43" r="0.5" transform="translate(-130.8 -3.56) rotate(-9.88)"/></g><g id="eye_shadows" data-name="eye shadows"><path class="cls-20" d="M162.74,60.87a5,5,0,0,0-6,.85c-.47.46.31,1.13.78.67a3.92,3.92,0,0,1,4.76-.63A.51.51,0,0,0,162.74,60.87Z" transform="translate(-122.97 -33.85)"/><path class="cls-20" d="M173.74,59.87a5,5,0,0,0-6,.85c-.47.46.31,1.13.78.67a3.92,3.92,0,0,1,4.76-.63A.51.51,0,0,0,173.74,59.87Z" transform="translate(-122.97 -33.85)"/></g></svg>