<svg id="Layer_1" data-name="Layer 1" xmlns="http://www.w3.org/2000/svg" viewBox="0 0 147.79 145.92"><defs><style>.cls-1,.cls-2,.cls-3,.cls-4,.cls-5,.cls-8{fill:#79bbce;}.cls-2{stroke:#fcfcfc;}.cls-10,.cls-11,.cls-13,.cls-2,.cls-3,.cls-4,.cls-5,.cls-7,.cls-8{stroke-miterlimit:10;}.cls-2,.cls-4{stroke-width:0.76px;}.cls-3{stroke:#fafcfc;stroke-width:0.74px;}.cls-4,.cls-5,.cls-8{stroke:#f7f9f9;}.cls-5{stroke-width:1.91px;}.cls-6{fill:#f7f9f9;}.cls-10,.cls-11,.cls-13,.cls-7{fill:none;}.cls-11,.cls-13,.cls-7{stroke:#79bbce;}.cls-7,.cls-8{stroke-width:0.96px;}.cls-9{fill:#fafcfc;}.cls-10{stroke:#f5f7f7;stroke-width:0.36px;}.cls-11{stroke-width:4.78px;}.cls-12{fill:#fff;}.cls-13{stroke-width:12.25px;}</style></defs><title>Childrens_pets_toys_icon</title><rect class="cls-1" x="54.91" y="104.07" width="26" height="8.88" transform="translate(-5.93 -8.2) rotate(0.62)"/><polygon class="cls-1" points="47.87 105.33 36.57 104.99 42.34 100.69 48.1 96.39 53.63 101.03 59.17 105.67 47.87 105.33"/><ellipse class="cls-2" cx="55.2" cy="114.82" rx="4.04" ry="3.61" transform="translate(-67.33 161.31) rotate(-89.38)"/><ellipse class="cls-2" cx="66.04" cy="114.94" rx="4.04" ry="3.61" transform="translate(-56.74 172.25) rotate(-89.38)"/><ellipse class="cls-2" cx="76.14" cy="115.05" rx="4.04" ry="3.61" transform="translate(-46.85 182.47) rotate(-89.38)"/><rect class="cls-3" x="69.85" y="88.41" width="11.55" height="15.34" transform="translate(-6.07 -8.29) rotate(0.62)"/><rect class="cls-4" x="54.64" y="96.32" width="13" height="7.26" transform="translate(-6.03 -8.13) rotate(0.62)"/><rect class="cls-4" x="58.33" y="90.67" width="5.05" height="5.65" transform="translate(-6.1 -8.13) rotate(0.62)"/><rect class="cls-4" x="56.21" y="86.63" width="8.67" height="4.04" transform="translate(-6.15 -8.12) rotate(0.62)"/><rect class="cls-4" x="67.08" y="80.33" width="16.61" height="9.69" transform="matrix(1, 0.01, -0.01, 1, -6.19, -8.29)"/><circle class="cls-5" cx="102.25" cy="86.13" r="18.65"/><path class="cls-6" d="M117.39,77a.42.42,0,0,0-.38-.23.48.48,0,0,0-.94-.15c-.06.16-.12.31-.18.47A39.7,39.7,0,0,1,95.59,81c-.61,0-.61.91,0,1a40.6,40.6,0,0,0,19.8-3.63,30.06,30.06,0,0,1-24.1,18.1c-.61.07-.61,1,0,1a31.06,31.06,0,0,0,24.78-18.22A46.35,46.35,0,0,1,113.69,95c-1.78,5.26-4.91,13-10.4,15.29-.56.24-.31,1.16.25.92,5.3-2.23,8.23-8.65,10.23-13.67A47.06,47.06,0,0,0,117,78.26a40.69,40.69,0,0,1,3.7,28.59c-.14.6.78.85.92.25A41.72,41.72,0,0,0,117.39,77Z" transform="translate(-7.12 -7.47)"/><path class="cls-1" d="M105.27,64a17.31,17.31,0,0,0,0-2.64.54.54,0,0,0-.38-.46.41.41,0,0,0,.07-.13l.19-.12a.43.43,0,0,0,.16-.17.44.44,0,0,0-.07-.75l.21-.15c.48-.37,0-1.2-.48-.83a13.22,13.22,0,0,1-5.58,2.49,38.64,38.64,0,0,0-9.67-1.15C80.51,60.12,73,62.9,73,66.33s7.5,6.22,16.74,6.22,16.74-2.78,16.74-6.22A3.22,3.22,0,0,0,105.27,64Z" transform="translate(-7.12 -7.47)"/><line class="cls-7" x1="66.85" y1="48.82" x2="66.85" y2="61.25"/><line class="cls-7" x1="98.42" y1="48.34" x2="98.42" y2="60.78"/><ellipse class="cls-8" cx="82.63" cy="48.34" rx="16.74" ry="6.22"/><path class="cls-6" d="M77.39,61.45a15.13,15.13,0,0,0-2.45-1.16c-.58-.21-.83.71-.25.92a13.74,13.74,0,0,1,2.22,1.06A.48.48,0,0,0,77.39,61.45Z" transform="translate(-7.12 -7.47)"/><path class="cls-1" d="M79.82,61.44a10.36,10.36,0,0,1-5-2.11c-.49-.37-1,.46-.48.83l.22.14c-.4.07-.64.65-.19.86l.28.14a.48.48,0,0,0-.37.51.42.42,0,0,0,0,.09l-.11.74a.5.5,0,0,0,.13.43.38.38,0,0,0,.07.26v.05a.53.53,0,0,0,.37.32,2.29,2.29,0,0,0,.69.21.68.68,0,0,0,.34-.24l.35-.33a.41.41,0,0,0,0-.6h0a.46.46,0,0,0,.37-.2h0a.44.44,0,0,0,.29,0l.41.17a.48.48,0,0,0,.47-.8l-.14-.11a11.93,11.93,0,0,0,2.26.54C80.43,62.48,80.42,61.52,79.82,61.44Z" transform="translate(-7.12 -7.47)"/><path class="cls-9" d="M106.17,61.84a11.87,11.87,0,0,1-2.38-2.45c-.21-.29-.8-.34-.87.11a40.25,40.25,0,0,1-3.39,11Q96,66.19,92.67,61.8a.48.48,0,0,0-.83,0l-4.66,9.5q-3.3-4.94-6.29-10.07a.48.48,0,0,0-.75-.1L74,68.23c-.4.46.27,1.14.68.68l5.69-6.63q3.05,5.21,6.42,10.22a.48.48,0,0,0,.83,0l4.69-9.57q3.4,4.44,6.94,8.76a.48.48,0,0,0,.75-.1,41.14,41.14,0,0,0,3.61-10.84,12.57,12.57,0,0,0,1.83,1.77C106,62.89,106.65,62.22,106.17,61.84Z" transform="translate(-7.12 -7.47)"/><circle class="cls-1" cx="75.94" cy="40.69" r="1.91"/><line class="cls-7" x1="74.5" y1="40.21" x2="63.02" y2="36.38"/><circle class="cls-1" cx="93.58" cy="48.16" r="1.91" transform="translate(-17.64 56.15) rotate(-35.68)"/><line class="cls-7" x1="87.91" y1="40.24" x2="99.46" y2="36.65"/><rect class="cls-1" x="34.2" y="58.68" width="16.33" height="17.41"/><polygon class="cls-1" points="33.84 58.31 42.36 53.96 55.85 53.96 50.17 58.31 33.84 58.31"/><polygon class="cls-1" points="50.17 58.31 50.17 75.72 55.85 69.92 55.85 53.96 50.17 58.31"/><line class="cls-10" x1="34.55" y1="61.94" x2="50.88" y2="61.94"/><line class="cls-10" x1="34.2" y1="65.2" x2="50.52" y2="65.93"/><line class="cls-10" x1="34.2" y1="70.28" x2="50.52" y2="70.28"/><line class="cls-10" x1="39.88" y1="55.05" x2="54.78" y2="55.05"/><line class="cls-10" x1="37.04" y1="56.5" x2="51.94" y2="56.5"/><line class="cls-10" x1="37.75" y1="58.68" x2="38.46" y2="75.36"/><line class="cls-10" x1="44.85" y1="58.68" x2="44.85" y2="75.36"/><line class="cls-10" x1="49.81" y1="57.95" x2="49.81" y2="75.36"/><line class="cls-10" x1="51.94" y1="56.5" x2="52.65" y2="72.46"/><line class="cls-10" x1="54.07" y1="55.78" x2="54.78" y2="70.28"/><line class="cls-10" x1="55.49" y1="56.5" x2="49.81" y2="63.03"/><line class="cls-10" x1="55.49" y1="60.13" x2="50.52" y2="65.93"/><line class="cls-10" x1="55.49" y1="65.2" x2="49.1" y2="70.28"/><line class="cls-10" x1="37.75" y1="58.68" x2="46.27" y2="53.6"/><line class="cls-10" x1="44.85" y1="58.68" x2="50.52" y2="55.05"/><circle class="cls-11" cx="75.46" cy="75.6" r="67.92"/><rect class="cls-12" x="71.63" y="0.03" width="15.31" height="14.83"/><polygon class="cls-13" points="62.37 9.31 61.59 9.89 60.81 10.48 60.66 9.61 60.51 8.75 61.44 9.03 62.37 9.31"/><rect class="cls-12" x="127.54" y="115.12" width="14.83" height="23.92" transform="translate(-57.45 125.18) rotate(-45)"/><rect class="cls-12" x="11.78" y="97.43" width="15.31" height="19.61" transform="translate(95.47 29.31) rotate(60)"/><polygon class="cls-13" points="134.67 106.88 135.43 106.27 136.19 105.66 135.39 105.3 134.59 104.93 134.63 105.9 134.67 106.88"/><polygon class="cls-13" points="20.29 112.82 19.41 113.22 18.52 113.62 18.56 112.75 18.59 111.87 19.44 112.34 20.29 112.82"/></svg>