<?xml version="1.0" encoding="utf-8"?>
<!-- Generator: Adobe Illustrator 21.1.0, SVG Export Plug-In . SVG Version: 6.00 Build 0)  -->
<svg version="1.1" id="Layer_1" xmlns="http://www.w3.org/2000/svg" xmlns:xlink="http://www.w3.org/1999/xlink" x="0px" y="0px"
	 viewBox="0 0 162 162" style="enable-background:new 0 0 162 162;" xml:space="preserve">
<style type="text/css">
	.st0{fill:#102773;}
	.st1{fill:#102773;stroke:#FCFCFC;stroke-width:3;stroke-miterlimit:10;}
	.st2{fill:none;stroke:#FFFFFF;stroke-width:3;stroke-miterlimit:10;}
	.st3{fill:#102773;stroke:#102773;stroke-width:20;stroke-miterlimit:10;}
	.st4{fill:none;stroke:#102773;stroke-width:20;stroke-miterlimit:10;}
	.st5{fill:#FFFFFF;}
	.st6{fill:none;stroke:#FFFFFF;stroke-width:1.9444;stroke-miterlimit:10;}
	.st7{fill:none;stroke:#FFFFFF;stroke-width:0.9722;stroke-miterlimit:10;}
</style>
<rect x="46" y="53" class="st0" width="61" height="93"/>
<rect x="42" y="46" class="st0" width="68" height="5"/>
<path class="st0" d="M110.5,46.3L110.5,46.3c2.6-4.2,1.3-9.8-2.9-12.4L65.2,7.5c-4.2-2.6-9.8-1.3-12.4,2.9l0,0"/>
<circle class="st1" cx="52.5" cy="148.5" r="8"/>
<circle class="st1" cx="102.5" cy="141.5" r="15"/>
<polygon class="st2" points="77,111 52,111 64.5,85 77,59 89.5,85 102,111 "/>
<line class="st3" x1="54.5" y1="82.5" x2="77.5" y2="91.5"/>
<line class="st3" x1="98.5" y1="83.5" x2="75.5" y2="92.5"/>
<line class="st4" x1="78" y1="101" x2="78" y2="118"/>
<g>
	<ellipse class="st5" cx="71.7" cy="91.5" rx="6.7" ry="6.8"/>
	<ellipse class="st5" cx="74.2" cy="81.3" rx="0.3" ry="0.3"/>
	<ellipse class="st5" cx="78.4" cy="86" rx="6.7" ry="8"/>
	<ellipse class="st5" cx="81.9" cy="93.3" rx="6.1" ry="5.3"/>
	<line class="st6" x1="77.2" y1="95.9" x2="76.6" y2="109"/>
	<ellipse class="st5" cx="71" cy="102.7" rx="3" ry="2.8"/>
	<ellipse class="st5" cx="68.5" cy="105.1" rx="2.7" ry="2.2"/>
	<line class="st7" x1="71.2" y1="105.1" x2="71.2" y2="109"/>
</g>
</svg>
