<svg id="Layer_1" data-name="Layer 1" xmlns="http://www.w3.org/2000/svg" viewBox="0 0 77 151.88"><defs><style>.cls-1,.cls-2{fill:#79bbce;}.cls-2{stroke:#fcfcfc;}.cls-2,.cls-3,.cls-4,.cls-5,.cls-7,.cls-8{stroke-miterlimit:10;}.cls-2,.cls-3{stroke-width:3px;}.cls-3,.cls-5,.cls-7,.cls-8{fill:none;}.cls-3,.cls-7,.cls-8{stroke:#fff;}.cls-4{fill:#606060;}.cls-4,.cls-5{stroke:#79bbce;stroke-width:20px;}.cls-6{fill:#fff;}.cls-7{stroke-width:1.94px;}.cls-8{stroke-width:0.97px;}</style></defs><title>Cleaning_public_spaces_icon</title><rect class="cls-1" x="4" y="46.88" width="61" height="93"/><rect class="cls-1" y="39.88" width="68" height="5"/><path class="cls-1" d="M110.49,46.29h0a9,9,0,0,0-2.88-12.4L65.15,7.47a9,9,0,0,0-12.4,2.88h0" transform="translate(-42 -6.12)"/><circle class="cls-2" cx="10.5" cy="142.38" r="8"/><circle class="cls-2" cx="60.5" cy="135.38" r="15"/><polygon class="cls-3" points="35.04 104.89 10.04 104.93 22.5 78.91 34.96 52.89 47.5 78.87 60.04 104.85 35.04 104.89"/><line class="cls-4" x1="12.5" y1="76.38" x2="35.5" y2="85.38"/><line class="cls-4" x1="56.5" y1="77.38" x2="33.5" y2="86.38"/><line class="cls-5" x1="36" y1="94.88" x2="36" y2="111.88"/><ellipse class="cls-6" cx="29.7" cy="85.4" rx="6.7" ry="6.76"/><ellipse class="cls-6" cx="32.2" cy="75.14" rx="0.27" ry="0.25"/><ellipse class="cls-6" cx="36.39" cy="79.89" rx="6.7" ry="8.01"/><ellipse class="cls-6" cx="39.89" cy="87.15" rx="6.11" ry="5.26"/><line class="cls-7" x1="35.18" y1="89.78" x2="34.64" y2="102.88"/><ellipse class="cls-6" cx="28.95" cy="96.55" rx="2.98" ry="2.84"/><ellipse class="cls-6" cx="26.52" cy="98.95" rx="2.71" ry="2.18"/><line class="cls-8" x1="29.22" y1="98.95" x2="29.22" y2="102.88"/></svg>