<svg id="Layer_1" data-name="Layer 1" xmlns="http://www.w3.org/2000/svg" viewBox="0 0 147.79 145.92"><defs><style>.cls-1,.cls-3{fill:none;stroke:#79bbce;stroke-miterlimit:10;}.cls-1{stroke-width:4.78px;}.cls-2{fill:#fff;}.cls-3{stroke-width:12.25px;}.cls-4{fill:#79bbce;}</style></defs><title>Electronics_icon</title><circle class="cls-1" cx="75.46" cy="75.6" r="67.92"/><rect class="cls-2" x="71.63" y="0.03" width="15.31" height="14.83"/><polygon class="cls-3" points="62.37 9.31 61.59 9.89 60.81 10.48 60.66 9.61 60.51 8.75 61.44 9.03 62.37 9.31"/><rect class="cls-2" x="127.54" y="115.12" width="14.83" height="23.92" transform="translate(-57.45 125.18) rotate(-45)"/><rect class="cls-2" x="11.78" y="97.43" width="15.31" height="19.61" transform="translate(95.47 29.31) rotate(60)"/><polygon class="cls-3" points="134.67 106.88 135.43 106.27 136.19 105.66 135.39 105.3 134.59 104.93 134.63 105.9 134.67 106.88"/><polygon class="cls-3" points="20.29 112.82 19.41 113.22 18.52 113.62 18.56 112.75 18.59 111.87 19.44 112.34 20.29 112.82"/><rect class="cls-4" x="74" y="128" width="2" height="5" transform="translate(114.13 -20.21) rotate(47.78)"/><path class="cls-4" d="M130.19,102.39c-1.58-4-4.94-6.68-9.19-5.95V48H43v59h78V98.48c5-1.13,8.6,4.9,8.26,9.3-.36,4.58-3.24,7.5-7.12,9.38-5.19,2.51-11.62,3.1-17.27,3.73-6.72.74-17.25-1.29-22.35,4.2-.87.94.54,2.36,1.41,1.41,3.33-3.58,8.77-2.8,13.23-3q5.93-.28,11.81-1.12c6.11-.87,13.35-1.68,18.15-6A12.14,12.14,0,0,0,130.19,102.39Z" transform="translate(-7.12 -7.47)"/><rect class="cls-2" x="38.88" y="43.53" width="60" height="53" rx="12" ry="12"/><circle class="cls-2" cx="106.38" cy="59.03" r="4.5"/><circle class="cls-2" cx="106.38" cy="71.03" r="4.5"/><circle class="cls-2" cx="106.38" cy="83.03" r="4.5"/><rect class="cls-2" x="101.88" y="92.53" width="9" height="3"/><rect class="cls-4" x="76.5" y="123.5" width="8" height="9" transform="translate(114.08 -25.1) rotate(47.78)"/><rect class="cls-4" x="77" y="131" width="2" height="5" transform="translate(117.34 -21.44) rotate(47.78)"/></svg>