<?xml version="1.0" encoding="utf-8"?>
<!-- Generator: Adobe Illustrator 21.1.0, SVG Export Plug-In . SVG Version: 6.00 Build 0)  -->
<svg version="1.1" id="Layer_1" xmlns="http://www.w3.org/2000/svg" xmlns:xlink="http://www.w3.org/1999/xlink" x="0px" y="0px"
	 viewBox="0 0 162 162" style="enable-background:new 0 0 162 162;" xml:space="preserve">
<style type="text/css">
	.st0{fill:none;stroke:#102773;stroke-width:4.7833;stroke-miterlimit:10;}
	.st1{fill:#FFFFFF;}
	.st2{fill:none;stroke:#102773;stroke-width:12.2515;stroke-miterlimit:10;}
	.st3{fill:#102773;}
</style>
<circle class="st0" cx="82.6" cy="83.1" r="67.9"/>
<rect x="78.8" y="7.5" class="st1" width="15.3" height="14.8"/>
<polygon class="st2" points="69.5,16.8 68.7,17.4 67.9,17.9 67.8,17.1 67.6,16.2 68.6,16.5 "/>
<rect x="127.5" y="115.1" transform="matrix(0.7071 -0.7071 0.7071 0.7071 -50.3343 132.6488)" class="st1" width="14.8" height="23.9"/>
<rect x="11.8" y="97.4" transform="matrix(0.5 0.866 -0.866 0.5 102.5844 36.7836)" class="st1" width="15.3" height="19.6"/>
<polygon class="st2" points="141.8,114.3 142.5,113.7 143.3,113.1 142.5,112.8 141.7,112.4 141.7,113.4 "/>
<polygon class="st2" points="27.4,120.3 26.5,120.7 25.6,121.1 25.7,120.2 25.7,119.3 26.6,119.8 "/>
<rect x="74" y="128" transform="matrix(0.672 0.7406 -0.7406 0.672 121.2482 -12.7353)" class="st3" width="2" height="5"/>
<path class="st3" d="M130.2,102.4c-1.6-4-4.9-6.7-9.2-5.9V48H43v59h78v-8.5c5-1.1,8.6,4.9,8.3,9.3c-0.4,4.6-3.2,7.5-7.1,9.4
	c-5.2,2.5-11.6,3.1-17.3,3.7c-6.7,0.7-17.3-1.3-22.3,4.2c-0.9,0.9,0.5,2.4,1.4,1.4c3.3-3.6,8.8-2.8,13.2-3c4-0.2,7.9-0.6,11.8-1.1
	c6.1-0.9,13.4-1.7,18.2-6C131.2,112.7,132.2,107.5,130.2,102.4z"/>
<path class="st1" d="M94,104H58c-6.6,0-12-5.4-12-12V63c0-6.6,5.4-12,12-12h36c6.6,0,12,5.4,12,12v29C106,98.6,100.6,104,94,104z"/>
<circle class="st1" cx="113.5" cy="66.5" r="4.5"/>
<circle class="st1" cx="113.5" cy="78.5" r="4.5"/>
<circle class="st1" cx="113.5" cy="90.5" r="4.5"/>
<rect x="109" y="100" class="st1" width="9" height="3"/>
<rect x="76.5" y="123.5" transform="matrix(0.672 0.7406 -0.7406 0.672 121.201 -17.6286)" class="st3" width="8" height="9"/>
<rect x="77" y="131" transform="matrix(0.672 0.7406 -0.7406 0.672 124.4541 -13.9729)" class="st3" width="2" height="5"/>
</svg>
