<svg xmlns="http://www.w3.org/2000/svg" viewBox="0 0 126.15 161.63"><defs><style>.cls-1{fill:#79bbce;}.cls-2{fill:#fff;}</style></defs><title>Food_shares_icon</title><g id="Layer_1" data-name="Layer 1"><path class="cls-1" d="M80.54,112c-14.9,0-27-10.52-27-23.5S65.64,65,80.54,65" transform="translate(-17.48 0.17)"/><path class="cls-1" d="M82,112c14.9,0,27-10.52,27-23.5S96.92,65,82,65" transform="translate(-17.48 0.17)"/><path class="cls-1" d="M78.67,60.16c.56-2.67,5.69-6.83,8.81-8.8s8.78-4.55,9.46-2.33-3.58,8.37-8,11.45C83.51,64.31,78,63.26,78.67,60.16Z" transform="translate(-17.48 0.17)"/><path class="cls-1" d="M80.58,63.14c-2.73,0-7.79-4.3-10.31-7s-6.13-7.76-4.08-8.84S75.09,49.25,78.95,53C83.74,57.6,83.75,63.19,80.58,63.14Z" transform="translate(-17.48 0.17)"/><ellipse class="cls-2" cx="58.52" cy="89.67" rx="2" ry="6.5"/><ellipse class="cls-2" cx="69.52" cy="89.67" rx="2" ry="6.5"/></g><g id="rsayas"><path class="cls-1" d="M125,106.7a7.5,7.5,0,0,0-7.16.44,2.88,2.88,0,0,0-3.13-1.2,18.77,18.77,0,0,0-5.48,2.32,3.11,3.11,0,0,0-3.26-.43,36.39,36.39,0,0,0-13.55,10.39,94.22,94.22,0,0,1-11.65-.71c-7.46-.93-14.91-3.67-22.48-3.19-6.46.4-11.88,3.55-17.05,7.21-6.73,4.75-13.38,9.63-20.06,14.45a3.26,3.26,0,0,0,.09,5.28,3,3,0,0,0,.28,2l7.28,14.56c1.25,2.5,4.66,1.51,5.48-.72,3.25-8.83,12.16-13.5,21-14.8,10.21-1.49,20.43,2.28,30.46.66,8.46-1.36,15.68-7.29,22-12.72,3.55-3.07,6.91-6.33,10.25-9.63,3-3,6.23-5.87,8.06-9.79C126.74,109.44,126.6,107.44,125,106.7Z" transform="translate(-17.48 0.17)"/><path class="cls-1" d="M126.75,107.9c-1.47-3.81-4.75-3.74-8.45-2a1,1,0,0,0-.32-.27c-2.93-1.59-5.59-.62-8.23,1.12l-.36.25a.91.91,0,0,0-.47-.28c-3-.75-5.41.67-7.91,2.24a69.78,69.78,0,0,0-8.61,6.47.85.85,0,0,0-.32.71c-5.38-.12-10.75.34-16.13-.49S65.35,113.11,59.9,113c-11.3-.14-20.45,8.72-29.08,15a1,1,0,0,0-.47.23C26.78,131.44,22,133.62,18,136a1,1,0,0,0-.11,1.62,1,1,0,0,0,.1.29q6.49,11.3,12.18,23a1,1,0,0,0,1.77-.21,1,1,0,0,0,.29-.2c4.78-4.91,8.61-11.23,14.59-14.82,6.75-4.05,14.87-3.49,22.39-2.72,6.43.66,13,1.63,19.44.25,5.93-1.28,10.82-4.71,15.48-8.45a142.45,142.45,0,0,0,15.86-14.87C122.38,117.26,128.42,112.24,126.75,107.9Zm-10.55-.84c-5.68,3.43-11.69,9.69-13.34,11.44a1,1,0,0,0-.14.23,8.46,8.46,0,0,0-3.2-1.71c2.6-2.16,5.25-4.25,8-6.23C109.81,109.11,113.06,106.08,116.19,107.06Zm-15.36,17.22c-1.7.13-7.23.45-6.91-1.15.27-1.35,2.42-1.65,4.43-1.68,1.23-.41,3.05-.25,3.47,1.23a1.23,1.23,0,0,1-.48,1.39,1.44,1.44,0,0,1-.51.19Zm-.66-12.36c2-1.35,4.47-3.33,7-3.38-3.13,2.22-6.15,4.63-9.09,7.07a.81.81,0,0,0-.25,1c-.62-.11-1.25-.19-1.87-.25s-1-.07-1.44-.1A65.47,65.47,0,0,1,100.16,111.92ZM122.43,114l-.45.56c-.93,1.11-1.9,2.19-2.87,3.27q-2.63,2.91-5.41,5.67c-8.68,8.6-18.49,18.06-31.38,18.39-10.14.26-20.39-3.09-30.44-.47-9.41,2.45-14.35,10.57-20.67,17.2q-5.34-10.89-11.37-21.41c3.81-2.19,7.91-4.23,11.28-7a1,1,0,0,0,.31-.15c6.72-4.85,13.87-11.66,21.92-14.15,8.59-2.66,17.39,1.44,26,2.17,4.43.37,8.88.09,13.32.17,1.54,0,4.46-.12,5.84.5.16.25.3.49.45.72a12.26,12.26,0,0,0-4,.47c-1.4.48-3.1,1.86-3.21,3.46-.23,3.2,5.56,3.1,8.41,2.92a4,4,0,0,1-2.32,1,23,23,0,0,1-5,.58c-7.71.18-14.93-1.5-22.61.2-1.26.28-.72,2.21.53,1.93,6.26-1.38,12.17-.59,18.48-.23,4.14.24,9.86.4,13.38-2.31a5.27,5.27,0,0,0,1.57-6.9c-.07-.14-.17-.26-.25-.4a1,1,0,0,0,.39-.25c3.21-3.41,7.63-8.45,12.12-10.77a.41.41,0,0,1,.25-.34c1.71-.85,3.46-2.38,5.49-2.25a3.4,3.4,0,0,1,3.07,2.4C125.58,110.86,124,112.64,122.43,114Z" transform="translate(-17.48 0.17)"/><path class="cls-2" d="M103,120.93a3.34,3.34,0,0,0-1.13-1,.39.39,0,0,0-.35-.34c-2.44-.38-7.81-.19-8.82,2.8-1.12,3.35,5,3.6,6.9,3.43C101.9,125.63,104.79,123.42,103,120.93Zm-.77,2.55c-.64,1.3-2.41,1.39-3.62,1.37a7.79,7.79,0,0,1-3-.35c-1-.09-1.53-.81-1.54-2.14a15.6,15.6,0,0,1,4.64-1.73C100.2,120.38,103.56,120.73,102.22,123.48Z" transform="translate(-17.48 0.17)"/><path class="cls-2" d="M119.51,105.72a53,53,0,0,0-16.29,13.1h0a8.93,8.93,0,0,0-4.48-2.23c3.89-3.42,8-7.48,12.79-9.42.59-.24.33-1.21-.27-1-5.2,2.1-9.55,6.49-13.73,10.12l0,.05a29.59,29.59,0,0,0-7.5.14c-.63.08-.64,1.08,0,1,3.72-.48,10.71-1,13.09,2.69,1.48,2.33-.12,5.16-2.19,6.45a13.89,13.89,0,0,1-6.57,1.58c-8.06.46-16.08-1.33-24.11.08-.63.11-.36,1.07.27,1,6.09-1.07,12.18-.28,18.3,0,4.22.17,9.81.56,13.36-2.23,2.25-1.77,3.3-5,1.72-7.4a52.31,52.31,0,0,1,16.16-13C120.59,106.29,120.08,105.43,119.51,105.72Z" transform="translate(-17.48 0.17)"/><path class="cls-1" d="M35.33,52.16a7.5,7.5,0,0,0,7.17-.26,2.88,2.88,0,0,0,3.1,1.28A18.77,18.77,0,0,0,51.13,51a3.11,3.11,0,0,0,3.25.52,36.39,36.39,0,0,0,13.81-10,94.22,94.22,0,0,1,11.62,1c7.43,1.12,14.81,4,22.39,3.77,6.47-.24,12-3.25,17.23-6.77,6.85-4.58,13.62-9.29,20.43-13.93a3.26,3.26,0,0,0,0-5.28,3,3,0,0,0-.23-2L132.78,3.55c-1.19-2.54-4.62-1.63-5.5.58-3.47,8.75-12.5,13.19-21.4,14.26-10.24,1.23-20.36-2.8-30.44-1.45C67,18.07,59.58,23.81,53.16,29.09c-3.62,3-7.07,6.16-10.5,9.36-3.11,2.92-6.38,5.7-8.3,9.58C33.69,49.38,33.78,51.38,35.33,52.16Z" transform="translate(-17.48 0.17)"/><path class="cls-1" d="M33.65,50.91c1.37,3.85,4.66,3.86,8.4,2.2a1,1,0,0,0,.31.27c2.88,1.67,5.57.76,8.26-.91l.37-.24a.91.91,0,0,0,.46.3c3,.82,5.43-.53,8-2a69.78,69.78,0,0,0,8.77-6.25.85.85,0,0,0,.34-.71c5.37.26,10.76-.06,16.11.9s10.54,2.84,16,3c11.29.43,20.67-8.19,29.45-14.26a1,1,0,0,0,.48-.22c3.65-3.07,8.44-5.12,12.59-7.43a1,1,0,0,0,.15-1.61,1,1,0,0,0-.09-.29Q137,12.22,131.6.36a1,1,0,0,0-1.78.16,1,1,0,0,0-.29.19c-4.9,4.79-8.89,11-15,14.44-6.85,3.88-15,3.11-22.45,2.14-6.41-.83-13-2-19.43-.75C66.71,17.67,61.74,21,57,24.6A142.45,142.45,0,0,0,40.76,39.06C38.25,41.67,32.09,46.53,33.65,50.91ZM44.18,52c5.76-3.29,11.93-9.39,13.63-11.1A1,1,0,0,0,58,40.7a8.46,8.46,0,0,0,3.16,1.79c-2.65,2.09-5.35,4.11-8.14,6C50.61,50.14,47.28,53.09,44.18,52ZM60,35.2c1.7-.08,7.23-.27,6.87,1.33-.3,1.34-2.46,1.58-4.47,1.57-1.24.37-3.06.17-3.44-1.32a1.23,1.23,0,0,1,.52-1.37,1.44,1.44,0,0,1,.51-.18Zm.35,12.37c-2,1.3-4.56,3.22-7.1,3.2,3.19-2.14,6.26-4.47,9.27-6.84a.81.81,0,0,0,.28-1c.62.13,1.24.23,1.86.3s1,.09,1.44.13A65.47,65.47,0,0,1,60.32,47.58Zm-22.2-2.69.47-.55c1-1.09,2-2.15,3-3.2q2.7-2.84,5.55-5.52C56,27.24,66,18,78.93,18c10.14,0,20.31,3.61,30.42,1.26,9.47-2.21,14.62-10.2,21.1-16.67q5.06,11,10.81,21.69c-3.86,2.09-8,4-11.46,6.74a1,1,0,0,0-.31.14c-6.84,4.68-14.16,11.3-22.27,13.59-8.66,2.44-17.35-1.89-25.92-2.83-4.42-.49-8.88-.32-13.31-.51-1.54-.06-4.46,0-5.82-.65-.15-.25-.29-.49-.43-.73a12.26,12.26,0,0,0,4-.37c1.42-.45,3.14-1.78,3.3-3.38.31-3.19-5.48-3.25-8.33-3.13a4,4,0,0,1,2.34-.9,23,23,0,0,1,5-.45c7.71,0,14.89,1.88,22.61.38C92,32,91.5,30,90.23,30.26c-6.3,1.22-12.18.28-18.48-.24-4.13-.34-9.85-.65-13.44,2a5.27,5.27,0,0,0-1.75,6.86c.07.15.16.27.24.4a1,1,0,0,0-.39.24C53.13,42.8,48.58,47.73,44,49.93a.41.41,0,0,1-.25.33c-1.73.8-3.52,2.3-5.55,2.1a3.4,3.4,0,0,1-3-2.48C34.88,48,36.49,46.25,38.12,44.89Z" transform="translate(-17.48 0.17)"/><path class="cls-2" d="M57.73,38.5a3.34,3.34,0,0,0,1.11,1,.39.39,0,0,0,.34.35c2.43.45,7.81.39,8.89-2.57,1.21-3.32-4.95-3.73-6.81-3.61C58.94,33.83,56,36,57.73,38.5ZM58.57,36c.67-1.28,2.45-1.32,3.65-1.27a7.79,7.79,0,0,1,3,.42c1,.12,1.51.85,1.48,2.18A15.6,15.6,0,0,1,62,38.9C60.5,39.12,57.15,38.68,58.57,36Z" transform="translate(-17.48 0.17)"/><path class="cls-2" d="M40.82,53.28A53,53,0,0,0,57.44,40.6h0a8.93,8.93,0,0,0,4.42,2.35c-4,3.32-8.18,7.27-13,9.09-.6.22-.36,1.2.24,1,5.25-2,9.71-6.24,14-9.76l0-.05a29.59,29.59,0,0,0,7.5.06c.63-.06.67-1.07,0-1-3.73.38-10.74.77-13-3-1.42-2.37.25-5.16,2.35-6.39a13.89,13.89,0,0,1,6.61-1.41c8.07-.25,16,1.75,24.1.54.64-.09.39-1.07-.24-1-6.11.91-12.18,0-18.29-.43-4.21-.28-9.79-.81-13.41,1.89-2.3,1.71-3.42,4.91-1.91,7.35A52.31,52.31,0,0,1,40.34,52.4C39.76,52.68,40.24,53.56,40.82,53.28Z" transform="translate(-17.48 0.17)"/></g></svg>