<svg id="Layer_1" data-name="Layer 1" xmlns="http://www.w3.org/2000/svg" viewBox="0 0 132.16 140.72"><defs><style>.cls-1,.cls-10,.cls-2,.cls-3,.cls-4,.cls-7,.cls-8,.cls-9{fill:#79bbce;}.cls-10,.cls-2,.cls-4,.cls-7,.cls-8,.cls-9{stroke:#fcfcfc;}.cls-10,.cls-11,.cls-2,.cls-3,.cls-4,.cls-6,.cls-7,.cls-8,.cls-9{stroke-miterlimit:10;}.cls-2{stroke-width:1.08px;}.cls-11,.cls-3{stroke:#fdffff;stroke-width:1.11px;}.cls-4,.cls-6{stroke-width:0.83px;}.cls-5{fill:#fcfcfc;}.cls-11,.cls-6{fill:none;}.cls-6{stroke:#fff;}.cls-7{stroke-width:0.74px;}.cls-8{stroke-width:0.95px;}.cls-9{stroke-width:0.91px;}.cls-10{stroke-width:0.96px;}</style></defs><title>Furniture_swaps_icon</title><rect class="cls-1" x="103.65" y="96.54" width="4.22" height="44.19"/><rect class="cls-1" x="137.78" y="83.41" width="4.22" height="40.87" transform="translate(269.94 195.41) rotate(180)"/><rect class="cls-1" x="64.58" y="73.34" width="4.22" height="40.87"/><polygon class="cls-2" points="62.01 68.01 94.54 47.31 129.75 65.42 106.42 94.26 62.01 68.01"/><polygon class="cls-3" points="94.61 48.03 91.19 0.72 125.22 9.3 129.27 65.32 94.61 48.03"/><path class="cls-1" d="M12,51.95a2,2,0,0,1,.57-1.06,22.55,22.55,0,0,1,.82-3,6.28,6.28,0,0,1,.06-1.12c.28-1.8.62-3.58,1-5.35a4.2,4.2,0,0,1,.87-1.79,4.63,4.63,0,0,1,.84-2.92,2,2,0,0,1,0-1.15,2.06,2.06,0,0,1,2.51-1.47l.07,0A2.12,2.12,0,0,1,20,35.2l0,0a3.9,3.9,0,0,1,1.28.4q4.28,1.34,8.58,2.59l.36.12.66.15c1.25.29,2.77.46,4.19.85A10.68,10.68,0,0,1,39.93,34c4.69-2.52,12.66-1.3,17.23,1,4.33,2.15,1.13,8.44-3.06,7.66a4.75,4.75,0,0,1-.05.72l-.08.52A3.28,3.28,0,0,1,53,45.68,49.26,49.26,0,0,0,51,54l4.92,1.66c3,1,3.39,4.47,2.09,6.62.22.31-.1.81-.47.64a3.74,3.74,0,0,1-.53.48,5,5,0,0,1-1.89,4.84c.91,2.51-.31,6-3.65,5.95A45.06,45.06,0,0,1,41,72.38c-2.67-.66-5.31-1.23-7.54-2.9-.12,0-.23,0-.35-.06a4,4,0,0,1-1-.45,4.14,4.14,0,0,1-2.44-2,4.6,4.6,0,0,1-.37-3.23l0-.07,0,0a13.28,13.28,0,0,1-.42-2c-5.19-1.69-10.53-2.47-15.66-4.5a2,2,0,0,1-1.8-1.06,2.31,2.31,0,0,1,.17-2.34Z" transform="translate(-9.84 -12.28)"/><circle class="cls-4" cx="29.53" cy="45.95"/><path class="cls-5" d="M58.63,35.07c-7.16-1.1-19.8-5.61-23.12,4.56a.41.41,0,1,1-.78-.23c3.51-10.76,16.48-6.32,24.13-5.14C59.37,34.33,59.14,35.14,58.63,35.07Z" transform="translate(-9.84 -12.28)"/><path class="cls-5" d="M50.07,43.9c-.48-.14-1.1-.51-1.52-.14a10.64,10.64,0,0,0-.55,2,30.88,30.88,0,0,1-1.18,3.36A16,16,0,0,1,43,54.87a12.32,12.32,0,0,1-11.09,2.77c-.51-.12-.29-.94.22-.82a11.51,11.51,0,0,0,10.75-3c2.9-2.88,4.12-7.05,5.07-11a.41.41,0,0,1,.5-.29l1.86.53C50.8,43.23,50.58,44,50.07,43.9Z" transform="translate(-9.84 -12.28)"/><path class="cls-5" d="M29.47,62.3c-.89,5.7,5.14,8,9.32,9.1,4.65,1.18,9.32,2.29,14,3.43.51.12.29.94-.22.82l-9.39-2.3a55.49,55.49,0,0,1-8.66-2.41C31,69.45,28,66.26,28.69,62.06,28.78,61.52,29.56,61.76,29.47,62.3Z" transform="translate(-9.84 -12.28)"/><line class="cls-6" x1="19.65" y1="49.63" x2="0.12" y2="43.8"/><line class="cls-6" x1="25.78" y1="27.15" x2="6.25" y2="21.32"/><line class="cls-6" x1="6.87" y1="22.05" x2="0.92" y2="44.14"/><polygon class="cls-7" points="35.03 73.45 42.28 76.43 66.83 15.04 59.57 12.06 35.03 73.45"/><path class="cls-8" d="M67.23,32.51a12.5,12.5,0,0,0,11.82.57,10.77,10.77,0,0,0,5.3-13l-5.51,7.11-6-1.42" transform="translate(-9.84 -12.28)"/><path class="cls-8" d="M71.92,34.52a12.64,12.64,0,0,1-8.64-8.16,10.77,10.77,0,0,1,5.54-12.87L67.6,22.42l5.21,3.38" transform="translate(-9.84 -12.28)"/><path class="cls-8" d="M46.89,88.85l6,2.56c-1,3.92-1.72,8.35-.22,9.13,1.13.58,3.12-1.11,3.95-2,3.56-3.78,1.9-9.59,1.82-9.85-.2-.68-2-6.41-7.61-8.14a10.79,10.79,0,0,0-3.54-.47" transform="translate(-9.84 -12.28)"/><path class="cls-8" d="M49.38,89.69l-6-2.37c-2,3.49-4.52,7.2-6.13,6.7-1.21-.38-1.47-3-1.45-4.22.05-5.22,5.25-8.22,5.48-8.35.61-.34,5.86-3.17,11.06-.46a10.93,10.93,0,0,1,2.87,2.16" transform="translate(-9.84 -12.28)"/><path class="cls-9" d="M58.47,45.51h0a4,4,0,0,0,2.61,4.91l13.4,4a3.79,3.79,0,0,0,4.69-2.73h0a4,4,0,0,0-2.61-4.91l-13.4-4A3.79,3.79,0,0,0,58.47,45.51Z" transform="translate(-9.84 -12.28)"/><path class="cls-10" d="M56,54.42h0a4.46,4.46,0,0,0,2.9,5.45l12.59,3.76a4.21,4.21,0,0,0,5.21-3h0a4.46,4.46,0,0,0-2.9-5.45L61.25,51.39A4.21,4.21,0,0,0,56,54.42Z" transform="translate(-9.84 -12.28)"/><path class="cls-9" d="M53.61,63.34h0a4,4,0,0,0,2.61,4.91l13.4,4a3.79,3.79,0,0,0,4.69-2.73h0A4,4,0,0,0,71.7,64.6l-13.4-4A3.79,3.79,0,0,0,53.61,63.34Z" transform="translate(-9.84 -12.28)"/><path class="cls-9" d="M52.31,71.67h0A3.57,3.57,0,0,0,54.63,76L67,79.74a3.37,3.37,0,0,0,4.17-2.43h0a3.57,3.57,0,0,0-2.32-4.36l-12.42-3.7A3.37,3.37,0,0,0,52.31,71.67Z" transform="translate(-9.84 -12.28)"/><path class="cls-4" d="M51.19,39.65l-2.67,9.81A6.87,6.87,0,0,0,53,57.87h0a6.48,6.48,0,0,0,8-4.67l2.67-9.81A6.87,6.87,0,0,0,59.22,35h0A6.48,6.48,0,0,0,51.19,39.65Z" transform="translate(-9.84 -12.28)"/><line class="cls-11" x1="95.73" y1="2.09" x2="98.9" y2="49.59"/><line class="cls-11" x1="101.01" y1="4.3" x2="104.18" y2="52.9"/><line class="cls-11" x1="106.29" y1="4.3" x2="109.46" y2="55.11"/><line class="cls-11" x1="112.62" y1="6.51" x2="114.74" y2="58.43"/><line class="cls-11" x1="117.9" y1="7.61" x2="121.07" y2="60.64"/></svg>