<svg id="Layer_1" data-name="Layer 1" xmlns="http://www.w3.org/2000/svg" viewBox="0 0 129.16 143"><defs><style>.cls-1{fill:#79bbce;}.cls-2{fill:none;stroke:#79bbce;stroke-miterlimit:10;stroke-width:2.72px;}</style></defs><title>Home_and_garden_tools_icon</title><path class="cls-1" d="M42.9,98h0c-5.46.18-9.82-3.41-9.7-8l1.07-41c.12-4.57,4.68-8.46,10.14-8.64h0c5.46-.18,9.82,3.41,9.7,8L53,89.31C52.92,93.88,48.35,97.77,42.9,98Z" transform="translate(-16.03 -10)"/><rect class="cls-1" x="17.3" y="80.52" width="8" height="61.09"/><polygon class="cls-1" points="43.31 140.93 35.37 141.89 28.63 81.2 36.57 80.25 43.31 140.93"/><ellipse class="cls-1" cx="29.3" cy="15.27" rx="14.67" ry="15.27"/><polygon class="cls-1" points="4.8 76.18 0 73.54 19.11 35.85 23.91 38.49 4.8 76.18"/><polygon class="cls-1" points="61.16 70.4 56.89 73.73 32.12 39.28 36.39 35.95 61.16 70.4"/><rect class="cls-1" x="57.31" y="30.54" width="4" height="106.9"/><rect class="cls-1" x="42.64" y="134.67" width="33.34" height="4.17"/><line class="cls-2" x1="74.64" y1="137.45" x2="74.64" y2="143"/><line class="cls-2" x1="42.64" y1="137.45" x2="42.64" y2="143"/><line class="cls-2" x1="58.64" y1="137.45" x2="58.64" y2="143"/><line class="cls-2" x1="63.97" y1="137.45" x2="63.97" y2="143"/><line class="cls-2" x1="69.31" y1="137.45" x2="69.31" y2="143"/><line class="cls-2" x1="47.97" y1="137.45" x2="47.97" y2="143"/><line class="cls-2" x1="53.3" y1="137.45" x2="53.3" y2="143"/><line class="cls-2" x1="58.64" y1="137.45" x2="58.64" y2="143"/><path class="cls-1" d="M118.31,99h0c5.46.18,9.82-3.41,9.7-8l-1.07-41c-.12-4.57-4.68-8.46-10.14-8.64h0c-5.46-.18-9.82,3.41-9.7,8l1.07,41C108.29,94.88,112.86,98.77,118.31,99Z" transform="translate(-16.03 -10)"/><rect class="cls-1" x="119.88" y="91.52" width="8" height="61.09" transform="translate(231.74 234.14) rotate(-180)"/><polygon class="cls-1" points="85.84 141.93 93.79 142.89 100.53 82.2 92.58 81.25 85.84 141.93"/><ellipse class="cls-1" cx="99.86" cy="16.27" rx="14.67" ry="15.27"/><polygon class="cls-1" points="124.35 77.18 129.16 74.54 110.05 36.85 105.24 39.49 124.35 77.18"/><polygon class="cls-1" points="68 71.4 72.27 74.73 97.04 40.28 92.77 36.95 68 71.4"/></svg>