<svg id="Layer_1" data-name="Layer 1" xmlns="http://www.w3.org/2000/svg" viewBox="0 0 110.95 118"><defs><style>.cls-1{fill:#79bbce;}.cls-2{fill:none;stroke:#fff;stroke-miterlimit:10;stroke-width:3.06px;}.cls-3{fill:#fff;}</style></defs><title>Household_waste_recycling_collection_icon</title><rect class="cls-1" y="37.42" width="110.95" height="10.23"/><path class="cls-1" d="M124.18,75.85H28.49S31.68,143,35.93,143h87.19c4.25,0,7.44-67.15,7.44-67.15H34.87" transform="translate(-24.05 -25)"/><path class="cls-2" d="M75.47,130.92c-12.07,0-21.85-10.81-21.85-24.14S63.4,82.65,75.47,82.65s21.85,10.81,21.85,24.14" transform="translate(-24.05 -25)"/><polygon class="cls-3" points="73.24 82.19 82 82.19 77.62 90.3 73.24 98.41 68.86 90.3 64.47 82.19 73.24 82.19"/><path class="cls-1" d="M80.13,40.67c-23.64,0-42.81,8.3-42.81,18.55h85.62C122.94,49,103.77,40.67,80.13,40.67Z" transform="translate(-24.05 -25)"/><path class="cls-1" d="M80.49,35.66c5.21,8.2,6.31,17.09,2.44,19.85S71.71,53.88,66.5,45.68s-6.31-17.09-2.44-19.85S75.28,27.47,80.49,35.66Z" transform="translate(-24.05 -25)"/><path class="cls-1" d="M93.33,47.59c-7.2,6.28-15.44,8.28-18.4,4.46s.47-12,7.67-18.29S98,25.47,101,29.29,100.53,41.3,93.33,47.59Z" transform="translate(-24.05 -25)"/><path class="cls-3" d="M72.34,52.18c-5.21-8.2-7.08-16.54-4.16-18.62s9.51,2.87,14.72,11.07" transform="translate(-24.05 -25)"/><path class="cls-3" d="M81.73,40.55c7-6.59,14.21-10,16.21-7.64s-2,9.64-9,16.23" transform="translate(-24.05 -25)"/><path class="cls-1" d="M100.61,44.34a40.35,40.35,0,0,0-5.75-1.65c2.61-1.87,5-5.1,4.17-8.45a4.86,4.86,0,0,0-.23-.69,5.72,5.72,0,0,0-.38-1.2.48.48,0,0,0-.65-.28c-1.57-1.4-4.1-1.37-6-.44-.5.24-1,.51-1.52.82a12.37,12.37,0,0,0-2.05,1.31.59.59,0,0,0-1-.3,15.5,15.5,0,0,0-2.58,3.42.43.43,0,0,0-.39,0,5.85,5.85,0,0,0-1.37,1.21.56.56,0,0,0-.82-.36l0-.09c-.32-.75-1.36-.1-1,.65l.17.39a.59.59,0,0,0,0,.61l.67,1.17a5.35,5.35,0,0,0,0,.56.48.48,0,0,0-.61-.21l-.74.25a3.34,3.34,0,0,0,0-.4v0a.52.52,0,0,0,.47-.85l-.23-.26s0,0,0,0h0a1.43,1.43,0,0,0-.45-2.12.49.49,0,0,0-.5,0,3.26,3.26,0,0,0-1.35,3.4,2.74,2.74,0,0,0,.14.85c-.39.1-.78.19-1.18.26-.89.07-1.78.13-2.68.22A10.13,10.13,0,0,1,71,41.43,9,9,0,0,1,66.82,38c-.42-.63-2.64-5.65-.36-5.71.77,0,.78-1.3,0-1.28-3.72.09-1.81,5.76-.42,8-.48-.27-1.09.4-.77.9a13,13,0,0,0,1.82,2.21c-.54-.1-.91.75-.41,1.17a.76.76,0,0,0-.12.26.69.69,0,0,0-.26,1h-.07c-.76.16-.44,1.4.32,1.23h.08a.63.63,0,0,0,.56.8l.28,0a.68.68,0,0,0,.58.6h.15c-.4.35-.32,1.16.33,1.12l.26,0c-.58.46-1.16.93-1.73,1.41l-1,0A.66.66,0,0,0,65.7,51c-.42.36-.84.72-1.25,1.09a.66.66,0,0,0,.27,1.07,5.41,5.41,0,0,0,3,.26l.36.06c-1.8.28-3.59.58-5.38.94-.76.15-.44,1.39.32,1.23,3.36-.67,6.73-1.18,10.11-1.56,0,.28.15.58.48.53l.13,0h0l.1,0a15.91,15.91,0,0,0,2.08-.44l.64-.11h.73c.93.07,1.85.1,2.78.09Q75.88,56,71.86,58.22a.5.5,0,0,0,.39.91c2.62-.88,7.16-1.85,8.86-4.42l.62-.27c-.26.5.25,1.25.81.87l2.51-1.69c1.59-.1,3.16-.19,4.71-.24a.64.64,0,0,0,0-1.28c-2.6-.08-5.2-.07-7.79,0,.07-.45.12-.91.16-1.37l7.06-.15a.65.65,0,0,0,.37-1.13c.51,0,1,0,1.53,0a.62.62,0,0,0,.57-.7.67.67,0,0,0-.39-.9c.34-.05.69-.11,1-.18.53-.11.53-.7.24-1h.13a.55.55,0,0,0,.57-.66.56.56,0,0,0-.41-.71l-.9-.21H92l.17,0q1.81.29,3.61.67a.58.58,0,0,0,.18,0,1.7,1.7,0,0,1,.15.54c.08.81,1.29.82,1.21,0a2.82,2.82,0,0,0-1-2,39.05,39.05,0,0,1,4,1.21C101,45.85,101.34,44.62,100.61,44.34Zm-19.7,7.83-2,.1a.51.51,0,0,0-.37-.22l1-.14A.69.69,0,0,0,80,50.83l1.11,0C81.07,51.25,81,51.72,80.91,52.18Zm1.83-6.72a.56.56,0,0,0,.12-.05l.63,0a.58.58,0,0,0,.55-.56l.38.81a.5.5,0,0,0,.64.29.82.82,0,0,0,0,.09l-2.42.3Zm3.69,2.81c-1.05.05-2.1.15-3.14.27a.43.43,0,0,0-.47-.54l-.4,0,.05-.42c1.29-.18,2.59-.35,3.89-.49a.71.71,0,0,0,.11.8A.65.65,0,0,0,86.43,48.27Zm4.89-6.63c-.39.14-.78.22-1.17.32-1.87-.2-3.75-.29-5.64-.31l.2-1.6c1-2.38,3-4.09,5-5.63l.6-.45c2.59-1.43,6.42-2.61,5.81,2.43a7.54,7.54,0,0,1-2.12,3.87A12.25,12.25,0,0,1,91.32,41.64Z" transform="translate(-24.05 -25)"/></svg>