<?xml version="1.0" encoding="utf-8"?>
<!-- Generator: Adobe Illustrator 21.1.0, SVG Export Plug-In . SVG Version: 6.00 Build 0)  -->
<svg version="1.1" id="Layer_1" xmlns="http://www.w3.org/2000/svg" xmlns:xlink="http://www.w3.org/1999/xlink" x="0px" y="0px"
	 viewBox="0 0 162 162" style="enable-background:new 0 0 162 162;" xml:space="preserve">
<style type="text/css">
	.st0{fill:#102773;}
	.st1{fill:none;stroke:#FFFFFF;stroke-width:3.0621;stroke-miterlimit:10;}
	.st2{fill:#FFFFFF;}
</style>
<rect x="24.1" y="62.4" class="st0" width="110.9" height="10.2"/>
<g>
	<path class="st0" d="M124.2,75.8H28.5c0,0,3.2,67.2,7.4,67.2h87.2c4.3,0,7.4-67.2,7.4-67.2H34.9"/>
</g>
<g>
	<path class="st1" d="M75.5,130.9c-12.1,0-21.8-10.8-21.8-24.1s9.8-24.1,21.8-24.1s21.8,10.8,21.8,24.1"/>
	<polygon class="st2" points="97.3,107.2 106.1,107.2 101.7,115.3 97.3,123.4 92.9,115.3 88.5,107.2 	"/>
</g>
<path class="st0" d="M80.1,40.7c-23.6,0-42.8,8.3-42.8,18.5h85.6C122.9,49,103.8,40.7,80.1,40.7z"/>
<path class="st0" d="M80.5,35.7c5.2,8.2,6.3,17.1,2.4,19.9c-3.9,2.8-11.2-1.6-16.4-9.8c-5.2-8.2-6.3-17.1-2.4-19.9
	C67.9,23.1,75.3,27.5,80.5,35.7z"/>
<path class="st0" d="M93.3,47.6c-7.2,6.3-15.4,8.3-18.4,4.5c-3-3.8,0.5-12,7.7-18.3S98,25.5,101,29.3S100.5,41.3,93.3,47.6z"/>
<path class="st2" d="M72.3,52.2c-5.2-8.2-7.1-16.5-4.2-18.6c2.9-2.1,9.5,2.9,14.7,11.1"/>
<path class="st2" d="M81.7,40.5c7-6.6,14.2-10,16.2-7.6c2,2.4-2,9.6-9,16.2"/>
<path class="st0" d="M100.6,44.3c-1.9-0.7-3.8-1.2-5.7-1.6c2.6-1.9,5-5.1,4.2-8.5c-0.1-0.2-0.1-0.5-0.2-0.7
	c-0.1-0.4-0.2-0.8-0.4-1.2C98.3,32,98,32,97.8,32.1c-1.6-1.4-4.1-1.4-6-0.4c-0.5,0.2-1,0.5-1.5,0.8c-0.7,0.4-1.4,0.8-2.1,1.3
	c-0.1-0.4-0.6-0.7-1-0.3c-1,1-1.9,2.2-2.6,3.4c-0.1,0-0.3,0-0.4,0c-0.5,0.4-1,0.8-1.4,1.2c-0.1-0.4-0.5-0.5-0.8-0.4c0,0,0-0.1,0-0.1
	c-0.3-0.8-1.4-0.1-1,0.6c0.1,0.1,0.1,0.3,0.2,0.4c-0.1,0.2-0.1,0.4,0,0.6c0.2,0.4,0.4,0.8,0.7,1.2c0,0.2,0,0.4,0,0.6
	c-0.1-0.2-0.3-0.3-0.6-0.2c-0.2,0.1-0.5,0.2-0.7,0.3c0-0.1,0-0.3,0-0.4c0,0,0,0,0,0c0.4,0.1,0.8-0.5,0.5-0.8
	c-0.1-0.1-0.2-0.2-0.2-0.3c0,0,0,0,0,0c0,0,0,0,0,0c0.5-0.7,0.3-1.7-0.4-2.1c-0.1-0.1-0.4-0.1-0.5,0c-1.2,0.8-1.6,2.2-1.3,3.4
	c0,0.3,0.1,0.6,0.1,0.8c-0.4,0.1-0.8,0.2-1.2,0.3c-0.9,0.1-1.8,0.1-2.7,0.2c-1.2,0-2.5-0.2-3.6-0.7c-1.7-0.7-3.1-1.8-4.2-3.4
	c-0.4-0.6-2.6-5.7-0.4-5.7c0.8,0,0.8-1.3,0-1.3c-3.7,0.1-1.8,5.8-0.4,8c-0.5-0.3-1.1,0.4-0.8,0.9c0.5,0.8,1.2,1.5,1.8,2.2
	c-0.5-0.1-0.9,0.7-0.4,1.2c-0.1,0.1-0.1,0.2-0.1,0.3c-0.4,0.2-0.5,0.7-0.3,1c0,0,0,0-0.1,0c-0.8,0.2-0.4,1.4,0.3,1.2
	c0,0,0.1,0,0.1,0c-0.1,0.3,0.1,0.7,0.6,0.8c0.1,0,0.2,0,0.3,0c0,0.3,0.3,0.6,0.6,0.6c0,0,0.1,0,0.1,0c-0.4,0.4-0.3,1.2,0.3,1.1
	c0.1,0,0.2,0,0.3,0c-0.6,0.5-1.2,0.9-1.7,1.4c-0.3,0-0.7,0-1,0c-0.6,0-0.7,0.8-0.4,1.1c-0.4,0.4-0.8,0.7-1.3,1.1
	c-0.4,0.3-0.1,0.9,0.3,1.1c1,0.4,2,0.4,3,0.3c0.1,0,0.2,0,0.4,0.1c-1.8,0.3-3.6,0.6-5.4,0.9c-0.8,0.2-0.4,1.4,0.3,1.2
	c3.4-0.7,6.7-1.2,10.1-1.6c0,0.3,0.1,0.6,0.5,0.5c0,0,0.1,0,0.1,0c0,0,0,0,0,0c0,0,0.1,0,0.1,0c0.7-0.1,1.4-0.3,2.1-0.4
	c0.2,0,0.4-0.1,0.6-0.1c0.2,0,0.5,0,0.7,0c0.9,0.1,1.9,0.1,2.8,0.1c-2.8,1.3-5.5,2.6-8.2,4.1c-0.5,0.3-0.2,1.1,0.4,0.9
	c2.6-0.9,7.2-1.9,8.9-4.4c0.2-0.1,0.4-0.2,0.6-0.3c-0.3,0.5,0.3,1.2,0.8,0.9c0.8-0.6,1.7-1.1,2.5-1.7c1.6-0.1,3.2-0.2,4.7-0.2
	c0.8,0,0.8-1.3,0-1.3c-2.6-0.1-5.2-0.1-7.8,0c0.1-0.5,0.1-0.9,0.2-1.4c2.4,0,4.7-0.1,7.1-0.1c0.6,0,0.7-0.8,0.4-1.1c0.5,0,1,0,1.5,0
	c0.4,0,0.6-0.4,0.6-0.7c0.1-0.3,0-0.8-0.4-0.9c0.3-0.1,0.7-0.1,1-0.2c0.5-0.1,0.5-0.7,0.2-1l0.1,0c0.4,0,0.6-0.3,0.6-0.7
	c0.1-0.3-0.1-0.6-0.4-0.7c-0.3-0.1-0.6-0.1-0.9-0.2l0,0c0,0,0,0,0.1,0c0.1,0,0.1,0,0.2,0c1.2,0.2,2.4,0.4,3.6,0.7c0.1,0,0.1,0,0.2,0
	c0.1,0.2,0.1,0.3,0.2,0.5c0.1,0.8,1.3,0.8,1.2,0c-0.1-0.9-0.5-1.5-1-2c1.3,0.3,2.6,0.7,4,1.2C101,45.9,101.3,44.6,100.6,44.3z
	 M80.9,52.2c-0.7,0-1.3,0.1-2,0.1c-0.1-0.1-0.2-0.2-0.4-0.2c0.3,0,0.7-0.1,1-0.1c0.6-0.1,0.7-0.7,0.4-1.1c0.4,0,0.7,0,1.1,0
	C81.1,51.2,81,51.7,80.9,52.2z M82.7,45.5c0,0,0.1,0,0.1-0.1c0.2,0,0.4,0,0.6,0c0.3,0,0.5-0.3,0.5-0.6c0.1,0.3,0.3,0.5,0.4,0.8
	c0.1,0.3,0.4,0.4,0.6,0.3c0,0,0,0.1,0,0.1c-0.8,0.1-1.6,0.2-2.4,0.3C82.7,46,82.7,45.7,82.7,45.5z M86.4,48.3
	c-1.1,0.1-2.1,0.2-3.1,0.3c0-0.3-0.1-0.6-0.5-0.5c-0.1,0-0.3,0-0.4,0c0-0.1,0-0.3,0.1-0.4c1.3-0.2,2.6-0.4,3.9-0.5
	c-0.1,0.3-0.1,0.6,0.1,0.8C86.4,48,86.4,48.1,86.4,48.3z M91.3,41.6c-0.4,0.1-0.8,0.2-1.2,0.3c-1.9-0.2-3.8-0.3-5.6-0.3
	c0.1-0.5,0.1-1.1,0.2-1.6c1-2.4,3-4.1,5-5.6c0.2-0.2,0.4-0.3,0.6-0.5c2.6-1.4,6.4-2.6,5.8,2.4c-0.2,1.4-1.1,2.7-2.1,3.9
	C93.2,40.8,92.3,41.3,91.3,41.6z"/>
</svg>
