<svg id="Layer_1" data-name="Layer 1" xmlns="http://www.w3.org/2000/svg" viewBox="0 0 130.97 143"><defs><style>.cls-1,.cls-6{fill:none;stroke:#79bbce;}.cls-1,.cls-3,.cls-6{stroke-miterlimit:10;}.cls-1{stroke-width:3px;}.cls-2{fill:#79bbce;}.cls-3,.cls-4{fill:#f9f9f9;}.cls-3{stroke:#f9f9f9;stroke-width:0.13px;}.cls-5{fill:#fff;}.cls-6{stroke-width:2.72px;}</style></defs><title>Locally_grown_food_icon</title><line class="cls-1" x1="78.97" y1="141.5" x2="130.97" y2="141.5"/><line class="cls-1" x1="104.47" y1="142" x2="104.47" y2="102"/><path class="cls-2" d="M143.67,115a19.07,19.07,0,0,0-19.51-1.94A5.07,5.07,0,0,0,123,110.5a4.68,4.68,0,1,0-.61,6.92c0,.12.08.23.12.35a7.33,7.33,0,0,0,7.82,5.08c2.89-.28,4.89-2.17,6.93-4l.52-.45c1.68-1.44,3.44-2.72,5.79-2.9C143.83,115.52,143.87,115.15,143.67,115Zm-16.09,4.72a12.07,12.07,0,0,0,2,.11,10.11,10.11,0,0,0,2.12-.29A7.58,7.58,0,0,1,127.58,119.72Z" transform="translate(-15.03 -10)"/><path class="cls-3" d="M139,113.84a35.44,35.44,0,0,0-11.49.25c-1.07.19-1.28,1.61-.21,1.42a34.12,34.12,0,0,1,11.07-.26C139.38,115.4,140,114,139,113.84Z" transform="translate(-15.03 -10)"/><path class="cls-2" d="M96,115a19.07,19.07,0,0,0,19.6-.49,5.07,5.07,0,0,0,1.46,2.39,4.68,4.68,0,1,0-.26-6.94c-.05-.11-.11-.22-.16-.33a7.33,7.33,0,0,0-8.39-4.07c-2.83.64-4.58,2.76-6.38,4.79l-.46.51c-1.49,1.64-3.07,3.13-5.38,3.6C95.74,114.49,95.74,114.86,96,115Zm15.38-6.68a12.07,12.07,0,0,0-2,.14,10.11,10.11,0,0,0-2.07.55A7.58,7.58,0,0,1,111.34,108.31Z" transform="translate(-15.03 -10)"/><path class="cls-4" d="M114.1,108.87c-3.65-3.25-7.81.27-10.31,3.1-.42.48.28,1.19.71.71,2.07-2.35,5.7-5.95,8.89-3.1C113.87,110,114.58,109.3,114.1,108.87Z" transform="translate(-15.03 -10)"/><path class="cls-2" d="M129.17,103.17c-.23-2.89-2.09-4.92-3.84-7l-.44-.52c-1.41-1.7-2.67-3.48-2.81-5.83,0-.27-.39-.31-.54-.11a19.07,19.07,0,0,0-2.27,19.47,5.07,5.07,0,0,0-2.58,1.11,4.68,4.68,0,1,0,6.91.72l.35-.11A7.33,7.33,0,0,0,129.17,103.17Zm-3.18,2.7a12.08,12.08,0,0,0,.14-2,10.11,10.11,0,0,0-.25-2.12A7.58,7.58,0,0,1,126,105.87Z" transform="translate(-15.03 -10)"/><path class="cls-5" d="M122.32,107.22a19.49,19.49,0,0,1-.15-11.44.5.5,0,0,0-1-.27,20.51,20.51,0,0,0,.15,12C121.55,108.1,122.52,107.84,122.32,107.22Z" transform="translate(-15.03 -10)"/><path class="cls-2" d="M41.9,98h0c-5.46.18-9.82-3.41-9.7-8l1.07-41c.12-4.57,4.68-8.46,10.14-8.64h0c5.46-.18,9.82,3.41,9.7,8L52,89.31C51.92,93.88,47.35,97.77,41.9,98Z" transform="translate(-15.03 -10)"/><rect class="cls-2" x="17.3" y="80.52" width="8" height="61.09"/><polygon class="cls-2" points="43.31 140.93 35.37 141.89 28.63 81.2 36.57 80.25 43.31 140.93"/><ellipse class="cls-2" cx="29.3" cy="15.27" rx="14.67" ry="15.27"/><polygon class="cls-2" points="4.8 76.18 0 73.54 19.11 35.85 23.91 38.49 4.8 76.18"/><polygon class="cls-2" points="61.16 70.4 56.89 73.73 32.12 39.28 36.39 35.95 61.16 70.4"/><rect class="cls-2" x="57.31" y="30.54" width="4" height="106.9"/><rect class="cls-2" x="42.64" y="134.67" width="33.34" height="4.17"/><line class="cls-6" x1="74.64" y1="137.45" x2="74.64" y2="143"/><line class="cls-6" x1="42.64" y1="137.45" x2="42.64" y2="143"/><line class="cls-6" x1="58.64" y1="137.45" x2="58.64" y2="143"/><line class="cls-6" x1="63.97" y1="137.45" x2="63.97" y2="143"/><line class="cls-6" x1="69.31" y1="137.45" x2="69.31" y2="143"/><line class="cls-6" x1="47.97" y1="137.45" x2="47.97" y2="143"/><line class="cls-6" x1="53.3" y1="137.45" x2="53.3" y2="143"/><line class="cls-6" x1="58.64" y1="137.45" x2="58.64" y2="143"/></svg>