<?xml version="1.0" encoding="utf-8"?>
<!-- Generator: Adobe Illustrator 21.1.0, SVG Export Plug-In . SVG Version: 6.00 Build 0)  -->
<svg version="1.1" id="Layer_1" xmlns="http://www.w3.org/2000/svg" xmlns:xlink="http://www.w3.org/1999/xlink" x="0px" y="0px"
	 viewBox="0 0 162 162" style="enable-background:new 0 0 162 162;" xml:space="preserve">
<style type="text/css">
	.st0{fill:none;stroke:#102773;stroke-width:3;stroke-miterlimit:10;}
	.st1{fill:#102773;}
	.st2{fill:#F9F9F9;stroke:#F9F9F9;stroke-width:0.1269;stroke-miterlimit:10;}
	.st3{fill:#F9F9F9;}
	.st4{fill:#FFFFFF;}
	.st5{fill:none;stroke:#102773;stroke-width:2.7213;stroke-miterlimit:10;}
	.st6{fill:none;stroke:#79BBCE;stroke-width:2.7213;stroke-miterlimit:10;}
</style>
<line class="st0" x1="94" y1="151.5" x2="146" y2="151.5"/>
<line class="st0" x1="119.5" y1="152" x2="119.5" y2="112"/>
<path class="st1" d="M143.7,115c-5.8-4.2-13.4-5-19.5-1.9c-0.1-0.9-0.5-1.8-1.2-2.6c-1.8-2.1-4.8-2.4-6.7-0.7
	c-2,1.7-2.1,4.7-0.4,6.8c1.7,2,4.6,2.4,6.5,0.9c0,0.1,0.1,0.2,0.1,0.4c0.9,3.3,4.4,5.4,7.8,5.1c2.9-0.3,4.9-2.2,6.9-4
	c0.2-0.1,0.3-0.3,0.5-0.4c1.7-1.4,3.4-2.7,5.8-2.9C143.8,115.5,143.9,115.1,143.7,115z M127.6,119.7c0.7,0.1,1.4,0.1,2,0.1
	c0.7,0,1.4-0.1,2.1-0.3C130.4,120,128.9,120.1,127.6,119.7z"/>
<path class="st2" d="M139,113.8c-3.7-0.5-7.5-0.5-11.5,0.3c-1.1,0.2-1.3,1.6-0.2,1.4c3.8-0.7,7.5-0.8,11.1-0.3
	C139.4,115.4,140,114,139,113.8z"/>
<path class="st1" d="M96,115c6.2,3.5,13.9,3.3,19.6-0.5c0.2,0.9,0.7,1.7,1.5,2.4c2,1.8,5,1.8,6.8-0.1s1.5-4.9-0.4-6.8
	c-1.9-1.8-4.8-1.8-6.6-0.1c-0.1-0.1-0.1-0.2-0.2-0.3c-1.4-3.2-5-4.8-8.4-4.1c-2.8,0.6-4.6,2.8-6.4,4.8c-0.2,0.2-0.3,0.3-0.5,0.5
	c-1.5,1.6-3.1,3.1-5.4,3.6C95.7,114.5,95.7,114.9,96,115z M111.3,108.3c-0.7,0-1.4,0-2,0.1c-0.7,0.1-1.4,0.3-2.1,0.6
	C108.5,108.4,110,108.1,111.3,108.3z"/>
<path class="st3" d="M114.1,108.9c-3.6-3.2-7.8,0.3-10.3,3.1c-0.4,0.5,0.3,1.2,0.7,0.7c2.1-2.3,5.7-5.9,8.9-3.1
	C113.9,110,114.6,109.3,114.1,108.9z"/>
<path class="st1" d="M129.2,103.2c-0.2-2.9-2.1-4.9-3.8-7c-0.1-0.2-0.3-0.4-0.4-0.5c-1.4-1.7-2.7-3.5-2.8-5.8c0-0.3-0.4-0.3-0.5-0.1
	c-4.3,5.7-5.2,13.3-2.3,19.5c-0.9,0.1-1.8,0.5-2.6,1.1c-2.1,1.7-2.5,4.7-0.9,6.7s4.7,2.2,6.8,0.5c2-1.7,2.4-4.5,1-6.5
	c0.1,0,0.2-0.1,0.4-0.1C127.3,110,129.4,106.6,129.2,103.2z M126,105.9c0.1-0.7,0.1-1.4,0.1-2c0-0.7-0.1-1.4-0.3-2.1
	C126.3,103.1,126.3,104.6,126,105.9z"/>
<path class="st4" d="M122.3,107.2c-1.2-3.8-1.2-7.6-0.1-11.4c0.2-0.6-0.8-0.9-1-0.3c-1.1,4-1.1,8,0.1,12
	C121.6,108.1,122.5,107.8,122.3,107.2z"/>
<path class="st1" d="M41.9,98L41.9,98c-5.5,0.2-9.8-3.4-9.7-8l1.1-41c0.1-4.6,4.7-8.5,10.1-8.6h0c5.5-0.2,9.8,3.4,9.7,8l-1.1,41
	C51.9,93.9,47.4,97.8,41.9,98z"/>
<rect x="32.3" y="90.5" class="st1" width="8" height="61.1"/>
<polygon class="st1" points="58.3,150.9 50.4,151.9 43.7,91.2 51.6,90.2 "/>
<ellipse class="st1" cx="44.3" cy="25.3" rx="14.7" ry="15.3"/>
<polygon class="st1" points="19.8,86.2 15,83.5 34.1,45.8 38.9,48.5 "/>
<polygon class="st1" points="76.2,80.4 71.9,83.7 47.1,49.3 51.4,45.9 "/>
<rect x="72.3" y="40.5" class="st1" width="4" height="106.9"/>
<rect x="57.7" y="144.7" class="st1" width="33.3" height="4.2"/>
<line class="st5" x1="89.7" y1="147.4" x2="89.7" y2="153"/>
<line class="st5" x1="57.7" y1="147.4" x2="57.7" y2="153"/>
<line class="st6" x1="73.7" y1="147.4" x2="73.7" y2="153"/>
<line class="st5" x1="79" y1="147.4" x2="79" y2="153"/>
<line class="st5" x1="84.3" y1="147.4" x2="84.3" y2="153"/>
<line class="st5" x1="63" y1="147.4" x2="63" y2="153"/>
<line class="st5" x1="68.3" y1="147.4" x2="68.3" y2="153"/>
<line class="st5" x1="73.7" y1="147.4" x2="73.7" y2="153"/>
</svg>
