<svg xmlns="http://www.w3.org/2000/svg" viewBox="0 0 148.43 148.43"><defs><style>.cls-1,.cls-12,.cls-13,.cls-14,.cls-15,.cls-16,.cls-17,.cls-2,.cls-5,.cls-6,.cls-7,.cls-8,.cls-9{fill:#79bbce;}.cls-16,.cls-17,.cls-2,.cls-5,.cls-6,.cls-7,.cls-8,.cls-9{stroke:#fcfcfc;}.cls-10,.cls-11,.cls-12,.cls-13,.cls-14,.cls-15,.cls-16,.cls-17,.cls-18,.cls-2,.cls-4,.cls-5,.cls-6,.cls-7,.cls-8,.cls-9{stroke-miterlimit:10;}.cls-2,.cls-4{stroke-width:0.77px;}.cls-3{fill:#fcfcfc;}.cls-10,.cls-11,.cls-18,.cls-4{fill:none;}.cls-10,.cls-4{stroke:#fff;}.cls-5{stroke-width:0.68px;}.cls-6{stroke-width:0.88px;}.cls-7{stroke-width:0.84px;}.cls-8{stroke-width:0.89px;}.cls-10,.cls-9{stroke-width:0.67px;}.cls-11,.cls-12,.cls-13,.cls-14,.cls-18{stroke:#79bbce;}.cls-11{stroke-width:3.87px;}.cls-12{stroke-width:0.16px;}.cls-13{stroke-width:0.15px;}.cls-14{stroke-width:0.17px;}.cls-15{stroke:#fcfafa;stroke-width:1.76px;}.cls-16{stroke-width:0.73px;}.cls-17{stroke-width:0.77px;}.cls-18{stroke-width:3.93px;}</style></defs><title>Skills_exchange_events_icon</title><g id="Layer_1" data-name="Layer 1"><path class="cls-1" d="M13.9,62.52a1.76,1.76,0,0,1,.54-1,19.71,19.71,0,0,1,.78-2.74,5.44,5.44,0,0,1,.06-1c.26-1.63.59-3.24,1-4.84a3.74,3.74,0,0,1,.82-1.62,4.06,4.06,0,0,1,.8-2.65,1.7,1.7,0,0,1,0-1,2,2,0,0,1,2.37-1.33l.07,0a2,2,0,0,1,1.19,1l0,0a3.82,3.82,0,0,1,1.21.36q4,1.21,8.12,2.35l.34.11.63.14c1.18.26,2.63.41,4,.77a9.83,9.83,0,0,1,4.55-4.85c4.45-2.28,12-1.18,16.32.88,4.1,1.94,1.07,7.64-2.9,6.93a4.11,4.11,0,0,1,0,.65l-.08.47a2.93,2.93,0,0,1-.9,1.65,43,43,0,0,0-2,7.52l4.66,1.5a3.93,3.93,0,0,1,2,6,.38.38,0,0,1-.45.58,3.49,3.49,0,0,1-.51.43,4.47,4.47,0,0,1-1.79,4.38c.87,2.28-.29,5.41-3.46,5.38A44.47,44.47,0,0,1,41.31,81c-2.52-.6-5-1.11-7.14-2.63-.11,0-.22,0-.33-.06a3.85,3.85,0,0,1-.91-.4,3.88,3.88,0,0,1-2.31-1.82,4,4,0,0,1-.35-2.92l0-.07,0,0a11.57,11.57,0,0,1-.4-1.78c-4.91-1.53-10-2.24-14.83-4.07a1.87,1.87,0,0,1-1.71-1,2,2,0,0,1,.16-2.12Z" transform="translate(-8.53 -6.53)"/><circle class="cls-2" cx="31.28" cy="61.67"/><path class="cls-3" d="M58.05,47.24c-6.78-1-18.75-5.08-21.9,4.13-.16.47-.9.26-.74-.21,3.33-9.74,15.6-5.72,22.85-4.66C58.75,46.57,58.53,47.31,58.05,47.24Z" transform="translate(-8.53 -6.53)"/><path class="cls-3" d="M49.95,55.24c-.46-.12-1-.46-1.44-.13A9.3,9.3,0,0,0,48,57a27.14,27.14,0,0,1-1.12,3,14.45,14.45,0,0,1-3.65,5.17,12.06,12.06,0,0,1-10.5,2.51c-.48-.11-.27-.85.21-.74a11.24,11.24,0,0,0,10.18-2.7c2.75-2.61,3.9-6.38,4.8-9.95A.39.39,0,0,1,48.4,54l1.76.48A.38.38,0,0,1,49.95,55.24Z" transform="translate(-8.53 -6.53)"/><path class="cls-3" d="M30.44,71.89c-.84,5.16,4.87,7.28,8.83,8.24,4.41,1.07,8.83,2.07,13.24,3.11.48.11.27.85-.21.74l-8.89-2.08a54.45,54.45,0,0,1-8.21-2.18c-3.3-1.35-6.13-4.24-5.51-8C29.78,71.19,30.52,71.41,30.44,71.89Z" transform="translate(-8.53 -6.53)"/><line class="cls-4" x1="21.92" y1="65" x2="3.42" y2="59.73"/><line class="cls-4" x1="27.73" y1="44.65" x2="9.23" y2="39.38"/><line class="cls-4" x1="9.82" y1="40.04" x2="4.18" y2="60.04"/><polygon class="cls-5" points="36.48 86.57 43.35 89.26 66.6 33.69 59.73 30.99 36.48 86.57"/><path class="cls-6" d="M66.2,44.93a12.32,12.32,0,0,0,11.2.52,9.59,9.59,0,0,0,5-11.74l-5.22,6.43-5.71-1.29" transform="translate(-8.53 -6.53)"/><path class="cls-6" d="M70.64,46.74a11.76,11.76,0,0,1-8.18-7.39A9.6,9.6,0,0,1,67.7,27.7l-1.16,8.09,4.94,3.06" transform="translate(-8.53 -6.53)"/><path class="cls-6" d="M46.93,95.93l5.64,2.31c-.92,3.55-1.63,7.56-.21,8.26,1.07.53,3-1,3.74-1.81,3.37-3.42,1.8-8.69,1.72-8.92-.19-.61-1.91-5.8-7.21-7.37A10.66,10.66,0,0,0,47.25,88" transform="translate(-8.53 -6.53)"/><path class="cls-6" d="M49.29,96.68l-5.71-2.14c-1.9,3.16-4.28,6.52-5.8,6.06-1.15-.34-1.39-2.71-1.38-3.82.05-4.72,5-7.44,5.19-7.56.58-.31,5.55-2.87,10.48-.42a10.32,10.32,0,0,1,2.71,2" transform="translate(-8.53 -6.53)"/><rect class="cls-7" x="64.1" y="49.29" width="7.19" height="20.39" rx="3.6" ry="3.6" transform="matrix(0.27, -0.96, 0.96, 0.27, -16.61, 101.75)"/><rect class="cls-8" x="61.4" y="57.36" width="7.99" height="20.39" rx="4" ry="4" transform="translate(-26.04 105.39) rotate(-74.09)"/><rect class="cls-7" x="59.5" y="65.43" width="7.19" height="20.39" rx="3.6" ry="3.6" transform="translate(-35.47 109.04) rotate(-74.09)"/><rect class="cls-7" x="57.82" y="73.62" width="6.39" height="18.62" rx="3.2" ry="3.2" transform="translate(-44 112.33) rotate(-74.09)"/><rect class="cls-2" x="44.89" y="51.36" width="21.55" height="12.31" rx="6.16" ry="6.16" transform="translate(-23.45 88.74) rotate(-74.09)"/><path class="cls-1" d="M153.81,100a1.53,1.53,0,0,0-.23-.93,17.16,17.16,0,0,0,0-2.48,4.73,4.73,0,0,0,.19-.86c.17-1.43.27-2.85.32-4.29a3.26,3.26,0,0,0-.31-1.55,3.53,3.53,0,0,0,0-2.41,1.48,1.48,0,0,0,.25-.87A1.7,1.7,0,0,0,152.31,85h-.06a1.73,1.73,0,0,0-1.23.55l0,0a3.33,3.33,0,0,0-1.1,0q-3.68.06-7.36,0h-.31l-.56,0c-1.05-.06-2.3-.27-3.5-.29a8.56,8.56,0,0,0-2.67-5.14c-3.19-3-9.77-3.82-13.88-3.12-3.89.66-2.7,6.15.79,6.5a3.58,3.58,0,0,0-.11.56l0,.41a2.55,2.55,0,0,0,.36,1.6,37.43,37.43,0,0,1-.13,6.76l-4.26.16a3.43,3.43,0,0,0-3.07,4.55.33.33,0,0,0,.24.59,3,3,0,0,0,.32.48,3.89,3.89,0,0,0,.47,4.09c-1.26,1.7-1,4.6,1.63,5.33a38.72,38.72,0,0,0,8.68,1,17,17,0,0,0,6.61-.51c.1,0,.19,0,.29,0a6.85,6.85,0,0,0,3.22-1.1,3.48,3.48,0,0,0,1-2.37V105s0,0,0,0a10.07,10.07,0,0,0,.76-1.4c4.48-.12,8.88.48,13.39.09a1.63,1.63,0,0,0,1.66-.4,1.75,1.75,0,0,0,.36-1.82Z" transform="translate(-8.53 -6.53)"/><circle class="cls-9" cx="122.22" cy="92.14"/><path class="cls-3" d="M120.42,76.79c5.92.76,16.91.17,17.38,8.63,0,.43.69.43.67,0-.49-8.95-11.72-8.48-18-9.3C120,76.07,120,76.74,120.42,76.79Z" transform="translate(-8.53 -6.53)"/><path class="cls-3" d="M125.32,85.41c.41,0,1-.14,1.24.23a8.1,8.1,0,0,1,0,1.67,23.63,23.63,0,0,0,.22,2.81,12.58,12.58,0,0,0,1.83,5.19,10.5,10.5,0,0,0,8.21,4.58c.43,0,.43-.65,0-.67a9.79,9.79,0,0,1-7.89-4.67c-1.69-2.83-1.76-6.27-1.68-9.47a.34.34,0,0,0-.34-.33h-1.59A.34.34,0,0,0,125.32,85.41Z" transform="translate(-8.53 -6.53)"/><path class="cls-3" d="M137.74,104c-.51,4.52-5.8,5-9.34,4.82-3.95-.15-7.89-.35-11.83-.53-.43,0-.43.65,0,.67l7.94.35a47.41,47.41,0,0,0,7.39.11c3.09-.35,6.14-2.11,6.51-5.43C138.46,103.54,137.79,103.55,137.74,104Z" transform="translate(-8.53 -6.53)"/><line class="cls-10" x1="129.27" y1="97.14" x2="146.02" y2="97.09"/><line class="cls-10" x1="129.22" y1="78.72" x2="145.97" y2="78.67"/><line class="cls-10" x1="145.31" y1="79.08" x2="145.31" y2="97.17"/><polygon class="cls-1" points="96.11 52.06 85.62 82.85 77.18 81.12 87.67 50.33 96.11 52.06"/><polygon class="cls-1" points="72.87 79.5 89.57 82.92 88.01 87.48 71.31 84.06 72.87 79.5"/><polygon class="cls-1" points="94.89 52.03 89.18 50.87 90.8 46.13 96.51 47.3 94.89 52.03"/><path class="cls-11" d="M98.47,72c9.76,0,17.67,9.12,17.67,20.38,0,10.8-7.28,19.63-16.48,20.34" transform="translate(-8.53 -6.53)"/><rect class="cls-12" x="67.3" y="104.49" width="26.29" height="3.52"/><rect class="cls-13" x="85.41" y="109.18" width="7.01" height="8.8"/><path class="cls-13" d="M79.33,138c0-6.8,8-12.32,17.82-12.32S115,131.2,115,138" transform="translate(-8.53 -6.53)"/><rect class="cls-14" x="67.3" y="98.04" width="22.78" height="4.11"/><ellipse class="cls-15" cx="90.08" cy="66.95" rx="6.72" ry="6.74"/><polygon class="cls-14" points="76.19 83.64 79.6 84.44 78.27 90.15 74.85 89.35 76.19 83.64"/><polygon class="cls-14" points="82.03 85.39 85.44 86.2 84.11 91.91 80.7 91.11 82.03 85.39"/><rect class="cls-16" x="106.31" y="75.91" width="6.26" height="17.75" rx="3.13" ry="3.13" transform="translate(16.46 187.95) rotate(-90.17)"/><rect class="cls-17" x="105.98" y="83.21" width="6.96" height="17.75" rx="3.48" ry="3.48" transform="translate(9.17 195.3) rotate(-90.17)"/><rect class="cls-16" x="106.35" y="90.52" width="6.26" height="17.75" rx="3.13" ry="3.13" transform="translate(1.89 202.65) rotate(-90.17)"/><rect class="cls-16" x="106.72" y="97.9" width="5.57" height="16.21" rx="2.78" ry="2.78" transform="translate(-4.7 209.3) rotate(-90.17)"/><rect class="cls-9" x="110.62" y="80.61" width="18.76" height="10.72" rx="5.36" ry="5.36" transform="translate(25.85 199.7) rotate(-90.17)"/><circle class="cls-18" cx="74.22" cy="74.22" r="72.25"/></g></svg>