<?xml version="1.0" encoding="utf-8"?>
<!-- Generator: Adobe Illustrator 21.1.0, SVG Export Plug-In . SVG Version: 6.00 Build 0)  -->
<svg version="1.1" xmlns="http://www.w3.org/2000/svg" xmlns:xlink="http://www.w3.org/1999/xlink" x="0px" y="0px"
	 viewBox="0 0 162 162" style="enable-background:new 0 0 162 162;" xml:space="preserve">
<style type="text/css">
	.st0{fill:#102773;}
	.st1{fill:#79BBCE;stroke:#FCFCFC;stroke-width:0.7695;stroke-miterlimit:10;}
	.st2{fill:#FCFCFC;}
	.st3{fill:none;stroke:#FFFFFF;stroke-width:0.7695;stroke-miterlimit:10;}
	.st4{fill:#102773;stroke:#FCFCFC;stroke-width:0.6844;stroke-miterlimit:10;}
	.st5{fill:#102773;stroke:#FCFCFC;stroke-width:0.8768;stroke-miterlimit:10;}
	.st6{fill:#102773;stroke:#FCFCFC;stroke-width:0.8417;stroke-miterlimit:10;}
	.st7{fill:#102773;stroke:#FCFCFC;stroke-width:0.8872;stroke-miterlimit:10;}
	.st8{fill:#102773;stroke:#FCFCFC;stroke-width:0.7695;stroke-miterlimit:10;}
	.st9{fill:#79BBCE;stroke:#FCFCFC;stroke-width:0.67;stroke-miterlimit:10;}
	.st10{fill:none;stroke:#FFFFFF;stroke-width:0.67;stroke-miterlimit:10;}
	.st11{fill:none;stroke:#102773;stroke-width:3.8731;stroke-miterlimit:10;}
	.st12{fill:#102773;stroke:#102773;stroke-width:0.1552;stroke-miterlimit:10;}
	.st13{fill:#102773;stroke:#102773;stroke-width:0.1463;stroke-miterlimit:10;}
	.st14{fill:#102773;stroke:#102773;stroke-width:0.1693;stroke-miterlimit:10;}
	.st15{fill:#102773;stroke:#FCFAFA;stroke-width:1.7561;stroke-miterlimit:10;}
	.st16{fill:#102773;stroke:#FCFCFC;stroke-width:0.7329;stroke-miterlimit:10;}
	.st17{fill:#102773;stroke:#FCFCFC;stroke-width:0.7725;stroke-miterlimit:10;}
	.st18{fill:#102773;stroke:#FCFCFC;stroke-width:0.67;stroke-miterlimit:10;}
	.st19{fill:none;stroke:#102773;stroke-width:3.932;stroke-miterlimit:10;}
</style>
<g id="colour">
</g>
<g id="Layer_1">
	<path class="st0" d="M13.9,62.5c0.1-0.4,0.3-0.7,0.5-1c0.2-0.9,0.5-1.8,0.8-2.7c0-0.3,0-0.7,0.1-1c0.3-1.6,0.6-3.2,1-4.8
		c0.2-0.7,0.5-1.2,0.8-1.6c-0.1-1,0.2-1.9,0.8-2.6c-0.1-0.3-0.1-0.7,0-1c0.3-1,1.3-1.6,2.4-1.3l0.1,0c0.5,0.1,0.9,0.5,1.2,1
		c0,0,0,0,0,0c0.5,0.1,0.9,0.2,1.2,0.4c2.7,0.8,5.4,1.6,8.1,2.3c0.1,0,0.2,0.1,0.3,0.1c0.2,0,0.4,0.1,0.6,0.1c1.2,0.3,2.6,0.4,4,0.8
		c0.9-2,2.3-3.7,4.5-4.9c4.4-2.3,12-1.2,16.3,0.9c4.1,1.9,1.1,7.6-2.9,6.9c0,0.2,0,0.4,0,0.7c0,0.2-0.1,0.3-0.1,0.5
		c-0.1,0.7-0.4,1.2-0.9,1.7c-1,2.4-1.4,5-2,7.5c1.6,0.5,3.1,1,4.7,1.5c2.9,0.9,3.2,4,2,6c0.2,0.3-0.1,0.7-0.4,0.6
		c-0.2,0.2-0.3,0.3-0.5,0.4c0.3,1.6-0.4,3.3-1.8,4.4c0.9,2.3-0.3,5.4-3.5,5.4c-3.4,0-6.6-0.8-9.9-1.6c-2.5-0.6-5-1.1-7.1-2.6
		c-0.1,0-0.2,0-0.3-0.1c-0.3-0.1-0.6-0.2-0.9-0.4c-0.9-0.3-1.8-0.9-2.3-1.8c-0.5-0.9-0.6-1.9-0.3-2.9l0-0.1c0,0,0,0,0,0
		c-0.2-0.6-0.3-1.2-0.4-1.8c-4.9-1.5-10-2.2-14.8-4.1c-0.7,0-1.4-0.3-1.7-1c-0.4-0.7-0.3-1.5,0.2-2.1C13.7,63.6,13.8,63.1,13.9,62.5
		z"/>
	<circle class="st1" cx="39.8" cy="68.2" r="0"/>
	<path class="st2" d="M58.1,47.2c-6.8-1-18.7-5.1-21.9,4.1c-0.2,0.5-0.9,0.3-0.7-0.2c3.3-9.7,15.6-5.7,22.8-4.7
		C58.7,46.6,58.5,47.3,58.1,47.2z"/>
	<path class="st2" d="M49.9,55.2c-0.5-0.1-1-0.5-1.4-0.1c-0.2,0.2-0.4,1.6-0.5,1.8c-0.3,1-0.7,2.1-1.1,3c-0.9,1.9-2,3.8-3.6,5.2
		c-2.9,2.5-6.8,3.3-10.5,2.5c-0.5-0.1-0.3-0.8,0.2-0.7c3.6,0.8,7.5-0.1,10.2-2.7c2.7-2.6,3.9-6.4,4.8-9.9c0.1-0.2,0.3-0.3,0.5-0.3
		c0.6,0.2,1.2,0.3,1.8,0.5C50.6,54.6,50.4,55.4,49.9,55.2z"/>
	<path class="st2" d="M30.4,71.9c-0.8,5.2,4.9,7.3,8.8,8.2c4.4,1.1,8.8,2.1,13.2,3.1c0.5,0.1,0.3,0.9-0.2,0.7l-8.9-2.1
		c-2.7-0.6-5.6-1.1-8.2-2.2c-3.3-1.3-6.1-4.2-5.5-8C29.8,71.2,30.5,71.4,30.4,71.9z"/>
	<line class="st3" x1="30.5" y1="71.5" x2="12" y2="66.3"/>
	<line class="st3" x1="36.3" y1="51.2" x2="17.8" y2="45.9"/>
	<line class="st3" x1="18.4" y1="46.6" x2="12.7" y2="66.6"/>
	<g>
		<polygon class="st4" points="45,93.1 51.9,95.8 75.1,40.2 68.3,37.5 		"/>
		<g>
			<path class="st5" d="M66.2,44.9c3.3,1.9,7.7,2.2,11.2,0.5c4.4-2.1,6.5-7,5-11.7c-1.7,2.1-3.5,4.3-5.2,6.4
				c-1.9-0.4-3.8-0.9-5.7-1.3"/>
			<path class="st5" d="M70.6,46.7c-3.7-1-7-3.8-8.2-7.4c-1.5-4.5,0.7-9.4,5.2-11.6c-0.4,2.7-0.8,5.4-1.2,8.1c1.6,1,3.3,2,4.9,3.1"
				/>
		</g>
		<g>
			<path class="st5" d="M46.9,95.9l5.6,2.3c-0.9,3.5-1.6,7.6-0.2,8.3c1.1,0.5,3-1,3.7-1.8c3.4-3.4,1.8-8.7,1.7-8.9
				c-0.2-0.6-1.9-5.8-7.2-7.4c-1.1-0.3-2.2-0.5-3.4-0.4"/>
			<path class="st5" d="M49.3,96.7l-5.7-2.1c-1.9,3.2-4.3,6.5-5.8,6.1c-1.1-0.3-1.4-2.7-1.4-3.8c0.1-4.7,5-7.4,5.2-7.6
				c0.6-0.3,5.6-2.9,10.5-0.4c1,0.5,1.9,1.2,2.7,2"/>
		</g>
	</g>
	<path class="st6" d="M57.9,56.7L57.9,56.7c-0.5,1.9,0.6,3.9,2.5,4.4l12.7,3.6c1.9,0.5,3.9-0.6,4.4-2.5v0c0.5-1.9-0.6-3.9-2.5-4.4
		l-12.7-3.6C60.4,53.7,58.4,54.8,57.9,56.7z"/>
	<path class="st7" d="M55.6,64.8L55.6,64.8c-0.6,2.1,0.6,4.3,2.7,4.9l11.9,3.4c2.1,0.6,4.3-0.6,4.9-2.7v0c0.6-2.1-0.6-4.3-2.7-4.9
		L60.5,62C58.4,61.4,56.2,62.6,55.6,64.8z"/>
	<path class="st6" d="M53.3,72.8L53.3,72.8c-0.5,1.9,0.6,3.9,2.5,4.4l12.7,3.6c1.9,0.5,3.9-0.6,4.4-2.5v0c0.5-1.9-0.6-3.9-2.5-4.4
		l-12.7-3.6C55.8,69.8,53.8,70.9,53.3,72.8z"/>
	<path class="st6" d="M52.1,80.4L52.1,80.4c-0.5,1.7,0.5,3.5,2.2,4L66,87.7c1.7,0.5,3.5-0.5,4-2.2l0,0c0.5-1.7-0.5-3.5-2.2-4
		L56,78.2C54.3,77.7,52.5,78.7,52.1,80.4z"/>
	<path class="st8" d="M51,51.4l-2.5,8.9c-0.9,3.3,1,6.7,4.2,7.6h0c3.3,0.9,6.7-1,7.6-4.2l2.5-8.9c0.9-3.3-1-6.7-4.2-7.6l0,0
		C55.4,46.2,51.9,48.1,51,51.4z"/>
	<path class="st0" d="M153.8,100c0-0.4-0.1-0.7-0.2-0.9c0.1-0.8,0-1.6,0-2.5c0.1-0.3,0.2-0.6,0.2-0.9c0.2-1.4,0.3-2.9,0.3-4.3
		c0-0.6-0.1-1.1-0.3-1.6c0.3-0.8,0.2-1.6,0-2.4c0.2-0.3,0.3-0.6,0.2-0.9c0-0.9-0.7-1.7-1.7-1.7h-0.1c-0.5,0-0.9,0.2-1.2,0.6
		c0,0,0,0,0,0c-0.4-0.1-0.8,0-1.1,0c-2.5,0-4.9,0.1-7.4,0c-0.1,0-0.2,0-0.3,0c-0.2,0-0.4,0-0.6,0c-1.1-0.1-2.3-0.3-3.5-0.3
		c-0.3-1.9-1.1-3.6-2.7-5.1c-3.2-3-9.8-3.8-13.9-3.1c-3.9,0.7-2.7,6.1,0.8,6.5c0,0.2-0.1,0.4-0.1,0.6c0,0.1,0,0.3,0,0.4
		c-0.1,0.6,0.1,1.1,0.4,1.6c0.3,2.2,0,4.5-0.1,6.8c-1.4,0.1-2.8,0.1-4.3,0.2c-2.6,0.1-3.6,2.6-3.1,4.6c-0.2,0.2-0.1,0.6,0.2,0.6
		c0.1,0.2,0.2,0.3,0.3,0.5c-0.6,1.3-0.5,2.9,0.5,4.1c-1.3,1.7-1,4.6,1.6,5.3c2.8,0.8,5.7,0.9,8.7,1c2.3,0.1,4.5,0.3,6.6-0.5
		c0.1,0,0.2,0,0.3,0c0.3,0,0.6,0,0.9-0.1c0.9,0,1.8-0.3,2.4-1c0.6-0.7,1-1.5,1-2.4V105c0,0,0,0,0,0c0.3-0.4,0.5-0.9,0.8-1.4
		c4.5-0.1,8.9,0.5,13.4,0.1c0.6,0.2,1.2,0.1,1.7-0.4c0.5-0.5,0.6-1.2,0.4-1.8C153.8,101,153.8,100.5,153.8,100z"/>
	<circle class="st9" cx="130.8" cy="98.7" r="0"/>
	<path class="st2" d="M120.4,76.8c5.9,0.8,16.9,0.2,17.4,8.6c0,0.4,0.7,0.4,0.7,0c-0.5-8.9-11.7-8.5-18-9.3
		C120,76.1,120,76.7,120.4,76.8z"/>
	<path class="st2" d="M125.3,85.4c0.4,0,1-0.1,1.2,0.2c0.1,0.2,0,1.4,0,1.7c0,0.9,0.1,1.9,0.2,2.8c0.3,1.8,0.8,3.6,1.8,5.2
		c1.8,2.8,4.9,4.4,8.2,4.6c0.4,0,0.4-0.6,0-0.7c-3.2-0.2-6.2-1.9-7.9-4.7c-1.7-2.8-1.8-6.3-1.7-9.5c0-0.2-0.2-0.3-0.3-0.3
		c-0.5,0-1.1,0-1.6,0C124.9,84.7,124.9,85.4,125.3,85.4z"/>
	<path class="st2" d="M137.7,104c-0.5,4.5-5.8,5-9.3,4.8c-3.9-0.1-7.9-0.3-11.8-0.5c-0.4,0-0.4,0.7,0,0.7l7.9,0.4
		c2.4,0.1,5,0.4,7.4,0.1c3.1-0.3,6.1-2.1,6.5-5.4C138.5,103.5,137.8,103.6,137.7,104z"/>
	<line class="st10" x1="137.8" y1="103.7" x2="154.6" y2="103.6"/>
	<line class="st10" x1="137.7" y1="85.3" x2="154.5" y2="85.2"/>
	<line class="st10" x1="153.8" y1="85.6" x2="153.8" y2="103.7"/>
	<g>
		<polygon class="st0" points="104.6,58.6 94.2,89.4 85.7,87.7 96.2,56.9 		"/>
		<polygon class="st0" points="81.4,86 98.1,89.5 96.5,94 79.8,90.6 		"/>
		<polygon class="st0" points="103.4,58.6 97.7,57.4 99.3,52.7 105,53.8 		"/>
	</g>
	<path class="st11" d="M98.5,72c9.8,0,17.7,9.1,17.7,20.4c0,10.8-7.3,19.6-16.5,20.3"/>
	<rect x="75.8" y="111" class="st12" width="26.3" height="3.5"/>
	<rect x="93.9" y="115.7" class="st13" width="7" height="8.8"/>
	<path class="st13" d="M79.3,138c0-6.8,8-12.3,17.8-12.3S115,131.2,115,138"/>
	<rect x="75.8" y="104.6" class="st14" width="22.8" height="4.1"/>
	<ellipse class="st15" cx="98.6" cy="73.5" rx="6.7" ry="6.7"/>
	<polygon class="st14" points="84.7,90.2 88.1,91 86.8,96.7 83.4,95.9 	"/>
	<polygon class="st14" points="90.6,91.9 94,92.7 92.6,98.4 89.2,97.6 	"/>
	<path class="st16" d="M118.3,84.8L118.3,84.8c0,1.7-1.4,3.1-3.1,3.1l-11.5,0c-1.7,0-3.1-1.4-3.1-3.1l0,0c0-1.7,1.4-3.1,3.1-3.1
		l11.5,0C116.9,81.6,118.3,83,118.3,84.8z"/>
	<path class="st17" d="M118.3,92.1L118.3,92.1c0,1.9-1.6,3.5-3.5,3.5l-10.8,0c-1.9,0-3.5-1.6-3.5-3.5v0c0-1.9,1.6-3.5,3.5-3.5
		l10.8,0C116.8,88.6,118.3,90.1,118.3,92.1z"/>
	<path class="st16" d="M118.4,99.4L118.4,99.4c0,1.7-1.4,3.1-3.1,3.1l-11.5,0c-1.7,0-3.1-1.4-3.1-3.1l0,0c0-1.7,1.4-3.1,3.1-3.1
		l11.5,0C116.9,96.2,118.4,97.6,118.4,99.4z"/>
	<path class="st16" d="M117.6,106L117.6,106c0,1.5-1.2,2.8-2.8,2.8l-10.6,0c-1.5,0-2.8-1.2-2.8-2.8v0c0-1.5,1.2-2.8,2.8-2.8l10.6,0
		C116.4,103.2,117.6,104.4,117.6,106z"/>
	<path class="st18" d="M125.3,81.9l0,8c0,2.9-2.4,5.4-5.3,5.4h0c-2.9,0-5.4-2.4-5.4-5.3l0-8c0-2.9,2.4-5.4,5.3-5.4h0
		C122.9,76.6,125.3,79,125.3,81.9z"/>
	<circle class="st19" cx="82.8" cy="80.8" r="72.2"/>
</g>
</svg>
